<?xml version="1.0" encoding="UTF-8" standalone="no"?>
<!-- Created with Inkscape (http://www.inkscape.org/) -->
<svg
   xmlns:dc="http://purl.org/dc/elements/1.1/"
   xmlns:cc="http://creativecommons.org/ns#"
   xmlns:rdf="http://www.w3.org/1999/02/22-rdf-syntax-ns#"
   xmlns:svg="http://www.w3.org/2000/svg"
   xmlns="http://www.w3.org/2000/svg"
   xmlns:sodipodi="http://sodipodi.sourceforge.net/DTD/sodipodi-0.dtd"
   xmlns:inkscape="http://www.inkscape.org/namespaces/inkscape"
   width="97.221024"
   height="89.91935"
   id="svg2833"
   sodipodi:version="0.32"
   inkscape:version="0.46+devel"
   version="1.0"
   sodipodi:docname="BackRook.svg"
   inkscape:output_extension="org.inkscape.output.svg.inkscape">
  <defs
     id="defs2835">
    <inkscape:perspective
       sodipodi:type="inkscape:persp3d"
       inkscape:vp_x="0 : 526.18109 : 1"
       inkscape:vp_y="0 : 1000 : 0"
       inkscape:vp_z="744.09448 : 526.18109 : 1"
       inkscape:persp3d-origin="372.04724 : 350.78739 : 1"
       id="perspective2841" />
    <inkscape:perspective
       id="perspective2851"
       inkscape:persp3d-origin="0.5 : 0.33333333 : 1"
       inkscape:vp_z="1 : 0.5 : 1"
       inkscape:vp_y="0 : 1000 : 0"
       inkscape:vp_x="0 : 0.5 : 1"
       sodipodi:type="inkscape:persp3d" />
    <inkscape:perspective
       id="perspective2873"
       inkscape:persp3d-origin="0.5 : 0.33333333 : 1"
       inkscape:vp_z="1 : 0.5 : 1"
       inkscape:vp_y="0 : 1000 : 0"
       inkscape:vp_x="0 : 0.5 : 1"
       sodipodi:type="inkscape:persp3d" />
    <inkscape:perspective
       id="perspective2916"
       inkscape:persp3d-origin="0.5 : 0.33333333 : 1"
       inkscape:vp_z="1 : 0.5 : 1"
       inkscape:vp_y="0 : 1000 : 0"
       inkscape:vp_x="0 : 0.5 : 1"
       sodipodi:type="inkscape:persp3d" />
    <inkscape:perspective
       id="perspective2959"
       inkscape:persp3d-origin="0.5 : 0.33333333 : 1"
       inkscape:vp_z="1 : 0.5 : 1"
       inkscape:vp_y="0 : 1000 : 0"
       inkscape:vp_x="0 : 0.5 : 1"
       sodipodi:type="inkscape:persp3d" />
  </defs>
  <sodipodi:namedview
     id="base"
     pagecolor="#ffffff"
     bordercolor="#666666"
     borderopacity="1.0"
     inkscape:pageopacity="0.0"
     inkscape:pageshadow="2"
     inkscape:zoom="0.98994949"
     inkscape:cx="8.7527877"
     inkscape:cy="82.430952"
     inkscape:document-units="px"
     inkscape:current-layer="layer1"
     showgrid="false"
     inkscape:window-width="658"
     inkscape:window-height="834"
     inkscape:window-x="564"
     inkscape:window-y="56" />
  <metadata
     id="metadata2838">
    <rdf:RDF>
      <cc:Work
         rdf:about="">
        <dc:format>image/svg+xml</dc:format>
        <dc:type
           rdf:resource="http://purl.org/dc/dcmitype/StillImage" />
        <dc:title></dc:title>
      </cc:Work>
    </rdf:RDF>
  </metadata>
  <g
     inkscape:label="Layer 1"
     inkscape:groupmode="layer"
     id="layer1"
     transform="translate(-67.582896,-63.246303)">
    <path
       style="stroke-width:1px"
       d="m 86.628289,138.26863 c -1.78648,0 -4.763941,-0.5955 -5.954931,0.59549 -1.78647,1.19098 -1.78647,7.7414 0,8.33689 4.168451,2.38197 13.100831,0.59549 17.864771,0.59549 h 35.729541 c 4.76394,0 11.90985,1.19099 16.67379,0 2.38197,-1.19098 2.97746,-7.1459 0.59549,-8.93238 -1.19099,-1.19099 -4.16845,-0.59549 -5.95492,-0.59549 0,-2.97747 0.59549,-6.55042 -0.5955,-8.93239 -1.19098,-2.97746 -4.76393,-4.16844 -5.95492,-7.7414 -1.78648,-7.7414 -0.59549,-20.24674 0,-27.988142 0.59549,-4.16844 5.35943,-5.95492 7.14591,-8.93238 2.38197,-2.97746 1.78648,-11.31435 1.19098,-14.29182 -1.19098,-2.97746 -11.90984,-2.97746 -13.69632,-1.19098 -1.78648,1.19098 -1.19098,4.16845 -1.19098,5.95492 h -8.93239 c 0,-1.78647 0.59549,-4.16844 -0.59549,-5.35943 -1.19099,-1.78648 -12.50534,-1.78648 -13.69633,0 -1.19098,1.19099 -0.59549,3.57296 -0.59549,5.35943 h -8.932381 c 0,-1.78647 0.595491,-4.76394 -1.19099,-5.95492 -1.78647,-1.78648 -12.50533,-1.78648 -13.69632,1.19098 -0.59549,2.97747 -1.190982,11.31436 1.19099,14.29182 1.78647,2.97746 6.55041,4.76394 7.1459,8.93238 0.59549,7.741402 1.78648,20.246742 0,27.988142 -1.19098,3.57296 -4.76394,4.76394 -5.95492,7.7414 -1.19098,2.38197 -0.59549,5.95492 -0.59549,8.93239 z m 4.16844,2.97746 c -1.78647,-0.59549 -0.59549,-2.38197 1.19099,-2.97746 11.909841,-1.78648 25.010681,0 36.920521,0 2.97746,0 10.12337,-1.19099 12.50534,0.59549 4.16845,2.97746 -8.33689,2.97746 -9.52788,2.97746 h -29.17912 c -2.977461,0 -8.932391,1.19098 -11.909851,-0.59549 z m 1.78648,-10.12337 c -4.76394,-1.78648 5.35943,-2.97746 6.55042,-2.97746 h 29.774611 c 2.38197,0 9.52788,-1.19099 11.31436,1.19098 2.97746,2.97746 -8.93239,2.38197 -10.12337,2.38197 h -26.20167 c -2.97746,0 -8.336891,1.19099 -11.314351,-0.59549 z m 4.76394,-6.55042 c -1.78648,-0.59549 -1.19099,-2.38197 0.59549,-2.97746 8.336891,-2.38197 20.246741,0 28.583631,0 2.38197,0 7.7414,-1.19098 8.93239,1.19099 2.38197,2.97746 -6.55042,2.38197 -7.7414,2.38197 h -20.84223 c -2.97747,0 -7.145911,0.59549 -9.527881,-0.5955 z m 0,-32.752072 c -1.78648,-0.5955 -1.19099,-2.38197 0.59549,-2.97746 8.336891,-2.38197 20.246741,0 28.583631,0 2.38197,0 7.7414,-1.19099 8.93239,1.19098 2.38197,2.97746 -6.55042,2.38197 -7.7414,2.38197 h -20.84223 c -2.97747,0 -7.145911,0.59549 -9.527881,-0.59549 z m -7.14591,-7.7414 c -1.78648,-0.5955 -0.59549,-2.38197 1.19099,-2.97746 11.909841,-1.78648 26.201661,0 38.111501,0 2.97747,0 10.12337,-1.19099 12.50534,0.59549 4.16845,2.97746 -8.33689,2.97746 -9.52787,2.97746 h -29.77462 c -3.572951,0 -9.527881,1.19098 -12.505341,-0.59549 z"
       id="BlackRook" />
  </g>
</svg>
