<?xml version="1.0" encoding="UTF-8" standalone="no"?>
<!-- Created with Inkscape (http://www.inkscape.org/) -->

<svg
   xmlns:dc="http://purl.org/dc/elements/1.1/"
   xmlns:cc="http://creativecommons.org/ns#"
   xmlns:rdf="http://www.w3.org/1999/02/22-rdf-syntax-ns#"
   xmlns:svg="http://www.w3.org/2000/svg"
   xmlns="http://www.w3.org/2000/svg"
   version="1.0"
   width="100"
   height="100"
   id="svg2833">
  <defs
     id="defs2835" />
  <metadata
     id="metadata2838">
    <rdf:RDF>
      <cc:Work
         rdf:about="">
        <dc:format>image/svg+xml</dc:format>
        <dc:type
           rdf:resource="http://purl.org/dc/dcmitype/StillImage" />
        <dc:title />
      </cc:Work>
    </rdf:RDF>
  </metadata>
  <g
     transform="translate(-67.582896,-53.165632)"
     id="layer1">
    <g
       transform="matrix(1.2951513,0,0,1.2967022,-701.26727,560.75586)"
       id="g504"
       style="display:inline">
      <path
         d="m 784.93957,-340.63966 -16.36886,-0.18155 -8.14608,14.19861 -8.0272,-14.26663 -16.3694,0.0446 8.34166,-14.08508 -8.22332,-14.15401 16.36886,0.18155 8.14608,-14.19861 8.0272,14.26662 16.3694,-0.0446 -8.34166,14.08507 z"
         transform="translate(-128.27617,0)"
         id="path348"
         style="color:#000000;fill:#000000;fill-opacity:1;stroke:#000000;stroke-width:1.54329729;stroke-linecap:butt;stroke-linejoin:miter;stroke-miterlimit:4;stroke-opacity:1;stroke-dasharray:none;marker:none;visibility:visible;display:inline;overflow:visible;enable-background:accumulate" />
      <path
         d="m 739.73035,-369.961 a 4.2169256,4.2169256 0 1 1 -8.43385,0 4.2169256,4.2169256 0 1 1 8.43385,0 z"
         transform="matrix(0.82998852,0,0,0.82998851,21.7991,-76.254265)"
         id="path350"
         style="color:#000000;fill:#ffffcc;fill-opacity:1;stroke:#000000;stroke-width:1.8594203;stroke-linecap:butt;stroke-linejoin:miter;stroke-miterlimit:4;stroke-opacity:1;stroke-dasharray:none;marker:none;visibility:visible;display:inline;overflow:visible;enable-background:accumulate" />
      <path
         d="m 739.73035,-369.961 a 4.2169256,4.2169256 0 1 1 -8.43385,0 4.2169256,4.2169256 0 1 1 8.43385,0 z"
         transform="matrix(0.82998852,0,0,0.82998851,46.38127,-62.412914)"
         id="path352"
         style="color:#000000;fill:#ffffcc;fill-opacity:1;stroke:#000000;stroke-width:1.8594203;stroke-linecap:butt;stroke-linejoin:miter;stroke-miterlimit:4;stroke-opacity:1;stroke-dasharray:none;marker:none;visibility:visible;display:inline;overflow:visible;enable-background:accumulate" />
      <path
         d="m 739.73035,-369.961 a 4.2169256,4.2169256 0 1 1 -8.43385,0 4.2169256,4.2169256 0 1 1 8.43385,0 z"
         transform="matrix(0.82998852,0,0,0.82998851,46.38127,-33.389588)"
         id="path354"
         style="color:#000000;fill:#ffffcc;fill-opacity:1;stroke:#000000;stroke-width:1.8594203;stroke-linecap:butt;stroke-linejoin:miter;stroke-miterlimit:4;stroke-opacity:1;stroke-dasharray:none;marker:none;visibility:visible;display:inline;overflow:visible;enable-background:accumulate" />
      <path
         d="m 739.73035,-369.961 a 4.2169256,4.2169256 0 1 1 -8.43385,0 4.2169256,4.2169256 0 1 1 8.43385,0 z"
         transform="matrix(0.82998852,0,0,0.82998851,21.7991,-19.248004)"
         id="path356"
         style="color:#000000;fill:#ffffcc;fill-opacity:1;stroke:#000000;stroke-width:1.8594203;stroke-linecap:butt;stroke-linejoin:miter;stroke-miterlimit:4;stroke-opacity:1;stroke-dasharray:none;marker:none;visibility:visible;display:inline;overflow:visible;enable-background:accumulate" />
      <path
         d="m 739.73035,-369.961 a 4.2169256,4.2169256 0 1 1 -8.43385,0 4.2169256,4.2169256 0 1 1 8.43385,0 z"
         transform="matrix(0.82998852,0,0,0.82998851,-2.83095,-33.389588)"
         id="path358"
         style="color:#000000;fill:#ffffcc;fill-opacity:1;stroke:#000000;stroke-width:1.8594203;stroke-linecap:butt;stroke-linejoin:miter;stroke-miterlimit:4;stroke-opacity:1;stroke-dasharray:none;marker:none;visibility:visible;display:inline;overflow:visible;enable-background:accumulate" />
      <path
         d="m 739.73035,-369.961 a 4.2169256,4.2169256 0 1 1 -8.43385,0 4.2169256,4.2169256 0 1 1 8.43385,0 z"
         transform="matrix(0.82998852,0,0,0.82998851,-2.83095,-62.412914)"
         id="path361"
         style="color:#000000;fill:#ffffcc;fill-opacity:1;stroke:#000000;stroke-width:1.8594203;stroke-linecap:butt;stroke-linejoin:miter;stroke-miterlimit:4;stroke-opacity:1;stroke-dasharray:none;marker:none;visibility:visible;display:inline;overflow:visible;enable-background:accumulate" />
      <path
         d="m 772.1055,-353.77347 a 11.154449,11.154449 0 1 1 -22.3089,0 11.154449,11.154449 0 1 1 22.3089,0 z"
         transform="matrix(0.95121952,0,0,0.98780488,-91.56469,-5.1304896)"
         id="path363"
         style="color:#000000;fill:#000000;fill-opacity:1;stroke:#ffffcc;stroke-width:1.59211218;stroke-linecap:butt;stroke-linejoin:miter;stroke-miterlimit:4;stroke-opacity:1;stroke-dasharray:none;marker:none;visibility:visible;display:inline;overflow:visible;enable-background:accumulate" />
    </g>
  </g>
</svg>
