<?xml version="1.0" encoding="UTF-8" standalone="no"?>
<!-- Created with Inkscape (http://www.inkscape.org/) -->

<svg
   xmlns:dc="http://purl.org/dc/elements/1.1/"
   xmlns:cc="http://creativecommons.org/ns#"
   xmlns:rdf="http://www.w3.org/1999/02/22-rdf-syntax-ns#"
   xmlns:svg="http://www.w3.org/2000/svg"
   xmlns="http://www.w3.org/2000/svg"
   xmlns:inkscape="http://www.inkscape.org/namespaces/inkscape"
   version="1.0"
   width="100"
   height="100"
   id="svg2833">
  <defs
     id="defs2835" />
  <metadata
     id="metadata2838">
    <rdf:RDF>
      <cc:Work
         rdf:about="">
        <dc:format>image/svg+xml</dc:format>
        <dc:type
           rdf:resource="http://purl.org/dc/dcmitype/StillImage" />
        <dc:title />
      </cc:Work>
    </rdf:RDF>
  </metadata>
  <g
     transform="translate(-67.582896,-53.165653)"
     id="layer1">
    <g
       transform="matrix(1.2982346,0,0,1.3132873,-370.58429,566.7991)"
       id="g793"
       style="display:inline">
      <path
         d="m 508.86265,-382.5542 a 4.6124978,4.6124978 0 1 1 -9.225,0 4.6124978,4.6124978 0 1 1 9.225,0 z"
         transform="matrix(0.87096774,0,0,0.86290323,-63.161756,-52.446946)"
         id="path457"
         style="color:#000000;fill:#000000;fill-opacity:1;fill-rule:nonzero;stroke:#000000;stroke-width:1.76681674;stroke-linecap:butt;stroke-linejoin:miter;stroke-miterlimit:4;stroke-opacity:1;stroke-dasharray:none;marker:none;visibility:visible;display:inline;overflow:visible;enable-background:accumulate" />
      <path
         d="m 365.16868,-346.78633 c -1.69277,-1.98158 -6.13866,-3.04764 -6.21838,-12.85947 -0.0712,-8.76374 11.5805,-17.92585 17.22248,-17.99833 5.64638,-0.0725 16.90827,9.24582 16.92489,17.99833 0.0202,10.62405 -4.32204,11.30968 -5.94258,12.85947 z"
         inkscape:connector-curvature="0"
         id="path459"
         style="color:#000000;fill:#000000;fill-opacity:1;fill-rule:nonzero;stroke:#000000;stroke-width:1.53169942;stroke-linecap:butt;stroke-linejoin:miter;stroke-miterlimit:4;stroke-opacity:1;marker:none;visibility:visible;display:inline;overflow:visible;enable-background:accumulate" />
      <path
         d="m 390.90235,-337.54517 c 0,1.6435 -6.66157,2.97581 -14.87902,2.97581 -8.21746,0 -14.87903,-1.33231 -14.87903,-2.97581 0.0526,-1.10471 2.12554,-7.70048 5.16562,-8.71511 5.33881,-1.78182 14.24203,-1.99005 19.77699,0 2.97119,1.06827 4.86805,7.71561 4.81544,8.71511 z"
         inkscape:connector-curvature="0"
         id="path461"
         style="color:#000000;fill:#000000;fill-opacity:1;fill-rule:nonzero;stroke:#000000;stroke-width:1.53169942;stroke-linecap:butt;stroke-linejoin:miter;stroke-miterlimit:4;stroke-opacity:1;marker:none;visibility:visible;display:inline;overflow:visible;enable-background:accumulate" />
      <path
         d="m 364.57089,-339.52673 c 2.72937,-0.65315 6.83312,-1.06864 11.42208,-1.06864 4.62372,0 8.75485,0.42181 11.48386,1.08352"
         inkscape:connector-curvature="0"
         id="path463"
         style="color:#000000;fill:none;stroke:#ffffcc;stroke-width:1.53169942;stroke-linecap:butt;stroke-linejoin:miter;stroke-miterlimit:4;stroke-opacity:1;marker:none;visibility:visible;display:inline;overflow:visible;enable-background:accumulate" />
      <path
         d="m 376.02386,-367.6202 0,12.95918"
         inkscape:connector-curvature="0"
         id="path465"
         style="color:#000000;fill:#ef2929;fill-opacity:1;fill-rule:nonzero;stroke:#ffffcc;stroke-width:1.53169942;stroke-linecap:butt;stroke-linejoin:miter;stroke-miterlimit:4;stroke-opacity:1;stroke-dasharray:none;marker:none;visibility:visible;display:inline;overflow:visible;enable-background:accumulate" />
      <path
         d="m 369.03753,-360.60764 13.97266,0"
         inkscape:connector-curvature="0"
         id="path467"
         style="color:#000000;fill:#ef2929;fill-opacity:1;fill-rule:nonzero;stroke:#ffffcc;stroke-width:1.53169942;stroke-linecap:butt;stroke-linejoin:miter;stroke-miterlimit:4;stroke-opacity:1;stroke-dasharray:none;marker:none;visibility:visible;display:inline;overflow:visible;enable-background:accumulate" />
      <path
         d="m 345.03406,-327.09305 3.48471,3.75676 c 1.60406,-1.05102 3.20113,-1.25505 5.26581,-1.25505 l 14.3628,0 c 2.53748,0 6.12935,-3.1116 7.96364,-4.32485 1.80949,1.28101 5.35969,4.32485 7.96364,4.32485 l 15.05569,0 c 1.74542,0 2.80159,0.16346 4.4677,1.25505 l 3.41561,-3.68236 c -1.71938,-1.29856 -8.63258,-2.80978 -11.6709,-2.68762 -3.03832,0.12216 -9.00013,0.96124 -11.67837,0.10521 -2.67824,-0.85603 -5.13785,-2.86465 -6.22817,-3.95497 l -2.78114,0.0744 c -1.35847,1.19074 -3.11846,3.15607 -6.56186,3.88057 -3.4434,0.7245 -8.04773,-0.0867 -11.04711,-0.10521 -2.99939,-0.0186 -9.99857,0.73071 -12.01205,2.61322 z"
         inkscape:connector-curvature="0"
         id="path469"
         style="color:#000000;fill:#000000;fill-opacity:1;fill-rule:nonzero;stroke:#000000;stroke-width:1.53169942;stroke-linecap:butt;stroke-linejoin:miter;stroke-miterlimit:4;stroke-opacity:1;stroke-dasharray:none;marker:none;visibility:visible;display:inline;overflow:visible;enable-background:accumulate" />
      <path
         d="m 366.63535,-346.55707 c 2.72938,-0.65315 4.63847,-1.06864 9.22742,-1.06864 4.62372,0 6.82058,0.34741 9.5496,1.00912"
         inkscape:connector-curvature="0"
         id="path491"
         style="color:#000000;fill:none;stroke:#ffffcc;stroke-width:1.53169942;stroke-linecap:butt;stroke-linejoin:miter;stroke-miterlimit:4;stroke-opacity:1;marker:none;visibility:visible;display:inline;overflow:visible;enable-background:accumulate" />
    </g>
  </g>
</svg>
