<?xml version="1.0" encoding="UTF-8" standalone="no"?>
<!-- Created with Inkscape (http://www.inkscape.org/) -->

<svg
   xmlns:dc="http://purl.org/dc/elements/1.1/"
   xmlns:cc="http://creativecommons.org/ns#"
   xmlns:rdf="http://www.w3.org/1999/02/22-rdf-syntax-ns#"
   xmlns:svg="http://www.w3.org/2000/svg"
   xmlns="http://www.w3.org/2000/svg"
   xmlns:sodipodi="http://sodipodi.sourceforge.net/DTD/sodipodi-0.dtd"
   xmlns:inkscape="http://www.inkscape.org/namespaces/inkscape"
   width="100"
   height="100"
   id="svg2"
   version="1.1"
   inkscape:version="0.47 r22583"
   sodipodi:docname="BlackWizard.svg">
  <defs
     id="defs4">
    <inkscape:perspective
       sodipodi:type="inkscape:persp3d"
       inkscape:vp_x="0 : 526.18109 : 1"
       inkscape:vp_y="0 : 1000 : 0"
       inkscape:vp_z="744.09448 : 526.18109 : 1"
       inkscape:persp3d-origin="372.04724 : 350.78739 : 1"
       id="perspective10" />
    <inkscape:perspective
       id="perspective2824"
       inkscape:persp3d-origin="0.5 : 0.33333333 : 1"
       inkscape:vp_z="1 : 0.5 : 1"
       inkscape:vp_y="0 : 1000 : 0"
       inkscape:vp_x="0 : 0.5 : 1"
       sodipodi:type="inkscape:persp3d" />
    <inkscape:perspective
       id="perspective2838"
       inkscape:persp3d-origin="0.5 : 0.33333333 : 1"
       inkscape:vp_z="1 : 0.5 : 1"
       inkscape:vp_y="0 : 1000 : 0"
       inkscape:vp_x="0 : 0.5 : 1"
       sodipodi:type="inkscape:persp3d" />
  </defs>
  <sodipodi:namedview
     id="base"
     pagecolor="#ffffff"
     bordercolor="#666666"
     borderopacity="1.0"
     inkscape:pageopacity="0.0"
     inkscape:pageshadow="2"
     inkscape:zoom="2"
     inkscape:cx="52.657835"
     inkscape:cy="23.437927"
     inkscape:document-units="px"
     inkscape:current-layer="layer1"
     showgrid="false"
     inkscape:window-width="792"
     inkscape:window-height="583"
     inkscape:window-x="62"
     inkscape:window-y="24"
     inkscape:window-maximized="0" />
  <metadata
     id="metadata7">
    <rdf:RDF>
      <cc:Work
         rdf:about="">
        <dc:format>image/svg+xml</dc:format>
        <dc:type
           rdf:resource="http://purl.org/dc/dcmitype/StillImage" />
        <dc:title />
      </cc:Work>
    </rdf:RDF>
  </metadata>
  <g
     inkscape:label="Layer 1"
     inkscape:groupmode="layer"
     id="layer1"
     transform="translate(366.71429,-981.93367)">
    <path
       style="fill:#000000;fill-opacity:1;stroke:#000000;stroke-width:2.85478044;stroke-linecap:butt;stroke-linejoin:miter;stroke-miterlimit:4;stroke-opacity:1;stroke-dasharray:none"
       d="m -349.95821,1066.1618 33.81708,-71.66247 33.2439,71.09377"
       id="path3613" />
    <path
       sodipodi:type="arc"
       style="fill:#000000;fill-opacity:1;stroke:#000000;stroke-width:2.5;stroke-miterlimit:4;stroke-opacity:1;stroke-dasharray:none"
       id="path3615"
       sodipodi:cx="50"
       sodipodi:cy="18.25"
       sodipodi:rx="5.5"
       sodipodi:ry="5.25"
       d="m 55.5,18.25 a 5.5,5.25 0 1 1 -11,0 5.5,5.25 0 1 1 11,0 z"
       transform="matrix(1.1463415,0,0,1.1375,-373.45821,972.31805)" />
    <path
       sodipodi:type="arc"
       style="fill:#000000;fill-opacity:1;stroke:#000000;stroke-width:2.5;stroke-miterlimit:4;stroke-opacity:1;stroke-dasharray:none"
       id="path2839"
       sodipodi:cx="52"
       sodipodi:cy="82.25"
       sodipodi:rx="27"
       sodipodi:ry="7.25"
       d="m 79,82.25 a 27,7.25 0 1 1 -54,0 27,7.25 0 1 1 54,0 z"
       transform="matrix(1.2399213,0,0,1.1302987,-380.90363,974.04786)" />
    <path
       sodipodi:type="star"
       style="fill:#ffffcc;fill-opacity:1;stroke:#ffffcc;stroke-width:2.5;stroke-miterlimit:4;stroke-opacity:1;stroke-dasharray:none"
       id="path3619"
       sodipodi:sides="5"
       sodipodi:cx="46.5"
       sodipodi:cy="46.5"
       sodipodi:r1="2.8284271"
       sodipodi:r2="1.4142137"
       sodipodi:arg1="0.78539816"
       sodipodi:arg2="1.4137167"
       inkscape:flatsided="false"
       inkscape:rounded="0"
       inkscape:randomized="0"
       d="m 48.5,48.5 -1.778768,-0.603198 -1.505311,1.123345 0.024,-1.878107 -1.53353,-1.084503 L 45.5,45.5 l 0.557537,-1.793604 1.084503,1.53353 1.878107,-0.024 -1.123345,1.505311 L 48.5,48.5 z"
       transform="matrix(1.5009809,0,0,1.6803304,-385.18093,937.87565)" />
    <path
       sodipodi:type="star"
       style="fill:#ffffcc;fill-opacity:1;stroke:#ffffcc;stroke-width:2.5;stroke-miterlimit:4;stroke-opacity:1;stroke-dasharray:none"
       id="path3621"
       sodipodi:sides="5"
       sodipodi:cx="58"
       sodipodi:cy="62"
       sodipodi:r1="2.8284271"
       sodipodi:r2="1.4142137"
       sodipodi:arg1="0.78539816"
       sodipodi:arg2="1.4137167"
       inkscape:flatsided="false"
       inkscape:rounded="0"
       inkscape:randomized="0"
       d="m 60,64 -1.778768,-0.603198 -1.505311,1.123345 0.024,-1.878107 -1.53353,-1.084503 L 57,61 l 0.557537,-1.793604 1.084503,1.53353 1.878107,-0.024 -1.123345,1.505311 L 60,64 z"
       transform="matrix(1.1541742,0,0,1.5217147,-367.07607,951.86802)" />
    <path
       sodipodi:type="star"
       style="fill:#ffffcc;fill-opacity:1;stroke:#ffffcc;stroke-width:2.5;stroke-miterlimit:4;stroke-opacity:1;stroke-dasharray:none"
       id="path3623"
       sodipodi:sides="5"
       sodipodi:cx="34.5"
       sodipodi:cy="68"
       sodipodi:r1="2.6925824"
       sodipodi:r2="1.3462912"
       sodipodi:arg1="0.38050638"
       sodipodi:arg2="1.0088249"
       inkscape:flatsided="false"
       inkscape:rounded="0"
       inkscape:randomized="0"
       d="M 37,69 35.217379,69.13924 34.321486,70.686658 33.638201,69.034312 31.889672,68.660446 33.25,67.5 33.065243,65.72152 34.589257,66.656671 36.223599,65.931376 35.805164,67.669777 37,69 z"
       transform="matrix(1.0454393,0,0,1.7385621,-368.48265,928.07316)" />
    <path
       style="fill:#ffffcc;fill-opacity:1;stroke:#ffffcc;stroke-width:1.51347899;stroke-linecap:butt;stroke-linejoin:miter;stroke-miterlimit:4;stroke-opacity:1;stroke-dasharray:none"
       d="m -313.36111,1030.0247 c -5.0189,3.5022 -4.65818,10.586 0,14.4461 -4.57553,-0.097 -8.11904,-3.4078 -8.01997,-7.6408 -0.12183,-3.8231 3.6197,-6.8614 8.01997,-6.8053 z"
       id="path3627"
       sodipodi:nodetypes="cccc" />
    <path
       style="fill:none;stroke:#ffffcc;stroke-width:2.85478044;stroke-linecap:butt;stroke-linejoin:miter;stroke-miterlimit:4;stroke-opacity:1;stroke-dasharray:none"
       d="m -350.53138,1066.1618 c 3.29116,-9.8896 64.72407,-9.6231 67.63415,0.5688"
       id="path3645"
       sodipodi:nodetypes="cc" />
    <path
       style="fill:none;stroke:#ffffcc;stroke-width:2.85478044;stroke-linecap:butt;stroke-linejoin:miter;stroke-miterlimit:4;stroke-opacity:1;stroke-dasharray:none"
       d="m -318.43382,1000.1868 4.58537,0.5687 0,0"
       id="path3649" />
  </g>
</svg>
