<?xml version="1.0" encoding="UTF-8" standalone="no"?>
<!-- Created with Inkscape (http://www.inkscape.org/) -->

<svg
   xmlns:dc="http://purl.org/dc/elements/1.1/"
   xmlns:cc="http://creativecommons.org/ns#"
   xmlns:rdf="http://www.w3.org/1999/02/22-rdf-syntax-ns#"
   xmlns:svg="http://www.w3.org/2000/svg"
   xmlns="http://www.w3.org/2000/svg"
   xmlns:inkscape="http://www.inkscape.org/namespaces/inkscape"
   version="1.0"
   width="100"
   height="100"
   id="svg2833">
  <defs
     id="defs2835" />
  <metadata
     id="metadata2838">
    <rdf:RDF>
      <cc:Work
         rdf:about="">
        <dc:format>image/svg+xml</dc:format>
        <dc:type
           rdf:resource="http://purl.org/dc/dcmitype/StillImage" />
        <dc:title />
      </cc:Work>
    </rdf:RDF>
  </metadata>
  <g
     transform="translate(-67.582896,-53.165653)"
     id="layer1">
    <g
       transform="matrix(1.4145524,0,0,1.3664471,-414.49495,240.03714)"
       id="g1249"
       style="display:inline">
      <path
         d="m 396.03869,-75.612106 c 0,2.202134 -8.92592,3.987316 -19.93658,3.987316 -11.01068,0 -19.93659,-1.785182 -19.93659,-3.987316 l -1.5868,-14.572313 c 0,0 -9.59362,-5.738758 -9.56142,-12.728611 0.0271,-5.89722 4.61758,-11.88102 13.18257,-11.7992 11.91497,0.11381 17.98361,12.16539 17.98361,22.011619 0,-9.846229 6.03661,-21.962729 18.14636,-22.011619 8.50951,-0.0344 13.13417,5.96559 12.93843,11.7992 -0.24322,7.248865 -9.6205,12.728611 -9.6205,12.728611 z"
         inkscape:connector-curvature="0"
         id="path1112"
         style="color:#000000;fill:#000000;fill-opacity:1;fill-rule:nonzero;stroke:#000000;stroke-width:1.43854702;stroke-linejoin:bevel;stroke-opacity:1;marker:none;visibility:visible;display:inline;overflow:visible;enable-background:accumulate" />
      <path
         d="m 376.1614,-121.625 c -3.30496,0 -6,3.58279 -6,8 l 0.0312,4.28125 c 4.05336,4.43574 6.09375,10.935666 6.09375,16.65625 0,-5.566419 1.94725,-11.85427 5.8125,-16.28125 l 0.0312,-4.65625 c 0,-4.41721 -2.66378,-8 -5.96875,-8 z"
         inkscape:connector-curvature="0"
         id="path1120"
         style="color:#000000;fill:#000000;fill-opacity:1;fill-rule:nonzero;stroke:#000000;stroke-width:1.43854702;stroke-linecap:butt;stroke-linejoin:bevel;stroke-opacity:1;marker:none;visibility:visible;display:inline;overflow:visible;enable-background:accumulate" />
      <path
         d="m 376.14573,-134.60235 0,13.544"
         inkscape:connector-curvature="0"
         id="path1122"
         style="color:#000000;fill:none;stroke:#000000;stroke-width:1.43854702;stroke-linecap:butt;stroke-linejoin:bevel;stroke-opacity:1;marker:none;visibility:visible;display:inline;overflow:visible;enable-background:accumulate" />
      <path
         d="m 371.16818,-129.62952 9.95509,0"
         inkscape:connector-curvature="0"
         id="path1124"
         style="color:#000000;fill:none;stroke:#000000;stroke-width:1.43854702;stroke-linecap:butt;stroke-linejoin:bevel;stroke-opacity:1;marker:none;visibility:visible;display:inline;overflow:visible;enable-background:accumulate" />
      <path
         d="m 376.19678,-119.64383 c -1.35828,-0.0579 -2.41056,1.05958 -3.05812,2.11677 -1.13906,1.8596 -1.21079,4.3293 -0.87291,6.4837 0.47169,3.00759 2.96709,5.44315 3.93103,8.24376 1.17407,-2.80864 3.39687,-5.24495 3.84606,-8.24376 0.32328,-2.15825 0.21913,-4.61505 -0.90812,-6.4837 -0.62347,-1.03353 -1.57966,-2.05887 -2.93794,-2.11677 z"
         inkscape:connector-curvature="0"
         id="path1140"
         style="color:#000000;fill:#000000;fill-opacity:1;fill-rule:nonzero;stroke:#ffffcc;stroke-width:1.43854702;stroke-linecap:butt;stroke-linejoin:miter;stroke-opacity:1;marker:none;visibility:visible;display:inline;overflow:visible;enable-background:accumulate" />
      <path
         d="m 358.3626,-89.696176 c 0,0 -11.31095,-7.362398 -11.31095,-13.216854 0,-5.89728 5.18498,-9.68348 11.14822,-9.68348 11.91551,0 15.86789,13.223249 15.86789,19.895899 l 4.23144,0 c 0,-6.591276 3.92079,-19.814529 16.03064,-19.814529 5.82436,0 11.01844,3.7685 10.82271,9.60211 -0.21595,6.436042 -11.12592,13.298228 -11.12592,13.298228"
         inkscape:connector-curvature="0"
         id="path1187"
         style="color:#000000;fill:none;stroke:#ffffcc;stroke-width:1.43854702;stroke-linejoin:bevel;stroke-opacity:1;marker:none;visibility:visible;display:inline;overflow:visible;enable-background:accumulate" />
      <path
         d="m 357.97138,-76.521159 c 3.12838,-1.383367 10.08933,-3.078265 18.17434,-3.078265 7.9975,0 14.89514,1.714861 18.07142,3.074182"
         inkscape:connector-curvature="0"
         id="path1118"
         style="color:#000000;fill:none;stroke:#ffffcc;stroke-width:1.43854702;stroke-opacity:1;marker:none;visibility:visible;display:inline;overflow:visible;enable-background:accumulate" />
      <path
         d="m 358.14798,-82.114118 c 3.20838,-1.439392 10.06152,-2.433742 17.99774,-2.433742 7.71628,0 14.4087,0.940001 17.72267,2.31511"
         inkscape:connector-curvature="0"
         id="path1114"
         style="color:#000000;fill:none;stroke:#ffffcc;stroke-width:1.43854702;stroke-opacity:1;marker:none;visibility:visible;display:inline;overflow:visible;enable-background:accumulate" />
      <path
         d="m 357.34698,-89.742695 c 3.36918,-1.692734 10.52079,-2.860767 18.79874,-2.860767 8.39113,0 15.62491,1.20019 18.93481,2.930489"
         inkscape:connector-curvature="0"
         id="path1116"
         style="color:#000000;fill:none;stroke:#ffffcc;stroke-width:1.43854725;stroke-opacity:1;marker:none;visibility:visible;display:inline;overflow:visible;enable-background:accumulate" />
    </g>
  </g>
</svg>
