<?xml version="1.0" encoding="UTF-8" standalone="no"?>
<!-- Created with Inkscape (http://www.inkscape.org/) -->
<svg
   xmlns:dc="http://purl.org/dc/elements/1.1/"
   xmlns:cc="http://creativecommons.org/ns#"
   xmlns:rdf="http://www.w3.org/1999/02/22-rdf-syntax-ns#"
   xmlns:svg="http://www.w3.org/2000/svg"
   xmlns="http://www.w3.org/2000/svg"
   xmlns:sodipodi="http://sodipodi.sourceforge.net/DTD/sodipodi-0.dtd"
   xmlns:inkscape="http://www.inkscape.org/namespaces/inkscape"
   width="97.221024"
   height="89.91935"
   id="svg2833"
   sodipodi:version="0.32"
   inkscape:version="0.46+devel"
   version="1.0"
   sodipodi:docname="BlackQueen.svg"
   inkscape:output_extension="org.inkscape.output.svg.inkscape">
  <defs
     id="defs2835">
    <inkscape:perspective
       sodipodi:type="inkscape:persp3d"
       inkscape:vp_x="0 : 526.18109 : 1"
       inkscape:vp_y="0 : 1000 : 0"
       inkscape:vp_z="744.09448 : 526.18109 : 1"
       inkscape:persp3d-origin="372.04724 : 350.78739 : 1"
       id="perspective2841" />
    <inkscape:perspective
       id="perspective2851"
       inkscape:persp3d-origin="0.5 : 0.33333333 : 1"
       inkscape:vp_z="1 : 0.5 : 1"
       inkscape:vp_y="0 : 1000 : 0"
       inkscape:vp_x="0 : 0.5 : 1"
       sodipodi:type="inkscape:persp3d" />
    <inkscape:perspective
       id="perspective2873"
       inkscape:persp3d-origin="0.5 : 0.33333333 : 1"
       inkscape:vp_z="1 : 0.5 : 1"
       inkscape:vp_y="0 : 1000 : 0"
       inkscape:vp_x="0 : 0.5 : 1"
       sodipodi:type="inkscape:persp3d" />
  </defs>
  <sodipodi:namedview
     id="base"
     pagecolor="#ffffff"
     bordercolor="#666666"
     borderopacity="1.0"
     inkscape:pageopacity="0.0"
     inkscape:pageshadow="2"
     inkscape:zoom="0.98994949"
     inkscape:cx="50.852927"
     inkscape:cy="82.430952"
     inkscape:document-units="px"
     inkscape:current-layer="layer1"
     showgrid="false"
     inkscape:window-width="658"
     inkscape:window-height="834"
     inkscape:window-x="439"
     inkscape:window-y="68" />
  <metadata
     id="metadata2838">
    <rdf:RDF>
      <cc:Work
         rdf:about="">
        <dc:format>image/svg+xml</dc:format>
        <dc:type
           rdf:resource="http://purl.org/dc/dcmitype/StillImage" />
        <dc:title></dc:title>
      </cc:Work>
    </rdf:RDF>
  </metadata>
  <g
     inkscape:label="Layer 1"
     inkscape:groupmode="layer"
     id="layer1"
     transform="translate(-67.582896,-63.246303)">
    <path
       style="stroke-width:1px"
       d="m 90.962864,109.09922 c -2.97746,-7.7414 -8.93239,-13.696323 -11.31436,-21.437727 -1.19098,-3.57296 1.78648,-6.55042 -0.59549,-10.12337 -1.78648,-2.97747 -6.55041,-4.16845 -9.52788,-1.19099 -5.95492,6.55042 3.57296,8.93239 4.76394,13.10083 3.57296,8.932394 2.38197,19.651257 5.95493,28.583647 1.19098,3.57294 4.16845,5.95491 5.95492,8.93237 1.78648,2.38197 2.97746,7.14591 1.19099,10.12337 -1.19099,2.97747 -5.35944,7.14591 -2.97746,10.71887 2.38196,3.57295 10.12336,2.97746 14.291808,3.57295 13.696328,1.78648 33.943068,3.57296 47.043898,-1.78648 7.14591,-2.97746 -1.78648,-12.50534 -0.59549,-18.46026 1.19098,-5.35943 5.95492,-8.33689 7.7414,-13.69632 2.38197,-8.93238 1.78648,-19.055753 5.35943,-27.988147 1.19098,-3.57295 5.95492,-3.57295 6.55042,-8.33689 0,-7.14591 -10.12337,-8.93238 -12.50534,-1.78648 -0.5955,2.97746 1.78647,5.35943 1.19098,7.7414 -1.78648,7.14591 -8.33689,16.078307 -12.50534,22.033227 l -1.78647,-30.370117 c 7.7414,-3.57295 5.35943,-15.4828 -2.97747,-11.90985 -2.38196,0.5955 -4.16844,3.57296 -4.16844,6.55042 0.59549,2.38197 2.97746,3.57295 2.97746,5.95492 -0.59549,9.52788 -8.33689,19.055764 -9.52788,28.583637 h -0.59549 c -1.19098,-10.123373 -5.95492,-20.246737 -5.95492,-30.370107 0,-2.97747 3.57295,-4.76394 3.57295,-8.3369 0,-2.97746 -2.97746,-5.95492 -5.95492,-5.95492 -3.57295,0 -6.55042,2.38197 -6.55042,5.95492 0,3.57296 3.57296,5.35943 3.57296,8.3369 0,10.12337 -4.76394,20.246734 -5.95492,30.370107 h -0.5955 c -1.19098,-9.527873 -8.932388,-19.055757 -9.527878,-28.583637 0,-2.38197 2.38197,-3.57295 2.977458,-5.95492 0,-2.97746 -1.190988,-5.95492 -4.168446,-6.55042 -8.33689,-3.57295 -10.71886,8.3369 -2.97746,11.90985 l -1.78648,30.370117 h -0.59549 z m 52.998816,32.15658 c 1.19099,0 1.19099,2.38197 0,2.38197 -1.19098,0 -1.19098,-2.38197 0,-2.38197 z m -51.212336,-4.76394 c -4.16845,-1.78648 5.954918,-3.57295 7.145908,-3.57295 10.123368,-1.19099 20.246738,-1.78648 30.370108,-0.59549 2.38197,0.59549 7.7414,0 9.52788,2.38196 2.97746,2.97747 -4.76394,1.78648 -5.95492,1.78648 -8.3369,-1.19098 -17.86477,-1.78648 -26.20166,-1.19098 -3.57296,0.59549 -11.314366,2.97746 -14.887316,1.19098 z m -1.19099,-8.93238 c -4.76394,-1.19099 5.35943,-4.16845 6.550418,-4.16845 11.314358,-1.19098 22.033218,-1.78648 33.347578,0 2.38197,0 8.33689,0 10.12337,2.38197 2.38196,2.97746 -7.14591,1.19098 -8.3369,1.19098 -8.33689,-1.19098 -17.26927,-1.78647 -25.60616,-1.19098 -4.16845,0.59549 -11.909856,2.97746 -16.078306,1.78648 z"
       id="BlackQueen" />
  </g>
</svg>
