<?xml version="1.0" encoding="UTF-8" standalone="no"?>
<!-- Created with Inkscape (http://www.inkscape.org/) -->

<svg
   xmlns:dc="http://purl.org/dc/elements/1.1/"
   xmlns:cc="http://creativecommons.org/ns#"
   xmlns:rdf="http://www.w3.org/1999/02/22-rdf-syntax-ns#"
   xmlns:svg="http://www.w3.org/2000/svg"
   xmlns="http://www.w3.org/2000/svg"
   xmlns:inkscape="http://www.inkscape.org/namespaces/inkscape"
   version="1.0"
   width="100"
   height="100"
   id="svg2833">
  <defs
     id="defs2835" />
  <metadata
     id="metadata2838">
    <rdf:RDF>
      <cc:Work
         rdf:about="">
        <dc:format>image/svg+xml</dc:format>
        <dc:type
           rdf:resource="http://purl.org/dc/dcmitype/StillImage" />
        <dc:title />
      </cc:Work>
    </rdf:RDF>
  </metadata>
  <g
     transform="translate(-67.582896,-53.165632)"
     id="layer1">
    <g
       transform="matrix(1.4414113,0,0,1.4323996,-796.24473,-297.33175)"
       id="g835"
       style="display:inline">
      <path
         d="m 608.39143,298.12446 c 0.28187,6.17991 15.97439,8.70112 24.70538,8.7015 8.82584,3.8e-4 24.7356,-5.0937 24.97454,-8.79385 4.38524,-4.0222 3.65234,-18.32756 -0.19787,-20.73151 -2.02583,-22.88424 -31.77297,-24.5101 -43.77138,-10.75047 -7.59734,4.81302 -8.43194,15.29598 -5.97982,21.98462 -1.34056,2.63987 -2.00858,5.34718 0.26915,9.58971 z"
         inkscape:connector-curvature="0"
         id="path667"
         style="color:#000000;fill:#000000;fill-opacity:1;fill-rule:nonzero;stroke:#000000;stroke-width:1.39188683;stroke-linecap:butt;stroke-linejoin:miter;stroke-miterlimit:4;stroke-opacity:1;stroke-dasharray:none;marker:none;visibility:visible;display:inline;overflow:visible;enable-background:accumulate" />
      <path
         d="m 616.60072,266.70403 c 13.17013,0.92202 28.67691,4.08366 39.7707,9.67069"
         inkscape:connector-curvature="0"
         id="path669"
         style="color:#000000;fill:none;stroke:#ffffcc;stroke-width:1.39188683;stroke-linecap:butt;stroke-linejoin:miter;stroke-miterlimit:4;stroke-opacity:1;stroke-dasharray:none;marker:none;visibility:visible;display:inline;overflow:visible;enable-background:accumulate" />
      <path
         d="m 609.88305,288.37006 c 10.79963,-2.39824 27.95484,1.27767 47.05642,8.51284"
         inkscape:connector-curvature="0"
         id="path671"
         style="color:#000000;fill:none;stroke:#ffffcc;stroke-width:1.39188683;stroke-linecap:butt;stroke-linejoin:miter;stroke-miterlimit:4;stroke-opacity:1;stroke-dasharray:none;marker:none;visibility:visible;display:inline;overflow:visible;enable-background:accumulate" />
      <path
         d="m 610.32533,297.09882 c 9.53971,-6.46677 24.25533,-9.69964 46.56001,-0.11304"
         inkscape:connector-curvature="0"
         id="path673"
         style="color:#000000;fill:none;stroke:#ffffcc;stroke-width:1.39188683;stroke-linecap:butt;stroke-linejoin:miter;stroke-miterlimit:4;stroke-opacity:1;stroke-dasharray:none;marker:none;visibility:visible;display:inline;overflow:visible;enable-background:accumulate" />
      <path
         d="m 636.3415,273.125 c -3.93394,0 -7.125,3.19106 -7.125,7.125 0,3.93394 3.19106,7.125 7.125,7.125 1.81618,0 3.4606,-0.69358 4.71875,-1.8125 -0.17971,0.0183 -0.37798,0.0312 -0.5625,0.0312 -2.95238,0 -5.34375,-2.39138 -5.34375,-5.34375 0,-2.95237 2.39137,-5.34375 5.34375,-5.34375 0.18452,0 0.38279,-0.0183 0.5625,0 -1.25693,-1.11367 -2.90735,-1.78125 -4.71875,-1.78125 z"
         inkscape:connector-curvature="0"
         id="path825"
         style="color:#000000;fill:#ffffcc;fill-opacity:1;fill-rule:nonzero;stroke:#ffffcc;stroke-width:0.06959434;stroke-opacity:1;marker:none;visibility:visible;display:inline;overflow:visible;enable-background:accumulate" />
    </g>
  </g>
</svg>
