<?xml version="1.0" encoding="UTF-8" standalone="no"?>
<!-- Created with Inkscape (http://www.inkscape.org/) -->

<svg
   xmlns:dc="http://purl.org/dc/elements/1.1/"
   xmlns:cc="http://creativecommons.org/ns#"
   xmlns:rdf="http://www.w3.org/1999/02/22-rdf-syntax-ns#"
   xmlns:svg="http://www.w3.org/2000/svg"
   xmlns="http://www.w3.org/2000/svg"
   xmlns:sodipodi="http://sodipodi.sourceforge.net/DTD/sodipodi-0.dtd"
   xmlns:inkscape="http://www.inkscape.org/namespaces/inkscape"
   width="100"
   height="100"
   id="svg2833"
   sodipodi:version="0.32"
   inkscape:version="0.46+devel r22620"
   version="1.0"
   sodipodi:docname="BlackQueen.svg"
   inkscape:output_extension="org.inkscape.output.svg.inkscape">
  <defs
     id="defs2835">
    <inkscape:perspective
       sodipodi:type="inkscape:persp3d"
       inkscape:vp_x="0 : 526.18109 : 1"
       inkscape:vp_y="0 : 1000 : 0"
       inkscape:vp_z="744.09448 : 526.18109 : 1"
       inkscape:persp3d-origin="372.04724 : 350.78739 : 1"
       id="perspective2841" />
    <inkscape:perspective
       id="perspective2851"
       inkscape:persp3d-origin="0.5 : 0.33333333 : 1"
       inkscape:vp_z="1 : 0.5 : 1"
       inkscape:vp_y="0 : 1000 : 0"
       inkscape:vp_x="0 : 0.5 : 1"
       sodipodi:type="inkscape:persp3d" />
    <inkscape:perspective
       id="perspective2873"
       inkscape:persp3d-origin="0.5 : 0.33333333 : 1"
       inkscape:vp_z="1 : 0.5 : 1"
       inkscape:vp_y="0 : 1000 : 0"
       inkscape:vp_x="0 : 0.5 : 1"
       sodipodi:type="inkscape:persp3d" />
    <inkscape:perspective
       id="perspective3681"
       inkscape:persp3d-origin="0.5 : 0.33333333 : 1"
       inkscape:vp_z="1 : 0.5 : 1"
       inkscape:vp_y="0 : 1000 : 0"
       inkscape:vp_x="0 : 0.5 : 1"
       sodipodi:type="inkscape:persp3d" />
  </defs>
  <sodipodi:namedview
     id="base"
     pagecolor="#ffffff"
     bordercolor="#666666"
     borderopacity="1.0"
     inkscape:pageopacity="0.0"
     inkscape:pageshadow="2"
     inkscape:zoom="1"
     inkscape:cx="-73.647073"
     inkscape:cy="82.430952"
     inkscape:document-units="px"
     inkscape:current-layer="layer1"
     showgrid="false"
     inkscape:window-width="658"
     inkscape:window-height="834"
     inkscape:window-x="196"
     inkscape:window-y="16"
     inkscape:window-maximized="0" />
  <metadata
     id="metadata2838">
    <rdf:RDF>
      <cc:Work
         rdf:about="">
        <dc:format>image/svg+xml</dc:format>
        <dc:type
           rdf:resource="http://purl.org/dc/dcmitype/StillImage" />
        <dc:title />
      </cc:Work>
    </rdf:RDF>
  </metadata>
  <g
     inkscape:label="Layer 1"
     inkscape:groupmode="layer"
     id="layer1"
     transform="translate(-67.582896,-53.165653)">
    <g
       id="g3223"
       transform="matrix(1.0503924,0,0,1.0503924,-85.598824,-72.589333)">
      <path
         id="path3137"
         d="m 191.84375,179.75 c -9.28089,0.67179 -20.42515,-1.31308 -27.25,6.53125 7.15872,5.61171 15.59871,-0.19163 23.5,0.4375 10.63725,-0.45859 21.19227,1.41454 31.8125,1.65625 2.70146,-4.59684 -2.55516,-7.85687 -6.65625,-7.3125 -6.97537,-1.30435 -14.26509,-1.41935 -21.40625,-1.3125 z m 2.5,9.3125 c -9.6931,0.89886 -20.76246,-1.05182 -28.65625,5.9375 5.39111,5.07239 12.58384,2.41841 18.8125,1.375 11.50194,-1.00387 22.95734,1.43372 34.46875,0.96875 2.04934,-5.39685 -4.27086,-7.34469 -8.25,-7.46875 -5.38609,-0.87836 -10.92527,-0.86576 -16.375,-0.8125 z m 26.28125,9.75 c -4.99896,1.14399 0.26503,8.90457 3,4.375 0.99431,-2.02283 -0.53185,-5.06224 -3,-4.375 z"
         style="color:#000000;fill:#ffffcc;fill-opacity:1;fill-rule:nonzero;stroke:#000000;stroke-width:0.09520251;stroke-linecap:butt;stroke-linejoin:miter;stroke-miterlimit:4;stroke-opacity:1;stroke-dasharray:none;stroke-dashoffset:0;marker:none;visibility:visible;display:inline;overflow:visible;enable-background:accumulate" />
      <path
         id="BlackQueen"
         d="m 168.20357,168.21641 c -2.97746,-7.7414 -8.93239,-13.69632 -11.31436,-21.43772 -1.19098,-3.57296 1.78648,-6.55042 -0.59549,-10.12337 -1.78648,-2.97747 -6.55041,-4.16845 -9.52788,-1.19099 -5.95492,6.55042 3.57296,8.93239 4.76394,13.10083 3.57296,8.93239 2.38197,19.65125 5.95493,28.58364 1.19098,3.57294 4.16845,5.95491 5.95492,8.93237 1.78648,2.38197 2.97746,7.14591 1.19099,10.12337 -1.19099,2.97747 -5.35944,7.14591 -2.97746,10.71887 2.38196,3.57295 10.12336,2.97746 14.29181,3.57295 13.69632,1.78648 33.94306,3.57296 47.04389,-1.78648 7.14591,-2.97746 -1.78648,-12.50534 -0.59549,-18.46026 1.19098,-5.35943 5.95492,-8.33689 7.7414,-13.69632 2.38197,-8.93238 1.78648,-19.05575 5.35943,-27.98814 1.19098,-3.57295 5.95492,-3.57295 6.55042,-8.33689 0,-7.14591 -10.12337,-8.93238 -12.50534,-1.78648 -0.5955,2.97746 1.78647,5.35943 1.19098,7.7414 -1.78648,7.14591 -8.33689,16.0783 -12.50534,22.03322 l -1.78647,-30.37011 c 7.7414,-3.57295 5.35943,-15.4828 -2.97747,-11.90985 -2.38196,0.5955 -4.16844,3.57296 -4.16844,6.55042 0.59549,2.38197 2.97746,3.57295 2.97746,5.95492 -0.59549,9.52788 -8.33689,19.05576 -9.52788,28.58363 h -0.59549 c -1.19098,-10.12337 -5.95492,-20.24673 -5.95492,-30.3701 0,-2.97747 3.57295,-4.76394 3.57295,-8.3369 0,-2.97746 -2.97746,-5.95492 -5.95492,-5.95492 -3.57295,0 -6.55042,2.38197 -6.55042,5.95492 0,3.57296 3.57296,5.35943 3.57296,8.3369 0,10.12337 -4.76394,20.24673 -5.95492,30.3701 h -0.5955 c -1.19098,-9.52787 -8.93238,-19.05575 -9.52787,-28.58363 0,-2.38197 2.38197,-3.57295 2.97746,-5.95492 0,-2.97746 -1.19099,-5.95492 -4.16845,-6.55042 -8.33689,-3.57295 -10.71886,8.3369 -2.97746,11.90985 l -1.78648,30.37011 h -0.59549 z m 52.99881,32.15658 c 1.19099,0 1.19099,2.38197 0,2.38197 -1.19098,0 -1.19098,-2.38197 0,-2.38197 z m -51.21233,-4.76394 c -4.16845,-1.78648 5.95492,-3.57295 7.14591,-3.57295 10.12336,-1.19099 20.24673,-1.78648 30.3701,-0.59549 2.38197,0.59549 7.7414,0 9.52788,2.38196 2.97746,2.97747 -4.76394,1.78648 -5.95492,1.78648 -8.3369,-1.19098 -17.86477,-1.78648 -26.20166,-1.19098 -3.57296,0.59549 -11.31436,2.97746 -14.88731,1.19098 z m -1.19099,-8.93238 c -4.76394,-1.19099 5.35943,-4.16845 6.55042,-4.16845 11.31435,-1.19098 22.03321,-1.78648 33.34757,0 2.38197,0 8.33689,0 10.12337,2.38197 2.38196,2.97746 -7.14591,1.19098 -8.3369,1.19098 -8.33689,-1.19098 -17.26927,-1.78647 -25.60616,-1.19098 -4.16845,0.59549 -11.90985,2.97746 -16.0783,1.78648 z"
         style="stroke-width:1px" />
    </g>
  </g>
</svg>
