<?xml version="1.0" encoding="UTF-8" standalone="no"?>
<!-- Created with Inkscape (http://www.inkscape.org/) -->

<svg
   xmlns:dc="http://purl.org/dc/elements/1.1/"
   xmlns:cc="http://creativecommons.org/ns#"
   xmlns:rdf="http://www.w3.org/1999/02/22-rdf-syntax-ns#"
   xmlns:svg="http://www.w3.org/2000/svg"
   xmlns="http://www.w3.org/2000/svg"
   xmlns:inkscape="http://www.inkscape.org/namespaces/inkscape"
   version="1.0"
   width="100"
   height="100"
   id="svg2833">
  <defs
     id="defs2835" />
  <metadata
     id="metadata2838">
    <rdf:RDF>
      <cc:Work
         rdf:about="">
        <dc:format>image/svg+xml</dc:format>
        <dc:type
           rdf:resource="http://purl.org/dc/dcmitype/StillImage" />
        <dc:title />
      </cc:Work>
    </rdf:RDF>
  </metadata>
  <g
     transform="translate(-67.582896,-53.165653)"
     id="layer1">
    <g
       transform="matrix(1.2615218,0,0,1.2615218,289.09033,550.06143)"
       id="g949"
       style="display:inline">
      <path
         d="m -146.80799,-346.78633 -9.45641,-9.02375 c -3.35871,-3.20503 -9.62231,-1.59916 -9.59766,-6.04514 0.034,-6.13348 17.94527,-10.00312 25.58672,-17.68049 l 8.78225,0 c 7.97912,8.05429 25.64737,10.93312 25.6602,17.68049 0.008,4.45651 -6.4618,3.08503 -9.55605,6.04514 l -9.43264,9.02375 z"
         inkscape:connector-curvature="0"
         id="path900"
         style="color:#000000;fill:#000000;fill-opacity:1;fill-rule:nonzero;stroke:#000000;stroke-width:1.58538675;stroke-linecap:butt;stroke-linejoin:miter;stroke-miterlimit:4;stroke-opacity:1;marker:none;visibility:visible;display:inline;overflow:visible;enable-background:accumulate" />
      <path
         d="m -121.07432,-337.54517 c 0,1.6435 -6.66157,2.97581 -14.87902,2.97581 -8.21746,0 -14.87903,-1.33231 -14.87903,-2.97581 0.0526,-1.10471 2.12554,-7.70048 5.16562,-8.71511 5.33881,-1.78182 14.24203,-1.99005 19.77699,0 2.97119,1.06827 4.86805,7.71561 4.81544,8.71511 z"
         inkscape:connector-curvature="0"
         id="path902"
         style="color:#000000;fill:#000000;fill-opacity:1;fill-rule:nonzero;stroke:#000000;stroke-width:1.58538675;stroke-linecap:butt;stroke-linejoin:miter;stroke-miterlimit:4;stroke-opacity:1;marker:none;visibility:visible;display:inline;overflow:visible;enable-background:accumulate" />
      <path
         d="m -147.40578,-339.52673 c 2.72937,-0.65315 6.83312,-1.06864 11.42208,-1.06864 4.62372,0 8.75485,0.42181 11.48386,1.08352"
         inkscape:connector-curvature="0"
         id="path904"
         style="color:#000000;fill:none;stroke:#ffffcc;stroke-width:1.58538675;stroke-linecap:butt;stroke-linejoin:miter;stroke-miterlimit:4;stroke-opacity:1;marker:none;visibility:visible;display:inline;overflow:visible;enable-background:accumulate" />
      <path
         d="m -135.95281,-367.6202 0,12.95918"
         inkscape:connector-curvature="0"
         id="path906"
         style="color:#000000;fill:#ef2929;fill-opacity:1;fill-rule:nonzero;stroke:#ffffcc;stroke-width:1.58538675;stroke-linecap:butt;stroke-linejoin:miter;stroke-miterlimit:4;stroke-opacity:1;stroke-dasharray:none;marker:none;visibility:visible;display:inline;overflow:visible;enable-background:accumulate" />
      <path
         d="m -142.93914,-360.60764 13.97266,0"
         inkscape:connector-curvature="0"
         id="path908"
         style="color:#000000;fill:#ef2929;fill-opacity:1;fill-rule:nonzero;stroke:#ffffcc;stroke-width:1.58538675;stroke-linecap:butt;stroke-linejoin:miter;stroke-miterlimit:4;stroke-opacity:1;stroke-dasharray:none;marker:none;visibility:visible;display:inline;overflow:visible;enable-background:accumulate" />
      <path
         d="m -166.94261,-327.09305 3.48471,3.75676 c 1.60406,-1.05102 3.20113,-1.25505 5.26581,-1.25505 l 14.3628,0 c 2.53748,0 6.12935,-3.1116 7.96364,-4.32485 1.80949,1.28101 5.35969,4.32485 7.96364,4.32485 l 15.05569,0 c 1.74542,0 2.80159,0.16346 4.4677,1.25505 l 3.41561,-3.68236 c -1.71938,-1.29856 -8.63258,-2.80978 -11.6709,-2.68762 -3.03832,0.12216 -9.00013,0.96124 -11.67837,0.10521 -2.67824,-0.85603 -5.13785,-2.86465 -6.22817,-3.95497 l -2.78114,0.0744 c -1.35847,1.19074 -3.11846,3.15607 -6.56186,3.88057 -3.4434,0.7245 -8.04773,-0.0867 -11.04711,-0.10521 -2.99939,-0.0186 -9.99857,0.73071 -12.01205,2.61322 z"
         inkscape:connector-curvature="0"
         id="path910"
         style="color:#000000;fill:#000000;fill-opacity:1;fill-rule:nonzero;stroke:#000000;stroke-width:1.58538675;stroke-linecap:butt;stroke-linejoin:miter;stroke-miterlimit:4;stroke-opacity:1;stroke-dasharray:none;marker:none;visibility:visible;display:inline;overflow:visible;enable-background:accumulate" />
      <path
         d="m -145.34132,-346.55707 c 2.72938,-0.65315 4.63847,-1.06864 9.22742,-1.06864 4.62372,0 6.82058,0.34741 9.5496,1.00912"
         inkscape:connector-curvature="0"
         id="path912"
         style="color:#000000;fill:none;stroke:#ffffcc;stroke-width:1.58538675;stroke-linecap:butt;stroke-linejoin:miter;stroke-miterlimit:4;stroke-opacity:1;marker:none;visibility:visible;display:inline;overflow:visible;enable-background:accumulate" />
    </g>
  </g>
</svg>
