<?xml version="1.0" encoding="UTF-8" standalone="no"?>
<!-- Created with Inkscape (http://www.inkscape.org/) -->

<svg
   xmlns:dc="http://purl.org/dc/elements/1.1/"
   xmlns:cc="http://creativecommons.org/ns#"
   xmlns:rdf="http://www.w3.org/1999/02/22-rdf-syntax-ns#"
   xmlns:svg="http://www.w3.org/2000/svg"
   xmlns="http://www.w3.org/2000/svg"
   xmlns:inkscape="http://www.inkscape.org/namespaces/inkscape"
   version="1.0"
   width="100"
   height="100"
   id="svg2833">
  <defs
     id="defs2835" />
  <metadata
     id="metadata2838">
    <rdf:RDF>
      <cc:Work
         rdf:about="">
        <dc:format>image/svg+xml</dc:format>
        <dc:type
           rdf:resource="http://purl.org/dc/dcmitype/StillImage" />
        <dc:title />
      </cc:Work>
    </rdf:RDF>
  </metadata>
  <g
     transform="translate(-67.582896,-53.165653)"
     id="layer1">
    <g
       transform="matrix(1.3468787,0,0,1.3439389,-44.352884,237.98499)"
       id="g4813"
       style="display:inline">
      <path
         d="m 117.59375,-132.1516 c -1.30079,1.94126 -3.1617,3.86836 -3.4375,6.28125 -0.71269,0.6114 -1.73255,0.0332 -2.56825,0.2088 -0.84476,-0.023 -1.81964,-0.33376 -2.01445,-1.23205 -0.77735,-1.2011 -1.84233,-2.30258 -3.19855,-2.8205 -0.47032,-0.57327 -1.25306,-0.73906 -1.9375,-0.96875 -0.56725,1.20341 0.28172,2.45504 0.072,3.69977 0.0902,1.63798 -0.10305,3.35 -0.67872,4.86585 -1.92524,1.75001 -3.78467,3.70822 -4.64329,6.21563 -1.054746,2.32796 -0.766695,5.02202 -1.844496,7.34599 -1.26018,3.96491 -4.333914,6.98739 -6.035323,10.736967 -1.212364,2.312367 -1.847669,5.158078 -0.745181,7.635793 0.516567,1.113146 1.509792,2.021725 2.658078,2.466909 1.526212,0.512976 3.193014,0.250139 4.685672,-0.216909 0.683142,0.03748 0.906835,0.665657 1.1875,1.125 0.757752,0.923474 2.58957,0.71881 3.0625,-0.28125 1.08568,-1.10138 1.7524,-2.410544 2.79217,-3.521923 1.62508,-1.924274 3.31525,-3.817699 5.27033,-5.415577 1.01179,-0.61385 2.21118,-1.304256 3.36208,-1.821664 2.98365,-1.40635 5.80474,-3.178066 8.54417,-4.990836 0.29772,0.11385 -0.0225,0.79502 0.0625,1.125 0.0241,3.217614 -0.75935,6.506936 -2.4295,9.271344 -0.91428,1.473789 -1.92908,2.722948 -3.13041,4.000434 -1.90645,2.084583 -3.5835,4.373058 -5.31039,6.622324 -1.80989,2.544262 -3.47089,5.316642 -4.0672,8.418398 0.0515,0.551026 -0.44634,1.44308 0.28035,1.662139 0.77911,0.296598 1.64514,-0.05573 2.45715,0.08694 13.49374,-0.05798 26.98775,-0.0344 40.48125,0.06342 -0.19928,-8.043633 -0.82306,-16.129846 -2.71613,-23.968918 -0.951,-4.235615 -2.14069,-8.436771 -3.9344,-12.400101 -1.53489,-3.5676 -3.54947,-6.92666 -5.99655,-9.95031 -1.80834,-2.17664 -4.30652,-3.61933 -6.72792,-5.05567 -2.95331,-1.62226 -6.28012,-2.73799 -9.6875,-2.65625 -0.82226,0.0225 -1.47434,-0.73709 -1.39716,-1.53501 -0.38036,-1.85473 -1.14974,-3.63013 -2.32159,-5.12124 l -0.06,0.08 -0.0337,0.045 z"
         inkscape:connector-curvature="0"
         id="path4681"
         style="opacity:0.98999999;fill:#ffffcc;fill-opacity:1;stroke:#ffffcc;stroke-width:0.55263817px;stroke-opacity:1" />
      <path
         d="m 110.90718,-126.42965 2.55401,0.0595 c -0.11306,-2.71342 4.44555,-7.15316 4.44555,-7.15316 0,0 2.6311,2.95262 3.05622,7.11686 5.9381,-0.2375 11.03878,2.89903 13.00056,4.1074 12.42868,7.65554 17.29364,32.448753 17.26817,51.469123 l -44.90277,-0.141002 c -0.20729,-13.073379 15.56269,-17.974522 15.10098,-30.390821 -3.98486,3.09933 -8.42701,3.942916 -11.94512,6.905136 -2.79351,2.352109 -4.23289,5.107136 -7.01819,8.412488 -1.02679,1.218501 -3.76823,0.678355 -4.65375,-1.092696 -4.427625,1.32829 -8.682129,0.01778 -8.582077,-6.302259 0.08857,-5.594944 5.715124,-10.651219 7.649496,-15.901879 0.833895,-2.26353 0.717276,-5.762 2.034753,-8.28048 1.022986,-1.95554 3.325448,-4.22046 4.380568,-4.9645 0.81951,-2.78859 0.63978,-7.51226 -0.71693,-9.32121 1.97854,-0.56529 6.51958,2.19879 8.32853,5.4775 z m 10.31016,2.15729 0,2.75643 c 3.82599,-0.003 8.78656,2.02923 12.33721,5.27854 7.09848,6.49602 10.28111,22.510255 11.70795,37.086919 0.40176,3.407421 0.78101,6.189899 3.94795,6.426135 0.15057,-11.673558 -3.63904,-35.797784 -11.38884,-43.870414 -4.92987,-5.13523 -10.42481,-7.41436 -16.60427,-7.67761 z m -23.244388,34.686132 1.32829,0.442761 1.328288,-4.427625 -0.44277,0 z m -3.738894,-2.269112 c 2.613538,-0.122981 3.817853,-5.736082 1.162266,-5.663706 -2.933316,0.07995 -3.417431,5.769824 -1.162266,5.663706 z m 28.007832,-11.41962 0.88552,0 c 1.35907,-0.4397 1.84793,-4.31078 1.32829,-4.87039 -0.77174,0.20599 -1.25447,3.09934 -2.21381,4.87039 z m -15.41368,-18.19018 c 0.88552,0 3.9097,-0.11306 4.79522,-0.55582 8.4125,-2.65658 -3.9097,-4.31457 -4.79522,0.55582 z"
         inkscape:connector-curvature="0"
         id="path4683"
         style="opacity:0.98999999;fill:#000000;fill-opacity:1;stroke:#000000;stroke-width:0.55263817px;stroke-opacity:1" />
      <path
         d="m 104.97295,-122.17733 c -0.0529,0.24454 -0.0909,0.49628 -0.15625,0.71875 -1.05512,0.74404 -3.35201,3.01321 -4.375,4.96875 -0.485117,0.92733 -0.78532,1.97987 -1.000006,3.0625 l 5.357646,4.979 7.46875,-7.6875 z"
         inkscape:connector-curvature="0"
         id="path4701"
         style="color:#000000;fill:#ffffcc;fill-opacity:0.99215686;fill-rule:nonzero;stroke:#ffffcc;stroke-width:0.74326903;stroke-opacity:0.99215686;marker:none;visibility:visible;display:inline;overflow:visible;enable-background:accumulate" />
      <path
         d="m 103.47833,-110.60514 0.88552,-2.21381 c 2.65659,0.44276 3.98487,-0.88552 3.54211,-3.5421 l 2.21381,-0.44276 0,-0.44276 c -3.98486,-0.88553 -7.52697,2.65657 -6.64144,6.64143 z"
         inkscape:connector-curvature="0"
         id="path4739"
         style="opacity:0.98999999;fill:#000000;fill-opacity:1" />
    </g>
  </g>
</svg>
