<?xml version="1.0" encoding="UTF-8" standalone="no"?>
<!-- Created with Inkscape (http://www.inkscape.org/) -->

<svg
   xmlns:dc="http://purl.org/dc/elements/1.1/"
   xmlns:cc="http://creativecommons.org/ns#"
   xmlns:rdf="http://www.w3.org/1999/02/22-rdf-syntax-ns#"
   xmlns:svg="http://www.w3.org/2000/svg"
   xmlns="http://www.w3.org/2000/svg"
   xmlns:inkscape="http://www.inkscape.org/namespaces/inkscape"
   version="1.0"
   width="100"
   height="100"
   id="svg2833">
  <defs
     id="defs2835" />
  <metadata
     id="metadata2838">
    <rdf:RDF>
      <cc:Work
         rdf:about="">
        <dc:format>image/svg+xml</dc:format>
        <dc:type
           rdf:resource="http://purl.org/dc/dcmitype/StillImage" />
        <dc:title />
      </cc:Work>
    </rdf:RDF>
  </metadata>
  <g
     transform="translate(-67.582896,-53.165653)"
     id="layer1">
    <g
       transform="matrix(1.4044081,0,0,1.4981867,308.98529,-315.38993)"
       id="g550"
       style="display:inline">
      <path
         d="m -137.84375,253.21875 c -15.93684,-0.081 -21.27804,13.65596 -21,36.6875 0.0269,2.2323 0.28956,4.34655 0.65625,6.28125 -0.58192,-0.46749 -1.25785,-0.78175 -2.0625,-0.78125 -1.97039,10e-4 -3.663,2.12352 -3.6875,4.8125 -0.0403,4.43076 3.3125,5.1875 3.3125,5.1875 l 5.3125,0 0.375,0 46.28125,0 c 0,0 0.0458,-1.73595 0,-3.25 -0.13726,-3.02449 -14.53168,-15.67064 -15.8125,-16.375 -1.05945,-0.58263 -4.221,-1.69514 -4.25,-3.9375 -0.0217,-1.68084 1.71675,-4.75 1.71875,-4.75 l -4,-3.4375 5.0625,-1.71875 8.59375,-5.875 c 0,0 -4.56819,-12.76275 -20.5,-12.84375 z"
         inkscape:connector-curvature="0"
         id="path510"
         style="color:#000000;fill:#000000;fill-opacity:1;fill-rule:nonzero;stroke:#000000;stroke-width:1.37879717;stroke-linecap:round;stroke-linejoin:miter;stroke-miterlimit:4;stroke-opacity:1;stroke-dasharray:none;marker:none;visibility:visible;display:inline;overflow:visible;enable-background:accumulate" />
      <path
         d="m -155.75377,304.40058 c -0.61979,-1.49631 -1.75463,-4.55527 -2.46017,-8.3776"
         inkscape:connector-curvature="0"
         id="path512"
         style="color:#000000;fill:none;stroke:#ffffcc;stroke-width:1.37879717;stroke-linecap:round;stroke-linejoin:miter;stroke-miterlimit:4;stroke-opacity:1;stroke-dasharray:none;marker:none;visibility:visible;display:inline;overflow:visible;enable-background:accumulate" />
      <path
         d="m -130.93911,273.65952 3.27566,-1.27957 c 5.44306,-0.20159 14.47578,1.87662 14.47578,1.87662 -1.98235,0.60478 -8.02993,2.62352 -14.64896,2.15313 z"
         inkscape:connector-curvature="0"
         id="path514"
         style="color:#000000;fill:#000000;fill-opacity:1;fill-rule:nonzero;stroke:#000000;stroke-width:1.03409791;stroke-linecap:round;stroke-linejoin:miter;stroke-miterlimit:4;stroke-opacity:1;stroke-dasharray:none;marker:none;visibility:visible;display:inline;overflow:visible;enable-background:accumulate" />
      <path
         d="m -118.10969,266.29448 c 5.63554,0.75158 9.27958,1.13268 7.93524,12.78191 -0.16631,-8.05402 -19.93313,-5.84452 -19.93313,-5.84452 z"
         inkscape:connector-curvature="0"
         id="path516"
         style="color:#000000;fill:#000000;fill-opacity:1;fill-rule:nonzero;stroke:#000000;stroke-width:1.03409791;stroke-linecap:round;stroke-linejoin:miter;stroke-miterlimit:4;stroke-opacity:1;stroke-dasharray:none;marker:none;visibility:visible;display:inline;overflow:visible;enable-background:accumulate" />
      <path
         d="m -138.49422,285.91875 3.32615,-1.23543"
         inkscape:connector-curvature="0"
         id="path518"
         style="color:#000000;fill:#ffffff;fill-opacity:1;fill-rule:nonzero;stroke:#ffffcc;stroke-width:1.37879717;stroke-linecap:round;stroke-linejoin:miter;stroke-miterlimit:4;stroke-opacity:1;stroke-dasharray:none;marker:none;visibility:visible;display:inline;overflow:visible;enable-background:accumulate" />
      <path
         d="m -132.39731,284.15174 2.08555,-0.75064"
         inkscape:connector-curvature="0"
         id="path520"
         style="color:#000000;fill:#ffffff;fill-opacity:1;fill-rule:nonzero;stroke:#ffffcc;stroke-width:1.37879717;stroke-linecap:round;stroke-linejoin:miter;stroke-miterlimit:4;stroke-opacity:1;stroke-dasharray:none;marker:none;visibility:visible;display:inline;overflow:visible;enable-background:accumulate" />
      <path
         d="m -129.84673,264.39671 c 0,-1.35022 -1.64166,-3.51039 -5.30026,-3.49941 -3.47731,0.0104 -6.37937,3.98825 -9.64871,4.01921 3.2633,-0.005 6.02368,2.88608 9.54841,2.98488 3.36511,0.0943 5.40056,-2.23223 5.40056,-3.50468 z"
         inkscape:connector-curvature="0"
         id="path522"
         style="color:#000000;fill:none;stroke:#ffffcc;stroke-width:0.68939859;stroke-linecap:round;stroke-linejoin:miter;stroke-miterlimit:4;stroke-opacity:1;stroke-dasharray:none;marker:none;visibility:visible;display:inline;overflow:visible;enable-background:accumulate" />
      <path
         d="m -4.8466709,264.72644 a 1.615557,1.615557 0 1 1 -3.2311139,0 1.615557,1.615557 0 1 1 3.2311139,0 z"
         transform="translate(-128.34877,-0.31919197)"
         id="path524"
         style="color:#000000;fill:#ffffcc;fill-opacity:1;fill-rule:nonzero;stroke:#ffffcc;stroke-width:0.68939859;stroke-linecap:round;stroke-linejoin:miter;stroke-miterlimit:4;stroke-opacity:1;stroke-dasharray:none;marker:none;visibility:visible;display:inline;overflow:visible;enable-background:accumulate" />
      <path
         d="m 7.6976539,265.29663 a 1.4254915,1.4254915 0 1 1 -2.8509829,0 1.4254915,1.4254915 0 1 1 2.8509829,0 z"
         transform="translate(-128.23117,-0.35279113)"
         id="path526"
         style="color:#000000;fill:#ffffcc;fill-opacity:1;fill-rule:nonzero;stroke:#ffffcc;stroke-width:0.51704895;stroke-linecap:round;stroke-linejoin:miter;stroke-miterlimit:4;stroke-opacity:1;stroke-dasharray:none;marker:none;visibility:visible;display:inline;overflow:visible;enable-background:accumulate" />
      <path
         d="m -133.13146,303.81483 c -0.453,-1.38212 -0.76635,-2.98758 -0.75367,-4.49646 0.0224,-2.67119 2.60358,-8.98648 9.40825,-8.98059 2.32863,0.002 6.17005,3.41317 9.54153,6.13028"
         inkscape:connector-curvature="0"
         id="path540"
         style="color:#000000;fill:none;stroke:#ffffcc;stroke-width:1.37879717;stroke-linecap:round;stroke-linejoin:miter;stroke-miterlimit:4;stroke-opacity:1;stroke-dasharray:none;marker:none;visibility:visible;display:inline;overflow:visible;enable-background:accumulate" />
      <path
         d="m -127.83663,276.4097 -3.10248,-2.75018 1.04035,-0.49893"
         inkscape:connector-curvature="0"
         id="path546"
         style="color:#000000;fill:none;stroke:#ffffcc;stroke-width:0.68939859;stroke-linecap:round;stroke-linejoin:miter;stroke-miterlimit:4;stroke-opacity:1;stroke-dasharray:none;marker:none;visibility:visible;display:inline;overflow:visible;enable-background:accumulate" />
      <path
         d="m -116.60562,274.78618 c -5.8538,-2.17836 -13.36756,-1.58791 -13.36756,-1.58791 0,0 8.63797,-3.61107 11.86349,-6.90379"
         inkscape:connector-curvature="0"
         id="path548"
         style="color:#000000;fill:none;stroke:#ffffcc;stroke-width:0.68939859;stroke-linecap:round;stroke-linejoin:miter;stroke-miterlimit:4;stroke-opacity:1;stroke-dasharray:none;marker:none;visibility:visible;display:inline;overflow:visible;enable-background:accumulate" />
    </g>
  </g>
</svg>
