<?xml version="1.0" encoding="UTF-8" standalone="no"?>
<!-- Created with Inkscape (http://www.inkscape.org/) -->

<svg
   xmlns:dc="http://purl.org/dc/elements/1.1/"
   xmlns:cc="http://creativecommons.org/ns#"
   xmlns:rdf="http://www.w3.org/1999/02/22-rdf-syntax-ns#"
   xmlns:svg="http://www.w3.org/2000/svg"
   xmlns="http://www.w3.org/2000/svg"
   xmlns:sodipodi="http://sodipodi.sourceforge.net/DTD/sodipodi-0.dtd"
   xmlns:inkscape="http://www.inkscape.org/namespaces/inkscape"
   id="svg2"
   version="1.1"
   inkscape:version="0.47 r22583"
   width="196"
   height="196"
   sodipodi:docname="bwolf.png">
  <metadata
     id="metadata8">
    <rdf:RDF>
      <cc:Work
         rdf:about="">
        <dc:format>image/svg+xml</dc:format>
        <dc:type
           rdf:resource="http://purl.org/dc/dcmitype/StillImage" />
        <dc:title></dc:title>
      </cc:Work>
    </rdf:RDF>
  </metadata>
  <defs
     id="defs6">
    <inkscape:perspective
       sodipodi:type="inkscape:persp3d"
       inkscape:vp_x="0 : 0.5 : 1"
       inkscape:vp_y="0 : 1000 : 0"
       inkscape:vp_z="1 : 0.5 : 1"
       inkscape:persp3d-origin="0.5 : 0.33333333 : 1"
       id="perspective10" />
  </defs>
  <sodipodi:namedview
     pagecolor="#ffffff"
     bordercolor="#666666"
     borderopacity="1"
     objecttolerance="10"
     gridtolerance="10"
     guidetolerance="10"
     inkscape:pageopacity="0"
     inkscape:pageshadow="2"
     inkscape:window-width="640"
     inkscape:window-height="504"
     id="namedview4"
     showgrid="false"
     inkscape:zoom="1.2040816"
     inkscape:cx="98"
     inkscape:cy="98"
     inkscape:window-x="0"
     inkscape:window-y="24"
     inkscape:window-maximized="0"
     inkscape:current-layer="svg2" />
  <g
     id="g3604"
     transform="translate(3.3220339,6.6440678)">
    <g
       transform="translate(-129.55932,-2.4915254)"
       id="g3596">
      <rect
         style="fill:#ffffcc;fill-opacity:1;stroke:#ffffcc;stroke-width:1.90918028;stroke-miterlimit:4;stroke-opacity:1;stroke-dasharray:none"
         id="rect2820"
         width="104.83488"
         height="105.66541"
         x="176.80289"
         y="52.22662" />
      <rect
         style="fill:#ffffcc;fill-opacity:1;stroke:#ffffcc;stroke-width:2.0999999;stroke-miterlimit:4;stroke-opacity:1;stroke-dasharray:none"
         id="rect3594"
         width="73.084747"
         height="58.135593"
         x="191.84746"
         y="115.44068" />
    </g>
    <path
       style="fill:#000000"
       d="m 80.194908,180.72816 c -10.56053,-1.67238 -24.16245,-5.78987 -28.64128,-8.67011 -9.14803,-5.88291 -10.47395,-7.67436 -20.87347,-28.20211 -9.54567,-18.84233 -10.1642,-20.43516 -10.68569,-27.51793 -0.4201,-5.70567 -0.0633,-9.44207 1.48025,-15.5 1.11857,-4.390148 2.35662,-11.346441 2.75121,-15.45844 0.39459,-4.111999 1.33653,-9.231076 2.09321,-11.375727 0.75668,-2.14465 1.37577,-5.867787 1.37577,-8.273638 0,-2.40585 0.41394,-4.374273 0.91985,-4.374273 0.50592,0 1.64741,-3.2625 2.53664,-7.25 1.50318,-6.740499 2.17811,-9.220574 5.56943,-20.465293 0.69921,-2.318412 2.36701,-5.243412 3.70623,-6.5 1.33921,-1.256589 3.99063,-5.650178 5.89204,-9.763531 3.72758,-8.0638989 6.79222,-12.0211758 9.30958,-12.0211758 2.3617,0 13.84337,11.8328998 16.49538,16.9999998 2.63783,5.139459 8.57103,22.905022 8.57051,25.662403 -3.1e-4,1.70444 1.12282,1.837597 15.49942,1.837597 13.651812,0 15.499832,-0.194083 15.500342,-1.627876 7e-4,-1.956921 2.12933,-7.257407 6.17333,-15.372124 3.09423,-6.208901 11.24135,-15.5 13.59154,-15.5 0.73671,0 3.08704,-1.00577 5.22295,-2.235044 l 3.88347,-2.235044 2.66661,2.485044 c 4.14011,3.858212 10.04661,16.576116 11.37145,24.485044 2.61217,15.593953 11.02491,52.735467 12.11802,53.5 0.77106,0.53929 1.01221,1.83983 3.41581,18.421788 1.7475,12.0557 1.60239,13.13898 -2.60264,19.42925 -1.59976,2.39306 -4.03885,6.58135 -5.42019,9.3073 -6.12733,12.09169 -15.88916,24.99911 -20.84388,27.56047 -1.69174,0.87455 -4.65089,2.82724 -6.57589,4.3393 -1.925,1.51207 -6.425,3.93154 -10,5.37661 -5.97053,2.41338 -7.92549,2.65938 -24,3.02 -9.625002,0.21593 -18.850002,0.17881 -20.500002,-0.0825 z m 36.041052,-13.37222 c 8.44743,-8.29003 14.25917,-21.5 9.45895,-21.5 -0.83391,0 -1.65452,1.09541 -1.84796,2.46681 -0.19138,1.35675 -1.20388,3.55493 -2.25,4.88486 -1.04612,1.32993 -1.90204,3.13071 -1.90204,4.00174 0,0.87104 -2.34713,3.96035 -5.21584,6.86514 l -5.21584,5.28145 -13.940092,0 -13.94009,0 -4.83792,-5.25 c -2.66086,-2.8875 -4.84069,-5.93737 -4.84407,-6.77749 -0.003,-0.84013 -0.72834,-2.55857 -1.61102,-3.81878 -0.88269,-1.26021 -1.92756,-3.49783 -2.32195,-4.97251 -0.84524,-3.16048 -3.44469,-3.57941 -3.86756,-0.62329 -0.77696,5.43153 12.39171,23.26349 18.29438,24.77278 1.1,0.28126 7.94824,0.43442 15.21831,0.34034 l 13.218312,-0.17105 5.60443,-5.5 z m -11.34577,-4.68709 c 2.28149,-2.1858 2.80472,-3.55006 2.80472,-7.31291 0,-3.76285 -0.52323,-5.12711 -2.80472,-7.31291 -2.45659,-2.35357 -3.61252,-2.68709 -9.312912,-2.68709 -5.82524,0 -6.79015,0.29431 -9.19527,2.80472 -2.08224,2.17339 -2.6871,3.79301 -2.6871,7.19528 0,3.40227 0.60486,5.02189 2.6871,7.19528 2.40512,2.51041 3.37003,2.80472 9.19527,2.80472 5.700392,0 6.856322,-0.33352 9.312912,-2.68709 z M 87.386448,139.71741 c 0.68946,-1.79671 -4.45626,-18.36147 -5.70385,-18.36147 -2.01748,0 -1.76135,3.91534 0.75664,11.56635 2.77191,8.42255 3.78745,9.81741 4.94721,6.79512 z m 21.581442,-6.78236 c 2.52849,-7.81371 2.74265,-11.57911 0.65858,-11.57911 -0.46996,0 -1.32978,1.76515 -1.91071,3.92256 -0.58093,2.15741 -1.5273,4.07959 -2.10305,4.27151 -1.24805,0.41601 -2.42034,8.05395 -1.57446,10.25827 1.14546,2.98502 2.22795,1.47574 4.92964,-6.87323 z M 73.221728,106.32331 c 7.63102,-7.696084 7.65105,-8.922034 0.14626,-8.952064 -5.17642,-0.0207 -9.67308,4.314594 -9.67308,9.325984 0,3.78045 0.81429,6.65871 1.88381,6.65871 0.36841,0 3.80776,-3.16468 7.64301,-7.03263 z m 49.866192,5.45084 c 2.64632,-6.89619 -2.09643,-14.430794 -9.06609,-14.402904 -7.50479,0.03 -7.48476,1.25598 0.14626,8.952064 3.83525,3.86795 7.2746,7.03263 7.64301,7.03263 0.36841,0 0.94298,-0.7118 1.27682,-1.58179 z M 58.159178,65.39176 c 7.74364,-7.763869 12.93508,-12.184266 14.78734,-12.591089 3.50905,-0.770718 3.08943,-2.827613 -0.66705,-3.269684 -2.37003,-0.278911 -4.59037,1.484939 -15.67288,12.450594 -12.11638,11.988634 -14.68106,15.374351 -11.64604,15.374351 0.69609,0 6.63548,-5.383877 13.19863,-11.964172 z m 81.535732,10.658854 c 0,-1.599996 -22.23621,-23.694682 -23.84645,-23.694682 -2.69097,0 -0.528,2.941129 10.04113,13.653548 10.57089,10.714196 13.80532,13.066724 13.80532,10.041134 z"
       id="use3600" />
  </g>
</svg>
