<?xml version="1.0" encoding="UTF-8" standalone="no"?>
<!-- Created with Inkscape (http://www.inkscape.org/) -->

<svg
   xmlns:dc="http://purl.org/dc/elements/1.1/"
   xmlns:cc="http://creativecommons.org/ns#"
   xmlns:rdf="http://www.w3.org/1999/02/22-rdf-syntax-ns#"
   xmlns:svg="http://www.w3.org/2000/svg"
   xmlns="http://www.w3.org/2000/svg"
   xmlns:sodipodi="http://sodipodi.sourceforge.net/DTD/sodipodi-0.dtd"
   xmlns:inkscape="http://www.inkscape.org/namespaces/inkscape"
   width="100"
   height="100"
   id="svg2"
   version="1.1"
   inkscape:version="0.47 r22583"
   sodipodi:docname="BlackIronsvg.svg">
  <defs
     id="defs4">
    <inkscape:perspective
       sodipodi:type="inkscape:persp3d"
       inkscape:vp_x="0 : 526.18109 : 1"
       inkscape:vp_y="0 : 1000 : 0"
       inkscape:vp_z="744.09448 : 526.18109 : 1"
       inkscape:persp3d-origin="372.04724 : 350.78739 : 1"
       id="perspective10" />
    <inkscape:perspective
       id="perspective2824"
       inkscape:persp3d-origin="0.5 : 0.33333333 : 1"
       inkscape:vp_z="1 : 0.5 : 1"
       inkscape:vp_y="0 : 1000 : 0"
       inkscape:vp_x="0 : 0.5 : 1"
       sodipodi:type="inkscape:persp3d" />
    <inkscape:perspective
       id="perspective2838"
       inkscape:persp3d-origin="0.5 : 0.33333333 : 1"
       inkscape:vp_z="1 : 0.5 : 1"
       inkscape:vp_y="0 : 1000 : 0"
       inkscape:vp_x="0 : 0.5 : 1"
       sodipodi:type="inkscape:persp3d" />
  </defs>
  <sodipodi:namedview
     id="base"
     pagecolor="#ffffff"
     bordercolor="#666666"
     borderopacity="1.0"
     inkscape:pageopacity="0.0"
     inkscape:pageshadow="2"
     inkscape:zoom="2"
     inkscape:cx="52.657835"
     inkscape:cy="23.437927"
     inkscape:document-units="px"
     inkscape:current-layer="layer1"
     showgrid="false"
     inkscape:window-width="792"
     inkscape:window-height="583"
     inkscape:window-x="62"
     inkscape:window-y="24"
     inkscape:window-maximized="0" />
  <metadata
     id="metadata7">
    <rdf:RDF>
      <cc:Work
         rdf:about="">
        <dc:format>image/svg+xml</dc:format>
        <dc:type
           rdf:resource="http://purl.org/dc/dcmitype/StillImage" />
        <dc:title></dc:title>
      </cc:Work>
    </rdf:RDF>
  </metadata>
  <g
     inkscape:label="Layer 1"
     inkscape:groupmode="layer"
     id="layer1"
     transform="translate(366.71429,-981.93367)">
    <g
       id="g4403">
      <path
         sodipodi:nodetypes="cc"
         id="path2847"
         d="m -351.1696,1043.9436 c 10.55752,-49.108 57.80389,-49.87413 69.93337,0"
         style="fill:#000000;fill-opacity:1;stroke:#000000;stroke-width:2.5;stroke-linecap:butt;stroke-linejoin:miter;stroke-miterlimit:4;stroke-opacity:1;stroke-dasharray:none" />
      <path
         transform="matrix(0.99166208,0,0,0.99790237,-365.54493,978.102)"
         d="m 86,80.25 a 36,7.75 0 1 1 -72,0 36,7.75 0 1 1 72,0 z"
         sodipodi:ry="7.75"
         sodipodi:rx="36"
         sodipodi:cy="80.25"
         sodipodi:cx="50"
         id="path2845"
         style="fill:#000000;fill-opacity:1;stroke:#000000;stroke-width:2.54580927;stroke-miterlimit:4;stroke-opacity:1;stroke-dasharray:none"
         sodipodi:type="arc" />
      <rect
         y="1043.9337"
         x="-351.71429"
         height="13"
         width="71.5"
         id="rect3879"
         style="fill:#000000;fill-opacity:1;stroke:#000000;stroke-width:2.5;stroke-miterlimit:4;stroke-opacity:1;stroke-dasharray:none" />
      <path
         sodipodi:nodetypes="cccc"
         id="path3637"
         d="m -352.69154,1058.414 c -0.84832,-10.4606 73.32148,-10.3129 72.93384,0.4972 l 0.52095,0 0,0"
         style="fill:none;stroke:#ffffff;stroke-width:2.54491472;stroke-linecap:butt;stroke-linejoin:miter;stroke-miterlimit:4;stroke-opacity:1;stroke-dasharray:none" />
      <path
         style="fill:none;stroke:#ffffff;stroke-width:2.54491472;stroke-linecap:butt;stroke-linejoin:miter;stroke-miterlimit:4;stroke-opacity:1;stroke-dasharray:none"
         d="m -352.69154,1041.914 c -0.84832,-10.4606 73.32148,-10.3129 72.93384,0.4972 l 0.52095,0 0,0"
         id="path4391"
         sodipodi:nodetypes="cccc" />
      <path
         transform="matrix(1.032667,0,0,0.85783357,-367.85581,1009.836)"
         d="m 52.5,38 a 2.25,3 0 1 1 -4.5,0 2.25,3 0 1 1 4.5,0 z"
         sodipodi:ry="3"
         sodipodi:rx="2.25"
         sodipodi:cy="38"
         sodipodi:cx="50.25"
         id="path4393"
         style="fill:#ffffcc;fill-opacity:1;stroke:#ffffcc;stroke-width:2.5;stroke-miterlimit:4;stroke-opacity:1;stroke-dasharray:none"
         sodipodi:type="arc" />
      <path
         sodipodi:type="arc"
         style="fill:#ffffcc;fill-opacity:1;stroke:#ffffcc;stroke-width:2.5;stroke-miterlimit:4;stroke-opacity:1;stroke-dasharray:none"
         id="path4395"
         sodipodi:cx="50.25"
         sodipodi:cy="38"
         sodipodi:rx="2.25"
         sodipodi:ry="3"
         d="m 52.5,38 a 2.25,3 0 1 1 -4.5,0 2.25,3 0 1 1 4.5,0 z"
         transform="matrix(0.67341665,0,0,0.92172914,-376.80348,1009.9079)" />
      <path
         transform="matrix(1.032667,0,0,0.85783357,-382.85581,1010.336)"
         d="m 52.5,38 a 2.25,3 0 1 1 -4.5,0 2.25,3 0 1 1 4.5,0 z"
         sodipodi:ry="3"
         sodipodi:rx="2.25"
         sodipodi:cy="38"
         sodipodi:cx="50.25"
         id="path4397"
         style="fill:#ffffcc;fill-opacity:1;stroke:#ffffcc;stroke-width:2.5;stroke-miterlimit:4;stroke-opacity:1;stroke-dasharray:none"
         sodipodi:type="arc" />
      <path
         sodipodi:type="arc"
         style="fill:#ffffcc;fill-opacity:1;stroke:#ffffcc;stroke-width:2.5;stroke-miterlimit:4;stroke-opacity:1;stroke-dasharray:none"
         id="path4399"
         sodipodi:cx="50.25"
         sodipodi:cy="38"
         sodipodi:rx="2.25"
         sodipodi:ry="3"
         d="m 52.5,38 a 2.25,3 0 1 1 -4.5,0 2.25,3 0 1 1 4.5,0 z"
         transform="matrix(1.032667,0,0,0.85783357,-353.35581,1010.336)" />
      <path
         transform="matrix(0.67341665,0,0,0.92172914,-322.80348,1009.908)"
         d="m 52.5,38 a 2.25,3 0 1 1 -4.5,0 2.25,3 0 1 1 4.5,0 z"
         sodipodi:ry="3"
         sodipodi:rx="2.25"
         sodipodi:cy="38"
         sodipodi:cx="50.25"
         id="path4401"
         style="fill:#ffffcc;fill-opacity:1;stroke:#ffffcc;stroke-width:2.5;stroke-miterlimit:4;stroke-opacity:1;stroke-dasharray:none"
         sodipodi:type="arc" />
    </g>
  </g>
</svg>
