<?xml version="1.0" encoding="UTF-8" standalone="no"?>
<!-- Created with Inkscape (http://www.inkscape.org/) -->

<svg
   xmlns:dc="http://purl.org/dc/elements/1.1/"
   xmlns:cc="http://creativecommons.org/ns#"
   xmlns:rdf="http://www.w3.org/1999/02/22-rdf-syntax-ns#"
   xmlns:svg="http://www.w3.org/2000/svg"
   xmlns="http://www.w3.org/2000/svg"
   xmlns:inkscape="http://www.inkscape.org/namespaces/inkscape"
   version="1.0"
   width="100"
   height="100"
   id="svg2833">
  <defs
     id="defs2835" />
  <metadata
     id="metadata2838">
    <rdf:RDF>
      <cc:Work
         rdf:about="">
        <dc:format>image/svg+xml</dc:format>
        <dc:type
           rdf:resource="http://purl.org/dc/dcmitype/StillImage" />
        <dc:title />
      </cc:Work>
    </rdf:RDF>
  </metadata>
  <g
     transform="translate(-67.582896,-53.165632)"
     id="layer1">
    <g
       transform="matrix(1.4422649,0,0,1.4365713,-58.211502,-479.72548)"
       id="g756"
       style="display:inline">
      <path
         d="m 96.29799,424.19808 c 0.28187,6.17991 15.97439,8.70112 24.70538,8.7015 8.82584,3.8e-4 24.7356,-5.0937 24.97454,-8.79385 4.38524,-4.0222 3.65234,-18.32756 -0.19787,-20.73151 -2.02583,-22.88424 -31.77297,-24.5101 -43.77138,-10.75047 -7.59734,4.81302 -8.43194,15.29598 -5.97982,21.98462 -1.34056,2.63987 -2.00858,5.34718 0.26915,9.58971 z"
         inkscape:connector-curvature="0"
         id="path687"
         style="color:#000000;fill:#000000;fill-opacity:1;fill-rule:nonzero;stroke:#000000;stroke-width:1.38945305;stroke-linecap:butt;stroke-linejoin:miter;stroke-miterlimit:4;stroke-opacity:1;stroke-dasharray:none;marker:none;visibility:visible;display:inline;overflow:visible;enable-background:accumulate" />
      <path
         d="m 104.50728,392.77765 c 13.17013,0.92202 28.67691,4.08366 39.7707,9.67069"
         inkscape:connector-curvature="0"
         id="path689"
         style="color:#000000;fill:none;stroke:#ffffcc;stroke-width:1.38945305;stroke-linecap:butt;stroke-linejoin:miter;stroke-miterlimit:4;stroke-opacity:1;stroke-dasharray:none;marker:none;visibility:visible;display:inline;overflow:visible;enable-background:accumulate" />
      <path
         d="m 97.78961,414.44368 c 10.79963,-2.39824 27.95484,1.27767 47.05642,8.51284"
         inkscape:connector-curvature="0"
         id="path691"
         style="color:#000000;fill:none;stroke:#ffffcc;stroke-width:1.38945305;stroke-linecap:butt;stroke-linejoin:miter;stroke-miterlimit:4;stroke-opacity:1;stroke-dasharray:none;marker:none;visibility:visible;display:inline;overflow:visible;enable-background:accumulate" />
      <path
         d="m 98.23189,423.17244 c 9.53971,-6.46677 24.25533,-9.69964 46.56001,-0.11304"
         inkscape:connector-curvature="0"
         id="path693"
         style="color:#000000;fill:none;stroke:#ffffcc;stroke-width:1.38945305;stroke-linecap:butt;stroke-linejoin:miter;stroke-miterlimit:4;stroke-opacity:1;stroke-dasharray:none;marker:none;visibility:visible;display:inline;overflow:visible;enable-background:accumulate" />
      <path
         d="m 252.00261,411.96351 -3.39735,-3.01802 -3.93903,2.26594 1.82046,-4.16369 -3.37226,-3.04603 4.52246,0.44471 1.85485,-4.14849 0.97457,4.43855 4.51863,0.48211 -3.92014,2.29846 z"
         transform="matrix(0.87388966,-0.0876486,0.08773684,0.87301075,-131.57771,73.053667)"
         id="path739"
         style="color:#000000;fill:#ffffcc;fill-opacity:1;fill-rule:nonzero;stroke:#ffffcc;stroke-width:1.58280694;stroke-linecap:butt;stroke-linejoin:miter;stroke-miterlimit:4;stroke-opacity:1;stroke-dasharray:none;marker:none;visibility:visible;display:inline;overflow:visible;enable-background:accumulate" />
    </g>
  </g>
</svg>
