<?xml version="1.0" encoding="UTF-8" standalone="no"?>
<!-- Created with Inkscape (http://www.inkscape.org/) -->

<svg
   xmlns:dc="http://purl.org/dc/elements/1.1/"
   xmlns:cc="http://creativecommons.org/ns#"
   xmlns:rdf="http://www.w3.org/1999/02/22-rdf-syntax-ns#"
   xmlns:svg="http://www.w3.org/2000/svg"
   xmlns="http://www.w3.org/2000/svg"
   xmlns:sodipodi="http://sodipodi.sourceforge.net/DTD/sodipodi-0.dtd"
   xmlns:inkscape="http://www.inkscape.org/namespaces/inkscape"
   width="100"
   height="100"
   id="svg2"
   version="1.1"
   inkscape:version="0.47 r22583"
   sodipodi:docname="BlackFlyingDragon2.svg">
  <defs
     id="defs4">
    <inkscape:perspective
       sodipodi:type="inkscape:persp3d"
       inkscape:vp_x="0 : 526.18109 : 1"
       inkscape:vp_y="0 : 1000 : 0"
       inkscape:vp_z="744.09448 : 526.18109 : 1"
       inkscape:persp3d-origin="372.04724 : 350.78739 : 1"
       id="perspective10" />
    <inkscape:perspective
       id="perspective2824"
       inkscape:persp3d-origin="0.5 : 0.33333333 : 1"
       inkscape:vp_z="1 : 0.5 : 1"
       inkscape:vp_y="0 : 1000 : 0"
       inkscape:vp_x="0 : 0.5 : 1"
       sodipodi:type="inkscape:persp3d" />
    <inkscape:perspective
       id="perspective2838"
       inkscape:persp3d-origin="0.5 : 0.33333333 : 1"
       inkscape:vp_z="1 : 0.5 : 1"
       inkscape:vp_y="0 : 1000 : 0"
       inkscape:vp_x="0 : 0.5 : 1"
       sodipodi:type="inkscape:persp3d" />
  </defs>
  <sodipodi:namedview
     id="base"
     pagecolor="#ffffff"
     bordercolor="#666666"
     borderopacity="1.0"
     inkscape:pageopacity="0.0"
     inkscape:pageshadow="2"
     inkscape:zoom="2"
     inkscape:cx="80.674579"
     inkscape:cy="55.693807"
     inkscape:document-units="px"
     inkscape:current-layer="layer1"
     showgrid="false"
     inkscape:window-width="792"
     inkscape:window-height="583"
     inkscape:window-x="62"
     inkscape:window-y="24"
     inkscape:window-maximized="0" />
  <metadata
     id="metadata7">
    <rdf:RDF>
      <cc:Work
         rdf:about="">
        <dc:format>image/svg+xml</dc:format>
        <dc:type
           rdf:resource="http://purl.org/dc/dcmitype/StillImage" />
        <dc:title></dc:title>
      </cc:Work>
    </rdf:RDF>
  </metadata>
  <g
     inkscape:label="Layer 1"
     inkscape:groupmode="layer"
     id="layer1"
     transform="translate(366.71429,-981.93367)">
    <g
       id="g3630">
      <path
         sodipodi:nodetypes="cccccccccccccccccccccccccccccccccsccccccc"
         id="path2834"
         d="m -324.3447,1018.1361 7.38041,2.8188 5.53531,3.9462 5.53531,5.6375 5.53531,9.02 3.07517,10.1475 3.07517,8.4562 4.92027,6.2012 6.76538,3.9463 0,-2.8188 7.38041,6.765 -10.14806,-1.1275 1.53758,-1.6912 -7.38041,-2.255 -4.92027,-5.6375 -4.92028,-5.0737 -6.15034,-7.3288 -4.92028,-3.9462 -5.5353,-3.3825 -5.53531,-3.9462 -5.53531,-5.6375 -4.92028,-8.4563 -1.23006,-5.0737 -3.69021,-6.765 -4.92028,-6.2012 -3.6902,-1.1275 -9.22552,3.9462 -2.46013,-3.3825 0,-3.3825 2.46013,0.5638 6.15035,-1.1275 1.23007,-4.51 3.6902,-2.25501 c 5.40259,-7.58194 -2.48944,1.18601 4.52818,1.77851 3.1683,0.2676 2.0104,-3.34798 3.77478,-4.0335 l -0.92255,7.3287 1.23007,3.9463 1.84511,3.3825 2.46013,4.51 3.69021,3.3825 4.30524,3.3824 z"
         style="fill:#000000;fill-opacity:1;stroke:#000000;stroke-width:2.35533404;stroke-linecap:butt;stroke-linejoin:miter;stroke-miterlimit:4;stroke-opacity:1;stroke-dasharray:none" />
      <path
         id="path2840"
         d="m -305.46429,1045.4337 -5.5,-1.5 -5,2 -3,3 4,4.5 3.5,2 -4.5,3.5 -0.5,2 2,2.5 0.5,-3.5 3,-1.5 -0.5,1 4.5,-2 -3,-7.5 4,0 2,-1.5 -1.5,-3 z"
         style="fill:#000000;fill-opacity:1;stroke:#000000;stroke-width:2;stroke-linecap:butt;stroke-linejoin:miter;stroke-miterlimit:4;stroke-opacity:1;stroke-dasharray:none" />
      <path
         id="path3621"
         d="m -345.71429,997.9337 c 0.66667,0 -0.0833,-0.083 0.25,0.25 0.0589,0.059 0.25,-0.083 0.25,0 0,0.083 -0.33333,0 -0.25,0 1.11111,0 0.22222,0 0,0"
         style="fill:none;stroke:#ffffff;stroke-width:2;stroke-linecap:butt;stroke-linejoin:miter;stroke-miterlimit:4;stroke-opacity:1;stroke-dasharray:none" />
      <path
         sodipodi:nodetypes="ccccc"
         id="path3656"
         d="m -327.33598,1034.0094 4.94975,-6.8943 3.35876,7.0711 -4.06587,5.4801 0.17678,-0.1768"
         style="fill:none;stroke:#ffffff;stroke-width:1px;stroke-linecap:butt;stroke-linejoin:miter;stroke-opacity:1" />
      <path
         sodipodi:nodetypes="cccccc"
         id="path3658"
         d="m -313.81516,1044.0302 3.18197,-1.4142 6.36397,1.7678 1.59099,4.0659 -1.94455,1.9445 -2.82842,0"
         style="fill:none;stroke:#ffffff;stroke-width:1px;stroke-linecap:butt;stroke-linejoin:miter;stroke-opacity:1" />
      <path
         sodipodi:nodetypes="ccccccccccccccccccccc"
         id="path2831"
         d="m -327.46429,1034.1837 -9.75,-1 -8.75,1.5 -8.75,3.25 -7,4 -0.5,9.5 1.5,12 3.25,11.75 3.75,-5.25 3.75,-3 4.75,-2.5 6.5,-0.75 5.25,1.5 -2.5,-6.5 -0.5,-5.25 1.5,-6 2.75,-4.25 3.75,-2 4,-1 1.5,-0.5 -4.5,-5.5 z"
         style="fill:#000000;stroke:#000000;stroke-width:1px;stroke-linecap:butt;stroke-linejoin:miter;stroke-opacity:1;fill-opacity:1" />
      <path
         sodipodi:nodetypes="ccccccccccccccccccccc"
         transform="translate(-366.71429,981.93367)"
         id="path2833"
         d="M 49.75,43.75 49,35.75 49,29 51,21.75 55.25,14 60,9 l 8.25,-1.5 9.25,0 7,2 7,2.5 -8,4.5 -3.25,4.25 -2.5,5 -1,4.25 c -0.333333,-0.08333 2.336328,8.000998 1,6 L 71,35 l -6.5,1.5 -5.25,2.75 -2.5,3.5 -1.5,6 -5.5,-5 z"
         style="fill:#000000;stroke:#000000;stroke-width:1px;stroke-linecap:butt;stroke-linejoin:miter;stroke-opacity:1;fill-opacity:1" />
      <path
         id="path3607"
         d="m -317.96429,1020.1837 4.25,2.25 2.75,2 1.25,0.75 0,0"
         style="fill:none;stroke:#ffffff;stroke-width:1px;stroke-linecap:butt;stroke-linejoin:miter;stroke-opacity:1" />
    </g>
  </g>
</svg>
