<?xml version="1.0" encoding="UTF-8" standalone="no"?>
<!-- Created with Inkscape (http://www.inkscape.org/) -->

<svg
   xmlns:dc="http://purl.org/dc/elements/1.1/"
   xmlns:cc="http://creativecommons.org/ns#"
   xmlns:rdf="http://www.w3.org/1999/02/22-rdf-syntax-ns#"
   xmlns:svg="http://www.w3.org/2000/svg"
   xmlns="http://www.w3.org/2000/svg"
   xmlns:inkscape="http://www.inkscape.org/namespaces/inkscape"
   version="1.0"
   width="100"
   height="100"
   id="svg2833">
  <defs
     id="defs2835" />
  <metadata
     id="metadata2838">
    <rdf:RDF>
      <cc:Work
         rdf:about="">
        <dc:format>image/svg+xml</dc:format>
        <dc:type
           rdf:resource="http://purl.org/dc/dcmitype/StillImage" />
        <dc:title />
      </cc:Work>
    </rdf:RDF>
  </metadata>
  <g
     transform="translate(-67.582896,-53.165632)"
     id="layer1">
    <g
       transform="matrix(1.2581297,0,0,1.2581297,-355.59499,75.249302)"
       id="g1838"
       style="display:inline">
      <path
         d="m 349.40452,1.8939841 -4.34143,10.4515849 0.5223,0.270816 1.8896,-1.557164 54.18745,25.566184 4.98461,-15.114599 -56.27777,-17.3657112 -0.35832,-2.0286325 z"
         inkscape:connector-curvature="0"
         id="path1821"
         style="color:#000000;fill:#000000;fill-opacity:1;fill-rule:nonzero;stroke:#000000;stroke-width:1.58966112;stroke-linecap:butt;stroke-linejoin:miter;stroke-miterlimit:4;stroke-opacity:1;stroke-dasharray:none;marker:none;visibility:visible;display:inline;overflow:visible;enable-background:accumulate" />
      <path
         d="m 349.00253,24.324694 13.10469,0 0,-3.939445 27.33491,0 0,3.939445 13.02428,0 0,23.234677 -53.46388,0 z"
         inkscape:connector-curvature="0"
         id="path1823"
         style="color:#000000;fill:#000000;fill-opacity:1;fill-rule:nonzero;stroke:#000000;stroke-width:1.58966112;stroke-linecap:butt;stroke-linejoin:miter;stroke-miterlimit:4;stroke-opacity:1;stroke-dasharray:none;marker:none;visibility:visible;display:inline;overflow:visible;enable-background:accumulate" />
      <path
         d="m 495.40513,51.740005 a 4.984602,4.984602 0 1 1 -9.9692,0 4.984602,4.984602 0 1 1 9.9692,0 z"
         transform="translate(-129.11728,-3.5374595)"
         id="path1825"
         style="color:#000000;fill:#ffffcc;fill-opacity:1;fill-rule:nonzero;stroke:#000000;stroke-width:1.58966112;stroke-linecap:butt;stroke-linejoin:miter;stroke-miterlimit:4;stroke-opacity:1;stroke-dasharray:none;marker:none;visibility:visible;display:inline;overflow:visible;enable-background:accumulate" />
      <path
         d="m 495.40513,51.740005 a 4.984602,4.984602 0 1 1 -9.9692,0 4.984602,4.984602 0 1 1 9.9692,0 z"
         transform="translate(-101.29998,-3.5374595)"
         id="path1827"
         style="color:#000000;fill:#ffffcc;fill-opacity:1;fill-rule:nonzero;stroke:#000000;stroke-width:1.58966112;stroke-linecap:butt;stroke-linejoin:miter;stroke-miterlimit:4;stroke-opacity:1;stroke-dasharray:none;marker:none;visibility:visible;display:inline;overflow:visible;enable-background:accumulate" />
      <path
         d="m 535.12117,29.068106 a 2.2511106,2.2511106 0 1 1 -4.50222,0 2.2511106,2.2511106 0 1 1 4.50222,0 z"
         transform="translate(-127.99172,0)"
         id="path1829"
         style="color:#000000;fill:#000000;fill-opacity:1;fill-rule:nonzero;stroke:#000000;stroke-width:1.58966112;stroke-linecap:butt;stroke-linejoin:miter;stroke-miterlimit:4;stroke-opacity:1;stroke-dasharray:none;marker:none;visibility:visible;display:inline;overflow:visible;enable-background:accumulate" />
      <path
         d="m 362.10722,20.385249 27.33491,0 0,3.939445 13.02428,0 0,6.351347"
         inkscape:connector-curvature="0"
         id="path1836"
         style="color:#000000;fill:none;stroke:#ffffcc;stroke-width:1.58966112;stroke-linecap:butt;stroke-linejoin:miter;stroke-miterlimit:4;stroke-opacity:1;stroke-dasharray:none;marker:none;visibility:visible;display:inline;overflow:visible;enable-background:accumulate" />
    </g>
  </g>
</svg>
