<?xml version="1.0" encoding="UTF-8" standalone="no"?>
<!-- Created with Inkscape (http://www.inkscape.org/) -->

<svg
   xmlns:dc="http://purl.org/dc/elements/1.1/"
   xmlns:cc="http://creativecommons.org/ns#"
   xmlns:rdf="http://www.w3.org/1999/02/22-rdf-syntax-ns#"
   xmlns:svg="http://www.w3.org/2000/svg"
   xmlns="http://www.w3.org/2000/svg"
   xmlns:inkscape="http://www.inkscape.org/namespaces/inkscape"
   version="1.0"
   width="100"
   height="100"
   id="svg2833">
  <defs
     id="defs2835" />
  <metadata
     id="metadata2838">
    <rdf:RDF>
      <cc:Work
         rdf:about="">
        <dc:format>image/svg+xml</dc:format>
        <dc:type
           rdf:resource="http://purl.org/dc/dcmitype/StillImage" />
        <dc:title />
      </cc:Work>
    </rdf:RDF>
  </metadata>
  <g
     transform="translate(-67.582896,-53.165653)"
     id="layer1">
    <g
       transform="matrix(1.3469552,0,0,1.3439388,-44.362081,70.37686)"
       id="g4342"
       style="display:inline">
      <path
         d="m 117.59375,-7.4375 c -1.30079,1.9412559 -3.1617,3.8683596 -3.4375,6.28125 -0.71269,0.61140495 -1.73255,0.033211 -2.56825,0.20879963 -0.84476,-0.022977 -1.81964,-0.33376403 -2.01445,-1.23204893 C 108.7962,-3.3806014 107.73122,-4.4820808 106.375,-5 c -0.47032,-0.573274 -1.25306,-0.7390597 -1.9375,-0.96875 -0.56725,1.2034126 0.28172,2.455042 0.072,3.6997736 0.0902,1.6379763 -0.10305,3.3499997 -0.67872,4.8658443 -1.92524,1.7500119 -3.78467,3.7082271 -4.64329,6.2156321 -1.054746,2.32796 -0.766695,5.022024 -1.844496,7.345987 -1.26018,3.964917 -4.333914,6.987395 -6.035323,10.73697 -1.212364,2.312367 -1.847669,5.158078 -0.745181,7.635793 0.516567,1.113146 1.509792,2.021725 2.658078,2.466909 1.526212,0.512976 3.193014,0.250139 4.685672,-0.216909 0.683142,0.03748 0.906835,0.665657 1.1875,1.125 0.757752,0.923474 2.58957,0.71881 3.0625,-0.28125 1.08568,-1.10138 1.7524,-2.410544 2.79217,-3.521923 1.62508,-1.924274 3.31525,-3.817699 5.27033,-5.415577 1.01179,-0.61385 2.21118,-1.304256 3.36208,-1.821664 2.98365,-1.40635 5.80474,-3.17807 8.54417,-4.990836 0.29772,0.113851 -0.0225,0.795021 0.0625,1.125 0.0241,3.217614 -0.75935,6.506936 -2.4295,9.271344 -0.91428,1.473789 -1.92908,2.722948 -3.13041,4.000434 -1.90645,2.084583 -3.5835,4.373058 -5.31039,6.622324 -1.80989,2.544262 -3.47089,5.316642 -4.0672,8.418398 0.0515,0.551026 -0.44634,1.44308 0.28035,1.662139 0.77911,0.296598 1.64514,-0.05573 2.45715,0.08694 13.49374,-0.05798 26.98775,-0.0344 40.48125,0.06342 -0.19928,-8.043633 -0.82306,-16.129846 -2.71613,-23.968918 -0.951,-4.235615 -2.14069,-8.436776 -3.9344,-12.400099 -1.53489,-3.567605 -3.54947,-6.9266578 -5.99655,-9.9503074 -1.80834,-2.176648 -4.30652,-3.6193381 -6.72792,-5.0556756 -2.95331,-1.62225506 -6.28012,-2.73798817 -9.6875,-2.65625 -0.82226,0.0225076 -1.47434,-0.737092 -1.39716,-1.5350133 -0.38036,-1.8547307 -1.14974,-3.6301209 -2.32159,-5.1212367 l -0.06,0.08 -0.0337,0.045 z"
         inkscape:connector-curvature="0"
         id="path4298"
         style="opacity:0.98999999;fill:#ffffcc;fill-opacity:1;stroke:#ffffcc;stroke-width:0.55262244px;stroke-opacity:1" />
      <path
         d="m 110.90718,-1.7155471 2.55401,0.0595 c -0.11306,-2.7134211 4.44555,-7.1531665 4.44555,-7.1531665 0,0 2.6311,2.9526263 3.05622,7.1168654 5.9381,-0.2374968 11.03878,2.8990232 13.00056,4.1073952 12.42868,7.655546 17.29364,32.448756 17.26817,51.469126 l -44.90277,-0.141002 c -0.20729,-13.073379 15.56269,-17.974522 15.10098,-30.390825 -3.98486,3.099334 -8.42701,3.94292 -11.94512,6.90514 -2.79351,2.352109 -4.23289,5.107136 -7.01819,8.412488 -1.02679,1.218501 -3.76823,0.678355 -4.65375,-1.092696 -4.427625,1.32829 -8.682129,0.01778 -8.582077,-6.302259 0.08857,-5.594944 5.715124,-10.651222 7.649496,-15.901883 0.833895,-2.263527 0.717276,-5.7619951 2.034753,-8.280479 1.022986,-1.9555369 3.325448,-4.2204556 4.380568,-4.9644989 0.81951,-2.78858391 0.63978,-7.5122594 -0.71693,-9.3212068 1.97854,-0.5652961 6.51958,2.1987846 8.32853,5.4775016 z m 10.31016,2.15728625 0,2.75643355 c 3.82599,-0.00343 8.78656,2.0292307 12.33721,5.2785342 7.09848,6.4960211 10.28111,22.5102581 11.70795,37.0869221 0.40176,3.407421 0.78101,6.189899 3.94795,6.426135 C 149.36102,40.316206 145.57141,16.191978 137.82161,8.1193493 132.89174,2.9841219 127.3968,0.70498929 121.21734,0.44173915 z M 97.972952,35.127872 l 1.32829,0.442761 1.328288,-4.427625 -0.44277,0 z M 94.234058,32.85876 c 2.613538,-0.122981 3.817853,-5.736082 1.162266,-5.663706 -2.933316,0.07995 -3.417431,5.769824 -1.162266,5.663706 z m 28.007832,-11.419621 0.88552,0 c 1.35907,-0.439698 1.84793,-4.310779 1.32829,-4.870393 -0.77174,0.20599 -1.25447,3.099342 -2.21381,4.870393 z m -18.79589,-7.330175 0.88552,-2.213813 c 2.65658,0.442761 3.98486,-0.885522 3.5421,-3.5421016 l 2.21381,-0.442761 0,-0.442761 C 106.10257,6.5819984 102.56047,10.1241 103.446,14.108964 z m 3.38221,-10.8600077 c 0.88552,0 3.9097,-0.1130592 4.79522,-0.5558192 8.4125,-2.65657404 -3.9097,-4.3145658 -4.79522,0.5558192 z"
         inkscape:connector-curvature="0"
         id="BlackKnight-0"
         style="opacity:0.98999999;fill:#000000;fill-opacity:1;stroke:#000000;stroke-width:0.55262244px;stroke-opacity:1" />
    </g>
  </g>
</svg>
