<?xml version="1.0" encoding="UTF-8" standalone="no"?>
<!-- Created with Inkscape (http://www.inkscape.org/) -->
<svg
   xmlns:dc="http://purl.org/dc/elements/1.1/"
   xmlns:cc="http://creativecommons.org/ns#"
   xmlns:rdf="http://www.w3.org/1999/02/22-rdf-syntax-ns#"
   xmlns:svg="http://www.w3.org/2000/svg"
   xmlns="http://www.w3.org/2000/svg"
   xmlns:sodipodi="http://sodipodi.sourceforge.net/DTD/sodipodi-0.dtd"
   xmlns:inkscape="http://www.inkscape.org/namespaces/inkscape"
   width="97.221024"
   height="89.91935"
   id="svg2833"
   sodipodi:version="0.32"
   inkscape:version="0.46+devel"
   version="1.0"
   sodipodi:docname="BlackKing.svg"
   inkscape:output_extension="org.inkscape.output.svg.inkscape">
  <defs
     id="defs2835">
    <inkscape:perspective
       sodipodi:type="inkscape:persp3d"
       inkscape:vp_x="0 : 526.18109 : 1"
       inkscape:vp_y="0 : 1000 : 0"
       inkscape:vp_z="744.09448 : 526.18109 : 1"
       inkscape:persp3d-origin="372.04724 : 350.78739 : 1"
       id="perspective2841" />
    <inkscape:perspective
       id="perspective2851"
       inkscape:persp3d-origin="0.5 : 0.33333333 : 1"
       inkscape:vp_z="1 : 0.5 : 1"
       inkscape:vp_y="0 : 1000 : 0"
       inkscape:vp_x="0 : 0.5 : 1"
       sodipodi:type="inkscape:persp3d" />
    <inkscape:perspective
       id="perspective2873"
       inkscape:persp3d-origin="0.5 : 0.33333333 : 1"
       inkscape:vp_z="1 : 0.5 : 1"
       inkscape:vp_y="0 : 1000 : 0"
       inkscape:vp_x="0 : 0.5 : 1"
       sodipodi:type="inkscape:persp3d" />
    <inkscape:perspective
       id="perspective2916"
       inkscape:persp3d-origin="0.5 : 0.33333333 : 1"
       inkscape:vp_z="1 : 0.5 : 1"
       inkscape:vp_y="0 : 1000 : 0"
       inkscape:vp_x="0 : 0.5 : 1"
       sodipodi:type="inkscape:persp3d" />
  </defs>
  <sodipodi:namedview
     id="base"
     pagecolor="#ffffff"
     bordercolor="#666666"
     borderopacity="1.0"
     inkscape:pageopacity="0.0"
     inkscape:pageshadow="2"
     inkscape:zoom="0.98994949"
     inkscape:cx="8.7527877"
     inkscape:cy="82.430952"
     inkscape:document-units="px"
     inkscape:current-layer="layer1"
     showgrid="false"
     inkscape:window-width="658"
     inkscape:window-height="834"
     inkscape:window-x="439"
     inkscape:window-y="68" />
  <metadata
     id="metadata2838">
    <rdf:RDF>
      <cc:Work
         rdf:about="">
        <dc:format>image/svg+xml</dc:format>
        <dc:type
           rdf:resource="http://purl.org/dc/dcmitype/StillImage" />
        <dc:title></dc:title>
      </cc:Work>
    </rdf:RDF>
  </metadata>
  <g
     inkscape:label="Layer 1"
     inkscape:groupmode="layer"
     id="layer1"
     transform="translate(-67.582896,-63.246303)">
    <path
       style="stroke-width:1px"
       d="m 107.0078,95.030707 c -4.16845,-2.38197 -8.336892,-4.76394 -13.100832,-5.35943 -10.71886,-1.19099 -23.2242,6.55041 -21.43773,19.055753 1.78648,8.93239 10.71887,11.31436 13.69633,18.46027 2.38197,4.76394 -1.19099,14.29182 2.38197,17.86477 1.78647,2.38197 7.1459,2.97746 10.12337,4.16845 10.718862,2.38197 22.628702,2.38197 33.347562,0 3.57295,-0.5955 9.52788,-1.19099 11.90985,-4.16845 4.16845,-3.57295 -0.5955,-13.69632 2.38196,-18.46026 4.16846,-6.55042 12.50535,-9.52789 13.69633,-18.46027 1.19099,-11.909853 -10.71886,-19.651253 -21.43773,-18.460263 -4.76393,0.59549 -8.93237,2.97746 -13.10083,5.35943 l -1.19098,-10.12337 -5.95493,-5.35943 -0.59549,-7.145914 c 5.35944,0 5.35944,-2.97746 0,-2.97746 0,-5.35943 -2.97746,-5.35943 -2.97746,0 -5.35942,0 -5.35942,2.97746 0,2.97746 l -0.59548,7.145914 -5.95493,5.35943 z m 10.71885,24.415183 c 0,-13.10083 8.93239,-26.201663 22.62872,-26.797153 11.90984,-0.59549 20.24674,10.123373 14.29181,20.842233 -2.38197,4.16845 -8.93238,11.31436 -13.69632,12.50535 -3.57295,0.59549 -7.7414,-1.78648 -11.31435,-1.78648 -6.55042,-1.19099 -13.10083,-1.78648 -19.65125,-1.19099 -5.35943,0.5955 -14.291822,4.16845 -19.055752,2.38197 -7.14591,-2.38197 -17.26928,-13.10083 -14.88731,-21.43773 2.38197,-11.314353 16.07829,-13.100833 25.010682,-8.932383 8.93238,4.76394 13.69632,14.291813 13.69632,24.415183 l 2.97746,0 z m -26.201652,3.57296 c 4.76394,-1.19098 9.527882,-2.38197 14.291812,-2.97746 1.78648,0 4.16844,0.59549 5.35943,-1.19099 1.78648,-1.78648 -0.59549,-7.7414 -1.78647,-10.12337 -3.57296,-7.7414 -10.718862,-13.100833 -19.651252,-12.505343 -8.33689,0.5955 -13.69632,8.932393 -8.33689,16.673793 2.38197,4.16844 7.14591,5.95492 10.12337,10.12337 z m 0.59549,11.31436 c 0.59549,-2.38197 7.14591,-2.97746 8.932392,-2.97746 9.52787,-1.78648 19.65124,-2.38197 29.17912,-0.5955 1.78647,0.5955 10.71885,1.19099 10.12336,4.16845 -0.59549,2.97746 -8.93239,-0.59549 -10.71885,-0.59549 -9.52789,-1.78648 -20.24674,-1.78648 -29.774622,0.59549 -1.19098,0 -8.33689,2.38197 -7.7414,-0.59549 z m 0,7.7414 c 0.59549,-2.38197 7.14591,-2.97746 8.932392,-3.57296 9.52787,-2.38197 19.65124,-2.38197 29.17912,-0.59549 1.78647,0.59549 10.71885,1.78648 10.12336,4.76394 -0.59549,2.97746 -8.93239,-0.59549 -10.71885,-1.19098 -9.52789,-1.78648 -20.24674,-1.78648 -29.774622,0.59549 -1.19098,0.59549 -8.33689,3.57295 -7.7414,0 z m 23.819692,-33.94307 c -1.78647,-2.97746 -2.97746,-5.95492 -4.76394,-8.932383 -1.78647,-4.76394 -1.78647,-20.24674 7.7414,-15.4828 8.3369,4.16844 1.78648,19.651243 -2.97746,24.415183 z m 0.5955,-5.95492 c 0.59549,-1.78648 1.78647,-4.168453 2.38196,-5.954933 0.5955,-2.38197 1.19099,-12.50533 -4.16844,-9.52787 -4.76395,2.97746 -0.59549,12.50534 1.78648,15.482803 z m 24.41518,20.84223 c 2.97746,-4.16845 7.7414,-5.95493 10.12337,-10.12337 5.35943,-7.7414 0,-16.078293 -8.33689,-16.673793 -8.93239,-0.59549 -16.0783,4.763943 -19.65125,12.505343 -1.19098,2.38197 -3.57295,8.33689 -1.78648,10.12337 1.19099,1.78648 3.57296,1.19099 5.35943,1.19099 4.76394,0.59549 9.52788,1.78648 14.29182,2.97746 z"
       id="BlackKing" />
  </g>
</svg>
