<?xml version="1.0" encoding="UTF-8" standalone="no"?>
<!-- Created with Inkscape (http://www.inkscape.org/) -->
<svg
   xmlns:dc="http://purl.org/dc/elements/1.1/"
   xmlns:cc="http://creativecommons.org/ns#"
   xmlns:rdf="http://www.w3.org/1999/02/22-rdf-syntax-ns#"
   xmlns:svg="http://www.w3.org/2000/svg"
   xmlns="http://www.w3.org/2000/svg"
   xmlns:sodipodi="http://sodipodi.sourceforge.net/DTD/sodipodi-0.dtd"
   xmlns:inkscape="http://www.inkscape.org/namespaces/inkscape"
   width="97.221024"
   height="89.91935"
   id="svg2833"
   sodipodi:version="0.32"
   inkscape:version="0.46+devel"
   version="1.0"
   sodipodi:docname="BlackBishop.svg"
   inkscape:output_extension="org.inkscape.output.svg.inkscape">
  <defs
     id="defs2835">
    <inkscape:perspective
       sodipodi:type="inkscape:persp3d"
       inkscape:vp_x="0 : 526.18109 : 1"
       inkscape:vp_y="0 : 1000 : 0"
       inkscape:vp_z="744.09448 : 526.18109 : 1"
       inkscape:persp3d-origin="372.04724 : 350.78739 : 1"
       id="perspective2841" />
    <inkscape:perspective
       id="perspective2851"
       inkscape:persp3d-origin="0.5 : 0.33333333 : 1"
       inkscape:vp_z="1 : 0.5 : 1"
       inkscape:vp_y="0 : 1000 : 0"
       inkscape:vp_x="0 : 0.5 : 1"
       sodipodi:type="inkscape:persp3d" />
    <inkscape:perspective
       id="perspective2873"
       inkscape:persp3d-origin="0.5 : 0.33333333 : 1"
       inkscape:vp_z="1 : 0.5 : 1"
       inkscape:vp_y="0 : 1000 : 0"
       inkscape:vp_x="0 : 0.5 : 1"
       sodipodi:type="inkscape:persp3d" />
    <inkscape:perspective
       id="perspective2916"
       inkscape:persp3d-origin="0.5 : 0.33333333 : 1"
       inkscape:vp_z="1 : 0.5 : 1"
       inkscape:vp_y="0 : 1000 : 0"
       inkscape:vp_x="0 : 0.5 : 1"
       sodipodi:type="inkscape:persp3d" />
    <inkscape:perspective
       id="perspective2959"
       inkscape:persp3d-origin="0.5 : 0.33333333 : 1"
       inkscape:vp_z="1 : 0.5 : 1"
       inkscape:vp_y="0 : 1000 : 0"
       inkscape:vp_x="0 : 0.5 : 1"
       sodipodi:type="inkscape:persp3d" />
    <inkscape:perspective
       id="perspective3002"
       inkscape:persp3d-origin="0.5 : 0.33333333 : 1"
       inkscape:vp_z="1 : 0.5 : 1"
       inkscape:vp_y="0 : 1000 : 0"
       inkscape:vp_x="0 : 0.5 : 1"
       sodipodi:type="inkscape:persp3d" />
  </defs>
  <sodipodi:namedview
     id="base"
     pagecolor="#ffffff"
     bordercolor="#666666"
     borderopacity="1.0"
     inkscape:pageopacity="0.0"
     inkscape:pageshadow="2"
     inkscape:zoom="0.98994949"
     inkscape:cx="8.7527877"
     inkscape:cy="82.430952"
     inkscape:document-units="px"
     inkscape:current-layer="layer1"
     showgrid="false"
     inkscape:window-width="658"
     inkscape:window-height="834"
     inkscape:window-x="564"
     inkscape:window-y="56" />
  <metadata
     id="metadata2838">
    <rdf:RDF>
      <cc:Work
         rdf:about="">
        <dc:format>image/svg+xml</dc:format>
        <dc:type
           rdf:resource="http://purl.org/dc/dcmitype/StillImage" />
        <dc:title></dc:title>
      </cc:Work>
    </rdf:RDF>
  </metadata>
  <g
     inkscape:label="Layer 1"
     inkscape:groupmode="layer"
     id="layer1"
     transform="translate(-67.582896,-63.246303)">
    <path
       style="stroke-width:1px"
       d="m 111.74636,137.63153 c -7.7414,2.97746 -12.505341,2.97746 -20.842231,2.97746 -5.35943,0 -11.90985,-0.59549 -16.67379,2.97747 -2.38196,2.38196 1.78648,8.33689 4.16845,8.33689 2.97746,0.59549 5.95493,-1.78648 8.93239,-1.78648 6.55041,-0.59549 12.50534,1.78648 19.055751,0 2.97746,-0.59549 6.55042,-3.57295 9.52787,-3.57295 2.97746,0 7.14591,2.97746 10.12337,3.57295 4.76394,1.19099 9.52788,0 14.29182,0 4.16844,0 10.71886,2.97747 14.29181,1.78648 1.78648,-0.59549 4.76394,-4.76394 4.16845,-7.14591 -0.59549,-2.97746 -7.14591,-3.57295 -9.52788,-4.16845 -10.71886,-1.19098 -19.05575,2.97747 -28.58363,-3.57295 2.97746,0 16.67378,0 16.67378,-4.16846 0.5955,-4.16844 -4.16844,-8.33689 -2.97746,-13.10083 0.5955,-4.76394 4.76394,-8.33689 5.95493,-13.69632 2.97746,-13.69633 -8.3369,-23.8197 -19.65125,-29.17913 1.19098,-1.78647 2.38197,-4.16844 2.38197,-6.55041 -0.59549,-8.93239 -14.8873,-7.7414 -13.69632,1.19098 0.59549,1.78648 1.78648,3.57296 2.38197,5.35943 -11.31435,5.35943 -22.628711,15.4828 -19.651241,29.17913 1.19098,5.35943 5.35943,8.93238 5.95492,13.69632 1.19098,4.76394 -3.57296,8.93239 -2.97746,13.10083 0,4.16846 13.696321,4.16846 16.673781,4.16846 l 0,0.59549 z m 20.24673,-9.52789 c -0.59549,1.78648 -5.35943,0.5955 -6.55041,0.5955 -6.55042,-0.5955 -13.10083,-0.5955 -19.65124,0 -1.19099,0 -5.954921,1.19098 -5.35943,-1.19099 0.59549,-2.38197 4.16844,-2.38197 5.95492,-2.38197 6.55042,-0.59549 12.50533,-0.59549 19.05575,0 1.78648,0 7.14591,0 6.55041,2.97746 z m -2.97746,-10.12337 c 0,2.38197 -3.57295,1.78648 -4.76394,1.78648 -5.35943,-0.59549 -10.71885,-0.59549 -16.07828,0 -1.19099,0 -4.16845,0.59549 -4.76394,-1.19098 0,-2.38197 4.16845,-2.38197 5.35943,-2.38197 5.35943,-0.5955 9.52787,-0.5955 14.8873,0 1.19099,0 4.76394,0 5.35943,1.78647 z M 117.70128,97.73353 c 8.33689,0 8.33689,3.57296 0,3.57296 0,8.33689 -3.57295,8.33689 -3.57295,0 -7.7414,0 -7.7414,-3.57296 0,-3.57296 0,-8.33689 3.57295,-8.33689 3.57295,0 z"
       id="BlackBishop" />
  </g>
</svg>
