<?xml version="1.0" encoding="UTF-8" standalone="no"?>
<!-- Created with Inkscape (http://www.inkscape.org/) -->

<svg
   xmlns:dc="http://purl.org/dc/elements/1.1/"
   xmlns:cc="http://creativecommons.org/ns#"
   xmlns:rdf="http://www.w3.org/1999/02/22-rdf-syntax-ns#"
   xmlns:svg="http://www.w3.org/2000/svg"
   xmlns="http://www.w3.org/2000/svg"
   xmlns:sodipodi="http://sodipodi.sourceforge.net/DTD/sodipodi-0.dtd"
   xmlns:inkscape="http://www.inkscape.org/namespaces/inkscape"
   version="1.0"
   width="100"
   height="100"
   id="svg2833"
   inkscape:version="0.47 r22583"
   sodipodi:docname="BlackCrownedBishop.svg">
  <sodipodi:namedview
     pagecolor="#ffffff"
     bordercolor="#666666"
     borderopacity="1"
     objecttolerance="10"
     gridtolerance="10"
     guidetolerance="10"
     inkscape:pageopacity="0"
     inkscape:pageshadow="2"
     inkscape:window-width="640"
     inkscape:window-height="487"
     id="namedview14"
     showgrid="false"
     inkscape:zoom="2.36"
     inkscape:cx="50"
     inkscape:cy="50"
     inkscape:window-x="0"
     inkscape:window-y="25"
     inkscape:window-maximized="0"
     inkscape:current-layer="svg2833" />
  <defs
     id="defs2835">
    <inkscape:perspective
       sodipodi:type="inkscape:persp3d"
       inkscape:vp_x="0 : 50 : 1"
       inkscape:vp_y="0 : 1000 : 0"
       inkscape:vp_z="100 : 50 : 1"
       inkscape:persp3d-origin="50 : 33.333333 : 1"
       id="perspective16" />
  </defs>
  <metadata
     id="metadata2838">
    <rdf:RDF>
      <cc:Work
         rdf:about="">
        <dc:format>image/svg+xml</dc:format>
        <dc:type
           rdf:resource="http://purl.org/dc/dcmitype/StillImage" />
        <dc:title></dc:title>
      </cc:Work>
    </rdf:RDF>
  </metadata>
  <g
     id="g2837">
    <path
       style="color:#000000;fill:#000000;fill-opacity:1;fill-rule:nonzero;stroke:#000000;stroke-width:2;stroke-linecap:butt;stroke-linejoin:miter;stroke-miterlimit:4;stroke-opacity:1;marker:none;visibility:visible;display:inline;overflow:visible;enable-background:accumulate"
       id="path900"
       inkscape:connector-curvature="0"
       d="M 36.30595,59.417265 24.376483,48.033607 C 20.139397,43.990392 12.237729,46.016232 12.268826,40.407532 12.311717,32.670013 34.907175,27.788378 44.547031,18.103208 l 11.078999,0 c 10.065834,10.160662 32.354717,13.792369 32.370902,22.304324 0.01009,5.621984 -8.151701,3.891832 -12.055165,7.626075 L 64.042286,59.417265 z" />
    <path
       style="color:#000000;fill:#000000;fill-opacity:1;fill-rule:nonzero;stroke:#000000;stroke-width:2;stroke-linecap:butt;stroke-linejoin:miter;stroke-miterlimit:4;stroke-opacity:1;marker:none;visibility:visible;display:inline;overflow:visible;enable-background:accumulate"
       id="path902"
       inkscape:connector-curvature="0"
       d="m 68.769536,71.07519 c 0,2.073311 -8.403716,3.754049 -18.770208,3.754049 -10.366505,0 -18.770221,-1.680738 -18.770221,-3.754049 0.06636,-1.393616 2.681415,-9.714324 6.516542,-10.994302 6.735026,-2.247804 17.966632,-2.510491 24.949104,0 3.748221,1.347646 6.141152,9.733411 6.074783,10.994302 z" />
    <path
       style="color:#000000;fill:none;stroke:#ffffcc;stroke-width:2;stroke-linecap:butt;stroke-linejoin:miter;stroke-miterlimit:4;stroke-opacity:1;marker:none;visibility:visible;display:inline;overflow:visible;enable-background:accumulate"
       id="path904"
       inkscape:connector-curvature="0"
       d="m 35.551825,68.575408 c 3.44316,-0.823963 8.62013,-1.348112 14.409203,-1.348112 5.832924,0 11.044434,0.532122 14.48714,1.366884" />
    <path
       style="color:#000000;fill:#000000;fill-opacity:1;fill-rule:nonzero;stroke:#000000;stroke-width:2;stroke-linecap:butt;stroke-linejoin:miter;stroke-miterlimit:4;stroke-opacity:1;stroke-dasharray:none;marker:none;visibility:visible;display:inline;overflow:visible;enable-background:accumulate"
       id="path910"
       inkscape:connector-curvature="0"
       d="m 10.905688,84.260767 4.396038,4.739234 c 2.023556,-1.325884 4.038295,-1.583273 6.642934,-1.583273 l 18.118985,0 c 3.201087,0 7.732309,-3.925351 10.046306,-5.455892 2.282711,1.616022 6.761365,5.455892 10.046305,5.455892 l 18.993081,0 c 2.201886,0 3.534267,0.206209 5.636101,1.583273 l 4.308867,-4.645377 C 86.925269,82.716462 78.204117,80.810025 74.37121,80.964133 70.538303,81.11824 63.01735,82.176758 59.638692,81.096858 56.260033,80.016957 53.157182,77.483039 51.781719,76.107577 l -3.508468,0.09386 c -1.71374,1.502144 -3.934006,3.981451 -8.27793,4.895424 -4.343924,0.913972 -10.152387,-0.109374 -13.93617,-0.132725 -3.783796,-0.02347 -12.613414,0.921806 -15.153463,3.296634 z" />
    <path
       style="color:#000000;fill:none;stroke:#ffffcc;stroke-width:2;stroke-linecap:butt;stroke-linejoin:miter;stroke-miterlimit:4;stroke-opacity:1;marker:none;visibility:visible;display:inline;overflow:visible;enable-background:accumulate"
       id="path912"
       inkscape:connector-curvature="0"
       d="m 38.156186,59.706481 c 3.443173,-0.823963 5.851531,-1.348112 11.640592,-1.348112 5.832923,0 8.60431,0.438265 12.047028,1.273026" />
  </g>
</svg>
