<?xml version="1.0" encoding="UTF-8" standalone="no"?>
<!-- Created with Inkscape (http://www.inkscape.org/) -->

<svg
   xmlns:dc="http://purl.org/dc/elements/1.1/"
   xmlns:cc="http://creativecommons.org/ns#"
   xmlns:rdf="http://www.w3.org/1999/02/22-rdf-syntax-ns#"
   xmlns:svg="http://www.w3.org/2000/svg"
   xmlns="http://www.w3.org/2000/svg"
   xmlns:inkscape="http://www.inkscape.org/namespaces/inkscape"
   version="1.0"
   width="100"
   height="100"
   id="svg2833">
  <defs
     id="defs2835" />
  <metadata
     id="metadata2838">
    <rdf:RDF>
      <cc:Work
         rdf:about="">
        <dc:format>image/svg+xml</dc:format>
        <dc:type
           rdf:resource="http://purl.org/dc/dcmitype/StillImage" />
        <dc:title />
      </cc:Work>
    </rdf:RDF>
  </metadata>
  <g
     transform="translate(-67.582896,-53.165653)"
     id="layer1">
    <g
       transform="matrix(1.2820296,0,0,1.3229667,-689.7888,-95.709672)"
       id="g1480"
       style="display:inline">
      <path
         d="m 612.12384,133.59459 -14.84739,-16.90543 18.52248,13.67135 z"
         inkscape:connector-curvature="0"
         id="path1469"
         style="color:#000000;fill:#ffffcc;fill-opacity:1;fill-rule:nonzero;stroke:#000000;stroke-width:0.76785016;stroke-linecap:round;stroke-linejoin:miter;stroke-miterlimit:4;stroke-opacity:1;stroke-dasharray:none;marker:none;visibility:visible;display:inline;overflow:visible;enable-background:accumulate" />
      <path
         d="m 613.26939,163.05791 c 0,0 4.46974,4.15789 6.23684,4.05395 -1.35131,-2.28685 -1.66316,-3.32631 -1.55921,-4.26184 0.93553,0.41579 2.70263,-0.93553 2.70263,-0.93553 -0.93553,-0.31184 -4.26184,-2.39079 -4.78158,-3.74211 z"
         inkscape:connector-curvature="0"
         id="path1471"
         style="color:#000000;fill:#ffffcc;fill-opacity:1;fill-rule:nonzero;stroke:#000000;stroke-width:0.76785016;stroke-linecap:round;stroke-linejoin:miter;stroke-miterlimit:4;stroke-opacity:1;stroke-dasharray:none;marker:none;visibility:visible;display:inline;overflow:visible;enable-background:accumulate" />
      <path
         d="m 628.58839,118.74552 c -1.30536,1.94797 -3.17282,3.88174 -3.44959,6.30298 -0.71519,0.61352 -1.73864,0.0333 -2.57728,0.20952 -0.84773,-0.023 -1.82604,-0.33492 -2.02153,-1.23631 -0.78009,-1.20526 -1.84881,-2.31055 -3.2098,-2.83026 -0.47198,-0.57525 -1.25747,-0.74161 -1.94432,-0.9721 -0.56924,1.20758 0.28272,2.46354 0.0723,3.71257 0.0905,1.64365 -0.10341,3.36159 -0.68111,4.88268 -1.93201,1.75607 -3.79798,3.72106 -4.65962,6.23714 -1.05845,2.33601 -0.76939,5.03939 -1.85098,7.3714 -1.26461,3.97863 -4.34915,7.01157 -6.05655,10.77411 -1.21662,2.32037 -1.85416,5.17592 -0.7478,7.66221 0.51839,1.117 1.5151,2.02872 2.66743,2.47544 1.53158,0.51475 3.20424,0.25101 4.70215,-0.21766 0.68554,0.0376 0.91002,0.66796 1.19167,1.1289 0.76042,0.92667 2.59868,0.72129 3.07327,-0.28223 1.0895,-1.10519 1.75857,-2.41888 2.80199,-3.5341 1.6308,-1.93093 3.32691,-3.83091 5.28887,-5.43432 1.01534,-0.61597 2.21895,-1.30876 3.3739,-1.82796 2.99414,-1.41122 5.82515,-3.18907 8.57421,-5.0081 0.29877,0.11424 -0.0226,0.79777 0.0627,1.12889 0.0242,3.22874 -0.76202,6.52945 -2.43804,9.30342 -0.91749,1.47888 -1.93586,2.73236 -3.14142,4.01427 -1.91315,2.09179 -3.5961,4.38819 -5.32906,6.64523 -1.81626,2.55307 -3.4831,5.33504 -4.0815,8.44753 0.0517,0.55293 -0.44791,1.44807 0.28133,1.66788 0.78185,0.29763 1.65093,-0.0559 2.46579,0.0873 13.54119,-0.0582 27.08266,-0.0345 40.62361,0.0636 -0.19998,-8.07146 -0.82596,-16.18564 -2.72568,-24.05183 -0.95435,-4.25027 -2.14822,-8.46597 -3.94824,-12.443 -1.54029,-3.57995 -3.56195,-6.95062 -6.01764,-9.98473 -1.8147,-2.18418 -4.32166,-3.63186 -6.75158,-5.07317 -2.96369,-1.62786 -6.3022,-2.74746 -9.72156,-2.66544 -0.82515,0.0226 -1.47953,-0.73964 -1.40208,-1.54032 -0.38169,-1.86115 -1.15378,-3.64268 -2.32975,-5.13895 l -0.0602,0.0803 -0.0338,0.0452 z"
         inkscape:connector-curvature="0"
         id="path4298-8"
         style="fill:#ffffcc;fill-opacity:1;stroke:#ffffcc;stroke-width:0.57091492px;stroke-opacity:1" />
      <path
         d="m 621.87831,124.48727 2.56299,0.0597 c -0.11346,-2.7228 4.46118,-7.17791 4.46118,-7.17791 0,0 2.64035,2.96284 3.06697,7.14149 5.95898,-0.23832 11.0776,2.90905 13.04628,4.1216 12.47238,7.68203 17.35445,32.56101 17.32889,51.64719 l -45.06067,-0.14149 c -0.20802,-13.11861 15.61741,-18.03671 15.15408,-30.49597 -3.99887,3.11006 -8.45664,3.95656 -11.98713,6.92903 -2.80333,2.36025 -4.24777,5.12481 -7.04287,8.44159 -1.0304,1.22272 -3.78148,0.6807 -4.67011,-1.09647 -4.4432,1.33288 -8.71266,0.0178 -8.61226,-6.32407 0.0889,-5.61429 5.73522,-10.68806 7.6764,-15.95689 0.83683,-2.27136 0.7198,-5.78193 2.04191,-8.30913 1.02658,-1.9623 3.33714,-4.23505 4.39597,-4.98167 0.82239,-2.79823 0.64203,-7.53825 -0.71945,-9.35345 1.9855,-0.56725 6.5425,2.20639 8.35782,5.49645 z m -12.97972,36.97088 1.33296,0.44429 1.33296,-4.44294 -0.44432,0 z m -3.75204,-2.27697 c 2.62273,-0.1234 3.83128,-5.75592 1.16635,-5.68329 -2.94363,0.0802 -3.42944,5.78978 -1.16635,5.68329 z m 28.10633,-11.45912 0.88863,0 c 1.36385,-0.44122 1.85443,-4.32569 1.33296,-4.88724 -0.77445,0.2067 -1.25888,3.11006 -2.22159,4.88724 z m -18.86199,-7.35554 0.88863,-2.22147 c 2.66592,0.4443 3.99888,-0.88858 3.55456,-3.55435 l 2.22159,-0.4443 0,-0.44429 c -3.99887,-0.88859 -7.55343,2.66576 -6.66478,6.66441 z m 3.3941,-10.89757 c 0.88864,0 3.92345,-0.11345 4.81208,-0.55775 8.44209,-2.66576 -3.92344,-4.32949 -4.81208,0.55775 z"
         inkscape:connector-curvature="0"
         id="BlackKnight-0-5"
         style="fill:#000000;fill-opacity:1;stroke:#000000;stroke-width:0.57091492px;stroke-opacity:1" />
      <path
         d="m 632.77788,126.79567 a 0.80852091,1.6170418 0 1 1 -1.61704,0 0.80852091,1.6170418 0 1 1 1.61704,0 z"
         transform="matrix(0.72001005,-0.10252387,0.10986928,0.77159574,163.23463,94.046626)"
         id="path1478"
         style="color:#000000;fill:#ffffcc;fill-opacity:1;fill-rule:nonzero;stroke:#ffffcc;stroke-width:1.01989067;stroke-linecap:round;stroke-linejoin:miter;stroke-miterlimit:4;stroke-opacity:1;stroke-dasharray:none;marker:none;visibility:visible;display:inline;overflow:visible;enable-background:accumulate" />
    </g>
  </g>
</svg>
