<?xml version="1.0" encoding="UTF-8" standalone="no"?>
<!-- Created with Inkscape (http://www.inkscape.org/) -->

<svg
   xmlns:dc="http://purl.org/dc/elements/1.1/"
   xmlns:cc="http://creativecommons.org/ns#"
   xmlns:rdf="http://www.w3.org/1999/02/22-rdf-syntax-ns#"
   xmlns:svg="http://www.w3.org/2000/svg"
   xmlns="http://www.w3.org/2000/svg"
   xmlns:sodipodi="http://sodipodi.sourceforge.net/DTD/sodipodi-0.dtd"
   xmlns:inkscape="http://www.inkscape.org/namespaces/inkscape"
   width="100"
   height="100"
   id="svg2833"
   sodipodi:version="0.32"
   inkscape:version="0.46+devel r22620"
   version="1.0"
   sodipodi:docname="BlackKing.svg"
   inkscape:output_extension="org.inkscape.output.svg.inkscape">
  <defs
     id="defs2835">
    <inkscape:perspective
       sodipodi:type="inkscape:persp3d"
       inkscape:vp_x="0 : 526.18109 : 1"
       inkscape:vp_y="0 : 1000 : 0"
       inkscape:vp_z="744.09448 : 526.18109 : 1"
       inkscape:persp3d-origin="372.04724 : 350.78739 : 1"
       id="perspective2841" />
    <inkscape:perspective
       id="perspective2851"
       inkscape:persp3d-origin="0.5 : 0.33333333 : 1"
       inkscape:vp_z="1 : 0.5 : 1"
       inkscape:vp_y="0 : 1000 : 0"
       inkscape:vp_x="0 : 0.5 : 1"
       sodipodi:type="inkscape:persp3d" />
    <inkscape:perspective
       id="perspective2873"
       inkscape:persp3d-origin="0.5 : 0.33333333 : 1"
       inkscape:vp_z="1 : 0.5 : 1"
       inkscape:vp_y="0 : 1000 : 0"
       inkscape:vp_x="0 : 0.5 : 1"
       sodipodi:type="inkscape:persp3d" />
    <inkscape:perspective
       id="perspective2916"
       inkscape:persp3d-origin="0.5 : 0.33333333 : 1"
       inkscape:vp_z="1 : 0.5 : 1"
       inkscape:vp_y="0 : 1000 : 0"
       inkscape:vp_x="0 : 0.5 : 1"
       sodipodi:type="inkscape:persp3d" />
    <inkscape:perspective
       id="perspective3423"
       inkscape:persp3d-origin="0.5 : 0.33333333 : 1"
       inkscape:vp_z="1 : 0.5 : 1"
       inkscape:vp_y="0 : 1000 : 0"
       inkscape:vp_x="0 : 0.5 : 1"
       sodipodi:type="inkscape:persp3d" />
  </defs>
  <sodipodi:namedview
     id="base"
     pagecolor="#ffffff"
     bordercolor="#666666"
     borderopacity="1.0"
     inkscape:pageopacity="0.0"
     inkscape:pageshadow="2"
     inkscape:zoom="1.4"
     inkscape:cx="-104.04183"
     inkscape:cy="104.44271"
     inkscape:document-units="px"
     inkscape:current-layer="layer1"
     showgrid="false"
     inkscape:window-width="1280"
     inkscape:window-height="971"
     inkscape:window-x="0"
     inkscape:window-y="0"
     inkscape:window-maximized="1" />
  <metadata
     id="metadata2838">
    <rdf:RDF>
      <cc:Work
         rdf:about="">
        <dc:format>image/svg+xml</dc:format>
        <dc:type
           rdf:resource="http://purl.org/dc/dcmitype/StillImage" />
        <dc:title />
      </cc:Work>
    </rdf:RDF>
  </metadata>
  <g
     inkscape:label="Layer 1"
     inkscape:groupmode="layer"
     id="layer1"
     transform="translate(-67.582896,-53.165653)">
    <g
       id="g3219"
       transform="matrix(1.0705786,0,0,1.0705786,44.226134,-75.883997)">
      <path
         id="path3118"
         d="m 67.375,140.15625 c -6.834026,1.44973 -6.760848,10.50785 -7.125,16 -9.218555,-8.49854 -27.557841,-8.37094 -32.96875,4.25 -4.25109,12.9951 8.471996,24.61023 20.08477,27.48188 6.588555,2.10691 -4.606665,0.86308 -4.52227,5.01812 -0.209993,2.89329 1.926079,5.14966 -0.125,7.5625 -0.509739,4.16994 4.655328,5.53035 7.46875,3.09375 13.41952,-4.103 27.807876,-2.3531 41.0625,1.28125 3.719454,-0.79202 3.988702,-5.91927 1.28125,-8.15625 4.095799,-2.27579 0.189318,-6.99645 -2.40625,-8.53125 11.72084,-3.25889 23.55595,-15.29131 19.5625,-28.09375 -5.00367,-12.11347 -22.742538,-12.92942 -31.571521,-4.60751 -1.178302,-3.25396 -0.504463,-11.46235 -5.459729,-13.92374 -1.618522,-0.96232 -3.382525,-1.56394 -5.28125,-1.375 z M 94.3125,157 c 8.95092,-0.59747 12.53525,12.8932 4.875,17.1875 -3.212074,4.38338 -9.619123,6.98783 -14.46875,3.90625 -3.655994,0.30984 -10.426619,-0.45463 -9.03125,-5.71875 2.118358,-8.32459 9.770755,-15.40426 18.625,-15.375 z m -51.375,0.1875 c 10.366442,-0.27174 19.360721,9.50489 18.65625,19.78125 -7.153734,-0.22994 -15.899953,5.7248 -21.78125,-0.9375 -5.15326,-3.66356 -9.14215,-12.57257 -2.75,-17 1.74789,-1.16605 3.794348,-1.77138 5.875,-1.84375 z"
         style="color:#000000;fill:#ffffcc;fill-opacity:1;fill-rule:nonzero;stroke:#000000;stroke-width:0.09340744;stroke-linecap:butt;stroke-linejoin:miter;stroke-miterlimit:4;stroke-opacity:1;stroke-dasharray:none;stroke-dashoffset:0;marker:none;visibility:visible;display:inline;overflow:visible;enable-background:accumulate" />
      <path
         id="BlackKing"
         d="m 59.335056,154.14791 c -4.16845,-2.38197 -8.336888,-4.76395 -13.100828,-5.35944 -10.71886,-1.19099 -23.2242,6.55041 -21.43773,19.05575 1.78648,8.93239 10.71887,11.31436 13.69633,18.46027 2.38197,4.76394 -1.19099,14.29182 2.38197,17.86477 1.78647,2.38197 7.1459,2.97746 10.12337,4.16845 10.71886,2.38197 22.6287,2.38197 33.34757,0 3.57295,-0.5955 9.52787,-1.19099 11.90984,-4.16845 4.168452,-3.57295 -0.59549,-13.69632 2.38197,-18.46026 4.168452,-6.55042 12.505342,-9.52789 13.696322,-18.46027 1.19099,-11.90985 -10.71886,-19.65125 -21.437722,-18.46026 -4.76394,0.59549 -8.93238,2.97746 -13.10083,5.35943 0,0 -0.685069,-8.4368 -3.248459,-11.47543 -1.208119,-1.4321 -5.073153,-2.42017 -5.073153,-2.42017 l -0.06642,-8.49797 c 0,0 4.91932,0 4.91932,0 0,0 0,-2.73967 0,-2.73967 0,0 -4.91932,0 -4.91932,0 0,0 0,-4.64748 0,-4.64748 0,0 -2.624749,0 -2.624749,0 0,0 0,4.64748 0,4.64748 0,0 -4.944282,0 -4.944282,0 0,0 0,2.73967 0,2.73967 0,0 4.944282,0 4.944282,0 l 0.05114,8.49797 c 0,0 -3.579205,1.27837 -4.661658,2.71411 -2.314882,3.0704 -2.836963,11.1815 -2.836963,11.1815 z m 10.718862,24.41517 c 0,-13.10083 8.93238,-26.20166 22.62871,-26.79715 11.909842,-0.59549 20.246742,10.12337 14.291812,20.84223 -2.38197,4.16845 -8.932382,11.31436 -13.696322,12.50535 -3.57295,0.59549 -7.7414,-1.78648 -11.31435,-1.78648 -6.55042,-1.19099 -13.10083,-1.78648 -19.65125,-1.19099 -5.35943,0.5955 -14.29182,4.16845 -19.05575,2.38197 -7.14591,-2.38197 -17.26928,-13.10083 -14.88731,-21.43773 2.38197,-11.31435 16.07829,-13.10083 25.01068,-8.93238 8.93238,4.76394 13.69632,14.29181 13.69632,24.41518 l 2.97746,0 z m -26.20166,3.57296 c 4.76394,-1.19098 9.52788,-2.38197 14.29181,-2.97746 1.78648,0 4.16845,0.59549 5.35943,-1.19099 1.78648,-1.78648 -0.59549,-7.7414 -1.78647,-10.12337 -3.57296,-7.7414 -10.71886,-13.10083 -19.65125,-12.50534 -8.33689,0.5955 -13.69632,8.93239 -8.33689,16.67379 2.38197,4.16844 7.14591,5.95492 10.12337,10.12337 z m 0.59549,11.31436 c 0.59549,-2.38197 7.14591,-2.97746 8.93239,-2.97746 9.52787,-1.78648 19.65124,-2.38197 29.17912,-0.5955 1.78648,0.5955 10.71886,1.19099 10.12337,4.16845 -0.59549,2.97746 -8.93239,-0.59549 -10.71886,-0.59549 -9.52788,-1.78648 -20.24674,-1.78648 -29.77462,0.59549 -1.19098,0 -8.33689,2.38197 -7.7414,-0.59549 z m 0,7.7414 c 0.59549,-2.38197 7.14591,-2.97746 8.93239,-3.57296 9.52787,-2.38197 19.65124,-2.38197 29.17912,-0.59549 1.78648,0.59549 10.71886,1.78648 10.12337,4.76394 -0.59549,2.97746 -8.93239,-0.59549 -10.71886,-1.19098 -9.52788,-1.78648 -20.24674,-1.78648 -29.77462,0.59549 -1.19098,0.59549 -8.33689,3.57295 -7.7414,0 z m 23.81969,-33.94307 c -1.78647,-2.97746 -2.97746,-5.95492 -4.76394,-8.93238 -1.78647,-4.76394 -1.78647,-20.24674 7.7414,-15.4828 8.3369,4.16844 1.78648,19.65124 -2.97746,24.41518 z m 0.5955,-5.95492 c 0.59549,-1.78648 1.78647,-4.16845 2.38196,-5.95493 0.5955,-2.38197 1.19099,-12.50533 -4.16844,-9.52787 -4.76394,2.97746 -0.59549,12.50534 1.78648,15.4828 z m 24.41518,20.84223 c 2.97746,-4.16845 7.741402,-5.95493 10.123372,-10.12337 5.35943,-7.7414 0,-16.07829 -8.336892,-16.67379 -8.93239,-0.59549 -16.0783,4.76394 -19.65125,12.50534 -1.19098,2.38197 -3.57295,8.33689 -1.78648,10.12337 1.19099,1.78648 3.57296,1.19099 5.35943,1.19099 4.76394,0.59549 9.52788,1.78648 14.29182,2.97746 z"
         style="stroke-width:1px"
         sodipodi:nodetypes="ccccccccccccaccccccccccccaccccccccccccccccccccccsccccccscccccscccccccccccc" />
    </g>
  </g>
</svg>
