<?xml version="1.0" encoding="UTF-8" standalone="no"?>
<!-- Created with Inkscape (http://www.inkscape.org/) -->

<svg
   xmlns:dc="http://purl.org/dc/elements/1.1/"
   xmlns:cc="http://creativecommons.org/ns#"
   xmlns:rdf="http://www.w3.org/1999/02/22-rdf-syntax-ns#"
   xmlns:svg="http://www.w3.org/2000/svg"
   xmlns="http://www.w3.org/2000/svg"
   xmlns:sodipodi="http://sodipodi.sourceforge.net/DTD/sodipodi-0.dtd"
   xmlns:inkscape="http://www.inkscape.org/namespaces/inkscape"
   width="100"
   height="100"
   id="svg2833"
   sodipodi:version="0.32"
   inkscape:version="0.46+devel r22620"
   version="1.0"
   sodipodi:docname="BlackKnight.svg"
   inkscape:output_extension="org.inkscape.output.svg.inkscape">
  <defs
     id="defs2835">
    <inkscape:perspective
       sodipodi:type="inkscape:persp3d"
       inkscape:vp_x="0 : 526.18109 : 1"
       inkscape:vp_y="0 : 1000 : 0"
       inkscape:vp_z="744.09448 : 526.18109 : 1"
       inkscape:persp3d-origin="372.04724 : 350.78739 : 1"
       id="perspective2841" />
    <inkscape:perspective
       id="perspective2851"
       inkscape:persp3d-origin="0.5 : 0.33333333 : 1"
       inkscape:vp_z="1 : 0.5 : 1"
       inkscape:vp_y="0 : 1000 : 0"
       inkscape:vp_x="0 : 0.5 : 1"
       sodipodi:type="inkscape:persp3d" />
    <inkscape:perspective
       id="perspective2873"
       inkscape:persp3d-origin="0.5 : 0.33333333 : 1"
       inkscape:vp_z="1 : 0.5 : 1"
       inkscape:vp_y="0 : 1000 : 0"
       inkscape:vp_x="0 : 0.5 : 1"
       sodipodi:type="inkscape:persp3d" />
    <inkscape:perspective
       id="perspective2916"
       inkscape:persp3d-origin="0.5 : 0.33333333 : 1"
       inkscape:vp_z="1 : 0.5 : 1"
       inkscape:vp_y="0 : 1000 : 0"
       inkscape:vp_x="0 : 0.5 : 1"
       sodipodi:type="inkscape:persp3d" />
    <inkscape:perspective
       id="perspective2959"
       inkscape:persp3d-origin="0.5 : 0.33333333 : 1"
       inkscape:vp_z="1 : 0.5 : 1"
       inkscape:vp_y="0 : 1000 : 0"
       inkscape:vp_x="0 : 0.5 : 1"
       sodipodi:type="inkscape:persp3d" />
    <inkscape:perspective
       id="perspective3002"
       inkscape:persp3d-origin="0.5 : 0.33333333 : 1"
       inkscape:vp_z="1 : 0.5 : 1"
       inkscape:vp_y="0 : 1000 : 0"
       inkscape:vp_x="0 : 0.5 : 1"
       sodipodi:type="inkscape:persp3d" />
    <inkscape:perspective
       id="perspective3045"
       inkscape:persp3d-origin="0.5 : 0.33333333 : 1"
       inkscape:vp_z="1 : 0.5 : 1"
       inkscape:vp_y="0 : 1000 : 0"
       inkscape:vp_x="0 : 0.5 : 1"
       sodipodi:type="inkscape:persp3d" />
    <inkscape:perspective
       id="perspective3513"
       inkscape:persp3d-origin="0.5 : 0.33333333 : 1"
       inkscape:vp_z="1 : 0.5 : 1"
       inkscape:vp_y="0 : 1000 : 0"
       inkscape:vp_x="0 : 0.5 : 1"
       sodipodi:type="inkscape:persp3d" />
  </defs>
  <sodipodi:namedview
     id="base"
     pagecolor="#ffffff"
     bordercolor="#666666"
     borderopacity="1.0"
     inkscape:pageopacity="0.0"
     inkscape:pageshadow="2"
     inkscape:zoom="0.98994949"
     inkscape:cx="-117.0112"
     inkscape:cy="82.430952"
     inkscape:document-units="px"
     inkscape:current-layer="layer1"
     showgrid="false"
     inkscape:window-width="1280"
     inkscape:window-height="971"
     inkscape:window-x="0"
     inkscape:window-y="0"
     inkscape:window-maximized="1" />
  <metadata
     id="metadata2838">
    <rdf:RDF>
      <cc:Work
         rdf:about="">
        <dc:format>image/svg+xml</dc:format>
        <dc:type
           rdf:resource="http://purl.org/dc/dcmitype/StillImage" />
        <dc:title />
      </cc:Work>
    </rdf:RDF>
  </metadata>
  <g
     inkscape:label="Layer 1"
     inkscape:groupmode="layer"
     id="layer1"
     transform="translate(-67.582896,-53.165653)">
    <g
       id="g3236"
       transform="matrix(1.0587125,0,0,1.0587125,-483.95049,-73.98148)">
      <path
         id="path3204"
         d="m 571.09375,134.6875 c -4.12484,-0.91257 -5.04001,3.5672 -1.75,5.5 5.32956,2.85991 11.86114,3.89443 15.5625,9.28125 12.17163,14.37925 13.92639,34.13197 14.03125,52.3125 0.48824,4.57627 5.11149,7.45839 9.53125,6.625 0.10241,-23.29412 -1.97438,-49.90915 -20.28125,-66.53125 -4.7777,-3.94718 -10.68811,-7.46081 -17.09375,-7.1875 z M 555.125,135.625 c -4.27006,0.12645 -7.3277,3.77486 -7.90625,7.84375 4.3738,0.17523 11.83704,-0.0677 13.125,-5.21875 -0.26881,-2.49515 -3.23289,-2.8439 -5.21875,-2.625 z m -3.8125,8.09375 c -5.9783,0.37026 -11.29086,9.07595 -6.09375,13.3125 1.80368,-2.18961 2.73727,-3.49422 5.46875,-4.0625 2.76132,-1.07775 1.38954,-5.17439 4.65625,-5.09375 2.26043,-3.14404 -1.23942,-4.78869 -4.03125,-4.15625 z m 20.46875,13.71875 c -3.30826,2.1625 -3.50868,6.53682 -3.75,10.09375 4.73272,1.00514 6.12629,-2.43276 6.59375,-6.625 1.02654,-1.90092 -0.72559,-5.73772 -2.84375,-3.46875 z m -37.8125,13.8125 c -5.58567,0.50924 -4.98014,11.16627 1.125,8.875 4.63789,-1.54314 4.76132,-9.47874 -1.125,-8.875 z m 5.90625,6.4375 c -2.04892,2.47318 -6.01272,8.13934 -0.71875,9.1875 3.91973,-0.16314 3.80778,-5.89617 4.3125,-8.9375 -1.0554,-0.59149 -2.63922,-1.59419 -3.59375,-0.25 z"
         style="color:#000000;fill:#ffffcc;fill-opacity:1;fill-rule:nonzero;stroke:#000000;stroke-width:0.09445435;stroke-linecap:butt;stroke-linejoin:miter;stroke-miterlimit:4;stroke-opacity:1;stroke-dasharray:none;stroke-dashoffset:0;marker:none;visibility:visible;display:inline;overflow:visible;enable-background:accumulate" />
      <path
         id="BlackKnight"
         d="m 556.50851,133.84303 c 2.38197,-1.78647 4.76394,-8.33689 7.7414,-8.93238 3.57296,-0.59549 4.76394,7.14591 7.7414,8.33689 4.76394,1.78648 9.52788,1.78648 14.29184,4.76394 14.8873,9.52788 19.65124,27.98814 22.03321,44.06643 1.19099,6.55042 1.78648,13.10083 1.78648,19.65125 0,1.78648 0.59549,5.35943 -0.59549,6.55041 -1.78648,2.38198 -10.71887,1.19099 -13.69633,1.19099 l -35.72955,0 c -4.16845,0 -11.31436,1.78648 -10.71886,-4.76394 2.97746,-14.88731 20.24673,-21.43772 20.84223,-36.92052 -5.35943,4.16844 -11.90985,5.95492 -16.67379,10.12337 -3.57295,2.97746 -6.55041,8.93238 -10.12337,11.31435 -2.38197,1.19098 -4.76394,0 -5.95492,-2.38197 -5.95492,1.78648 -11.90985,-2.38197 -11.31435,-8.93238 0.59549,-7.74141 5.95492,-13.69633 9.52787,-20.24675 2.38197,-4.16844 1.78648,-8.33689 3.57296,-12.50533 1.19098,-2.97747 4.16844,-4.76394 5.35943,-7.7414 1.78647,-2.38197 -2.38197,-9.52788 0.59549,-11.90985 2.97746,-2.38197 10.12337,5.95492 11.31435,8.33689 z m 12.50534,2.97746 c 1.78648,3.57296 5.35943,2.97747 8.33689,4.76394 4.16845,1.19099 7.14593,4.76394 10.12339,7.7414 8.93239,11.31436 13.10083,29.17913 13.10083,43.47094 0,5.35943 -1.19098,13.69633 5.95492,13.69633 0,-19.65125 -1.78647,-42.27996 -14.8873,-58.35825 -4.76394,-5.95493 -14.29184,-13.10083 -22.62873,-11.31436 z m -30.9656,47.63939 1.78648,0.59549 1.78648,-5.95492 -0.5955,0 z m -4.16844,-5.95492 c 2.97746,-0.59549 4.16844,-5.35943 0.59549,-5.35943 -2.97746,0 -3.57296,5.95492 -0.59549,5.35943 z m 36.32503,-13.10083 1.19098,0 1.78648,-6.55042 c -2.38197,1.19098 -2.97746,4.16845 -2.97746,6.55042 z m -25.01068,-10.71887 1.19098,-2.97746 c 3.57296,0.59549 5.35943,-1.19098 4.76394,-4.76394 l 2.97746,-0.59549 0,-0.59549 c -5.35943,-1.19099 -10.12337,3.57295 -8.93238,8.93238 z m 4.76394,-13.10083 c 1.19098,0 2.97746,0 4.16844,-0.59549 11.31436,-3.57295 -2.97746,-5.95492 -4.16844,0.59549 z"
         style="stroke-width:1px" />
    </g>
  </g>
</svg>
