<?xml version="1.0" encoding="UTF-8" standalone="no"?>
<!-- Created with Inkscape (http://www.inkscape.org/) -->

<svg
   xmlns:dc="http://purl.org/dc/elements/1.1/"
   xmlns:cc="http://creativecommons.org/ns#"
   xmlns:rdf="http://www.w3.org/1999/02/22-rdf-syntax-ns#"
   xmlns:svg="http://www.w3.org/2000/svg"
   xmlns="http://www.w3.org/2000/svg"
   xmlns:inkscape="http://www.inkscape.org/namespaces/inkscape"
   version="1.0"
   width="100"
   height="100"
   id="svg2833">
  <defs
     id="defs2835" />
  <metadata
     id="metadata2838">
    <rdf:RDF>
      <cc:Work
         rdf:about="">
        <dc:format>image/svg+xml</dc:format>
        <dc:type
           rdf:resource="http://purl.org/dc/dcmitype/StillImage" />
        <dc:title />
      </cc:Work>
    </rdf:RDF>
  </metadata>
  <g
     transform="translate(-67.582896,-53.165653)"
     id="layer1">
    <g
       transform="matrix(1.4861271,0,0,1.4847529,-821.62432,435.52041)"
       id="g561"
       style="display:inline">
      <path
         d="m 658.09517,-203.59883 c 0,3.32512 -11.57983,6.02066 -25.86427,6.02066 -14.28445,0 -25.86428,-2.69554 -25.86428,-6.02066 0.12293,-3.809 3.03674,-5.00211 2.82601,-7.74087 -0.1758,-2.28463 -4.23905,-4.48478 -3.31751,-6.02066 0.92153,-1.53588 22.2396,-12.65567 24.57413,-18.06198 l 3.80899,0 c 2.08879,5.52918 22.9768,15.8503 23.8369,17.32475 0.8601,1.47446 -2.76982,4.31687 -2.82601,6.75789 -0.0632,2.74614 2.82604,3.68614 2.82604,7.74087 z"
         inkscape:connector-curvature="0"
         id="path542"
         style="color:#000000;fill:#000000;fill-opacity:1;fill-rule:nonzero;stroke:#000000;stroke-width:1.34640253;stroke-linecap:round;stroke-linejoin:miter;stroke-miterlimit:4;stroke-opacity:1;marker:none;visibility:visible;display:inline;overflow:visible;enable-background:accumulate" />
      <path
         d="m 613.5039,-214.05418 c 3.78276,-1.64916 10.3791,-2.56894 18.72697,-2.56894 8.76814,0 15.20178,1.14205 18.93874,2.93056"
         inkscape:connector-curvature="0"
         id="path544"
         style="color:#000000;fill:none;stroke:#ffffcc;stroke-width:1.34640241;stroke-linecap:round;stroke-linejoin:miter;stroke-miterlimit:4;stroke-opacity:1;marker:none;visibility:visible;display:inline;overflow:visible;enable-background:accumulate" />
      <path
         d="m 608.88981,-205.65078 c 3.45914,-2.31484 12.6039,-3.96871 23.34109,-3.96871 10.26143,0 19.06843,1.51056 22.84814,3.66499"
         inkscape:connector-curvature="0"
         id="path547"
         style="color:#000000;fill:none;stroke:#ffffcc;stroke-width:1.34640253;stroke-linecap:round;stroke-linejoin:miter;stroke-miterlimit:4;stroke-opacity:1;marker:none;visibility:visible;display:inline;overflow:visible;enable-background:accumulate" />
      <path
         d="m 614.51531,-221.47874 c 4.24837,-1.31334 10.616,-2.14801 17.73352,-2.14801 7.29099,0 13.79507,0.87585 18.04035,2.24489"
         inkscape:connector-curvature="0"
         id="path549"
         style="color:#000000;fill:none;stroke:#ffffcc;stroke-width:1.34640253;stroke-linecap:round;stroke-linejoin:miter;stroke-miterlimit:4;stroke-opacity:1;marker:none;visibility:visible;display:inline;overflow:visible;enable-background:accumulate" />
      <path
         d="m 766.22133,-240.82864 a 5.77492,5.77492 0 1 1 -11.54984,0 5.77492,5.77492 0 1 1 11.54984,0 z"
         transform="translate(-128.46127,0)"
         id="path551"
         style="color:#000000;fill:#000000;fill-opacity:1;fill-rule:nonzero;stroke:#000000;stroke-width:1.34640253;stroke-linecap:round;stroke-linejoin:miter;stroke-miterlimit:4;stroke-opacity:1;stroke-dasharray:none;marker:none;visibility:visible;display:inline;overflow:visible;enable-background:accumulate" />
      <rect
         width="2.0273337"
         height="0.03071766"
         x="630.9715"
         y="-235.63736"
         id="rect558"
         style="color:#000000;fill:#ffffcc;fill-opacity:1;stroke:#ffffcc;stroke-width:1.34640253;stroke-linecap:round;stroke-linejoin:miter;stroke-miterlimit:4;stroke-opacity:1;stroke-dasharray:none;marker:none;visibility:visible;display:inline;overflow:visible;enable-background:accumulate" />
    </g>
  </g>
</svg>
