<?xml version="1.0" encoding="UTF-8" standalone="no"?>
<!-- Created with Inkscape (http://www.inkscape.org/) -->

<svg
   xmlns:dc="http://purl.org/dc/elements/1.1/"
   xmlns:cc="http://creativecommons.org/ns#"
   xmlns:rdf="http://www.w3.org/1999/02/22-rdf-syntax-ns#"
   xmlns:svg="http://www.w3.org/2000/svg"
   xmlns="http://www.w3.org/2000/svg"
   xmlns:xlink="http://www.w3.org/1999/xlink"
   xmlns:sodipodi="http://sodipodi.sourceforge.net/DTD/sodipodi-0.dtd"
   xmlns:inkscape="http://www.inkscape.org/namespaces/inkscape"
   version="1.0"
   width="100"
   height="100"
   id="svg2833"
   inkscape:version="0.47 r22583"
   sodipodi:docname="BlackPromoRook.svg">
  <sodipodi:namedview
     pagecolor="#ffffff"
     bordercolor="#666666"
     borderopacity="1"
     objecttolerance="10"
     gridtolerance="10"
     guidetolerance="10"
     inkscape:pageopacity="0"
     inkscape:pageshadow="2"
     inkscape:window-width="783"
     inkscape:window-height="583"
     id="namedview13"
     showgrid="false"
     inkscape:zoom="2.36"
     inkscape:cx="50"
     inkscape:cy="50"
     inkscape:window-x="0"
     inkscape:window-y="24"
     inkscape:window-maximized="0"
     inkscape:current-layer="svg2833" />
  <defs
     id="defs2835">
    <inkscape:perspective
       sodipodi:type="inkscape:persp3d"
       inkscape:vp_x="0 : 50 : 1"
       inkscape:vp_y="0 : 1000 : 0"
       inkscape:vp_z="100 : 50 : 1"
       inkscape:persp3d-origin="50 : 33.333333 : 1"
       id="perspective15" />
  </defs>
  <metadata
     id="metadata2838">
    <rdf:RDF>
      <cc:Work
         rdf:about="">
        <dc:format>image/svg+xml</dc:format>
        <dc:type
           rdf:resource="http://purl.org/dc/dcmitype/StillImage" />
        <dc:title></dc:title>
      </cc:Work>
    </rdf:RDF>
  </metadata>
  <g
     id="g3822">
    <path
       d="m 89.830509,52.966103 c 0,21.997782 -17.832726,39.830509 -39.830509,39.830509 -21.997783,0 -39.830509,-17.832727 -39.830509,-39.830509 0,-21.997783 17.832726,-39.83051 39.830509,-39.83051 21.997783,0 39.830509,17.832727 39.830509,39.83051 z"
       sodipodi:ry="39.830509"
       sodipodi:rx="39.830509"
       sodipodi:cy="52.966103"
       sodipodi:cx="50"
       id="path2996"
       style="fill:#000000;fill-opacity:1"
       sodipodi:type="arc" />
    <path
       transform="translate(-0.84745759,-1.6949153)"
       d="m 79.661016,54.661018 c 0,15.67927 -12.710559,28.38983 -28.389829,28.38983 -15.67927,0 -28.38983,-12.71056 -28.38983,-28.38983 0,-15.67927 12.71056,-28.389829 28.38983,-28.389829 15.67927,0 28.389829,12.710559 28.389829,28.389829 z"
       sodipodi:ry="28.38983"
       sodipodi:rx="28.38983"
       sodipodi:cy="54.661018"
       sodipodi:cx="51.271187"
       id="path3000"
       style="fill:#ffd5d5;fill-opacity:1"
       sodipodi:type="arc" />
    <path
       id="path3002"
       d="M 46.243953,80.908729 C 32.40633,78.759847 22.288136,66.95775 22.288136,52.966102 c 0,-12.884964 8.725542,-24.167037 21.18644,-27.393938 3.655681,-0.946683 10.349268,-0.933664 13.983051,0.0272 4.997001,1.32133 8.775865,3.49985 12.541576,7.230235 3.741081,3.705987 5.852229,7.071822 7.447577,11.873794 0.820665,2.470178 0.985423,3.85168 0.985423,8.262712 0,5.997318 -0.751987,9.013508 -3.48622,13.983051 -2.216652,4.028834 -7.539123,9.143072 -11.556152,11.104038 -5.405403,2.638716 -11.74413,3.69439 -17.145878,2.855538 l 0,0 z"
       style="fill:#ffffc0;fill-opacity:1" />
    <path
       id="path3776"
       d="M 45.754776,80.95836 C 21.490926,77.11264 13.355848,46.181383 32.566798,30.814925 37.632197,26.763213 43.219601,24.85892 50.042373,24.85892 c 8.129525,0 13.918542,2.402561 19.753623,8.198159 2.974012,2.953889 3.979004,4.302955 5.413889,7.267422 4.035297,8.336912 4.028187,17.138268 -0.02047,25.353465 -1.417741,2.876754 -2.506686,4.329674 -5.410173,7.218479 -3.950094,3.930119 -7.684875,6.121674 -12.533471,7.354593 -3.216135,0.817809 -8.674162,1.153776 -11.490987,0.707322 l -1.2e-5,0 z"
       style="fill:#ffffcc;fill-opacity:1" />
    <path
       transform="translate(0.84745763,-0.84745763)"
       d="m 75,53.81356 c 0,14.041138 -11.382591,25.423729 -25.423729,25.423729 -14.041138,0 -25.423729,-11.382591 -25.423729,-25.423729 0,-14.041137 11.382591,-25.423728 25.423729,-25.423728 C 63.617409,28.389832 75,39.772423 75,53.81356 z"
       sodipodi:ry="25.423729"
       sodipodi:rx="25.423729"
       sodipodi:cy="53.81356"
       sodipodi:cx="49.576271"
       id="path3782"
       style="fill:#000000;fill-opacity:1"
       sodipodi:type="arc" />
    <path
       transform="translate(-1.2711864,-1.2711864)"
       d="m 58.050848,54.237289 c 0,3.744304 -3.035358,6.779662 -6.779661,6.779662 -3.744304,0 -6.779661,-3.035358 -6.779661,-6.779662 0,-3.744303 3.035357,-6.779661 6.779661,-6.779661 3.744303,0 6.779661,3.035358 6.779661,6.779661 z"
       sodipodi:ry="6.7796612"
       sodipodi:rx="6.7796612"
       sodipodi:cy="54.237289"
       sodipodi:cx="51.271187"
       id="path3784"
       style="fill:#ffffcc;fill-opacity:1"
       sodipodi:type="arc" />
    <path
       sodipodi:nodetypes="cc"
       id="path3804"
       d="M 50.423729,52.542373 C 42.931172,42.654339 42.803294,33.899333 50,26.271186"
       style="fill:none;stroke:#ffffcc;stroke-width:2;stroke-linecap:butt;stroke-linejoin:miter;stroke-miterlimit:4;stroke-opacity:1;stroke-dasharray:none" />
    <use
       height="100"
       width="100"
       transform="matrix(-1,0,0,1,98.938737,26.694916)"
       id="use3808"
       xlink:href="#path3804"
       y="0"
       x="0" />
    <use
       height="100"
       width="100"
       transform="matrix(0,1,-1,0,102.64734,3.7085987)"
       id="use3810"
       xlink:href="#use3808"
       y="0"
       x="0" />
    <use
       height="100"
       width="100"
       transform="matrix(1,0,0,-1,27.118644,105.93221)"
       id="use3812"
       xlink:href="#use3810"
       y="0"
       x="0" />
    <use
       height="100"
       width="100"
       transform="matrix(0.70710678,-0.70710678,0.70710678,0.70710678,-21.96877,50.588293)"
       id="use3814"
       xlink:href="#use3812"
       y="0"
       x="0" />
    <use
       height="100"
       width="100"
       transform="matrix(1,0,0,-1,-20.338983,86.37377)"
       id="use3816"
       xlink:href="#use3814"
       y="0"
       x="0" />
    <use
       height="100"
       width="100"
       transform="matrix(-1,0,0,1,80.651479,18.220339)"
       id="use3818"
       xlink:href="#use3816"
       y="0"
       x="0" />
    <use
       height="100"
       width="100"
       transform="matrix(1,0,0,-1,19.067796,124.50936)"
       id="use3820"
       xlink:href="#use3818"
       y="0"
       x="0" />
  </g>
</svg>
