<?xml version="1.0" encoding="UTF-8" standalone="no"?>
<!-- Created with Inkscape (http://www.inkscape.org/) -->

<svg
   xmlns:dc="http://purl.org/dc/elements/1.1/"
   xmlns:cc="http://creativecommons.org/ns#"
   xmlns:rdf="http://www.w3.org/1999/02/22-rdf-syntax-ns#"
   xmlns:svg="http://www.w3.org/2000/svg"
   xmlns="http://www.w3.org/2000/svg"
   xmlns:inkscape="http://www.inkscape.org/namespaces/inkscape"
   version="1.0"
   width="100"
   height="100"
   id="svg2833">
  <defs
     id="defs2835" />
  <metadata
     id="metadata2838">
    <rdf:RDF>
      <cc:Work
         rdf:about="">
        <dc:format>image/svg+xml</dc:format>
        <dc:type
           rdf:resource="http://purl.org/dc/dcmitype/StillImage" />
        <dc:title />
      </cc:Work>
    </rdf:RDF>
  </metadata>
  <g
     transform="translate(-67.582896,-53.165653)"
     id="layer1">
    <g
       transform="matrix(1.2596048,0,0,1.2596048,289.23085,230.95079)"
       id="g785"
       style="display:inline">
      <path
         d="m -156.47216,-94.874455 -4.26455,-25.678565 13.9998,24.343464"
         inkscape:connector-curvature="0"
         id="path759"
         style="color:#000000;fill:#000000;fill-opacity:1;fill-rule:nonzero;stroke:#000000;stroke-width:1.58779967;stroke-linecap:butt;stroke-linejoin:miter;stroke-opacity:1;marker:none;visibility:visible;display:inline;overflow:visible;enable-background:accumulate" />
      <path
         d="m -147.53286,-95.88723 2.24615,-30.00621 9.5955,27.886232 z"
         inkscape:connector-curvature="0"
         id="path761"
         style="color:#000000;fill:#000000;fill-opacity:1;fill-rule:nonzero;stroke:#000000;stroke-width:1.58779967;stroke-linecap:butt;stroke-linejoin:miter;stroke-opacity:1;marker:none;visibility:visible;display:inline;overflow:visible;enable-background:accumulate" />
      <path
         d="m -115.90261,-94.82073 3.71313,-24.84222 -13.39901,23.408891"
         inkscape:connector-curvature="0"
         id="path763"
         style="color:#000000;fill:#000000;fill-opacity:1;fill-rule:nonzero;stroke:#000000;stroke-width:1.58779967;stroke-linecap:butt;stroke-linejoin:miter;stroke-opacity:1;marker:none;visibility:visible;display:inline;overflow:visible;enable-background:accumulate" />
      <path
         d="m -124.90445,-95.734359 -2.37837,-29.892061 -8.86156,28.106514 z"
         inkscape:connector-curvature="0"
         id="path765"
         style="color:#000000;fill:#000000;fill-opacity:1;fill-rule:nonzero;stroke:#000000;stroke-width:1.58779967;stroke-linecap:butt;stroke-linejoin:miter;stroke-opacity:1;marker:none;visibility:visible;display:inline;overflow:visible;enable-background:accumulate" />
      <path
         d="m -119.72211,-75.003615 c 0,2.494743 -7.32288,4.517114 -16.3561,4.517114 -9.03322,0 -16.3561,-2.022371 -16.3561,-4.517114 l 2.32529,-6.475256 -0.0643,-6.631027 -5.81139,-6.453037 4.35812,-3.075207 4.1094,1.001045 5.74678,-2.877825 5.77127,1.347215 5.20349,-1.347215 5.2463,2.877825 4.86129,-1.001045 4.29553,3.075207 -5.81005,6.453037 0.0603,6.631027 z"
         inkscape:connector-curvature="0"
         id="path767"
         style="color:#000000;fill:#000000;fill-opacity:1;fill-rule:nonzero;stroke:#000000;stroke-width:1.58779979;stroke-linecap:butt;stroke-linejoin:miter;stroke-opacity:1;marker:none;visibility:visible;display:inline;overflow:visible;enable-background:accumulate" />
      <path
         d="m -148.95013,-88.785387 c 2.99191,-1.065977 7.67325,-1.752122 12.93486,-1.752122 4.87905,0 9.25913,0.589996 12.25587,1.525744"
         inkscape:connector-curvature="0"
         id="path769"
         style="color:#000000;fill:none;stroke:#ffffcc;stroke-width:1.58779979;stroke-linecap:butt;stroke-linejoin:miter;stroke-opacity:1;marker:none;visibility:visible;display:inline;overflow:visible;enable-background:accumulate" />
      <path
         d="m -35.496787,129.14731 a 3.7762539,3.7762539 0 1 1 -7.552508,0 3.7762539,3.7762539 0 1 1 7.552508,0 z"
         transform="matrix(0.94504751,0,0,0.94166667,-124.72108,-244.63895)"
         id="path771"
         style="color:#000000;fill:#000000;fill-opacity:1;fill-rule:nonzero;stroke:#000000;stroke-width:1.68314004;stroke-linecap:butt;stroke-linejoin:miter;stroke-opacity:1;marker:none;visibility:visible;display:inline;overflow:visible;enable-background:accumulate" />
      <path
         d="m -35.496787,129.14731 a 3.7762539,3.7762539 0 1 1 -7.552508,0 3.7762539,3.7762539 0 1 1 7.552508,0 z"
         transform="matrix(0.94504751,0,0,0.94166667,-73.5917,-244.56074)"
         id="path773"
         style="color:#000000;fill:#000000;fill-opacity:1;fill-rule:nonzero;stroke:#000000;stroke-width:1.68314004;stroke-linecap:butt;stroke-linejoin:miter;stroke-opacity:1;marker:none;visibility:visible;display:inline;overflow:visible;enable-background:accumulate" />
      <path
         d="m -35.496787,129.14731 a 3.7762539,3.7762539 0 1 1 -7.552508,0 3.7762539,3.7762539 0 1 1 7.552508,0 z"
         transform="matrix(0.94504751,0,0,0.94166667,-89.629862,-250.59195)"
         id="path775"
         style="color:#000000;fill:#000000;fill-opacity:1;fill-rule:nonzero;stroke:#000000;stroke-width:1.68314004;stroke-linecap:butt;stroke-linejoin:miter;stroke-opacity:1;marker:none;visibility:visible;display:inline;overflow:visible;enable-background:accumulate" />
      <path
         d="m -35.496787,129.14731 a 3.7762539,3.7762539 0 1 1 -7.552508,0 3.7762539,3.7762539 0 1 1 7.552508,0 z"
         transform="matrix(0.94504751,0,0,0.94166667,-108.61241,-250.61038)"
         id="path777"
         style="color:#000000;fill:#000000;fill-opacity:1;fill-rule:nonzero;stroke:#000000;stroke-width:1.68314004;stroke-linecap:butt;stroke-linejoin:miter;stroke-opacity:1;marker:none;visibility:visible;display:inline;overflow:visible;enable-background:accumulate" />
      <path
         d="m -147.82599,-82.093587 c 2.97713,-0.857995 7.16803,-1.392212 11.81072,-1.392212 4.27282,0 8.16296,0.452487 11.07644,1.19342"
         inkscape:connector-curvature="0"
         id="path781"
         style="color:#000000;fill:none;stroke:#ffffcc;stroke-width:1.58779979;stroke-linecap:butt;stroke-linejoin:miter;stroke-opacity:1;marker:none;visibility:visible;display:inline;overflow:visible;enable-background:accumulate" />
      <path
         d="m -149.85434,-77.004684 a 1.007001,0.53496927 0 1 1 -2.014,0 1.007001,0.53496927 0 1 1 2.014,0 z"
         transform="matrix(1,0,0,0.95588235,-0.03933598,-3.491672)"
         id="path783"
         style="color:#000000;fill:#ffffcc;stroke:none;stroke-width:2;marker:none;visibility:visible;display:inline;overflow:visible;enable-background:accumulate" />
    </g>
  </g>
</svg>
