<?xml version="1.0" encoding="UTF-8" standalone="no"?>
<!-- Created with Inkscape (http://www.inkscape.org/) -->
<svg
   xmlns:dc="http://purl.org/dc/elements/1.1/"
   xmlns:cc="http://creativecommons.org/ns#"
   xmlns:rdf="http://www.w3.org/1999/02/22-rdf-syntax-ns#"
   xmlns:svg="http://www.w3.org/2000/svg"
   xmlns="http://www.w3.org/2000/svg"
   xmlns:sodipodi="http://sodipodi.sourceforge.net/DTD/sodipodi-0.dtd"
   xmlns:inkscape="http://www.inkscape.org/namespaces/inkscape"
   id="svg2"
   sodipodi:version="0.32"
   inkscape:version="0.46+devel"
   width="32"
   height="32"
   version="1.0"
   sodipodi:docname="icon_black.svg"
   inkscape:output_extension="org.inkscape.output.svg.inkscape">
  <metadata
     id="metadata8">
    <rdf:RDF>
      <cc:Work
         rdf:about="">
        <dc:format>image/svg+xml</dc:format>
        <dc:type
           rdf:resource="http://purl.org/dc/dcmitype/StillImage" />
        <dc:title></dc:title>
      </cc:Work>
    </rdf:RDF>
  </metadata>
  <defs
     id="defs6">
    <inkscape:perspective
       sodipodi:type="inkscape:persp3d"
       inkscape:vp_x="0 : 0.5 : 1"
       inkscape:vp_y="0 : 1000 : 0"
       inkscape:vp_z="1 : 0.5 : 1"
       inkscape:persp3d-origin="0.5 : 0.33333333 : 1"
       id="perspective10" />
  </defs>
  <sodipodi:namedview
     pagecolor="#ffffff"
     bordercolor="#666666"
     borderopacity="1"
     objecttolerance="10"
     gridtolerance="10"
     guidetolerance="10"
     inkscape:pageopacity="0"
     inkscape:pageshadow="2"
     inkscape:window-width="640"
     inkscape:window-height="734"
     id="namedview4"
     showgrid="false"
     inkscape:zoom="7.375"
     inkscape:cx="16"
     inkscape:cy="16"
     inkscape:window-x="634"
     inkscape:window-y="0"
     inkscape:current-layer="svg2" />
  <path
     style="fill:#000000"
     d="m 0.27118704,16 0,-16.0000004020788 15.99999996,0 16,0 L 32.271187,16 l 0,16 -16,0 -15.99999996,0 0,-16 z M 28.919242,23.906869 C 28.053429,15.623218 25.152215,9.3861088 21.162363,7.2309164 19.399942,6.2789122 17.142774,4.7268367 16.146434,3.7818598 14.444939,2.1680791 14.277213,2.1668149 13.385036,3.7610462 12.501414,5.3399914 12.289955,5.3269596 10.353176,3.5741984 8.3053043,1.7209002 8.271187,1.7251938 8.271187,3.8362109 c 0,1.1804026 -1.4037353,5.2855788 -3.1194118,9.1226141 C 3.4360988,16.79586 2.2969756,20.624821 2.6203905,21.467626 3.5547678,23.902575 7.2162477,23.255422 10.923968,20 c 6.110849,-5.365397 7.267241,-3.487344 1.847219,3 -5.4858439,6.566128 -5.0741326,7 6.642456,7 L 29.5561,30 28.919242,23.906869 z M 26.814452,27.75 C 26.597771,27.0625 26.119035,24.260561 25.750593,21.52347 24.88161,15.067928 21.963564,9.4397249 18.515686,7.5690921 17.006211,6.7501326 16.273001,6.0620579 16.886328,6.0400372 18.91702,5.967128 23.297398,10.131053 25.281652,14.020514 27.222525,17.824939 29.159078,29 27.877484,29 27.509497,29 27.031133,28.4375 26.814452,27.75 z M 8.271187,11.098444 c 0,-1.038441 1.902213,-2.5417285 2.465672,-1.9485799 C 10.919794,9.3424386 10.439855,10.080242 9.6703278,10.789427 8.9008003,11.498611 8.271187,11.637669 8.271187,11.098444 z M 11.00452,6.8759119 c 0.678334,-0.6834184 1.485241,-0.9906713 1.793128,-0.6827842 0.307888,0.3078871 -0.247112,0.8670476 -1.233333,1.242579 -1.425198,0.5426846 -1.540062,0.427821 -0.559795,-0.5597948 z"
     id="path2822" />
</svg>
