<?xml version="1.0" encoding="UTF-8" standalone="no"?>
<!-- Created with Inkscape (http://www.inkscape.org/) -->

<svg
   xmlns:dc="http://purl.org/dc/elements/1.1/"
   xmlns:cc="http://creativecommons.org/ns#"
   xmlns:rdf="http://www.w3.org/1999/02/22-rdf-syntax-ns#"
   xmlns:svg="http://www.w3.org/2000/svg"
   xmlns="http://www.w3.org/2000/svg"
   xmlns:sodipodi="http://sodipodi.sourceforge.net/DTD/sodipodi-0.dtd"
   xmlns:inkscape="http://www.inkscape.org/namespaces/inkscape"
   inkscape:output_extension="org.inkscape.output.svg.inkscape"
   sodipodi:docname="icon_white.svg"
   version="1.0"
   height="100"
   width="100"
   inkscape:version="0.46+devel r22620"
   sodipodi:version="0.32"
   id="svg2">
  <metadata
     id="metadata8">
    <rdf:RDF>
      <cc:Work
         rdf:about="">
        <dc:format>image/svg+xml</dc:format>
        <dc:type
           rdf:resource="http://purl.org/dc/dcmitype/StillImage" />
        <dc:title />
      </cc:Work>
    </rdf:RDF>
  </metadata>
  <defs
     id="defs6">
    <inkscape:perspective
       sodipodi:type="inkscape:persp3d"
       inkscape:vp_x="0 : 0.5 : 1"
       inkscape:vp_y="0 : 1000 : 0"
       inkscape:vp_z="1 : 0.5 : 1"
       inkscape:persp3d-origin="0.5 : 0.33333333 : 1"
       id="perspective10" />
    <inkscape:perspective
       sodipodi:type="inkscape:persp3d"
       inkscape:vp_x="0 : 0.5 : 1"
       inkscape:vp_y="0 : 1000 : 0"
       inkscape:vp_z="1 : 0.5 : 1"
       inkscape:persp3d-origin="0.5 : 0.33333333 : 1"
       id="perspective3513" />
    <inkscape:perspective
       sodipodi:type="inkscape:persp3d"
       inkscape:vp_x="0 : 0.5 : 1"
       inkscape:vp_y="0 : 1000 : 0"
       inkscape:vp_z="1 : 0.5 : 1"
       inkscape:persp3d-origin="0.5 : 0.33333333 : 1"
       id="perspective3045" />
    <inkscape:perspective
       sodipodi:type="inkscape:persp3d"
       inkscape:vp_x="0 : 0.5 : 1"
       inkscape:vp_y="0 : 1000 : 0"
       inkscape:vp_z="1 : 0.5 : 1"
       inkscape:persp3d-origin="0.5 : 0.33333333 : 1"
       id="perspective3002" />
    <inkscape:perspective
       sodipodi:type="inkscape:persp3d"
       inkscape:vp_x="0 : 0.5 : 1"
       inkscape:vp_y="0 : 1000 : 0"
       inkscape:vp_z="1 : 0.5 : 1"
       inkscape:persp3d-origin="0.5 : 0.33333333 : 1"
       id="perspective2959" />
    <inkscape:perspective
       sodipodi:type="inkscape:persp3d"
       inkscape:vp_x="0 : 0.5 : 1"
       inkscape:vp_y="0 : 1000 : 0"
       inkscape:vp_z="1 : 0.5 : 1"
       inkscape:persp3d-origin="0.5 : 0.33333333 : 1"
       id="perspective2916" />
    <inkscape:perspective
       sodipodi:type="inkscape:persp3d"
       inkscape:vp_x="0 : 0.5 : 1"
       inkscape:vp_y="0 : 1000 : 0"
       inkscape:vp_z="1 : 0.5 : 1"
       inkscape:persp3d-origin="0.5 : 0.33333333 : 1"
       id="perspective2873" />
    <inkscape:perspective
       sodipodi:type="inkscape:persp3d"
       inkscape:vp_x="0 : 0.5 : 1"
       inkscape:vp_y="0 : 1000 : 0"
       inkscape:vp_z="1 : 0.5 : 1"
       inkscape:persp3d-origin="0.5 : 0.33333333 : 1"
       id="perspective2851" />
    <inkscape:perspective
       id="perspective2841"
       inkscape:persp3d-origin="372.04724 : 350.78739 : 1"
       inkscape:vp_z="744.09448 : 526.18109 : 1"
       inkscape:vp_y="0 : 1000 : 0"
       inkscape:vp_x="0 : 526.18109 : 1"
       sodipodi:type="inkscape:persp3d" />
  </defs>
  <sodipodi:namedview
     pagecolor="#ffffff"
     bordercolor="#666666"
     borderopacity="1"
     objecttolerance="10"
     gridtolerance="10"
     guidetolerance="10"
     inkscape:pageopacity="0"
     inkscape:pageshadow="2"
     inkscape:window-width="1052"
     inkscape:window-height="734"
     id="namedview4"
     showgrid="false"
     inkscape:zoom="1"
     inkscape:cx="-250.28814"
     inkscape:cy="15.542936"
     inkscape:window-x="0"
     inkscape:window-y="8"
     inkscape:current-layer="svg2"
     inkscape:window-maximized="0" />
  <rect
     style="color:#000000;fill:#ffffff;fill-opacity:1;fill-rule:nonzero;stroke:none;stroke-width:0.1;marker:none;visibility:visible;display:inline;overflow:visible;enable-background:accumulate"
     id="rect2827"
     width="100"
     height="100"
     x="0"
     y="0" />
  <path
     style="stroke-width:1px"
     d="m 37.649136,14.554159 c 2.521821,-1.891358 5.043643,-8.8263698 8.195917,-9.4568225 3.782737,-0.6304527 5.043643,7.5654645 8.195917,8.8263695 5.043643,1.891369 10.087285,1.891369 15.130949,5.043643 15.761371,10.087286 20.805014,29.631394 23.326835,46.65368 1.260916,6.935012 1.891369,13.870013 1.891369,20.805024 0,1.891369 0.630453,5.674096 -0.630453,6.935001 -1.891368,2.521832 -11.348201,1.260916 -14.500475,1.260916 l -37.827322,0 c -4.41319,0 -11.978654,1.891369 -11.348191,-5.043643 3.152274,-15.761381 21.435466,-22.696382 22.06593,-39.088216 -5.674096,4.41318 -12.609107,6.304549 -17.65275,10.717739 -3.782727,3.152274 -6.935001,9.456822 -10.717739,11.978644 -2.521821,1.260905 -5.043642,0 -6.304548,-2.521822 C 11.170027,72.556041 4.8654681,68.142851 5.4959314,61.20785 6.1263841,53.011922 11.80048,46.707374 15.583206,39.772362 18.105028,35.359183 17.474575,30.945993 19.365944,26.532813 20.626849,23.380529 23.779123,21.48917 25.040039,18.336896 26.931398,15.815075 22.518218,8.2496107 25.670492,5.7277892 28.822766,3.2059678 36.38823,12.032337 37.649136,14.554159 z m 13.23956,3.152274 c 1.891368,3.782737 5.674095,3.152285 8.826369,5.043643 4.41319,1.260916 7.565486,5.043643 10.71776,8.195917 9.456833,11.978654 13.870012,30.892309 13.870012,46.023227 0,5.674096 -1.260905,14.500476 6.304549,14.500476 0,-20.805024 -1.891359,-44.762322 -15.761371,-61.784609 C 69.802372,23.380529 59.715065,15.815075 50.888696,17.706433 z m -32.783668,50.436418 1.891369,0.630452 1.891368,-6.304548 -0.630463,0 z m -4.41318,-6.304549 c 3.152274,-0.630452 4.41318,-5.674095 0.630453,-5.674095 -3.152274,0 -3.782737,6.304548 -0.630453,5.674095 z m 38.457764,-13.870012 1.260905,0 1.891369,-6.935012 c -2.521822,1.260906 -3.152274,4.413191 -3.152274,6.935012 z m -26.47912,-11.348202 1.260906,-3.152274 c 3.782737,0.630453 5.674095,-1.260905 5.043642,-5.043643 l 3.152274,-0.630452 0,-0.630453 c -5.674095,-1.260916 -10.717738,3.782727 -9.456822,9.456822 z m 5.043643,-13.870012 c 1.260905,0 3.152274,0 4.413179,-0.630453 11.978655,-3.782727 -3.152274,-6.304548 -4.413179,0.630453 z"
     id="BlackKnight" />
</svg>
