<?xml version="1.0" encoding="UTF-8" standalone="no"?>
<!-- Created with Inkscape (http://www.inkscape.org/) -->
<svg
   xmlns:dc="http://purl.org/dc/elements/1.1/"
   xmlns:cc="http://creativecommons.org/ns#"
   xmlns:rdf="http://www.w3.org/1999/02/22-rdf-syntax-ns#"
   xmlns:svg="http://www.w3.org/2000/svg"
   xmlns="http://www.w3.org/2000/svg"
   xmlns:sodipodi="http://sodipodi.sourceforge.net/DTD/sodipodi-0.dtd"
   xmlns:inkscape="http://www.inkscape.org/namespaces/inkscape"
   inkscape:output_extension="org.inkscape.output.svg.inkscape"
   sodipodi:docname="icon_white.svg"
   version="1.0"
   height="32"
   width="32"
   inkscape:version="0.46+devel"
   sodipodi:version="0.32"
   id="svg2">
  <metadata
     id="metadata8">
    <rdf:RDF>
      <cc:Work
         rdf:about="">
        <dc:format>image/svg+xml</dc:format>
        <dc:type
           rdf:resource="http://purl.org/dc/dcmitype/StillImage" />
        <dc:title></dc:title>
      </cc:Work>
    </rdf:RDF>
  </metadata>
  <defs
     id="defs6">
    <inkscape:perspective
       sodipodi:type="inkscape:persp3d"
       inkscape:vp_x="0 : 0.5 : 1"
       inkscape:vp_y="0 : 1000 : 0"
       inkscape:vp_z="1 : 0.5 : 1"
       inkscape:persp3d-origin="0.5 : 0.33333333 : 1"
       id="perspective10" />
  </defs>
  <sodipodi:namedview
     pagecolor="#ffffff"
     bordercolor="#666666"
     borderopacity="1"
     objecttolerance="10"
     gridtolerance="10"
     guidetolerance="10"
     inkscape:pageopacity="0"
     inkscape:pageshadow="2"
     inkscape:window-width="1052"
     inkscape:window-height="734"
     id="namedview4"
     showgrid="false"
     inkscape:zoom="7.375"
     inkscape:cx="-1.2881356"
     inkscape:cy="15.542936"
     inkscape:window-x="3"
     inkscape:window-y="25"
     inkscape:current-layer="svg2" />
  <path
     style="fill:#000000"
     d="m 7.0614407,2.0815678 c -0.2645133,0.033288 -0.28125,0.569491 -0.28125,1.625 0,1.180403 -1.4093238,5.287965 -3.125,9.1250002 -1.715677,3.837035 -2.85466502,7.657195 -2.53125,8.5 0.934377,2.434949 4.6047795,1.786672 8.3125,-1.46875 6.1108493,-5.365397 7.2637723,-3.487344 1.8437503,3 -5.4858444,6.566128 -5.0603393,7 6.65625,7 l 10.125,0 -0.625,-6.09375 c -0.865813,-8.283651 -3.760148,-14.5323082 -7.75,-16.6875002 -1.762421,-0.952004 -4.03491,-2.492523 -5.03125,-3.4375 -1.701495,-1.613781 -1.857823,-1.625482 -2.75,-0.03125 -0.883622,1.578945 -1.094471,1.565261 -3.0312503,-0.1875 -1.023936,-0.926649 -1.5479867,-1.377038 -1.8125,-1.34375 z m 8.3437503,3.8125 c 2.030692,-0.07291 6.390746,4.1105392 8.375,8.0000002 1.940873,3.804425 3.875344,14.96875 2.59375,14.96875 -0.367987,0 -0.845819,-0.5625 -1.0625,-1.25 -0.216681,-0.6875 -0.694058,-3.481659 -1.0625,-6.21875 -0.868983,-6.455542 -3.770872,-12.0981172 -7.21875,-13.9687502 -1.509476,-0.818959 -2.238327,-1.50923 -1.625,-1.53125 z m -4.40625,0.03125 c 0.129543,0.00381 0.235528,0.048028 0.3125,0.125 0.307888,0.307887 -0.263779,0.874469 -1.25,1.25 -1.4251983,0.542685 -1.5427675,0.425116 -0.5625003,-0.5625 0.5087503,-0.512563 1.1113703,-0.82394 1.5000003,-0.8125 z m -2.0312503,2.96875 c 0.1059384,0.013632 0.2108176,0.050857 0.28125,0.125 0.182935,0.192575 -0.2929726,0.915815 -1.0625,1.6250002 -0.7695275,0.709184 -1.40625,0.851725 -1.40625,0.3125 0,-0.908636 1.445931,-2.1579272 2.1875,-2.0625002 z"
     id="path2823" />
</svg>
