<?xml version="1.0" encoding="UTF-8" standalone="no"?>
<!-- Created with Inkscape (http://www.inkscape.org/) -->

<svg
   xmlns:dc="http://purl.org/dc/elements/1.1/"
   xmlns:cc="http://creativecommons.org/ns#"
   xmlns:rdf="http://www.w3.org/1999/02/22-rdf-syntax-ns#"
   xmlns:svg="http://www.w3.org/2000/svg"
   xmlns="http://www.w3.org/2000/svg"
   xmlns:sodipodi="http://sodipodi.sourceforge.net/DTD/sodipodi-0.dtd"
   xmlns:inkscape="http://www.inkscape.org/namespaces/inkscape"
   id="svg2"
   sodipodi:version="0.32"
   inkscape:version="0.46+devel r22620"
   width="100"
   height="100"
   version="1.0"
   sodipodi:docname="icon_black.svg"
   inkscape:output_extension="org.inkscape.output.svg.inkscape">
  <metadata
     id="metadata8">
    <rdf:RDF>
      <cc:Work
         rdf:about="">
        <dc:format>image/svg+xml</dc:format>
        <dc:type
           rdf:resource="http://purl.org/dc/dcmitype/StillImage" />
        <dc:title />
      </cc:Work>
    </rdf:RDF>
  </metadata>
  <defs
     id="defs6">
    <inkscape:perspective
       sodipodi:type="inkscape:persp3d"
       inkscape:vp_x="0 : 0.5 : 1"
       inkscape:vp_y="0 : 1000 : 0"
       inkscape:vp_z="1 : 0.5 : 1"
       inkscape:persp3d-origin="0.5 : 0.33333333 : 1"
       id="perspective10" />
    <inkscape:perspective
       id="perspective2932"
       inkscape:persp3d-origin="0.5 : 0.33333333 : 1"
       inkscape:vp_z="1 : 0.5 : 1"
       inkscape:vp_y="0 : 1000 : 0"
       inkscape:vp_x="0 : 0.5 : 1"
       sodipodi:type="inkscape:persp3d" />
    <inkscape:perspective
       id="perspective3609"
       inkscape:persp3d-origin="0.5 : 0.33333333 : 1"
       inkscape:vp_z="1 : 0.5 : 1"
       inkscape:vp_y="0 : 1000 : 0"
       inkscape:vp_x="0 : 0.5 : 1"
       sodipodi:type="inkscape:persp3d" />
  </defs>
  <sodipodi:namedview
     pagecolor="#ffffff"
     bordercolor="#666666"
     borderopacity="1"
     objecttolerance="10"
     gridtolerance="10"
     guidetolerance="10"
     inkscape:pageopacity="0"
     inkscape:pageshadow="2"
     inkscape:window-width="796"
     inkscape:window-height="919"
     id="namedview4"
     showgrid="false"
     inkscape:zoom="1.84375"
     inkscape:cx="21.536625"
     inkscape:cy="77.469337"
     inkscape:window-x="478"
     inkscape:window-y="0"
     inkscape:current-layer="svg2"
     inkscape:window-maximized="0" />
  <rect
     style="color:#000000;fill:#ffffff;fill-opacity:1;fill-rule:nonzero;stroke:none;stroke-width:0.1;marker:none;visibility:visible;display:inline;overflow:visible;enable-background:accumulate"
     id="rect2827"
     width="100"
     height="100"
     x="0"
     y="0" />
  <path
     style="color:#000000;fill:#000000;fill-opacity:1;fill-rule:nonzero;stroke:#000000;stroke-width:0.10000000000000001;stroke-linecap:butt;stroke-linejoin:miter;stroke-miterlimit:4;stroke-opacity:1;stroke-dasharray:none;stroke-dashoffset:0;marker:none;visibility:visible;display:inline;overflow:visible;enable-background:accumulate"
     d="M 0 0 L 0 100 L 100 100 L 100 0 L 0 0 z M 45.84375 5.09375 C 49.626487 4.4632973 50.878976 12.676595 54.03125 13.9375 C 59.074893 15.828869 64.143836 15.816476 69.1875 18.96875 C 84.948871 29.056036 89.97818 48.602714 92.5 65.625 C 93.76091 72.560012 94.375 79.502489 94.375 86.4375 C 94.375 88.328869 95.01091 92.114095 93.75 93.375 C 91.85863 95.896832 82.402274 94.625 79.25 94.625 L 41.4375 94.625 C 37.02431 94.625 29.463287 96.528762 30.09375 89.59375 C 33.246024 73.832369 51.525786 66.891834 52.15625 50.5 C 46.482154 54.91318 39.543643 56.80556 34.5 61.21875 C 30.717273 64.371024 27.563988 70.665678 23.78125 73.1875 C 21.259429 74.448405 18.729656 73.178072 17.46875 70.65625 C 11.164201 72.547619 4.869536 68.153751 5.5 61.21875 C 6.130452 53.022822 11.811023 46.716262 15.59375 39.78125 C 18.115572 35.368071 17.483631 30.94443 19.375 26.53125 C 20.635905 23.378966 23.770334 21.496024 25.03125 18.34375 C 26.922609 15.821929 22.503976 8.2405715 25.65625 5.71875 C 28.808524 3.1969286 36.395344 12.040678 37.65625 14.5625 C 40.178071 12.671142 42.691476 5.7242027 45.84375 5.09375 z M 53.40625 17.40625 C 52.561808 17.426163 51.702472 17.541435 50.875 17.71875 C 52.766368 21.501487 56.566476 20.858642 59.71875 22.75 C 64.13194 24.010916 67.285226 27.785226 70.4375 30.9375 C 79.894333 42.916154 84.3125 61.837832 84.3125 76.96875 C 84.3125 82.642846 83.028295 91.46875 90.59375 91.46875 C 90.59375 70.663726 88.713762 46.709787 74.84375 29.6875 C 70.272949 23.973994 61.569191 17.213759 53.40625 17.40625 z M 36.90625 18.40625 C 34.476627 18.506451 31.270396 19.715937 30.71875 22.75 C 31.979655 22.75 33.864095 22.755453 35.125 22.125 C 41.862993 19.997216 40.03005 18.27742 36.90625 18.40625 z M 33.03125 26.96875 C 28.281904 27.166995 24.552949 31.660167 25.65625 36.625 L 26.9375 33.46875 C 30.720237 34.099203 32.599203 32.220238 31.96875 28.4375 L 35.125 27.78125 L 35.125 27.15625 C 34.415738 26.998635 33.709728 26.940429 33.03125 26.96875 z M 55.3125 41.03125 C 52.790678 42.292156 52.15625 45.446929 52.15625 47.96875 L 53.40625 47.96875 L 55.3125 41.03125 z M 14.3125 56.15625 C 11.160226 56.15625 10.535216 62.474203 13.6875 61.84375 C 16.839775 61.213298 18.095228 56.15625 14.3125 56.15625 z M 21.25 62.46875 L 18.09375 68.15625 L 20 68.78125 L 21.875 62.46875 L 21.25 62.46875 z "
     id="rect2946" />
</svg>
