<?xml version="1.0" encoding="UTF-8" standalone="no"?>
<svg
   xmlns:dc="http://purl.org/dc/elements/1.1/"
   xmlns:cc="http://creativecommons.org/ns#"
   xmlns:rdf="http://www.w3.org/1999/02/22-rdf-syntax-ns#"
   xmlns:svg="http://www.w3.org/2000/svg"
   xmlns="http://www.w3.org/2000/svg"
   xmlns:sodipodi="http://sodipodi.sourceforge.net/DTD/sodipodi-0.dtd"
   xmlns:inkscape="http://www.inkscape.org/namespaces/inkscape"
   id="svg2816"
   sodipodi:version="0.32"
   inkscape:version="0.46+devel r22620"
   width="100%"
   height="100%"
   sodipodi:docname="pieces.svg"
   inkscape:output_extension="org.inkscape.output.svg.inkscape"
   version="1.1"><defs
   id="defs3144">
  <inkscape:perspective
     sodipodi:type="inkscape:persp3d"
     inkscape:vp_x="0 : 0.5 : 1"
     inkscape:vp_y="0 : 1000 : 0"
     inkscape:vp_z="1 : 0.5 : 1"
     inkscape:persp3d-origin="0.5 : 0.33333333 : 1"
     id="perspective3146" />
  <inkscape:perspective
     id="perspective2903"
     inkscape:persp3d-origin="0.5 : 0.33333333 : 1"
     inkscape:vp_z="1 : 0.5 : 1"
     inkscape:vp_y="0 : 1000 : 0"
     inkscape:vp_x="0 : 0.5 : 1"
     sodipodi:type="inkscape:persp3d" />
</defs>
<sodipodi:namedview
   pagecolor="#ffffff"
   bordercolor="#666666"
   borderopacity="1"
   objecttolerance="10"
   gridtolerance="10"
   guidetolerance="10"
   inkscape:pageopacity="0"
   inkscape:pageshadow="2"
   inkscape:window-width="1280"
   inkscape:window-height="971"
   id="namedview3129"
   showgrid="false"
   inkscape:zoom="0.99310279"
   inkscape:cx="451.56484"
   inkscape:cy="890.63545"
   inkscape:window-x="0"
   inkscape:window-y="0"
   inkscape:current-layer="svg2816"
   inkscape:window-maximized="1" />
<metadata
   id="metadata2818">
Created by FontForge 20080430 at Sun Apr  5 00:31:19 2009
 By Arun Persaud
Generated from MetaFont bitmap by mftrace 1.2.15, http://www.xs4all.nl/~hanwen/mftrace/ 
<rdf:RDF>
  <cc:Work
     rdf:about="">
    <dc:format>image/svg+xml</dc:format>
    <dc:type
       rdf:resource="http://purl.org/dc/dcmitype/StillImage" />
    <dc:title />
  </cc:Work>
</rdf:RDF>
</metadata>
<g
   id="g3219"
   transform="matrix(1.0705786,0,0,1.0705786,2.7159966,-19.61326)">
  <path
     id="path3118"
     d="m 67.375,140.15625 c -6.834026,1.44973 -6.760848,10.50785 -7.125,16 -9.218555,-8.49854 -27.557841,-8.37094 -32.96875,4.25 -4.25109,12.9951 8.471996,24.61023 20.08477,27.48188 6.588555,2.10691 -4.606665,0.86308 -4.52227,5.01812 -0.209993,2.89329 1.926079,5.14966 -0.125,7.5625 -0.509739,4.16994 4.655328,5.53035 7.46875,3.09375 13.41952,-4.103 27.807876,-2.3531 41.0625,1.28125 3.719454,-0.79202 3.988702,-5.91927 1.28125,-8.15625 4.095799,-2.27579 0.189318,-6.99645 -2.40625,-8.53125 11.72084,-3.25889 23.55595,-15.29131 19.5625,-28.09375 -5.00367,-12.11347 -22.742538,-12.92942 -31.571521,-4.60751 -1.178302,-3.25396 -0.504463,-11.46235 -5.459729,-13.92374 -1.618522,-0.96232 -3.382525,-1.56394 -5.28125,-1.375 z M 94.3125,157 c 8.95092,-0.59747 12.53525,12.8932 4.875,17.1875 -3.212074,4.38338 -9.619123,6.98783 -14.46875,3.90625 -3.655994,0.30984 -10.426619,-0.45463 -9.03125,-5.71875 2.118358,-8.32459 9.770755,-15.40426 18.625,-15.375 z m -51.375,0.1875 c 10.366442,-0.27174 19.360721,9.50489 18.65625,19.78125 -7.153734,-0.22994 -15.899953,5.7248 -21.78125,-0.9375 -5.15326,-3.66356 -9.14215,-12.57257 -2.75,-17 1.74789,-1.16605 3.794348,-1.77138 5.875,-1.84375 z"
     style="color:#000000;fill:#ffffcc;fill-opacity:1;fill-rule:nonzero;stroke:#000000;stroke-width:0.09340744;stroke-linecap:butt;stroke-linejoin:miter;stroke-miterlimit:4;stroke-opacity:1;stroke-dasharray:none;stroke-dashoffset:0;marker:none;visibility:visible;display:inline;overflow:visible;enable-background:accumulate" />
  <path
     id="BlackKing"
     d="m 59.335056,154.14791 c -4.16845,-2.38197 -8.336888,-4.76395 -13.100828,-5.35944 -10.71886,-1.19099 -23.2242,6.55041 -21.43773,19.05575 1.78648,8.93239 10.71887,11.31436 13.69633,18.46027 2.38197,4.76394 -1.19099,14.29182 2.38197,17.86477 1.78647,2.38197 7.1459,2.97746 10.12337,4.16845 10.71886,2.38197 22.6287,2.38197 33.34757,0 3.57295,-0.5955 9.52787,-1.19099 11.90984,-4.16845 4.168452,-3.57295 -0.59549,-13.69632 2.38197,-18.46026 4.168452,-6.55042 12.505342,-9.52789 13.696322,-18.46027 1.19099,-11.90985 -10.71886,-19.65125 -21.437722,-18.46026 -4.76394,0.59549 -8.93238,2.97746 -13.10083,5.35943 0,0 -0.685069,-8.4368 -3.248459,-11.47543 -1.208119,-1.4321 -5.073153,-2.42017 -5.073153,-2.42017 l -0.06642,-8.49797 c 0,0 4.91932,0 4.91932,0 0,0 0,-2.73967 0,-2.73967 0,0 -4.91932,0 -4.91932,0 0,0 0,-4.64748 0,-4.64748 0,0 -2.624749,0 -2.624749,0 0,0 0,4.64748 0,4.64748 0,0 -4.944282,0 -4.944282,0 0,0 0,2.73967 0,2.73967 0,0 4.944282,0 4.944282,0 l 0.05114,8.49797 c 0,0 -3.579205,1.27837 -4.661658,2.71411 -2.314882,3.0704 -2.836963,11.1815 -2.836963,11.1815 z m 10.718862,24.41517 c 0,-13.10083 8.93238,-26.20166 22.62871,-26.79715 11.909842,-0.59549 20.246742,10.12337 14.291812,20.84223 -2.38197,4.16845 -8.932382,11.31436 -13.696322,12.50535 -3.57295,0.59549 -7.7414,-1.78648 -11.31435,-1.78648 -6.55042,-1.19099 -13.10083,-1.78648 -19.65125,-1.19099 -5.35943,0.5955 -14.29182,4.16845 -19.05575,2.38197 -7.14591,-2.38197 -17.26928,-13.10083 -14.88731,-21.43773 2.38197,-11.31435 16.07829,-13.10083 25.01068,-8.93238 8.93238,4.76394 13.69632,14.29181 13.69632,24.41518 l 2.97746,0 z m -26.20166,3.57296 c 4.76394,-1.19098 9.52788,-2.38197 14.29181,-2.97746 1.78648,0 4.16845,0.59549 5.35943,-1.19099 1.78648,-1.78648 -0.59549,-7.7414 -1.78647,-10.12337 -3.57296,-7.7414 -10.71886,-13.10083 -19.65125,-12.50534 -8.33689,0.5955 -13.69632,8.93239 -8.33689,16.67379 2.38197,4.16844 7.14591,5.95492 10.12337,10.12337 z m 0.59549,11.31436 c 0.59549,-2.38197 7.14591,-2.97746 8.93239,-2.97746 9.52787,-1.78648 19.65124,-2.38197 29.17912,-0.5955 1.78648,0.5955 10.71886,1.19099 10.12337,4.16845 -0.59549,2.97746 -8.93239,-0.59549 -10.71886,-0.59549 -9.52788,-1.78648 -20.24674,-1.78648 -29.77462,0.59549 -1.19098,0 -8.33689,2.38197 -7.7414,-0.59549 z m 0,7.7414 c 0.59549,-2.38197 7.14591,-2.97746 8.93239,-3.57296 9.52787,-2.38197 19.65124,-2.38197 29.17912,-0.59549 1.78648,0.59549 10.71886,1.78648 10.12337,4.76394 -0.59549,2.97746 -8.93239,-0.59549 -10.71886,-1.19098 -9.52788,-1.78648 -20.24674,-1.78648 -29.77462,0.59549 -1.19098,0.59549 -8.33689,3.57295 -7.7414,0 z m 23.81969,-33.94307 c -1.78647,-2.97746 -2.97746,-5.95492 -4.76394,-8.93238 -1.78647,-4.76394 -1.78647,-20.24674 7.7414,-15.4828 8.3369,4.16844 1.78648,19.65124 -2.97746,24.41518 z m 0.5955,-5.95492 c 0.59549,-1.78648 1.78647,-4.16845 2.38196,-5.95493 0.5955,-2.38197 1.19099,-12.50533 -4.16844,-9.52787 -4.76394,2.97746 -0.59549,12.50534 1.78648,15.4828 z m 24.41518,20.84223 c 2.97746,-4.16845 7.741402,-5.95493 10.123372,-10.12337 5.35943,-7.7414 0,-16.07829 -8.336892,-16.67379 -8.93239,-0.59549 -16.0783,4.76394 -19.65125,12.50534 -1.19098,2.38197 -3.57295,8.33689 -1.78648,10.12337 1.19099,1.78648 3.57296,1.19099 5.35943,1.19099 4.76394,0.59549 9.52788,1.78648 14.29182,2.97746 z"
     style="stroke-width:1px"
     sodipodi:nodetypes="ccccccccccccaccccccccccccaccccccccccccccccccccccsccccccscccccscccccccccccc" />
</g>
<g
   id="g3223"
   transform="matrix(1.0503924,0,0,1.0503924,-8.7407286,-13.71828)">
  <path
     id="path3137"
     d="m 191.84375,179.75 c -9.28089,0.67179 -20.42515,-1.31308 -27.25,6.53125 7.15872,5.61171 15.59871,-0.19163 23.5,0.4375 10.63725,-0.45859 21.19227,1.41454 31.8125,1.65625 2.70146,-4.59684 -2.55516,-7.85687 -6.65625,-7.3125 -6.97537,-1.30435 -14.26509,-1.41935 -21.40625,-1.3125 z m 2.5,9.3125 c -9.6931,0.89886 -20.76246,-1.05182 -28.65625,5.9375 5.39111,5.07239 12.58384,2.41841 18.8125,1.375 11.50194,-1.00387 22.95734,1.43372 34.46875,0.96875 2.04934,-5.39685 -4.27086,-7.34469 -8.25,-7.46875 -5.38609,-0.87836 -10.92527,-0.86576 -16.375,-0.8125 z m 26.28125,9.75 c -4.99896,1.14399 0.26503,8.90457 3,4.375 0.99431,-2.02283 -0.53185,-5.06224 -3,-4.375 z"
     style="color:#000000;fill:#ffffcc;fill-opacity:1;fill-rule:nonzero;stroke:#000000;stroke-width:0.09520251;stroke-linecap:butt;stroke-linejoin:miter;stroke-miterlimit:4;stroke-opacity:1;stroke-dasharray:none;stroke-dashoffset:0;marker:none;visibility:visible;display:inline;overflow:visible;enable-background:accumulate" />
  <path
     id="BlackQueen"
     d="m 168.20357,168.21641 c -2.97746,-7.7414 -8.93239,-13.69632 -11.31436,-21.43772 -1.19098,-3.57296 1.78648,-6.55042 -0.59549,-10.12337 -1.78648,-2.97747 -6.55041,-4.16845 -9.52788,-1.19099 -5.95492,6.55042 3.57296,8.93239 4.76394,13.10083 3.57296,8.93239 2.38197,19.65125 5.95493,28.58364 1.19098,3.57294 4.16845,5.95491 5.95492,8.93237 1.78648,2.38197 2.97746,7.14591 1.19099,10.12337 -1.19099,2.97747 -5.35944,7.14591 -2.97746,10.71887 2.38196,3.57295 10.12336,2.97746 14.29181,3.57295 13.69632,1.78648 33.94306,3.57296 47.04389,-1.78648 7.14591,-2.97746 -1.78648,-12.50534 -0.59549,-18.46026 1.19098,-5.35943 5.95492,-8.33689 7.7414,-13.69632 2.38197,-8.93238 1.78648,-19.05575 5.35943,-27.98814 1.19098,-3.57295 5.95492,-3.57295 6.55042,-8.33689 0,-7.14591 -10.12337,-8.93238 -12.50534,-1.78648 -0.5955,2.97746 1.78647,5.35943 1.19098,7.7414 -1.78648,7.14591 -8.33689,16.0783 -12.50534,22.03322 l -1.78647,-30.37011 c 7.7414,-3.57295 5.35943,-15.4828 -2.97747,-11.90985 -2.38196,0.5955 -4.16844,3.57296 -4.16844,6.55042 0.59549,2.38197 2.97746,3.57295 2.97746,5.95492 -0.59549,9.52788 -8.33689,19.05576 -9.52788,28.58363 h -0.59549 c -1.19098,-10.12337 -5.95492,-20.24673 -5.95492,-30.3701 0,-2.97747 3.57295,-4.76394 3.57295,-8.3369 0,-2.97746 -2.97746,-5.95492 -5.95492,-5.95492 -3.57295,0 -6.55042,2.38197 -6.55042,5.95492 0,3.57296 3.57296,5.35943 3.57296,8.3369 0,10.12337 -4.76394,20.24673 -5.95492,30.3701 h -0.5955 c -1.19098,-9.52787 -8.93238,-19.05575 -9.52787,-28.58363 0,-2.38197 2.38197,-3.57295 2.97746,-5.95492 0,-2.97746 -1.19099,-5.95492 -4.16845,-6.55042 -8.33689,-3.57295 -10.71886,8.3369 -2.97746,11.90985 l -1.78648,30.37011 h -0.59549 z m 52.99881,32.15658 c 1.19099,0 1.19099,2.38197 0,2.38197 -1.19098,0 -1.19098,-2.38197 0,-2.38197 z m -51.21233,-4.76394 c -4.16845,-1.78648 5.95492,-3.57295 7.14591,-3.57295 10.12336,-1.19099 20.24673,-1.78648 30.3701,-0.59549 2.38197,0.59549 7.7414,0 9.52788,2.38196 2.97746,2.97747 -4.76394,1.78648 -5.95492,1.78648 -8.3369,-1.19098 -17.86477,-1.78648 -26.20166,-1.19098 -3.57296,0.59549 -11.31436,2.97746 -14.88731,1.19098 z m -1.19099,-8.93238 c -4.76394,-1.19099 5.35943,-4.16845 6.55042,-4.16845 11.31435,-1.19098 22.03321,-1.78648 33.34757,0 2.38197,0 8.33689,0 10.12337,2.38197 2.38196,2.97746 -7.14591,1.19098 -8.3369,1.19098 -8.33689,-1.19098 -17.26927,-1.78647 -25.60616,-1.19098 -4.16845,0.59549 -11.90985,2.97746 -16.0783,1.78648 z"
     style="stroke-width:1px" />
</g>
<g
   id="g3232"
   transform="matrix(1.0606853,0,0,1.0606853,-24.064339,-8.0675789)">
  <path
     id="path3175"
     d="m 443,146.625 c -0.0828,0.001 -0.16794,0.0221 -0.25,0.0625 -4.08639,-0.0282 -4.24604,5.11761 -6.1875,7.0625 -6.66005,-0.74137 -5.911,11.09091 0.625,10.1875 1.2551,3.0704 3.06598,8.37954 7.53125,6.3125 2.97695,-0.6845 2.84899,-4.86838 4.28125,-6.09375 6.68431,0.3333 7.67366,-11.24809 0.25,-10.59375 -2.62882,-1.6193 -1.52325,-6.54904 -5.5,-6.8125 -0.25304,0.006 -0.50167,-0.12828 -0.75,-0.125 z m -1.53125,26.40625 c -4.74542,0.342 -11.16869,-0.82285 -13.5,4.71875 4.77841,6.56938 13.19377,0.83973 19.59375,2.8125 3.89794,0.99534 8.74047,0.62168 11,-3.21875 -3.52989,-6.26397 -11.29769,-3.63086 -17.09375,-4.3125 z m 4.5,8.90625 c -1.97221,-0.0229 -3.93669,0.0172 -5.90625,0.0313 -5.1476,0.31249 -13.04864,-1.20234 -14.84375,5.4375 4.29375,5.65346 11.70608,0.56704 17.4375,1.8125 6.04612,0.42879 12.32567,1.63169 18.21875,-0.3125 1.27121,-5.3827 -4.7885,-7.38643 -9,-6.625 -1.95409,-0.23502 -3.93404,-0.32085 -5.90625,-0.34375 z"
     style="color:#000000;fill:#ffffcc;fill-opacity:1;fill-rule:nonzero;stroke:#000000;stroke-width:0.09427867;stroke-linecap:butt;stroke-linejoin:miter;stroke-miterlimit:4;stroke-opacity:1;stroke-dasharray:none;stroke-dashoffset:0;marker:none;visibility:visible;display:inline;overflow:visible;enable-background:accumulate" />
  <path
     id="BlackBishop"
     d="m 438.81393,196.74872 c -7.7414,2.97746 -12.50534,2.97746 -20.84223,2.97746 -5.35943,0 -11.90985,-0.59549 -16.67379,2.97747 -2.38196,2.38196 1.78648,8.33689 4.16845,8.33689 2.97746,0.59549 5.95493,-1.78648 8.93239,-1.78648 6.55041,-0.59549 12.50534,1.78648 19.05575,0 2.97746,-0.59549 6.55042,-3.57295 9.52787,-3.57295 2.97746,0 7.14591,2.97746 10.12337,3.57295 4.76394,1.19099 9.52788,0 14.29182,0 4.16844,0 10.71886,2.97747 14.29181,1.78648 1.78648,-0.59549 4.76394,-4.76394 4.16845,-7.14591 -0.59549,-2.97746 -7.14591,-3.57295 -9.52788,-4.16845 -10.71886,-1.19098 -19.05575,2.97747 -28.58363,-3.57295 2.97746,0 16.67378,0 16.67378,-4.16846 0.5955,-4.16844 -4.16844,-8.33689 -2.97746,-13.10083 0.5955,-4.76394 4.76394,-8.33689 5.95493,-13.69632 2.97746,-13.69633 -8.3369,-23.8197 -19.65125,-29.17913 1.19098,-1.78647 2.38197,-4.16844 2.38197,-6.55041 -0.59549,-8.93239 -14.8873,-7.7414 -13.69632,1.19098 0.59549,1.78648 1.78648,3.57296 2.38197,5.35943 -11.31435,5.35943 -22.62871,15.4828 -19.65124,29.17913 1.19098,5.35943 5.35943,8.93238 5.95492,13.69632 1.19098,4.76394 -3.57296,8.93239 -2.97746,13.10083 0,4.16846 13.69632,4.16846 16.67378,4.16846 l 0,0.59549 z m 20.24673,-9.52789 c -0.59549,1.78648 -5.35943,0.5955 -6.55041,0.5955 -6.55042,-0.5955 -13.10083,-0.5955 -19.65124,0 -1.19099,0 -5.95492,1.19098 -5.35943,-1.19099 0.59549,-2.38197 4.16844,-2.38197 5.95492,-2.38197 6.55042,-0.59549 12.50533,-0.59549 19.05575,0 1.78648,0 7.14591,0 6.55041,2.97746 z m -2.97746,-10.12337 c 0,2.38197 -3.57295,1.78648 -4.76394,1.78648 -5.35943,-0.59549 -10.71885,-0.59549 -16.07828,0 -1.19099,0 -4.16845,0.59549 -4.76394,-1.19098 0,-2.38197 4.16845,-2.38197 5.35943,-2.38197 5.35943,-0.5955 9.52787,-0.5955 14.8873,0 1.19099,0 4.76394,0 5.35943,1.78647 z m -11.31435,-20.24674 c 8.33689,0 8.33689,3.57296 0,3.57296 0,8.33689 -3.57295,8.33689 -3.57295,0 -7.7414,0 -7.7414,-3.57296 0,-3.57296 0,-8.33689 3.57295,-8.33689 3.57295,0 z"
     style="stroke-width:1px" />
</g>
<g
   id="g3236"
   transform="matrix(1.0587125,0,0,1.0587125,-24.458746,-12.316029)">
  <path
     id="path3204"
     d="m 571.09375,134.6875 c -4.12484,-0.91257 -5.04001,3.5672 -1.75,5.5 5.32956,2.85991 11.86114,3.89443 15.5625,9.28125 12.17163,14.37925 13.92639,34.13197 14.03125,52.3125 0.48824,4.57627 5.11149,7.45839 9.53125,6.625 0.10241,-23.29412 -1.97438,-49.90915 -20.28125,-66.53125 -4.7777,-3.94718 -10.68811,-7.46081 -17.09375,-7.1875 z M 555.125,135.625 c -4.27006,0.12645 -7.3277,3.77486 -7.90625,7.84375 4.3738,0.17523 11.83704,-0.0677 13.125,-5.21875 -0.26881,-2.49515 -3.23289,-2.8439 -5.21875,-2.625 z m -3.8125,8.09375 c -5.9783,0.37026 -11.29086,9.07595 -6.09375,13.3125 1.80368,-2.18961 2.73727,-3.49422 5.46875,-4.0625 2.76132,-1.07775 1.38954,-5.17439 4.65625,-5.09375 2.26043,-3.14404 -1.23942,-4.78869 -4.03125,-4.15625 z m 20.46875,13.71875 c -3.30826,2.1625 -3.50868,6.53682 -3.75,10.09375 4.73272,1.00514 6.12629,-2.43276 6.59375,-6.625 1.02654,-1.90092 -0.72559,-5.73772 -2.84375,-3.46875 z m -37.8125,13.8125 c -5.58567,0.50924 -4.98014,11.16627 1.125,8.875 4.63789,-1.54314 4.76132,-9.47874 -1.125,-8.875 z m 5.90625,6.4375 c -2.04892,2.47318 -6.01272,8.13934 -0.71875,9.1875 3.91973,-0.16314 3.80778,-5.89617 4.3125,-8.9375 -1.0554,-0.59149 -2.63922,-1.59419 -3.59375,-0.25 z"
     style="color:#000000;fill:#ffffcc;fill-opacity:1;fill-rule:nonzero;stroke:#000000;stroke-width:0.09445435;stroke-linecap:butt;stroke-linejoin:miter;stroke-miterlimit:4;stroke-opacity:1;stroke-dasharray:none;stroke-dashoffset:0;marker:none;visibility:visible;display:inline;overflow:visible;enable-background:accumulate" />
  <path
     id="BlackKnight"
     d="m 556.50851,133.84303 c 2.38197,-1.78647 4.76394,-8.33689 7.7414,-8.93238 3.57296,-0.59549 4.76394,7.14591 7.7414,8.33689 4.76394,1.78648 9.52788,1.78648 14.29184,4.76394 14.8873,9.52788 19.65124,27.98814 22.03321,44.06643 1.19099,6.55042 1.78648,13.10083 1.78648,19.65125 0,1.78648 0.59549,5.35943 -0.59549,6.55041 -1.78648,2.38198 -10.71887,1.19099 -13.69633,1.19099 l -35.72955,0 c -4.16845,0 -11.31436,1.78648 -10.71886,-4.76394 2.97746,-14.88731 20.24673,-21.43772 20.84223,-36.92052 -5.35943,4.16844 -11.90985,5.95492 -16.67379,10.12337 -3.57295,2.97746 -6.55041,8.93238 -10.12337,11.31435 -2.38197,1.19098 -4.76394,0 -5.95492,-2.38197 -5.95492,1.78648 -11.90985,-2.38197 -11.31435,-8.93238 0.59549,-7.74141 5.95492,-13.69633 9.52787,-20.24675 2.38197,-4.16844 1.78648,-8.33689 3.57296,-12.50533 1.19098,-2.97747 4.16844,-4.76394 5.35943,-7.7414 1.78647,-2.38197 -2.38197,-9.52788 0.59549,-11.90985 2.97746,-2.38197 10.12337,5.95492 11.31435,8.33689 z m 12.50534,2.97746 c 1.78648,3.57296 5.35943,2.97747 8.33689,4.76394 4.16845,1.19099 7.14593,4.76394 10.12339,7.7414 8.93239,11.31436 13.10083,29.17913 13.10083,43.47094 0,5.35943 -1.19098,13.69633 5.95492,13.69633 0,-19.65125 -1.78647,-42.27996 -14.8873,-58.35825 -4.76394,-5.95493 -14.29184,-13.10083 -22.62873,-11.31436 z m -30.9656,47.63939 1.78648,0.59549 1.78648,-5.95492 -0.5955,0 z m -4.16844,-5.95492 c 2.97746,-0.59549 4.16844,-5.35943 0.59549,-5.35943 -2.97746,0 -3.57296,5.95492 -0.59549,5.35943 z m 36.32503,-13.10083 1.19098,0 1.78648,-6.55042 c -2.38197,1.19098 -2.97746,4.16845 -2.97746,6.55042 z m -25.01068,-10.71887 1.19098,-2.97746 c 3.57296,0.59549 5.35943,-1.19098 4.76394,-4.76394 l 2.97746,-0.59549 0,-0.59549 c -5.35943,-1.19099 -10.12337,3.57295 -8.93238,8.93238 z m 4.76394,-13.10083 c 1.19098,0 2.97746,0 4.16844,-0.59549 11.31436,-3.57295 -2.97746,-5.95492 -4.16844,0.59549 z"
     style="stroke-width:1px" />
</g>
<path
   style="stroke-width:1px"
   d="m 665.39808,142.35556 c -1.91368,-5.10314 -4.46524,-10.20627 0,-15.30941 5.74103,-7.01682 19.77466,-4.46525 21.05044,5.10314 0.6379,3.82735 -1.27578,7.01681 -2.55156,10.20627 14.67152,3.18946 10.20627,20.41255 4.46524,28.70515 10.84417,3.18946 16.5852,15.30942 18.49888,25.51569 0,2.55157 1.91368,8.93049 -0.63789,10.84417 -2.55157,2.55157 -11.48207,0.63789 -15.30942,0.63789 l -32.5325,0 c -4.46524,0 -10.20627,1.27579 -14.67152,0 -3.82735,-1.27578 -1.27578,-8.93049 -1.27578,-11.48206 1.91367,-10.20627 7.6547,-22.32623 18.49887,-25.51569 -5.74103,-8.2926 -10.20627,-25.51569 4.46524,-28.70515 z"
   id="BlackPawn" />
<g
   id="g3261">
  <path
     id="path3099"
     d="m 70.90625,255.875 c -8.557943,2.7979 -8.019989,13.94024 -4.817067,20.64318 0.130216,2.36796 -4.668786,-4.22762 -7.120433,-5.58068 -9.315948,-7.0867 -26.067405,-5.60429 -30.28125,6.59375 -3.400333,10.43436 4.362983,21.87227 14.4375,24.96875 -2.549775,4.45174 -1.624076,9.97096 -0.21875,14.3125 -1.835241,4.29157 1.952882,7.85451 6.09375,8.5 15.12294,7.27342 33.221752,3.25059 48.375,-1.125 1.336246,-2.24984 6.21151,-0.91386 4.1875,-4.625 -1.628316,-2.80828 -0.98113,-5.96047 0.625,-8.4375 1.09915,-3.90768 -4.223724,-9.69297 1.46875,-10.40625 11.02085,-4.09829 17.51374,-21.46536 6.9375,-29.65625 -8.32952,-6.87557 -21.213432,-4.97741 -28.75,1.9375 -5.113311,0.0447 -1.431423,-6.27858 -3.15625,-9.3125 -0.841559,-3.57952 -3.440278,-8.10181 -7.78125,-7.8125 z"
     style="color:#000000;fill:#ffffcc;fill-opacity:1;fill-rule:nonzero;stroke:#000000;stroke-width:0.1;stroke-linecap:butt;stroke-linejoin:miter;stroke-miterlimit:4;stroke-opacity:1;stroke-dasharray:none;stroke-dashoffset:0;marker:none;visibility:visible;display:inline;overflow:visible;enable-background:accumulate" />
  <path
     sodipodi:nodetypes="ccccccccccccaccccccccccccaccccccccccccccccsccccsccccscccccccc"
     id="WhiteKing"
     d="m 62.013316,270.43653 c -4.4381,-2.53607 -8.8763,-5.07214 -13.9484,-5.70617 -11.4123,-1.26803 -24.7267,6.97421 -22.8246,20.28861 1.9021,9.51028 11.4123,12.04636 14.5824,19.65458 2.5361,5.07216 -1.2681,15.21645 2.5361,19.02057 2.536,3.1701 8.8763,3.80411 12.6803,4.43813 11.4124,2.53607 24.0927,2.53607 35.5051,0 3.17,-1.26803 8.8763,-1.90205 10.778404,-4.43813 4.4381,-3.80412 -0.6341,-14.58243 2.536,-19.65458 4.4382,-6.97421 13.3144,-10.14431 14.5824,-19.65459 1.268,-12.68038 -11.4123,-20.92262 -22.824704,-19.65459 -5.0721,0.63403 -9.5103,3.1701 -13.9484,5.70617 0,0 -0.2862,-7.73458 -2.212,-10.90418 -1.3472,-2.21727 -6.057,-4.88803 -6.057,-4.88803 l -0.2564,-8.74104 c 0,0 4.9738,0 4.9738,0 0,0 0,-2.91836 0,-2.91836 0,0 -5.0683,0 -5.0683,0 0,0 0,-5.06906 0,-5.06906 0,0 -2.7924,0 -2.7924,0 0,0 -0.063,5.06906 -0.063,5.06906 0,0 -5.0863,0 -5.0863,0 0,0 0,2.91836 0,2.91836 0,0 4.9604,0 4.9604,0 l -0.2565,8.74104 c 0,0 -5.0031,3.00813 -6.3401,5.45444 -1.6689,3.05367 -1.4569,10.33777 -1.4569,10.33777 l 1e-4,0 z m 34.2371,52.62358 c -14.5825,3.17009 -34.8711,8.24224 -48.8195,-0.63403 17.7526,-3.80411 31.0669,-3.80411 48.8195,0 l 0,0.63403 z m -51.3556,-2.53608 c -2.536,-6.3402 6.3403,-6.97421 10.7784,-8.24225 10.7783,-1.90206 22.1906,-1.90206 32.9689,0 5.7062,1.26804 10.7784,1.26804 10.7784,8.24225 -17.7526,-5.70617 -37.4072,-7.60823 -54.5257,0 z m 55.159704,-8.24225 c -10.778304,-3.17009 -22.824704,-5.70617 -34.237004,-4.43813 -7.6082,0.63401 -14.5824,3.17009 -22.1906,3.80411 0,-1.90205 -0.6341,-5.70617 0.6339,-6.97421 1.9021,-2.53607 7.6083,-3.17009 10.1443,-3.17009 10.7784,-2.53607 20.9227,-2.53607 31.7009,-0.63401 3.8042,0.63401 10.1444,0.63401 12.6805,3.17009 1.902004,1.90205 1.268004,5.70617 1.268004,8.24224 z M 70.255616,296.43131 c -8.8763,0 -18.3865,4.43814 -27.2628,4.43814 -7.6082,-0.63403 -15.8504,-13.94843 -13.9485,-20.92263 2.5361,-13.3144 19.6547,-14.58243 29.165,-8.24225 3.804,2.53608 6.9742,6.34019 8.8762,10.14431 1.902,4.43812 3.1701,9.51028 3.1701,14.58243 z m 3.1701,0 c 0,-5.07215 1.2681,-10.14431 3.1701,-14.58243 1.902,-3.80412 5.0721,-7.60823 8.8762,-10.14431 9.5103,-6.34018 26.628804,-5.07215 29.164904,8.24225 1.9021,6.9742 -6.3401,20.2886 -13.9484,20.92263 -8.876204,0 -18.386504,-4.43814 -27.262804,-4.43814 z m -1.2681,-10.77832 c -3.804,-6.34019 -10.7783,-19.02057 -5.0721,-25.99477 7.6083,-8.24225 12.0463,5.70617 10.7783,11.41233 -0.634,5.07216 -4.4381,9.51028 -5.7062,14.58244 z"
     style="stroke-width:1px" />
</g>
<g
   id="g3257">
  <path
     id="path2978"
     d="m 193.84375,251.75 c -6.37904,-0.2341 -5.15986,11.00054 0.90625,10.875 -5.74229,12.86123 -6.37243,27.2395 -9.5625,40.84375 -3.86828,-13.0053 -9.35024,-25.42973 -13.03125,-38.5 5.82196,-2.2246 2.10182,-12.65549 -3.6875,-9.78125 -4.78211,2.53405 -1.90751,10.93024 3.53125,10.15625 -3.10861,13.03385 -1.78721,26.60469 -3.65625,39.84375 -4.34407,-10.19126 -9.55792,-19.88278 -15.875,-29 0.84813,11.94239 1.48732,24.38801 7.3125,34.9375 1.62851,3.4126 5.64585,6.18465 4.71875,10.4375 0.28884,2.76626 2.46016,4.46859 4.46875,6.125 -5.8527,-0.10881 -2.99609,7.01783 -7.28125,8.9375 -1.26376,4.2045 5.13284,5.25373 8.0159,4.99063 19.31876,1.98725 39.8284,3.84472 58.26535,-2.80313 -3.34549,-2.80018 -5.41882,-6.34214 -6.1875,-10.5625 -1.2406,-3.62382 1.95935,-6.80833 1.8125,-10.5625 1.49846,-4.74573 6.25625,-7.34279 7.25,-12.4375 3.30267,-8.71571 4.09727,-19.08238 3.59375,-27.75 -6.52694,8.16907 -10.24966,18.69995 -15.78125,27.71875 -0.13042,-13.27141 -0.46824,-26.65555 -2.40625,-39.75 5.87248,0.5142 7.60203,-9.23957 1.90625,-10.53125 -6.0251,-1.27697 -7.08555,7.93689 -2.59375,10.375 -0.75481,7.23854 -5.73526,13.07042 -6.81054,20.28991 -2.00158,6.0741 -4.12708,12.0547 -6.37696,18.05384 -1.89985,-14.07558 -5.72129,-27.79285 -7.71875,-41.84375 5.33324,-0.93032 4.89859,-10.55911 -0.8125,-10.0625 z m -45.0625,11.90625 c -6.2694,0.77358 -3.49813,12.07448 2.625,9.65625 4.44127,-2.35372 2.30699,-9.92591 -2.625,-9.65625 z m 89.46875,0.0313 c -4.22362,-0.35495 -6.26197,5.55992 -3.25,7.8125 2.10729,0.48976 2.77048,3.58036 5.28125,1.34375 4.17097,-2.37718 2.85491,-9.32707 -2.03125,-9.15625 z"
     style="color:#000000;fill:#ffffcc;fill-opacity:1;fill-rule:nonzero;stroke:#000000;stroke-width:0.1;stroke-linecap:butt;stroke-linejoin:miter;stroke-miterlimit:4;stroke-opacity:1;stroke-dasharray:none;stroke-dashoffset:0;marker:none;visibility:visible;display:inline;overflow:visible;enable-background:accumulate" />
  <path
     id="WhiteQueen"
     d="m 237.72868,275.23831 c 7.5724,-0.63104 9.4656,-12.62068 0.6311,-13.25171 -3.1552,0 -5.6793,1.8931 -6.3103,5.04826 -0.6311,3.15518 1.8931,5.67932 1.2621,8.20345 -1.8932,8.20344 -8.8345,17.03792 -13.2518,23.97929 l -1.8931,-33.4448 c 6.9414,-1.26206 7.5725,-11.35861 0,-12.62068 -6.9414,-0.63103 -10.0965,8.83448 -3.7862,11.98965 l -10.7276,32.18273 -0.631,0 c -1.2621,-7.57241 -3.1552,-14.51378 -4.4172,-22.08619 -0.6311,-3.15517 -2.5242,-7.5724 -1.8932,-10.72757 0,-3.15518 3.7863,-4.41724 3.7863,-7.57241 0,-3.78621 -2.5242,-6.94138 -6.3104,-6.94138 -3.7862,0 -6.9414,2.52414 -6.9414,6.31035 0,3.7862 3.7863,5.04826 3.7863,8.83447 0,10.09654 -4.4173,22.08619 -6.3104,32.18273 l -0.631,0 -10.7276,-32.18273 c 6.3103,-3.15517 3.1552,-12.62068 -3.7863,-11.98965 -7.5724,1.26207 -6.9413,11.35862 0,12.62068 l -1.893,33.4448 c -4.4173,-6.94137 -11.3586,-15.77585 -13.2518,-23.97929 -0.631,-2.52413 1.8932,-5.04827 1.2621,-8.20345 -0.631,-3.15516 -3.1552,-5.04826 -6.3103,-5.04826 -8.8345,0.63103 -6.9413,12.62067 0.6311,13.25171 0.631,10.09654 1.8931,23.97929 5.6792,33.4448 2.5242,5.04828 6.9414,8.20345 8.2035,14.51378 1.2621,5.67931 -6.9414,11.98964 -3.1552,17.03792 2.5241,2.52413 8.8344,2.52413 12.6207,3.15516 12.6206,1.89311 25.8724,1.89311 39.1241,0 3.7862,-0.63103 11.9897,0 14.5137,-3.15516 3.7863,-5.04828 -4.4172,-11.35861 -3.1551,-17.03792 1.2621,-6.31033 6.3103,-9.4655 8.2035,-15.14482 3.1551,-9.4655 5.0482,-22.71722 5.6792,-32.81376 z m 3.1553,-6.31034 c 0,3.78621 -5.6794,3.15517 -5.6794,-0.63103 0.631,-4.41724 6.3104,-3.15517 5.6794,0.63103 z m -7.5724,13.88275 -3.7863,22.71723 -8.2034,-1.26208 11.3586,-21.45515 0.6311,0 z m -5.6794,25.87239 -5.6793,6.94137 -12.6206,-1.89309 -21.4552,-0.63105 -22.0862,2.52414 -5.6793,-6.94137 c 6.3103,-3.78621 17.0378,-2.52413 23.9793,-2.52413 3.1551,0 6.3103,-1.89311 9.4654,-1.89311 3.1552,-0.63103 5.6794,1.89311 8.8345,1.89311 7.5724,0.63103 18.3,-1.89311 25.2414,2.52413 z m -64.9965,29.6586 c 1.8931,-4.41724 8.8345,-3.78621 13.2518,-4.41724 12.6206,-1.89311 24.6103,-1.89311 37.2309,0 3.7863,0.63103 10.0966,0 11.9897,4.41724 -20.1931,5.04826 -42.2793,3.7862 -62.4724,0 z m 59.3172,-6.94138 -20.8241,-1.8931 -35.3379,2.52413 c 1.8931,-5.04827 7.5724,-4.41723 12.6206,-5.04827 10.7276,-0.63103 21.4552,-1.26206 32.1828,0 4.4172,0.63104 8.8344,0.63104 11.3586,4.41724 z m -0.631,-12.62068 c 0,1.8931 0,5.6793 -2.5242,6.31035 -5.0482,1.26206 -12.6206,-1.89311 -17.6689,-1.89311 -7.5725,0 -14.5138,0 -22.0862,0.63103 -3.1551,0 -6.9414,1.89311 -10.0966,1.26208 -2.5241,-0.63105 -2.5241,-4.41725 -2.5241,-6.31035 17.038,-3.7862 37.862,-3.7862 54.9,0 z m -1.2621,-58.05512 c -1.2621,3.78621 -6.9414,1.8931 -5.6793,-1.89311 1.2621,-3.7862 6.9414,-1.89309 5.6793,1.89311 z m -4.4172,11.98965 1.2621,30.92066 -11.9897,-0.63103 10.0965,-30.28963 0.6311,0 z m -21.4552,-3.15518 6.3104,32.81377 -6.3104,-1.8931 -6.9414,1.8931 6.3103,-32.81377 0.6311,0 z m 2.5241,-11.98964 c -1.262,3.7862 -6.9413,1.89311 -5.6792,-1.89311 1.262,-3.78619 6.9413,-1.89309 5.6792,1.89311 z m -13.8827,44.80341 -11.9897,1.26207 1.2621,-30.92066 0.6311,0 z m -9.4655,-41.64824 c -1.2621,3.78621 -6.9414,1.8931 -5.6793,-1.89311 1.262,-3.7862 6.9414,-1.89309 5.6793,1.89311 z m -18.3,22.08619 11.3586,21.45515 -8.2034,1.26208 -3.7863,-22.71723 0.6311,0 z m -3.1551,-13.25172 c -1.2621,3.78621 -6.3104,1.89311 -5.0484,-1.89309 1.2621,-3.78621 6.3104,-1.89311 5.0484,1.89309 z"
     style="stroke-width:1px" />
</g>
<g
   id="g3253">
  <path
     id="path2950"
     d="m 338,254.75 c -3.27431,2.39179 -3.86861,9.09339 -9.02688,8.21884 -3.68771,0.82181 -6.19219,-2.35924 -8.00759,-5.11661 -2.71157,-3.55379 -9.69819,-3.80116 -11.87296,0.51291 -0.61086,5.66585 -9.89652,5.87433 -12.22146,1.21829 -0.52808,-5.62623 -7.95212,-5.18838 -11.71088,-3.2374 -3.62432,3.35391 -0.97747,9.18105 -0.5711,13.35233 2.59749,3.93252 8.91056,5.12407 9.36115,10.4868 0.24565,4.17628 -0.49832,8.35114 -0.13978,12.53889 0.0167,5.54851 0.57032,11.17983 -0.27752,16.67588 -1.39699,4.32885 -6.36503,6.47948 -7.17056,11.09768 0.45716,3.4762 0.75264,9.63887 -4.10326,9.7416 -6.66217,-1.5639 -2.55767,8.63233 2.2168,6.21856 9.92977,-1.0189 19.92854,-0.22699 29.88933,-0.40458 10.7712,0.0698 21.54243,0.16261 32.31396,0.14943 4.42646,2.77199 8.976,-5.30794 2.81016,-5.8914 -5.13758,-1.19227 -5.00305,-6.62563 -4.73318,-10.62841 -1.54193,-4.39437 -7.42316,-6.06194 -7.6829,-11.1175 -0.57374,-4.92035 0.77928,-9.84602 0.12739,-14.76998 -0.051,-5.31711 0.0106,-10.63443 -0.0136,-15.95162 5.0402,-2.85287 9.84936,-7.77447 9.50474,-13.98316 1.25857,-4.0558 -0.47857,-9.96976 -5.79064,-8.72589 -0.97607,0.008 -1.98025,-0.0254 -2.90127,-0.38466 z"
     style="color:#000000;fill:#ffffcc;fill-opacity:1;fill-rule:nonzero;stroke:#000000;stroke-width:0.1;stroke-linecap:butt;stroke-linejoin:miter;stroke-miterlimit:4;stroke-opacity:1;stroke-dasharray:none;stroke-dashoffset:0;marker:none;visibility:visible;display:inline;overflow:visible;enable-background:accumulate" />
  <path
     sodipodi:nodetypes="cccccccccccccccccccccccccccccccccccccccccccccccccccccccccccccccccc"
     id="WhiteRook"
     d="m 284.25533,328.21316 c 0,0 -6.68956,0 -6.68956,0 0,0 0,9.2752 0,9.2752 0,0 75.98938,0 75.98938,0 0,0 0,-9.2752 0,-9.2752 0,0 -7.04339,0 -7.04339,0 0,0 0,-9.81186 0,-9.81186 0,0 -6.86808,-7.22676 -6.86808,-7.22676 0,0 0,-33.97336 0,-33.97336 0,0 8.8859,-7.91093 8.8859,-7.91093 0,0 0,-14.84545 0,-14.84545 0,0 -15.20194,0 -15.20194,0 0,0 0,6.24907 0,6.24907 l -10.4749,0 c 0,0 0,-6.24907 0,-6.24907 0,0 -14.42744,0 -14.42744,0 0,0 0,6.24907 0,6.24907 l -10.68658,0 c 0,0 0,-6.24907 0,-6.24907 0,0 -15.62486,0 -15.62486,0 0,0 0,14.84545 0,14.84545 0,0 9.27516,7.91093 9.27516,7.91093 0,0 0,33.97336 0,33.97336 0,0 -7.13369,7.22676 -7.13369,7.22676 l 0,0 0,9.81186 z m 66.62704,6.59973 -70.55348,0 0,-3.56821 70.55348,0 0,3.56821 z m -7.49241,-7.93607 -55.56866,0 0,-6.86804 55.56866,0 0,6.86804 z m -2.28608,-9.98988 -51.23012,0 c 0,0 3.98492,-4.10221 3.98492,-4.10221 l 43.23532,0 c 0,0 4.00988,4.10221 4.00988,4.10221 z m -4.58195,-6.86803 -41.8326,0 0,-31.84272 41.8326,0 0,31.84272 z m 6.68733,-39.15709 c 0,0 -4.70225,4.76524 -4.70225,4.76524 l -45.16852,0 c 0,0 -5.51449,-4.76524 -5.51449,-4.76524 l 55.38526,0 0,0 z m 2.05421,-3.29987 -60.0273,0 0,-10.61424 10.07754,0 c 0,1.8731 0,6.59474 0,6.59474 0,0 15.61457,0 15.61457,0 0,0 0,-4.72164 0,-6.59474 l 9.36052,0 c 0,1.8731 0,6.59474 0,6.59474 0,0 15.89327,0 15.89327,0 0,0 0,-4.72164 0,-6.59474 l 9.0814,0 0,10.61424 0,0 z"
     style="stroke:#000000;stroke-width:1px;stroke-opacity:1" />
</g>
<g
   id="g3249">
  <path
     id="path2926"
     d="m 445.28125,243.875 c -6.71323,0.99833 -4.12727,12.36358 2.125,10.96875 6.69228,-1.80058 4.4755,-11.57972 -2.125,-10.96875 z m 0.71875,12 c -8.13254,3.05668 -15.97068,8.59901 -21.03125,15.75 -5.39836,8.44949 -3.32193,21.48581 5.125,27.03125 1.92332,0.66102 5.36399,0.66408 1.875,1.75 -3.82768,1.45909 -4.90611,8.92132 0.25,8.8125 -3.33173,-0.36138 -7.18004,4.343 -3,6.09375 11.03731,2.09298 22.7495,0.608 33.96875,0.28125 4.80609,-0.54714 1.6771,-6.90835 -2.0625,-6.0625 -4.3334,-0.33561 3.94459,0.11717 3.0625,-3.25 0.21413,-4.27855 -4.18019,-6.58313 -7.84375,-7.09375 4.70063,0.25744 9.92332,-0.88195 11.78125,-5.8125 6.98783,-9.94004 0.36702,-22.91628 -8.09375,-29.53125 C 455.78144,260.78718 451.46766,256.30087 446,255.875 z m 0.53125,22 c 0.75959,1.62269 3.65648,1.30854 0.90625,2.3125 -0.61146,2.3628 -3.21921,-1.04238 -3.03125,-0.84375 0.97897,0.0165 1.74801,-1.53868 2.125,-1.46875 z m -0.875,40.25 c -6.6099,4.00867 -13.67154,7.671 -21.6875,6.375 -6.67033,0.61738 -14.62035,-1.13282 -20.40625,2.78125 -1.81073,4.34733 3.42604,7.09705 7.1875,6.15625 11.34491,-0.19688 23.23998,0.76 33.59375,-4.46875 5.59813,-1.67385 10.43689,4.14558 16.25,3.53125 8.66952,0.0247 17.49535,0.71721 26,1.0625 3.71263,-1.413 4.27847,-8.06276 -0.59375,-8.0625 -9.21041,-1.38206 -19.00349,0.29964 -27.87887,-1.99561 -4.08274,-1.27542 -8.45437,-5.79276 -12.46488,-5.37939 z"
     style="color:#000000;fill:#ffffcc;fill-opacity:1;fill-rule:nonzero;stroke:none;stroke-width:8;marker:none;visibility:visible;display:inline;overflow:visible;enable-background:accumulate" />
  <path
     id="WhiteBishop"
     d="m 442.33241,255.83859 c -1.2559,-1.2559 -2.5118,-2.51181 -2.5118,-4.39566 -3.7678,-11.93112 16.9547,-11.93112 13.1869,0 0,1.88385 -1.2558,3.13976 -2.5117,4.39566 13.187,5.02363 24.4902,17.58269 21.3504,32.02561 -1.256,4.39568 -6.2795,8.79134 -6.9075,13.18702 -0.628,3.76771 6.2795,11.30315 3.1398,14.44291 -3.1398,3.13977 -12.5591,2.51182 -16.3268,3.13977 l 0,0.62796 c 10.6751,5.02362 18.8385,1.88385 29.5138,3.13976 3.1398,0.62795 8.7913,1.88386 10.6752,4.39567 1.2558,3.13976 -3.1398,8.79134 -5.6516,8.79134 -3.1397,0.62795 -6.9075,-1.88387 -10.0472,-1.88387 -9.4193,-0.62795 -21.9784,3.13978 -29.5139,-4.39566 l -0.6279,0 c -7.5355,7.53544 -20.0945,3.76771 -29.5138,4.39566 -3.1398,0 -6.9075,2.51182 -10.0473,1.88387 -2.5118,0 -6.9074,-5.65158 -5.6515,-8.79134 1.8839,-2.51181 7.5354,-3.76772 10.6751,-4.39567 10.6753,-1.25591 18.8386,1.88386 29.5139,-3.13976 l 0,-0.62796 c -3.7678,-0.62795 -13.1871,0 -16.3268,-3.13977 -3.1398,-3.13976 3.7677,-10.6752 3.1397,-14.44291 -0.6279,-4.39568 -5.6515,-8.79134 -6.9075,-13.18702 -3.1397,-14.44292 8.1634,-27.00198 21.3505,-32.02561 z m 3.1397,-10.6752 c -5.0236,1.25591 -3.1397,8.79135 1.8839,8.16339 5.0236,-1.2559 3.1398,-8.79134 -1.8839,-8.16339 z m 1.2559,11.93112 c -3.1397,0 -6.2795,3.13976 -8.7913,4.39566 -8.1634,5.65159 -15.6988,11.93111 -14.4429,22.60632 0.6279,4.39566 3.1398,13.18701 8.7913,13.81496 6.9075,1.2559 14.4429,-1.25591 21.9784,-0.62795 3.1398,0.62795 6.9074,1.88385 9.4193,-0.62796 12.5591,-11.9311 3.1398,-27.00198 -8.1634,-34.53741 -2.5119,-1.88386 -5.6516,-4.39567 -8.7914,-5.02362 z m -1.8839,20.72244 c 0,-8.79134 3.1399,-8.79134 3.1399,0 8.7913,0 8.7913,3.13977 0,3.13977 0,8.79134 -3.1399,8.79134 -3.1399,0 -8.7913,0 -8.7913,-3.13977 0,-3.13977 z m 18.2107,30.14176 c 0,-1.88387 -0.628,-5.02363 -2.5118,-6.27954 -1.8838,-0.62795 -4.3957,-0.62795 -6.2795,-1.2559 -5.6516,-0.62795 -16.9548,-1.88387 -21.9784,1.2559 -1.8839,1.25591 -2.5118,4.39567 -2.5118,6.27954 l 33.2815,0 z m 2.5119,5.65157 c -1.8839,-3.13977 -5.6516,-3.13977 -8.7914,-3.13977 -6.9075,-0.62795 -13.8149,-0.62795 -20.7225,0 -3.1397,0 -6.9075,0 -8.7913,3.13977 13.187,1.88385 25.1181,1.88385 38.3052,0 z m 23.2342,14.44291 c -10.0473,-3.76771 -20.0945,0 -30.1417,-2.5118 -3.7678,-0.62796 -8.7914,-6.27953 -12.5591,-5.65158 -4.3957,0.62795 -8.1634,5.65158 -13.187,6.27953 -10.0473,1.2559 -18.8386,-1.88386 -28.8859,1.88385 l 2.5118,5.02362 c 9.4194,-3.76771 18.2107,-0.62795 27.63,-1.88386 3.7677,-0.62795 8.7914,-4.39566 12.559,-4.39566 4.3958,0.62795 8.1634,3.76771 13.1871,4.39566 9.4192,0.62796 17.5826,-1.88385 26.374,1.88386 z"
     style="stroke-width:1px" />
</g>
<g
   id="g3245">
  <path
     id="path2922"
     d="m 574.75,253.6875 c -1.18671,3.39093 -2.28558,7.57384 -6.5,7.96875 -3.34476,2.31695 0.31429,-4.91456 -5.125,-5.78125 -2.18583,-2.77221 -6.0974,-1.30995 -5.25,2.28125 1.84749,6.62283 -5.79251,9.95203 -6.5,16.03125 -1.22655,10.01241 -9.24577,17.06794 -12.28125,26.3125 -1.89497,5.37514 0.27046,14.56577 7.53125,13.21875 2.21283,-0.25895 4.80151,-4.34108 3.75,-0.28125 0.93619,5.15719 5.70145,0.10134 7.4375,-2 5.93211,-7.76697 14.94839,-11.41824 22.8125,-16.65625 2.55648,-1.88894 3.40704,-6.95561 4.34375,-8.15625 -2.03933,7.24803 -0.89405,15.48104 -6.21875,21.6875 -5.14851,8.59128 -13.46824,15.74812 -15.9375,25.71875 1.28699,4.64355 8.24617,1.84859 11.62483,2.80722 15.71833,0.0855 31.4377,0.0118 47.15642,0.0365 -1.18694,-22.67088 -1.70238,-48.21574 -18.03566,-65.81574 -5.45124,-5.16282 -12.66377,-10.21433 -20.46434,-10.15301 -2.79933,0.80339 -2.80848,-5.77352 -4.71875,-7.34375 -2.22703,-4.73955 -1.5911,-4.97855 -3.625,0.125 z m -11.71875,12.21875 c -0.0398,0.077 -0.29071,0.0895 0,0 z m -1.90625,8.15625 c 1.01075,2.26328 -3.61064,2.65708 -1.03125,0.625 0.22952,-0.12864 1.05967,-1.01571 1.03125,-0.625 z m -15.78125,27.8125 c 0.85343,2.10439 -2.00683,2.26305 -0.34375,0.21875 0.10229,-0.0709 0.23267,-0.17598 0.34375,-0.21875 z"
     style="color:#000000;fill:#ffffcc;fill-opacity:1;fill-rule:nonzero;stroke:none;stroke-width:8;marker:none;visibility:visible;display:inline;overflow:visible;enable-background:accumulate" />
  <path
     id="WhiteKnight"
     d="m 548.53321,314.63036 c -6.2288,1.86865 -12.45761,-2.49152 -11.83473,-9.3432 0.62288,-8.09745 6.22881,-14.32626 9.9661,-21.17794 2.49152,-4.36017 1.86863,-8.72033 3.73728,-13.0805 1.24576,-3.1144 4.36016,-4.98304 5.60592,-8.09744 1.86864,-2.49153 -2.49152,-9.9661 0.62288,-12.45762 3.11441,-2.49152 10.58897,6.22881 11.83474,8.72034 4.98304,-3.73729 7.47457,-14.94914 12.4576,-4.36017 0.62289,1.24575 1.24577,2.49152 1.24577,3.73728 28.65252,2.49152 39.86432,30.52115 42.35582,56.05925 0.6229,5.60593 1.2458,11.21185 1.2458,16.81778 0,1.86864 0.6229,4.98304 -1.2458,6.22881 -2.4915,1.86864 -9.9661,0.62288 -13.0804,0.62288 l -36.12711,0 c -3.1144,0 -13.0805,1.86864 -14.32625,-1.86865 -1.24576,-4.98304 3.1144,-10.58897 5.60592,-14.32625 6.2288,-8.72032 16.1949,-15.57201 16.1949,-27.40674 -4.98305,4.36016 -11.83473,6.2288 -17.44066,10.58897 -3.73729,3.1144 -6.85169,9.3432 -10.58897,11.83473 -2.49152,1.24576 -4.98304,0 -6.22881,-2.49153 z m 10.58897,-59.79653 c 0,2.49152 1.24577,6.2288 0.62289,8.09745 -0.62289,3.1144 -4.36017,4.98304 -5.60594,8.09744 -1.86863,3.73728 -1.86863,8.72033 -3.73727,12.45762 -2.49153,5.60592 -6.85169,9.96608 -9.34321,15.57201 -1.24577,4.36016 -2.49152,14.32626 5.60593,13.08049 3.1144,-1.24576 4.36015,-4.36016 6.85168,-6.2288 l -1.86864,8.72032 c 4.98304,-2.49152 8.09745,-8.72032 12.45761,-11.83472 4.98304,-4.36017 12.45761,-5.60593 16.81777,-10.58897 1.24577,-1.86865 3.73729,-12.45762 4.98305,-11.83474 3.1144,0.62289 -0.62288,10.58897 -0.62288,12.45761 1.24576,18.06354 -17.44065,25.53811 -21.17794,42.35589 l 55.43636,0 c 0,-28.02964 -4.3602,-67.27111 -36.74994,-73.49991 l -0.62288,3.73728 -5.60593,-11.83473 c -1.24576,2.49151 -3.1144,10.58896 -6.22881,8.72033 l -7.47456,3.73728 2.49152,-6.22881 z m -16.19489,50.45333 c -1.86864,-2.49152 2.49152,-7.47457 4.36016,-4.36017 1.24576,2.49152 -2.49152,6.85169 -4.36016,4.36017 z m 13.70337,-24.29234 c -1.24576,-4.98305 4.36017,-12.45762 9.34321,-8.72034 l -3.1144,0.62289 c 0.62288,3.73728 -1.24577,5.60592 -4.98305,4.98305 l -0.62287,3.1144 -0.62289,0 z"
     style="stroke-width:1px" />
</g>



      style=&quot;stroke-width:1px&quot;
         d=&quot;M0 161c2 5 6 9 12 11c-1 -6 -6 -12 -12 -11zM26 168l6 4c-1 -4 -2 -5 -6 -4zM42 164l10 8c-1 -6 -4 -8 -10 -8zM63 165l9 7c-1 -5 -4 -7 -9 -7zM80 161c2 5 6 9 12 11c-1 -6 -6 -11 -12 -11zM102 164l10 8c-1 -6 -5 -7 -10 -8zM123 164l9 8c-1 -5 -4 -8 -9 -8zM145 167 l7 5v-4zM162 159c-2 6 4 11 10 13c-1 -6 -5 -10 -10 -13zM78 133c-17 8 -30 3 -48 6c-4 0 -15 2 -16 7c-1 4 5 13 9 13c5 1 10 -3 15 -3c13 -1 40 7 48 -8c16 10 30 6 48 7c5 0 10 3 15 3c4 1 11 -8 9 -12c-3 -5 -12 -6 -17 -7c-11 -1 -21 2 -32 1c-5 -1 -10 -4 -15 -6v-1 c5 0 28 0 28 -7c1 -7 -7 -14 -5 -22c1 -8 8 -14 10 -23c5 -23 -14 -40 -33 -49c1 -3 3 -6 4 -9c2 -18 -28 -15 -22 2c0 3 2 5 4 7c-21 8 -39 28 -34 51c2 7 10 14 11 21c1 6 -10 18 -5 23s20 4 26 5v1zM24 155l-5 -8l47 -3l20 -11c0 31 -44 12 -62 22zM172 152l-4 -7 c0 4 0 6 4 7zM4 147c2 -4 0 -7 -4 -6zM0 121c3 6 10 15 17 13c-4 -5 -10 -14 -17 -13zM157 135l-8 -10l-24 -22c-1 5 3 8 7 12c8 8 15 15 25 20zM133 90c-2 6 3 9 7 13c9 9 20 26 32 29c-1 -6 -7 -11 -11 -15c-9 -9 -18 -20 -28 -27zM0 101c4 9 23 30 33 29 c-6 -9 -15 -16 -22 -23c-3 -3 -6 -7 -11 -6zM133 130l-3 -2zM86 127l-30 -3c5 -8 22 -6 30 -6v-5l-26 2c2 -14 15 -12 26 -12v-5c-7 0 -19 4 -25 0c-4 -2 -7 -8 -9 -13c-8 -24 13 -43 34 -51l3 33c14 0 14 6 0 6l-3 24c3 0 25 0 22 5c-3 4 -18 1 -22 1v9c7 0 15 0 22 2 c2 0 7 2 5 4c-1 3 -5 2 -7 1c-7 -1 -13 -1 -20 -1v9zM41 124c4 -5 -2 -9 -6 -13l-23 -23c-4 -4 -7 -8 -12 -7c7 16 29 31 41 43zM136 73c0 12 16 22 24 30c4 4 7 8 12 9l-10 -14zM47 110c3 -6 -3 -10 -7 -14l-27 -27c-4 -4 -7 -9 -13 -8l16 18zM106 23c-1 9 9 14 15 19 c12 11 22 24 34 36c5 5 10 12 17 14c-1 -9 -11 -15 -17 -21c-16 -16 -31 -35 -49 -48zM85 85l1 -30h-2v12c-14 0 -14 5 0 5zM36 79c2 -5 -1 -8 -4 -11c-7 -7 -22 -28 -32 -27c7 14 25 27 36 38zM100 1c3 7 11 13 17 19l35 35c6 6 12 15 20 17c-1 -8 -10 -14 -15 -19l-38 -38 c-5 -5 -12 -15 -19 -14zM38 61c3 -5 -2 -9 -5 -12l-21 -21c-4 -4 -7 -8 -12 -7c7 15 26 28 38 40zM120 1c7 14 25 27 36 38c5 5 9 11 16 13c-1 -6 -7 -11 -11 -15l-26 -26c-4 -4 -9 -11 -15 -10zM0 1c3 6 9 11 14 16c10 10 21 25 33 31c0 -6 -4 -9 -8 -13l-26 -26 c-4 -4 -7 -9 -13 -8zM20 1c5 11 18 20 27 29c3 3 7 9 12 5l-26 -26c-4 -4 -7 -9 -13 -8zM140 1c4 9 22 28 32 31c-1 -10 -14 -18 -21 -25c-3 -3 -6 -7 -11 -6zM67 30c3 -9 -19 -30 -27 -29c5 11 18 20 27 29zM86 28c-7 -3 -7 -10 0 -13v13zM69 12c5 -5 -3 -12 -9 -11zM160 1 c2 5 6 9 12 11c-1 -6 -6 -12 -12 -11zM85 1l-5 2z&quot;
         id=&quot;path3095&quot; /&gt;
      
      style=&quot;stroke-width:1px&quot;
         d=&quot;M0 161c2 5 6 9 12 11c-1 -6 -6 -12 -12 -11zM0 141c4 9 22 28 32 31c-1 -10 -14 -18 -21 -25c-3 -3 -6 -7 -11 -6zM43 165l9 7c-1 -5 -4 -6 -9 -7zM72 172c-1 -3 -3 -4 -6 -4zM92 172c-1 -3 -2 -3 -5 -3zM112 168h-6l6 4v-4zM124 166l8 6c-1 -5 -3 -7 -8 -6zM140 162 l12 10c-1 -6 -5 -11 -12 -10zM148 145c3 10 14 24 24 27c-2 -10 -16 -22 -24 -27zM17 51c1 16 3 38 9 53c4 8 11 13 13 23c2 9 -11 19 -5 27c4 4 14 4 20 5c21 3 42 3 63 0c6 -1 19 0 23 -6s-3 -13 -5 -18c-2 -4 -1 -7 0 -11c2 -9 10 -14 13 -22c4 -15 2 -34 9 -48 c2 -5 8 -5 10 -10c3 -8 -6 -17 -14 -13c-10 5 -2 13 -5 21c-3 12 -13 25 -20 36l-3 -51c13 -6 9 -26 -5 -20c-4 1 -7 6 -7 11c1 4 5 6 5 10c-1 16 -14 32 -16 48h-1c-2 -17 -10 -34 -10 -51c0 -6 7 -9 6 -16c-2 -7 -10 -10 -16 -6c-12 7 1 14 1 22c0 16 -7 35 -10 51h-1 l-17 -51c10 -5 5 -20 -6 -19c-12 2 -11 18 0 20l-3 53c-7 -11 -18 -25 -21 -38c-1 -4 3 -8 2 -13s-5 -8 -10 -8c-14 1 -11 20 1 21zM86 156l-49 -5c2 -6 8 -5 13 -6c12 -2 24 -3 36 -3v14zM144 121c-2 9 20 29 28 31c-2 -11 -19 -25 -28 -31zM133 142c2 0 2 4 0 4 s-2 -4 0 -4zM0 121c4 9 16 21 25 25c1 -8 -17 -26 -25 -25zM86 137l-44 4c5 -11 33 -9 44 -9v-5l-29 2h-11l-3 -9l43 -4v-5l-31 2l-14 1l-8 -10l14 -2l13 -4l26 -2v14c11 0 23 1 34 3c2 0 11 1 10 5c-2 3 -9 1 -11 0c-11 -1 -22 -2 -33 -2v10c11 0 21 1 32 2c2 1 11 1 9 5 c-2 3 -8 1 -10 1c-10 -1 -21 -2 -31 -2v5zM0 101c5 10 22 27 32 32c-2 -10 -13 -18 -20 -25c-4 -4 -7 -8 -12 -7zM150 113c6 6 13 17 22 19c-1 -7 -14 -23 -22 -20v1zM157 94c-2 8 8 16 15 18c-1 -7 -9 -14 -15 -18zM16 99c3 -7 -9 -19 -16 -18zM43 97l-13 2l-6 -36h1z M69 95l-19 1l2 -49h1zM86 47c0 13 7 45 -10 47l9 -47h1zM160 77c-2 7 6 13 12 15c-1 -7 -7 -11 -12 -15zM12 75c2 -7 -5 -15 -12 -14zM163 60c-1 6 3 10 9 12c-1 -6 -5 -9 -9 -12zM38 61c2 -5 -2 -9 -6 -12zM135 58h2l-3 -7zM70 53c3 -5 -2 -9 -6 -12zM172 51l-1 1zM99 36 c1 6 3 10 8 12c0 -6 -4 -9 -8 -12zM15 45c-5 -1 -4 -10 2 -10c6 1 4 11 -2 10zM139 38l-1 3zM73 36l-4 -10h-1zM50 31c-7 1 -7 -9 -1 -10c6 0 8 10 1 10zM30 30c1 -4 -2 -6 -5 -9c-6 -6 -16 -21 -25 -20zM171 30c0 -4 -3 -6 -6 -9c-6 -6 -16 -21 -25 -20zM105 26l-1 1z M144 27l4 -2l-9 -9zM0 21c2 3 3 4 7 4c-2 -3 -3 -5 -7 -4zM86 26c-6 -2 -5 -7 0 -10v10zM33 16c5 -6 -7 -16 -13 -15zM110 13l4 -2c-3 -5 -8 -11 -14 -10zM60 1l11 11c1 -6 -5 -12 -11 -11zM160 1c2 5 6 9 12 11c-1 -6 -6 -12 -12 -11zM133 11c-1 -5 -8 -11 -13 -10 c3 6 8 7 13 10zM40 1c2 5 6 7 11 7c-3 -4 -6 -8 -11 -7zM81 4l5 -1l-6 -2z&quot;
         id=&quot;path3099&quot; /&gt;
      style=&quot;stroke-width:1px&quot;
         unicode=&quot;Ľ&quot;
         d=&quot;M0 161c2 5 6 9 12 11c-1 -6 -6 -12 -12 -11zM0 141c4 9 22 28 32 31c-1 -10 -14 -18 -21 -25c-3 -3 -6 -7 -11 -6zM0 121c7 14 25 27 36 38c5 5 9 11 16 13c-1 -9 -11 -15 -18 -21c-6 -6 -12 -13 -19 -20c-4 -4 -9 -11 -15 -10zM58 160c4 5 8 10 14 12 c-1 -8 -7 -11 -14 -12zM81 163l11 9c-1 -6 -5 -9 -11 -9zM100 162l12 10c-1 -7 -6 -10 -12 -10zM117 159c4 5 9 11 15 13c-1 -7 -8 -13 -15 -13zM133 154c3 7 12 16 19 18c-1 -8 -11 -18 -19 -18zM143 140c0 10 19 29 29 32c-2 -11 -20 -26 -29 -32zM71 61 c-7 -4 -14 -8 -22 -9c-18 -2 -39 11 -36 32c3 15 18 19 23 31c4 8 -2 24 4 30c4 5 14 6 20 7c18 4 38 4 56 0c5 -2 14 -3 17 -7c7 -6 -1 -23 4 -31c7 -11 21 -16 23 -31c2 -20 -18 -33 -36 -31c-8 1 -15 5 -22 9l-2 -17l-10 -9l-1 -12c9 0 9 -5 0 -5c0 -9 -5 -9 -5 0 c-9 0 -9 5 0 5l-1 12l-10 9zM144 121c0 10 18 28 28 31c-2 -11 -19 -25 -28 -31zM86 150c-12 0 -28 -1 -38 -7l38 -6v-5c-15 0 -29 3 -43 8c0 -16 31 -15 43 -15v-5l-44 6l1 -11l11 -4l32 -4v-5h3c0 -9 2 -16 6 -24c3 -6 8 -12 14 -15c5 -3 10 -5 16 -6c14 -1 31 8 30 24 c-1 10 -8 18 -16 24c-4 3 -7 7 -12 8c-13 1 -28 -5 -41 -5v11c11 0 22 1 32 4c2 0 11 2 9 5s-8 1 -10 1c-10 -3 -20 -4 -31 -4v6c11 0 22 1 32 4c2 1 12 4 8 7c-2 2 -8 -1 -11 -1c-10 -3 -19 -4 -29 -4v13zM29 132c3 -9 -21 -32 -29 -31c5 12 20 22 29 31zM150 113 c6 6 13 17 22 19c-1 -7 -14 -23 -22 -20v1zM161 99c-1 6 5 11 11 13c-1 -6 -6 -10 -11 -13zM84 102c-14 0 -29 7 -43 7c-12 -1 -25 -22 -22 -33c4 -21 31 -23 46 -13c6 4 11 10 14 16c3 7 5 15 5 23zM128 108c5 -7 13 -10 17 -17c9 -13 0 -27 -14 -28c-15 -1 -27 8 -33 21 c-2 4 -6 14 -3 17c2 3 6 2 9 2c8 1 16 3 24 5zM168 85c-1 4 0 6 4 7zM5 88c1 -4 0 -8 -5 -7zM87 83c-8 -8 -19 -34 -5 -41c16 -8 16 18 13 26c-3 5 -5 10 -8 15zM86 73c5 -6 11 -24 0 -27v27zM100 1l16 18l39 34l17 19c-1 -8 -10 -14 -15 -19l-38 -38c-5 -5 -12 -15 -19 -14 zM6 69c3 -5 -1 -9 -6 -8zM0 41c2 5 11 17 17 12c-5 -5 -10 -13 -17 -12zM120 1c7 14 25 27 36 38c5 5 9 11 16 13c-1 -6 -7 -11 -11 -15l-26 -26c-4 -4 -9 -11 -15 -10zM0 21c4 8 20 27 30 26c-5 -7 -21 -27 -30 -26zM108 45l1 3zM20 1c6 12 21 23 30 32c5 5 9 10 15 13 c0 -6 -4 -9 -8 -13l-24 -24c-4 -4 -7 -9 -13 -8zM0 1c6 13 22 24 32 34c5 5 8 9 15 9c-9 -13 -22 -23 -33 -34c-4 -4 -8 -10 -14 -9zM106 23c-3 9 13 21 21 21zM71 34l4 -3c-9 -6 -16 -16 -23 -23c-4 -4 -7 -8 -12 -7c6 12 21 23 31 33zM140 1c4 9 22 28 32 31 c-1 -10 -14 -18 -21 -25c-3 -3 -6 -7 -11 -6zM60 1c3 6 7 11 14 10c-3 -5 -8 -11 -14 -10zM160 1c2 5 6 9 12 11c-1 -6 -6 -12 -12 -11zM84 0l-4 3l4 -2v-1z&quot;
         id=&quot;glyph3101&quot; /&gt;
      <g
   id="g3240">
  <g
     transform="matrix(1.054322,0,0,1.0418044,-34.862972,-11.80804)"
     id="g2918">
    <path
       style="color:#000000;fill:#ffffcc;fill-opacity:1;fill-rule:nonzero;stroke:none;stroke-width:8;marker:none;visibility:visible;display:inline;overflow:visible;enable-background:accumulate"
       d="m 692.46875,257.34375 c -6.52029,0.12696 -11.23641,7.90614 -7.1875,13.375 1.1145,1.4649 2.58061,3.86668 -0.40625,4.25 -7.39794,2.10573 -9.37046,10.63307 -7.875,17.34375 0.98613,3.54341 4.69147,5.43628 6.34375,8.34375 -6.55947,3.4108 -13.20014,7.66027 -15.6875,15 -2.59752,5.57715 -3.97905,11.71275 -3.46875,17.90625 19.57292,0 39.14583,0 58.71875,0 -1.29948,-11.595 -4.35894,-26.13944 -16.5625,-30.8125 -1.99138,-0.45713 -4.66209,-2.81421 -1.71875,-4.15625 8.31839,-5.85191 6.39364,-21.2559 -3.875,-23.875 -3.2112,-1.16492 1.79833,-4.10271 1.625,-6.5 1.94831,-6.07883 -4.0488,-11.47268 -9.90625,-10.875 z"
       id="path2913" />
    <path
       style="stroke-width:1px"
       d="m 680.3521,300.61084 c -10.12337,2.97746 -15.4828,14.29181 -17.26927,23.81969 0,2.38197 -2.38197,9.52788 1.19098,10.71886 4.16845,1.19099 9.52788,0 13.69632,0 h 30.37011 c 3.57295,0 11.90985,1.78648 14.29182,-0.59549 2.38197,-1.78648 0.59549,-7.7414 0.59549,-10.12337 -1.78648,-9.52788 -7.14591,-20.84223 -17.26928,-23.81969 5.35943,-7.7414 9.52788,-23.81969 -4.16844,-26.79715 1.19098,-2.97747 2.97746,-5.95493 2.38196,-9.52788 -1.19098,-8.93239 -14.29181,-11.31436 -19.65124,-4.76394 -4.16845,4.76394 -1.78648,9.52788 0,14.29182 -13.69632,2.97746 -9.52788,19.05575 -4.16845,26.79715 z m 40.49348,31.56109 h -55.38079 c 0,-8.93238 2.97747,-19.05575 9.52788,-25.01068 2.38197,-2.38196 8.93239,-3.57295 10.12337,-5.95492 1.19099,-1.78648 -1.78648,-2.97746 -2.97746,-4.16844 -2.97746,-1.78648 -4.16845,-5.35944 -4.16845,-8.93239 0,-4.16845 1.19099,-8.33689 4.76394,-10.71886 1.78648,-0.59549 4.76394,-1.19099 5.95492,-2.97746 1.19099,-1.19099 -2.97746,-4.76394 -3.57295,-6.55042 -1.19098,-7.7414 7.7414,-11.90984 13.69632,-7.14591 2.97747,1.78648 2.97747,6.55042 1.19099,9.52788 -0.59549,1.19099 -2.97746,2.38197 -2.38197,4.16845 0,1.78647 5.35943,2.38197 6.55041,3.57295 3.57296,2.38197 4.16845,6.55042 4.16845,10.71886 0,3.57296 -1.78648,6.55042 -4.16845,8.3369 -1.19098,1.19098 -4.16844,2.38196 -2.97746,4.16844 1.19099,2.38197 7.7414,3.57296 10.12337,5.95492 6.55042,5.95493 9.52788,16.0783 9.52788,25.01068 z"
       id="WhitePawn" />
  </g>
</g>
<g
   id="g3227">
  <path
     id="path3150"
     d="M 342.53125 133.5625 C 341.04289 133.61076 339.49604 133.72531 338.0625 133.71875 L 289.1875 133.71875 L 289.1875 134.71875 L 289.1875 135.71875 C 287.42534 143.24132 297.5894 138.83769 302.1875 140 L 349.0625 140 C 350.87038 133.87182 346.99633 133.41773 342.53125 133.5625 z M 337.78125 141.84375 C 335.04582 141.80835 331.71805 142.36528 329.28125 142.03125 L 296.75 142.03125 L 296.75 143.03125 L 296.75 144.03125 C 295.44717 151.66741 306.90028 146.54764 311.75 148.03125 L 342.28125 148.03125 C 343.83917 142.91083 341.29823 141.88926 337.78125 141.84375 z M 337.21875 175.84375 C 334.94837 175.86023 332.35824 176.17691 330.28125 176 L 296.5 176 L 296.5 177 L 296.5 178 C 295.02375 185.48667 305.84575 180.67508 310.5 182.03125 L 342.28125 182.03125 C 343.92326 176.63272 341.00272 175.81629 337.21875 175.84375 z M 342.75 182.875 C 340.01735 182.85505 336.71723 183.41037 334.3125 183.0625 L 291.3125 183.0625 L 291.3125 184.0625 L 291.3125 185.0625 C 289.68983 191.89732 298.97463 187.93141 303.15625 188.90625 C 317.85766 188.57955 332.60056 188.9514 347.3125 188.9375 C 348.83442 183.87651 346.26341 182.90066 342.75 182.875 z M 345.3125 193.78125 C 344.88447 193.79828 344.4337 193.89616 344 194.09375 C 327.83336 194.10875 311.66654 194.0606 295.5 194.125 C 291.96805 192.73239 287.20402 196.35475 290.65625 199.53125 C 300.55318 200.97856 310.88107 199.25781 320.9375 199.84375 C 329.8182 199.29872 339.07826 201.0047 347.78125 199.5625 C 350.79516 197.54622 348.30872 193.66205 345.3125 193.78125 z "
     style="color:#000000;fill:#ffffcc;fill-opacity:1;fill-rule:nonzero;stroke:#000000;stroke-width:0.1;stroke-linecap:butt;stroke-linejoin:miter;stroke-miterlimit:4;stroke-opacity:1;stroke-dasharray:none;stroke-dashoffset:0;marker:none;visibility:visible;display:inline;overflow:visible;enable-background:accumulate" />
  <path
     id="path2939"
     d="m 286.04158,122.12525 0,14.84375 9.25,7.9375 0,33.96875 -7.125,7.21875 0,9.8125 -6.6875,0 0,9.28125 76,0 0,-9.28125 -7.0625,0 0,-9.8125 -6.875,-7.21875 0,-33.96875 8.90625,-7.9375 0,-14.84375 -15.21875,0 0,6.25 -10.46875,0 0,-6.25 -14.4375,0 0,6.25 -10.65625,0 0,-6.25 -15.625,0 z m 4.625,13.0625 57.15625,0 0,3.3125 -57.15625,0 0,-3.3125 z m 7.40625,8.1875 42.71875,0 0,3.375 -42.71875,0 0,-3.375 z m -0.125,34.125 43,0 0,3.125 -43,0 0,-3.125 z m -5.15625,7.03125 53.03125,0 0,2.9375 -53.03125,0 0,-2.9375 z m -0.375,11.03125 53.78125,0 c 0.83823,0 1.5,0.66177 1.5,1.5 0,0.83823 -0.66177,1.53125 -1.5,1.53125 l -53.78125,0 c -0.83823,0 -1.5,-0.69302 -1.5,-1.53125 0,-0.83823 0.66177,-1.5 1.5,-1.5 z"
     style="stroke:#000000;stroke-width:1px;stroke-opacity:1" />
  <path
     id="path3156"
     d="m 306.35884,186.88498 c 7.16505,-0.0371 18.88967,-0.0371 26.05471,0 7.16504,0.0371 1.30273,0.0675 -13.02735,0.0675 -14.33009,0 -20.1924,-0.0304 -13.02736,-0.0675 z"
     style="color:#000000;fill:#ffffcc;fill-opacity:1;fill-rule:nonzero;stroke:#000000;stroke-width:0.1;stroke-linecap:butt;stroke-linejoin:miter;stroke-miterlimit:4;stroke-opacity:1;stroke-dasharray:none;stroke-dashoffset:0;marker:none;visibility:visible;display:inline;overflow:visible;enable-background:accumulate" />
</g>
</svg>
