<?xml version="1.0" encoding="UTF-8" standalone="no"?>
<svg
   xmlns:dc="http://purl.org/dc/elements/1.1/"
   xmlns:cc="http://creativecommons.org/ns#"
   xmlns:rdf="http://www.w3.org/1999/02/22-rdf-syntax-ns#"
   xmlns:svg="http://www.w3.org/2000/svg"
   xmlns="http://www.w3.org/2000/svg"
   xmlns:sodipodi="http://sodipodi.sourceforge.net/DTD/sodipodi-0.dtd"
   xmlns:inkscape="http://www.inkscape.org/namespaces/inkscape"
   id="svg2816"
   sodipodi:version="0.32"
   inkscape:version="0.46+devel"
   width="100%"
   height="100%"
   sodipodi:docname="pieces.svg"
   inkscape:output_extension="org.inkscape.output.svg.inkscape"><defs
   id="defs3144">
  <inkscape:perspective
     sodipodi:type="inkscape:persp3d"
     inkscape:vp_x="0 : 0.5 : 1"
     inkscape:vp_y="0 : 1000 : 0"
     inkscape:vp_z="1 : 0.5 : 1"
     inkscape:persp3d-origin="0.5 : 0.33333333 : 1"
     id="perspective3146" />
</defs>
<sodipodi:namedview
   pagecolor="#ffffff"
   bordercolor="#666666"
   borderopacity="1"
   objecttolerance="10"
   gridtolerance="10"
   guidetolerance="10"
   inkscape:pageopacity="0"
   inkscape:pageshadow="2"
   inkscape:window-width="970"
   inkscape:window-height="808"
   id="namedview3129"
   showgrid="false"
   inkscape:zoom="0.63429568"
   inkscape:cx="396.46666"
   inkscape:cy="670.65445"
   inkscape:window-x="39"
   inkscape:window-y="65"
   inkscape:current-layer="svg2816" />
<metadata
   id="metadata2818">
Created by FontForge 20080430 at Sun Apr  5 00:31:19 2009
 By Arun Persaud
Generated from MetaFont bitmap by mftrace 1.2.15, http://www.xs4all.nl/~hanwen/mftrace/ 
<rdf:RDF>
  <cc:Work
     rdf:about="">
    <dc:format>image/svg+xml</dc:format>
    <dc:type
       rdf:resource="http://purl.org/dc/dcmitype/StillImage" />
    <dc:title />
  </cc:Work>
</rdf:RDF>
</metadata>
<path
   style="stroke-width:1px"
   d="m 59.335058,154.1479 c -4.16845,-2.38197 -8.33689,-4.76394 -13.10083,-5.35943 -10.71886,-1.19099 -23.2242,6.55041 -21.43773,19.05575 1.78648,8.93239 10.71887,11.31436 13.69633,18.46027 2.38197,4.76394 -1.19099,14.29182 2.38197,17.86477 1.78647,2.38197 7.1459,2.97746 10.12337,4.16845 10.71886,2.38197 22.6287,2.38197 33.34757,0 3.57295,-0.5955 9.52787,-1.19099 11.90984,-4.16845 4.168452,-3.57295 -0.59549,-13.69632 2.38197,-18.46026 4.168452,-6.55042 12.505342,-9.52789 13.696322,-18.46027 1.19099,-11.90985 -10.71886,-19.65125 -21.437722,-18.46026 -4.76394,0.59549 -8.93238,2.97746 -13.10083,5.35943 l -1.19098,-10.12337 -5.95493,-5.35943 -0.59549,-7.14591 c 5.35943,0 5.35943,-2.97746 0,-2.97746 0,-5.35943 -2.97746,-5.35943 -2.97746,0 -5.35943,0 -5.35943,2.97746 0,2.97746 l -0.59549,7.14591 -5.95493,5.35943 z m 10.71886,24.41518 c 0,-13.10083 8.93238,-26.20166 22.62871,-26.79715 11.909842,-0.59549 20.246742,10.12337 14.291812,20.84223 -2.38197,4.16845 -8.932382,11.31436 -13.696322,12.50535 -3.57295,0.59549 -7.7414,-1.78648 -11.31435,-1.78648 -6.55042,-1.19099 -13.10083,-1.78648 -19.65125,-1.19099 -5.35943,0.5955 -14.29182,4.16845 -19.05575,2.38197 -7.14591,-2.38197 -17.26928,-13.10083 -14.88731,-21.43773 2.38197,-11.31435 16.07829,-13.10083 25.01068,-8.93238 8.93238,4.76394 13.69632,14.29181 13.69632,24.41518 l 2.97746,0 z m -26.20166,3.57296 c 4.76394,-1.19098 9.52788,-2.38197 14.29181,-2.97746 1.78648,0 4.16845,0.59549 5.35943,-1.19099 1.78648,-1.78648 -0.59549,-7.7414 -1.78647,-10.12337 -3.57296,-7.7414 -10.71886,-13.10083 -19.65125,-12.50534 -8.33689,0.5955 -13.69632,8.93239 -8.33689,16.67379 2.38197,4.16844 7.14591,5.95492 10.12337,10.12337 z m 0.59549,11.31436 c 0.59549,-2.38197 7.14591,-2.97746 8.93239,-2.97746 9.52787,-1.78648 19.65124,-2.38197 29.17912,-0.5955 1.78648,0.5955 10.71886,1.19099 10.12337,4.16845 -0.59549,2.97746 -8.93239,-0.59549 -10.71886,-0.59549 -9.52788,-1.78648 -20.24674,-1.78648 -29.77462,0.59549 -1.19098,0 -8.33689,2.38197 -7.7414,-0.59549 z m 0,7.7414 c 0.59549,-2.38197 7.14591,-2.97746 8.93239,-3.57296 9.52787,-2.38197 19.65124,-2.38197 29.17912,-0.59549 1.78648,0.59549 10.71886,1.78648 10.12337,4.76394 -0.59549,2.97746 -8.93239,-0.59549 -10.71886,-1.19098 -9.52788,-1.78648 -20.24674,-1.78648 -29.77462,0.59549 -1.19098,0.59549 -8.33689,3.57295 -7.7414,0 z m 23.81969,-33.94307 c -1.78647,-2.97746 -2.97746,-5.95492 -4.76394,-8.93238 -1.78647,-4.76394 -1.78647,-20.24674 7.7414,-15.4828 8.3369,4.16844 1.78648,19.65124 -2.97746,24.41518 z m 0.5955,-5.95492 c 0.59549,-1.78648 1.78647,-4.16845 2.38196,-5.95493 0.5955,-2.38197 1.19099,-12.50533 -4.16844,-9.52787 -4.76394,2.97746 -0.59549,12.50534 1.78648,15.4828 z m 24.41518,20.84223 c 2.97746,-4.16845 7.741402,-5.95493 10.123372,-10.12337 5.35943,-7.7414 0,-16.07829 -8.336892,-16.67379 -8.93239,-0.59549 -16.0783,4.76394 -19.65125,12.50534 -1.19098,2.38197 -3.57295,8.33689 -1.78648,10.12337 1.19099,1.78648 3.57296,1.19099 5.35943,1.19099 4.76394,0.59549 9.52788,1.78648 14.29182,2.97746 z"
   id="BlackKing" />
<path
   style="stroke-width:1px"
   d="m 168.20357,168.21641 c -2.97746,-7.7414 -8.93239,-13.69632 -11.31436,-21.43772 -1.19098,-3.57296 1.78648,-6.55042 -0.59549,-10.12337 -1.78648,-2.97747 -6.55041,-4.16845 -9.52788,-1.19099 -5.95492,6.55042 3.57296,8.93239 4.76394,13.10083 3.57296,8.93239 2.38197,19.65125 5.95493,28.58364 1.19098,3.57294 4.16845,5.95491 5.95492,8.93237 1.78648,2.38197 2.97746,7.14591 1.19099,10.12337 -1.19099,2.97747 -5.35944,7.14591 -2.97746,10.71887 2.38196,3.57295 10.12336,2.97746 14.29181,3.57295 13.69632,1.78648 33.94306,3.57296 47.04389,-1.78648 7.14591,-2.97746 -1.78648,-12.50534 -0.59549,-18.46026 1.19098,-5.35943 5.95492,-8.33689 7.7414,-13.69632 2.38197,-8.93238 1.78648,-19.05575 5.35943,-27.98814 1.19098,-3.57295 5.95492,-3.57295 6.55042,-8.33689 0,-7.14591 -10.12337,-8.93238 -12.50534,-1.78648 -0.5955,2.97746 1.78647,5.35943 1.19098,7.7414 -1.78648,7.14591 -8.33689,16.0783 -12.50534,22.03322 l -1.78647,-30.37011 c 7.7414,-3.57295 5.35943,-15.4828 -2.97747,-11.90985 -2.38196,0.5955 -4.16844,3.57296 -4.16844,6.55042 0.59549,2.38197 2.97746,3.57295 2.97746,5.95492 -0.59549,9.52788 -8.33689,19.05576 -9.52788,28.58363 h -0.59549 c -1.19098,-10.12337 -5.95492,-20.24673 -5.95492,-30.3701 0,-2.97747 3.57295,-4.76394 3.57295,-8.3369 0,-2.97746 -2.97746,-5.95492 -5.95492,-5.95492 -3.57295,0 -6.55042,2.38197 -6.55042,5.95492 0,3.57296 3.57296,5.35943 3.57296,8.3369 0,10.12337 -4.76394,20.24673 -5.95492,30.3701 h -0.5955 c -1.19098,-9.52787 -8.93238,-19.05575 -9.52787,-28.58363 0,-2.38197 2.38197,-3.57295 2.97746,-5.95492 0,-2.97746 -1.19099,-5.95492 -4.16845,-6.55042 -8.33689,-3.57295 -10.71886,8.3369 -2.97746,11.90985 l -1.78648,30.37011 h -0.59549 z m 52.99881,32.15658 c 1.19099,0 1.19099,2.38197 0,2.38197 -1.19098,0 -1.19098,-2.38197 0,-2.38197 z m -51.21233,-4.76394 c -4.16845,-1.78648 5.95492,-3.57295 7.14591,-3.57295 10.12336,-1.19099 20.24673,-1.78648 30.3701,-0.59549 2.38197,0.59549 7.7414,0 9.52788,2.38196 2.97746,2.97747 -4.76394,1.78648 -5.95492,1.78648 -8.3369,-1.19098 -17.86477,-1.78648 -26.20166,-1.19098 -3.57296,0.59549 -11.31436,2.97746 -14.88731,1.19098 z m -1.19099,-8.93238 c -4.76394,-1.19099 5.35943,-4.16845 6.55042,-4.16845 11.31435,-1.19098 22.03321,-1.78648 33.34757,0 2.38197,0 8.33689,0 10.12337,2.38197 2.38196,2.97746 -7.14591,1.19098 -8.3369,1.19098 -8.33689,-1.19098 -17.26927,-1.78647 -25.60616,-1.19098 -4.16845,0.59549 -11.90985,2.97746 -16.0783,1.78648 z"
   id="BlackQueen" />
<path
   style="stroke-width:1px"
   d="m 288.78242,197.38582 c -1.78648,0 -4.76394,-0.5955 -5.95493,0.59549 -1.78647,1.19098 -1.78647,7.7414 0,8.33689 4.16845,2.38197 13.10083,0.59549 17.86477,0.59549 h 35.72954 c 4.76394,0 11.90985,1.19099 16.67379,0 2.38197,-1.19098 2.97746,-7.1459 0.59549,-8.93238 -1.19099,-1.19099 -4.16845,-0.59549 -5.95492,-0.59549 0,-2.97747 0.59549,-6.55042 -0.5955,-8.93239 -1.19098,-2.97746 -4.76393,-4.16844 -5.95492,-7.7414 -1.78648,-7.7414 -0.59549,-20.24674 0,-27.98814 0.59549,-4.16844 5.35943,-5.95492 7.14591,-8.93238 2.38197,-2.97746 1.78648,-11.31435 1.19098,-14.29182 -1.19098,-2.97746 -11.90984,-2.97746 -13.69632,-1.19098 -1.78648,1.19098 -1.19098,4.16845 -1.19098,5.95492 h -8.93239 c 0,-1.78647 0.59549,-4.16844 -0.59549,-5.35943 -1.19099,-1.78648 -12.50534,-1.78648 -13.69633,0 -1.19098,1.19099 -0.59549,3.57296 -0.59549,5.35943 h -8.93238 c 0,-1.78647 0.59549,-4.76394 -1.19099,-5.95492 -1.78647,-1.78648 -12.50533,-1.78648 -13.69632,1.19098 -0.59549,2.97747 -1.19098,11.31436 1.19099,14.29182 1.78647,2.97746 6.55041,4.76394 7.1459,8.93238 0.59549,7.7414 1.78648,20.24674 0,27.98814 -1.19098,3.57296 -4.76394,4.76394 -5.95492,7.7414 -1.19098,2.38197 -0.59549,5.95492 -0.59549,8.93239 z m 4.16844,2.97746 c -1.78647,-0.59549 -0.59549,-2.38197 1.19099,-2.97746 11.90984,-1.78648 25.01068,0 36.92052,0 2.97746,0 10.12337,-1.19099 12.50534,0.59549 4.16845,2.97746 -8.33689,2.97746 -9.52788,2.97746 h -29.17912 c -2.97746,0 -8.93239,1.19098 -11.90985,-0.59549 z m 1.78648,-10.12337 c -4.76394,-1.78648 5.35943,-2.97746 6.55042,-2.97746 h 29.77461 c 2.38197,0 9.52788,-1.19099 11.31436,1.19098 2.97746,2.97746 -8.93239,2.38197 -10.12337,2.38197 h -26.20167 c -2.97746,0 -8.33689,1.19099 -11.31435,-0.59549 z m 4.76394,-6.55042 c -1.78648,-0.59549 -1.19099,-2.38197 0.59549,-2.97746 8.33689,-2.38197 20.24674,0 28.58363,0 2.38197,0 7.7414,-1.19098 8.93239,1.19099 2.38197,2.97746 -6.55042,2.38197 -7.7414,2.38197 h -20.84223 c -2.97747,0 -7.14591,0.59549 -9.52788,-0.5955 z m 0,-32.75207 c -1.78648,-0.5955 -1.19099,-2.38197 0.59549,-2.97746 8.33689,-2.38197 20.24674,0 28.58363,0 2.38197,0 7.7414,-1.19099 8.93239,1.19098 2.38197,2.97746 -6.55042,2.38197 -7.7414,2.38197 h -20.84223 c -2.97747,0 -7.14591,0.59549 -9.52788,-0.59549 z m -7.14591,-7.7414 c -1.78648,-0.5955 -0.59549,-2.38197 1.19099,-2.97746 11.90984,-1.78648 26.20166,0 38.1115,0 2.97747,0 10.12337,-1.19099 12.50534,0.59549 4.16845,2.97746 -8.33689,2.97746 -9.52787,2.97746 h -29.77462 c -3.57295,0 -9.52788,1.19098 -12.50534,-0.59549 z"
   id="BlackRook" />
<path
   style="stroke-width:1px"
   d="m 438.81393,196.74872 c -7.7414,2.97746 -12.50534,2.97746 -20.84223,2.97746 -5.35943,0 -11.90985,-0.59549 -16.67379,2.97747 -2.38196,2.38196 1.78648,8.33689 4.16845,8.33689 2.97746,0.59549 5.95493,-1.78648 8.93239,-1.78648 6.55041,-0.59549 12.50534,1.78648 19.05575,0 2.97746,-0.59549 6.55042,-3.57295 9.52787,-3.57295 2.97746,0 7.14591,2.97746 10.12337,3.57295 4.76394,1.19099 9.52788,0 14.29182,0 4.16844,0 10.71886,2.97747 14.29181,1.78648 1.78648,-0.59549 4.76394,-4.76394 4.16845,-7.14591 -0.59549,-2.97746 -7.14591,-3.57295 -9.52788,-4.16845 -10.71886,-1.19098 -19.05575,2.97747 -28.58363,-3.57295 2.97746,0 16.67378,0 16.67378,-4.16846 0.5955,-4.16844 -4.16844,-8.33689 -2.97746,-13.10083 0.5955,-4.76394 4.76394,-8.33689 5.95493,-13.69632 2.97746,-13.69633 -8.3369,-23.8197 -19.65125,-29.17913 1.19098,-1.78647 2.38197,-4.16844 2.38197,-6.55041 -0.59549,-8.93239 -14.8873,-7.7414 -13.69632,1.19098 0.59549,1.78648 1.78648,3.57296 2.38197,5.35943 -11.31435,5.35943 -22.62871,15.4828 -19.65124,29.17913 1.19098,5.35943 5.35943,8.93238 5.95492,13.69632 1.19098,4.76394 -3.57296,8.93239 -2.97746,13.10083 0,4.16846 13.69632,4.16846 16.67378,4.16846 l 0,0.59549 z m 20.24673,-9.52789 c -0.59549,1.78648 -5.35943,0.5955 -6.55041,0.5955 -6.55042,-0.5955 -13.10083,-0.5955 -19.65124,0 -1.19099,0 -5.95492,1.19098 -5.35943,-1.19099 0.59549,-2.38197 4.16844,-2.38197 5.95492,-2.38197 6.55042,-0.59549 12.50533,-0.59549 19.05575,0 1.78648,0 7.14591,0 6.55041,2.97746 z m -2.97746,-10.12337 c 0,2.38197 -3.57295,1.78648 -4.76394,1.78648 -5.35943,-0.59549 -10.71885,-0.59549 -16.07828,0 -1.19099,0 -4.16845,0.59549 -4.76394,-1.19098 0,-2.38197 4.16845,-2.38197 5.35943,-2.38197 5.35943,-0.5955 9.52787,-0.5955 14.8873,0 1.19099,0 4.76394,0 5.35943,1.78647 z m -11.31435,-20.24674 c 8.33689,0 8.33689,3.57296 0,3.57296 0,8.33689 -3.57295,8.33689 -3.57295,0 -7.7414,0 -7.7414,-3.57296 0,-3.57296 0,-8.33689 3.57295,-8.33689 3.57295,0 z"
   id="BlackBishop" />
<path
   style="stroke-width:1px"
   d="m 579.84034,133.84303 c -2.38197,-1.78647 -4.76394,-8.33689 -7.7414,-8.93238 -3.57296,-0.59549 -4.76394,7.14591 -7.7414,8.33689 -4.76394,1.78648 -9.52788,1.78648 -14.29184,4.76394 -14.8873,9.52788 -19.65124,27.98814 -22.03321,44.06643 -1.19099,6.55042 -1.78648,13.10083 -1.78648,19.65125 0,1.78648 -0.59549,5.35943 0.59549,6.55041 1.78648,2.38198 10.71887,1.19099 13.69633,1.19099 h 35.72955 c 4.16845,0 11.31436,1.78648 10.71886,-4.76394 -2.97746,-14.88731 -20.24673,-21.43772 -20.84223,-36.92052 5.35943,4.16844 11.90985,5.95492 16.67379,10.12337 3.57295,2.97746 6.55041,8.93238 10.12337,11.31435 2.38197,1.19098 4.76394,0 5.95492,-2.38197 5.95492,1.78648 11.90985,-2.38197 11.31435,-8.93238 -0.59549,-7.74141 -5.95492,-13.69633 -9.52787,-20.24675 -2.38197,-4.16844 -1.78648,-8.33689 -3.57296,-12.50533 -1.19098,-2.97747 -4.16844,-4.76394 -5.35943,-7.7414 -1.78647,-2.38197 2.38197,-9.52788 -0.59549,-11.90985 -2.97746,-2.38197 -10.12337,5.95492 -11.31435,8.33689 z m -12.50534,2.97746 c -1.78648,3.57296 -5.35943,2.97747 -8.33689,4.76394 -4.16845,1.19099 -7.14593,4.76394 -10.12339,7.7414 -8.93239,11.31436 -13.10083,29.17913 -13.10083,43.47094 0,5.35943 1.19098,13.69633 -5.95492,13.69633 0,-19.65125 1.78647,-42.27996 14.8873,-58.35825 4.76394,-5.95493 14.29184,-13.10083 22.62873,-11.31436 z m 30.9656,47.63939 -1.78648,0.59549 -1.78648,-5.95492 h 0.5955 z m 4.16844,-5.95492 c -2.97746,-0.59549 -4.16844,-5.35943 -0.59549,-5.35943 2.97746,0 3.57296,5.95492 0.59549,5.35943 z m -36.32503,-13.10083 h -1.19098 l -1.78648,-6.55042 c 2.38197,1.19098 2.97746,4.16845 2.97746,6.55042 z m 25.01068,-10.71887 -1.19098,-2.97746 c -3.57296,0.59549 -5.35943,-1.19098 -4.76394,-4.76394 l -2.97746,-0.59549 v -0.59549 c 5.35943,-1.19099 10.12337,3.57295 8.93238,8.93238 z m -4.76394,-13.10083 c -1.19098,0 -2.97746,0 -4.16844,-0.59549 -11.31436,-3.57295 2.97746,-5.95492 4.16844,0.59549 z"
   id="BlackKnight" />
<path
   style="stroke-width:1px"
   d="m 684.52055,145.34451 c -1.78648,-4.76394 -4.16845,-9.52787 0,-14.29181 5.35943,-6.55042 18.46026,-4.16845 19.65124,4.76394 0.5955,3.57295 -1.19098,6.55041 -2.38196,9.52787 13.69632,2.97746 9.52787,19.05576 4.16844,26.79716 10.12337,2.97746 15.4828,14.29182 17.26928,23.81969 0,2.38197 1.78648,8.33689 -0.59549,10.12337 -2.38197,2.38197 -10.71887,0.59549 -14.29182,0.59549 l -30.37011,0 c -4.16844,0 -9.52787,1.19099 -13.69632,0 -3.57295,-1.19098 -1.19098,-8.33689 -1.19098,-10.71886 1.78647,-9.52787 7.1459,-20.84223 17.26927,-23.81969 -5.35943,-7.7414 -9.52787,-23.8197 4.16845,-26.79716 z"
   id="BlackPawn" />
<path
   style="stroke-width:1px"
   d="m 59.335058,282.61707 c -4.16845,-2.38196 -8.33689,-4.76393 -13.10083,-5.35943 -10.71886,-1.19098 -23.2242,6.55042 -21.43773,19.05576 1.78648,8.93238 10.71887,11.31435 13.69633,18.46026 2.38197,4.76394 -1.19099,14.29181 2.38197,17.86477 2.38197,2.97746 8.33689,3.57295 11.90984,4.16844 10.71886,2.38197 22.62871,2.38197 33.34757,0 2.97746,-1.19098 8.33689,-1.78647 10.12337,-4.16844 4.168452,-3.57296 -0.59549,-13.69632 2.38197,-18.46026 4.168452,-6.55042 12.505342,-9.52788 13.696322,-18.46026 1.19099,-11.90985 -10.71886,-19.65125 -21.437722,-18.46027 -4.76394,0.5955 -8.93238,2.97747 -13.10083,5.35943 l -1.19098,-10.12336 -5.95493,-5.35943 -0.59549,-7.14591 c 5.35943,0 5.35943,-2.97746 0,-2.97746 0,-5.35943 -2.97746,-5.35943 -2.97746,0 -5.35943,0 -5.35943,2.97746 0,2.97746 l -0.59549,7.14591 -5.95493,5.35943 z m 32.15658,49.42587 c -13.69632,2.97746 -32.75207,7.7414 -45.8529,-0.5955 16.67378,-3.57295 29.17912,-3.57295 45.8529,0 v 0.5955 z m -48.23487,-2.38197 c -2.38197,-5.95493 5.95492,-6.55042 10.12337,-7.7414 10.12336,-1.78648 20.84223,-1.78648 30.9656,0 5.35943,1.19098 10.12336,1.19098 10.12336,7.7414 -16.67378,-5.35943 -35.13404,-7.14591 -51.21233,0 z m 51.80783,-7.7414 c -10.12337,-2.97746 -21.43773,-5.35943 -32.15659,-4.16845 -7.14591,0.59549 -13.69632,2.97746 -20.84223,3.57295 0,-1.78647 -0.59549,-5.35943 0.59549,-6.55041 1.78648,-2.38197 7.14591,-2.97746 9.52788,-2.97746 10.12337,-2.38197 19.65125,-2.38197 29.77462,-0.59549 3.57295,0.59549 9.52787,0.59549 11.90984,2.97746 1.78648,1.78647 1.19099,5.35943 1.19099,7.7414 z m -27.98814,-14.88731 c -8.33689,0 -17.26928,4.16845 -25.60617,4.16845 -7.14591,-0.5955 -14.88731,-13.10084 -13.10083,-19.65125 2.38197,-12.50534 18.46026,-13.69632 27.39264,-7.7414 3.57296,2.38197 6.55042,5.95492 8.3369,9.52788 1.78647,4.16844 2.97746,8.93238 2.97746,13.69632 z m 2.97746,0 c 0,-4.76394 1.19098,-9.52788 2.97746,-13.69632 1.78648,-3.57296 4.76394,-7.14591 8.33689,-9.52788 8.93239,-5.95492 25.010682,-4.76394 27.392652,7.7414 1.78648,6.55041 -5.95492,19.05575 -13.100832,19.65125 -8.33689,0 -17.26928,-4.16845 -25.60617,-4.16845 z m -1.19098,-10.12337 c -3.57296,-5.95492 -10.12337,-17.86477 -4.76394,-24.41518 7.1459,-7.7414 11.31435,5.35943 10.12337,10.71886 -0.5955,4.76394 -4.16845,8.93238 -5.35943,13.69632 z"
   id="WhiteKing" />
<path
   style="stroke-width:1px"
   d="m 234.82082,274.87567 c 7.14591,-0.59549 8.93239,-11.90984 0.5955,-12.50533 -2.97746,0 -5.35943,1.78647 -5.95493,4.76393 -0.59549,2.97747 1.78648,5.35944 1.19099,7.7414 -1.78648,7.7414 -8.33689,16.0783 -12.50534,22.62871 l -1.78648,-31.56109 c 6.55042,-1.19098 7.14591,-10.71886 0,-11.90985 -6.55041,-0.59549 -9.52787,8.3369 -3.57295,11.31436 l -10.12337,30.37011 -0.59549,0 c -1.19099,-7.14591 -2.97746,-13.69633 -4.16845,-20.84224 -0.59549,-2.97746 -2.38197,-7.1459 -1.78647,-10.12336 0,-2.97747 3.57295,-4.16845 3.57295,-7.14591 0,-3.57296 -2.38197,-6.55042 -5.95492,-6.55042 -3.57296,0 -6.55042,2.38197 -6.55042,5.95493 0,3.57295 3.57295,4.76393 3.57295,8.33689 0,9.52787 -4.16844,20.84223 -5.95492,30.37011 l -0.59549,0 -10.12337,-30.37011 c 5.95492,-2.97746 2.97746,-11.90985 -3.57295,-11.31436 -7.14591,1.19099 -6.55042,10.71887 0,11.90985 l -1.78648,31.56109 c -4.16845,-6.55041 -10.71886,-14.88731 -12.50534,-22.62871 -0.59549,-2.38196 1.78648,-4.76393 1.19099,-7.7414 -0.5955,-2.97746 -2.97747,-4.76393 -5.95493,-4.76393 -8.33689,0.59549 -6.55041,11.90984 0.5955,12.50533 0.59549,9.52788 1.78647,22.62871 5.35943,31.5611 2.38197,4.76394 6.55041,7.7414 7.7414,13.69632 1.19098,5.35943 -6.55042,11.31435 -2.97747,16.07829 2.38197,2.38197 8.3369,2.38197 11.90985,2.97746 11.90985,1.78648 24.41519,1.78648 36.92052,0 3.57296,-0.59549 11.31436,0 13.69633,-2.97746 3.57295,-4.76394 -4.16845,-10.71886 -2.97747,-16.07829 1.19099,-5.95492 5.95493,-8.93238 7.7414,-14.29182 2.97747,-8.93238 4.76394,-21.43772 5.35943,-30.9656 z m 2.97747,-5.95492 c 0,3.57296 -5.35943,2.97746 -5.35943,-0.59549 0.59549,-4.16845 5.95492,-2.97746 5.35943,0.59549 z m -7.14591,13.10083 -3.57296,21.43773 -7.7414,-1.19099 10.71887,-20.24674 0.59549,0 z m -5.35943,24.41519 -5.35943,6.55041 -11.90985,-1.78647 -20.24674,-0.5955 -20.84223,2.38197 -5.35943,-6.55041 c 5.95493,-3.57296 16.07829,-2.38197 22.62871,-2.38197 2.97746,0 5.95492,-1.78648 8.93238,-1.78648 2.97747,-0.59549 5.35944,1.78648 8.3369,1.78648 7.1459,0.59549 17.26927,-1.78648 23.81969,2.38197 z m -61.33571,27.98814 c 1.78648,-4.16845 8.33689,-3.57296 12.50534,-4.16845 11.90985,-1.78648 23.2242,-1.78648 35.13404,0 3.57296,0.59549 9.52788,0 11.31436,4.16845 -19.05575,4.76393 -39.89799,3.57295 -58.95374,0 z m 55.97628,-6.55042 -19.65125,-1.78648 -33.34757,2.38197 c 1.78648,-4.76394 7.14591,-4.16844 11.90985,-4.76394 10.12337,-0.59549 20.24674,-1.19098 30.37011,0 4.16844,0.5955 8.33689,0.5955 10.71886,4.16845 z m -0.5955,-11.90985 c 0,1.78648 0,5.35943 -2.38196,5.95493 -4.76394,1.19098 -11.90985,-1.78648 -16.67379,-1.78648 -7.14591,0 -13.69632,0 -20.84223,0.59549 -2.97746,0 -6.55041,1.78648 -9.52788,1.19099 -2.38196,-0.5955 -2.38196,-4.16845 -2.38196,-5.95493 16.07829,-3.57295 35.72953,-3.57295 51.80782,0 z m -1.19098,-54.78529 c -1.19098,3.57296 -6.55042,1.78648 -5.35943,-1.78648 1.19098,-3.57295 6.55041,-1.78647 5.35943,1.78648 z m -4.16845,11.31436 1.19099,29.17912 -11.31435,-0.59549 9.52787,-28.58363 0.59549,0 z m -20.24673,-2.97747 5.95492,30.9656 -5.95492,-1.78647 -6.55042,1.78647 5.95492,-30.9656 0.5955,0 z m 2.38197,-11.31435 c -1.19099,3.57295 -6.55042,1.78648 -5.35944,-1.78648 1.19099,-3.57295 6.55042,-1.78647 5.35944,1.78648 z m -13.10084,42.27995 -11.31435,1.19099 1.19099,-29.17912 0.59549,0 z m -8.93238,-39.30249 c -1.19098,3.57296 -6.55041,1.78648 -5.35943,-1.78648 1.19098,-3.57295 6.55042,-1.78647 5.35943,1.78648 z m -17.26928,20.84223 10.71887,20.24674 -7.7414,1.19099 -3.57296,-21.43773 0.59549,0 z m -2.97746,-12.50534 c -1.19098,3.57296 -5.95492,1.78648 -4.76394,-1.78647 1.19099,-3.57296 5.95493,-1.78648 4.76394,1.78647 z"
   id="WhiteQueen" />
<path
   style="stroke-width:1px"
   d="m 288.78242,325.85499 c -1.78648,0 -4.76394,-0.59549 -5.95493,0.59549 -1.78647,1.19099 -1.78647,7.7414 0,8.3369 4.16845,2.38196 13.10083,0.59549 17.86477,0.59549 h 35.72954 c 4.76394,0 11.90985,1.19098 16.67379,0 2.38197,-1.19099 2.97746,-7.14591 0.59549,-8.93239 -1.19099,-1.19098 -4.16845,-0.59549 -5.95492,-0.59549 0,-2.97746 0.59549,-6.55041 -0.5955,-8.93238 -1.19098,-2.97747 -4.76393,-4.16845 -5.95492,-7.7414 -1.78648,-7.7414 -0.59549,-20.24674 0,-27.98814 0.59549,-4.16845 5.35943,-5.95493 7.14591,-8.93239 2.38197,-2.97746 1.78648,-11.31435 1.19098,-14.29181 -1.19098,-2.97746 -11.90984,-2.97746 -13.69632,-1.19099 -1.78648,1.19099 -1.19098,4.16845 -1.19098,5.95493 h -8.93239 c 0,-1.78648 0.59549,-4.16845 -0.59549,-5.35943 -1.19099,-1.78648 -12.50534,-1.78648 -13.69633,0 -1.19098,1.19098 -0.59549,3.57295 -0.59549,5.35943 h -8.93238 c 0,-1.78648 0.59549,-4.76394 -1.19099,-5.95493 -1.78647,-1.78647 -12.50533,-1.78647 -13.69632,1.19099 -0.59549,2.97746 -1.19098,11.31435 1.19099,14.29181 1.78647,2.97746 6.55041,4.76394 7.1459,8.93239 0.59549,7.7414 1.78648,20.24674 0,27.98814 -1.19098,3.57295 -4.76394,4.76393 -5.95492,7.7414 -1.19098,2.38197 -0.59549,5.95492 -0.59549,8.93238 z m 63.12218,6.55042 h -67.29063 v -3.57296 h 67.29063 v 3.57296 z m -7.14591,-6.55042 h -52.99881 v -6.55041 h 52.99881 v 6.55041 z m -2.38196,-9.52788 h -48.23488 c 2.97746,-4.16844 5.95492,-3.57295 10.71886,-3.57295 h 25.60617 c 4.76394,0 8.93238,-0.59549 11.90985,3.57295 z m -4.16845,-6.55041 h -39.89799 v -30.37011 h 39.89799 v 30.37011 z m 5.35943,-37.51602 c -2.97746,4.16845 -6.55042,4.16845 -11.31435,4.16845 h -26.20167 c -5.35943,0 -9.52787,0.59549 -13.10083,-4.16845 h 50.61685 z m 2.97746,-2.97746 H 289.9734 v -10.12337 h 8.93239 c 0,1.78648 -0.5955,4.16845 1.19098,5.35943 1.78648,1.78648 10.71886,1.78648 12.50534,0 1.78648,-1.19098 1.19098,-3.57295 1.19098,-5.35943 h 8.93239 c 0,1.78648 -0.59549,4.16845 1.19098,5.35943 1.78648,1.78648 10.71887,1.78648 12.50534,0 1.78648,-1.19098 1.19099,-3.57295 1.19099,-5.35943 h 8.93238 v 10.12337 z"
   id="WhiteRook" />
<path
   style="stroke-width:1px"
   d="m 439.39028,264.2579 c -1.19098,-1.19098 -2.38196,-2.38197 -2.38196,-4.16844 -3.57296,-11.31436 16.07829,-11.31436 12.50533,0 0,1.78647 -1.19098,2.97746 -2.38197,4.16844 12.50534,4.76394 23.2242,16.67379 20.24674,30.37011 -1.19098,4.16845 -5.95492,8.33689 -6.55041,12.50534 -0.59549,3.57295 5.95492,10.71886 2.97746,13.69632 -2.97746,2.97746 -11.90985,2.38197 -15.4828,2.97746 l 0,0.5955 c 10.12337,4.76394 17.86477,1.78647 27.98814,2.97746 2.97746,0.59549 8.33689,1.78648 10.12337,4.16844 1.19098,2.97746 -2.97746,8.33689 -5.35943,8.33689 -2.97747,0.59549 -6.55042,-1.78648 -9.52788,-1.78648 -8.93239,-0.59549 -20.84223,2.97747 -27.98814,-4.16844 l -0.59549,0 c -7.14591,7.14591 -19.05576,3.57295 -27.98814,4.16844 -2.97746,0 -6.55042,2.38197 -9.52788,1.78648 -2.38197,0 -6.55041,-5.35943 -5.35943,-8.33689 1.78648,-2.38196 7.14591,-3.57295 10.12337,-4.16844 10.12337,-1.19099 17.86477,1.78648 27.98814,-2.97746 l 0,-0.5955 c -3.57295,-0.59549 -12.50534,0 -15.4828,-2.97746 -2.97746,-2.97746 3.57295,-10.12337 2.97746,-13.69632 -0.59549,-4.16845 -5.35943,-8.33689 -6.55041,-12.50534 -2.97747,-13.69632 7.7414,-25.60617 20.24673,-30.37011 z m 2.97747,-10.12337 c -4.76394,1.19099 -2.97747,8.3369 1.78647,7.7414 4.76394,-1.19098 2.97746,-8.33689 -1.78647,-7.7414 z m 1.19098,11.31436 c -2.97746,0 -5.95492,2.97746 -8.33689,4.16844 -7.7414,5.35944 -14.88731,11.31436 -13.69632,21.43773 0.59549,4.16844 2.97746,12.50534 8.33689,13.10083 6.55041,1.19098 13.69632,-1.19099 20.84223,-0.59549 2.97746,0.59549 6.55041,1.78647 8.93238,-0.5955 11.90985,-11.31435 2.97746,-25.60617 -7.7414,-32.75207 -2.38197,-1.78648 -5.35943,-4.16845 -8.33689,-4.76394 z m -1.78648,19.65124 c 0,-8.33689 2.97747,-8.33689 2.97747,0 8.33689,0 8.33689,2.97747 0,2.97747 0,8.33689 -2.97747,8.33689 -2.97747,0 -8.33689,0 -8.33689,-2.97747 0,-2.97747 z m 17.26928,28.58364 c 0,-1.78648 -0.59549,-4.76394 -2.38197,-5.95493 -1.78648,-0.59549 -4.16844,-0.59549 -5.95492,-1.19098 -5.35943,-0.59549 -16.07829,-1.78648 -20.84223,1.19098 -1.78648,1.19099 -2.38197,4.16845 -2.38197,5.95493 l 31.56109,0 z m 2.38197,5.35943 c -1.78648,-2.97747 -5.35943,-2.97747 -8.33689,-2.97747 -6.55042,-0.59549 -13.10083,-0.59549 -19.65125,0 -2.97746,0 -6.55041,0 -8.33689,2.97747 12.50534,1.78647 23.81969,1.78647 36.32503,0 z m 22.03322,13.69631 c -9.52788,-3.57294 -19.05576,0 -28.58364,-2.38196 -3.57295,-0.59549 -8.33689,-5.95492 -11.90984,-5.35943 -4.16845,0.59549 -7.7414,5.35943 -12.50534,5.95492 -9.52788,1.19098 -17.86477,-1.78647 -27.39265,1.78647 l 2.38197,4.76394 c 8.93239,-3.57295 17.26928,-0.59549 26.20166,-1.78648 3.57296,-0.59549 8.3369,-4.16844 11.90985,-4.16844 4.16845,0.59549 7.7414,3.57295 12.50534,4.16844 8.93238,0.5955 16.67378,-1.78647 25.01068,1.78648 z"
   id="WhiteBishop" />
<path
   style="stroke-width:1px"
   d="m 599.46479,315.13427 c 5.95492,1.78648 11.90984,-2.38197 11.31435,-8.93238 -0.59549,-7.7414 -5.95492,-13.69633 -9.52788,-20.24674 -2.38197,-4.16845 -1.78647,-8.33689 -3.57295,-12.50534 -1.19099,-2.97746 -4.16845,-4.76394 -5.35943,-7.7414 -1.78648,-2.38197 2.38197,-9.52788 -0.59549,-11.90985 -2.97747,-2.38197 -10.12337,5.95493 -11.31436,8.3369 -4.76394,-3.57296 -7.14591,-14.29182 -11.90984,-4.16845 -0.5955,1.19098 -1.19099,2.38197 -1.19099,3.57295 -27.39263,2.38197 -38.11149,29.17913 -40.49346,53.59431 -0.5955,5.35943 -1.19099,10.71886 -1.19099,16.07829 0,1.78648 -0.59549,4.76394 1.19099,5.95493 2.38197,1.78647 9.52787,0.59549 12.50533,0.59549 l 34.53855,0 c 2.97746,0 12.50534,1.78648 13.69632,-1.78648 1.19098,-4.76394 -2.97746,-10.12337 -5.35943,-13.69632 -5.95492,-8.33689 -15.4828,-14.88731 -15.4828,-26.20166 4.76394,4.16844 11.31435,5.95492 16.67378,10.12337 3.57296,2.97746 6.55042,8.93238 10.12337,11.31435 2.38197,1.19099 4.76394,0 5.95493,-2.38197 z m -10.12337,-57.16726 c 0,2.38197 -1.19099,5.95492 -0.5955,7.7414 0.5955,2.97746 4.16845,4.76394 5.35944,7.7414 1.78647,3.57295 1.78647,8.33689 3.57295,11.90985 2.38197,5.35943 6.55041,9.52787 8.93238,14.8873 1.19099,4.16845 2.38197,13.69633 -5.35943,12.50534 -2.97746,-1.19098 -4.16844,-4.16844 -6.55041,-5.95492 l 1.78647,8.33689 c -4.76393,-2.38197 -7.7414,-8.33689 -11.90984,-11.31435 -4.76394,-4.16845 -11.90985,-5.35943 -16.07829,-10.12337 -1.19099,-1.78648 -3.57296,-11.90985 -4.76394,-11.31436 -2.97746,0.5955 0.59549,10.12337 0.59549,11.90985 -1.19098,17.26928 16.67378,24.41519 20.24674,40.49348 l -52.99881,0 c 0,-26.79716 4.16845,-64.31317 35.13404,-70.26809 l 0.59549,3.57295 5.35943,-11.31435 c 1.19099,2.38196 2.97746,10.12336 5.95493,8.33689 l 7.1459,3.57295 -2.38197,-5.95492 z m 15.4828,48.23488 c 1.78647,-2.38197 -2.38197,-7.14591 -4.16845,-4.16845 -1.19098,2.38197 2.38197,6.55042 4.16845,4.16845 z m -13.10083,-23.2242 c 1.19098,-4.76394 -4.16845,-11.90985 -8.93239,-8.3369 l 2.97746,0.5955 c -0.59549,3.57295 1.19099,5.35943 4.76394,4.76394 l 0.59549,2.97746 0.5955,0 z"
   id="WhiteKnight" />
<path
   style="stroke-width:1px"
   d="m 680.3521,300.61084 c -10.12337,2.97746 -15.4828,14.29181 -17.26927,23.81969 0,2.38197 -2.38197,9.52788 1.19098,10.71886 4.16845,1.19099 9.52788,0 13.69632,0 h 30.37011 c 3.57295,0 11.90985,1.78648 14.29182,-0.59549 2.38197,-1.78648 0.59549,-7.7414 0.59549,-10.12337 -1.78648,-9.52788 -7.14591,-20.84223 -17.26928,-23.81969 5.35943,-7.7414 9.52788,-23.81969 -4.16844,-26.79715 1.19098,-2.97747 2.97746,-5.95493 2.38196,-9.52788 -1.19098,-8.93239 -14.29181,-11.31436 -19.65124,-4.76394 -4.16845,4.76394 -1.78648,9.52788 0,14.29182 -13.69632,2.97746 -9.52788,19.05575 -4.16845,26.79715 z m 40.49348,31.56109 h -55.38079 c 0,-8.93238 2.97747,-19.05575 9.52788,-25.01068 2.38197,-2.38196 8.93239,-3.57295 10.12337,-5.95492 1.19099,-1.78648 -1.78648,-2.97746 -2.97746,-4.16844 -2.97746,-1.78648 -4.16845,-5.35944 -4.16845,-8.93239 0,-4.16845 1.19099,-8.33689 4.76394,-10.71886 1.78648,-0.59549 4.76394,-1.19099 5.95492,-2.97746 1.19099,-1.19099 -2.97746,-4.76394 -3.57295,-6.55042 -1.19098,-7.7414 7.7414,-11.90984 13.69632,-7.14591 2.97747,1.78648 2.97747,6.55042 1.19099,9.52788 -0.59549,1.19099 -2.97746,2.38197 -2.38197,4.16845 0,1.78647 5.35943,2.38197 6.55041,3.57295 3.57296,2.38197 4.16845,6.55042 4.16845,10.71886 0,3.57296 -1.78648,6.55042 -4.16845,8.3369 -1.19098,1.19098 -4.16844,2.38196 -2.97746,4.16844 1.19099,2.38197 7.7414,3.57296 10.12337,5.95492 6.55042,5.95493 9.52788,16.0783 9.52788,25.01068 z"
   id="WhitePawn" />


      style=&quot;stroke-width:1px&quot;
         d=&quot;M0 161c2 5 6 9 12 11c-1 -6 -6 -12 -12 -11zM26 168l6 4c-1 -4 -2 -5 -6 -4zM42 164l10 8c-1 -6 -4 -8 -10 -8zM63 165l9 7c-1 -5 -4 -7 -9 -7zM80 161c2 5 6 9 12 11c-1 -6 -6 -11 -12 -11zM102 164l10 8c-1 -6 -5 -7 -10 -8zM123 164l9 8c-1 -5 -4 -8 -9 -8zM145 167 l7 5v-4zM162 159c-2 6 4 11 10 13c-1 -6 -5 -10 -10 -13zM78 133c-17 8 -30 3 -48 6c-4 0 -15 2 -16 7c-1 4 5 13 9 13c5 1 10 -3 15 -3c13 -1 40 7 48 -8c16 10 30 6 48 7c5 0 10 3 15 3c4 1 11 -8 9 -12c-3 -5 -12 -6 -17 -7c-11 -1 -21 2 -32 1c-5 -1 -10 -4 -15 -6v-1 c5 0 28 0 28 -7c1 -7 -7 -14 -5 -22c1 -8 8 -14 10 -23c5 -23 -14 -40 -33 -49c1 -3 3 -6 4 -9c2 -18 -28 -15 -22 2c0 3 2 5 4 7c-21 8 -39 28 -34 51c2 7 10 14 11 21c1 6 -10 18 -5 23s20 4 26 5v1zM24 155l-5 -8l47 -3l20 -11c0 31 -44 12 -62 22zM172 152l-4 -7 c0 4 0 6 4 7zM4 147c2 -4 0 -7 -4 -6zM0 121c3 6 10 15 17 13c-4 -5 -10 -14 -17 -13zM157 135l-8 -10l-24 -22c-1 5 3 8 7 12c8 8 15 15 25 20zM133 90c-2 6 3 9 7 13c9 9 20 26 32 29c-1 -6 -7 -11 -11 -15c-9 -9 -18 -20 -28 -27zM0 101c4 9 23 30 33 29 c-6 -9 -15 -16 -22 -23c-3 -3 -6 -7 -11 -6zM133 130l-3 -2zM86 127l-30 -3c5 -8 22 -6 30 -6v-5l-26 2c2 -14 15 -12 26 -12v-5c-7 0 -19 4 -25 0c-4 -2 -7 -8 -9 -13c-8 -24 13 -43 34 -51l3 33c14 0 14 6 0 6l-3 24c3 0 25 0 22 5c-3 4 -18 1 -22 1v9c7 0 15 0 22 2 c2 0 7 2 5 4c-1 3 -5 2 -7 1c-7 -1 -13 -1 -20 -1v9zM41 124c4 -5 -2 -9 -6 -13l-23 -23c-4 -4 -7 -8 -12 -7c7 16 29 31 41 43zM136 73c0 12 16 22 24 30c4 4 7 8 12 9l-10 -14zM47 110c3 -6 -3 -10 -7 -14l-27 -27c-4 -4 -7 -9 -13 -8l16 18zM106 23c-1 9 9 14 15 19 c12 11 22 24 34 36c5 5 10 12 17 14c-1 -9 -11 -15 -17 -21c-16 -16 -31 -35 -49 -48zM85 85l1 -30h-2v12c-14 0 -14 5 0 5zM36 79c2 -5 -1 -8 -4 -11c-7 -7 -22 -28 -32 -27c7 14 25 27 36 38zM100 1c3 7 11 13 17 19l35 35c6 6 12 15 20 17c-1 -8 -10 -14 -15 -19l-38 -38 c-5 -5 -12 -15 -19 -14zM38 61c3 -5 -2 -9 -5 -12l-21 -21c-4 -4 -7 -8 -12 -7c7 15 26 28 38 40zM120 1c7 14 25 27 36 38c5 5 9 11 16 13c-1 -6 -7 -11 -11 -15l-26 -26c-4 -4 -9 -11 -15 -10zM0 1c3 6 9 11 14 16c10 10 21 25 33 31c0 -6 -4 -9 -8 -13l-26 -26 c-4 -4 -7 -9 -13 -8zM20 1c5 11 18 20 27 29c3 3 7 9 12 5l-26 -26c-4 -4 -7 -9 -13 -8zM140 1c4 9 22 28 32 31c-1 -10 -14 -18 -21 -25c-3 -3 -6 -7 -11 -6zM67 30c3 -9 -19 -30 -27 -29c5 11 18 20 27 29zM86 28c-7 -3 -7 -10 0 -13v13zM69 12c5 -5 -3 -12 -9 -11zM160 1 c2 5 6 9 12 11c-1 -6 -6 -12 -12 -11zM85 1l-5 2z&quot;
         id=&quot;path3095&quot; /&gt;
      
      style=&quot;stroke-width:1px&quot;
         d=&quot;M0 161c2 5 6 9 12 11c-1 -6 -6 -12 -12 -11zM0 141c4 9 22 28 32 31c-1 -10 -14 -18 -21 -25c-3 -3 -6 -7 -11 -6zM43 165l9 7c-1 -5 -4 -6 -9 -7zM72 172c-1 -3 -3 -4 -6 -4zM92 172c-1 -3 -2 -3 -5 -3zM112 168h-6l6 4v-4zM124 166l8 6c-1 -5 -3 -7 -8 -6zM140 162 l12 10c-1 -6 -5 -11 -12 -10zM148 145c3 10 14 24 24 27c-2 -10 -16 -22 -24 -27zM17 51c1 16 3 38 9 53c4 8 11 13 13 23c2 9 -11 19 -5 27c4 4 14 4 20 5c21 3 42 3 63 0c6 -1 19 0 23 -6s-3 -13 -5 -18c-2 -4 -1 -7 0 -11c2 -9 10 -14 13 -22c4 -15 2 -34 9 -48 c2 -5 8 -5 10 -10c3 -8 -6 -17 -14 -13c-10 5 -2 13 -5 21c-3 12 -13 25 -20 36l-3 -51c13 -6 9 -26 -5 -20c-4 1 -7 6 -7 11c1 4 5 6 5 10c-1 16 -14 32 -16 48h-1c-2 -17 -10 -34 -10 -51c0 -6 7 -9 6 -16c-2 -7 -10 -10 -16 -6c-12 7 1 14 1 22c0 16 -7 35 -10 51h-1 l-17 -51c10 -5 5 -20 -6 -19c-12 2 -11 18 0 20l-3 53c-7 -11 -18 -25 -21 -38c-1 -4 3 -8 2 -13s-5 -8 -10 -8c-14 1 -11 20 1 21zM86 156l-49 -5c2 -6 8 -5 13 -6c12 -2 24 -3 36 -3v14zM144 121c-2 9 20 29 28 31c-2 -11 -19 -25 -28 -31zM133 142c2 0 2 4 0 4 s-2 -4 0 -4zM0 121c4 9 16 21 25 25c1 -8 -17 -26 -25 -25zM86 137l-44 4c5 -11 33 -9 44 -9v-5l-29 2h-11l-3 -9l43 -4v-5l-31 2l-14 1l-8 -10l14 -2l13 -4l26 -2v14c11 0 23 1 34 3c2 0 11 1 10 5c-2 3 -9 1 -11 0c-11 -1 -22 -2 -33 -2v10c11 0 21 1 32 2c2 1 11 1 9 5 c-2 3 -8 1 -10 1c-10 -1 -21 -2 -31 -2v5zM0 101c5 10 22 27 32 32c-2 -10 -13 -18 -20 -25c-4 -4 -7 -8 -12 -7zM150 113c6 6 13 17 22 19c-1 -7 -14 -23 -22 -20v1zM157 94c-2 8 8 16 15 18c-1 -7 -9 -14 -15 -18zM16 99c3 -7 -9 -19 -16 -18zM43 97l-13 2l-6 -36h1z M69 95l-19 1l2 -49h1zM86 47c0 13 7 45 -10 47l9 -47h1zM160 77c-2 7 6 13 12 15c-1 -7 -7 -11 -12 -15zM12 75c2 -7 -5 -15 -12 -14zM163 60c-1 6 3 10 9 12c-1 -6 -5 -9 -9 -12zM38 61c2 -5 -2 -9 -6 -12zM135 58h2l-3 -7zM70 53c3 -5 -2 -9 -6 -12zM172 51l-1 1zM99 36 c1 6 3 10 8 12c0 -6 -4 -9 -8 -12zM15 45c-5 -1 -4 -10 2 -10c6 1 4 11 -2 10zM139 38l-1 3zM73 36l-4 -10h-1zM50 31c-7 1 -7 -9 -1 -10c6 0 8 10 1 10zM30 30c1 -4 -2 -6 -5 -9c-6 -6 -16 -21 -25 -20zM171 30c0 -4 -3 -6 -6 -9c-6 -6 -16 -21 -25 -20zM105 26l-1 1z M144 27l4 -2l-9 -9zM0 21c2 3 3 4 7 4c-2 -3 -3 -5 -7 -4zM86 26c-6 -2 -5 -7 0 -10v10zM33 16c5 -6 -7 -16 -13 -15zM110 13l4 -2c-3 -5 -8 -11 -14 -10zM60 1l11 11c1 -6 -5 -12 -11 -11zM160 1c2 5 6 9 12 11c-1 -6 -6 -12 -12 -11zM133 11c-1 -5 -8 -11 -13 -10 c3 6 8 7 13 10zM40 1c2 5 6 7 11 7c-3 -4 -6 -8 -11 -7zM81 4l5 -1l-6 -2z&quot;
         id=&quot;path3099&quot; /&gt;
      style=&quot;stroke-width:1px&quot;
         unicode=&quot;Ľ&quot;
         d=&quot;M0 161c2 5 6 9 12 11c-1 -6 -6 -12 -12 -11zM0 141c4 9 22 28 32 31c-1 -10 -14 -18 -21 -25c-3 -3 -6 -7 -11 -6zM0 121c7 14 25 27 36 38c5 5 9 11 16 13c-1 -9 -11 -15 -18 -21c-6 -6 -12 -13 -19 -20c-4 -4 -9 -11 -15 -10zM58 160c4 5 8 10 14 12 c-1 -8 -7 -11 -14 -12zM81 163l11 9c-1 -6 -5 -9 -11 -9zM100 162l12 10c-1 -7 -6 -10 -12 -10zM117 159c4 5 9 11 15 13c-1 -7 -8 -13 -15 -13zM133 154c3 7 12 16 19 18c-1 -8 -11 -18 -19 -18zM143 140c0 10 19 29 29 32c-2 -11 -20 -26 -29 -32zM71 61 c-7 -4 -14 -8 -22 -9c-18 -2 -39 11 -36 32c3 15 18 19 23 31c4 8 -2 24 4 30c4 5 14 6 20 7c18 4 38 4 56 0c5 -2 14 -3 17 -7c7 -6 -1 -23 4 -31c7 -11 21 -16 23 -31c2 -20 -18 -33 -36 -31c-8 1 -15 5 -22 9l-2 -17l-10 -9l-1 -12c9 0 9 -5 0 -5c0 -9 -5 -9 -5 0 c-9 0 -9 5 0 5l-1 12l-10 9zM144 121c0 10 18 28 28 31c-2 -11 -19 -25 -28 -31zM86 150c-12 0 -28 -1 -38 -7l38 -6v-5c-15 0 -29 3 -43 8c0 -16 31 -15 43 -15v-5l-44 6l1 -11l11 -4l32 -4v-5h3c0 -9 2 -16 6 -24c3 -6 8 -12 14 -15c5 -3 10 -5 16 -6c14 -1 31 8 30 24 c-1 10 -8 18 -16 24c-4 3 -7 7 -12 8c-13 1 -28 -5 -41 -5v11c11 0 22 1 32 4c2 0 11 2 9 5s-8 1 -10 1c-10 -3 -20 -4 -31 -4v6c11 0 22 1 32 4c2 1 12 4 8 7c-2 2 -8 -1 -11 -1c-10 -3 -19 -4 -29 -4v13zM29 132c3 -9 -21 -32 -29 -31c5 12 20 22 29 31zM150 113 c6 6 13 17 22 19c-1 -7 -14 -23 -22 -20v1zM161 99c-1 6 5 11 11 13c-1 -6 -6 -10 -11 -13zM84 102c-14 0 -29 7 -43 7c-12 -1 -25 -22 -22 -33c4 -21 31 -23 46 -13c6 4 11 10 14 16c3 7 5 15 5 23zM128 108c5 -7 13 -10 17 -17c9 -13 0 -27 -14 -28c-15 -1 -27 8 -33 21 c-2 4 -6 14 -3 17c2 3 6 2 9 2c8 1 16 3 24 5zM168 85c-1 4 0 6 4 7zM5 88c1 -4 0 -8 -5 -7zM87 83c-8 -8 -19 -34 -5 -41c16 -8 16 18 13 26c-3 5 -5 10 -8 15zM86 73c5 -6 11 -24 0 -27v27zM100 1l16 18l39 34l17 19c-1 -8 -10 -14 -15 -19l-38 -38c-5 -5 -12 -15 -19 -14 zM6 69c3 -5 -1 -9 -6 -8zM0 41c2 5 11 17 17 12c-5 -5 -10 -13 -17 -12zM120 1c7 14 25 27 36 38c5 5 9 11 16 13c-1 -6 -7 -11 -11 -15l-26 -26c-4 -4 -9 -11 -15 -10zM0 21c4 8 20 27 30 26c-5 -7 -21 -27 -30 -26zM108 45l1 3zM20 1c6 12 21 23 30 32c5 5 9 10 15 13 c0 -6 -4 -9 -8 -13l-24 -24c-4 -4 -7 -9 -13 -8zM0 1c6 13 22 24 32 34c5 5 8 9 15 9c-9 -13 -22 -23 -33 -34c-4 -4 -8 -10 -14 -9zM106 23c-3 9 13 21 21 21zM71 34l4 -3c-9 -6 -16 -16 -23 -23c-4 -4 -7 -8 -12 -7c6 12 21 23 31 33zM140 1c4 9 22 28 32 31 c-1 -10 -14 -18 -21 -25c-3 -3 -6 -7 -11 -6zM60 1c3 6 7 11 14 10c-3 -5 -8 -11 -14 -10zM160 1c2 5 6 9 12 11c-1 -6 -6 -12 -12 -11zM84 0l-4 3l4 -2v-1z&quot;
         id=&quot;glyph3101&quot; /&gt;
      </svg>
