<?xml version="1.0" encoding="UTF-8" standalone="no"?>
<!-- Created with Inkscape (http://www.inkscape.org/) -->

<svg
   xmlns:dc="http://purl.org/dc/elements/1.1/"
   xmlns:cc="http://creativecommons.org/ns#"
   xmlns:rdf="http://www.w3.org/1999/02/22-rdf-syntax-ns#"
   xmlns:svg="http://www.w3.org/2000/svg"
   xmlns="http://www.w3.org/2000/svg"
   xmlns:inkscape="http://www.inkscape.org/namespaces/inkscape"
   version="1.1"
   width="128"
   height="128"
   id="svg2">
  <defs
     id="defs4" />
  <metadata
     id="metadata7">
    <rdf:RDF>
      <cc:Work
         rdf:about="">
        <dc:format>image/svg+xml</dc:format>
        <dc:type
           rdf:resource="http://purl.org/dc/dcmitype/StillImage" />
      </cc:Work>
    </rdf:RDF>
  </metadata>
  <g
     id="layer1">
    <g
       id="g10964">
      <path
         d="m 9.8046247,116.56489 c 0,0 107.1261753,1.21404 106.8937853,0.40468 C 116.46604,116.16021 95.087283,18.227835 95.087283,18.227835 L 60.927745,8.1108558 26.768205,17.823157 9.8046247,116.56489 z"
         inkscape:connector-curvature="0"
         id="path2800"
         style="fill:#c3aa55;fill-opacity:1;fill-rule:evenodd;stroke:none" />
      <g
         transform="matrix(1.165243,-0.01491436,0.0149773,1.048058,-9.613354,-3.113687)"
         id="g1404">
        <path
           d="m 59.625487,64.92714 c -2.648127,0.643905 -3.681729,1.97203 -3.269224,6.977427 0.412505,5.005398 -1.428419,13.006089 1.221688,12.657071 2.650104,-0.349017 2.261502,-7.022928 2.233801,-11.151389 -0.0277,-4.128457 0.196564,-7.901063 -0.186265,-8.483109 z"
           inkscape:connector-curvature="0"
           id="path2078"
           style="fill:#000000;fill-opacity:1;fill-rule:evenodd;stroke:#000000;stroke-width:1.42190337px;stroke-linecap:butt;stroke-linejoin:miter;stroke-opacity:1" />
        <path
           d="m 46.462409,66.676736 c 3.730443,1.576309 6.936268,0.969383 10.313459,0.28051 3.377191,-0.688874 14.259725,-3.415378 12.995277,-4.479788 -1.264446,-1.064411 -10.365074,0.833187 -13.076799,1.538896 -2.711728,0.705707 -10.031329,1.47461 -10.231937,2.660382 z"
           inkscape:connector-curvature="0"
           id="path2080"
           style="fill:#000000;fill-opacity:1;fill-rule:evenodd;stroke:#000000;stroke-width:1.24655581px;stroke-linecap:butt;stroke-linejoin:miter;stroke-opacity:1" />
        <path
           d="m 46.958895,73.062722 c 4.519957,0.807326 11.86811,-0.133547 15.318809,-0.398215 3.450702,-0.264669 9.029574,-0.502026 9.627695,-2.767143 0.598118,-2.265115 -8.480452,-0.05878 -12.377902,0.617425 -3.897453,0.676206 -12.508792,2.321421 -12.568602,2.547933 z"
           inkscape:connector-curvature="0"
           id="path2082"
           style="fill:#000000;fill-opacity:1;fill-rule:evenodd;stroke:#000000;stroke-width:1.17712235px;stroke-linecap:butt;stroke-linejoin:miter;stroke-opacity:1" />
        <path
           d="m 48.362759,78.632679 c 3.774865,1.023421 4.73571,1.436372 12.497585,0.446644 7.761872,-0.98973 11.163506,-0.765348 10.844306,-1.991812 -0.319197,-1.226465 0.66143,-1.555132 -6.708383,-0.744094 -7.369816,0.811042 -16.567091,2.062999 -16.633508,2.289262 z"
           inkscape:connector-curvature="0"
           id="path2084"
           style="fill:#000000;fill-opacity:1;fill-rule:evenodd;stroke:#000000;stroke-width:1.17912793px;stroke-linecap:butt;stroke-linejoin:miter;stroke-opacity:1" />
        <path
           d="m 42.534738,86.096693 c 4.867733,3.430372 13.917396,0.256013 18.240084,0.27189 8.705138,0.03197 20.145914,7.095234 19.134809,0.450093 -0.351893,-2.312699 -13.423236,-4.533021 -19.648135,-3.894372 -6.224897,0.638648 -14.222026,3.074609 -17.726758,3.172389 z"
           inkscape:connector-curvature="0"
           id="path2086"
           style="fill:#000000;fill-opacity:1;fill-rule:evenodd;stroke:#000000;stroke-width:1.50275409px;stroke-linecap:butt;stroke-linejoin:miter;stroke-opacity:1" />
        <path
           d="m 35.994976,71.893994 c 3.216843,-0.580841 11.177789,-10.453019 15.470565,-14.941513 3.727434,-3.897377 8.290363,-10.152766 8.290363,-10.152766 0,0 8.957192,8.756584 11.515117,11.870258 2.557922,3.113675 8.400303,13.383598 10.939256,12.513783 2.538952,-0.869815 8.410034,-3.614935 5.133563,-4.013109 -5.44902,-0.662193 -25.091684,-21.026222 -25.091684,-21.026222 0,0 -0.829106,-1.270491 -2.636221,-3.802531 -1.915474,-2.683866 -3.499638,-1.270324 -4.832457,0.381991 -1.897977,2.352953 -2.616644,7.749294 -6.224477,13.032282 -3.607835,5.282989 -11.844749,14.977381 -12.564025,16.137827 z"
           inkscape:connector-curvature="0"
           id="path2088"
           style="fill:#000000;fill-opacity:1;fill-rule:evenodd;stroke:#000000;stroke-width:1.61819136px;stroke-linecap:butt;stroke-linejoin:miter;stroke-opacity:1" />
      </g>
    </g>
  </g>
</svg>
