<?xml version="1.0" encoding="UTF-8" standalone="no"?>
<!-- Created with Inkscape (http://www.inkscape.org/) -->
<svg
   xmlns:dc="http://purl.org/dc/elements/1.1/"
   xmlns:cc="http://web.resource.org/cc/"
   xmlns:rdf="http://www.w3.org/1999/02/22-rdf-syntax-ns#"
   xmlns:svg="http://www.w3.org/2000/svg"
   xmlns="http://www.w3.org/2000/svg"
   xmlns:sodipodi="http://inkscape.sourceforge.net/DTD/sodipodi-0.dtd"
   xmlns:inkscape="http://www.inkscape.org/namespaces/inkscape"
   width="128.00000px"
   height="128.00000px"
   id="svg2"
   sodipodi:version="0.32"
   inkscape:version="0.42"
   sodipodi:docbase="/home/ralph/shogi"
   sodipodi:docname="bishop_promoted.svg">
  <defs
     id="defs4" />
  <sodipodi:namedview
     id="base"
     pagecolor="#ffffff"
     bordercolor="#666666"
     borderopacity="1.0"
     inkscape:pageopacity="0.0"
     inkscape:pageshadow="2"
     inkscape:zoom="4.2536892"
     inkscape:cx="69.221766"
     inkscape:cy="62.608659"
     inkscape:document-units="px"
     inkscape:current-layer="g10964"
     inkscape:window-width="1255"
     inkscape:window-height="898"
     inkscape:window-x="342"
     inkscape:window-y="43" />
  <metadata
     id="metadata7">
    <rdf:RDF>
      <cc:Work
         rdf:about="">
        <dc:format>image/svg+xml</dc:format>
        <dc:type
           rdf:resource="http://purl.org/dc/dcmitype/StillImage" />
      </cc:Work>
    </rdf:RDF>
  </metadata>
  <g
     inkscape:label="Layer 1"
     inkscape:groupmode="layer"
     id="layer1">
    <g
       id="g10964">
      <path
         sodipodi:nodetypes="cscccc"
         id="path2800"
         d="M 9.8046247,116.56489 C 9.8046247,116.56489 116.93080,117.77893 116.69841,116.96957 C 116.46604,116.16021 95.087283,18.227835 95.087283,18.227835 L 60.927745,8.1108558 L 26.768205,17.823157 L 9.8046247,116.56489 z "
         style="fill:#c3aa55;fill-opacity:1.0000000;fill-rule:evenodd;stroke:none;stroke-width:1.0000000px;stroke-linecap:butt;stroke-linejoin:miter;stroke-opacity:1.0000000" />
      <path
         style="fill:#000000;fill-opacity:1.0000000;fill-rule:evenodd;stroke:#000000;stroke-width:1.0000000px;stroke-linecap:butt;stroke-linejoin:miter;stroke-opacity:1.0000000"
         d="M 48.359694,73.470922 C 50.710594,76.997273 51.650954,75.541505 54.236945,76.011685 C 56.822935,76.481865 66.461627,71.309884 67.166897,73.190604 C 67.872167,75.071324 62.700187,76.952045 62.935277,78.362585 C 63.170367,79.773125 67.872168,80.478395 68.107258,81.418756 C 68.342348,82.359116 64.345817,84.004746 64.345817,85.415286 C 64.345817,86.825827 77.745950,87.531097 77.745950,91.292537 C 77.745950,95.053978 66.829536,100.15710 62.362825,100.39219 C 57.896114,100.62728 39.013764,96.164411 40.601722,93.643438 C 43.165208,89.573757 58.169513,95.386447 59.109873,94.916267 C 60.050233,94.446086 49.466288,89.509195 44.529397,89.744285 C 39.592506,89.979375 34.019201,91.057448 34.254291,93.643438 C 34.489381,96.229429 52.826405,104.45759 61.289646,104.22250 C 69.752888,103.98741 86.444282,99.520687 84.093381,91.762718 C 81.742481,84.004746 73.984509,84.710016 73.044149,83.769656 C 72.103789,82.829296 75.159959,81.653846 75.159959,80.478395 C 75.159959,79.302945 68.812528,78.597675 69.047618,77.422225 C 69.282708,76.246775 75.245504,77.666453 75.630139,73.660784 C 75.934085,70.495422 73.159573,69.364757 67.872168,69.474391 C 61.522861,69.606043 58.938745,71.355112 55.882575,72.295472 C 52.826404,73.235833 49.064964,73.706012 48.359694,73.470922 z "
         id="path1324"
         sodipodi:nodetypes="csssssssssssssssssssc" />
      <g
         id="g2064"
         transform="translate(0.166234,-1.994805)">
        <path
           sodipodi:nodetypes="cssssscsssssssc"
           id="path1326"
           d="M 63.944493,24.296767 C 63.806780,24.807282 66.530484,25.472217 67.941024,28.058208 C 69.351564,30.644198 64.345817,45.851302 65.756358,47.026752 C 67.166898,48.202202 71.054237,48.202202 71.524418,49.377652 C 71.994598,50.553103 68.926613,53.248284 70.102063,55.364095 C 71.277513,57.479905 80.802120,53.139093 81.272301,54.549634 C 81.742481,55.960174 75.630139,61.484790 75.395049,63.247965 C 77.997808,63.111209 81.490683,60.065896 85.017034,56.539545 C 88.543385,53.013194 90.165387,52.479052 87.579397,51.303601 C 84.993406,50.128151 74.024844,54.732574 74.024844,53.322034 C 74.024844,51.911494 77.814806,47.691687 75.934086,46.751327 C 74.053365,45.810967 66.805909,47.995633 67.746269,45.409642 C 68.686630,42.823652 71.341476,31.240277 71.811656,29.594647 C 72.281836,27.949016 75.475720,25.833206 72.407735,24.531857 C 68.488108,22.869266 64.471716,23.534455 63.944493,24.296767 z "
           style="fill:#000000;fill-opacity:1.0000000;fill-rule:evenodd;stroke:#000000;stroke-width:1.0000000px;stroke-linecap:butt;stroke-linejoin:miter;stroke-opacity:1.0000000" />
        <path
           sodipodi:nodetypes="csssssssc"
           id="path1328"
           d="M 36.605192,46.556572 C 36.605192,46.556572 31.903391,48.437292 39.191182,48.907473 C 46.478974,49.377653 49.064964,48.202202 50.240414,49.612743 C 51.415865,51.023283 45.956644,53.110572 43.135563,55.696563 C 40.314483,58.282553 36.370101,63.012875 37.780642,63.718145 C 39.191182,64.423416 42.424324,59.402225 46.937340,55.416244 C 51.696183,51.213144 56.971413,50.160390 57.528206,48.202202 C 58.125920,46.100099 53.158873,45.730296 47.986892,46.435566 C 42.814911,47.140837 39.500022,46.820183 36.605192,46.556572 z "
           style="fill:#000000;fill-opacity:1.0000000;fill-rule:evenodd;stroke:#000000;stroke-width:1.0000000px;stroke-linecap:butt;stroke-linejoin:miter;stroke-opacity:1.0000000" />
        <path
           sodipodi:nodetypes="cscssssc"
           id="path1330"
           d="M 54.001855,48.907472 C 54.001855,48.907472 57.293116,48.672382 59.644016,53.139093 C 61.994917,57.605804 60.033526,61.132155 58.371188,61.797090 C 58.371188,61.797090 50.710595,60.426885 50.005324,59.251435 C 49.300054,58.075984 54.001855,56.665444 54.236945,57.605804 C 54.472035,58.546164 55.412395,60.897065 56.822936,59.721615 C 58.233476,58.546164 58.233476,53.844363 57.058026,53.139093 C 55.882575,52.433823 53.766765,48.907472 54.001855,48.907472 z "
           style="fill:#000000;fill-opacity:1.0000000;fill-rule:evenodd;stroke:#000000;stroke-width:1.0000000px;stroke-linecap:butt;stroke-linejoin:miter;stroke-opacity:1.0000000" />
        <path
           sodipodi:nodetypes="cssssssc"
           id="path1332"
           d="M 41.777173,28.219548 C 44.363163,28.454638 46.008793,27.749368 46.949154,29.394998 C 47.889514,31.040629 41.926699,43.607565 44.277599,45.488285 C 46.628500,47.369006 54.336913,44.859772 54.925508,42.341658 C 55.257976,40.919303 47.139015,44.588260 46.668835,42.472450 C 46.198655,40.356640 52.631650,29.480562 52.161470,28.070022 C 51.691290,26.659481 44.557918,25.151563 43.617558,26.327013 C 42.677198,27.502464 41.542083,27.984458 41.777173,28.219548 z "
           style="fill:#000000;fill-opacity:1.0000000;fill-rule:evenodd;stroke:#000000;stroke-width:1.0000000px;stroke-linecap:butt;stroke-linejoin:miter;stroke-opacity:1.0000000" />
        <path
           sodipodi:nodetypes="csssc"
           id="path1334"
           d="M 38.331492,35.896849 C 41.238136,38.235937 44.558905,37.299592 47.644637,37.100822 C 52.363146,36.796874 57.195739,37.089007 56.725559,35.443377 C 56.255379,33.797747 51.219083,35.208287 47.939636,35.483712 C 45.632390,35.677487 38.096402,35.661759 38.331492,35.896849 z "
           style="fill:#000000;fill-opacity:1.0000000;fill-rule:evenodd;stroke:#000000;stroke-width:1.0000000px;stroke-linecap:butt;stroke-linejoin:miter;stroke-opacity:1.0000000" />
        <path
           sodipodi:nodetypes="csssss"
           id="path2062"
           d="M 51.027446,57.336929 C 54.708540,52.434744 79.518577,38.449055 83.750197,38.213965 C 87.981817,37.978875 88.933991,37.990689 88.933991,39.871410 C 88.933991,41.752130 83.997101,41.752130 80.470751,42.457400 C 76.944401,43.162670 56.657803,54.750938 54.306903,56.631659 C 51.955993,58.512379 49.180142,59.797021 51.027446,57.336929 z "
           style="fill:#000000;fill-opacity:1.0000000;fill-rule:evenodd;stroke:#000000;stroke-width:1.0000000px;stroke-linecap:butt;stroke-linejoin:miter;stroke-opacity:1.0000000" />
      </g>
      <path
         style="fill:#000000;fill-opacity:1.0000000;fill-rule:evenodd;stroke:#000000;stroke-width:1.0000000px;stroke-linecap:butt;stroke-linejoin:miter;stroke-opacity:1.0000000"
         d="M 83.172578,43.366460 C 83.681607,42.154851 86.855694,41.925158 88.339954,41.837605 C 90.017972,41.738623 90.529294,41.763571 90.372624,42.867641 C 90.099258,44.794059 87.650573,44.460927 86.931350,44.272799 C 86.212127,44.084672 83.832035,44.076855 83.172578,43.366460 z "
         id="path2072"
         sodipodi:nodetypes="csssc" />
    </g>
  </g>
</svg>
