<?xml version="1.0" encoding="UTF-8" standalone="no"?>
<!-- Created with Inkscape (http://www.inkscape.org/) -->
<svg
   xmlns:dc="http://purl.org/dc/elements/1.1/"
   xmlns:cc="http://web.resource.org/cc/"
   xmlns:rdf="http://www.w3.org/1999/02/22-rdf-syntax-ns#"
   xmlns:svg="http://www.w3.org/2000/svg"
   xmlns="http://www.w3.org/2000/svg"
   xmlns:sodipodi="http://inkscape.sourceforge.net/DTD/sodipodi-0.dtd"
   xmlns:inkscape="http://www.inkscape.org/namespaces/inkscape"
   width="128.00000px"
   height="128.00000px"
   id="svg2"
   sodipodi:version="0.32"
   inkscape:version="0.42"
   sodipodi:docbase="/home/ralph/shogi"
   sodipodi:docname="knight.svg">
  <defs
     id="defs4" />
  <sodipodi:namedview
     id="base"
     pagecolor="#ffffff"
     bordercolor="#666666"
     borderopacity="1.0"
     inkscape:pageopacity="0.0"
     inkscape:pageshadow="2"
     inkscape:zoom="4.2536892"
     inkscape:cx="72.478837"
     inkscape:cy="66.597403"
     inkscape:document-units="px"
     inkscape:current-layer="layer1"
     inkscape:window-width="1280"
     inkscape:window-height="942"
     inkscape:window-x="265"
     inkscape:window-y="148" />
  <metadata
     id="metadata7">
    <rdf:RDF>
      <cc:Work
         rdf:about="">
        <dc:format>image/svg+xml</dc:format>
        <dc:type
           rdf:resource="http://purl.org/dc/dcmitype/StillImage" />
      </cc:Work>
    </rdf:RDF>
  </metadata>
  <g
     inkscape:label="Layer 1"
     inkscape:groupmode="layer"
     id="layer1">
    <path
       style="fill:#c3aa55;fill-opacity:1.0000000;fill-rule:evenodd;stroke:none;stroke-width:1.0000000px;stroke-linecap:butt;stroke-linejoin:miter;stroke-opacity:1.0000000"
       d="M 9.8046247,116.56489 C 9.8046247,116.56489 116.93080,117.77893 116.69841,116.96957 C 116.46604,116.16021 95.087283,18.227835 95.087283,18.227835 L 60.927745,8.1108558 L 26.768205,17.823157 L 9.8046247,116.56489 z "
       id="path2800"
       sodipodi:nodetypes="cscccc" />
    <g
       id="g24112"
       transform="matrix(1.066578,0.000000,0.000000,1.000000,-4.261859,0.000000)">
      <path
         sodipodi:nodetypes="cssssc"
         id="path13858"
         d="M 45.840118,68.249959 C 51.204528,68.955815 50.012437,70.367529 56.866962,68.720530 C 63.721486,67.073530 71.041657,68.014673 71.935725,66.132388 C 72.829794,64.250103 71.773517,64.515956 68.747488,64.445641 C 65.326431,64.366147 63.621790,64.521940 58.567809,65.151498 C 54.145708,65.702345 46.734186,68.014673 45.840118,68.249959 z "
         style="fill:#000000;fill-opacity:1.0000000;fill-rule:evenodd;stroke:#000000;stroke-width:0.79647696px;stroke-linecap:butt;stroke-linejoin:miter;stroke-opacity:1.0000000" />
      <path
         sodipodi:nodetypes="csssscsssssscc"
         id="path11674"
         d="M 47.875325,90.181818 C 61.693310,86.836088 68.155845,85.444155 74.140260,85.111688 C 80.124676,84.779220 84.779221,83.781818 85.776624,85.111688 C 86.774027,86.441558 86.441559,91.428571 83.781819,95.085714 C 81.122078,98.742857 79.127273,102.73247 75.802598,103.06494 C 72.477923,103.39741 67.823377,102.40000 67.823377,102.40000 C 67.823377,102.40000 72.145455,108.05195 74.140260,108.38442 C 76.135065,108.71689 80.124676,105.72468 82.784416,102.40000 C 85.444156,99.075324 91.761040,91.428571 91.761040,89.101298 C 91.761040,86.774025 88.992937,82.824750 86.333197,82.159815 C 83.673456,81.494880 77.356573,82.824750 73.034495,82.824750 C 69.243782,82.824751 62.063067,84.487087 55.081248,86.149425 C 49.295619,87.526955 46.462338,88.020779 46.462338,88.020779 C 46.462338,88.020779 46.129871,89.599999 47.875325,90.181818 z "
         style="fill:#000000;fill-opacity:1.0000000;fill-rule:evenodd;stroke:#000000;stroke-width:1.0000000px;stroke-linecap:butt;stroke-linejoin:miter;stroke-opacity:1.0000000" />
      <path
         sodipodi:nodetypes="csscssc"
         id="path12402"
         d="M 43.885714,64.166233 C 44.384415,65.662336 45.381817,70.150648 45.049350,74.140259 C 44.716882,78.129869 43.054545,85.111687 44.716882,87.106493 C 46.379220,89.101298 46.714988,90.164864 47.376623,90.098700 C 49.038961,89.932466 48.374025,86.774025 48.374025,80.124674 C 48.374025,73.475324 51.033765,70.150648 49.703895,67.823376 C 48.374025,65.496103 43.885714,64.166233 43.885714,64.166233 z "
         style="fill:#000000;fill-opacity:1.0000000;fill-rule:evenodd;stroke:#000000;stroke-width:1.0000000px;stroke-linecap:butt;stroke-linejoin:miter;stroke-opacity:1.0000000" />
      <path
         sodipodi:nodetypes="cscssc"
         id="path13130"
         d="M 54.833506,67.324675 C 57.575204,70.981818 56.194598,71.626109 56.478525,76.966233 C 56.761355,82.285714 56.942592,86.607792 59.768566,86.275324 C 61.777907,86.077544 61.961925,83.615584 61.961925,78.296103 C 61.961925,72.976623 62.942009,70.981818 60.748650,69.319480 C 58.555289,67.657142 54.833506,67.657142 54.833506,67.324675 z "
         style="fill:#000000;fill-opacity:1.0000000;fill-rule:evenodd;stroke:#000000;stroke-width:1.2842522px;stroke-linecap:butt;stroke-linejoin:miter;stroke-opacity:1.0000000" />
      <path
         sodipodi:nodetypes="cssssc"
         id="path14586"
         d="M 46.664652,75.539136 C 48.230069,76.604626 52.106512,76.033790 57.687281,75.202168 C 64.598977,74.172217 71.281573,74.486960 72.068857,72.856009 C 72.856142,71.225060 73.821755,71.423246 70.823632,71.227578 C 67.825511,71.031909 64.369746,70.975167 58.964644,71.959994 C 54.721613,72.733088 47.543222,75.283483 46.664652,75.539136 z "
         style="fill:#000000;fill-opacity:1.0000000;fill-rule:evenodd;stroke:#000000;stroke-width:0.72842008px;stroke-linecap:butt;stroke-linejoin:miter;stroke-opacity:1.0000000" />
      <path
         sodipodi:nodetypes="cssssc"
         id="path14588"
         d="M 46.879242,81.334322 C 50.041769,83.161532 50.606852,82.700920 57.962467,81.370247 C 64.390177,80.207437 71.529240,80.676815 72.345949,79.086592 C 73.162649,77.496371 73.166211,77.890043 70.392786,77.548132 C 67.619362,77.206219 62.103153,78.207709 58.097380,78.900248 C 53.731563,79.655034 47.708418,81.121957 46.879242,81.334322 z "
         style="fill:#000000;fill-opacity:1.0000000;fill-rule:evenodd;stroke:#000000;stroke-width:0.70237607px;stroke-linecap:butt;stroke-linejoin:miter;stroke-opacity:1.0000000" />
      <path
         sodipodi:nodetypes="csssc"
         id="path14590"
         d="M 36.405196,95.584415 C 36.072728,99.740260 36.238962,101.07013 37.901300,103.06494 C 40.163820,105.77997 41.225975,105.72468 42.555845,104.72728 C 43.885715,103.72987 45.215585,102.73247 42.555845,99.407792 C 39.896105,96.083116 37.402599,95.916883 36.405196,95.584415 z "
         style="fill:#000000;fill-opacity:1.0000000;fill-rule:evenodd;stroke:#000000;stroke-width:1.0000000px;stroke-linecap:butt;stroke-linejoin:miter;stroke-opacity:1.0000000" />
      <path
         sodipodi:nodetypes="csssc"
         id="path15318"
         d="M 48.706494,94.420779 C 47.709091,95.833766 47.044156,96.664934 47.709091,99.407792 C 48.409690,102.29776 49.371429,104.06234 51.366234,103.72987 C 53.361039,103.39741 54.025974,100.07273 52.696104,98.077922 C 51.366234,96.083116 49.703896,94.420779 48.706494,94.420779 z "
         style="fill:#000000;fill-opacity:1.0000000;fill-rule:evenodd;stroke:#000000;stroke-width:1.0000000px;stroke-linecap:butt;stroke-linejoin:miter;stroke-opacity:1.0000000" />
      <path
         sodipodi:nodetypes="cssc"
         id="path16046"
         d="M 58.297628,91.894334 C 56.941078,93.174886 58.207842,97.235336 59.843500,98.321642 C 61.479159,99.407948 64.969138,98.590016 64.546017,97.144812 C 63.830418,94.700623 61.545856,91.698466 58.297628,91.894334 z "
         style="fill:#000000;fill-opacity:1.0000000;fill-rule:evenodd;stroke:#000000;stroke-width:1.1573973px;stroke-linecap:butt;stroke-linejoin:miter;stroke-opacity:1.0000000" />
      <path
         sodipodi:nodetypes="csssc"
         id="path16776"
         d="M 66.885538,91.246250 C 69.192152,94.535260 68.504436,93.941289 69.671819,95.291102 C 70.427158,96.164479 71.503941,97.504646 72.515494,96.027397 C 73.710905,94.281646 72.791580,92.805239 72.103242,92.468480 C 69.861638,91.371809 66.854964,91.082852 66.885538,91.246250 z "
         style="fill:#000000;fill-opacity:1.0000000;fill-rule:evenodd;stroke:#000000;stroke-width:1.0000000px;stroke-linecap:butt;stroke-linejoin:miter;stroke-opacity:1.0000000" />
    </g>
    <g
       id="g24061"
       transform="matrix(0.929875,0.000000,0.000000,1.064024,5.436120,-0.969076)">
      <path
         id="path17504"
         d="M 57.683117,51.532467 C 58.015585,53.194805 65.163637,52.363636 70.483117,51.698701 C 75.802598,51.033766 81.620780,50.202597 83.948053,51.199999 C 86.275325,52.197402 86.275325,53.527272 87.771429,53.028571 C 89.267533,52.529870 90.098702,51.532467 89.766234,49.703896 C 89.433767,47.875324 87.771429,45.880519 85.942858,46.212986 C 84.114286,46.545454 77.797403,47.875324 71.314286,49.038960 C 64.831169,50.202597 60.176624,50.036363 59.012987,50.368831 C 57.849351,50.701298 57.849351,51.366233 57.683117,51.532467 z "
         style="fill:#000000;fill-opacity:1.0000000;fill-rule:evenodd;stroke:#000000;stroke-width:1.0000000px;stroke-linecap:butt;stroke-linejoin:miter;stroke-opacity:1.0000000" />
      <path
         id="path18232"
         d="M 65.828572,19.283116 C 66.327273,20.280519 68.322078,19.781817 68.987014,20.945454 C 69.651949,22.109090 68.987014,28.093506 68.987014,31.750649 C 68.987014,35.407792 66.659741,50.202597 69.319481,50.036363 C 71.979221,49.870129 71.480520,44.384415 71.812988,38.399999 C 72.145455,32.415584 71.646754,23.771428 72.644156,22.774025 C 73.641559,21.776623 75.470130,20.612986 74.306494,19.615584 C 73.142858,18.618181 72.311689,17.787012 70.150650,17.787012 C 67.989611,17.787012 66.161039,18.950649 65.828572,19.283116 z "
         style="fill:#000000;fill-opacity:1.0000000;fill-rule:evenodd;stroke:#000000;stroke-width:1.0000000px;stroke-linecap:butt;stroke-linejoin:miter;stroke-opacity:1.0000000" />
      <path
         sodipodi:nodetypes="cssssc"
         id="path18960"
         d="M 59.012988,45.215583 C 59.012988,43.885713 62.171429,43.387012 66.992209,42.722077 C 71.812988,42.057142 76.467533,39.563635 77.464936,40.394804 C 78.462339,41.225973 78.961040,42.389609 77.963637,43.054544 C 76.966235,43.719479 71.979221,44.384415 68.322078,44.883116 C 64.664936,45.381818 59.345455,45.714285 59.012988,45.215583 z "
         style="fill:#000000;fill-opacity:1.0000000;fill-rule:evenodd;stroke:#000000;stroke-width:1.0000000px;stroke-linecap:butt;stroke-linejoin:miter;stroke-opacity:1.0000000" />
      <path
         sodipodi:nodetypes="cssssc"
         id="path19688"
         d="M 58.960377,37.718009 C 59.090840,38.599757 64.166367,39.042184 69.223615,37.850426 C 74.280863,36.658669 79.933082,36.791087 80.528052,35.864165 C 81.123023,34.937242 79.933082,33.613069 78.296913,33.480651 C 76.660745,33.348233 72.495952,34.672408 68.777388,35.466912 C 65.058823,36.261417 59.406605,36.393834 58.960377,37.718009 z "
         style="fill:#000000;fill-opacity:1.0000000;fill-rule:evenodd;stroke:#000000;stroke-width:0.84424990px;stroke-linecap:butt;stroke-linejoin:miter;stroke-opacity:1.0000000" />
      <path
         sodipodi:nodetypes="csssc"
         id="path20416"
         d="M 59.844156,30.375452 C 60.143395,31.807485 63.833766,31.625477 69.319481,30.653235 C 74.805195,29.680994 78.628572,29.819886 78.129870,28.153185 C 77.631169,26.486485 78.961039,25.653136 72.810390,27.042052 C 66.659740,28.430969 59.945749,29.202759 59.844156,30.375452 z "
         style="fill:#000000;fill-opacity:1.0000000;fill-rule:evenodd;stroke:#000000;stroke-width:0.91406792px;stroke-linecap:butt;stroke-linejoin:miter;stroke-opacity:1.0000000" />
    </g>
    <g
       id="g24056"
       transform="translate(-1.443955,-3.989610)">
      <path
         id="path21144"
         d="M 49.537663,22.275324 C 50.202598,23.771428 51.366234,23.272726 52.031169,23.937662 C 52.696104,24.602597 52.696104,27.262337 52.363637,31.916882 C 52.031169,36.571428 50.535065,41.059740 50.368832,46.046753 C 50.202598,51.033766 49.703896,54.192207 48.706494,55.023376 C 47.709091,55.854545 44.883117,54.857142 44.883117,54.857142 C 44.883117,54.857142 47.542857,59.511688 48.706494,59.677922 C 49.870130,59.844155 51.532468,56.851948 52.363637,54.192207 C 53.194806,51.532467 53.361039,43.054545 54.025974,37.901298 C 54.690909,32.748051 55.023377,27.096103 55.688312,25.766233 C 56.353247,24.436363 58.348052,23.272726 57.018182,22.441558 C 55.688312,21.610389 53.361039,20.446752 52.363637,20.779220 C 51.366234,21.111688 49.537663,22.275324 49.537663,22.275324 z "
         style="fill:#000000;fill-opacity:1.0000000;fill-rule:evenodd;stroke:#000000;stroke-width:1.0000000px;stroke-linecap:butt;stroke-linejoin:miter;stroke-opacity:1.0000000" />
      <path
         id="path21872"
         d="M 53.028572,36.903895 C 51.698702,34.742856 47.875325,37.568830 43.719481,42.389609 C 39.563637,47.210389 36.405195,53.194804 37.901299,54.025973 C 39.397403,54.857142 40.228572,54.192207 41.724676,52.197402 C 43.220780,50.202597 44.051948,46.046752 47.210390,42.888311 C 50.368831,39.729869 52.363637,39.064934 52.696104,38.233765 C 53.028572,37.402596 52.696104,36.903895 53.028572,36.903895 z "
         style="fill:#000000;fill-opacity:1.0000000;fill-rule:evenodd;stroke:#000000;stroke-width:1.0000000px;stroke-linecap:butt;stroke-linejoin:miter;stroke-opacity:1.0000000"
         sodipodi:nodetypes="csssssc" />
      <path
         id="path23326"
         d="M 35.906494,38.399999 C 37.402598,39.397402 43.553247,38.566233 46.046754,37.402597 C 48.540260,36.238960 54.358442,33.911688 56.187013,34.077921 C 58.015585,34.244155 60.675325,34.410389 60.342858,33.246753 C 60.010390,32.083116 58.348052,30.254545 52.363637,32.249350 C 46.379221,34.244155 43.719481,36.072727 41.225974,36.737662 C 38.732468,37.402597 35.906494,38.566233 35.906494,38.399999 z "
         style="fill:#000000;fill-opacity:1.0000000;fill-rule:evenodd;stroke:#000000;stroke-width:1.0000000px;stroke-linecap:butt;stroke-linejoin:miter;stroke-opacity:1.0000000" />
    </g>
  </g>
</svg>
