<?xml version="1.0" encoding="UTF-8" standalone="no"?>
<!-- Created with Inkscape (http://www.inkscape.org/) -->
<svg
   xmlns:dc="http://purl.org/dc/elements/1.1/"
   xmlns:cc="http://web.resource.org/cc/"
   xmlns:rdf="http://www.w3.org/1999/02/22-rdf-syntax-ns#"
   xmlns:svg="http://www.w3.org/2000/svg"
   xmlns="http://www.w3.org/2000/svg"
   xmlns:sodipodi="http://inkscape.sourceforge.net/DTD/sodipodi-0.dtd"
   xmlns:inkscape="http://www.inkscape.org/namespaces/inkscape"
   width="128.00000px"
   height="128.00000px"
   id="svg2"
   sodipodi:version="0.32"
   inkscape:version="0.42"
   sodipodi:docbase="/home/ralph/shogi"
   sodipodi:docname="pawn.svg">
  <defs
     id="defs4" />
  <sodipodi:namedview
     id="base"
     pagecolor="#ffffff"
     bordercolor="#666666"
     borderopacity="1.0"
     inkscape:pageopacity="0.0"
     inkscape:pageshadow="2"
     inkscape:zoom="4.2536892"
     inkscape:cx="72.478837"
     inkscape:cy="77.960905"
     inkscape:document-units="px"
     inkscape:current-layer="g1336"
     inkscape:window-width="1280"
     inkscape:window-height="942"
     inkscape:window-x="1"
     inkscape:window-y="62" />
  <metadata
     id="metadata7">
    <rdf:RDF>
      <cc:Work
         rdf:about="">
        <dc:format>image/svg+xml</dc:format>
        <dc:type
           rdf:resource="http://purl.org/dc/dcmitype/StillImage" />
      </cc:Work>
    </rdf:RDF>
  </metadata>
  <g
     inkscape:label="Layer 1"
     inkscape:groupmode="layer"
     id="layer1">
    <g
       id="g1336">
      <path
         sodipodi:nodetypes="cscccc"
         id="path2800"
         d="M 17.305360,116.56489 C 17.305360,116.56489 110.58392,117.77893 110.38158,116.96957 C 110.17924,116.16021 91.564000,18.227835 91.564000,18.227835 L 61.820077,8.1108558 L 32.076152,17.823157 L 17.305360,116.56489 z "
         style="fill:#c3aa55;fill-opacity:1.0000000;fill-rule:evenodd;stroke:none;stroke-width:1.0000000px;stroke-linecap:butt;stroke-linejoin:miter;stroke-opacity:1.0000000" />
      <path
         sodipodi:nodetypes="cccccc"
         id="path1332"
         d="M 41.004599,110.64878 C 41.004599,110.64878 50.436045,107.05473 55.344247,100.84683 C 56.528690,99.351411 55.151769,96.272581 55.151769,96.272581 C 58.808861,97.470598 59.482535,98.886436 60.348689,100.62901 C 60.348689,100.62901 59.920426,103.58553 52.649549,107.59928 C 48.703739,109.77750 41.004599,110.64878 41.004599,110.64878 z "
         style="fill:#000000;fill-opacity:1.0000000;fill-rule:evenodd;stroke:#000000;stroke-width:0.20270023px;stroke-linecap:butt;stroke-linejoin:miter;stroke-opacity:1.0000000" />
      <path
         sodipodi:nodetypes="ccccccccc"
         id="path2060"
         d="M 36.074363,96.072028 C 36.809678,97.994609 37.132995,100.10172 38.287867,100.31954 C 43.042895,101.21639 50.803521,96.958286 54.456061,95.527475 C 56.958281,94.547281 70.007430,91.045818 74.762545,92.042336 C 77.361005,92.586890 81.621551,95.877159 82.750401,94.982922 C 83.712793,94.220549 83.039119,91.279962 83.039119,91.279962 C 83.039119,91.279962 81.403051,89.755211 79.093309,89.210658 C 72.589652,87.677334 67.587210,88.797583 61.427898,90.431241 C 55.234858,91.833904 46.099163,97.361882 36.074363,96.072028 z "
         style="fill:#000000;fill-opacity:1.0000000;fill-rule:evenodd;stroke:#000000;stroke-width:0.20270023px;stroke-linecap:butt;stroke-linejoin:miter;stroke-opacity:1.0000000" />
      <path
         id="path2790"
         d="M 53.493669,74.072087 L 53.493669,88.883928 L 54.937257,93.784905 L 56.477085,93.022532 L 56.862043,73.418622 L 53.493669,74.072087 z "
         style="fill:#000000;fill-opacity:1.0000000;fill-rule:evenodd;stroke:#000000;stroke-width:0.20270023px;stroke-linecap:butt;stroke-linejoin:miter;stroke-opacity:1.0000000" />
      <path
         sodipodi:nodetypes="cccccc"
         id="path2792"
         d="M 64.079987,83.111665 C 64.368705,82.349291 64.946141,81.042365 65.619815,81.042365 C 66.395722,81.042365 68.448050,82.795867 68.603231,84.200772 C 68.699471,85.072057 66.101011,90.517587 65.716053,90.953230 L 63.406311,91.824515 C 62.636397,91.062142 63.467523,84.728905 64.079987,83.111665 z "
         style="fill:#000000;fill-opacity:1.0000000;fill-rule:evenodd;stroke:#000000;stroke-width:0.20270023px;stroke-linecap:butt;stroke-linejoin:miter;stroke-opacity:1.0000000" />
      <path
         sodipodi:nodetypes="ccccc"
         id="path2794"
         d="M 56.380847,80.314528 C 57.439477,80.532349 72.549041,79.007600 73.222715,78.354136 C 73.648785,77.940849 73.126477,75.304640 72.645281,74.651176 C 71.841974,73.560285 56.669565,77.700674 56.284607,78.245226 L 56.380847,80.314528 z "
         style="fill:#000000;fill-opacity:1.0000000;fill-rule:evenodd;stroke:#000000;stroke-width:0.20270023px;stroke-linecap:butt;stroke-linejoin:miter;stroke-opacity:1.0000000" />
      <path
         sodipodi:nodetypes="cccccccc"
         id="path2796"
         d="M 52.520259,74.490459 C 53.634545,74.850743 63.491535,73.401353 64.165209,72.747889 C 64.491990,72.430912 65.416319,71.549874 65.416319,70.896410 C 65.416319,70.134037 60.413602,63.677670 60.123161,64.252861 C 59.738203,65.015235 61.461487,68.428911 61.181793,69.589482 C 60.893075,70.787499 58.968289,71.114229 58.198375,71.223140 C 57.317946,71.347685 51.821277,70.600196 51.461627,71.549872 C 51.172909,72.312245 51.846585,74.272638 52.520259,74.490459 z "
         style="fill:#000000;fill-opacity:1.0000000;fill-rule:evenodd;stroke:#000000;stroke-width:0.20270023px;stroke-linecap:butt;stroke-linejoin:miter;stroke-opacity:1.0000000" />
      <path
         sodipodi:nodetypes="ccccc"
         id="path2798"
         d="M 64.209275,95.211340 C 64.026162,95.919745 77.201575,109.69645 78.548925,109.80536 C 79.716750,109.89976 81.147383,108.71625 81.628581,107.30042 C 82.077702,105.97895 77.966990,100.84429 71.042263,97.062819 C 68.155085,96.191534 64.366824,94.601828 64.209275,95.211340 z "
         style="fill:#000000;fill-opacity:1.0000000;fill-rule:evenodd;stroke:#000000;stroke-width:0.20270023px;stroke-linecap:butt;stroke-linejoin:miter;stroke-opacity:1.0000000" />
      <g
         transform="matrix(1.093122,0.000000,0.000000,1.080064,-6.632551,-1.360261)"
         id="g5800">
        <path
           style="fill:#000000;fill-opacity:1.0000000;fill-rule:evenodd;stroke:#000000;stroke-width:0.83850801px;stroke-linecap:butt;stroke-linejoin:miter;stroke-opacity:1.0000000"
           d="M 59.540188,19.282989 C 60.097514,20.119660 61.340736,19.886277 62.048151,21.479252 C 63.348577,24.407602 62.899845,44.313905 63.441470,45.533553 C 63.720136,46.161057 65.484990,47.938984 66.135207,47.520648 C 66.933592,47.006982 65.133354,38.004386 65.113447,33.297234 C 65.365928,28.623746 65.917267,24.365482 65.548573,21.747318 C 65.227577,19.944755 64.414709,18.275785 63.162803,17.923398 C 61.305050,17.400479 60.137650,17.137076 59.633072,17.818814 C 59.168629,18.446318 59.026357,18.511616 59.540188,19.282989 z "
           id="path1407"
           sodipodi:nodetypes="ccccccccc" />
        <path
           style="fill:#000000;fill-opacity:1.0000000;fill-rule:evenodd;stroke:#000000;stroke-width:0.81092495px;stroke-linecap:butt;stroke-linejoin:miter;stroke-opacity:1.0000000"
           d="M 45.709987,36.139716 C 47.274711,35.932182 49.475863,35.549393 50.760279,35.284329 C 53.800977,34.656826 65.256950,31.064458 68.135677,30.787221 C 70.307605,30.578053 77.327527,29.690675 80.211581,30.682637 C 80.819724,30.891805 81.162665,31.755445 80.710442,32.570649 C 77.021439,32.446052 72.387833,32.286772 67.939520,33.195401 C 66.288854,33.613737 58.431529,35.212217 57.128370,35.630553 C 56.107154,35.958382 51.055333,37.684379 49.416884,37.947364 C 48.113725,38.156532 46.749177,38.714132 45.264623,38.714132 C 44.308971,38.714132 43.723238,38.421846 43.375730,37.585175 C 43.106641,36.854187 44.391277,36.582270 45.709987,36.139716 z "
           id="path2137"
           sodipodi:nodetypes="ccccccccccc" />
        <path
           style="fill:#000000;fill-opacity:1.0000000;fill-rule:evenodd;stroke:#000000;stroke-width:0.57652354px;stroke-linecap:butt;stroke-linejoin:miter;stroke-opacity:1.0000000"
           d="M 69.477311,26.076710 C 69.098564,25.243698 71.455972,24.858194 72.564021,24.858194 C 74.255980,24.858194 76.361078,24.616004 76.521337,25.438439 C 76.600487,25.844611 74.146947,26.366833 73.276334,26.482882 C 72.191739,26.627455 69.793896,26.773005 69.477311,26.076710 z "
           id="path2865"
           sodipodi:nodetypes="ccccc" />
        <path
           style="fill:#000000;fill-opacity:1.0000000;fill-rule:evenodd;stroke:#000000;stroke-width:0.60614818px;stroke-linecap:butt;stroke-linejoin:miter;stroke-opacity:1.0000000"
           d="M 52.677293,27.778599 C 53.028712,28.621580 54.320294,28.376822 55.235931,28.920158 C 55.741774,29.494753 55.530441,30.994819 55.781591,32.850506 C 56.174006,33.005746 56.397302,33.367208 57.001797,33.111615 C 57.259318,30.935148 56.885419,29.232318 56.590230,28.089078 C 55.966578,27.244679 55.472569,27.125506 54.229156,26.614305 C 53.160274,26.905949 52.696227,26.995182 52.677293,27.778599 z "
           id="path3593"
           sodipodi:nodetypes="ccccccc" />
        <path
           style="fill:#000000;fill-opacity:1.0000000;fill-rule:evenodd;stroke:#000000;stroke-width:0.71968359px;stroke-linecap:butt;stroke-linejoin:miter;stroke-opacity:1.0000000"
           d="M 53.462500,40.627263 C 53.169822,41.575960 52.992631,43.521044 52.992631,44.511022 C 52.992631,44.851585 53.462500,44.891781 53.744421,45.044086 C 54.155399,45.266106 54.731155,42.911825 55.013077,42.378761 C 55.510866,41.437536 56.056531,38.312509 55.811863,37.124264 C 55.529942,36.895807 54.825129,37.200415 54.543208,37.505025 C 53.877428,38.224374 53.744421,39.713435 53.462500,40.627263 z "
           id="path4321"
           sodipodi:nodetypes="ccccccc" />
        <path
           style="fill:#000000;fill-opacity:1.0000000;fill-rule:evenodd;stroke:#000000;stroke-width:0.91079122px;stroke-linecap:butt;stroke-linejoin:miter;stroke-opacity:1.0000000"
           d="M 57.179577,41.769006 C 58.569629,41.164815 60.520178,40.032916 62.117855,39.243785 C 63.881951,38.372454 68.218081,37.823347 69.815758,37.744432 C 70.941986,37.688807 72.575381,37.586607 74.100432,38.217913 C 75.702085,38.880927 75.988598,39.638350 76.061223,40.427482 C 75.447043,42.197272 73.179784,43.876874 71.776538,45.477928 C 70.324111,47.135105 67.610104,49.107935 63.470660,51.948810 C 61.162064,53.531876 57.910059,55.024104 55.436651,56.367949 C 54.129464,57.078168 53.828664,57.430136 50.947605,57.642266 C 50.189899,57.663285 51.596940,56.988570 52.319519,56.619140 C 53.137441,56.265985 53.070379,56.277049 54.801044,55.461395 C 56.744048,54.545671 57.860169,53.970539 59.675709,52.865755 C 62.620958,50.860665 63.551663,50.064672 65.004091,49.117714 C 68.531418,46.321289 69.715427,44.953478 70.614591,42.400311 C 70.905080,41.690092 70.795094,40.663769 70.251478,40.427482 C 69.888373,40.269656 69.242913,40.130347 68.435945,40.032916 C 67.782343,39.954004 66.910885,39.954005 65.167959,40.427482 C 62.844065,41.058787 59.502781,41.892175 57.615306,43.031618 C 56.308118,43.820751 55.387023,45.013533 54.565193,44.688795 C 53.766351,44.373141 53.475871,44.057490 53.693734,43.505098 C 53.920379,43.114565 56.090254,42.242486 57.179577,41.769006 z "
           id="path5049"
           sodipodi:nodetypes="ccccccccccccccccccccc" />
      </g>
    </g>
  </g>
</svg>
