<?xml version="1.0" encoding="UTF-8" standalone="no"?>
<!-- Created with Inkscape (http://www.inkscape.org/) -->
<svg
   xmlns:dc="http://purl.org/dc/elements/1.1/"
   xmlns:cc="http://web.resource.org/cc/"
   xmlns:rdf="http://www.w3.org/1999/02/22-rdf-syntax-ns#"
   xmlns:svg="http://www.w3.org/2000/svg"
   xmlns="http://www.w3.org/2000/svg"
   xmlns:sodipodi="http://inkscape.sourceforge.net/DTD/sodipodi-0.dtd"
   xmlns:inkscape="http://www.inkscape.org/namespaces/inkscape"
   width="128.00000px"
   height="128.00000px"
   id="svg2"
   sodipodi:version="0.32"
   inkscape:version="0.42"
   sodipodi:docbase="/home/ralph/shogi"
   sodipodi:docname="silver.svg">
  <defs
     id="defs4" />
  <sodipodi:namedview
     id="base"
     pagecolor="#ffffff"
     bordercolor="#666666"
     borderopacity="1.0"
     inkscape:pageopacity="0.0"
     inkscape:pageshadow="2"
     inkscape:zoom="6.0156250"
     inkscape:cx="69.221766"
     inkscape:cy="59.283984"
     inkscape:document-units="px"
     inkscape:current-layer="g10964"
     inkscape:window-width="1205"
     inkscape:window-height="871"
     inkscape:window-x="11"
     inkscape:window-y="191" />
  <metadata
     id="metadata7">
    <rdf:RDF>
      <cc:Work
         rdf:about="">
        <dc:format>image/svg+xml</dc:format>
        <dc:type
           rdf:resource="http://purl.org/dc/dcmitype/StillImage" />
      </cc:Work>
    </rdf:RDF>
  </metadata>
  <g
     inkscape:label="Layer 1"
     inkscape:groupmode="layer"
     id="layer1">
    <g
       id="g10964">
      <path
         sodipodi:nodetypes="cscccc"
         id="path2800"
         d="M 9.8046247,116.56489 C 9.8046247,116.56489 116.93080,117.77893 116.69841,116.96957 C 116.46604,116.16021 95.087283,18.227835 95.087283,18.227835 L 60.927745,8.1108558 L 26.768205,17.823157 L 9.8046247,116.56489 z "
         style="fill:#c3aa55;fill-opacity:1.0000000;fill-rule:evenodd;stroke:none;stroke-width:1.0000000px;stroke-linecap:butt;stroke-linejoin:miter;stroke-opacity:1.0000000" />
      <path
         style="fill:#000000;fill-opacity:1.0000000;fill-rule:evenodd;stroke:#000000;stroke-width:1.0000000px;stroke-linecap:butt;stroke-linejoin:miter;stroke-opacity:1.0000000"
         d="M 74.758635,79.101270 C 76.639356,83.332891 76.639356,85.918881 76.874446,91.561042 C 77.109536,97.203204 78.755166,103.31554 77.579716,104.49099 C 76.404266,105.66644 62.533953,94.382123 62.298863,95.322483 C 62.063773,96.262843 76.169176,108.48753 78.520076,108.25244 C 80.870977,108.01735 82.516607,107.78226 82.516607,102.14009 C 82.516607,96.497934 81.106067,80.981990 79.695526,79.806540 C 78.284986,78.631090 75.698996,78.631090 74.758635,79.101270 z "
         id="path1330"
         sodipodi:nodetypes="cssssssc" />
      <path
         style="fill:#000000;fill-opacity:1.0000000;fill-rule:evenodd;stroke:#000000;stroke-width:1.0000000px;stroke-linecap:butt;stroke-linejoin:miter;stroke-opacity:1.0000000"
         d="M 56.891792,87.799602 C 60.183053,88.975052 61.358503,87.564511 65.119944,86.624151 C 68.881384,85.683791 70.056835,84.038161 76.169176,83.332891 C 82.281517,82.627620 90.509669,82.862710 92.155299,82.627620 C 93.800930,82.392530 96.386920,82.627620 95.916740,80.746900 C 95.446560,78.866180 94.036020,76.750369 89.569309,77.690729 C 85.102598,78.631090 71.937555,81.452170 66.530484,83.097800 C 61.123413,84.743431 54.070711,84.273251 52.895261,85.213611 C 51.719811,86.153971 56.891792,87.799602 56.891792,87.799602 z "
         id="path1332"
         sodipodi:nodetypes="csssssssc" />
      <path
         style="fill:#000000;fill-opacity:1.0000000;fill-rule:evenodd;stroke:#000000;stroke-width:1.0000000px;stroke-linecap:butt;stroke-linejoin:miter;stroke-opacity:1.0000000"
         d="M 70.997194,91.561042 C 68.646294,91.090862 66.765574,92.266312 66.765574,93.911943 C 66.765574,95.557573 67.941024,99.083924 67.941024,99.083924 C 67.941024,99.083924 70.527015,98.613744 71.232285,96.733024 C 71.937555,94.852303 71.232284,91.796132 70.997194,91.561042 z "
         id="path1334"
         sodipodi:nodetypes="cscsc" />
      <path
         style="fill:#000000;fill-opacity:1.0000000;fill-rule:evenodd;stroke:#000000;stroke-width:1.0000000px;stroke-linecap:butt;stroke-linejoin:miter;stroke-opacity:1.0000000"
         d="M 64.208104,81.658739 C 64.208104,81.658739 69.019096,78.006490 73.015627,74.480139 C 77.012158,70.953788 78.422698,68.367797 79.363059,68.367797 C 80.303419,68.367797 83.594680,69.778338 83.124499,71.423968 C 82.654319,73.069598 81.949049,72.599418 77.952518,74.480139 C 73.526229,76.563099 63.737924,81.423649 64.208104,81.658739 z "
         id="path1336"
         sodipodi:nodetypes="cssssc" />
      <path
         style="fill:#000000;fill-opacity:1.0000000;fill-rule:evenodd;stroke:#000000;stroke-width:1.0000000px;stroke-linecap:butt;stroke-linejoin:miter;stroke-opacity:1.0000000"
         d="M 65.286177,66.446742 C 65.286177,66.446742 66.226538,68.092373 68.342348,69.738003 C 70.458159,71.383633 70.928339,72.794173 69.987978,74.674894 C 69.421806,75.807238 69.752888,77.731065 68.107258,77.260885 C 66.461627,76.790705 64.345817,71.148543 64.580907,69.973093 C 64.815997,68.797643 65.286177,66.681833 65.286177,66.446742 z "
         id="path1338"
         sodipodi:nodetypes="cssssc" />
      <path
         style="fill:#000000;fill-opacity:1.0000000;fill-rule:evenodd;stroke:#000000;stroke-width:1.0000000px;stroke-linecap:butt;stroke-linejoin:miter;stroke-opacity:1.0000000"
         d="M 55.716341,69.973093 C 55.716341,69.973093 65.119943,67.387103 68.646294,66.446742 C 72.172645,65.506382 74.288455,64.801112 74.523545,63.625662 C 74.758635,62.450212 72.642825,59.864221 71.467375,60.099311 C 70.291924,60.334401 68.646294,62.920392 66.530484,64.330932 C 64.414673,65.741472 55.951432,69.502913 55.716341,69.973093 z "
         id="path1340"
         sodipodi:nodetypes="cssssc" />
      <path
         style="fill:#000000;fill-opacity:1.0000000;fill-rule:evenodd;stroke:#000000;stroke-width:1.0000000px;stroke-linecap:butt;stroke-linejoin:miter;stroke-opacity:1.0000000"
         d="M 46.312740,63.820417 C 46.312740,63.820417 48.428550,64.995867 49.368910,66.406407 C 50.309270,67.816948 47.488190,82.627621 46.782920,88.975052 C 46.077649,95.322483 47.253100,100.02428 46.312740,100.49446 C 45.372379,100.96464 40.240734,97.564193 40.200398,97.673384 C 39.793082,98.776007 43.256569,106.60681 45.842559,106.84190 C 48.428550,107.07699 49.839090,105.66645 50.074180,103.31554 C 50.309270,100.96464 51.484721,84.038161 51.719811,80.746900 C 51.954901,77.455640 54.305801,67.581857 52.895261,65.936227 C 51.484721,64.290597 49.604000,62.644967 48.428550,62.880057 C 47.253100,63.115147 46.547830,63.585327 46.312740,63.820417 z "
         id="path1342"
         sodipodi:nodetypes="csssssssssc" />
      <path
         style="fill:#000000;fill-opacity:1.0000000;fill-rule:evenodd;stroke:#000000;stroke-width:1.0000000px;stroke-linecap:butt;stroke-linejoin:miter;stroke-opacity:1.0000000"
         d="M 31.031886,88.034692 C 35.733687,89.445232 39.024948,89.680322 43.256569,88.034692 C 47.488190,86.389061 49.604000,85.448701 49.604000,85.448701 C 49.604000,85.448701 48.898730,81.687260 43.491659,83.332891 C 38.084588,84.978521 31.031886,87.564512 31.031886,88.034692 z "
         id="path1344" />
      <path
         style="fill:#000000;fill-opacity:1.0000000;fill-rule:evenodd;stroke:#000000;stroke-width:1.0000000px;stroke-linecap:butt;stroke-linejoin:miter;stroke-opacity:1.0000000"
         d="M 36.909137,86.624152 C 36.909137,90.385592 30.091526,96.968114 30.561706,99.554100 C 31.031886,102.14009 32.442426,102.37519 35.028417,100.96464 C 37.614408,99.554100 38.541137,95.618914 39.024948,93.441763 C 39.495128,91.325952 37.849498,87.094332 36.909137,86.624152 z "
         id="path1346"
         sodipodi:nodetypes="csssc" />
      <path
         style="fill:#000000;fill-opacity:1.0000000;fill-rule:evenodd;stroke:#000000;stroke-width:1.0000000px;stroke-linecap:butt;stroke-linejoin:miter;stroke-opacity:1.0000000"
         d="M 38.554768,65.936227 C 41.375848,67.346767 42.081118,69.932758 41.375848,71.813478 C 40.670578,73.694198 39.730218,75.810009 39.730218,75.810009 C 39.730218,75.810009 43.961839,74.869648 45.842559,74.634558 C 47.723280,74.399468 49.368910,74.634559 49.368910,74.634559 L 48.898730,76.515279 C 48.898730,76.515279 41.610938,78.866179 39.495128,78.395999 C 37.379318,77.925819 35.733687,75.104739 35.968777,73.929288 C 36.203867,72.753838 37.144227,72.753838 37.614408,70.873118 C 38.084588,68.992397 38.319678,66.406407 38.554768,65.936227 z "
         id="path1348"
         sodipodi:nodetypes="cscsccsssc" />
      <path
         style="fill:#000000;fill-opacity:1.0000000;fill-rule:evenodd;stroke:#000000;stroke-width:1.0000000px;stroke-linecap:butt;stroke-linejoin:miter;stroke-opacity:1.0000000"
         d="M 51.484721,73.694199 C 55.481251,73.459109 58.537422,74.869649 59.007602,77.220549 C 59.432669,79.345883 57.361972,81.217081 56.186521,80.511810 C 55.011071,79.806540 51.484721,74.164379 51.484721,73.694199 z "
         id="path1350"
         sodipodi:nodetypes="cssc" />
      <g
         id="g2830"
         transform="matrix(0.916991,0.000000,0.000000,0.987734,2.787559,-1.164154)">
        <path
           id="path2078"
           d="M 52.921957,35.413866 C 51.362606,35.851590 51.808136,40.666556 52.030900,44.387212 C 52.253664,48.107868 51.139842,54.017144 52.699193,53.798282 C 54.258543,53.579419 54.926836,48.983316 54.926836,45.919246 C 54.926836,42.855178 53.144722,35.851590 52.921957,35.413866 z "
           style="fill:#000000;fill-opacity:1.0000000;fill-rule:evenodd;stroke:#000000;stroke-width:0.93923414px;stroke-linecap:butt;stroke-linejoin:miter;stroke-opacity:1.0000000" />
        <path
           id="path2080"
           d="M 44.902440,38.242468 C 47.463860,39.499083 49.580492,38.915660 51.808136,38.259074 C 54.035779,37.602487 59.382124,35.413866 58.491066,34.538418 C 57.600009,33.662969 53.408968,35.110483 51.626854,35.767069 C 49.844738,36.423655 44.985405,37.232679 44.902440,38.242468 z "
           style="fill:#000000;fill-opacity:1.0000000;fill-rule:evenodd;stroke:#000000;stroke-width:0.93923414px;stroke-linecap:butt;stroke-linejoin:miter;stroke-opacity:1.0000000"
           sodipodi:nodetypes="csssc" />
        <path
           id="path2082"
           d="M 43.788618,45.262660 C 46.907319,45.481522 51.585371,43.730626 53.813015,43.074040 C 56.040658,42.417453 59.626012,42.379159 59.626012,40.190537 C 59.626012,38.001917 54.077261,40.296002 51.626854,41.390312 C 49.176445,42.484623 43.788618,45.043798 43.788618,45.262660 z "
           style="fill:#000000;fill-opacity:1.0000000;fill-rule:evenodd;stroke:#000000;stroke-width:0.93923414px;stroke-linecap:butt;stroke-linejoin:miter;stroke-opacity:1.0000000"
           sodipodi:nodetypes="csssc" />
        <path
           sodipodi:nodetypes="csssc"
           id="path2084"
           d="M 44.679676,50.077626 C 47.352848,50.515350 48.062624,50.768169 52.963440,48.798411 C 57.864256,46.828652 60.138754,46.575832 59.693224,45.481522 C 59.247696,44.387212 59.827652,43.949488 55.149601,45.700384 C 50.471549,47.451281 44.679676,49.858764 44.679676,50.077626 z "
           style="fill:#000000;fill-opacity:1.0000000;fill-rule:evenodd;stroke:#000000;stroke-width:0.93923414px;stroke-linecap:butt;stroke-linejoin:miter;stroke-opacity:1.0000000" />
        <path
           sodipodi:nodetypes="csssc"
           id="path2086"
           d="M 43.565854,56.862351 C 46.684555,58.613247 50.026020,57.081213 52.253664,56.424627 C 54.481308,55.768040 60.105147,53.617714 59.436853,52.085679 C 58.768561,50.553645 55.149601,51.390798 52.030900,52.703971 C 48.912199,54.017144 44.234147,56.424627 43.565854,56.862351 z "
           style="fill:#000000;fill-opacity:1.0000000;fill-rule:evenodd;stroke:#000000;stroke-width:0.93923414px;stroke-linecap:butt;stroke-linejoin:miter;stroke-opacity:1.0000000" />
        <path
           id="path2088"
           d="M 38.877022,37.283243 C 45.291135,34.336907 47.488075,32.838085 49.270191,30.211740 C 51.052305,27.585395 53.813015,25.783935 53.813015,25.783935 C 53.813015,25.783935 54.911484,26.373351 56.470836,28.124247 C 58.030186,29.875144 58.154634,31.171711 59.713985,30.733987 C 61.273335,30.296263 61.884794,28.107642 60.770973,27.013331 C 59.657151,25.919021 53.590250,24.470762 53.590250,24.470762 C 53.590250,24.470762 57.112998,25.278294 55.330883,23.527398 C 53.548768,21.776501 51.697665,22.203032 50.875595,23.089674 C 49.704940,24.352282 46.907319,26.659383 44.679676,29.504590 C 42.452032,32.349797 38.012097,36.155720 38.877022,37.283243 z "
           style="fill:#000000;fill-opacity:1.0000000;fill-rule:evenodd;stroke:#000000;stroke-width:0.93923414px;stroke-linecap:butt;stroke-linejoin:miter;stroke-opacity:1.0000000"
           sodipodi:nodetypes="cscssscsssc" />
        <path
           id="path2090"
           d="M 64.179583,23.608341 C 66.060304,26.194331 65.119943,36.785061 64.649763,40.076322 C 64.179583,43.367583 62.556691,53.033079 64.672502,54.678710 C 66.788312,56.324340 73.197884,51.563656 74.104293,48.365992 C 69.409363,51.468121 68.090221,52.264693 67.493583,51.152359 C 67.016430,50.262785 67.941024,43.602673 68.176114,40.076322 C 68.411204,36.549971 70.804666,25.721232 69.394126,24.780872 C 67.983586,23.840512 64.179583,23.138161 64.179583,23.608341 z "
           style="fill:#000000;fill-opacity:1.0000000;fill-rule:evenodd;stroke:#000000;stroke-width:1.0000000px;stroke-linecap:butt;stroke-linejoin:miter;stroke-opacity:1.0000000"
           sodipodi:nodetypes="csscsssc" />
        <path
           id="path2092"
           d="M 66.287819,40.228832 C 76.089451,37.383625 79.409793,37.487603 80.078086,35.736706 C 80.746380,33.985809 77.871566,33.225245 77.871566,33.225245 L 66.287819,40.228832 z "
           style="fill:#000000;fill-opacity:1.0000000;fill-rule:evenodd;stroke:#000000;stroke-width:0.93923414px;stroke-linecap:butt;stroke-linejoin:miter;stroke-opacity:1.0000000"
           sodipodi:nodetypes="cscc" />
        <path
           id="path2094"
           d="M 78.985388,24.689625 C 76.980509,25.346211 76.757744,27.753693 76.757744,29.504590 C 76.757744,31.255487 75.332821,35.413866 77.114936,35.851590 C 78.897051,36.289315 81.213032,32.349797 81.435796,30.380038 C 81.658560,28.410279 79.653681,24.689625 78.985388,24.689625 z "
           style="fill:#000000;fill-opacity:1.0000000;fill-rule:evenodd;stroke:#000000;stroke-width:0.93923414px;stroke-linecap:butt;stroke-linejoin:miter;stroke-opacity:1.0000000"
           sodipodi:nodetypes="csssc" />
        <path
           id="path2096"
           d="M 67.847170,26.440521 C 70.297578,24.908487 73.193514,22.719865 76.312216,23.595313 C 79.430917,24.470762 80.099210,25.127349 78.539859,26.002797 C 76.980509,26.878245 74.084572,27.097107 72.079693,27.534831 C 70.074814,27.972555 67.401641,26.659383 67.847170,26.440521 z "
           style="fill:#000000;fill-opacity:1.0000000;fill-rule:evenodd;stroke:#000000;stroke-width:0.93923414px;stroke-linecap:butt;stroke-linejoin:miter;stroke-opacity:1.0000000" />
        <path
           id="path2098"
           d="M 67.178877,33.006383 C 67.624405,31.255487 69.986476,31.312929 72.214120,30.656342 C 74.441764,29.999756 74.975630,28.848003 76.534980,29.504590 C 78.094330,30.161176 75.454765,31.397759 73.449885,32.054345 C 71.445006,32.710931 67.624405,33.444107 67.178877,33.006383 z "
           style="fill:#000000;fill-opacity:1.0000000;fill-rule:evenodd;stroke:#000000;stroke-width:0.93923414px;stroke-linecap:butt;stroke-linejoin:miter;stroke-opacity:1.0000000"
           sodipodi:nodetypes="csssc" />
        <path
           id="path2100"
           d="M 67.401641,38.477936 C 75.866687,43.511764 77.959903,44.187497 80.855840,46.376117 C 83.751777,48.564739 88.341491,53.798282 86.336612,54.236006 C 84.331733,54.673730 78.985388,49.421040 76.089451,47.232418 C 73.193514,45.043798 67.178877,38.259074 67.401641,38.477936 z "
           style="fill:#000000;fill-opacity:1.0000000;fill-rule:evenodd;stroke:#000000;stroke-width:0.93923414px;stroke-linecap:butt;stroke-linejoin:miter;stroke-opacity:1.0000000"
           sodipodi:nodetypes="csssc" />
        <path
           id="path2102"
           d="M 78.436305,42.961944 C 79.175315,41.976506 82.944254,35.816394 84.726369,36.254118 C 86.508484,36.691842 87.269152,36.895337 86.155330,38.208509 C 85.041508,39.521682 80.101647,42.835721 78.436305,42.961944 z "
           style="fill:#000000;fill-opacity:1.0000000;fill-rule:evenodd;stroke:#000000;stroke-width:0.93923414px;stroke-linecap:butt;stroke-linejoin:miter;stroke-opacity:1.0000000"
           sodipodi:nodetypes="cssc" />
      </g>
    </g>
  </g>
</svg>
