<?xml version="1.0" encoding="UTF-8" standalone="no"?>
<!-- Created with Inkscape (http://www.inkscape.org/) -->

<svg
   xmlns:dc="http://purl.org/dc/elements/1.1/"
   xmlns:cc="http://creativecommons.org/ns#"
   xmlns:rdf="http://www.w3.org/1999/02/22-rdf-syntax-ns#"
   xmlns:svg="http://www.w3.org/2000/svg"
   xmlns="http://www.w3.org/2000/svg"
   xmlns:sodipodi="http://sodipodi.sourceforge.net/DTD/sodipodi-0.dtd"
   xmlns:inkscape="http://www.inkscape.org/namespaces/inkscape"
   version="1.0"
   width="100"
   height="100"
   id="svg2833"
   inkscape:version="0.47 r22583"
   sodipodi:docname="WhitePegasus.svg">
  <sodipodi:namedview
     pagecolor="#ffffff"
     bordercolor="#666666"
     borderopacity="1"
     objecttolerance="10"
     gridtolerance="10"
     guidetolerance="10"
     inkscape:pageopacity="0"
     inkscape:pageshadow="2"
     inkscape:window-width="640"
     inkscape:window-height="504"
     id="namedview11"
     showgrid="false"
     inkscape:zoom="2.36"
     inkscape:cx="51.30464"
     inkscape:cy="40.036647"
     inkscape:window-x="0"
     inkscape:window-y="24"
     inkscape:window-maximized="0"
     inkscape:current-layer="svg2833" />
  <defs
     id="defs2835">
    <inkscape:perspective
       sodipodi:type="inkscape:persp3d"
       inkscape:vp_x="0 : 50 : 1"
       inkscape:vp_y="0 : 1000 : 0"
       inkscape:vp_z="100 : 50 : 1"
       inkscape:persp3d-origin="50 : 33.333333 : 1"
       id="perspective13" />
  </defs>
  <metadata
     id="metadata2838">
    <rdf:RDF>
      <cc:Work
         rdf:about="">
        <dc:format>image/svg+xml</dc:format>
        <dc:type
           rdf:resource="http://purl.org/dc/dcmitype/StillImage" />
        <dc:title />
      </cc:Work>
    </rdf:RDF>
  </metadata>
  <g
     id="g3608">
    <g
       id="layer1"
       transform="matrix(-0.8,0,0,0.8,155.55044,-25.041921)">
      <g
         style="display:inline"
         id="g4602"
         transform="matrix(1.3645649,0,0,1.3439387,-220.19479,70.376866)">
        <path
           style="opacity:0.98999999;fill:#000000;fill-opacity:1;stroke:#000000;stroke-width:0.54904515px;stroke-opacity:1"
           id="path4350"
           inkscape:connector-curvature="0"
           d="m 238.21185,-1.7155471 2.55401,0.0595 c -0.11306,-2.7134211 4.44555,-7.1531665 4.44555,-7.1531665 0,0 2.6311,2.9526263 3.05622,7.1168654 5.9381,-0.2374968 11.03878,2.8990232 13.00056,4.1073952 12.42868,7.655546 17.29364,32.448756 17.26817,51.469126 l -44.90277,-0.141002 c -0.20729,-13.073379 15.56269,-17.974522 15.10098,-30.390825 -3.98486,3.099334 -8.42701,3.94292 -11.94512,6.90514 -2.79351,2.352109 -4.23289,5.107136 -7.01819,8.412488 -1.02679,1.218501 -3.76823,0.678355 -4.65375,-1.092696 -4.42762,1.32829 -8.68213,0.01778 -8.58207,-6.302259 0.0886,-5.594944 5.71512,-10.651222 7.64949,-15.901883 0.8339,-2.263527 0.71728,-5.7619951 2.03476,-8.280479 1.02298,-1.9555369 3.32544,-4.2204556 4.38056,-4.9644989 0.81951,-2.78858391 0.63978,-7.5122594 -0.71693,-9.3212068 1.97854,-0.5652961 6.51958,2.1987846 8.32853,5.4775016 z" />
        <path
           style="opacity:0.98999999;fill:#ffffcc;fill-opacity:1;stroke:#fdfdca;stroke-width:0.54904515px;stroke-opacity:1"
           id="path4352"
           inkscape:connector-curvature="0"
           d="m 242.81689,-0.58069936 c -0.072,0.79486254 -0.32711,1.42135025 -0.73002,2.28035536 -2.11721,4.5138671 -1.19455,-0.1716813 -1.14905,-1.19710158 -1.50976,0.47874748 -4.00517,2.26532638 -5.07373,3.22990388 0.2262,-0.822523 1.59457,-2.91401608 1.19879,-4.37258378 -0.53461,-1.97018662 -2.39735,-3.30685752 -4.38274,-4.27768712 0.61573,2.305974 0.97448,5.12831401 -0.52388,8.1053126 -0.963,1.1263746 -1.94758,1.992982 -2.75,3.125 -0.68313,0.9637262 -1.34296,1.9556425 -1.73503,3.090079 -0.83217,1.95126 -0.86757,4.102469 -1.47299,6.117007 -1.0152,3.389738 -2.8013,6.466007 -4.8023,9.361167 -1.33288,2.142142 -2.90703,4.397401 -2.85563,7.031336 0.074,1.299767 0.66114,2.59601 1.56989,3.430555 1.07494,0.869977 2.59231,0.82959 3.80468,0.430633 1.76617,-0.581196 3.02202,-3.3374 4.47311,-5.629934 0.0475,0.474451 -0.10089,1.848603 -0.28033,3.228551 -0.22412,1.723516 -0.4967,3.456074 -0.4967,3.456074 3.78439,-2.467212 6.29028,-7.057025 10.07655,-9.827968 2.63561,-1.928841 6.46629,-2.181126 8.64217,-4.616774 2.70726,-3.030455 3.36645,-3.372936 4.50035,-11.329732 1.23577,7.754431 0.26208,17.297222 -3.06808,22.364697 -0.94356,1.435812 -2.64098,3.136326 -3.94944,4.706809 -2.35937,2.831831 -5.02065,5.234162 -6.63424,8.423218 -0.82438,1.629293 -1.38054,3.845243 -1.45951,5.27993 13.88505,0.05216 27.62654,-0.03393 39.71316,0 0.13389,-5.249005 -0.48174,-10.005913 -1.26011,-14.943931 -0.75657,-4.799697 -1.81449,-9.572366 -3.30276,-14.197788 -1.25479,-3.899783 -2.30537,-8.037609 -4.71838,-11.348224 -3.01163,-4.1319023 -7.09257,-7.6856654 -11.68081,-9.9418973 -1.89015,-0.92946742 -3.84424,-1.22768185 -5.87614,-1.42411251 -0.67664,2.63979221 -1.13781,0.36144826 -1.51273,-0.14218972 -1.03671,-1.94459497 -1.88857,-2.71395277 -2.04236,-4.94441567 -1.31768,1.7707756 -2.11286,3.3322909 -2.22174,4.53371084 z" />
        <path
           style="opacity:0.98999999;fill:#000000;fill-opacity:1"
           id="path4348"
           inkscape:connector-curvature="0"
           d="m 221.53873,32.85876 c 2.61354,-0.122981 3.81785,-5.736082 1.16227,-5.663706 -2.93332,0.07995 -3.41743,5.769824 -1.16227,5.663706 z" />
        <path
           style="opacity:0.98999999;fill:#000000;fill-opacity:1"
           id="path4340"
           inkscape:connector-curvature="0"
           d="m 230.75067,14.108964 0.88552,-2.213813 c 2.65658,0.442761 3.98486,-0.885522 3.5421,-3.5421016 l 2.21381,-0.442761 0,-0.442761 c -3.98486,-0.885529 -7.52696,2.6565726 -6.64143,6.6414366 z" />
      </g>
    </g>
    <path
       sodipodi:nodetypes="ccccccccccccc"
       id="path2819"
       d="M 44.534967,78.846533 C 46.93191,72.486437 49.865727,58.85879 46.907849,49.355008 44.812882,42.088752 41.147515,36.547395 35.721408,31.388907 33.109157,28.477816 27.712029,25.034782 24.195984,23.931279 19.260064,22.200533 17.03884,21.822886 10.29768,21.897381 c -7.635528,2.315823 -5.875104,5.258043 0,8.474576 -6.187216,2.59887 -7.198328,6.553673 1.016952,9.152542 -6.3848,3.765177 -4.896864,7.645983 2.033888,8.474576 -4.06516,4.570711 -6.204944,8.252783 1.355936,7.457628 3.62856,1.349562 5.006272,2.129633 8.474578,5.423729 2.895052,3.498831 5.345164,8.3042 5.42373,12.542372 l 0.338983,14.915255 15.59322,-9.491526 z"
       style="fill:#ffffcc;fill-opacity:1;stroke:#000000;stroke-width:1.75999999;stroke-linecap:butt;stroke-linejoin:miter;stroke-miterlimit:4;stroke-opacity:1;stroke-dasharray:none" />
    <path
       sodipodi:nodetypes="cc"
       id="path2830"
       d="m 13.559322,48.305085 c 8.361599,-0.900435 16.346724,4.154766 20.338983,14.40678"
       style="fill:none;stroke:#000000;stroke-width:2.2;stroke-linecap:butt;stroke-linejoin:miter;stroke-opacity:1;stroke-miterlimit:4;stroke-dasharray:none" />
    <path
       sodipodi:nodetypes="cc"
       id="path2832"
       d="M 11.440678,39.40678 C 20.821441,39.159238 28.6278,41.815603 34.322034,50"
       style="fill:none;stroke:#000000;stroke-width:2.20000005;stroke-linecap:butt;stroke-linejoin:miter;stroke-miterlimit:4;stroke-opacity:1;stroke-dasharray:none" />
    <path
       sodipodi:nodetypes="cc"
       id="path2834"
       d="m 10.169491,30.508475 c 7.92937,-0.624989 16.380331,1.911593 22.033899,8.050847"
       style="fill:none;stroke:#000000;stroke-width:2.20000005;stroke-linecap:butt;stroke-linejoin:miter;stroke-miterlimit:4;stroke-opacity:1;stroke-dasharray:none" />
  </g>
</svg>
