<?xml version="1.0" encoding="UTF-8" standalone="no"?>
<!-- Created with Inkscape (http://www.inkscape.org/) -->
<svg
   xmlns:dc="http://purl.org/dc/elements/1.1/"
   xmlns:cc="http://creativecommons.org/ns#"
   xmlns:rdf="http://www.w3.org/1999/02/22-rdf-syntax-ns#"
   xmlns:svg="http://www.w3.org/2000/svg"
   xmlns="http://www.w3.org/2000/svg"
   xmlns:sodipodi="http://sodipodi.sourceforge.net/DTD/sodipodi-0.dtd"
   xmlns:inkscape="http://www.inkscape.org/namespaces/inkscape"
   width="97.221024"
   height="89.91935"
   id="svg2833"
   sodipodi:version="0.32"
   inkscape:version="0.46+devel"
   version="1.0"
   sodipodi:docname="WhiteBishop.svg"
   inkscape:output_extension="org.inkscape.output.svg.inkscape">
  <defs
     id="defs2835">
    <inkscape:perspective
       sodipodi:type="inkscape:persp3d"
       inkscape:vp_x="0 : 526.18109 : 1"
       inkscape:vp_y="0 : 1000 : 0"
       inkscape:vp_z="744.09448 : 526.18109 : 1"
       inkscape:persp3d-origin="372.04724 : 350.78739 : 1"
       id="perspective2841" />
    <inkscape:perspective
       id="perspective2851"
       inkscape:persp3d-origin="0.5 : 0.33333333 : 1"
       inkscape:vp_z="1 : 0.5 : 1"
       inkscape:vp_y="0 : 1000 : 0"
       inkscape:vp_x="0 : 0.5 : 1"
       sodipodi:type="inkscape:persp3d" />
    <inkscape:perspective
       id="perspective2873"
       inkscape:persp3d-origin="0.5 : 0.33333333 : 1"
       inkscape:vp_z="1 : 0.5 : 1"
       inkscape:vp_y="0 : 1000 : 0"
       inkscape:vp_x="0 : 0.5 : 1"
       sodipodi:type="inkscape:persp3d" />
    <inkscape:perspective
       id="perspective2916"
       inkscape:persp3d-origin="0.5 : 0.33333333 : 1"
       inkscape:vp_z="1 : 0.5 : 1"
       inkscape:vp_y="0 : 1000 : 0"
       inkscape:vp_x="0 : 0.5 : 1"
       sodipodi:type="inkscape:persp3d" />
    <inkscape:perspective
       id="perspective2959"
       inkscape:persp3d-origin="0.5 : 0.33333333 : 1"
       inkscape:vp_z="1 : 0.5 : 1"
       inkscape:vp_y="0 : 1000 : 0"
       inkscape:vp_x="0 : 0.5 : 1"
       sodipodi:type="inkscape:persp3d" />
    <inkscape:perspective
       id="perspective3002"
       inkscape:persp3d-origin="0.5 : 0.33333333 : 1"
       inkscape:vp_z="1 : 0.5 : 1"
       inkscape:vp_y="0 : 1000 : 0"
       inkscape:vp_x="0 : 0.5 : 1"
       sodipodi:type="inkscape:persp3d" />
    <inkscape:perspective
       id="perspective3045"
       inkscape:persp3d-origin="0.5 : 0.33333333 : 1"
       inkscape:vp_z="1 : 0.5 : 1"
       inkscape:vp_y="0 : 1000 : 0"
       inkscape:vp_x="0 : 0.5 : 1"
       sodipodi:type="inkscape:persp3d" />
    <inkscape:perspective
       id="perspective3088"
       inkscape:persp3d-origin="0.5 : 0.33333333 : 1"
       inkscape:vp_z="1 : 0.5 : 1"
       inkscape:vp_y="0 : 1000 : 0"
       inkscape:vp_x="0 : 0.5 : 1"
       sodipodi:type="inkscape:persp3d" />
    <inkscape:perspective
       id="perspective3131"
       inkscape:persp3d-origin="0.5 : 0.33333333 : 1"
       inkscape:vp_z="1 : 0.5 : 1"
       inkscape:vp_y="0 : 1000 : 0"
       inkscape:vp_x="0 : 0.5 : 1"
       sodipodi:type="inkscape:persp3d" />
    <inkscape:perspective
       id="perspective3174"
       inkscape:persp3d-origin="0.5 : 0.33333333 : 1"
       inkscape:vp_z="1 : 0.5 : 1"
       inkscape:vp_y="0 : 1000 : 0"
       inkscape:vp_x="0 : 0.5 : 1"
       sodipodi:type="inkscape:persp3d" />
    <inkscape:perspective
       id="perspective3217"
       inkscape:persp3d-origin="0.5 : 0.33333333 : 1"
       inkscape:vp_z="1 : 0.5 : 1"
       inkscape:vp_y="0 : 1000 : 0"
       inkscape:vp_x="0 : 0.5 : 1"
       sodipodi:type="inkscape:persp3d" />
  </defs>
  <sodipodi:namedview
     id="base"
     pagecolor="#ffffff"
     bordercolor="#666666"
     borderopacity="1.0"
     inkscape:pageopacity="0.0"
     inkscape:pageshadow="2"
     inkscape:zoom="0.98994949"
     inkscape:cx="8.7527877"
     inkscape:cy="82.430952"
     inkscape:document-units="px"
     inkscape:current-layer="layer1"
     showgrid="false"
     inkscape:window-width="658"
     inkscape:window-height="834"
     inkscape:window-x="564"
     inkscape:window-y="56" />
  <metadata
     id="metadata2838">
    <rdf:RDF>
      <cc:Work
         rdf:about="">
        <dc:format>image/svg+xml</dc:format>
        <dc:type
           rdf:resource="http://purl.org/dc/dcmitype/StillImage" />
        <dc:title></dc:title>
      </cc:Work>
    </rdf:RDF>
  </metadata>
  <g
     inkscape:label="Layer 1"
     inkscape:groupmode="layer"
     id="layer1"
     transform="translate(-67.582896,-63.246303)">
    <path
       style="stroke-width:1px"
       d="m 112.3227,76.671534 c -1.19098,-1.19098 -2.38196,-2.38197 -2.38196,-4.16844 -3.57296,-11.31436 16.07829,-11.31436 12.50533,0 0,1.78647 -1.19098,2.97746 -2.38197,4.16844 12.50534,4.76394 23.2242,16.673795 20.24674,30.370116 -1.19098,4.16845 -5.95492,8.33689 -6.55041,12.50534 -0.59549,3.57295 5.95492,10.71886 2.97746,13.69632 -2.97746,2.97746 -11.90985,2.38197 -15.4828,2.97746 l 0,0.5955 c 10.12337,4.76394 17.86477,1.78647 27.98814,2.97746 2.97746,0.59549 8.33689,1.78648 10.12337,4.16844 1.19098,2.97746 -2.97746,8.33689 -5.35943,8.33689 -2.97747,0.59549 -6.55042,-1.78648 -9.52788,-1.78648 -8.93239,-0.59549 -20.84223,2.97747 -27.98814,-4.16844 l -0.59549,0 c -7.14591,7.14591 -19.055757,3.57295 -27.988137,4.16844 -2.97746,0 -6.55042,2.38197 -9.52788,1.78648 -2.38197,0 -6.55041,-5.35943 -5.35943,-8.33689 1.78648,-2.38196 7.14591,-3.57295 10.12337,-4.16844 10.12337,-1.19099 17.864767,1.78648 27.988137,-2.97746 l 0,-0.5955 c -3.57295,-0.59549 -12.505337,0 -15.482797,-2.97746 -2.97746,-2.97746 3.57295,-10.12337 2.97746,-13.69632 -0.59549,-4.16845 -5.35943,-8.33689 -6.55041,-12.50534 -2.97747,-13.696321 7.7414,-25.606176 20.246727,-30.370116 z m 2.97747,-10.12337 c -4.76394,1.19099 -2.97747,8.3369 1.78647,7.7414 4.76394,-1.19098 2.97746,-8.33689 -1.78647,-7.7414 z m 1.19098,11.31436 c -2.97746,0 -5.95492,2.97746 -8.33689,4.16844 -7.7414,5.35944 -14.887307,11.314365 -13.696317,21.437736 0.59549,4.16844 2.97746,12.50534 8.336887,13.10083 6.55041,1.19098 13.69632,-1.19099 20.84223,-0.59549 2.97746,0.59549 6.55041,1.78647 8.93238,-0.5955 11.90985,-11.31435 2.97746,-25.606171 -7.7414,-32.752076 -2.38197,-1.78648 -5.35943,-4.16845 -8.33689,-4.76394 z m -1.78648,19.651245 c 0,-8.336895 2.97747,-8.336895 2.97747,0 8.33689,0 8.33689,2.977471 0,2.977471 0,8.33689 -2.97747,8.33689 -2.97747,0 -8.33689,0 -8.33689,-2.977471 0,-2.977471 z m 17.26928,28.583641 c 0,-1.78648 -0.59549,-4.76394 -2.38197,-5.95493 -1.78648,-0.59549 -4.16844,-0.59549 -5.95492,-1.19098 -5.35943,-0.59549 -16.07829,-1.78648 -20.84223,1.19098 -1.78648,1.19099 -2.38197,4.16845 -2.38197,5.95493 l 31.56109,0 z m 2.38197,5.35943 c -1.78648,-2.97747 -5.35943,-2.97747 -8.33689,-2.97747 -6.55042,-0.59549 -13.10083,-0.59549 -19.65125,0 -2.97746,0 -6.550407,0 -8.336887,2.97747 12.505337,1.78647 23.819687,1.78647 36.325027,0 z m 22.03322,13.69631 c -9.52788,-3.57294 -19.05576,0 -28.58364,-2.38196 -3.57295,-0.59549 -8.33689,-5.95492 -11.90984,-5.35943 -4.16845,0.59549 -7.7414,5.35943 -12.50534,5.95492 -9.527877,1.19098 -17.864767,-1.78647 -27.392647,1.78647 l 2.38197,4.76394 c 8.93239,-3.57295 17.26928,-0.59549 26.201657,-1.78648 3.57296,-0.59549 8.3369,-4.16844 11.90985,-4.16844 4.16845,0.59549 7.7414,3.57295 12.50534,4.16844 8.93238,0.5955 16.67378,-1.78647 25.01068,1.78648 z"
       id="WhiteBishop" />
  </g>
</svg>
