<?xml version="1.0" encoding="UTF-8" standalone="no"?>
<!-- Created with Inkscape (http://www.inkscape.org/) -->

<svg
   xmlns:dc="http://purl.org/dc/elements/1.1/"
   xmlns:cc="http://creativecommons.org/ns#"
   xmlns:rdf="http://www.w3.org/1999/02/22-rdf-syntax-ns#"
   xmlns:svg="http://www.w3.org/2000/svg"
   xmlns="http://www.w3.org/2000/svg"
   xmlns:inkscape="http://www.inkscape.org/namespaces/inkscape"
   version="1.0"
   width="100"
   height="100"
   id="svg2833">
  <defs
     id="defs2835" />
  <metadata
     id="metadata2838">
    <rdf:RDF>
      <cc:Work
         rdf:about="">
        <dc:format>image/svg+xml</dc:format>
        <dc:type
           rdf:resource="http://purl.org/dc/dcmitype/StillImage" />
        <dc:title />
      </cc:Work>
    </rdf:RDF>
  </metadata>
  <g
     transform="translate(-67.582896,-53.165653)"
     id="layer1">
    <g
       transform="matrix(1.3468031,0,0,1.3439388,-215.79812,237.98498)"
       id="g4919"
       style="display:inline">
      <path
         d="m 238.21185,-126.42965 2.55401,0.0595 c -0.11306,-2.71342 4.44555,-7.15316 4.44555,-7.15316 0,0 2.6311,2.95262 3.05622,7.11686 5.9381,-0.2375 11.03878,2.89903 13.00056,4.1074 12.42868,7.65554 17.29364,32.448753 17.26817,51.469123 l -44.90277,-0.141002 c -0.20729,-13.073379 15.56269,-17.974522 15.10098,-30.390821 -3.98486,3.09933 -8.42701,3.942916 -11.94512,6.905136 -2.79351,2.352109 -4.23289,5.107136 -7.01819,8.412488 -1.02679,1.218501 -3.76823,0.678355 -4.65375,-1.092696 -4.42762,1.32829 -8.68213,0.01778 -8.58207,-6.302259 0.0886,-5.594944 5.71512,-10.651219 7.64949,-15.901879 0.8339,-2.26353 0.71728,-5.762 2.03476,-8.28048 1.02298,-1.95554 3.32544,-4.22046 4.38056,-4.9645 0.81951,-2.78859 0.63978,-7.51226 -0.71693,-9.32121 1.97854,-0.56529 6.51958,2.19879 8.32853,5.4775 z"
         inkscape:connector-curvature="0"
         id="path4687"
         style="fill:#000000;fill-opacity:1;stroke:#000000;stroke-width:0.55265367px;stroke-opacity:1" />
      <path
         d="m 245.03125,-129.84375 c -1.31768,1.77078 -2.10987,3.36108 -2.21875,4.5625 -0.072,0.79486 -0.31584,1.42224 -0.71875,2.28125 -2.11721,4.51386 -1.20175,-0.19333 -1.15625,-1.21875 -1.50976,0.47875 -3.99394,2.28542 -5.0625,3.25 0.2262,-0.82252 1.58328,-2.91643 1.1875,-4.375 -0.53461,-1.97018 -2.38961,-3.31042 -4.375,-4.28125 0.56318,2.10917 0.87246,4.64738 -0.21875,7.34375 l 7.65625,6.71875 -7.4375,7.6875 -5.625,-5.4375 c -0.30305,1.36719 -0.47063,2.77944 -0.875,4.125 -1.0152,3.38973 -2.78025,6.44859 -4.78125,9.34375 -1.33288,2.142142 -2.9264,4.397315 -2.875,7.03125 0.074,1.299767 0.685,2.602955 1.59375,3.4375 1.07494,0.869977 2.56888,0.836457 3.78125,0.4375 1.76617,-0.581196 3.01766,-3.332466 4.46875,-5.625 0.0475,0.474451 -0.10181,1.838802 -0.28125,3.21875 -0.22412,1.723516 -0.46875,3.46875 -0.46875,3.46875 3.78439,-2.467212 6.27623,-7.072807 10.0625,-9.84375 2.63561,-1.928841 6.48037,-2.189356 8.65625,-4.625 2.70726,-3.03046 3.3661,-3.3557 4.5,-11.3125 1.23577,7.75444 0.23641,17.307525 -3.09375,22.375 -0.94356,1.435812 -2.62904,3.117017 -3.9375,4.6875 -2.35937,2.831831 -5.01141,5.248444 -6.625,8.4375 -0.82438,1.629293 -1.38978,3.846563 -1.46875,5.28125 13.88505,0.05216 27.63213,-0.03393 39.71875,0 0.13389,-5.249005 -0.50288,-10.030732 -1.28125,-14.96875 -0.75657,-4.799697 -1.79298,-9.562079 -3.28125,-14.1875 -1.25479,-3.89978 -2.30574,-8.03313 -4.71875,-11.34375 -3.01163,-4.1319 -7.09926,-7.68127 -11.6875,-9.9375 -1.89015,-0.92947 -3.8431,-1.24107 -5.875,-1.4375 -0.67664,2.63979 -1.12508,0.37863 -1.5,-0.125 -1.03671,-1.9446 -1.90871,-2.73829 -2.0625,-4.96875 z"
         inkscape:connector-curvature="0"
         id="path4689"
         style="fill:#ffffcc;fill-opacity:1;stroke:#fdfdca;stroke-width:0.55265367px;stroke-opacity:1" />
      <path
         d="m 221.53873,-91.85534 c 2.61354,-0.122981 3.81785,-5.736082 1.16227,-5.663706 -2.93332,0.07995 -3.41743,5.769824 -1.16227,5.663706 z"
         inkscape:connector-curvature="0"
         id="path4691"
         style="fill:#000000;fill-opacity:1" />
      <path
         d="m 230.75067,-110.60514 0.88552,-2.21381 c 2.65658,0.44276 3.98486,-0.88552 3.5421,-3.5421 l 2.21381,-0.44276 0,-0.44276 c -3.98486,-0.88553 -7.52696,2.65657 -6.64143,6.64143 z"
         inkscape:connector-curvature="0"
         id="path4737"
         style="opacity:0.98999999;fill:#ffffcc;fill-opacity:1" />
    </g>
  </g>
</svg>
