<?xml version="1.0" encoding="UTF-8" standalone="no"?>
<!-- Created with Inkscape (http://www.inkscape.org/) -->

<svg
   xmlns:dc="http://purl.org/dc/elements/1.1/"
   xmlns:cc="http://creativecommons.org/ns#"
   xmlns:rdf="http://www.w3.org/1999/02/22-rdf-syntax-ns#"
   xmlns:svg="http://www.w3.org/2000/svg"
   xmlns="http://www.w3.org/2000/svg"
   xmlns:inkscape="http://www.inkscape.org/namespaces/inkscape"
   version="1.0"
   width="100"
   height="100"
   id="svg2833">
  <defs
     id="defs2835" />
  <metadata
     id="metadata2838">
    <rdf:RDF>
      <cc:Work
         rdf:about="">
        <dc:format>image/svg+xml</dc:format>
        <dc:type
           rdf:resource="http://purl.org/dc/dcmitype/StillImage" />
        <dc:title />
      </cc:Work>
    </rdf:RDF>
  </metadata>
  <g
     transform="translate(-67.582896,-53.165632)"
     id="layer1">
    <g
       transform="matrix(1.2579027,0,0,1.2559836,-516.51075,75.363446)"
       id="g1812"
       style="display:inline">
      <path
         d="m 477.39624,1.8939841 -4.34143,10.4515849 0.5223,0.270816 1.8896,-1.557164 54.18745,25.566184 4.98461,-15.114599 L 478.361,4.1450948 478.00268,2.1164623 z"
         inkscape:connector-curvature="0"
         id="path1808"
         style="color:#000000;fill:#ffffcc;fill-opacity:1;fill-rule:nonzero;stroke:#000000;stroke-width:1.59116232;stroke-linecap:butt;stroke-linejoin:miter;stroke-miterlimit:4;stroke-opacity:1;stroke-dasharray:none;marker:none;visibility:visible;display:inline;overflow:visible;enable-background:accumulate" />
      <path
         d="m 476.99425,24.324694 13.10469,0 0,-3.939445 27.33491,0 0,3.939445 13.02428,0 0,23.234677 -53.46388,0 z"
         inkscape:connector-curvature="0"
         id="path1800"
         style="color:#000000;fill:#ffffcc;fill-opacity:1;fill-rule:nonzero;stroke:#000000;stroke-width:1.59116232;stroke-linecap:butt;stroke-linejoin:miter;stroke-miterlimit:4;stroke-opacity:1;stroke-dasharray:none;marker:none;visibility:visible;display:inline;overflow:visible;enable-background:accumulate" />
      <path
         d="m 495.40513,51.740005 a 4.984602,4.984602 0 1 1 -9.9692,0 4.984602,4.984602 0 1 1 9.9692,0 z"
         transform="translate(-1.1255553,-3.5374595)"
         id="path1804"
         style="color:#000000;fill:#ffffcc;fill-opacity:1;fill-rule:nonzero;stroke:#000000;stroke-width:1.59116232;stroke-linecap:butt;stroke-linejoin:miter;stroke-miterlimit:4;stroke-opacity:1;stroke-dasharray:none;marker:none;visibility:visible;display:inline;overflow:visible;enable-background:accumulate" />
      <path
         d="m 495.40513,51.740005 a 4.984602,4.984602 0 1 1 -9.9692,0 4.984602,4.984602 0 1 1 9.9692,0 z"
         transform="translate(26.69174,-3.5374595)"
         id="path1806"
         style="color:#000000;fill:#ffffcc;fill-opacity:1;fill-rule:nonzero;stroke:#000000;stroke-width:1.59116232;stroke-linecap:butt;stroke-linejoin:miter;stroke-miterlimit:4;stroke-opacity:1;stroke-dasharray:none;marker:none;visibility:visible;display:inline;overflow:visible;enable-background:accumulate" />
      <path
         d="m 535.12117,29.068106 a 2.2511106,2.2511106 0 1 1 -4.50222,0 2.2511106,2.2511106 0 1 1 4.50222,0 z"
         id="path1810"
         style="color:#000000;fill:#ffffcc;fill-opacity:1;fill-rule:nonzero;stroke:#000000;stroke-width:1.59116232;stroke-linecap:butt;stroke-linejoin:miter;stroke-miterlimit:4;stroke-opacity:1;stroke-dasharray:none;marker:none;visibility:visible;display:inline;overflow:visible;enable-background:accumulate" />
    </g>
  </g>
</svg>
