<?xml version="1.0" encoding="UTF-8" standalone="no"?>
<!-- Created with Inkscape (http://www.inkscape.org/) -->
<svg
   xmlns:dc="http://purl.org/dc/elements/1.1/"
   xmlns:cc="http://creativecommons.org/ns#"
   xmlns:rdf="http://www.w3.org/1999/02/22-rdf-syntax-ns#"
   xmlns:svg="http://www.w3.org/2000/svg"
   xmlns="http://www.w3.org/2000/svg"
   xmlns:sodipodi="http://sodipodi.sourceforge.net/DTD/sodipodi-0.dtd"
   xmlns:inkscape="http://www.inkscape.org/namespaces/inkscape"
   width="97.221024"
   height="89.91935"
   id="svg2833"
   sodipodi:version="0.32"
   inkscape:version="0.46+devel"
   version="1.0"
   sodipodi:docname="WhiteQueen.svg"
   inkscape:output_extension="org.inkscape.output.svg.inkscape">
  <defs
     id="defs2835">
    <inkscape:perspective
       sodipodi:type="inkscape:persp3d"
       inkscape:vp_x="0 : 526.18109 : 1"
       inkscape:vp_y="0 : 1000 : 0"
       inkscape:vp_z="744.09448 : 526.18109 : 1"
       inkscape:persp3d-origin="372.04724 : 350.78739 : 1"
       id="perspective2841" />
    <inkscape:perspective
       id="perspective2851"
       inkscape:persp3d-origin="0.5 : 0.33333333 : 1"
       inkscape:vp_z="1 : 0.5 : 1"
       inkscape:vp_y="0 : 1000 : 0"
       inkscape:vp_x="0 : 0.5 : 1"
       sodipodi:type="inkscape:persp3d" />
    <inkscape:perspective
       id="perspective2873"
       inkscape:persp3d-origin="0.5 : 0.33333333 : 1"
       inkscape:vp_z="1 : 0.5 : 1"
       inkscape:vp_y="0 : 1000 : 0"
       inkscape:vp_x="0 : 0.5 : 1"
       sodipodi:type="inkscape:persp3d" />
    <inkscape:perspective
       id="perspective2916"
       inkscape:persp3d-origin="0.5 : 0.33333333 : 1"
       inkscape:vp_z="1 : 0.5 : 1"
       inkscape:vp_y="0 : 1000 : 0"
       inkscape:vp_x="0 : 0.5 : 1"
       sodipodi:type="inkscape:persp3d" />
    <inkscape:perspective
       id="perspective2959"
       inkscape:persp3d-origin="0.5 : 0.33333333 : 1"
       inkscape:vp_z="1 : 0.5 : 1"
       inkscape:vp_y="0 : 1000 : 0"
       inkscape:vp_x="0 : 0.5 : 1"
       sodipodi:type="inkscape:persp3d" />
    <inkscape:perspective
       id="perspective3002"
       inkscape:persp3d-origin="0.5 : 0.33333333 : 1"
       inkscape:vp_z="1 : 0.5 : 1"
       inkscape:vp_y="0 : 1000 : 0"
       inkscape:vp_x="0 : 0.5 : 1"
       sodipodi:type="inkscape:persp3d" />
    <inkscape:perspective
       id="perspective3045"
       inkscape:persp3d-origin="0.5 : 0.33333333 : 1"
       inkscape:vp_z="1 : 0.5 : 1"
       inkscape:vp_y="0 : 1000 : 0"
       inkscape:vp_x="0 : 0.5 : 1"
       sodipodi:type="inkscape:persp3d" />
    <inkscape:perspective
       id="perspective3088"
       inkscape:persp3d-origin="0.5 : 0.33333333 : 1"
       inkscape:vp_z="1 : 0.5 : 1"
       inkscape:vp_y="0 : 1000 : 0"
       inkscape:vp_x="0 : 0.5 : 1"
       sodipodi:type="inkscape:persp3d" />
    <inkscape:perspective
       id="perspective3131"
       inkscape:persp3d-origin="0.5 : 0.33333333 : 1"
       inkscape:vp_z="1 : 0.5 : 1"
       inkscape:vp_y="0 : 1000 : 0"
       inkscape:vp_x="0 : 0.5 : 1"
       sodipodi:type="inkscape:persp3d" />
    <inkscape:perspective
       id="perspective3174"
       inkscape:persp3d-origin="0.5 : 0.33333333 : 1"
       inkscape:vp_z="1 : 0.5 : 1"
       inkscape:vp_y="0 : 1000 : 0"
       inkscape:vp_x="0 : 0.5 : 1"
       sodipodi:type="inkscape:persp3d" />
    <inkscape:perspective
       id="perspective3217"
       inkscape:persp3d-origin="0.5 : 0.33333333 : 1"
       inkscape:vp_z="1 : 0.5 : 1"
       inkscape:vp_y="0 : 1000 : 0"
       inkscape:vp_x="0 : 0.5 : 1"
       sodipodi:type="inkscape:persp3d" />
    <inkscape:perspective
       id="perspective3260"
       inkscape:persp3d-origin="0.5 : 0.33333333 : 1"
       inkscape:vp_z="1 : 0.5 : 1"
       inkscape:vp_y="0 : 1000 : 0"
       inkscape:vp_x="0 : 0.5 : 1"
       sodipodi:type="inkscape:persp3d" />
    <inkscape:perspective
       id="perspective3303"
       inkscape:persp3d-origin="0.5 : 0.33333333 : 1"
       inkscape:vp_z="1 : 0.5 : 1"
       inkscape:vp_y="0 : 1000 : 0"
       inkscape:vp_x="0 : 0.5 : 1"
       sodipodi:type="inkscape:persp3d" />
  </defs>
  <sodipodi:namedview
     id="base"
     pagecolor="#ffffff"
     bordercolor="#666666"
     borderopacity="1.0"
     inkscape:pageopacity="0.0"
     inkscape:pageshadow="2"
     inkscape:zoom="0.98994949"
     inkscape:cx="8.7527877"
     inkscape:cy="82.430952"
     inkscape:document-units="px"
     inkscape:current-layer="layer1"
     showgrid="false"
     inkscape:window-width="658"
     inkscape:window-height="834"
     inkscape:window-x="564"
     inkscape:window-y="56" />
  <metadata
     id="metadata2838">
    <rdf:RDF>
      <cc:Work
         rdf:about="">
        <dc:format>image/svg+xml</dc:format>
        <dc:type
           rdf:resource="http://purl.org/dc/dcmitype/StillImage" />
        <dc:title></dc:title>
      </cc:Work>
    </rdf:RDF>
  </metadata>
  <g
     inkscape:label="Layer 1"
     inkscape:groupmode="layer"
     id="layer1"
     transform="translate(-67.582896,-63.246303)">
    <path
       style="stroke-width:1px"
       d="m 157.58012,87.289307 c 7.14591,-0.59549 8.93239,-11.90984 0.5955,-12.50533 -2.97746,0 -5.35943,1.78647 -5.95494,4.76393 -0.59548,2.97747 1.78649,5.35944 1.19099,7.7414 -1.78647,7.7414 -8.33688,16.078303 -12.50533,22.628713 l -1.78648,-31.561093 c 6.55041,-1.19098 7.14591,-10.71886 0,-11.90985 -6.55041,-0.59549 -9.52787,8.3369 -3.57296,11.31436 l -10.12336,30.370113 -0.5955,0 c -1.19099,-7.14591 -2.97746,-13.696333 -4.16845,-20.842243 -0.59549,-2.97746 -2.38197,-7.1459 -1.78646,-10.12336 0,-2.97747 3.57294,-4.16845 3.57294,-7.14591 0,-3.57296 -2.38197,-6.55042 -5.95491,-6.55042 -3.57296,0 -6.55042,2.38197 -6.55042,5.95493 0,3.57295 3.57294,4.76393 3.57294,8.33689 0,9.52787 -4.16843,20.84223 -5.95491,30.370113 l -0.5955,0 -10.123364,-30.370113 c 5.954924,-2.97746 2.97746,-11.90985 -3.572951,-11.31436 -7.14591,1.19099 -6.55042,10.71887 0,11.90985 l -1.78648,31.561093 c -4.16845,-6.55041 -10.71886,-14.887313 -12.50534,-22.628713 -0.59549,-2.38196 1.78648,-4.76393 1.19099,-7.7414 -0.5955,-2.97746 -2.97747,-4.76393 -5.95493,-4.76393 -8.33689,0.59549 -6.55041,11.90984 0.5955,12.50533 0.59549,9.52788 1.78647,22.628713 5.35943,31.561103 2.38197,4.76394 6.55041,7.7414 7.7414,13.69632 1.19098,5.35943 -6.55042,11.31435 -2.97747,16.07829 2.38197,2.38197 8.3369,2.38197 11.909851,2.97746 11.909854,1.78648 24.415184,1.78648 36.920524,0 3.57296,-0.59549 11.31436,0 13.69633,-2.97746 3.57295,-4.76394 -4.16845,-10.71886 -2.97747,-16.07829 1.19099,-5.95492 5.95493,-8.93238 7.7414,-14.29182 2.97747,-8.93238 4.76394,-21.437723 5.35943,-30.965603 z m 2.97747,-5.95492 c 0,3.57296 -5.35943,2.97746 -5.35943,-0.59549 0.59549,-4.16845 5.95491,-2.97746 5.35943,0.59549 z m -7.14592,13.10083 -3.57295,21.437733 -7.7414,-1.19099 10.71887,-20.246743 0.59548,0 z m -5.35942,24.415193 -5.35944,6.55041 -11.90984,-1.78647 -20.24674,-0.5955 -20.842235,2.38197 -5.35943,-6.55041 c 5.95493,-3.57296 16.078295,-2.38197 22.628705,-2.38197 2.97747,0 5.95493,-1.78648 8.93239,-1.78648 2.97747,-0.59549 5.35943,1.78648 8.3369,1.78648 7.1459,0.59549 17.26927,-1.78648 23.81969,2.38197 z m -61.335715,27.98814 c 1.78648,-4.16845 8.33689,-3.57296 12.505341,-4.16845 11.909854,-1.78648 23.224194,-1.78648 35.134034,0 3.57296,0.59549 9.52789,0 11.31436,4.16845 -19.05575,4.76393 -39.89799,3.57295 -58.953735,0 z m 55.976285,-6.55042 -19.65125,-1.78648 -33.347575,2.38197 c 1.78648,-4.76394 7.145911,-4.16844 11.909855,-4.76394 10.12337,-0.59549 20.24674,-1.19098 30.37011,0 4.16844,0.5955 8.33689,0.5955 10.71886,4.16845 z m -0.5955,-11.90985 c 0,1.78648 0,5.35943 -2.38196,5.95493 -4.76395,1.19098 -11.90986,-1.78648 -16.67379,-1.78648 -7.14591,0 -13.69632,0 -20.84223,0.59549 -2.977464,0 -6.550415,1.78648 -9.527885,1.19099 -2.38196,-0.5955 -2.38196,-4.16845 -2.38196,-5.95493 16.078295,-3.57295 35.729535,-3.57295 51.807825,0 z m -1.19098,-54.785293 c -1.19098,3.57296 -6.55042,1.78648 -5.35943,-1.78648 1.19097,-3.57295 6.55041,-1.78647 5.35943,1.78648 z m -4.16845,11.31436 1.19099,29.179123 -11.31435,-0.59549 9.52787,-28.583633 0.59549,0 z m -20.24673,-2.97747 5.95492,30.965603 -5.95492,-1.78647 -6.55042,1.78647 5.95492,-30.965603 0.5955,0 z m 2.38197,-11.31435 c -1.19099,3.57295 -6.55042,1.78648 -5.35944,-1.78648 1.19099,-3.57295 6.55042,-1.78647 5.35944,1.78648 z m -13.10084,42.279953 -11.314355,1.19099 1.19099,-29.179123 0.595491,0 z M 96.839906,73.592987 c -1.190981,3.57296 -6.550411,1.78648 -5.359431,-1.78648 1.19098,-3.57295 6.550421,-1.78647 5.359431,1.78648 z m -17.269281,20.84223 10.71887,20.246743 -7.7414,1.19099 -3.57296,-21.437733 0.59549,0 z m -2.97746,-12.50534 c -1.19098,3.57296 -5.95492,1.78648 -4.76394,-1.78647 1.19099,-3.57296 5.95493,-1.78648 4.76394,1.78647 z"
       id="WhiteQueen" />
  </g>
</svg>
