<?xml version="1.0" encoding="UTF-8" standalone="no"?>
<!-- Created with Inkscape (http://www.inkscape.org/) -->

<svg
   xmlns:dc="http://purl.org/dc/elements/1.1/"
   xmlns:cc="http://creativecommons.org/ns#"
   xmlns:rdf="http://www.w3.org/1999/02/22-rdf-syntax-ns#"
   xmlns:svg="http://www.w3.org/2000/svg"
   xmlns="http://www.w3.org/2000/svg"
   xmlns:inkscape="http://www.inkscape.org/namespaces/inkscape"
   version="1.0"
   width="100"
   height="100"
   id="svg2833">
  <defs
     id="defs2835" />
  <metadata
     id="metadata2838">
    <rdf:RDF>
      <cc:Work
         rdf:about="">
        <dc:format>image/svg+xml</dc:format>
        <dc:type
           rdf:resource="http://purl.org/dc/dcmitype/StillImage" />
        <dc:title />
      </cc:Work>
    </rdf:RDF>
  </metadata>
  <g
     transform="translate(-67.582896,-53.165632)"
     id="layer1">
    <g
       transform="matrix(1.4397338,0,0,1.4323454,-979.52251,-297.31512)"
       id="g842"
       style="display:inline">
      <path
         d="m 736.42988,298.12446 c 0.28187,6.17991 15.97439,8.70112 24.70538,8.7015 8.82584,3.8e-4 24.7356,-5.0937 24.97454,-8.79385 4.38524,-4.0222 3.65234,-18.32756 -0.19787,-20.73151 -2.02583,-22.88424 -31.77297,-24.5101 -43.77138,-10.75047 -7.59734,4.81302 -8.43194,15.29598 -5.97982,21.98462 -1.34056,2.63987 -2.00858,5.34718 0.26915,9.58971 z"
         inkscape:connector-curvature="0"
         id="path657"
         style="color:#000000;fill:#ffffcc;fill-opacity:1;fill-rule:nonzero;stroke:#000000;stroke-width:1.39272392;stroke-linecap:butt;stroke-linejoin:miter;stroke-miterlimit:4;stroke-opacity:1;stroke-dasharray:none;marker:none;visibility:visible;display:inline;overflow:visible;enable-background:accumulate" />
      <path
         d="m 742.05261,266.55013 c 14.42191,0.70351 32.36137,4.22104 44.23306,10.81643"
         inkscape:connector-curvature="0"
         id="path659"
         style="color:#000000;fill:#ffffcc;fill-opacity:1;fill-rule:nonzero;stroke:#000000;stroke-width:1.39272392;stroke-linecap:butt;stroke-linejoin:miter;stroke-miterlimit:4;stroke-opacity:1;stroke-dasharray:none;marker:none;visibility:visible;display:inline;overflow:visible;enable-background:accumulate" />
      <path
         d="m 735.45722,289.06238 c 10.77247,-3.73739 29.72321,0.17588 50.91639,8.35416"
         inkscape:connector-curvature="0"
         id="path661"
         style="color:#000000;fill:#ffffcc;fill-opacity:1;fill-rule:nonzero;stroke:#000000;stroke-width:1.39272392;stroke-linecap:butt;stroke-linejoin:miter;stroke-miterlimit:4;stroke-opacity:1;stroke-dasharray:none;marker:none;visibility:visible;display:inline;overflow:visible;enable-background:accumulate" />
      <path
         d="m 736.24867,298.64768 c 9.5853,-7.56271 25.15041,-12.13551 49.86113,-1.1432"
         inkscape:connector-curvature="0"
         id="path663"
         style="color:#000000;fill:#ffffcc;fill-opacity:1;fill-rule:nonzero;stroke:#000000;stroke-width:1.39272392;stroke-linecap:butt;stroke-linejoin:miter;stroke-miterlimit:4;stroke-opacity:1;stroke-dasharray:none;marker:none;visibility:visible;display:inline;overflow:visible;enable-background:accumulate" />
      <path
         d="m 764.1875,273.125 c -3.93394,0 -7.125,3.19106 -7.125,7.125 0,3.93394 3.19106,7.125 7.125,7.125 1.81618,0 3.4606,-0.69358 4.71875,-1.8125 -0.17971,0.0183 -0.37798,0.0312 -0.5625,0.0312 -2.95238,0 -5.34375,-2.39138 -5.34375,-5.34375 0,-2.95237 2.39137,-5.34375 5.34375,-5.34375 0.18452,0 0.38279,-0.0183 0.5625,0 -1.25693,-1.11367 -2.90735,-1.78125 -4.71875,-1.78125 z"
         inkscape:connector-curvature="0"
         id="path816"
         style="color:#000000;fill:#000000;fill-opacity:1;fill-rule:nonzero;stroke:none;stroke-width:1.88571429;marker:none;visibility:visible;display:inline;overflow:visible;enable-background:accumulate" />
    </g>
  </g>
</svg>
