<?xml version="1.0" encoding="UTF-8" standalone="no"?>
<!-- Created with Inkscape (http://www.inkscape.org/) -->

<svg
   xmlns:dc="http://purl.org/dc/elements/1.1/"
   xmlns:cc="http://creativecommons.org/ns#"
   xmlns:rdf="http://www.w3.org/1999/02/22-rdf-syntax-ns#"
   xmlns:svg="http://www.w3.org/2000/svg"
   xmlns="http://www.w3.org/2000/svg"
   version="1.0"
   width="100"
   height="100"
   id="svg2833">
  <defs
     id="defs2835" />
  <metadata
     id="metadata2838">
    <rdf:RDF>
      <cc:Work
         rdf:about="">
        <dc:format>image/svg+xml</dc:format>
        <dc:type
           rdf:resource="http://purl.org/dc/dcmitype/StillImage" />
        <dc:title />
      </cc:Work>
    </rdf:RDF>
  </metadata>
  <g
     transform="translate(-67.582896,-53.165632)"
     id="layer1">
    <g
       transform="matrix(1.2967471,0,0,1.2967471,-868.79434,560.77036)"
       id="g373"
       style="display:inline">
      <g
         id="g336">
        <path
           d="m 784.93957,-340.63966 -16.36886,-0.18155 -8.14608,14.19861 -8.0272,-14.26663 -16.3694,0.0446 8.34166,-14.08508 -8.22332,-14.15401 16.36886,0.18155 8.14608,-14.19861 8.0272,14.26662 16.3694,-0.0446 -8.34166,14.08507 z"
           transform="translate(0.13602359,0)"
           id="path334"
           style="color:#000000;fill:#ffffcc;fill-opacity:1;stroke:#000000;stroke-width:1.54232061;stroke-linecap:butt;stroke-linejoin:miter;stroke-miterlimit:4;stroke-opacity:1;stroke-dasharray:none;marker:none;visibility:visible;display:inline;overflow:visible;enable-background:accumulate" />
        <path
           d="m 739.73035,-369.961 a 4.2169256,4.2169256 0 1 1 -8.43385,0 4.2169256,4.2169256 0 1 1 8.43385,0 z"
           transform="matrix(0.82998852,0,0,0.82998851,150.21129,-76.254265)"
           id="path324"
           style="color:#000000;fill:#ffffcc;fill-opacity:1;stroke:#000000;stroke-width:1.85824394;stroke-linecap:butt;stroke-linejoin:miter;stroke-miterlimit:4;stroke-opacity:1;stroke-dasharray:none;marker:none;visibility:visible;display:inline;overflow:visible;enable-background:accumulate" />
        <path
           d="m 739.73035,-369.961 a 4.2169256,4.2169256 0 1 1 -8.43385,0 4.2169256,4.2169256 0 1 1 8.43385,0 z"
           transform="matrix(0.82998852,0,0,0.82998851,174.79346,-62.412914)"
           id="path326"
           style="color:#000000;fill:#ffffcc;fill-opacity:1;stroke:#000000;stroke-width:1.85824394;stroke-linecap:butt;stroke-linejoin:miter;stroke-miterlimit:4;stroke-opacity:1;stroke-dasharray:none;marker:none;visibility:visible;display:inline;overflow:visible;enable-background:accumulate" />
        <path
           d="m 739.73035,-369.961 a 4.2169256,4.2169256 0 1 1 -8.43385,0 4.2169256,4.2169256 0 1 1 8.43385,0 z"
           transform="matrix(0.82998852,0,0,0.82998851,174.79346,-33.389588)"
           id="path328"
           style="color:#000000;fill:#ffffcc;fill-opacity:1;stroke:#000000;stroke-width:1.85824394;stroke-linecap:butt;stroke-linejoin:miter;stroke-miterlimit:4;stroke-opacity:1;stroke-dasharray:none;marker:none;visibility:visible;display:inline;overflow:visible;enable-background:accumulate" />
        <path
           d="m 739.73035,-369.961 a 4.2169256,4.2169256 0 1 1 -8.43385,0 4.2169256,4.2169256 0 1 1 8.43385,0 z"
           transform="matrix(0.82998852,0,0,0.82998851,150.21129,-19.248004)"
           id="path330"
           style="color:#000000;fill:#ffffcc;fill-opacity:1;stroke:#000000;stroke-width:1.85824394;stroke-linecap:butt;stroke-linejoin:miter;stroke-miterlimit:4;stroke-opacity:1;stroke-dasharray:none;marker:none;visibility:visible;display:inline;overflow:visible;enable-background:accumulate" />
        <path
           d="m 739.73035,-369.961 a 4.2169256,4.2169256 0 1 1 -8.43385,0 4.2169256,4.2169256 0 1 1 8.43385,0 z"
           transform="matrix(0.82998852,0,0,0.82998851,125.58124,-33.389588)"
           id="path332"
           style="color:#000000;fill:#ffffcc;fill-opacity:1;stroke:#000000;stroke-width:1.85824394;stroke-linecap:butt;stroke-linejoin:miter;stroke-miterlimit:4;stroke-opacity:1;stroke-dasharray:none;marker:none;visibility:visible;display:inline;overflow:visible;enable-background:accumulate" />
        <path
           d="m 739.73035,-369.961 a 4.2169256,4.2169256 0 1 1 -8.43385,0 4.2169256,4.2169256 0 1 1 8.43385,0 z"
           transform="matrix(0.82998852,0,0,0.82998851,125.58124,-62.412914)"
           id="path322"
           style="color:#000000;fill:#ffffcc;fill-opacity:1;stroke:#000000;stroke-width:1.85824394;stroke-linecap:butt;stroke-linejoin:miter;stroke-miterlimit:4;stroke-opacity:1;stroke-dasharray:none;marker:none;visibility:visible;display:inline;overflow:visible;enable-background:accumulate" />
        <path
           d="m 772.1055,-353.77347 a 11.154449,11.154449 0 1 1 -22.3089,0 11.154449,11.154449 0 1 1 22.3089,0 z"
           transform="matrix(0.95121952,0,0,0.98780488,36.8475,-5.1304896)"
           id="path320"
           style="color:#000000;fill:#ffffcc;fill-opacity:1;stroke:#000000;stroke-width:1.59110439;stroke-linecap:butt;stroke-linejoin:miter;stroke-miterlimit:4;stroke-opacity:1;stroke-dasharray:none;marker:none;visibility:visible;display:inline;overflow:visible;enable-background:accumulate" />
      </g>
    </g>
  </g>
</svg>
