<?xml version="1.0" encoding="UTF-8" standalone="no"?>
<!-- Created with Inkscape (http://www.inkscape.org/) -->
<svg
   xmlns:dc="http://purl.org/dc/elements/1.1/"
   xmlns:cc="http://creativecommons.org/ns#"
   xmlns:rdf="http://www.w3.org/1999/02/22-rdf-syntax-ns#"
   xmlns:svg="http://www.w3.org/2000/svg"
   xmlns="http://www.w3.org/2000/svg"
   xmlns:sodipodi="http://sodipodi.sourceforge.net/DTD/sodipodi-0.dtd"
   xmlns:inkscape="http://www.inkscape.org/namespaces/inkscape"
   width="97.221024"
   height="89.91935"
   id="svg2833"
   sodipodi:version="0.32"
   inkscape:version="0.46+devel"
   version="1.0"
   sodipodi:docname="WhiteKnight.svg"
   inkscape:output_extension="org.inkscape.output.svg.inkscape">
  <defs
     id="defs2835">
    <inkscape:perspective
       sodipodi:type="inkscape:persp3d"
       inkscape:vp_x="0 : 526.18109 : 1"
       inkscape:vp_y="0 : 1000 : 0"
       inkscape:vp_z="744.09448 : 526.18109 : 1"
       inkscape:persp3d-origin="372.04724 : 350.78739 : 1"
       id="perspective2841" />
    <inkscape:perspective
       id="perspective2851"
       inkscape:persp3d-origin="0.5 : 0.33333333 : 1"
       inkscape:vp_z="1 : 0.5 : 1"
       inkscape:vp_y="0 : 1000 : 0"
       inkscape:vp_x="0 : 0.5 : 1"
       sodipodi:type="inkscape:persp3d" />
    <inkscape:perspective
       id="perspective2873"
       inkscape:persp3d-origin="0.5 : 0.33333333 : 1"
       inkscape:vp_z="1 : 0.5 : 1"
       inkscape:vp_y="0 : 1000 : 0"
       inkscape:vp_x="0 : 0.5 : 1"
       sodipodi:type="inkscape:persp3d" />
    <inkscape:perspective
       id="perspective2916"
       inkscape:persp3d-origin="0.5 : 0.33333333 : 1"
       inkscape:vp_z="1 : 0.5 : 1"
       inkscape:vp_y="0 : 1000 : 0"
       inkscape:vp_x="0 : 0.5 : 1"
       sodipodi:type="inkscape:persp3d" />
    <inkscape:perspective
       id="perspective2959"
       inkscape:persp3d-origin="0.5 : 0.33333333 : 1"
       inkscape:vp_z="1 : 0.5 : 1"
       inkscape:vp_y="0 : 1000 : 0"
       inkscape:vp_x="0 : 0.5 : 1"
       sodipodi:type="inkscape:persp3d" />
    <inkscape:perspective
       id="perspective3002"
       inkscape:persp3d-origin="0.5 : 0.33333333 : 1"
       inkscape:vp_z="1 : 0.5 : 1"
       inkscape:vp_y="0 : 1000 : 0"
       inkscape:vp_x="0 : 0.5 : 1"
       sodipodi:type="inkscape:persp3d" />
    <inkscape:perspective
       id="perspective3045"
       inkscape:persp3d-origin="0.5 : 0.33333333 : 1"
       inkscape:vp_z="1 : 0.5 : 1"
       inkscape:vp_y="0 : 1000 : 0"
       inkscape:vp_x="0 : 0.5 : 1"
       sodipodi:type="inkscape:persp3d" />
    <inkscape:perspective
       id="perspective3088"
       inkscape:persp3d-origin="0.5 : 0.33333333 : 1"
       inkscape:vp_z="1 : 0.5 : 1"
       inkscape:vp_y="0 : 1000 : 0"
       inkscape:vp_x="0 : 0.5 : 1"
       sodipodi:type="inkscape:persp3d" />
    <inkscape:perspective
       id="perspective3131"
       inkscape:persp3d-origin="0.5 : 0.33333333 : 1"
       inkscape:vp_z="1 : 0.5 : 1"
       inkscape:vp_y="0 : 1000 : 0"
       inkscape:vp_x="0 : 0.5 : 1"
       sodipodi:type="inkscape:persp3d" />
    <inkscape:perspective
       id="perspective3174"
       inkscape:persp3d-origin="0.5 : 0.33333333 : 1"
       inkscape:vp_z="1 : 0.5 : 1"
       inkscape:vp_y="0 : 1000 : 0"
       inkscape:vp_x="0 : 0.5 : 1"
       sodipodi:type="inkscape:persp3d" />
  </defs>
  <sodipodi:namedview
     id="base"
     pagecolor="#ffffff"
     bordercolor="#666666"
     borderopacity="1.0"
     inkscape:pageopacity="0.0"
     inkscape:pageshadow="2"
     inkscape:zoom="0.98994949"
     inkscape:cx="8.7527877"
     inkscape:cy="82.430952"
     inkscape:document-units="px"
     inkscape:current-layer="layer1"
     showgrid="false"
     inkscape:window-width="658"
     inkscape:window-height="834"
     inkscape:window-x="564"
     inkscape:window-y="56" />
  <metadata
     id="metadata2838">
    <rdf:RDF>
      <cc:Work
         rdf:about="">
        <dc:format>image/svg+xml</dc:format>
        <dc:type
           rdf:resource="http://purl.org/dc/dcmitype/StillImage" />
        <dc:title></dc:title>
      </cc:Work>
    </rdf:RDF>
  </metadata>
  <g
     inkscape:label="Layer 1"
     inkscape:groupmode="layer"
     id="layer1"
     transform="translate(-67.582896,-63.246303)">
    <path
       style="stroke-width:1px"
       d="m 147.48377,127.54791 c 5.95492,1.78648 11.90984,-2.38197 11.31435,-8.93238 -0.59549,-7.7414 -5.95492,-13.69633 -9.52788,-20.246743 -2.38197,-4.16845 -1.78647,-8.33689 -3.57295,-12.50534 -1.19099,-2.97746 -4.16845,-4.76394 -5.35943,-7.7414 -1.78648,-2.38197 2.38197,-9.52788 -0.59549,-11.90985 -2.97747,-2.38197 -10.12337,5.95493 -11.31436,8.3369 -4.76394,-3.57296 -7.14591,-14.29182 -11.90984,-4.16845 -0.5955,1.19098 -1.19099,2.38197 -1.19099,3.57295 -27.392626,2.38197 -38.111486,29.179133 -40.493456,53.594313 -0.5955,5.35943 -1.19099,10.71886 -1.19099,16.07829 0,1.78648 -0.59549,4.76394 1.19099,5.95493 2.38197,1.78647 9.52787,0.59549 12.50533,0.59549 l 34.538546,0 c 2.97746,0 12.50534,1.78648 13.69632,-1.78648 1.19098,-4.76394 -2.97746,-10.12337 -5.35943,-13.69632 -5.95492,-8.33689 -15.4828,-14.88731 -15.4828,-26.20166 4.76394,4.16844 11.31435,5.95492 16.67378,10.12337 3.57296,2.97746 6.55042,8.93238 10.12337,11.31435 2.38197,1.19099 4.76394,0 5.95493,-2.38197 z M 137.3604,70.380647 c 0,2.38197 -1.19099,5.95492 -0.5955,7.7414 0.5955,2.97746 4.16845,4.76394 5.35944,7.7414 1.78647,3.57295 1.78647,8.33689 3.57295,11.90985 2.38197,5.359433 6.55041,9.527873 8.93238,14.887303 1.19099,4.16845 2.38197,13.69633 -5.35943,12.50534 -2.97746,-1.19098 -4.16844,-4.16844 -6.55041,-5.95492 l 1.78647,8.33689 c -4.76393,-2.38197 -7.7414,-8.33689 -11.90984,-11.31435 -4.76394,-4.16845 -11.90985,-5.35943 -16.07829,-10.12337 -1.19099,-1.78648 -3.57296,-11.909853 -4.76394,-11.314363 -2.97746,0.5955 0.59549,10.123373 0.59549,11.909853 -1.19098,17.26928 16.67378,24.41519 20.24674,40.49348 l -52.998806,0 c 0,-26.79716 4.16845,-64.313173 35.134036,-70.268093 l 0.59549,3.57295 5.35943,-11.31435 c 1.19099,2.38196 2.97746,10.12336 5.95493,8.33689 l 7.1459,3.57295 -2.38197,-5.95492 z m 15.4828,48.234883 c 1.78647,-2.38197 -2.38197,-7.14591 -4.16845,-4.16845 -1.19098,2.38197 2.38197,6.55042 4.16845,4.16845 z M 139.74237,95.391327 c 1.19098,-4.76394 -4.16845,-11.90985 -8.93239,-8.3369 l 2.97746,0.5955 c -0.59549,3.57295 1.19099,5.35943 4.76394,4.76394 l 0.59549,2.97746 0.5955,0 z"
       id="WhiteKnight" />
  </g>
</svg>
