<?xml version="1.0" encoding="UTF-8" standalone="no"?>
<!-- Created with Inkscape (http://www.inkscape.org/) -->

<svg
   xmlns:dc="http://purl.org/dc/elements/1.1/"
   xmlns:cc="http://creativecommons.org/ns#"
   xmlns:rdf="http://www.w3.org/1999/02/22-rdf-syntax-ns#"
   xmlns:svg="http://www.w3.org/2000/svg"
   xmlns="http://www.w3.org/2000/svg"
   xmlns:inkscape="http://www.inkscape.org/namespaces/inkscape"
   version="1.0"
   width="100"
   height="100"
   id="svg2833">
  <defs
     id="defs2835" />
  <metadata
     id="metadata2838">
    <rdf:RDF>
      <cc:Work
         rdf:about="">
        <dc:format>image/svg+xml</dc:format>
        <dc:type
           rdf:resource="http://purl.org/dc/dcmitype/StillImage" />
        <dc:title />
      </cc:Work>
    </rdf:RDF>
  </metadata>
  <g
     transform="translate(-67.582896,-53.165653)"
     id="layer1">
    <g
       transform="matrix(1.2570048,0,0,1.2676814,127.4672,-87.83522)"
       id="g279"
       style="display:inline">
      <path
         d="m -33.978482,157.11309 -4.027574,-24.85525 13.351074,23.40889"
         inkscape:connector-curvature="0"
         id="path252"
         style="color:#000000;fill:#ffffcc;fill-opacity:1;fill-rule:nonzero;stroke:#000000;stroke-width:1.58436942;stroke-linecap:butt;stroke-linejoin:miter;stroke-opacity:1;marker:none;visibility:visible;display:inline;overflow:visible;enable-background:accumulate" />
      <path
         d="m -25.100018,155.39971 1.513121,-29.10534 9.968802,27.4142 z"
         inkscape:connector-curvature="0"
         id="path254"
         style="color:#000000;fill:#ffffcc;fill-opacity:1;fill-rule:nonzero;stroke:#000000;stroke-width:1.58436942;stroke-linecap:butt;stroke-linejoin:miter;stroke-opacity:1;marker:none;visibility:visible;display:inline;overflow:visible;enable-background:accumulate" />
      <path
         d="m -14.152139,153.61956 6.141494,-29.46137 6.3195081,29.46137 z"
         inkscape:connector-curvature="0"
         id="path256"
         style="color:#000000;fill:#ffffcc;fill-opacity:1;fill-rule:nonzero;stroke:#000000;stroke-width:1.58436942;stroke-linecap:butt;stroke-linejoin:miter;stroke-opacity:1;marker:none;visibility:visible;display:inline;overflow:visible;enable-background:accumulate" />
      <path
         d="M 18.112956,157.06859 22.251789,132.25784 8.900715,155.66673"
         inkscape:connector-curvature="0"
         id="path265"
         style="color:#000000;fill:#ffffcc;fill-opacity:1;fill-rule:nonzero;stroke:#000000;stroke-width:1.58436942;stroke-linecap:butt;stroke-linejoin:miter;stroke-opacity:1;marker:none;visibility:visible;display:inline;overflow:visible;enable-background:accumulate" />
      <path
         d="M 9.345751,155.39971 8.0106442,126.29437 -2.136172,153.70857 z"
         inkscape:connector-curvature="0"
         id="path267"
         style="color:#000000;fill:#ffffcc;fill-opacity:1;fill-rule:nonzero;stroke:#000000;stroke-width:1.58436942;stroke-linecap:butt;stroke-linejoin:miter;stroke-opacity:1;marker:none;visibility:visible;display:inline;overflow:visible;enable-background:accumulate" />
      <path
         d="m 4.628372,179.16461 c 0,1.57304 -3.3075384,2.84823 -7.3875938,2.84823 -4.0800554,0 -7.3875942,-1.27519 -7.3875942,-2.84823 l 1.0502676,-4.08292 -0.1143148,-4.18114 -1.8004588,-4.06891 1.3146209,-2.21684 1.5718285,1.20663 1.6575645,-2.46939 1.6575646,1.20664 2.0576664,-1.76787 2.11482373,1.76787 1.54324978,-1.20664 1.91477289,2.46939 1.2860414,-1.20663 1.3431989,2.21684 -1.6861432,4.06891 -0.2286296,4.18114 z"
         inkscape:connector-curvature="0"
         transform="matrix(3.1144579,0,0,1.5859375,0.73859859,-107.2267)"
         id="path231"
         style="color:#000000;fill:#ffffcc;fill-opacity:1;fill-rule:nonzero;stroke:#000000;stroke-width:0.71288949;stroke-linecap:butt;stroke-linejoin:miter;stroke-opacity:1;marker:none;visibility:visible;display:inline;overflow:visible;enable-background:accumulate" />
      <path
         d="m -27.928421,163.69119 c 3.941246,-1.37734 11.453857,-2.30791 20.0735395,-2.30791 8.67157296,0 16.2227042,0.94181 20.1443275,2.33283"
         inkscape:connector-curvature="0"
         id="path236"
         style="color:#000000;fill:#ffffcc;fill-opacity:1;fill-rule:nonzero;stroke:#000000;stroke-width:1.58436966;stroke-linecap:butt;stroke-linejoin:miter;stroke-opacity:1;marker:none;visibility:visible;display:inline;overflow:visible;enable-background:accumulate" />
      <path
         d="m -35.496787,129.14731 a 3.7762539,3.7762539 0 1 1 -7.552508,0 3.7762539,3.7762539 0 1 1 7.552508,0 z"
         transform="matrix(0.94166667,0,0,0.94166667,-2.3853337,7.2818425)"
         id="path238"
         style="color:#000000;fill:#ffffcc;fill-opacity:1;fill-rule:nonzero;stroke:#000000;stroke-width:1.68251622;stroke-linecap:butt;stroke-linejoin:miter;stroke-opacity:1;marker:none;visibility:visible;display:inline;overflow:visible;enable-background:accumulate" />
      <path
         d="m -35.496787,129.14731 a 3.7762539,3.7762539 0 1 1 -7.552508,0 3.7762539,3.7762539 0 1 1 7.552508,0 z"
         transform="matrix(0.94166667,0,0,0.94166667,60.622804,7.3600513)"
         id="path242"
         style="color:#000000;fill:#ffffcc;fill-opacity:1;fill-rule:nonzero;stroke:#000000;stroke-width:1.68251622;stroke-linecap:butt;stroke-linejoin:miter;stroke-opacity:1;marker:none;visibility:visible;display:inline;overflow:visible;enable-background:accumulate" />
      <path
         d="m -35.496787,129.14731 a 3.7762539,3.7762539 0 1 1 -7.552508,0 3.7762539,3.7762539 0 1 1 7.552508,0 z"
         transform="matrix(0.94166667,0,0,0.94166667,45.617594,1.3288436)"
         id="path244"
         style="color:#000000;fill:#ffffcc;fill-opacity:1;fill-rule:nonzero;stroke:#000000;stroke-width:1.68251622;stroke-linecap:butt;stroke-linejoin:miter;stroke-opacity:1;marker:none;visibility:visible;display:inline;overflow:visible;enable-background:accumulate" />
      <path
         d="m -35.496787,129.14731 a 3.7762539,3.7762539 0 1 1 -7.552508,0 3.7762539,3.7762539 0 1 1 7.552508,0 z"
         transform="matrix(0.80024532,0,0,0.94166667,23.506429,-0.70675532)"
         id="path246"
         style="color:#000000;fill:#ffffcc;fill-opacity:1;fill-rule:nonzero;stroke:#000000;stroke-width:1.82514048;stroke-linecap:butt;stroke-linejoin:miter;stroke-opacity:1;marker:none;visibility:visible;display:inline;overflow:visible;enable-background:accumulate" />
      <path
         d="m -35.496787,129.14731 a 3.7762539,3.7762539 0 1 1 -7.552508,0 3.7762539,3.7762539 0 1 1 7.552508,0 z"
         transform="matrix(0.94166667,0,0,0.94166667,12.601442,1.3104095)"
         id="path248"
         style="color:#000000;fill:#ffffcc;fill-opacity:1;fill-rule:nonzero;stroke:#000000;stroke-width:1.68251622;stroke-linecap:butt;stroke-linejoin:miter;stroke-opacity:1;marker:none;visibility:visible;display:inline;overflow:visible;enable-background:accumulate" />
      <path
         d="m -10.146816,179.16461 c 0,-1.57303 3.3075388,-2.84823 7.3875942,-2.84823 4.0800554,0 7.3875938,1.2752 7.3875938,2.84823"
         inkscape:connector-curvature="0"
         transform="matrix(3.1144579,0,0,1.5859375,0.73859859,-107.2267)"
         id="path250"
         style="color:#000000;fill:#ffffcc;fill-opacity:1;fill-rule:nonzero;stroke:#000000;stroke-width:0.71288949;stroke-linecap:butt;stroke-linejoin:miter;stroke-opacity:1;marker:none;visibility:visible;display:inline;overflow:visible;enable-background:accumulate" />
      <path
         d="m -27.614815,170.63671 c 4.017812,-1.31876 11.363659,-2.20172 19.7599335,-2.20172 8.48007745,0 15.8886525,0.90067 19.8792395,2.24134"
         inkscape:connector-curvature="0"
         id="path277"
         style="color:#000000;fill:none;stroke:#000000;stroke-width:1.58436966;stroke-linecap:butt;stroke-linejoin:miter;stroke-opacity:1;marker:none;visibility:visible;display:inline;overflow:visible;enable-background:accumulate" />
    </g>
  </g>
</svg>
