<?xml version="1.0" encoding="UTF-8" standalone="no"?>
<!-- Created with Inkscape (http://www.inkscape.org/) -->

<svg
   xmlns:dc="http://purl.org/dc/elements/1.1/"
   xmlns:cc="http://creativecommons.org/ns#"
   xmlns:rdf="http://www.w3.org/1999/02/22-rdf-syntax-ns#"
   xmlns:svg="http://www.w3.org/2000/svg"
   xmlns="http://www.w3.org/2000/svg"
   xmlns:sodipodi="http://sodipodi.sourceforge.net/DTD/sodipodi-0.dtd"
   xmlns:inkscape="http://www.inkscape.org/namespaces/inkscape"
   width="100"
   height="100"
   id="svg2"
   version="1.1"
   inkscape:version="0.47 r22583"
   sodipodi:docname="WhiteLeopard.svg">
  <defs
     id="defs4">
    <inkscape:perspective
       sodipodi:type="inkscape:persp3d"
       inkscape:vp_x="0 : 526.18109 : 1"
       inkscape:vp_y="0 : 1000 : 0"
       inkscape:vp_z="744.09448 : 526.18109 : 1"
       inkscape:persp3d-origin="372.04724 : 350.78739 : 1"
       id="perspective10" />
    <inkscape:perspective
       id="perspective2824"
       inkscape:persp3d-origin="0.5 : 0.33333333 : 1"
       inkscape:vp_z="1 : 0.5 : 1"
       inkscape:vp_y="0 : 1000 : 0"
       inkscape:vp_x="0 : 0.5 : 1"
       sodipodi:type="inkscape:persp3d" />
    <inkscape:perspective
       id="perspective2838"
       inkscape:persp3d-origin="0.5 : 0.33333333 : 1"
       inkscape:vp_z="1 : 0.5 : 1"
       inkscape:vp_y="0 : 1000 : 0"
       inkscape:vp_x="0 : 0.5 : 1"
       sodipodi:type="inkscape:persp3d" />
  </defs>
  <sodipodi:namedview
     id="base"
     pagecolor="#ffffff"
     bordercolor="#666666"
     borderopacity="1.0"
     inkscape:pageopacity="0.0"
     inkscape:pageshadow="2"
     inkscape:zoom="0.98994949"
     inkscape:cx="246.14185"
     inkscape:cy="-2.6387301"
     inkscape:document-units="px"
     inkscape:current-layer="layer1"
     showgrid="false"
     inkscape:window-width="792"
     inkscape:window-height="583"
     inkscape:window-x="62"
     inkscape:window-y="24"
     inkscape:window-maximized="0" />
  <metadata
     id="metadata7">
    <rdf:RDF>
      <cc:Work
         rdf:about="">
        <dc:format>image/svg+xml</dc:format>
        <dc:type
           rdf:resource="http://purl.org/dc/dcmitype/StillImage" />
        <dc:title />
      </cc:Work>
    </rdf:RDF>
  </metadata>
  <g
     inkscape:label="Layer 1"
     inkscape:groupmode="layer"
     id="layer1"
     transform="translate(366.71429,-981.93367)">
    <g
       id="g3625">
      <path
         sodipodi:nodetypes="cccccccccccccccccccccccccccccccccccccccccccccccccccccc"
         id="path2844"
         d="m -316.1258,1002.1094 10.04545,1.3788 7.87879,3.7425 1.57575,-3.7425 3.34849,-3.54543 3.15151,-1.18182 4.92425,-0.39393 2.36364,2.75758 0.39394,4.5303 -1.57577,3.7424 -1.57575,2.7576 -3.15152,1.1818 1.37879,2.9546 -0.98485,2.7575 -1.18182,1.3789 1.37879,5.909 0.59091,4.5303 -0.39394,5.3182 -1.57576,4.9242 -2.95454,5.5152 -3.93939,3.5454 -3.34849,0.197 -3.54545,2.1666 -0.98485,4.9243 -1.37879,6.697 -3.74242,3.9394 -4.13636,1.5757 -4.33334,-0.1969 -5.12121,-3.1516 -2.36363,-2.5605 0.39394,-2.9546 -1.77273,-3.5455 -1.77273,-4.1363 -0.78788,-2.3637 -4.13636,-3.9394 -4.33334,-2.7575 -4.13636,-5.9091 0,-7.2879 0.78788,-5.909 1.37879,-5.1213 -2.56061,-3.1515 -0.19697,-5.3181 -2.36363,-3.1516 -0.98485,-4.1364 1.57575,-4.92421 1.9697,-2.75757 1.77273,0.59091 2.95455,2.75758 3.15151,3.74239 0.98485,2.3636 2.56061,0.591 4.13636,-2.7576 5.71212,-1.1818 4.92424,-0.394 z"
         style="fill:#ffffcc;stroke:#000000;stroke-width:1.72730826999999998;stroke-linecap:butt;stroke-linejoin:miter;stroke-miterlimit:4;stroke-opacity:1;stroke-dasharray:none;fill-opacity:1" />
      <path
         sodipodi:nodetypes="ccccccccc"
         id="path2846"
         d="m -300.17125,1022.9882 -5.75488,0.2657 -1.33603,0.7451 -4.51355,4.3501 3.61419,-1.7987 4.00812,0.4628 2.09794,-0.8734 0.70238,-2.7577 1.18183,-0.3939 z"
         style="fill:#000000;stroke:#000000;stroke-width:1.72730827;stroke-linecap:butt;stroke-linejoin:miter;stroke-miterlimit:4;stroke-opacity:1;stroke-dasharray:none" />
      <path
         sodipodi:nodetypes="ccccccccccc"
         id="path2848"
         d="m -333.26216,1022.5943 5.71212,0.4627 2.40638,1.1818 1.92695,2.8858 -2.64609,0.085 -2.67209,0.042 -1.74673,-0.8994 -0.89937,-1.3528 -0.30844,-1.8154 1.43075,0.1542 -3.20348,-0.7451 z"
         style="fill:#000000;stroke:#000000;stroke-width:1.72730827;stroke-linecap:butt;stroke-linejoin:miter;stroke-miterlimit:4;stroke-opacity:1;stroke-dasharray:none" />
      <path
         sodipodi:nodetypes="cccccccccc"
         id="path2850"
         d="m -316.95642,1039.6024 3.23701,-1.0276 1.42153,0.9421 -1.37879,3.2538 -1.85822,2.3637 -2.08118,0.042 -2.18342,-2.2949 -1.53302,-3.3485 1.0276,-1.0276 3.34849,1.0964 z"
         style="fill:#000000;stroke:#000000;stroke-width:1.72730827;stroke-linecap:butt;stroke-linejoin:miter;stroke-miterlimit:4;stroke-opacity:1;stroke-dasharray:none" />
      <path
         sodipodi:nodetypes="ccccccccccccccccccccc"
         id="path2852"
         d="m -316.23728,1047.5927 3.03081,0.8473 3.60519,0.8187 3.12699,-0.01 c 0.63924,-0.493 1.12426,-0.1508 1.45505,-0.548 l -1.43829,6.7991 -0.63366,2.3896 -0.74513,3.7164 -1.71322,1.3361 -3.382,0.3939 -5.09523,0.086 -2.5606,-0.8307 -1.56652,-1.6445 -1.01085,-2.3544 -1.19857,-3.3913 -2.38963,-5.2753 1.96047,0.2396 4.53031,-1.3787 4.02488,-1.1986 0,-10e-5 0,10e-5 z"
         style="fill:#000000;stroke:#000000;stroke-width:1.72730827;stroke-linecap:butt;stroke-linejoin:miter;stroke-miterlimit:4;stroke-opacity:1;stroke-dasharray:none" />
      <path
         sodipodi:nodetypes="ccccc"
         id="path2854"
         d="m -306.84224,1049.5624 -2.8523,8.6164 -1.49026,-9.276 4.65101,0.8143 -0.30845,-0.1547 z"
         style="fill:#ffffff;stroke:#000000;stroke-width:1.72730827;stroke-linecap:butt;stroke-linejoin:miter;stroke-miterlimit:4;stroke-opacity:1;stroke-dasharray:none" />
      <path
         sodipodi:nodetypes="ccccc"
         id="path2856"
         d="m -320.16745,1049.0309 -1.84145,8.6424 -1.91019,-2.9897 -0.70239,-4.4021 4.45403,-1.2506 z"
         style="fill:#ffffff;stroke:#000000;stroke-width:1.72730827;stroke-linecap:butt;stroke-linejoin:miter;stroke-miterlimit:4;stroke-opacity:1;stroke-dasharray:none" />
      <path
         sodipodi:nodetypes="ccccccccc"
         id="path2858"
         d="m -309.83953,1062.6907 c 1.06225,-0.731 1.71365,-1.5642 1.79871,-2.3469 l 0.92536,-4.4709 c -1.03934,0.8994 -1.92445,1.953 -2.96378,2.8524 l -1.20781,0.5054 c -0.78908,-0.7043 -2.7455,-0.6155 -2.06442,-1.6873 l -0.47942,3.1348 1.44752,2.2354 2.54384,-0.2229 z"
         style="fill:#ffffff;stroke:#000000;stroke-width:1.72730827;stroke-linecap:butt;stroke-linejoin:miter;stroke-miterlimit:4;stroke-opacity:1;stroke-dasharray:none" />
      <path
         sodipodi:nodetypes="ccccccccc"
         id="path2860"
         d="m -317.17015,1057.2777 -2.10716,1.559 -0.78789,0 -2.43236,-1.756 -0.0687,3.0921 1.86745,2.3041 2.36364,0.6336 1.71322,-1.9268 -0.54816,-3.906 z"
         style="fill:#ffffff;stroke:#000000;stroke-width:1.72730827;stroke-linecap:butt;stroke-linejoin:miter;stroke-miterlimit:4;stroke-opacity:1;stroke-dasharray:none" />
      <path
         sodipodi:nodetypes="cccccccccc"
         id="path2862"
         d="m -295.24702,1009.0034 1.42154,-3.999 3.27975,-3.4004 4.40207,-0.069 0.9421,2.9378 -1.05358,3.5881 -1.22456,2.2095 -2.64611,0.8994 -3.34848,-0.197 -1.77273,-1.9697 z"
         style="fill:#000000;stroke:#000000;stroke-width:1.72730827;stroke-linecap:butt;stroke-linejoin:miter;stroke-miterlimit:4;stroke-opacity:1;stroke-dasharray:none" />
      <path
         sodipodi:nodetypes="cccccccccc"
         id="path2864"
         d="m -341.14095,1000.3367 2.99729,2.6721 1.77273,2.4231 0.54816,3.5715 -2.75757,1.5757 -2.40639,-1.6444 -2.05518,-3.2798 0,-2.3804 1.07033,-2.6293 0.83063,-0.3085 z"
         style="fill:#000000;stroke:#000000;stroke-width:1.72730827;stroke-linecap:butt;stroke-linejoin:miter;stroke-miterlimit:4;stroke-opacity:1;stroke-dasharray:none" />
      <path
         id="path2866"
         d="m -304.30762,1036.1852 12.40909,-9.2576 10.04545,-6.303 5.71212,-4.5303"
         style="fill:none;stroke:#000000;stroke-width:1.72730827;stroke-linecap:butt;stroke-linejoin:miter;stroke-miterlimit:4;stroke-opacity:1;stroke-dasharray:none" />
      <path
         id="path2868"
         d="m -304.11065,1038.9428 12.21212,-3.5455 8.66667,-0.9848 9.06059,0 2.16668,0.5909"
         style="fill:none;stroke:#000000;stroke-width:1.72730827;stroke-linecap:butt;stroke-linejoin:miter;stroke-miterlimit:4;stroke-opacity:1;stroke-dasharray:none" />
      <path
         id="path2870"
         d="m -303.32277,1042.4882 8.86363,-2.3636 8.86364,-0.7879 5.90909,0.5909 8.66666,1.7727"
         style="fill:none;stroke:#000000;stroke-width:1.72730827;stroke-linecap:butt;stroke-linejoin:miter;stroke-miterlimit:4;stroke-opacity:1;stroke-dasharray:none" />
      <path
         id="path2872"
         d="m -304.30762,1044.8519 8.66666,0.5909 7.28788,3.3485"
         style="fill:none;stroke:#000000;stroke-width:1.72730827;stroke-linecap:butt;stroke-linejoin:miter;stroke-miterlimit:4;stroke-opacity:1;stroke-dasharray:none" />
      <path
         id="path2874"
         d="m -330.11064,1037.7609 -8.86364,-4.3333 -6.69697,-2.5606 -7.48485,-1.1818 -8.66666,-0.394"
         style="fill:none;stroke:#000000;stroke-width:1.72730827;stroke-linecap:butt;stroke-linejoin:miter;stroke-miterlimit:4;stroke-opacity:1;stroke-dasharray:none" />
      <path
         id="path2876"
         d="m -330.50458,1040.9125 -12.01516,-1.7727 -7.87879,0.1969 -10.63636,3.3485 -7.87878,3.7424"
         style="fill:none;stroke:#000000;stroke-width:1.72730827;stroke-linecap:butt;stroke-linejoin:miter;stroke-miterlimit:4;stroke-opacity:1;stroke-dasharray:none" />
      <path
         id="path2878"
         d="m -330.70156,1044.064 -6.30302,0.7879 -8.66667,3.1515 -7.48485,3.9393 c 0,0 -3.74243,3.3485 -4.5303,3.1516"
         style="fill:none;stroke:#000000;stroke-width:1.72730827;stroke-linecap:butt;stroke-linejoin:miter;stroke-miterlimit:4;stroke-opacity:1;stroke-dasharray:none" />
      <path
         id="path2880"
         d="m -326.5652,1046.4276 -5.71211,2.3637 -5.9091,3.5454 -4.13636,3.9394"
         style="fill:none;stroke:#000000;stroke-width:1.72730827;stroke-linecap:butt;stroke-linejoin:miter;stroke-miterlimit:4;stroke-opacity:1;stroke-dasharray:none" />
    </g>
  </g>
</svg>
