<?xml version="1.0" encoding="UTF-8" standalone="no"?>
<!-- Created with Inkscape (http://www.inkscape.org/) -->

<svg
   xmlns:dc="http://purl.org/dc/elements/1.1/"
   xmlns:cc="http://creativecommons.org/ns#"
   xmlns:rdf="http://www.w3.org/1999/02/22-rdf-syntax-ns#"
   xmlns:svg="http://www.w3.org/2000/svg"
   xmlns="http://www.w3.org/2000/svg"
   xmlns:inkscape="http://www.inkscape.org/namespaces/inkscape"
   version="1.0"
   width="100"
   height="100"
   id="svg2833">
  <defs
     id="defs2835" />
  <metadata
     id="metadata2838">
    <rdf:RDF>
      <cc:Work
         rdf:about="">
        <dc:format>image/svg+xml</dc:format>
        <dc:type
           rdf:resource="http://purl.org/dc/dcmitype/StillImage" />
        <dc:title />
      </cc:Work>
    </rdf:RDF>
  </metadata>
  <g
     transform="translate(-67.582896,-53.165653)"
     id="layer1">
    <g
       transform="matrix(1.3660883,0,0,1.2822282,-221.35642,398.21406)"
       id="g1457"
       style="fill:#ffffcc;fill-opacity:1;display:inline">
      <path
         d="m 222.10227,-204.68568 52.01421,0 0,4.99548 -52.01421,0 z"
         inkscape:connector-curvature="0"
         id="path1388"
         style="color:#000000;fill:#ffffcc;fill-opacity:1;stroke:#000000;stroke-width:1.51115131;stroke-opacity:1;marker:none;visibility:visible;display:inline;overflow:visible;enable-background:accumulate" />
      <path
         d="m 227.11898,-211.69225 41.98078,0 0,7.00167 -41.98078,0 z"
         inkscape:connector-curvature="0"
         id="path1390"
         style="color:#000000;fill:#ffffcc;fill-opacity:1;stroke:#000000;stroke-width:1.51115131;stroke-opacity:1;marker:none;visibility:visible;display:inline;overflow:visible;enable-background:accumulate" />
      <path
         d="m 232.11249,-216.67209 31.98161,0 5.07471,4.96519 -42.11887,0 z"
         inkscape:connector-curvature="0"
         id="path1392"
         style="color:#000000;fill:#ffffcc;fill-opacity:1;stroke:#000000;stroke-width:1.51115131;stroke-linejoin:bevel;stroke-opacity:1;marker:none;visibility:visible;display:inline;overflow:visible;enable-background:accumulate" />
      <path
         d="m 232.11856,-235.85127 31.98163,0 0,19.17919 -31.98164,0 z"
         inkscape:connector-curvature="0"
         id="path1394"
         style="color:#000000;fill:#ffffcc;fill-opacity:1;stroke:#000000;stroke-width:1.51115131;stroke-opacity:1;marker:none;visibility:visible;display:inline;overflow:visible;enable-background:accumulate" />
      <path
         d="m 226.09732,-240.60912 44.02411,0 -6.15781,4.991 -31.73284,0 z"
         inkscape:connector-curvature="0"
         id="path1396"
         style="color:#000000;fill:#ffffcc;fill-opacity:1;stroke:#000000;stroke-width:1.51115131;stroke-linecap:square;stroke-linejoin:bevel;stroke-opacity:1;marker:none;visibility:visible;display:inline;overflow:visible;enable-background:accumulate" />
      <path
         d="m 226.09375,-250.61307 0,10 44.03125,0 0,-10 -9,0 0,4.96875 -9,0 0,-4.96875 -8.0625,0 0,4.96875 -8.96875,0 0,-4.96875 -9,0 z"
         inkscape:connector-curvature="0"
         id="path1398"
         style="color:#000000;fill:#ffffcc;fill-opacity:1;stroke:#000000;stroke-width:1.51115131;stroke-opacity:1;marker:none;visibility:visible;display:inline;overflow:visible;enable-background:accumulate" />
      <path
         d="m 230.92972,-250.49356 17.32946,-10.0764 17.32947,10.0764 -4.46365,-0.11951 0,4.96875 -9,0 0,-4.96875 -8.0625,0 0,4.96875 -8.96875,0 0,-4.96875 z"
         inkscape:connector-curvature="0"
         id="path1454"
         style="color:#000000;fill:#ffffcc;fill-opacity:1;stroke:#000000;stroke-width:1.51115131;stroke-opacity:1;marker:none;visibility:visible;display:inline;overflow:visible;enable-background:accumulate" />
    </g>
  </g>
</svg>
