<?xml version="1.0" encoding="UTF-8" standalone="no"?>
<!-- Created with Inkscape (http://www.inkscape.org/) -->

<svg
   xmlns:dc="http://purl.org/dc/elements/1.1/"
   xmlns:cc="http://creativecommons.org/ns#"
   xmlns:rdf="http://www.w3.org/1999/02/22-rdf-syntax-ns#"
   xmlns:svg="http://www.w3.org/2000/svg"
   xmlns="http://www.w3.org/2000/svg"
   xmlns:sodipodi="http://sodipodi.sourceforge.net/DTD/sodipodi-0.dtd"
   xmlns:inkscape="http://www.inkscape.org/namespaces/inkscape"
   version="1.0"
   width="100"
   height="100"
   id="svg2833"
   inkscape:version="0.47 r22583"
   sodipodi:docname="WhiteCrownedBishop.svg">
  <sodipodi:namedview
     pagecolor="#ffffff"
     bordercolor="#666666"
     borderopacity="1"
     objecttolerance="10"
     gridtolerance="10"
     guidetolerance="10"
     inkscape:pageopacity="0"
     inkscape:pageshadow="2"
     inkscape:window-width="640"
     inkscape:window-height="487"
     id="namedview13"
     showgrid="false"
     inkscape:zoom="2.36"
     inkscape:cx="50"
     inkscape:cy="50"
     inkscape:window-x="0"
     inkscape:window-y="25"
     inkscape:window-maximized="0"
     inkscape:current-layer="svg2833" />
  <defs
     id="defs2835">
    <inkscape:perspective
       sodipodi:type="inkscape:persp3d"
       inkscape:vp_x="0 : 50 : 1"
       inkscape:vp_y="0 : 1000 : 0"
       inkscape:vp_z="100 : 50 : 1"
       inkscape:persp3d-origin="50 : 33.333333 : 1"
       id="perspective15" />
  </defs>
  <metadata
     id="metadata2838">
    <rdf:RDF>
      <cc:Work
         rdf:about="">
        <dc:format>image/svg+xml</dc:format>
        <dc:type
           rdf:resource="http://purl.org/dc/dcmitype/StillImage" />
        <dc:title></dc:title>
      </cc:Work>
    </rdf:RDF>
  </metadata>
  <path
     d="m 36.534832,58.968047 c -3.243443,-3.154945 -10.214715,-10.374074 -13.03495,-12.09609 -2.820236,-1.722015 -9.813947,-3.834791 -9.997463,-7.098474 1.572767,-7.2769 19.644618,-8.907618 31.169347,-21.564265 l 10.065462,-0.02979 c 12.744832,12.505359 30.015019,14.896149 31.391548,21.594106 -0.557894,3.635787 -4.567159,4.603962 -8.190134,7.098425 -3.622976,2.494463 -10.263803,8.270149 -14.131036,12.09614 z"
     inkscape:connector-curvature="0"
     id="path884"
     style="color:#000000;fill:#ffffcc;fill-opacity:1;fill-rule:nonzero;stroke:#000000;stroke-width:1.99999988;stroke-linecap:butt;stroke-linejoin:miter;stroke-miterlimit:4;stroke-opacity:1;marker:none;visibility:visible;display:inline;overflow:visible;enable-background:accumulate" />
  <path
     d="m 68.455849,70.439082 c 0,2.040073 -8.263263,3.693867 -18.456498,3.693867 -10.193248,0 -18.456512,-1.653794 -18.456512,-3.693867 0.06525,-1.371275 2.6366,-9.558591 6.407631,-10.81805 6.622461,-2.211769 17.666352,-2.470245 24.532126,0 3.685576,1.326042 6.038513,9.577372 5.973253,10.81805 z"
     inkscape:connector-curvature="0"
     id="path886"
     style="color:#000000;fill:#ffffcc;fill-opacity:1;fill-rule:nonzero;stroke:#000000;stroke-width:1.99999988;stroke-linecap:butt;stroke-linejoin:miter;stroke-miterlimit:4;stroke-opacity:1;marker:none;visibility:visible;display:inline;overflow:visible;enable-background:accumulate" />
  <path
     d="m 32.141016,69.523687 c 2.034814,-1.597278 9.270883,-2.77846 17.885376,-2.77846 8.541618,0 15.728019,1.161284 17.832608,2.738006"
     inkscape:connector-curvature="0"
     id="path888"
     style="color:#000000;fill:#ffffcc;fill-opacity:1;fill-rule:nonzero;stroke:#000000;stroke-width:1.99999988;stroke-linecap:butt;stroke-linejoin:miter;stroke-miterlimit:4;stroke-opacity:1;marker:none;visibility:visible;display:inline;overflow:visible;enable-background:accumulate" />
  <path
     d="m 10.913106,84.429095 4.045713,4.570906 c 1.989736,-1.304629 4.616785,-2.481355 7.177892,-2.481355 l 18.923549,0 c 3.136099,0 6.148589,-2.677244 8.678735,-3.983226 2.791146,1.175385 5.448685,3.983226 8.678723,3.983226 l 19.9676,0 c 2.165085,0 3.936616,1.126367 6.003322,2.481355 l 4.698258,-4.570906 c -2.132784,-1.6119 -5.905464,-4.129005 -9.135502,-4.129005 l -20.881146,0 c -2.207135,-0.03562 -3.503256,-2.061572 -6.112083,-4.882248 l -6.046837,0 c -1.685097,1.478063 -4.616835,4.911978 -7.156147,4.882248 l -19.576081,0 c -3.393181,0 -6.768399,1.792249 -9.265996,4.129005 z"
     inkscape:connector-curvature="0"
     id="path894"
     style="color:#000000;fill:#ffffcc;fill-opacity:1;fill-rule:nonzero;stroke:#000000;stroke-width:1.99999988;stroke-linecap:butt;stroke-linejoin:miter;stroke-miterlimit:4;stroke-opacity:1;stroke-dasharray:none;marker:none;visibility:visible;display:inline;overflow:visible;enable-background:accumulate" />
</svg>
