<?xml version="1.0" encoding="UTF-8" standalone="no"?>
<!-- Created with Inkscape (http://www.inkscape.org/) -->

<svg
   xmlns:dc="http://purl.org/dc/elements/1.1/"
   xmlns:cc="http://creativecommons.org/ns#"
   xmlns:rdf="http://www.w3.org/1999/02/22-rdf-syntax-ns#"
   xmlns:svg="http://www.w3.org/2000/svg"
   xmlns="http://www.w3.org/2000/svg"
   xmlns:inkscape="http://www.inkscape.org/namespaces/inkscape"
   version="1.0"
   width="100"
   height="100"
   id="svg2833">
  <defs
     id="defs2835" />
  <metadata
     id="metadata2838">
    <rdf:RDF>
      <cc:Work
         rdf:about="">
        <dc:format>image/svg+xml</dc:format>
        <dc:type
           rdf:resource="http://purl.org/dc/dcmitype/StillImage" />
        <dc:title />
      </cc:Work>
    </rdf:RDF>
  </metadata>
  <g
     transform="translate(-67.582896,-53.165653)"
     id="layer1">
    <g
       transform="matrix(1.4040066,0,0,1.4950932,129.29827,-314.43651)"
       id="g577"
       style="display:inline">
      <g
         id="g564">
        <g
           id="g496">
          <path
             d="m -36.000123,300.21063 c 0.02445,-2.68898 1.718597,-4.79569 3.688984,-4.79676 4.797086,-0.003 5.321835,9.9866 5.321835,9.9866 l -5.701966,0 c 0,0 -3.349148,-0.75908 -3.308853,-5.18984 z"
             inkscape:connector-curvature="0"
             id="path478"
             style="color:#000000;fill:#ffffcc;fill-opacity:1;fill-rule:nonzero;stroke:#000000;stroke-width:1.38042009;stroke-linecap:round;stroke-linejoin:miter;stroke-miterlimit:4;stroke-opacity:1;stroke-dasharray:none;marker:none;visibility:visible;display:inline;overflow:visible;enable-background:accumulate" />
          <path
             d="m -27.369435,305.40047 c 0,0 -3.414455,-7.06138 -3.516212,-15.49034 -0.278044,-23.03154 5.065394,-36.76365 21.0022393,-36.68265 15.9318103,0.081 20.4795607,12.82943 20.4795607,12.82943 l -8.600465,5.89203 -5.0367364,1.71059 3.99137601,3.42118 c -0.001724,0 -1.7323014,3.0708 -1.7105897,4.75164 0.0289649,2.24236 3.16810959,3.37614 4.22755909,3.95877 1.2808223,0.70436 15.687091,13.35375 15.824354,16.37824 0.04579,1.51405 0,3.23111 0,3.23111 z"
             inkscape:connector-curvature="0"
             id="path476"
             style="color:#000000;fill:#ffffcc;fill-opacity:1;fill-rule:nonzero;stroke:#000000;stroke-width:1.38042009;stroke-linecap:round;stroke-linejoin:miter;stroke-miterlimit:4;stroke-opacity:1;stroke-dasharray:none;marker:none;visibility:visible;display:inline;overflow:visible;enable-background:accumulate" />
          <path
             d="m -2.993532,273.65952 3.27566309,-1.27957 c 5.44306311,-0.20159 14.47578191,1.87662 14.47578191,1.87662 -1.98235,0.60478 -8.0299294,2.62352 -14.64896299,2.15313 z"
             inkscape:connector-curvature="0"
             id="path480"
             style="color:#000000;fill:#ffffcc;fill-opacity:1;fill-rule:nonzero;stroke:#000000;stroke-width:1.03531504;stroke-linecap:round;stroke-linejoin:miter;stroke-miterlimit:4;stroke-opacity:1;stroke-dasharray:none;marker:none;visibility:visible;display:inline;overflow:visible;enable-background:accumulate" />
          <path
             d="m 9.8358906,266.29448 c 5.6355444,0.75158 9.2795784,1.13268 7.9352354,12.78191 -0.166308,-8.05402 -19.9331213,-5.84452 -19.9331213,-5.84452 z"
             inkscape:connector-curvature="0"
             id="path482"
             style="color:#000000;fill:#ffffcc;fill-opacity:1;fill-rule:nonzero;stroke:#000000;stroke-width:1.03531504;stroke-linecap:round;stroke-linejoin:miter;stroke-miterlimit:4;stroke-opacity:1;stroke-dasharray:none;marker:none;visibility:visible;display:inline;overflow:visible;enable-background:accumulate" />
          <path
             d="m -10.548637,285.91875 3.3261471,-1.23543"
             inkscape:connector-curvature="0"
             id="path484"
             style="color:#000000;fill:#ffffcc;fill-opacity:1;fill-rule:nonzero;stroke:#000000;stroke-width:1.38042009;stroke-linecap:round;stroke-linejoin:miter;stroke-miterlimit:4;stroke-opacity:1;stroke-dasharray:none;marker:none;visibility:visible;display:inline;overflow:visible;enable-background:accumulate" />
          <path
             d="m -4.4517326,284.15174 2.0855547,-0.75064"
             inkscape:connector-curvature="0"
             id="path486"
             style="color:#000000;fill:#ffffcc;fill-opacity:1;fill-rule:nonzero;stroke:#000000;stroke-width:1.38042009;stroke-linecap:round;stroke-linejoin:miter;stroke-miterlimit:4;stroke-opacity:1;stroke-dasharray:none;marker:none;visibility:visible;display:inline;overflow:visible;enable-background:accumulate" />
          <path
             d="m -1.9011497,264.39671 c -0.033569,-1.35642 -1.6416557,-3.51039 -5.3002595,-3.49941 -3.4773118,0.0104 -6.3793728,3.98825 -9.6487078,4.01921 3.263295,-0.005 6.023674,2.88608 9.5484048,2.98488 3.3651132,0.0943 5.4348563,-2.11896 5.4005625,-3.50468 z"
             inkscape:connector-curvature="0"
             id="path488"
             style="color:#000000;fill:#ffffcc;fill-opacity:1;fill-rule:nonzero;stroke:#000000;stroke-width:0.69021004;stroke-linecap:round;stroke-linejoin:miter;stroke-miterlimit:4;stroke-opacity:1;stroke-dasharray:none;marker:none;visibility:visible;display:inline;overflow:visible;enable-background:accumulate" />
          <path
             d="m -4.8466709,264.72644 a 1.615557,1.615557 0 1 1 -3.2311139,0 1.615557,1.615557 0 1 1 3.2311139,0 z"
             transform="translate(-0.40318986,-0.31919197)"
             id="path490"
             style="color:#000000;fill:#000000;fill-opacity:1;fill-rule:nonzero;stroke:#000000;stroke-width:0.69021004;stroke-linecap:round;stroke-linejoin:miter;stroke-miterlimit:4;stroke-opacity:1;stroke-dasharray:none;marker:none;visibility:visible;display:inline;overflow:visible;enable-background:accumulate" />
          <path
             d="m 7.6976539,265.29663 a 1.4254915,1.4254915 0 1 1 -2.8509829,0 1.4254915,1.4254915 0 1 1 2.8509829,0 z"
             transform="translate(-0.21839451,-0.01679958)"
             id="path492"
             style="color:#000000;fill:#000000;fill-opacity:1;fill-rule:nonzero;stroke:#000000;stroke-width:0.69021004;stroke-linecap:round;stroke-linejoin:miter;stroke-miterlimit:4;stroke-opacity:1;stroke-dasharray:none;marker:none;visibility:visible;display:inline;overflow:visible;enable-background:accumulate" />
          <path
             d="m -4.5615725,305.40047 c -0.7602621,-1.61556 -1.3959228,-3.94564 -1.3779751,-6.0821 0.02244,-2.67119 2.6035772,-8.98583 9.4082434,-8.98059 4.6208731,0.004 15.7279222,10.78621 15.7279222,10.78621 l 0,4.27648 z"
             inkscape:connector-curvature="0"
             id="path494"
             style="color:#000000;fill:#ffffcc;fill-opacity:1;fill-rule:nonzero;stroke:#000000;stroke-width:1.38042009;stroke-linecap:round;stroke-linejoin:miter;stroke-miterlimit:4;stroke-opacity:1;stroke-dasharray:none;marker:none;visibility:visible;display:inline;overflow:visible;enable-background:accumulate" />
        </g>
      </g>
    </g>
  </g>
</svg>
