<?xml version="1.0" encoding="UTF-8" standalone="no"?>
<!-- Created with Inkscape (http://www.inkscape.org/) -->

<svg
   xmlns:dc="http://purl.org/dc/elements/1.1/"
   xmlns:cc="http://creativecommons.org/ns#"
   xmlns:rdf="http://www.w3.org/1999/02/22-rdf-syntax-ns#"
   xmlns:svg="http://www.w3.org/2000/svg"
   xmlns="http://www.w3.org/2000/svg"
   xmlns:xlink="http://www.w3.org/1999/xlink"
   xmlns:sodipodi="http://sodipodi.sourceforge.net/DTD/sodipodi-0.dtd"
   xmlns:inkscape="http://www.inkscape.org/namespaces/inkscape"
   width="100"
   height="100"
   id="svg2"
   version="1.1"
   inkscape:version="0.47 r22583"
   sodipodi:docname="WhitePrButterfly.svg">
  <defs
     id="defs4">
    <inkscape:perspective
       sodipodi:type="inkscape:persp3d"
       inkscape:vp_x="0 : 526.18109 : 1"
       inkscape:vp_y="0 : 1000 : 0"
       inkscape:vp_z="744.09448 : 526.18109 : 1"
       inkscape:persp3d-origin="372.04724 : 350.78739 : 1"
       id="perspective10" />
    <inkscape:perspective
       id="perspective2824"
       inkscape:persp3d-origin="0.5 : 0.33333333 : 1"
       inkscape:vp_z="1 : 0.5 : 1"
       inkscape:vp_y="0 : 1000 : 0"
       inkscape:vp_x="0 : 0.5 : 1"
       sodipodi:type="inkscape:persp3d" />
    <inkscape:perspective
       id="perspective2838"
       inkscape:persp3d-origin="0.5 : 0.33333333 : 1"
       inkscape:vp_z="1 : 0.5 : 1"
       inkscape:vp_y="0 : 1000 : 0"
       inkscape:vp_x="0 : 0.5 : 1"
       sodipodi:type="inkscape:persp3d" />
  </defs>
  <sodipodi:namedview
     id="base"
     pagecolor="#ffffff"
     bordercolor="#666666"
     borderopacity="1.0"
     inkscape:pageopacity="0.0"
     inkscape:pageshadow="2"
     inkscape:zoom="2.8"
     inkscape:cx="34.72545"
     inkscape:cy="44.67371"
     inkscape:document-units="px"
     inkscape:current-layer="layer1"
     showgrid="false"
     inkscape:window-width="792"
     inkscape:window-height="583"
     inkscape:window-x="62"
     inkscape:window-y="24"
     inkscape:window-maximized="0" />
  <metadata
     id="metadata7">
    <rdf:RDF>
      <cc:Work
         rdf:about="">
        <dc:format>image/svg+xml</dc:format>
        <dc:type
           rdf:resource="http://purl.org/dc/dcmitype/StillImage" />
        <dc:title></dc:title>
      </cc:Work>
    </rdf:RDF>
  </metadata>
  <g
     inkscape:label="Layer 1"
     inkscape:groupmode="layer"
     id="layer1"
     transform="translate(366.71429,-981.93367)">
    <g
       id="g3645"
       transform="translate(0,1.7857143)">
      <path
         sodipodi:nodetypes="ccccccccccccccccccccccccc"
         id="path2820"
         d="m -316.35715,1008.0051 -6.07143,-6.4286 -5.71428,-3.21426 -4.64286,-0.71428 -6.78572,1.07143 -4.64285,2.85711 -3.57143,4.2858 -1.78572,5 -0.35714,6.7857 1.78572,6.0714 3.21428,4.2857 3.92857,4.6429 3.57143,3.9286 -5,6.0714 -2.85714,4.2857 -2.5,5 -0.71429,5.7143 2.14286,6.0714 3.92857,3.9286 5.35714,1.4286 6.42858,-0.7143 5.35714,-3.2143 5.35714,-3.5714 3.57143,-4.6429 0,-48.9286 z"
         style="fill:#ffffcc;fill-opacity:1;stroke:#000000;stroke-width:2;stroke-linecap:butt;stroke-linejoin:miter;stroke-miterlimit:4;stroke-opacity:1;stroke-dasharray:none" />
      <use
         style="stroke:#00000f;stroke-width:2;stroke-miterlimit:4;stroke-opacity:0.94117647;stroke-dasharray:none"
         height="100"
         width="100"
         transform="matrix(-1,0,0,1,-632.35714,0)"
         id="use3594"
         xlink:href="#path2820"
         y="0"
         x="0" />
      <path
         transform="matrix(1.7388004,0,0,0.81842011,-407.02318,991.12593)"
         d="m 54.285714,51.607143 c 0,19.625833 -0.95939,35.535714 -2.142857,35.535714 C 50.959389,87.142857 50,71.232976 50,51.607143 50,31.981311 50.959389,16.07143 52.142857,16.07143 c 1.183467,0 2.142857,15.909881 2.142857,35.535713 z"
         sodipodi:ry="35.535713"
         sodipodi:rx="2.1428571"
         sodipodi:cy="51.607143"
         sodipodi:cx="52.142857"
         id="path3596"
         style="fill:#ffffcc;fill-opacity:1;stroke:#00000f;stroke-width:2.0999999;stroke-miterlimit:4;stroke-opacity:0.94117647;stroke-dasharray:none"
         sodipodi:type="arc" />
      <path
         sodipodi:nodetypes="cc"
         id="path3598"
         d="m -317.70232,1004.6329 c -0.97812,-5.56156 -2.38084,-11.35416 -5.16682,-17.89856"
         style="fill:none;stroke:#000000;stroke-width:2.13795257;stroke-linecap:butt;stroke-linejoin:miter;stroke-miterlimit:4;stroke-opacity:1;stroke-dasharray:none" />
      <path
         style="fill:none;stroke:#000000;stroke-width:2.13795257;stroke-linecap:butt;stroke-linejoin:miter;stroke-miterlimit:4;stroke-opacity:1;stroke-dasharray:none"
         d="m -314.65485,1004.99 c 0.97812,-5.56152 2.38084,-11.35412 5.16682,-17.89852"
         id="path3600"
         sodipodi:nodetypes="cc" />
      <path
         transform="translate(-244.92858,975.86224)"
         d="m -49.285713,41.607143 c 0,4.240758 -2.798221,7.678572 -6.25,7.678572 -3.45178,0 -6.25,-3.437814 -6.25,-7.678572 0,-4.240757 2.79822,-7.678571 6.25,-7.678571 3.451779,0 6.25,3.437814 6.25,7.678571 z"
         sodipodi:ry="7.6785712"
         sodipodi:rx="6.25"
         sodipodi:cy="41.607143"
         sodipodi:cx="-55.535713"
         id="path3630"
         style="fill:#ffffcc;fill-opacity:1;stroke:#00000f;stroke-width:2;stroke-miterlimit:4;stroke-opacity:0.94117647;stroke-dasharray:none"
         sodipodi:type="arc" />
      <path
         sodipodi:type="arc"
         style="fill:#ffffcc;fill-opacity:1;stroke:#00000f;stroke-width:2;stroke-miterlimit:4;stroke-opacity:0.94117647;stroke-dasharray:none"
         id="path3632"
         sodipodi:cx="-55.535713"
         sodipodi:cy="41.607143"
         sodipodi:rx="6.25"
         sodipodi:ry="7.6785712"
         d="m -49.285713,41.607143 c 0,4.240758 -2.798221,7.678572 -6.25,7.678572 -3.45178,0 -6.25,-3.437814 -6.25,-7.678572 0,-4.240757 2.79822,-7.678571 6.25,-7.678571 3.451779,0 6.25,3.437814 6.25,7.678571 z"
         transform="translate(-278.50001,975.5051)" />
      <path
         transform="matrix(0.8660254,-0.5,0.5,0.8660254,-395.84695,1007.2591)"
         d="m 40.000001,71.071426 c 0,1.972446 -2.478424,3.571429 -5.535714,3.571429 -3.057291,0 -5.535714,-1.598983 -5.535714,-3.571429 0,-1.972445 2.478423,-3.571428 5.535714,-3.571428 3.05729,0 5.535714,1.598983 5.535714,3.571428 z"
         sodipodi:ry="3.5714285"
         sodipodi:rx="5.5357141"
         sodipodi:cy="71.071426"
         sodipodi:cx="34.464287"
         id="path3634"
         style="fill:#ffffcc;fill-opacity:1;stroke:#00000f;stroke-width:2;stroke-miterlimit:4;stroke-opacity:0.94117647;stroke-dasharray:none"
         sodipodi:type="arc" />
      <path
         sodipodi:type="arc"
         style="fill:#ffffcc;fill-opacity:1;stroke:#00000f;stroke-width:2;stroke-miterlimit:4;stroke-opacity:0.94117647;stroke-dasharray:none"
         id="path3636"
         sodipodi:cx="34.464287"
         sodipodi:cy="71.071426"
         sodipodi:rx="5.5357141"
         sodipodi:ry="3.5714285"
         d="m 40.000001,71.071426 c 0,1.972446 -2.478424,3.571429 -5.535714,3.571429 -3.057291,0 -5.535714,-1.598983 -5.535714,-3.571429 0,-1.972445 2.478423,-3.571428 5.535714,-3.571428 3.05729,0 5.535714,1.598983 5.535714,3.571428 z"
         transform="matrix(-0.8660254,-0.5,-0.5,0.8660254,-236.51019,1006.1876)" />
    </g>
  </g>
</svg>
