<?xml version="1.0" encoding="UTF-8" standalone="no"?>
<!-- Created with Inkscape (http://www.inkscape.org/) -->

<svg
   xmlns:dc="http://purl.org/dc/elements/1.1/"
   xmlns:cc="http://creativecommons.org/ns#"
   xmlns:rdf="http://www.w3.org/1999/02/22-rdf-syntax-ns#"
   xmlns:svg="http://www.w3.org/2000/svg"
   xmlns="http://www.w3.org/2000/svg"
   xmlns:sodipodi="http://sodipodi.sourceforge.net/DTD/sodipodi-0.dtd"
   xmlns:inkscape="http://www.inkscape.org/namespaces/inkscape"
   width="100"
   height="100"
   id="svg2"
   version="1.1"
   inkscape:version="0.47 r22583"
   sodipodi:docname="New document 1">
  <defs
     id="defs4">
    <inkscape:perspective
       sodipodi:type="inkscape:persp3d"
       inkscape:vp_x="0 : 526.18109 : 1"
       inkscape:vp_y="0 : 1000 : 0"
       inkscape:vp_z="744.09448 : 526.18109 : 1"
       inkscape:persp3d-origin="372.04724 : 350.78739 : 1"
       id="perspective10" />
    <inkscape:perspective
       id="perspective2828"
       inkscape:persp3d-origin="0.5 : 0.33333333 : 1"
       inkscape:vp_z="1 : 0.5 : 1"
       inkscape:vp_y="0 : 1000 : 0"
       inkscape:vp_x="0 : 0.5 : 1"
       sodipodi:type="inkscape:persp3d" />
    <inkscape:perspective
       id="perspective2850"
       inkscape:persp3d-origin="0.5 : 0.33333333 : 1"
       inkscape:vp_z="1 : 0.5 : 1"
       inkscape:vp_y="0 : 1000 : 0"
       inkscape:vp_x="0 : 0.5 : 1"
       sodipodi:type="inkscape:persp3d" />
    <inkscape:perspective
       id="perspective2872"
       inkscape:persp3d-origin="0.5 : 0.33333333 : 1"
       inkscape:vp_z="1 : 0.5 : 1"
       inkscape:vp_y="0 : 1000 : 0"
       inkscape:vp_x="0 : 0.5 : 1"
       sodipodi:type="inkscape:persp3d" />
    <inkscape:perspective
       id="perspective2894"
       inkscape:persp3d-origin="0.5 : 0.33333333 : 1"
       inkscape:vp_z="1 : 0.5 : 1"
       inkscape:vp_y="0 : 1000 : 0"
       inkscape:vp_x="0 : 0.5 : 1"
       sodipodi:type="inkscape:persp3d" />
    <inkscape:perspective
       id="perspective2918"
       inkscape:persp3d-origin="0.5 : 0.33333333 : 1"
       inkscape:vp_z="1 : 0.5 : 1"
       inkscape:vp_y="0 : 1000 : 0"
       inkscape:vp_x="0 : 0.5 : 1"
       sodipodi:type="inkscape:persp3d" />
    <inkscape:perspective
       id="perspective2940"
       inkscape:persp3d-origin="0.5 : 0.33333333 : 1"
       inkscape:vp_z="1 : 0.5 : 1"
       inkscape:vp_y="0 : 1000 : 0"
       inkscape:vp_x="0 : 0.5 : 1"
       sodipodi:type="inkscape:persp3d" />
    <inkscape:perspective
       id="perspective2962"
       inkscape:persp3d-origin="0.5 : 0.33333333 : 1"
       inkscape:vp_z="1 : 0.5 : 1"
       inkscape:vp_y="0 : 1000 : 0"
       inkscape:vp_x="0 : 0.5 : 1"
       sodipodi:type="inkscape:persp3d" />
  </defs>
  <sodipodi:namedview
     id="base"
     pagecolor="#ffffff"
     bordercolor="#666666"
     borderopacity="1.0"
     inkscape:pageopacity="0.0"
     inkscape:pageshadow="2"
     inkscape:zoom="4.8704322"
     inkscape:cx="26.42854"
     inkscape:cy="46.467809"
     inkscape:document-units="px"
     inkscape:current-layer="layer1"
     showgrid="false"
     inkscape:window-width="1280"
     inkscape:window-height="726"
     inkscape:window-x="0"
     inkscape:window-y="25"
     inkscape:window-maximized="1" />
  <metadata
     id="metadata7">
    <rdf:RDF>
      <cc:Work
         rdf:about="">
        <dc:format>image/svg+xml</dc:format>
        <dc:type
           rdf:resource="http://purl.org/dc/dcmitype/StillImage" />
        <dc:title></dc:title>
      </cc:Work>
    </rdf:RDF>
  </metadata>
  <g
     inkscape:label="Layer 1"
     inkscape:groupmode="layer"
     id="layer1"
     transform="translate(0,-952.36218)">
    <g
       id="g3788">
      <path
         sodipodi:nodetypes="cccccccccccccccccccc"
         id="path2816"
         d="m 49.667863,1012.1206 2.166994,9.0012 -0.333383,6.3344 -2.333687,8.3346 -4.167298,4.5007 -5.167449,2.5004 -5.334142,0.3334 -6.334292,-3.3339 -3.500529,-4.8341 -1.000152,-7.5011 -2.166995,-4.334 -5.334141,-4.1672 -2.500379,-6.001 2.000304,-6.1675 5.000756,-3.1672 5.500834,-0.8335 6.500984,0.3334 7.667828,1.0002 5.834217,3.0004 3.50053,5.0008 z"
         style="fill:#ffffff;stroke:#000000;stroke-width:2;stroke-linecap:butt;stroke-linejoin:miter;stroke-miterlimit:4;stroke-opacity:1;stroke-dasharray:none" />
      <path
         sodipodi:nodetypes="cccccccccccc"
         id="path2818"
         d="m 39.626874,999.80011 -1.847886,-3.07981 0.821283,-5.95429 2.874488,-5.33834 5.338336,-3.07981 5.338334,0.61596 3.901092,3.49045 0,5.74898 -2.669167,5.13301 -4.517054,3.28514 -4.517053,1.0266 -4.722373,-1.84789 z"
         style="fill:#ffffff;stroke:#000000;stroke-width:2;stroke-linecap:butt;stroke-linejoin:miter;stroke-miterlimit:4;stroke-opacity:1;stroke-dasharray:none" />
      <path
         sodipodi:nodetypes="cccccccccccc"
         id="path2818-3"
         d="m 70.11698,997.5416 1.847886,3.0798 -0.821283,5.9543 -2.874488,5.3383 -5.338336,3.0798 -5.748975,-0.2053 -3.490451,-3.9011 0,-5.749 2.258526,-5.54356 4.927695,-2.87454 4.517053,-1.0266 4.722373,1.8479 z"
         style="fill:#ffffff;stroke:#000000;stroke-width:2;stroke-linecap:butt;stroke-linejoin:miter;stroke-miterlimit:4;stroke-opacity:1;stroke-dasharray:none" />
      <path
         sodipodi:nodetypes="cccccccccccc"
         id="path2818-3-2"
         d="m 33.569916,981.32129 1.847886,3.07984 -0.821283,5.9543 -2.874488,5.33826 -5.338336,3.0798 -5.748975,-0.2053 -3.490451,-3.9011 0,-5.74896 2.258526,-5.5436 4.927695,-2.87454 4.517053,-1.0266 4.722373,1.8479 z"
         style="fill:#ffffff;stroke:#000000;stroke-width:2;stroke-linecap:butt;stroke-linejoin:miter;stroke-miterlimit:4;stroke-opacity:1;stroke-dasharray:none" />
      <path
         sodipodi:nodetypes="cccccccccccc"
         id="path2818-3-6"
         d="m 72.375506,1019.9215 2.463848,4.5171 -0.410642,4.7223 -4.106412,4.9277 -5.133015,2.0532 -5.748975,-0.2053 -3.490451,-3.9011 0,-5.749 2.669167,-4.7223 4.722375,-2.4639 4.722373,-0.8213 4.311732,1.6426 z"
         style="fill:#ffffff;stroke:#000000;stroke-width:2;stroke-linecap:butt;stroke-linejoin:miter;stroke-miterlimit:4;stroke-opacity:1;stroke-dasharray:none" />
      <path
         sodipodi:nodetypes="ccccccccc"
         id="path2908"
         d="m 34.083217,975.98293 -2.053206,-0.61597 0.821282,-4.51705 2.463847,-2.66917 4.106412,-0.41064 2.053206,0.61596 -3.285129,0.82129 -2.258527,2.46384 -1.847885,4.31174 z"
         style="fill:#000000;stroke:#000000;stroke-width:2;stroke-linecap:butt;stroke-linejoin:miter;stroke-miterlimit:4;stroke-opacity:1;stroke-dasharray:none" />
      <path
         sodipodi:nodetypes="ccccccccc"
         id="path2908-4"
         d="m 56.216861,980.17756 -1.915052,-0.96315 1.593184,-4.30582 2.88991,-2.20078 4.115337,0.30866 1.915052,0.96314 -3.37784,0.2383 -2.652056,2.03423 -2.568537,3.92535 z"
         style="fill:#000000;stroke:#000000;stroke-width:2;stroke-linecap:butt;stroke-linejoin:miter;stroke-miterlimit:4;stroke-opacity:1;stroke-dasharray:none" />
      <path
         sodipodi:nodetypes="ccccccccc"
         id="path2908-4-6"
         d="m 73.878161,994.50275 0.963152,1.91506 4.30582,-1.59319 2.200779,-2.88991 -0.308659,-4.11533 -0.96314,-1.91506 -0.238295,3.37784 -2.03423,2.65206 -3.92535,2.56854 z"
         style="fill:#000000;stroke:#000000;stroke-width:2;stroke-linecap:butt;stroke-linejoin:miter;stroke-miterlimit:4;stroke-opacity:1;stroke-dasharray:none" />
      <path
         sodipodi:nodetypes="ccccccccc"
         id="path2908-4-6-3"
         d="m 77.705679,1018.2026 0.792583,1.9916 4.428292,-1.2118 2.444276,-2.6871 0.05119,-4.1266 -0.792563,-1.9917 -0.531791,3.3443 -2.257627,2.4646 -4.134281,2.2167 z"
         style="fill:#000000;stroke:#000000;stroke-width:2;stroke-linecap:butt;stroke-linejoin:miter;stroke-miterlimit:4;stroke-opacity:1;stroke-dasharray:none" />
    </g>
  </g>
</svg>
