<?xml version="1.0" encoding="UTF-8" standalone="no"?>
<!-- Created with Inkscape (http://www.inkscape.org/) -->

<svg
   xmlns:dc="http://purl.org/dc/elements/1.1/"
   xmlns:cc="http://creativecommons.org/ns#"
   xmlns:rdf="http://www.w3.org/1999/02/22-rdf-syntax-ns#"
   xmlns:svg="http://www.w3.org/2000/svg"
   xmlns="http://www.w3.org/2000/svg"
   xmlns:inkscape="http://www.inkscape.org/namespaces/inkscape"
   version="1.0"
   width="100"
   height="100"
   id="svg2833">
  <defs
     id="defs2835" />
  <metadata
     id="metadata2838">
    <rdf:RDF>
      <cc:Work
         rdf:about="">
        <dc:format>image/svg+xml</dc:format>
        <dc:type
           rdf:resource="http://purl.org/dc/dcmitype/StillImage" />
        <dc:title />
      </cc:Work>
    </rdf:RDF>
  </metadata>
  <g
     transform="translate(-67.582896,-53.165653)"
     id="layer1">
    <g
       transform="matrix(1.2568021,0,0,1.2568021,127.4848,230.75324)"
       id="g799"
       style="display:inline">
      <path
         d="m -28.079531,-94.874455 -4.264552,-25.678565 13.999806,24.343464"
         inkscape:connector-curvature="0"
         id="path704"
         style="color:#000000;fill:#ffffcc;fill-opacity:1;fill-rule:nonzero;stroke:#000000;stroke-width:1.5913403;stroke-linecap:butt;stroke-linejoin:miter;stroke-opacity:1;marker:none;visibility:visible;display:inline;overflow:visible;enable-background:accumulate" />
      <path
         d="m -19.140231,-95.88723 2.246154,-30.00621 9.5954992,27.886232 z"
         inkscape:connector-curvature="0"
         id="path706"
         style="color:#000000;fill:#ffffcc;fill-opacity:1;fill-rule:nonzero;stroke:#000000;stroke-width:1.5913403;stroke-linecap:butt;stroke-linejoin:miter;stroke-opacity:1;marker:none;visibility:visible;display:inline;overflow:visible;enable-background:accumulate" />
      <path
         d="m 12.490017,-94.82073 3.713129,-24.84222 -13.3990081,23.408891"
         inkscape:connector-curvature="0"
         id="path710"
         style="color:#000000;fill:#ffffcc;fill-opacity:1;fill-rule:nonzero;stroke:#000000;stroke-width:1.5913403;stroke-linecap:butt;stroke-linejoin:miter;stroke-opacity:1;marker:none;visibility:visible;display:inline;overflow:visible;enable-background:accumulate" />
      <path
         d="m 3.4881771,-95.734359 -2.37837,-29.892061 -8.8615575,28.106514 z"
         inkscape:connector-curvature="0"
         id="path712"
         style="color:#000000;fill:#ffffcc;fill-opacity:1;fill-rule:nonzero;stroke:#000000;stroke-width:1.5913403;stroke-linecap:butt;stroke-linejoin:miter;stroke-opacity:1;marker:none;visibility:visible;display:inline;overflow:visible;enable-background:accumulate" />
      <path
         d="m 8.6705152,-75.003615 c 0,2.494743 -7.3228728,4.517114 -16.3560942,4.517114 -9.033223,0 -16.356097,-2.022371 -16.356097,-4.517114 l 2.325288,-6.475256 -0.06428,-6.631027 -5.811396,-6.453037 4.358127,-3.075207 4.109397,1.001045 5.74678,-2.877825 5.7712718,1.347215 5.203493,-1.347215 5.2462981,2.877825 4.8612915,-1.001045 4.2955236,3.075207 -5.8100516,6.453037 0.060254,6.631027 z"
         inkscape:connector-curvature="0"
         id="path714"
         style="color:#000000;fill:#ffffcc;fill-opacity:1;fill-rule:nonzero;stroke:#000000;stroke-width:1.59134054;stroke-linecap:butt;stroke-linejoin:miter;stroke-opacity:1;marker:none;visibility:visible;display:inline;overflow:visible;enable-background:accumulate" />
      <path
         d="m -21.892448,-88.229599 c 2.801739,-1.37734 8.142276,-2.30791 14.2698066,-2.30791 6.1644171,0 11.5323386,0.94181 14.3201283,2.33283"
         inkscape:connector-curvature="0"
         id="path716"
         style="color:#000000;fill:#ffffcc;fill-opacity:1;fill-rule:nonzero;stroke:#000000;stroke-width:1.59134054;stroke-linecap:butt;stroke-linejoin:miter;stroke-opacity:1;marker:none;visibility:visible;display:inline;overflow:visible;enable-background:accumulate" />
      <path
         d="m -35.496787,129.14731 a 3.7762539,3.7762539 0 1 1 -7.552508,0 3.7762539,3.7762539 0 1 1 7.552508,0 z"
         transform="matrix(0.94504751,0,0,0.94166667,3.6715495,-244.63895)"
         id="path718"
         style="color:#000000;fill:#ffffcc;fill-opacity:1;fill-rule:nonzero;stroke:#000000;stroke-width:1.68689334;stroke-linecap:butt;stroke-linejoin:miter;stroke-opacity:1;marker:none;visibility:visible;display:inline;overflow:visible;enable-background:accumulate" />
      <path
         d="m -35.496787,129.14731 a 3.7762539,3.7762539 0 1 1 -7.552508,0 3.7762539,3.7762539 0 1 1 7.552508,0 z"
         transform="matrix(0.94504751,0,0,0.94166667,54.80093,-244.56074)"
         id="path720"
         style="color:#000000;fill:#ffffcc;fill-opacity:1;fill-rule:nonzero;stroke:#000000;stroke-width:1.68689334;stroke-linecap:butt;stroke-linejoin:miter;stroke-opacity:1;marker:none;visibility:visible;display:inline;overflow:visible;enable-background:accumulate" />
      <path
         d="m -35.496787,129.14731 a 3.7762539,3.7762539 0 1 1 -7.552508,0 3.7762539,3.7762539 0 1 1 7.552508,0 z"
         transform="matrix(0.94504751,0,0,0.94166667,38.762768,-250.59195)"
         id="path722"
         style="color:#000000;fill:#ffffcc;fill-opacity:1;fill-rule:nonzero;stroke:#000000;stroke-width:1.68689334;stroke-linecap:butt;stroke-linejoin:miter;stroke-opacity:1;marker:none;visibility:visible;display:inline;overflow:visible;enable-background:accumulate" />
      <path
         d="m -35.496787,129.14731 a 3.7762539,3.7762539 0 1 1 -7.552508,0 3.7762539,3.7762539 0 1 1 7.552508,0 z"
         transform="matrix(0.94504751,0,0,0.94166667,19.780217,-250.61038)"
         id="path726"
         style="color:#000000;fill:#ffffcc;fill-opacity:1;fill-rule:nonzero;stroke:#000000;stroke-width:1.68689334;stroke-linecap:butt;stroke-linejoin:miter;stroke-opacity:1;marker:none;visibility:visible;display:inline;overflow:visible;enable-background:accumulate" />
      <path
         d="m -23.978738,-75.003615 c 0,-2.494728 7.322874,-4.517115 16.3560966,-4.517115 9.0332214,0 16.3560942,2.022387 16.3560942,4.517115"
         inkscape:connector-curvature="0"
         id="path728"
         style="color:#000000;fill:#ffffcc;fill-opacity:1;fill-rule:nonzero;stroke:#000000;stroke-width:1.59134054;stroke-linecap:butt;stroke-linejoin:miter;stroke-opacity:1;marker:none;visibility:visible;display:inline;overflow:visible;enable-background:accumulate" />
      <path
         d="m -21.669514,-81.284079 c 2.856168,-1.31876 8.078159,-2.20172 14.0468726,-2.20172 6.0282874,0 11.2948691,0.90067 14.1316836,2.24134"
         inkscape:connector-curvature="0"
         id="path730"
         style="color:#000000;fill:none;stroke:#000000;stroke-width:1.59134054;stroke-linecap:butt;stroke-linejoin:miter;stroke-opacity:1;marker:none;visibility:visible;display:inline;overflow:visible;enable-background:accumulate" />
    </g>
  </g>
</svg>
