<?xml version="1.0" encoding="UTF-8" standalone="no"?>
<!-- Created with Inkscape (http://www.inkscape.org/) -->

<svg
   xmlns:dc="http://purl.org/dc/elements/1.1/"
   xmlns:cc="http://creativecommons.org/ns#"
   xmlns:rdf="http://www.w3.org/1999/02/22-rdf-syntax-ns#"
   xmlns:svg="http://www.w3.org/2000/svg"
   xmlns="http://www.w3.org/2000/svg"
   xmlns:sodipodi="http://sodipodi.sourceforge.net/DTD/sodipodi-0.dtd"
   xmlns:inkscape="http://www.inkscape.org/namespaces/inkscape"
   width="100"
   height="100"
   id="svg3738"
   version="1.1"
   inkscape:version="0.47 r22583"
   sodipodi:docname="WhiteLion.svg">
  <defs
     id="defs3740">
    <inkscape:perspective
       sodipodi:type="inkscape:persp3d"
       inkscape:vp_x="0 : 526.18109 : 1"
       inkscape:vp_y="0 : 1000 : 0"
       inkscape:vp_z="744.09448 : 526.18109 : 1"
       inkscape:persp3d-origin="372.04724 : 350.78739 : 1"
       id="perspective3746" />
    <inkscape:perspective
       id="perspective3800"
       inkscape:persp3d-origin="0.5 : 0.33333333 : 1"
       inkscape:vp_z="1 : 0.5 : 1"
       inkscape:vp_y="0 : 1000 : 0"
       inkscape:vp_x="0 : 0.5 : 1"
       sodipodi:type="inkscape:persp3d" />
  </defs>
  <sodipodi:namedview
     id="base"
     pagecolor="#ffffff"
     bordercolor="#666666"
     borderopacity="1.0"
     inkscape:pageopacity="0.0"
     inkscape:pageshadow="2"
     inkscape:zoom="2.8"
     inkscape:cx="104.93845"
     inkscape:cy="49.899824"
     inkscape:document-units="px"
     inkscape:current-layer="layer1"
     showgrid="false"
     inkscape:window-width="716"
     inkscape:window-height="504"
     inkscape:window-x="3"
     inkscape:window-y="71"
     inkscape:window-maximized="0"
     showguides="true"
     inkscape:guide-bbox="true">
    <sodipodi:guide
       position="0.17142614,0.85712"
       orientation="0,744.09448"
       id="guide4498" />
    <sodipodi:guide
       position="744.26591,0.85712"
       orientation="-1052.3622,0"
       id="guide4500" />
    <sodipodi:guide
       position="744.26591,1053.2193"
       orientation="0,-744.09448"
       id="guide4502" />
    <sodipodi:guide
       position="0.17142614,1053.2193"
       orientation="1052.3622,0"
       id="guide4504" />
  </sodipodi:namedview>
  <metadata
     id="metadata3743">
    <rdf:RDF>
      <cc:Work
         rdf:about="">
        <dc:format>image/svg+xml</dc:format>
        <dc:type
           rdf:resource="http://purl.org/dc/dcmitype/StillImage" />
        <dc:title />
      </cc:Work>
    </rdf:RDF>
  </metadata>
  <g
     inkscape:label="Layer 1"
     inkscape:groupmode="layer"
     id="layer1"
     transform="translate(0.17142614,-953.2193)">
    <g
       id="g3626">
      <path
         id="path3888"
         d="m 19.658729,988.24705 2.662046,-6.65512 -1.774696,-3.99306 5.767763,-7.98613 8.873485,-6.21144 11.979202,-0.44368 2.218371,-7.09878 7.542461,0 7.098787,3.99306 10.648179,1.77471 -1.331021,5.76775 11.535527,3.10572 -1.331022,4.43674 6.655112,6.65511 -2.21837,2.21838 7.098788,10.64818 -2.662046,2.66204 4.436742,9.76077 -0.443675,6.2115 0,11.0919 -6.211439,-7.9862 0.443675,16.4159 -2.218371,3.1058 -6.211439,-5.7677 0,8.8734 -4.880415,3.5494 0.887348,-9.7609 -7.098787,11.9793 -3.993067,-4.8805 -4.436742,10.2046 -10.204506,1.331 -9.760832,-1.331 -8.42981,-6.6551 -4.43674,-2.2185 -10.648181,6.6552 -0.443675,-12.4229 -2.21837,-7.5424 -3.105719,2.662 -4.8804165,-3.9931 0.8873482,-8.8734 -2.2183708,-3.9931 0.8873485,-5.3241 -4.8804161,-3.5494 1.3310226,-3.5494 15.0849211,-12.86655 z"
         style="fill:#ffffcc;stroke:#000000;stroke-width:1.94107449000000010;stroke-linecap:butt;stroke-linejoin:miter;stroke-miterlimit:4;stroke-opacity:1;stroke-dasharray:none;fill-opacity:1" />
      <path
         sodipodi:nodetypes="ccccccc"
         id="path3890"
         d="m 37.849371,990.46542 -8.42981,-1.77469 3.549395,1.33102 -5.324091,4.43674 5.324091,-2.66205 3.743499,0.19411 1.136916,-1.52513 z"
         style="fill:#000000;stroke:#000000;stroke-width:1.94107449;stroke-linecap:butt;stroke-linejoin:miter;stroke-miterlimit:4;stroke-opacity:1;stroke-dasharray:none" />
      <path
         id="path3892"
         d="m 59.589406,989.1344 0,-6.21144 -0.443675,-7.54246 -1.774697,-4.88042 -3.105719,-2.21837 -6.655113,0.88735 -3.549392,3.99307 -1.774696,3.54939"
         style="fill:none;stroke:#000000;stroke-width:1.94107449;stroke-linecap:butt;stroke-linejoin:miter;stroke-miterlimit:4;stroke-opacity:1;stroke-dasharray:none" />
      <path
         id="path3894"
         d="m 55.152664,985.14134 -0.887349,-4.43675 -2.662044,-3.54939 -3.105719,0 -1.774698,3.99306 0,0 0.887348,0.44367 -0.887348,-0.44367"
         style="fill:none;stroke:#000000;stroke-width:1.94107449;stroke-linecap:butt;stroke-linejoin:miter;stroke-miterlimit:4;stroke-opacity:1;stroke-dasharray:none" />
      <path
         id="path3896"
         d="m 14.334641,1004.2193 0,0 z"
         style="fill:none;stroke:#000000;stroke-width:1.94107449;stroke-linecap:butt;stroke-linejoin:miter;stroke-miterlimit:4;stroke-opacity:1;stroke-dasharray:none" />
      <path
         sodipodi:nodetypes="cc"
         id="path3898"
         d="M 13.128401,1004.8154 2.7991111,1003.332"
         style="fill:none;stroke:#000000;stroke-width:1.94107449;stroke-linecap:butt;stroke-linejoin:miter;stroke-miterlimit:4;stroke-opacity:1;stroke-dasharray:none" />
      <path
         id="path3900"
         d="m 8.1232014,1010.4308 2.2183706,-2.6621 2.21837,-0.4436 0.443676,-2.6621 0,0"
         style="fill:none;stroke:#000000;stroke-width:1.94107449;stroke-linecap:butt;stroke-linejoin:miter;stroke-miterlimit:4;stroke-opacity:1;stroke-dasharray:none" />
      <path
         id="path3902"
         d="m 8.1232014,1017.5296 3.1057196,-0.8874 3.549393,3.9931 4.436742,0 6.211438,2.2184 4.880416,0.4436 0.443674,0 0,0.4437"
         style="fill:none;stroke:#000000;stroke-width:1.94107449;stroke-linecap:butt;stroke-linejoin:miter;stroke-miterlimit:4;stroke-opacity:1;stroke-dasharray:none" />
      <path
         id="path3904"
         d="m 44.06081,1003.7756 -0.443675,8.4299 -3.549393,6.2114 -0.887348,7.0987 -5.32409,6.2115 -3.993067,6.6552"
         style="fill:none;stroke:#000000;stroke-width:1.94107449;stroke-linecap:butt;stroke-linejoin:miter;stroke-miterlimit:4;stroke-opacity:1;stroke-dasharray:none" />
      <path
         id="path3906"
         d="m 72.455957,998.00788 -3.10572,13.31022 -5.767764,10.6482 -6.655112,8.4298 -4.880416,13.3102"
         style="fill:none;stroke:#000000;stroke-width:1.94107449;stroke-linecap:butt;stroke-linejoin:miter;stroke-miterlimit:4;stroke-opacity:1;stroke-dasharray:none" />
      <path
         sodipodi:nodetypes="cccccc"
         id="path3908"
         d="m 66.591138,1040.0876 -0.34662,-7.0294 3.993069,-8.8735 4.43674,-9.7608 2.218371,-10.6483 -0.443673,-7.09874"
         style="fill:none;stroke:#000000;stroke-width:1.94107449;stroke-linecap:butt;stroke-linejoin:miter;stroke-miterlimit:4;stroke-opacity:1;stroke-dasharray:none" />
      <path
         id="path3910"
         d="m 79.998418,997.12053 0,7.09877 0,5.3241 0.887347,7.5425 -4.43674,6.6551 -2.662046,5.3241 -1.331022,6.2114"
         style="fill:none;stroke:#000000;stroke-width:1.94107449;stroke-linecap:butt;stroke-linejoin:miter;stroke-miterlimit:4;stroke-opacity:1;stroke-dasharray:none" />
      <path
         sodipodi:nodetypes="ccccc"
         id="path3912"
         d="m 72.012283,978.04254 6.655113,7.0988 7.986135,5.76775 -0.09705,20.35351 3.091854,3.9377"
         style="fill:none;stroke:#000000;stroke-width:1.94107449;stroke-linecap:butt;stroke-linejoin:miter;stroke-miterlimit:4;stroke-opacity:1;stroke-dasharray:none" />
      <path
         id="path3914"
         d="m 72.012283,972.71846 7.542461,0.88734 4.880416,2.66205 0,0"
         style="fill:none;stroke:#000000;stroke-width:1.94107449;stroke-linecap:butt;stroke-linejoin:miter;stroke-miterlimit:4;stroke-opacity:1;stroke-dasharray:none" />
      <path
         sodipodi:nodetypes="ccc"
         id="path3916"
         d="m 20.546079,987.94202 11.535527,-8.12478 4.436742,-2.66204"
         style="fill:none;stroke:#000000;stroke-width:1.94107449;stroke-linecap:butt;stroke-linejoin:miter;stroke-miterlimit:4;stroke-opacity:1;stroke-dasharray:none" />
      <path
         id="path4508"
         d="m 16.040012,1011.3181 c 8.318891,-1.7331 7.972271,-1.7331 7.972271,-1.7331"
         style="fill:none;stroke:#000000;stroke-width:1.94107449;stroke-linecap:butt;stroke-linejoin:miter;stroke-miterlimit:4;stroke-opacity:1;stroke-dasharray:none" />
      <path
         id="path4510"
         d="m 16.733253,1014.091 c 11.438475,-0.3466 11.438475,-0.3466 11.438475,-0.3466"
         style="fill:none;stroke:#000000;stroke-width:1.94107449;stroke-linecap:butt;stroke-linejoin:miter;stroke-miterlimit:4;stroke-opacity:1;stroke-dasharray:none" />
      <path
         id="path4512"
         d="m 17.079873,1016.5174 c 10.745234,4.1594 10.745234,4.1594 10.745234,4.1594"
         style="fill:none;stroke:#000000;stroke-width:1.94107449;stroke-linecap:butt;stroke-linejoin:miter;stroke-miterlimit:4;stroke-opacity:1;stroke-dasharray:none" />
    </g>
  </g>
</svg>
