<?xml version="1.0" encoding="UTF-8" standalone="no"?>
<!-- Created with Inkscape (http://www.inkscape.org/) -->

<svg
   xmlns:dc="http://purl.org/dc/elements/1.1/"
   xmlns:cc="http://creativecommons.org/ns#"
   xmlns:rdf="http://www.w3.org/1999/02/22-rdf-syntax-ns#"
   xmlns:svg="http://www.w3.org/2000/svg"
   xmlns="http://www.w3.org/2000/svg"
   xmlns:sodipodi="http://sodipodi.sourceforge.net/DTD/sodipodi-0.dtd"
   xmlns:inkscape="http://www.inkscape.org/namespaces/inkscape"
   id="svg2873"
   version="1.1"
   inkscape:version="0.47 r22583"
   width="196"
   height="196"
   sodipodi:docname="wolf4Wt.svg">
  <metadata
     id="metadata2879">
    <rdf:RDF>
      <cc:Work
         rdf:about="">
        <dc:format>image/svg+xml</dc:format>
        <dc:type
           rdf:resource="http://purl.org/dc/dcmitype/StillImage" />
        <dc:title />
      </cc:Work>
    </rdf:RDF>
  </metadata>
  <defs
     id="defs2877">
    <inkscape:perspective
       sodipodi:type="inkscape:persp3d"
       inkscape:vp_x="0 : 0.5 : 1"
       inkscape:vp_y="0 : 1000 : 0"
       inkscape:vp_z="1 : 0.5 : 1"
       inkscape:persp3d-origin="0.5 : 0.33333333 : 1"
       id="perspective2881" />
  </defs>
  <sodipodi:namedview
     pagecolor="#ffffff"
     bordercolor="#666666"
     borderopacity="1"
     objecttolerance="10"
     gridtolerance="10"
     guidetolerance="10"
     inkscape:pageopacity="0"
     inkscape:pageshadow="2"
     inkscape:window-width="640"
     inkscape:window-height="504"
     id="namedview2875"
     showgrid="false"
     inkscape:zoom="1.2040816"
     inkscape:cx="97.999997"
     inkscape:cy="107.76409"
     inkscape:window-x="0"
     inkscape:window-y="24"
     inkscape:window-maximized="0"
     inkscape:current-layer="svg2873" />
  <g
     id="g3606">
    <path
       id="path3598"
       d="m 57.30509,13.288135 -9.96611,11.627119 -7.47457,15.779662 -7.47458,30.728813 -5.81356,27.406785 -3.32203,22.423736 4.15254,14.94915 19.9322,38.20339 10.79661,5.81356 20.76272,4.98305 16.61017,0 24.91525,0.83051 11.62712,-4.98305 16.61017,-11.62712 12.45763,-20.76271 10.79661,-14.94915 -1.66102,-13.28814 -9.13559,-41.525434 -4.98305,-20.762712 -0.83051,-14.118644 -7.47458,-11.627119 -6.64407,-9.966103 -9.13559,4.152543 -8.30508,9.966102 -6.64407,14.118644 -2.49153,9.135594 L 79.72882,58.135594 76.40678,39.864407 69.76271,26.576271 63.94915,18.271186 57.30509,13.288135 z"
       style="fill:#ffffcc;fill-opacity:1;stroke:#000000;stroke-width:1px;stroke-linecap:butt;stroke-linejoin:miter;stroke-opacity:1" />
    <path
       style="fill:#000000"
       d="m 72.830503,186.31495 c -4.125,-1.3456 -8.85,-2.45744 -10.5,-2.47076 -1.65,-0.0133 -4.167948,-0.80934 -5.59544,-1.76894 -1.42749,-0.95961 -5.10172,-3.42158 -8.16495,-5.47106 -3.06322,-2.04948 -6.21718,-4.97448 -7.0088,-6.5 -0.79161,-1.52552 -2.96739,-5.47368 -4.83505,-8.77368 -1.86767,-3.3 -6.07049,-11.56011 -9.3396,-18.35581 -7.2687,-15.10986 -7.78473,-19.11709 -4.6346,-35.99001 3.81785,-20.44945 6.18056,-31.383088 9.10934,-42.154182 1.57029,-5.775 3.58045,-14.1 4.46702,-18.5 1.18296,-5.870934 3.07748,-10.661332 7.11871,-18 5.93974,-10.786277 10.09875,-15.5 13.675966,-15.5 3.746136,0 15.215735,12.395866 17.580247,19 3.292987,9.197389 4.965537,15.255893 5.659362,20.5 l 0.661529,5 15.903488,0 c 15.494255,0 15.903475,-0.05409 15.903135,-2.102035 -2e-4,-1.156119 2.42264,-7.03904 5.38408,-13.073159 5.57137,-11.352008 9.87938,-16.32399 17.1219,-19.76079 4.27028,-2.026379 6.78534,-1.976288 9.33823,0.185984 3.00468,2.544939 10.9439,19.000638 11.70116,24.253108 1.43416,9.947538 12.47904,63.815654 13.92448,67.912454 3.62367,10.27058 2.88876,19.68976 -1.95715,25.08444 -1.23513,1.375 -4.36229,6.325 -6.94924,11 -2.58695,4.675 -5.68461,9.91286 -6.88368,11.63969 -1.19908,1.72682 -2.94368,4.53404 -3.87689,6.23825 -0.93321,1.70421 -3.85821,4.41454 -6.5,6.02297 -2.64179,1.60842 -6.21901,4.09219 -7.94938,5.5195 -1.73037,1.42731 -6.68037,3.80077 -11,5.27436 -7.23256,2.4673 -9.31738,2.70128 -26.353867,2.95773 -17.329649,0.26087 -18.974467,0.12371 -26,-2.16806 z m 51.499997,-3.86311 c 3.4077,-1.01011 7.29615,-3.01881 9,-4.64924 1.65,-1.5789 4.575,-3.53168 6.5,-4.3395 4.14941,-1.7413 8.48912,-6.14252 9.49797,-9.63259 0.39746,-1.375 1.93774,-3.85 3.42284,-5.5 1.4851,-1.65 4.42123,-6.375 6.52473,-10.5 2.1035,-4.125 4.87087,-8.75075 6.14971,-10.27944 4.36022,-5.21207 4.27556,-9.43662 -0.5455,-27.22056 -1.19279,-4.4 -4.81507,-21.280644 -8.0495,-37.51254 -6.56699,-32.95631 -6.01077,-30.832111 -10.66722,-40.737462 -2.14697,-4.567092 -4.00135,-7.25 -5.01108,-7.25 -3.00186,0 -10.36809,4.371717 -12.85078,7.626683 -3.37146,4.420218 -11.47117,21.236775 -11.47117,23.816369 0,1.336674 4.31874,6.395704 12,14.056948 11.28468,11.25528 13.69348,14.5 10.76444,14.5 -0.67956,0 -6.64206,-5.380177 -13.25,-11.955948 L 114.3305,60.918611 92.984434,60.735404 71.638364,60.552197 59.469993,72.691353 c -6.6926,6.676535 -12.72437,12.139155 -13.40393,12.139155 -2.94227,0 -0.49593,-3.264775 11.01444,-14.699372 10.024803,-9.958811 12.931183,-12.292323 16,-12.846285 3.525344,-0.636371 3.749278,-0.894913 3.737944,-4.315634 C 76.804817,48.855903 71.910335,33.489446 69.239495,29.174752 66.35064,24.507858 58.534162,16.830508 56.671549,16.830508 c -1.906426,0 -6.871236,7.038179 -11.639286,16.5 -1.66296,3.3 -4.01062,10.5 -5.21702,16 -1.20641,5.5 -3.68315,16.075 -5.50388,23.5 -1.82072,7.425 -4.25578,19.575 -5.41123,27 -1.15546,7.425002 -2.59813,16.330342 -3.20594,19.789662 -1.36068,7.74419 -0.99212,8.83672 11.28003,33.43666 8.01702,16.07039 9.20028,17.90853 12.66659,19.67691 2.10292,1.07283 4.43561,2.68816 5.18375,3.58962 2.000486,2.41043 6.510731,4.5066 9.70628,4.51105 1.539813,0.002 5.72466,0.87694 9.29966,1.94399 5.601492,1.67189 9.126409,1.90634 25.5,1.69601 14.745237,-0.1894 20.343607,-0.64233 24.999997,-2.02257 z m -39.999997,-2.278 c -3.582053,-0.57629 -14.054587,-10.43253 -14.973027,-14.09188 -0.338488,-1.34865 -1.553397,-3.72075 -2.699797,-5.27134 -1.485903,-2.00979 -1.893294,-3.58054 -1.418889,-5.47072 0.791712,-3.15443 2.867597,-2.82783 3.642642,0.57311 1.213656,5.32558 4.372604,10.67592 9.250412,15.6675 l 5.130339,5.25 13.56832,0 13.568317,0 5.1449,-5.25 c 3.49846,-3.56993 6.02444,-7.4101 7.89332,-12 2.93027,-7.1966 4.00309,-8.15355 4.9429,-4.40903 0.82979,3.30612 -5.25191,13.96627 -11.44444,20.0601 l -4.98045,4.90107 -12.312274,0.26192 c -6.77175,0.14406 -13.662273,0.0447 -15.312273,-0.22073 z m 3.957386,-9.62633 c -1.936808,-1.66597 -2.796382,-3.54495 -3.180434,-6.95225 -0.474863,-4.21297 -0.228462,-4.96709 2.521454,-7.717 2.736652,-2.73665 3.675896,-3.04775 9.201594,-3.04775 5.468287,0 6.479487,0.32564 9.076917,2.92308 2.2925,2.29249 2.92308,3.81916 2.92308,7.07692 0,3.25776 -0.63058,4.78443 -2.92308,7.07692 -2.58348,2.58348 -3.6226,2.92308 -8.94423,2.92308 -4.828238,0 -6.547002,-0.45231 -8.675301,-2.283 z m -2.905366,-22.967 c -4.376569,-14.20188 -4.995989,-18.75 -2.553611,-18.75 1.723452,0 6.611879,15.96723 5.653246,18.46539 -0.709789,1.84968 -2.564839,2.02001 -3.099635,0.28461 z m 19.907877,0.18511 c -1.31092,-2.12111 3.57737,-18.93511 5.50496,-18.93511 2.02356,0 1.85218,3.81062 -0.52136,11.59224 -2.4581,8.05884 -3.54833,9.66519 -4.9836,7.34287 z M 65.931494,119.01921 c -3.266004,-6.10258 1.367814,-14.1887 8.130956,-14.1887 1.862187,0 4.157307,0.56414 5.100268,1.25365 1.541083,1.12687 1.014393,1.94837 -5.207879,8.12297 -6.513118,6.46321 -6.987441,6.74769 -8.023345,4.81208 z m 49.465476,-5.12172 -6.92622,-6.9797 2.74497,-1.04364 c 1.50974,-0.574 3.41303,-1.04364 4.22954,-1.04364 2.40177,0 7.24237,2.86454 8.3556,4.94461 1.40651,2.62809 1.29478,7.31054 -0.22401,9.3876 -1.12672,1.54088 -1.95498,1.00774 -8.17988,-5.26523 z"
       id="use3602" />
  </g>
</svg>
