<?xml version="1.0" encoding="UTF-8" standalone="no"?>
<!-- Created with Inkscape (http://www.inkscape.org/) -->

<svg
   xmlns:dc="http://purl.org/dc/elements/1.1/"
   xmlns:cc="http://creativecommons.org/ns#"
   xmlns:rdf="http://www.w3.org/1999/02/22-rdf-syntax-ns#"
   xmlns:svg="http://www.w3.org/2000/svg"
   xmlns="http://www.w3.org/2000/svg"
   xmlns:inkscape="http://www.inkscape.org/namespaces/inkscape"
   version="1.0"
   width="100"
   height="100"
   id="svg2833">
  <defs
     id="defs2835" />
  <metadata
     id="metadata2838">
    <rdf:RDF>
      <cc:Work
         rdf:about="">
        <dc:format>image/svg+xml</dc:format>
        <dc:type
           rdf:resource="http://purl.org/dc/dcmitype/StillImage" />
        <dc:title />
      </cc:Work>
    </rdf:RDF>
  </metadata>
  <g
     transform="translate(-67.582896,-53.165632)"
     id="layer1">
    <g
       transform="matrix(1.4397662,0,0,1.4377748,-242.25237,-480.24648)"
       id="g745"
       style="display:inline">
      <path
         d="m 224.33644,424.19808 c 0.28187,6.17991 15.97439,8.70112 24.70538,8.7015 8.82584,3.8e-4 24.7356,-5.0937 24.97454,-8.79385 4.38524,-4.0222 3.65234,-18.32756 -0.19787,-20.73151 -2.02583,-22.88424 -31.77297,-24.5101 -43.77138,-10.75047 -7.59734,4.81302 -8.43194,15.29598 -5.97982,21.98462 -1.34056,2.63987 -2.00858,5.34718 0.26915,9.58971 z"
         inkscape:connector-curvature="0"
         id="path677"
         style="color:#000000;fill:#ffffcc;fill-opacity:1;fill-rule:nonzero;stroke:#000000;stroke-width:1.39007604;stroke-linecap:butt;stroke-linejoin:miter;stroke-miterlimit:4;stroke-opacity:1;stroke-dasharray:none;marker:none;visibility:visible;display:inline;overflow:visible;enable-background:accumulate" />
      <path
         d="m 229.95917,392.62375 c 14.42191,0.70351 32.36137,4.22104 44.23306,10.81643"
         inkscape:connector-curvature="0"
         id="path679"
         style="color:#000000;fill:#ffffcc;fill-opacity:1;fill-rule:nonzero;stroke:#000000;stroke-width:1.39007604;stroke-linecap:butt;stroke-linejoin:miter;stroke-miterlimit:4;stroke-opacity:1;stroke-dasharray:none;marker:none;visibility:visible;display:inline;overflow:visible;enable-background:accumulate" />
      <path
         d="m 223.36378,415.136 c 10.77247,-3.73739 29.72321,0.17588 50.91639,8.35416"
         inkscape:connector-curvature="0"
         id="path681"
         style="color:#000000;fill:#ffffcc;fill-opacity:1;fill-rule:nonzero;stroke:#000000;stroke-width:1.39007604;stroke-linecap:butt;stroke-linejoin:miter;stroke-miterlimit:4;stroke-opacity:1;stroke-dasharray:none;marker:none;visibility:visible;display:inline;overflow:visible;enable-background:accumulate" />
      <path
         d="m 224.15523,424.7213 c 9.5853,-7.56271 25.15041,-12.13551 49.86113,-1.1432"
         inkscape:connector-curvature="0"
         id="path683"
         style="color:#000000;fill:#ffffcc;fill-opacity:1;fill-rule:nonzero;stroke:#000000;stroke-width:1.39007604;stroke-linecap:butt;stroke-linejoin:miter;stroke-miterlimit:4;stroke-opacity:1;stroke-dasharray:none;marker:none;visibility:visible;display:inline;overflow:visible;enable-background:accumulate" />
      <path
         d="m 252.00261,411.96351 -3.39735,-3.01802 -3.93903,2.26594 1.82046,-4.16369 -3.37226,-3.04603 4.52246,0.44471 1.85485,-4.14849 0.97457,4.43855 4.51863,0.48211 -3.92014,2.29846 z"
         transform="matrix(0.87388966,-0.0876486,0.08773684,0.87301075,-3.5392619,73.053667)"
         id="path737"
         style="color:#000000;fill:#000000;fill-opacity:1;fill-rule:nonzero;stroke:#000000;stroke-width:1.5835166;stroke-linecap:butt;stroke-linejoin:miter;stroke-miterlimit:4;stroke-opacity:1;stroke-dasharray:none;marker:none;visibility:visible;display:inline;overflow:visible;enable-background:accumulate" />
    </g>
  </g>
</svg>
