<?xml version="1.0" encoding="UTF-8" standalone="no"?>
<!-- Created with Inkscape (http://www.inkscape.org/) -->

<svg
   xmlns:dc="http://purl.org/dc/elements/1.1/"
   xmlns:cc="http://creativecommons.org/ns#"
   xmlns:rdf="http://www.w3.org/1999/02/22-rdf-syntax-ns#"
   xmlns:svg="http://www.w3.org/2000/svg"
   xmlns="http://www.w3.org/2000/svg"
   xmlns:inkscape="http://www.inkscape.org/namespaces/inkscape"
   version="1.0"
   width="100"
   height="100"
   id="svg2833">
  <defs
     id="defs2835" />
  <metadata
     id="metadata2838">
    <rdf:RDF>
      <cc:Work
         rdf:about="">
        <dc:format>image/svg+xml</dc:format>
        <dc:type
           rdf:resource="http://purl.org/dc/dcmitype/StillImage" />
        <dc:title />
      </cc:Work>
    </rdf:RDF>
  </metadata>
  <g
     transform="translate(-67.582896,-53.165653)"
     id="layer1">
    <g
       transform="matrix(1.4861261,0,0,1.4861261,-1011.529,435.79173)"
       id="g533"
       style="display:inline">
      <path
         d="m 778.01692,-203.72171 c 0,3.25726 -8.91179,5.89779 -19.90504,5.89779 -10.99326,0 -19.90505,-2.64053 -19.90505,-5.89779 0.0946,-3.73126 2.33706,-4.90002 2.17488,-7.58289 -0.13529,-2.23801 -3.26235,-4.39325 -2.55314,-5.89779 0.70921,-1.50454 17.11551,-12.39739 18.91216,-17.69337 l 2.93138,0 c 1.60753,5.41634 17.68286,15.52683 18.34479,16.97119 0.66193,1.44436 -2.13164,4.22877 -2.17489,6.61997 -0.0486,2.6901 2.17491,3.61091 2.17491,7.58289 z"
         inkscape:connector-curvature="0"
         transform="matrix(1.2993827,0,0,1.0208333,-225.06109,4.3670728)"
         id="path517"
         style="color:#000000;fill:#ffffcc;fill-opacity:1;fill-rule:nonzero;stroke:#000000;stroke-width:1.16849911;stroke-linecap:round;stroke-linejoin:miter;stroke-miterlimit:4;stroke-opacity:1;marker:none;visibility:visible;display:inline;overflow:visible;enable-background:accumulate" />
      <path
         d="m 741.28937,-214.05418 c 3.78276,-1.64916 10.3791,-2.56894 18.72697,-2.56894 8.76814,0 15.20178,1.14205 18.93874,2.93056"
         inkscape:connector-curvature="0"
         id="path519"
         style="color:#000000;fill:#ffffcc;fill-opacity:1;fill-rule:nonzero;stroke:#000000;stroke-width:1.34578073;stroke-linecap:round;stroke-linejoin:miter;stroke-miterlimit:4;stroke-opacity:1;marker:none;visibility:visible;display:inline;overflow:visible;enable-background:accumulate" />
      <path
         d="m 738.20683,-203.72171 c 0,-3.25726 8.91179,-5.89779 19.90505,-5.89779 10.99325,0 19.90504,2.64053 19.90504,5.89779"
         inkscape:connector-curvature="0"
         transform="matrix(1.2993827,0,0,1.0208333,-225.06109,4.3670728)"
         id="path521"
         style="color:#000000;fill:#ffffcc;fill-opacity:1;fill-rule:nonzero;stroke:#000000;stroke-width:1.16849911;stroke-linecap:round;stroke-linejoin:miter;stroke-miterlimit:4;stroke-opacity:1;marker:none;visibility:visible;display:inline;overflow:visible;enable-background:accumulate" />
      <path
         d="m 739.72049,-221.47874 c 4.86123,-1.31334 12.14742,-2.14801 20.29168,-2.14801 8.34275,0 15.78508,0.87585 20.64276,2.24489"
         inkscape:connector-curvature="0"
         id="path523"
         style="color:#000000;fill:#ffffcc;fill-opacity:1;fill-rule:nonzero;stroke:#000000;stroke-width:1.34578085;stroke-linecap:round;stroke-linejoin:miter;stroke-miterlimit:4;stroke-opacity:1;marker:none;visibility:visible;display:inline;overflow:visible;enable-background:accumulate" />
      <path
         d="m 766.22133,-240.82864 a 5.77492,5.77492 0 1 1 -11.54984,0 5.77492,5.77492 0 1 1 11.54984,0 z"
         transform="translate(-0.67579834,0)"
         id="path529"
         style="color:#000000;fill:#ffffcc;fill-opacity:1;fill-rule:nonzero;stroke:#000000;stroke-width:1.34578085;stroke-linecap:round;stroke-linejoin:miter;stroke-miterlimit:4;stroke-opacity:1;stroke-dasharray:none;marker:none;visibility:visible;display:inline;overflow:visible;enable-background:accumulate" />
    </g>
  </g>
</svg>
