<?xml version="1.0" encoding="UTF-8" standalone="no"?>
<!-- Created with Inkscape (http://www.inkscape.org/) -->

<svg
   xmlns:dc="http://purl.org/dc/elements/1.1/"
   xmlns:cc="http://creativecommons.org/ns#"
   xmlns:rdf="http://www.w3.org/1999/02/22-rdf-syntax-ns#"
   xmlns:svg="http://www.w3.org/2000/svg"
   xmlns="http://www.w3.org/2000/svg"
   xmlns:inkscape="http://www.inkscape.org/namespaces/inkscape"
   version="1.0"
   width="100"
   height="100"
   id="svg2833">
  <defs
     id="defs2835" />
  <metadata
     id="metadata2838">
    <rdf:RDF>
      <cc:Work
         rdf:about="">
        <dc:format>image/svg+xml</dc:format>
        <dc:type
           rdf:resource="http://purl.org/dc/dcmitype/StillImage" />
        <dc:title />
      </cc:Work>
    </rdf:RDF>
  </metadata>
  <g
     transform="translate(-67.582896,-53.165653)"
     id="layer1">
    <g
       transform="matrix(1.2404378,0,0,1.2412981,127.08498,542.59891)"
       id="g1105"
       style="display:inline">
      <path
         d="m -18.51544,-346.78633 c -2.614757,-2.54165 -8.234766,-8.35744 -10.508347,-9.74471 -2.273581,-1.38727 -7.91168,-3.08934 -8.059624,-5.71859 1.267913,-5.86233 15.836842,-7.17605 25.127698,-17.37235 l 8.1144435,-0.024 c 10.2744628,10.07442 24.1971175,12.00046 25.3068295,17.39639 -0.449756,2.92902 -3.681893,3.70899 -6.602616,5.71855 -2.920723,2.00956 -8.2743387,6.6625 -11.391974,9.74475 z"
         inkscape:connector-curvature="0"
         id="path884"
         style="color:#000000;fill:#ffffcc;fill-opacity:1;fill-rule:nonzero;stroke:#000000;stroke-width:1.61177504;stroke-linecap:butt;stroke-linejoin:miter;stroke-miterlimit:4;stroke-opacity:1;marker:none;visibility:visible;display:inline;overflow:visible;enable-background:accumulate" />
      <path
         d="m 7.21823,-337.54517 c 0,1.6435 -6.66157,2.97581 -14.87902,2.97581 -8.21746,0 -14.87903,-1.33231 -14.87903,-2.97581 0.0526,-1.10471 2.12554,-7.70048 5.16562,-8.71511 5.33881,-1.78182 14.24203,-1.99005 19.77699,0 2.97119,1.06827 4.86805,7.71561 4.81544,8.71511 z"
         inkscape:connector-curvature="0"
         id="path886"
         style="color:#000000;fill:#ffffcc;fill-opacity:1;fill-rule:nonzero;stroke:#000000;stroke-width:1.61177504;stroke-linecap:butt;stroke-linejoin:miter;stroke-miterlimit:4;stroke-opacity:1;marker:none;visibility:visible;display:inline;overflow:visible;enable-background:accumulate" />
      <path
         d="m -22.05759,-338.28262 c 1.6404,-1.28678 7.47388,-2.23835 14.4186,-2.23835 6.88597,0 12.67941,0.93554 14.37606,2.20576"
         inkscape:connector-curvature="0"
         id="path888"
         style="color:#000000;fill:#ffffcc;fill-opacity:1;fill-rule:nonzero;stroke:#000000;stroke-width:1.61177504;stroke-linecap:butt;stroke-linejoin:miter;stroke-miterlimit:4;stroke-opacity:1;marker:none;visibility:visible;display:inline;overflow:visible;enable-background:accumulate" />
      <path
         d="m -7.66026,-367.6202 0,12.95918"
         inkscape:connector-curvature="0"
         id="path890"
         style="color:#000000;fill:#ffffcc;fill-opacity:1;fill-rule:nonzero;stroke:#000000;stroke-width:1.61177504;stroke-linecap:butt;stroke-linejoin:miter;stroke-miterlimit:4;stroke-opacity:1;stroke-dasharray:none;marker:none;visibility:visible;display:inline;overflow:visible;enable-background:accumulate" />
      <path
         d="m -14.6466,-360.60764 13.97267,0"
         inkscape:connector-curvature="0"
         id="path892"
         style="color:#000000;fill:#ffffcc;fill-opacity:1;fill-rule:nonzero;stroke:#000000;stroke-width:1.61177504;stroke-linecap:butt;stroke-linejoin:miter;stroke-miterlimit:4;stroke-opacity:1;stroke-dasharray:none;marker:none;visibility:visible;display:inline;overflow:visible;enable-background:accumulate" />
      <path
         d="m -39.17083,-326.2747 3.26152,3.68236 c 1.60406,-1.05102 3.7219,-1.999 5.78658,-1.999 l 15.25554,0 c 2.52822,0 4.95679,-2.15681 6.99651,-3.20892 2.25013,0.9469 4.39255,3.20892 6.9965,3.20892 l 16.09722,0 c 1.74542,0 3.17357,0.90741 4.83968,1.999 l 3.78758,-3.68236 c -1.71938,-1.29856 -4.76079,-3.32636 -7.36474,-3.32636 l -16.83369,0 c -1.77932,-0.0287 -2.82421,-1.66082 -4.92736,-3.93318 l -4.87476,0 c -1.35847,1.19074 -3.72194,3.95713 -5.76905,3.93318 l -15.78159,0 c -2.73547,0 -5.45646,1.44385 -7.46994,3.32636 z"
         inkscape:connector-curvature="0"
         id="path894"
         style="color:#000000;fill:#ffffcc;fill-opacity:1;fill-rule:nonzero;stroke:#000000;stroke-width:1.61177504;stroke-linecap:butt;stroke-linejoin:miter;stroke-miterlimit:4;stroke-opacity:1;stroke-dasharray:none;marker:none;visibility:visible;display:inline;overflow:visible;enable-background:accumulate" />
    </g>
  </g>
</svg>
