<?xml version="1.0" encoding="UTF-8" standalone="no"?>
<!-- Created with Inkscape (http://www.inkscape.org/) -->
<svg
   xmlns:dc="http://purl.org/dc/elements/1.1/"
   xmlns:cc="http://creativecommons.org/ns#"
   xmlns:rdf="http://www.w3.org/1999/02/22-rdf-syntax-ns#"
   xmlns:svg="http://www.w3.org/2000/svg"
   xmlns="http://www.w3.org/2000/svg"
   xmlns:sodipodi="http://sodipodi.sourceforge.net/DTD/sodipodi-0.dtd"
   xmlns:inkscape="http://www.inkscape.org/namespaces/inkscape"
   width="97.221024"
   height="89.91935"
   id="svg2833"
   sodipodi:version="0.32"
   inkscape:version="0.46+devel"
   version="1.0"
   sodipodi:docname="WhiteRook.svg"
   inkscape:output_extension="org.inkscape.output.svg.inkscape">
  <defs
     id="defs2835">
    <inkscape:perspective
       sodipodi:type="inkscape:persp3d"
       inkscape:vp_x="0 : 526.18109 : 1"
       inkscape:vp_y="0 : 1000 : 0"
       inkscape:vp_z="744.09448 : 526.18109 : 1"
       inkscape:persp3d-origin="372.04724 : 350.78739 : 1"
       id="perspective2841" />
    <inkscape:perspective
       id="perspective2851"
       inkscape:persp3d-origin="0.5 : 0.33333333 : 1"
       inkscape:vp_z="1 : 0.5 : 1"
       inkscape:vp_y="0 : 1000 : 0"
       inkscape:vp_x="0 : 0.5 : 1"
       sodipodi:type="inkscape:persp3d" />
    <inkscape:perspective
       id="perspective2873"
       inkscape:persp3d-origin="0.5 : 0.33333333 : 1"
       inkscape:vp_z="1 : 0.5 : 1"
       inkscape:vp_y="0 : 1000 : 0"
       inkscape:vp_x="0 : 0.5 : 1"
       sodipodi:type="inkscape:persp3d" />
    <inkscape:perspective
       id="perspective2916"
       inkscape:persp3d-origin="0.5 : 0.33333333 : 1"
       inkscape:vp_z="1 : 0.5 : 1"
       inkscape:vp_y="0 : 1000 : 0"
       inkscape:vp_x="0 : 0.5 : 1"
       sodipodi:type="inkscape:persp3d" />
    <inkscape:perspective
       id="perspective2959"
       inkscape:persp3d-origin="0.5 : 0.33333333 : 1"
       inkscape:vp_z="1 : 0.5 : 1"
       inkscape:vp_y="0 : 1000 : 0"
       inkscape:vp_x="0 : 0.5 : 1"
       sodipodi:type="inkscape:persp3d" />
    <inkscape:perspective
       id="perspective3002"
       inkscape:persp3d-origin="0.5 : 0.33333333 : 1"
       inkscape:vp_z="1 : 0.5 : 1"
       inkscape:vp_y="0 : 1000 : 0"
       inkscape:vp_x="0 : 0.5 : 1"
       sodipodi:type="inkscape:persp3d" />
    <inkscape:perspective
       id="perspective3045"
       inkscape:persp3d-origin="0.5 : 0.33333333 : 1"
       inkscape:vp_z="1 : 0.5 : 1"
       inkscape:vp_y="0 : 1000 : 0"
       inkscape:vp_x="0 : 0.5 : 1"
       sodipodi:type="inkscape:persp3d" />
    <inkscape:perspective
       id="perspective3088"
       inkscape:persp3d-origin="0.5 : 0.33333333 : 1"
       inkscape:vp_z="1 : 0.5 : 1"
       inkscape:vp_y="0 : 1000 : 0"
       inkscape:vp_x="0 : 0.5 : 1"
       sodipodi:type="inkscape:persp3d" />
    <inkscape:perspective
       id="perspective3131"
       inkscape:persp3d-origin="0.5 : 0.33333333 : 1"
       inkscape:vp_z="1 : 0.5 : 1"
       inkscape:vp_y="0 : 1000 : 0"
       inkscape:vp_x="0 : 0.5 : 1"
       sodipodi:type="inkscape:persp3d" />
    <inkscape:perspective
       id="perspective3174"
       inkscape:persp3d-origin="0.5 : 0.33333333 : 1"
       inkscape:vp_z="1 : 0.5 : 1"
       inkscape:vp_y="0 : 1000 : 0"
       inkscape:vp_x="0 : 0.5 : 1"
       sodipodi:type="inkscape:persp3d" />
    <inkscape:perspective
       id="perspective3217"
       inkscape:persp3d-origin="0.5 : 0.33333333 : 1"
       inkscape:vp_z="1 : 0.5 : 1"
       inkscape:vp_y="0 : 1000 : 0"
       inkscape:vp_x="0 : 0.5 : 1"
       sodipodi:type="inkscape:persp3d" />
    <inkscape:perspective
       id="perspective3260"
       inkscape:persp3d-origin="0.5 : 0.33333333 : 1"
       inkscape:vp_z="1 : 0.5 : 1"
       inkscape:vp_y="0 : 1000 : 0"
       inkscape:vp_x="0 : 0.5 : 1"
       sodipodi:type="inkscape:persp3d" />
  </defs>
  <sodipodi:namedview
     id="base"
     pagecolor="#ffffff"
     bordercolor="#666666"
     borderopacity="1.0"
     inkscape:pageopacity="0.0"
     inkscape:pageshadow="2"
     inkscape:zoom="0.98994949"
     inkscape:cx="8.7527877"
     inkscape:cy="82.430952"
     inkscape:document-units="px"
     inkscape:current-layer="layer1"
     showgrid="false"
     inkscape:window-width="658"
     inkscape:window-height="834"
     inkscape:window-x="564"
     inkscape:window-y="56" />
  <metadata
     id="metadata2838">
    <rdf:RDF>
      <cc:Work
         rdf:about="">
        <dc:format>image/svg+xml</dc:format>
        <dc:type
           rdf:resource="http://purl.org/dc/dcmitype/StillImage" />
        <dc:title></dc:title>
      </cc:Work>
    </rdf:RDF>
  </metadata>
  <g
     inkscape:label="Layer 1"
     inkscape:groupmode="layer"
     id="layer1"
     transform="translate(-67.582896,-63.246303)">
    <path
       style="stroke-width:1px"
       d="m 86.628286,138.26862 c -1.78648,0 -4.76394,-0.59549 -5.95493,0.59549 -1.78647,1.19099 -1.78647,7.7414 0,8.3369 4.16845,2.38196 13.100829,0.59549 17.86477,0.59549 h 35.729544 c 4.76394,0 11.90985,1.19098 16.67379,0 2.38197,-1.19099 2.97746,-7.14591 0.59549,-8.93239 -1.19099,-1.19098 -4.16845,-0.59549 -5.95492,-0.59549 0,-2.97746 0.59549,-6.55041 -0.5955,-8.93238 -1.19098,-2.97747 -4.76393,-4.16845 -5.95492,-7.7414 -1.78648,-7.7414 -0.59549,-20.24673 0,-27.988134 0.59549,-4.16845 5.35943,-5.95493 7.14591,-8.93239 2.38197,-2.97746 1.78648,-11.31435 1.19098,-14.29181 -1.19098,-2.97746 -11.90984,-2.97746 -13.69632,-1.19099 -1.78648,1.19099 -1.19098,4.16845 -1.19098,5.95493 h -8.93239 c 0,-1.78648 0.59549,-4.16845 -0.59549,-5.35943 -1.19099,-1.78648 -12.50535,-1.78648 -13.69634,0 -1.19098,1.19098 -0.59549,3.57295 -0.59549,5.35943 h -8.932375 c 0,-1.78648 0.595485,-4.76394 -1.19099,-5.95493 -1.78647,-1.78647 -12.50533,-1.78647 -13.69632,1.19099 -0.59549,2.97746 -1.19098,11.31435 1.19099,14.29181 1.78647,2.97746 6.55041,4.76394 7.1459,8.93239 0.59549,7.741404 1.78648,20.246734 0,27.988134 -1.19098,3.57295 -4.76394,4.76393 -5.95492,7.7414 -1.19098,2.38197 -0.59549,5.95492 -0.59549,8.93238 z m 63.122184,6.55042 H 82.459836 v -3.57296 h 67.290634 v 3.57296 z m -7.14591,-6.55042 H 89.605746 v -6.55041 h 52.998814 v 6.55041 z m -2.38196,-9.52788 H 91.987716 c 2.97746,-4.16844 5.95492,-3.57295 10.718864,-3.57295 h 25.60617 c 4.76394,0 8.93238,-0.59549 11.90985,3.57295 z m -4.16845,-6.55041 H 96.156156 V 91.820226 h 39.897994 v 30.370104 z m 5.35943,-37.516014 c -2.97746,4.16845 -6.55042,4.16845 -11.31435,4.16845 h -26.20167 c -5.359434,0 -9.527875,0.59549 -13.100834,-4.16845 h 50.616854 z m 2.97746,-2.97746 H 87.819265 v -10.12337 h 8.932391 c 0,1.78648 -0.5955,4.16845 1.19098,5.35943 1.78648,1.78648 10.718864,1.78648 12.505344,0 1.78648,-1.19098 1.19098,-3.57295 1.19098,-5.35943 h 8.93239 c 0,1.78648 -0.59549,4.16845 1.19098,5.35943 1.78648,1.78648 10.71887,1.78648 12.50534,0 1.78648,-1.19098 1.19099,-3.57295 1.19099,-5.35943 h 8.93238 v 10.12337 z"
       id="WhiteRook" />
  </g>
</svg>
