<?xml version="1.0" encoding="UTF-8" standalone="no"?>
<!-- Created with Inkscape (http://www.inkscape.org/) -->

<svg
   xmlns:dc="http://purl.org/dc/elements/1.1/"
   xmlns:cc="http://creativecommons.org/ns#"
   xmlns:rdf="http://www.w3.org/1999/02/22-rdf-syntax-ns#"
   xmlns:svg="http://www.w3.org/2000/svg"
   xmlns="http://www.w3.org/2000/svg"
   xmlns:sodipodi="http://sodipodi.sourceforge.net/DTD/sodipodi-0.dtd"
   xmlns:inkscape="http://www.inkscape.org/namespaces/inkscape"
   width="100"
   height="100"
   id="svg2833"
   sodipodi:version="0.32"
   inkscape:version="0.46+devel r22620"
   version="1.0"
   sodipodi:docname="WhiteKnight.svg"
   inkscape:output_extension="org.inkscape.output.svg.inkscape">
  <defs
     id="defs2835">
    <inkscape:perspective
       sodipodi:type="inkscape:persp3d"
       inkscape:vp_x="0 : 526.18109 : 1"
       inkscape:vp_y="0 : 1000 : 0"
       inkscape:vp_z="744.09448 : 526.18109 : 1"
       inkscape:persp3d-origin="372.04724 : 350.78739 : 1"
       id="perspective2841" />
    <inkscape:perspective
       id="perspective2851"
       inkscape:persp3d-origin="0.5 : 0.33333333 : 1"
       inkscape:vp_z="1 : 0.5 : 1"
       inkscape:vp_y="0 : 1000 : 0"
       inkscape:vp_x="0 : 0.5 : 1"
       sodipodi:type="inkscape:persp3d" />
    <inkscape:perspective
       id="perspective2873"
       inkscape:persp3d-origin="0.5 : 0.33333333 : 1"
       inkscape:vp_z="1 : 0.5 : 1"
       inkscape:vp_y="0 : 1000 : 0"
       inkscape:vp_x="0 : 0.5 : 1"
       sodipodi:type="inkscape:persp3d" />
    <inkscape:perspective
       id="perspective2916"
       inkscape:persp3d-origin="0.5 : 0.33333333 : 1"
       inkscape:vp_z="1 : 0.5 : 1"
       inkscape:vp_y="0 : 1000 : 0"
       inkscape:vp_x="0 : 0.5 : 1"
       sodipodi:type="inkscape:persp3d" />
    <inkscape:perspective
       id="perspective2959"
       inkscape:persp3d-origin="0.5 : 0.33333333 : 1"
       inkscape:vp_z="1 : 0.5 : 1"
       inkscape:vp_y="0 : 1000 : 0"
       inkscape:vp_x="0 : 0.5 : 1"
       sodipodi:type="inkscape:persp3d" />
    <inkscape:perspective
       id="perspective3002"
       inkscape:persp3d-origin="0.5 : 0.33333333 : 1"
       inkscape:vp_z="1 : 0.5 : 1"
       inkscape:vp_y="0 : 1000 : 0"
       inkscape:vp_x="0 : 0.5 : 1"
       sodipodi:type="inkscape:persp3d" />
    <inkscape:perspective
       id="perspective3045"
       inkscape:persp3d-origin="0.5 : 0.33333333 : 1"
       inkscape:vp_z="1 : 0.5 : 1"
       inkscape:vp_y="0 : 1000 : 0"
       inkscape:vp_x="0 : 0.5 : 1"
       sodipodi:type="inkscape:persp3d" />
    <inkscape:perspective
       id="perspective3088"
       inkscape:persp3d-origin="0.5 : 0.33333333 : 1"
       inkscape:vp_z="1 : 0.5 : 1"
       inkscape:vp_y="0 : 1000 : 0"
       inkscape:vp_x="0 : 0.5 : 1"
       sodipodi:type="inkscape:persp3d" />
    <inkscape:perspective
       id="perspective3131"
       inkscape:persp3d-origin="0.5 : 0.33333333 : 1"
       inkscape:vp_z="1 : 0.5 : 1"
       inkscape:vp_y="0 : 1000 : 0"
       inkscape:vp_x="0 : 0.5 : 1"
       sodipodi:type="inkscape:persp3d" />
    <inkscape:perspective
       id="perspective3174"
       inkscape:persp3d-origin="0.5 : 0.33333333 : 1"
       inkscape:vp_z="1 : 0.5 : 1"
       inkscape:vp_y="0 : 1000 : 0"
       inkscape:vp_x="0 : 0.5 : 1"
       sodipodi:type="inkscape:persp3d" />
    <inkscape:perspective
       id="perspective3126"
       inkscape:persp3d-origin="0.5 : 0.33333333 : 1"
       inkscape:vp_z="1 : 0.5 : 1"
       inkscape:vp_y="0 : 1000 : 0"
       inkscape:vp_x="0 : 0.5 : 1"
       sodipodi:type="inkscape:persp3d" />
  </defs>
  <sodipodi:namedview
     id="base"
     pagecolor="#ffffff"
     bordercolor="#666666"
     borderopacity="1.0"
     inkscape:pageopacity="0.0"
     inkscape:pageshadow="2"
     inkscape:zoom="0.98994949"
     inkscape:cx="-117.0112"
     inkscape:cy="82.430952"
     inkscape:document-units="px"
     inkscape:current-layer="layer1"
     showgrid="false"
     inkscape:window-width="658"
     inkscape:window-height="834"
     inkscape:window-x="564"
     inkscape:window-y="56"
     inkscape:window-maximized="0" />
  <metadata
     id="metadata2838">
    <rdf:RDF>
      <cc:Work
         rdf:about="">
        <dc:format>image/svg+xml</dc:format>
        <dc:type
           rdf:resource="http://purl.org/dc/dcmitype/StillImage" />
        <dc:title />
      </cc:Work>
    </rdf:RDF>
  </metadata>
  <g
     inkscape:label="Layer 1"
     inkscape:groupmode="layer"
     id="layer1"
     transform="translate(-67.582896,-53.165653)">
    <g
       transform="translate(-463.6798,-191.18468)"
       id="g3245">
      <path
         id="path2922"
         d="m 574.75,253.6875 c -1.18671,3.39093 -2.28558,7.57384 -6.5,7.96875 -3.34476,2.31695 0.31429,-4.91456 -5.125,-5.78125 -2.18583,-2.77221 -6.0974,-1.30995 -5.25,2.28125 1.84749,6.62283 -5.79251,9.95203 -6.5,16.03125 -1.22655,10.01241 -9.24577,17.06794 -12.28125,26.3125 -1.89497,5.37514 0.27046,14.56577 7.53125,13.21875 2.21283,-0.25895 4.80151,-4.34108 3.75,-0.28125 0.93619,5.15719 5.70145,0.10134 7.4375,-2 5.93211,-7.76697 14.94839,-11.41824 22.8125,-16.65625 2.55648,-1.88894 3.40704,-6.95561 4.34375,-8.15625 -2.03933,7.24803 -0.89405,15.48104 -6.21875,21.6875 -5.14851,8.59128 -13.46824,15.74812 -15.9375,25.71875 1.28699,4.64355 8.24617,1.84859 11.62483,2.80722 15.71833,0.0855 31.4377,0.0118 47.15642,0.0365 -1.18694,-22.67088 -1.70238,-48.21574 -18.03566,-65.81574 -5.45124,-5.16282 -12.66377,-10.21433 -20.46434,-10.15301 -2.79933,0.80339 -2.80848,-5.77352 -4.71875,-7.34375 -2.22703,-4.73955 -1.5911,-4.97855 -3.625,0.125 z m -11.71875,12.21875 c -0.0398,0.077 -0.29071,0.0895 0,0 z m -1.90625,8.15625 c 1.01075,2.26328 -3.61064,2.65708 -1.03125,0.625 0.22952,-0.12864 1.05967,-1.01571 1.03125,-0.625 z m -15.78125,27.8125 c 0.85343,2.10439 -2.00683,2.26305 -0.34375,0.21875 0.10229,-0.0709 0.23267,-0.17598 0.34375,-0.21875 z"
         style="color:#000000;fill:#ffffcc;fill-opacity:1;fill-rule:nonzero;stroke:none;stroke-width:8;marker:none;visibility:visible;display:inline;overflow:visible;enable-background:accumulate" />
      <path
         id="WhiteKnight"
         d="m 548.53321,314.63036 c -6.2288,1.86865 -12.45761,-2.49152 -11.83473,-9.3432 0.62288,-8.09745 6.22881,-14.32626 9.9661,-21.17794 2.49152,-4.36017 1.86863,-8.72033 3.73728,-13.0805 1.24576,-3.1144 4.36016,-4.98304 5.60592,-8.09744 1.86864,-2.49153 -2.49152,-9.9661 0.62288,-12.45762 3.11441,-2.49152 10.58897,6.22881 11.83474,8.72034 4.98304,-3.73729 7.47457,-14.94914 12.4576,-4.36017 0.62289,1.24575 1.24577,2.49152 1.24577,3.73728 28.65252,2.49152 39.86432,30.52115 42.35582,56.05925 0.6229,5.60593 1.2458,11.21185 1.2458,16.81778 0,1.86864 0.6229,4.98304 -1.2458,6.22881 -2.4915,1.86864 -9.9661,0.62288 -13.0804,0.62288 l -36.12711,0 c -3.1144,0 -13.0805,1.86864 -14.32625,-1.86865 -1.24576,-4.98304 3.1144,-10.58897 5.60592,-14.32625 6.2288,-8.72032 16.1949,-15.57201 16.1949,-27.40674 -4.98305,4.36016 -11.83473,6.2288 -17.44066,10.58897 -3.73729,3.1144 -6.85169,9.3432 -10.58897,11.83473 -2.49152,1.24576 -4.98304,0 -6.22881,-2.49153 z m 10.58897,-59.79653 c 0,2.49152 1.24577,6.2288 0.62289,8.09745 -0.62289,3.1144 -4.36017,4.98304 -5.60594,8.09744 -1.86863,3.73728 -1.86863,8.72033 -3.73727,12.45762 -2.49153,5.60592 -6.85169,9.96608 -9.34321,15.57201 -1.24577,4.36016 -2.49152,14.32626 5.60593,13.08049 3.1144,-1.24576 4.36015,-4.36016 6.85168,-6.2288 l -1.86864,8.72032 c 4.98304,-2.49152 8.09745,-8.72032 12.45761,-11.83472 4.98304,-4.36017 12.45761,-5.60593 16.81777,-10.58897 1.24577,-1.86865 3.73729,-12.45762 4.98305,-11.83474 3.1144,0.62289 -0.62288,10.58897 -0.62288,12.45761 1.24576,18.06354 -17.44065,25.53811 -21.17794,42.35589 l 55.43636,0 c 0,-28.02964 -4.3602,-67.27111 -36.74994,-73.49991 l -0.62288,3.73728 -5.60593,-11.83473 c -1.24576,2.49151 -3.1144,10.58896 -6.22881,8.72033 l -7.47456,3.73728 2.49152,-6.22881 z m -16.19489,50.45333 c -1.86864,-2.49152 2.49152,-7.47457 4.36016,-4.36017 1.24576,2.49152 -2.49152,6.85169 -4.36016,4.36017 z m 13.70337,-24.29234 c -1.24576,-4.98305 4.36017,-12.45762 9.34321,-8.72034 l -3.1144,0.62289 c 0.62288,3.73728 -1.24577,5.60592 -4.98305,4.98305 l -0.62287,3.1144 -0.62289,0 z"
         style="stroke-width:1px" />
    </g>
  </g>
</svg>
