<?xml version="1.0" encoding="UTF-8" standalone="no"?>
<!-- Created with Inkscape (http://www.inkscape.org/) -->

<svg
   xmlns:dc="http://purl.org/dc/elements/1.1/"
   xmlns:cc="http://creativecommons.org/ns#"
   xmlns:rdf="http://www.w3.org/1999/02/22-rdf-syntax-ns#"
   xmlns:svg="http://www.w3.org/2000/svg"
   xmlns="http://www.w3.org/2000/svg"
   xmlns:sodipodi="http://sodipodi.sourceforge.net/DTD/sodipodi-0.dtd"
   xmlns:inkscape="http://www.inkscape.org/namespaces/inkscape"
   version="1.0"
   width="100"
   height="100"
   id="svg2833"
   inkscape:version="0.48.3.1 r9886"
   sodipodi:docname="BlackBishop.svg">
  <sodipodi:namedview
     pagecolor="#ffffff"
     bordercolor="#666666"
     borderopacity="1"
     objecttolerance="10"
     gridtolerance="10"
     guidetolerance="10"
     inkscape:pageopacity="0"
     inkscape:pageshadow="2"
     inkscape:window-width="1108"
     inkscape:window-height="918"
     id="namedview3021"
     showgrid="false"
     inkscape:zoom="4.5760857"
     inkscape:cx="53.840011"
     inkscape:cy="38.010713"
     inkscape:window-x="0"
     inkscape:window-y="27"
     inkscape:window-maximized="0"
     inkscape:current-layer="svg2833" />
  <defs
     id="defs2835" />
  <metadata
     id="metadata2838">
    <rdf:RDF>
      <cc:Work
         rdf:about="">
        <dc:format>image/svg+xml</dc:format>
        <dc:type
           rdf:resource="http://purl.org/dc/dcmitype/StillImage" />
        <dc:title />
      </cc:Work>
    </rdf:RDF>
  </metadata>
  <g
     id="g3395">
    <path
       inkscape:connector-curvature="0"
       id="path3384"
       d="M 48.875,4.0625 C 42.979107,4.7160167 40.56671,13.172145 45.375,16.75 33.705185,21.811304 22.81229,34.352877 26.5,47.875 c 0.755433,4.545189 3.611056,8.479786 7.34375,11.125 -2.697277,3.531117 -6.002981,8.565368 -4.59375,13.0625 3.892868,3.917454 11.023151,3.230995 15.34375,4.1875 -8.015711,6.107162 -18.754663,0.401995 -27.875,3.1875 -3.562942,0.634239 -7.2781567,1.637622 -9.78125,4.46875 3.232034,2.229759 5.577421,9.739688 9.625,6.125 8.67458,-2.542111 19.004522,1.588506 27.53125,-1.90625 3.032615,-0.926108 5.598214,-5.801025 8.3125,-2.25 7.716873,6.488418 18.49603,2.301877 27.59375,3.46875 3.591714,-0.791393 6.539997,4.473829 8.627071,-0.479448 3.604175,-2.7884 5.776084,-6.139951 0.497929,-7.520552 -8.497249,-3.772598 -17.783532,-2.309053 -26.75,-2.15625 -2.370914,-0.05949 -6.051315,-2.040364 -6.5,-3.125 5.061844,-0.886603 12.637747,0.04255 15.375,-5.1875 -0.124759,-4.239386 -2.015198,-8.51999 -4.6875,-11.8125 8.233873,-4.950921 9.117584,-16.835566 6,-25.03125 -3.346393,-7.797885 -10.337734,-14.121599 -17.6875,-17.5 5.282924,-4.584357 0.911225,-13.6942159 -6,-12.46875 z"
       style="color:#000000;fill:#ffffff;fill-opacity:1;fill-rule:nonzero;stroke:#ffffff;stroke-width:2;stroke-linecap:butt;stroke-linejoin:miter;stroke-miterlimit:4;stroke-opacity:1;stroke-dasharray:none;marker:none;visibility:visible;display:inline;overflow:visible;enable-background:accumulate" />
    <path
       inkscape:connector-curvature="0"
       style="color:#000000;fill:#000000;fill-opacity:1;fill-rule:nonzero;stroke:#000000;stroke-width:2.00000024;stroke-linecap:butt;stroke-linejoin:miter;stroke-miterlimit:4;stroke-opacity:1;stroke-dasharray:none;marker:none;visibility:visible;display:inline;overflow:visible;enable-background:accumulate"
       id="path457"
       d="m 55.21546,11.229857 a 5.2154485,5.2270692 0 0 1 -10.430897,0 5.2154485,5.2270692 0 1 1 10.430897,0 z" />
    <path
       style="color:#000000;fill:#000000;fill-opacity:1;fill-rule:nonzero;stroke:#000000;stroke-width:2;stroke-linecap:butt;stroke-linejoin:miter;stroke-miterlimit:4;stroke-opacity:1;marker:none;visibility:visible;display:inline;overflow:visible;enable-background:accumulate"
       id="path459"
       inkscape:connector-curvature="0"
       d="M 35.907425,58.203367 C 33.709813,55.600983 27.938004,54.20094 27.834509,41.315188 27.742075,29.80588 42.868715,17.773397 50.193329,17.67821 57.523654,17.583 72.14423,29.820628 72.165806,41.315188 c 0.02622,13.95243 -5.611021,14.852859 -7.714863,16.888179 z" />
    <path
       style="color:#000000;fill:#000000;fill-opacity:1;fill-rule:nonzero;stroke:#000000;stroke-width:2;stroke-linecap:butt;stroke-linejoin:miter;stroke-miterlimit:4;stroke-opacity:1;marker:none;visibility:visible;display:inline;overflow:visible;enable-background:accumulate"
       id="path461"
       inkscape:connector-curvature="0"
       d="m 69.315766,70.339665 c 0,2.158388 -8.648281,3.908094 -19.316459,3.908094 -10.66819,0 -19.316471,-1.749706 -19.316471,-3.908094 0.06829,-1.450802 2.759449,-10.112943 6.706186,-11.445443 6.931028,-2.340042 18.489497,-2.613508 25.675173,0 3.857302,1.402945 6.319871,10.132812 6.251571,11.445443 z" />
    <path
       style="color:#000000;fill:none;stroke:#ffffff;stroke-width:2;stroke-linecap:butt;stroke-linejoin:miter;stroke-miterlimit:4;stroke-opacity:1;marker:none;visibility:visible;display:inline;overflow:visible;enable-background:accumulate"
       id="path463"
       inkscape:connector-curvature="0"
       d="m 35.131354,67.737307 c 3.543362,-0.857773 8.870992,-1.403431 14.828539,-1.403431 6.002673,0 11.365849,0.553958 14.908744,1.422973" />
    <path
       style="color:#000000;fill:#ef2929;fill-opacity:1;fill-rule:nonzero;stroke:#ffffff;stroke-width:2;stroke-linecap:butt;stroke-linejoin:miter;stroke-miterlimit:4;stroke-opacity:1;stroke-dasharray:none;marker:none;visibility:visible;display:inline;overflow:visible;enable-background:accumulate"
       id="path465"
       inkscape:connector-curvature="0"
       d="m 49.999995,30.84251 0,17.019127" />
    <path
       style="color:#000000;fill:#ef2929;fill-opacity:1;fill-rule:nonzero;stroke:#ffffff;stroke-width:2;stroke-linecap:butt;stroke-linejoin:miter;stroke-miterlimit:4;stroke-opacity:1;stroke-dasharray:none;marker:none;visibility:visible;display:inline;overflow:visible;enable-background:accumulate"
       id="path467"
       inkscape:connector-curvature="0"
       d="m 40.9301,40.052016 18.139791,0" />
    <path
       style="color:#000000;fill:#000000;fill-opacity:1;fill-rule:nonzero;stroke:#000000;stroke-width:2;stroke-linecap:butt;stroke-linejoin:miter;stroke-miterlimit:4;stroke-opacity:1;stroke-dasharray:none;marker:none;visibility:visible;display:inline;overflow:visible;enable-background:accumulate"
       id="path469"
       inkscape:connector-curvature="0"
       d="m 9.7679649,84.066302 4.5239711,4.933705 c 2.082446,-1.380292 4.155818,-1.648242 6.836257,-1.648242 l 18.646284,0 c 3.294244,0 7.957334,-4.086424 10.338673,-5.67977 2.349142,1.682334 6.958135,5.67977 10.338673,5.67977 l 19.545817,0 c 2.265965,0 3.637121,0.21467 5.800123,1.648242 L 90.232026,84.16401 C 87.999867,82.458628 79.024912,80.473962 75.08046,80.634393 71.136008,80.794824 63.39618,81.896777 59.919196,80.772564 56.442212,79.648351 53.249061,77.010455 51.83357,75.578552 l -3.610572,0.09771 c -1.763613,1.563783 -4.048493,4.144826 -8.518834,5.096303 -4.470341,0.951476 -10.447841,-0.113862 -14.34174,-0.138171 -3.893912,-0.02443 -12.98049,0.959632 -15.5944591,3.431909 z" />
    <path
       style="color:#000000;fill:none;stroke:#ffffff;stroke-width:2;stroke-linecap:butt;stroke-linejoin:miter;stroke-miterlimit:4;stroke-opacity:1;marker:none;visibility:visible;display:inline;overflow:visible;enable-background:accumulate"
       id="path491"
       inkscape:connector-curvature="0"
       d="m 37.811507,58.504451 c 3.543376,-0.857773 6.021822,-1.403431 11.979356,-1.403431 6.002673,0 8.854713,0.456249 12.397621,1.325264" />
  </g>
</svg>
