<?xml version="1.0" encoding="UTF-8" standalone="no"?>
<!-- Created with Inkscape (http://www.inkscape.org/) -->

<svg
   xmlns:dc="http://purl.org/dc/elements/1.1/"
   xmlns:cc="http://creativecommons.org/ns#"
   xmlns:rdf="http://www.w3.org/1999/02/22-rdf-syntax-ns#"
   xmlns:svg="http://www.w3.org/2000/svg"
   xmlns="http://www.w3.org/2000/svg"
   xmlns:sodipodi="http://sodipodi.sourceforge.net/DTD/sodipodi-0.dtd"
   xmlns:inkscape="http://www.inkscape.org/namespaces/inkscape"
   version="1.0"
   width="100"
   height="100"
   id="svg2833"
   inkscape:version="0.48.3.1 r9886"
   sodipodi:docname="BlackChancellor.svg">
  <sodipodi:namedview
     pagecolor="#ffffff"
     bordercolor="#666666"
     borderopacity="1"
     objecttolerance="10"
     gridtolerance="10"
     guidetolerance="10"
     inkscape:pageopacity="0"
     inkscape:pageshadow="2"
     inkscape:window-width="1045"
     inkscape:window-height="865"
     id="namedview3047"
     showgrid="false"
     inkscape:zoom="5.9829687"
     inkscape:cx="50.362481"
     inkscape:cy="50.035942"
     inkscape:window-x="0"
     inkscape:window-y="27"
     inkscape:window-maximized="0"
     inkscape:current-layer="svg2833" />
  <defs
     id="defs2835" />
  <metadata
     id="metadata2838">
    <rdf:RDF>
      <cc:Work
         rdf:about="">
        <dc:format>image/svg+xml</dc:format>
        <dc:type
           rdf:resource="http://purl.org/dc/dcmitype/StillImage" />
        <dc:title />
      </cc:Work>
    </rdf:RDF>
  </metadata>
  <g
     id="g3324">
    <path
       id="path3321"
       d="M 55.90625 8.3125 C 55.384423 8.2653053 54.895418 8.4546769 54.4375 8.9375 C 51.620179 11.08331 52.130032 16.185253 47.75 15.34375 C 36.059771 17.167289 27.681118 26.921305 24.3125 37.8125 C 20.434043 48.582017 18.950849 60.090894 18.84375 71.53125 L 12.65625 76.21875 L 12.65625 89.6875 L 28 89.6875 L 28 84 L 37.90625 84 L 37.90625 89.6875 L 51.03125 89.6875 L 51.03125 84 L 60.6875 84 L 60.6875 89.6875 L 76.15625 89.6875 L 76.15625 76.21875 L 70.09375 71.625 C 70.475987 60.199701 58.574008 53.782384 54.65625 44.03125 C 61.587177 46.05736 66.719267 50.748798 71.03125 56.375 C 74.331166 58.847779 77.466365 54.946292 80.875 56 C 88.445896 55.801512 89.776319 45.871177 85.59375 40.96875 C 82.184737 36.411523 78.723644 31.817566 78.3125 25.9375 C 77.287151 21.578534 70.990991 20.059601 72.8125 14.96875 C 72.986041 12.287379 77.954054 9.4775619 72.53125 9.90625 C 68.424466 9.1111929 64.541304 12.586368 62.03125 14.8125 C 60.829137 12.934526 58.167501 8.5170104 55.90625 8.3125 z "
       style="color:#000000;fill:#ffffff;fill-opacity:1;stroke:#ffffff;stroke-width:2;stroke-opacity:1;marker:none;visibility:visible;display:inline;overflow:visible;enable-background:accumulate" />
    <path
       d="m 56.170484,11.624692 c 1.365816,1.809585 3.319751,3.605977 3.609338,5.855207 0.748317,0.569935 1.819158,0.03096 2.696634,0.194637 0.886989,-0.02142 1.910602,-0.311126 2.115151,-1.148482 0.816209,-1.119634 1.934426,-2.146402 3.358442,-2.629192 0.493831,-0.534391 1.3157,-0.688931 2.034354,-0.903042 0.595607,1.121788 -0.295803,2.288522 -0.0756,3.448826 -0.09471,1.526876 0.108202,3.122777 0.712649,4.535805 2.021481,1.631313 3.973862,3.456707 4.875404,5.79404 1.107471,2.17006 0.805021,4.681392 1.9367,6.847726 1.323176,3.695985 4.550563,6.513456 6.337024,10.008705 1.272969,2.155525 1.940032,4.808218 0.782432,7.117875 -0.54239,1.037644 -1.585266,1.884596 -2.790953,2.299584 -1.602506,0.478182 -3.35263,0.233173 -4.919905,-0.202196 -0.717291,0.03494 -0.952167,0.620507 -1.246862,1.048693 -0.795631,0.860837 -2.71902,0.670055 -3.215591,-0.262173 -1.139953,-1.026676 -1.840001,-2.247042 -2.931749,-3.283039 -1.706316,-1.793755 -3.480976,-3.558753 -5.533789,-5.048251 -1.062368,-0.572214 -2.321715,-1.215791 -3.530147,-1.698104 -3.1328,-1.310961 -6.094914,-2.962509 -8.971285,-4.652319 -0.312603,0.106128 0.02362,0.741096 -0.06562,1.048693 -0.0253,2.999371 0.79731,6.065586 2.550949,8.64249 0.959984,1.373826 2.025513,2.538257 3.286896,3.729094 2.001752,1.94319 3.762636,4.076443 5.575852,6.173147 1.900365,2.37169 3.644397,4.956026 4.270516,7.847397 -0.05407,0.513651 0.468652,1.345199 -0.294365,1.5494 -0.818057,0.27648 -1.727379,-0.05195 -2.579981,0.08104 -14.16828,-0.05405 -28.336843,-0.03207 -42.504871,0.05912 0.209242,-7.498051 0.864204,-15.035795 2.851907,-22.34316 0.99854,-3.948323 2.247701,-7.864529 4.131077,-11.559029 1.611618,-3.325623 3.726905,-6.456838 6.296312,-9.275401 1.898738,-2.029011 4.521799,-3.373846 7.064243,-4.71276 3.100943,-1.512222 6.594057,-2.552277 10.171769,-2.476083 0.863364,0.02098 1.548041,-0.687097 1.467003,-1.430897 0.399374,-1.728928 1.207215,-3.383898 2.437644,-4.773875 l 0.063,0.07457 0.03538,0.04195 z"
       inkscape:connector-curvature="0"
       id="path4298"
       style="opacity:0.98999999000000005;fill:#ffffff;fill-opacity:1;stroke:#000000;stroke-width:0.74352377999999997px;stroke-opacity:1" />
    <path
       d="m 63.19131,16.958538 -2.681683,0.05546 c 0.118712,-2.529376 -4.667779,-6.667984 -4.667779,-6.667984 0,0 -2.762626,2.752357 -3.208998,6.634145 -6.23494,-0.221388 -11.590598,2.702389 -13.650446,3.8288 -13.049978,7.136288 -18.158133,32.5806 -18.13139,50.310862 L 67.998433,70.988387 C 68.216085,58.801745 51.657778,51.900266 52.142569,40.326133 c 4.184059,2.889113 8.848268,3.67548 12.542245,6.43678 2.933155,2.192571 4.444489,4.76073 7.369023,7.841888 1.078119,1.135853 3.956601,0.632344 4.886387,-1.018581 4.648958,1.238195 9.116141,0.01657 9.011087,-5.874791 -0.093,-5.215452 -6.000817,-9.928774 -8.031887,-14.823295 -0.875581,-2.109997 -0.753132,-5.371172 -2.136468,-7.718833 -1.074125,-1.822897 -3.491685,-3.934191 -4.599549,-4.627768 -0.860477,-2.599441 -0.671762,-7.00272 0.752769,-8.688971 -2.077446,-0.526953 -6.845488,2.049646 -8.744866,5.105976 z m -10.825556,2.010962 0,2.569471 c -4.017248,-0.0032 -9.225792,1.891593 -12.953936,4.920503 -7.453326,6.055411 -10.795053,20.983439 -12.29322,34.571401 -0.421843,3.176303 -0.820052,5.770052 -4.145304,5.990265 -0.158097,-10.881767 3.820952,-33.369704 11.958158,-40.894785 5.17631,-4.786916 10.945937,-6.911461 17.434302,-7.156855 z m 24.406354,32.333452 -1.39469,0.412729 -1.394688,-4.127309 0.464904,0 z m 3.925798,-2.115204 c -2.744186,-0.114639 -4.008704,-5.347016 -1.220366,-5.27955 3.079949,0.07453 3.588265,5.37847 1.220366,5.27955 z m -29.407918,-10.645054 -0.929786,0 c -1.427009,-0.409874 -1.940307,-4.018389 -1.39469,-4.540045 0.810318,0.192018 1.317179,2.88912 2.324476,4.540045 z m 19.73548,-6.832986 -0.929787,-2.063655 c -2.78938,0.41273 -4.184059,-0.825459 -3.719166,-3.301849 l -2.324477,-0.412729 0,-0.41273 c 4.18406,-0.825466 7.903226,2.476383 6.97343,6.190963 z M 67.474184,21.58631 c -0.929786,0 -4.105142,-0.105391 -5.034929,-0.518119 -8.833033,-2.476385 4.105143,-4.021919 5.034929,0.518119 z"
       inkscape:connector-curvature="0"
       id="BlackKnight"
       style="opacity:0.98999999;fill:#000000;fill-opacity:1;stroke:#000000;stroke-width:0.74352378px;stroke-opacity:1" />
    <path
       style="color:#000000;fill:#000000;fill-opacity:1;stroke:#000000;stroke-width:2;stroke-opacity:1;marker:none;visibility:visible;display:inline;overflow:visible;enable-background:accumulate"
       id="path1432"
       inkscape:connector-curvature="0"
       d="m 14.675115,89 0,-12.550404 8.147786,-6.157552 43.229704,0.03915 8.105565,6.118322 0,12.550413 -12.158352,0 0,-6.235991 -12.158352,0 0,6.235991 -10.891855,0 0,-6.235991 -12.116142,0 0,6.235991 z" />
    <rect
       style="color:#000000;fill:#ffffcc;fill-opacity:0.99215686000000003;stroke:#ffffff;stroke-width:1;stroke-linecap:square;stroke-linejoin:miter;stroke-opacity:0.99215896000000003;marker:none;visibility:visible;display:inline;overflow:visible;enable-background:accumulate"
       id="rect1436"
       transform="scale(1,-1)"
       y="-77.092621"
       x="17.969149"
       height="1.2527926"
       width="52.707691" />
    <rect
       style="color:#000000;fill:#ffffcc;fill-opacity:0.99215686000000003;stroke:#ffffff;stroke-width:0.99999994000000003;stroke-linecap:square;stroke-linejoin:miter;stroke-opacity:0.99215896000000003;marker:none;visibility:visible;display:inline;overflow:visible;enable-background:accumulate"
       id="rect1438"
       transform="scale(1,-1)"
       y="-70.807121"
       x="24.742502"
       height="1.2527926"
       width="39.160954" />
  </g>
</svg>
