<?xml version="1.0" encoding="UTF-8" standalone="no"?>
<!-- Created with Inkscape (http://www.inkscape.org/) -->

<svg
   xmlns:dc="http://purl.org/dc/elements/1.1/"
   xmlns:cc="http://creativecommons.org/ns#"
   xmlns:rdf="http://www.w3.org/1999/02/22-rdf-syntax-ns#"
   xmlns:svg="http://www.w3.org/2000/svg"
   xmlns="http://www.w3.org/2000/svg"
   xmlns:sodipodi="http://sodipodi.sourceforge.net/DTD/sodipodi-0.dtd"
   xmlns:inkscape="http://www.inkscape.org/namespaces/inkscape"
   version="1.0"
   width="100"
   height="100"
   id="svg2833"
   inkscape:version="0.48.3.1 r9886"
   sodipodi:docname="BlackCobra.svg">
  <sodipodi:namedview
     pagecolor="#ffffff"
     bordercolor="#666666"
     borderopacity="1"
     objecttolerance="10"
     gridtolerance="10"
     guidetolerance="10"
     inkscape:pageopacity="0"
     inkscape:pageshadow="2"
     inkscape:window-width="1118"
     inkscape:window-height="1001"
     id="namedview3062"
     showgrid="false"
     inkscape:zoom="3.6183594"
     inkscape:cx="73.979343"
     inkscape:cy="38.430673"
     inkscape:window-x="0"
     inkscape:window-y="27"
     inkscape:window-maximized="0"
     inkscape:current-layer="svg2833" />
  <defs
     id="defs2835" />
  <metadata
     id="metadata2838">
    <rdf:RDF>
      <cc:Work
         rdf:about="">
        <dc:format>image/svg+xml</dc:format>
        <dc:type
           rdf:resource="http://purl.org/dc/dcmitype/StillImage" />
        <dc:title />
      </cc:Work>
    </rdf:RDF>
  </metadata>
  <g
     id="g3299">
    <path
       id="path3278"
       d="M 49.875 12.78125 C 36.208947 14.040304 21.158011 18.002392 12.5625 29.25 C 6.8974305 40.549136 8.2069615 55.093518 14.71875 65.71875 C 21.644733 72.215634 24.451299 81.634671 23.375 91 L 44.625 91 C 44.60774 80.140818 41.493897 69.034962 45.875 58.59375 C 47.964807 52.504483 51.13671 46.50081 54.9375 41.53125 C 60.83233 46.375445 70.466106 50.009761 77.28125 45.25 L 81.625 48.96875 C 81.626 49.155774 81.68087 49.342196 81.78125 49.5 L 84.375 53.6875 C 84.630758 54.173992 85.31614 54.355347 85.78125 54.0625 C 86.24636 53.769653 86.39066 53.065906 86.0625 52.625 L 84.3125 49.78125 L 88.9375 49.65625 C 89.461195 49.64003 89.922615 49.148691 89.90625 48.625 C 89.889885 48.10131 89.398686 47.639741 88.875 47.65625 L 83.53125 47.09375 L 78.875 43.8125 C 82.834217 37.696604 76.282515 30.735922 71.40625 27.46875 C 69.344451 25.588242 66.045867 24.783743 63.875 24.1875 C 62.664721 18.36938 55.90774 12.612175 49.875 12.78125 z "
       style="font-size:medium;font-style:normal;font-variant:normal;font-weight:normal;font-stretch:normal;text-indent:0;text-align:start;text-decoration:none;line-height:normal;letter-spacing:normal;word-spacing:normal;text-transform:none;direction:ltr;block-progression:tb;writing-mode:lr-tb;text-anchor:start;baseline-shift:baseline;color:#000000;fill:#ffffff;fill-opacity:1;fill-rule:nonzero;stroke:#ffffff;stroke-width:1.99999988000000006;marker:none;visibility:visible;display:inline;overflow:visible;enable-background:accumulate;font-family:Sans;-inkscape-font-specification:Sans" />
  </g>
  <path
     d="m 25.432525,89.000002 17.196905,0 C 42.730933,82.977666 40.876772,75.214575 41.485844,69.424179 43.542318,49.87355 55.35777,38.154068 61.433513,28.73047 56.451233,21.980293 17.075156,27.123291 17.075156,27.123291 c -8.5180868,6.268023 -7.5409216,30.01686 0.321436,38.733205 4.986701,5.528358 8.396845,10.916664 8.035933,23.143506 z"
     inkscape:connector-curvature="0"
     id="path776"
     style="color:#000000;fill:#000000;fill-opacity:1;fill-rule:nonzero;stroke:#000000;stroke-width:1.99999988;stroke-linecap:round;stroke-linejoin:miter;stroke-miterlimit:4;stroke-opacity:1;stroke-dasharray:none;marker:none;visibility:visible;display:inline;overflow:visible;enable-background:accumulate" />
  <path
     d="m 51.147517,14.747949 c -12.857496,0.321436 -29.090094,6.428754 -32.947336,11.73247 14.786124,-0.321435 19.699942,4.547543 29.090093,8.196651 7.436449,2.889875 13.40428,10.435793 21.375583,10.768151 5.253828,0.219056 9.646984,-1.820074 9.482407,-5.464434 C 77.924159,35.018218 72.39172,29.980922 67.540832,27.444727 65.537829,26.39749 64.326448,26.319702 60.790642,26.801855 65.290768,23.3675 55.004772,14.746994 51.147517,14.747949 z"
     inkscape:connector-curvature="0"
     id="path778"
     style="color:#000000;fill:#000000;fill-opacity:1;fill-rule:nonzero;stroke:#000000;stroke-width:1.99999988;stroke-linecap:round;stroke-linejoin:miter;stroke-miterlimit:4;stroke-opacity:1;stroke-dasharray:none;marker:none;visibility:visible;display:inline;overflow:visible;enable-background:accumulate" />
  <path
     d="m 64.64788,36.605695 a 1.6071872,1.2857497 0 1 1 -3.214371,0 1.6071872,1.2857497 0 1 1 3.214371,0 z"
     id="path780"
     style="color:#000000;fill:#000000;fill-opacity:1;fill-rule:nonzero;stroke:#ffffff;stroke-width:0.99999994000000003;stroke-linecap:round;stroke-linejoin:miter;stroke-miterlimit:4;stroke-opacity:1;stroke-dasharray:none;marker:none;visibility:visible;display:inline;overflow:visible;enable-background:accumulate"
     inkscape:connector-curvature="0" />
  <path
     d="m 72.68382,33.552035 a 1.6071872,1.2857497 0 1 1 -3.214371,0 1.6071872,1.2857497 0 1 1 3.214371,0 z"
     id="path782"
     style="color:#000000;fill:#000000;fill-opacity:1;fill-rule:nonzero;stroke:#ffffff;stroke-width:0.99999994000000003;stroke-linecap:round;stroke-linejoin:miter;stroke-miterlimit:4;stroke-opacity:1;stroke-dasharray:none;marker:none;visibility:visible;display:inline;overflow:visible;enable-background:accumulate"
     inkscape:connector-curvature="0" />
  <path
     d="m 77.183944,43.838042 5.785883,4.98228 5.946587,-0.160718"
     inkscape:connector-curvature="0"
     id="path784"
     style="color:#000000;fill:#000000;fill-opacity:1;fill-rule:nonzero;stroke:#000000;stroke-width:1.99999988;stroke-linecap:round;stroke-linejoin:miter;stroke-miterlimit:4;stroke-opacity:1;stroke-dasharray:none;marker:none;visibility:visible;display:inline;overflow:visible;enable-background:accumulate" />
  <path
     d="m 82.648391,48.98104 2.571499,4.178691"
     inkscape:connector-curvature="0"
     id="path786"
     style="color:#000000;fill:#000000;fill-opacity:1;fill-rule:nonzero;stroke:#000000;stroke-width:1.99999988;stroke-linecap:round;stroke-linejoin:miter;stroke-miterlimit:4;stroke-opacity:1;stroke-dasharray:none;marker:none;visibility:visible;display:inline;overflow:visible;enable-background:accumulate" />
  <path
     d="m 18.200181,26.480419 c 14.786124,-0.321435 25.950437,5.22942 32.499452,11.208251"
     inkscape:connector-curvature="0"
     id="path794"
     style="color:#000000;fill:none;stroke:#ffffff;stroke-width:1.99999988000000006;stroke-linecap:round;stroke-linejoin:miter;stroke-miterlimit:4;stroke-opacity:1;stroke-dasharray:none;marker:none;visibility:visible;display:inline;overflow:visible;enable-background:accumulate" />
  <path
     d="m 58.701296,24.632144 3.134031,1.3e-5 c -0.241083,0.80359 0.803577,1.875836 0.803577,1.875836 z"
     inkscape:connector-curvature="0"
     id="path796"
     style="color:#000000;fill:none;stroke:#ffffff;stroke-width:0.99999994000000003;stroke-linecap:round;stroke-linejoin:miter;stroke-miterlimit:4;stroke-opacity:1;stroke-dasharray:none;marker:none;visibility:visible;display:inline;overflow:visible;enable-background:accumulate" />
</svg>
