<?xml version="1.0" encoding="UTF-8" standalone="no"?>
<!-- Created with Inkscape (http://www.inkscape.org/) -->

<svg
   xmlns:dc="http://purl.org/dc/elements/1.1/"
   xmlns:cc="http://creativecommons.org/ns#"
   xmlns:rdf="http://www.w3.org/1999/02/22-rdf-syntax-ns#"
   xmlns:svg="http://www.w3.org/2000/svg"
   xmlns="http://www.w3.org/2000/svg"
   xmlns:sodipodi="http://sodipodi.sourceforge.net/DTD/sodipodi-0.dtd"
   xmlns:inkscape="http://www.inkscape.org/namespaces/inkscape"
   version="1.0"
   width="100"
   height="100"
   id="svg2833"
   inkscape:version="0.48.3.1 r9886"
   sodipodi:docname="BlackHawk.svg">
  <sodipodi:namedview
     pagecolor="#ffffff"
     bordercolor="#666666"
     borderopacity="1"
     objecttolerance="10"
     gridtolerance="10"
     guidetolerance="10"
     inkscape:pageopacity="0"
     inkscape:pageshadow="2"
     inkscape:window-width="910"
     inkscape:window-height="775"
     id="namedview3053"
     showgrid="false"
     inkscape:zoom="5.1532812"
     inkscape:cx="50"
     inkscape:cy="50"
     inkscape:window-x="0"
     inkscape:window-y="27"
     inkscape:window-maximized="0"
     inkscape:current-layer="svg2833" />
  <defs
     id="defs2835" />
  <metadata
     id="metadata2838">
    <rdf:RDF>
      <cc:Work
         rdf:about="">
        <dc:format>image/svg+xml</dc:format>
        <dc:type
           rdf:resource="http://purl.org/dc/dcmitype/StillImage" />
        <dc:title />
      </cc:Work>
    </rdf:RDF>
  </metadata>
  <g
     id="g3376">
    <path
       inkscape:connector-curvature="0"
       id="path3368"
       d="M 45.625,8.875 C 32.718011,8.8691403 22.835019,19.682832 20,31.5625 16.296898,44.543145 15.743011,58.597725 16.75,72.03125 6.9868412,72.290887 6.5816302,89.255895 15.8125,91 40.802083,91 65.791667,91 90.78125,91 91.790369,85.487614 90.382844,80.096773 86.25,76.28125 79.275953,68.559698 72.084576,60.475213 63.25,55.0625 60.50604,51.224964 68.714879,46.258708 62.904288,43.769638 59.976782,40.851061 70.935414,38.973267 72.994929,35.171843 75.755989,33.050307 80.678925,31.214643 77.65625,27.375 72.021593,15.172922 59.050744,7.7920199 45.625,8.875 z"
       style="color:#000000;fill:#ffffff;fill-opacity:1;fill-rule:nonzero;stroke:#ffffff;stroke-width:2;stroke-linecap:round;stroke-linejoin:miter;stroke-miterlimit:4;stroke-opacity:1;stroke-dasharray:none;marker:none;visibility:visible;display:inline;overflow:visible;enable-background:accumulate" />
    <path
       style="color:#000000;fill:#000000;fill-opacity:1;fill-rule:nonzero;stroke:#000000;stroke-width:2;stroke-linecap:round;stroke-linejoin:miter;stroke-miterlimit:4;stroke-opacity:1;stroke-dasharray:none;marker:none;visibility:visible;display:inline;overflow:visible;enable-background:accumulate"
       id="path510"
       inkscape:connector-curvature="0"
       d="M 47.813511,10.813383 C 25.431684,10.69203 17.930459,31.272561 18.320941,65.778108 c 0.03778,3.344402 0.40666,6.511943 0.921643,9.410485 -0.817253,-0.700387 -1.766535,-1.171207 -2.896592,-1.170458 -2.767232,0.0015 -5.144347,3.181429 -5.178755,7.210023 -0.0566,6.638106 4.652102,7.771844 4.652102,7.771844 l 7.460918,0 0.526653,0 64.997762,0 c 0,0 0.06432,-2.600777 0,-4.869107 -0.192769,-4.531251 -20.408409,-23.477544 -22.207203,-24.532807 -1.4879,-0.872889 -5.928006,-2.539636 -5.968734,-5.89911 -0.03048,-2.518212 2.411017,-7.116387 2.413826,-7.116387 l -5.617632,-5.150017 7.109816,-2.575008 12.069132,-8.801847 c 0,0 -6.415603,-19.120982 -28.790366,-19.242336 z" />
    <path
       style="color:#000000;fill:none;stroke:#ffffff;stroke-width:2;stroke-linecap:round;stroke-linejoin:miter;stroke-miterlimit:4;stroke-opacity:1;stroke-dasharray:none;marker:none;visibility:visible;display:inline;overflow:visible;enable-background:accumulate"
       id="path512"
       inkscape:connector-curvature="0"
       d="M 22.660534,87.49332 C 21.790096,85.251569 20.196317,80.668675 19.205451,74.942112" />
    <path
       style="color:#000000;fill:#000000;fill-opacity:1;fill-rule:nonzero;stroke:#ffffff;stroke-width:1.50000011999999994;stroke-linecap:round;stroke-linejoin:miter;stroke-miterlimit:4;stroke-opacity:1;stroke-dasharray:none;marker:none;visibility:visible;display:inline;overflow:visible;enable-background:accumulate"
       id="path514"
       inkscape:connector-curvature="0"
       d="m 57.510443,41.437473 4.600364,-1.917035 c 7.644277,-0.302019 20.329902,2.811528 20.329902,2.811528 -2.784028,0.906073 -11.277298,3.930522 -20.573118,3.22579 z" />
    <path
       style="color:#000000;fill:#000000;fill-opacity:1;fill-rule:nonzero;stroke:#ffffff;stroke-width:1.50000011999999994;stroke-linecap:round;stroke-linejoin:miter;stroke-miterlimit:4;stroke-opacity:1;stroke-dasharray:none;marker:none;visibility:visible;display:inline;overflow:visible;enable-background:accumulate"
       id="path516"
       inkscape:connector-curvature="0"
       d="M 75.528185,30.403268 C 83.442783,31.529275 88.560502,32.100234 86.6725,49.552956 86.438933,37.48653 58.678251,40.796774 58.678251,40.796774 z" />
    <path
       style="color:#000000;fill:#ffffff;fill-opacity:1;fill-rule:nonzero;stroke:#ffffff;stroke-width:2;stroke-linecap:round;stroke-linejoin:miter;stroke-miterlimit:4;stroke-opacity:1;stroke-dasharray:none;marker:none;visibility:visible;display:inline;overflow:visible;enable-background:accumulate"
       id="path518"
       inkscape:connector-curvature="0"
       d="m 46.899986,59.804089 4.671272,-1.850905" />
    <path
       style="color:#000000;fill:#ffffff;fill-opacity:1;fill-rule:nonzero;stroke:#ffffff;stroke-width:2;stroke-linecap:round;stroke-linejoin:miter;stroke-miterlimit:4;stroke-opacity:1;stroke-dasharray:none;marker:none;visibility:visible;display:inline;overflow:visible;enable-background:accumulate"
       id="path520"
       inkscape:connector-curvature="0"
       d="m 55.462535,57.156778 2.928964,-1.124599" />
    <path
       style="color:#000000;fill:none;stroke:#ffffff;stroke-width:1;stroke-linecap:round;stroke-linejoin:miter;stroke-miterlimit:4;stroke-opacity:1;stroke-dasharray:none;marker:none;visibility:visible;display:inline;overflow:visible;enable-background:accumulate"
       id="path522"
       inkscape:connector-curvature="0"
       d="m 59.044591,27.560054 c 0,-2.022881 -2.305561,-5.259219 -7.443728,-5.242769 -4.883563,0.01558 -8.959239,5.975143 -13.550727,6.021527 4.583005,-0.0075 8.459705,4.323887 13.409864,4.471907 4.725988,0.141279 7.584591,-3.344297 7.584591,-5.250665 z" />
    <path
       inkscape:connector-curvature="0"
       style="color:#000000;fill:#ffffff;fill-opacity:1;fill-rule:nonzero;stroke:#ffffff;stroke-width:1;stroke-linecap:round;stroke-linejoin:miter;stroke-miterlimit:4;stroke-opacity:1;stroke-dasharray:none;marker:none;visibility:visible;display:inline;overflow:visible;enable-background:accumulate"
       id="path524"
       d="m 54.341634,27.575842 a 2.2689013,2.420406 0 1 1 -4.537802,0 2.2689013,2.420406 0 1 1 4.537802,0 z" />
    <path
       inkscape:connector-curvature="0"
       style="color:#000000;fill:#ffffff;fill-opacity:1;fill-rule:nonzero;stroke:#ffffff;stroke-width:0.75000005999999986;stroke-linecap:round;stroke-linejoin:miter;stroke-miterlimit:4;stroke-opacity:1;stroke-dasharray:none;marker:none;visibility:visible;display:inline;overflow:visible;enable-background:accumulate"
       id="path526"
       d="m 72.124143,28.379753 a 2.0019718,2.1356524 0 1 1 -4.003943,0 2.0019718,2.1356524 0 1 1 4.003943,0 z" />
    <path
       style="color:#000000;fill:none;stroke:#ffffff;stroke-width:2;stroke-linecap:round;stroke-linejoin:miter;stroke-miterlimit:4;stroke-opacity:1;stroke-dasharray:none;marker:none;visibility:visible;display:inline;overflow:visible;enable-background:accumulate"
       id="path540"
       inkscape:connector-curvature="0"
       d="m 54.431489,86.615758 c -0.636197,-2.070674 -1.076268,-4.475953 -1.05846,-6.736537 0.03146,-4.001941 3.656489,-13.463425 13.213022,-13.4546 3.270347,0.003 8.665269,5.113565 13.400202,9.184303" />
    <path
       style="color:#000000;fill:none;stroke:#ffffff;stroke-width:1;stroke-linecap:round;stroke-linejoin:miter;stroke-miterlimit:4;stroke-opacity:1;stroke-dasharray:none;marker:none;visibility:visible;display:inline;overflow:visible;enable-background:accumulate"
       id="path546"
       inkscape:connector-curvature="0"
       d="m 61.867591,45.557756 -4.357148,-4.120283 1.461076,-0.74749" />
    <path
       style="color:#000000;fill:none;stroke:#ffffff;stroke-width:1;stroke-linecap:round;stroke-linejoin:miter;stroke-miterlimit:4;stroke-opacity:1;stroke-dasharray:none;marker:none;visibility:visible;display:inline;overflow:visible;enable-background:accumulate"
       id="path548"
       inkscape:connector-curvature="0"
       d="m 77.640513,43.12542 c -8.221124,-3.26359 -18.77351,-2.378985 -18.77351,-2.378985 0,0 12.131235,-5.410057 16.661182,-10.343167" />
    <path
       d="M 75.528185,30.403268 C 83.442783,31.529275 88.560502,32.100234 86.6725,49.552956 86.438933,37.48653 58.678251,40.796774 58.678251,40.796774 z"
       inkscape:connector-curvature="0"
       id="path3372"
       style="color:#000000;fill:#000000;fill-opacity:1;fill-rule:nonzero;stroke:#ffffff;stroke-width:1.50000011999999994;stroke-linecap:round;stroke-linejoin:miter;stroke-miterlimit:4;stroke-opacity:1;stroke-dasharray:none;marker:none;visibility:visible;display:inline;overflow:visible;enable-background:accumulate" />
  </g>
</svg>
