<?xml version="1.0" encoding="UTF-8" standalone="no"?>
<!-- Created with Inkscape (http://www.inkscape.org/) -->

<svg
   xmlns:dc="http://purl.org/dc/elements/1.1/"
   xmlns:cc="http://creativecommons.org/ns#"
   xmlns:rdf="http://www.w3.org/1999/02/22-rdf-syntax-ns#"
   xmlns:svg="http://www.w3.org/2000/svg"
   xmlns="http://www.w3.org/2000/svg"
   xmlns:sodipodi="http://sodipodi.sourceforge.net/DTD/sodipodi-0.dtd"
   xmlns:inkscape="http://www.inkscape.org/namespaces/inkscape"
   version="1.0"
   width="100"
   height="100"
   id="svg2833"
   inkscape:version="0.48.3.1 r9886"
   sodipodi:docname="BlackAdvisor.svg">
  <sodipodi:namedview
     pagecolor="#ffffff"
     bordercolor="#666666"
     borderopacity="1"
     objecttolerance="10"
     gridtolerance="10"
     guidetolerance="10"
     inkscape:pageopacity="0"
     inkscape:pageshadow="2"
     inkscape:window-width="911"
     inkscape:window-height="806"
     id="namedview13"
     showgrid="false"
     inkscape:zoom="5.4390625"
     inkscape:cx="50"
     inkscape:cy="50"
     inkscape:window-x="0"
     inkscape:window-y="27"
     inkscape:window-maximized="0"
     inkscape:current-layer="svg2833" />
  <defs
     id="defs2835" />
  <metadata
     id="metadata2838">
    <rdf:RDF>
      <cc:Work
         rdf:about="">
        <dc:format>image/svg+xml</dc:format>
        <dc:type
           rdf:resource="http://purl.org/dc/dcmitype/StillImage" />
        <dc:title />
      </cc:Work>
    </rdf:RDF>
  </metadata>
  <g
     id="g3479">
    <path
       inkscape:connector-curvature="0"
       id="path3472"
       d="M 49.25,14.21875 C 39.910686,14.358985 35.791714,27.805464 43.5,33.125 c 2.566083,1.597584 -3.210938,3.991114 -4.25,5.5625 -9.274806,7.567372 -20.614857,12.386551 -29.8125,19.9375 -2.680081,5.356719 8.136618,8.225957 3.5,13.40625 -3.2826681,3.78164 -4.8097482,11.107248 1.09375,13.25 15.506569,6.678354 33.102254,5.956117 49.75,5.1875 C 72.586693,89.117261 83.210769,89.209489 90,82.59375 92.948267,77.62292 87.728952,73.035844 86.59375,68.75 87.103289,64.667134 93.971393,60.251517 89.40625,56.34375 78.449739,48.769825 65.216833,43.416387 56.0625,33.46875 63.872476,28.605464 60.801562,15.30051 51.6875,14.3125 50.881959,14.216672 50.060788,14.136267 49.25,14.21875 z"
       style="color:#000000;fill:#ffffff;fill-opacity:1;fill-rule:nonzero;stroke:#ffffff;stroke-width:2;stroke-linecap:round;stroke-linejoin:miter;stroke-miterlimit:4;stroke-opacity:1;marker:none;visibility:visible;display:inline;overflow:visible;enable-background:accumulate" />
    <path
       style="color:#000000;fill:#000000;fill-opacity:1;fill-rule:nonzero;stroke:#000000;stroke-width:2;stroke-linecap:round;stroke-linejoin:miter;stroke-miterlimit:4;stroke-opacity:1;marker:none;visibility:visible;display:inline;overflow:visible;enable-background:accumulate"
       id="path542"
       inkscape:connector-curvature="0"
       d="m 88.805847,80.060807 c 0,4.936981 -17.2091,8.939192 -38.437593,8.939192 -21.228508,0 -38.437607,-4.002211 -38.437607,-8.939192 0.182689,-5.655424 4.512981,-7.426898 4.19981,-11.493279 -0.261262,-3.392111 -6.2997675,-6.658791 -4.930242,-8.939193 1.369511,-2.280402 33.050872,-18.790543 36.520281,-26.817577 l 5.660643,0 c 3.104207,8.209466 34.146445,23.533779 35.424663,25.722973 1.278218,2.189209 -4.116305,6.409485 -4.19981,10.033797 -0.09392,4.077339 4.199855,5.473007 4.199855,11.493279 z" />
    <path
       style="color:#000000;fill:none;stroke:#ffffff;stroke-width:1.99999975999999990;stroke-linecap:round;stroke-linejoin:miter;stroke-miterlimit:4;stroke-opacity:1;marker:none;visibility:visible;display:inline;overflow:visible;enable-background:accumulate"
       id="path544"
       inkscape:connector-curvature="0"
       d="m 22.537552,64.537195 c 5.621662,-2.448595 15.424662,-3.814241 27.830657,-3.814241 13.030571,0 22.591778,1.695662 28.145375,4.351158" />
    <path
       style="color:#000000;fill:none;stroke:#ffffff;stroke-width:2;stroke-linecap:round;stroke-linejoin:miter;stroke-miterlimit:4;stroke-opacity:1;marker:none;visibility:visible;display:inline;overflow:visible;enable-background:accumulate"
       id="path547"
       inkscape:connector-curvature="0"
       d="m 15.680428,77.014168 c 5.140721,-3.436965 18.730997,-5.892554 34.687826,-5.892554 15.249789,0 28.338111,2.242809 33.95524,5.441605" />
    <path
       style="color:#000000;fill:none;stroke:#ffffff;stroke-width:2;stroke-linecap:round;stroke-linejoin:miter;stroke-miterlimit:4;stroke-opacity:1;marker:none;visibility:visible;display:inline;overflow:visible;enable-background:accumulate"
       id="path549"
       inkscape:connector-curvature="0"
       d="m 24.040636,53.513558 c 6.313617,-1.949985 15.776725,-3.189264 26.354264,-3.189264 10.835338,0 20.501228,1.300421 26.810253,3.333107" />
    <path
       inkscape:connector-curvature="0"
       style="color:#000000;fill:#000000;fill-opacity:1;fill-rule:nonzero;stroke:#000000;stroke-width:2;stroke-linecap:round;stroke-linejoin:miter;stroke-miterlimit:4;stroke-opacity:1;stroke-dasharray:none;marker:none;visibility:visible;display:inline;overflow:visible;enable-background:accumulate"
       id="path551"
       d="m 58.585283,24.783738 a 8.5822651,8.5743292 0 0 1 -17.16453,0 8.5822651,8.5743292 0 1 1 17.16453,0 z" />
    <rect
       style="color:#000000;fill:#ffffcc;fill-opacity:1;stroke:#ffffff;stroke-width:2;stroke-linecap:round;stroke-linejoin:miter;stroke-miterlimit:4;stroke-opacity:1;stroke-dasharray:none;marker:none;visibility:visible;display:inline;overflow:visible;enable-background:accumulate"
       id="rect558"
       y="32.491508"
       x="48.49662"
       height="0.045608133"
       width="3.0128756" />
  </g>
</svg>
