<?xml version="1.0" encoding="UTF-8" standalone="no"?>
<!-- Created with Inkscape (http://www.inkscape.org/) -->

<svg
   xmlns:dc="http://purl.org/dc/elements/1.1/"
   xmlns:cc="http://creativecommons.org/ns#"
   xmlns:rdf="http://www.w3.org/1999/02/22-rdf-syntax-ns#"
   xmlns:svg="http://www.w3.org/2000/svg"
   xmlns="http://www.w3.org/2000/svg"
   xmlns:sodipodi="http://sodipodi.sourceforge.net/DTD/sodipodi-0.dtd"
   xmlns:inkscape="http://www.inkscape.org/namespaces/inkscape"
   version="1.0"
   width="100"
   height="100"
   id="svg2833"
   inkscape:version="0.48.3.1 r9886"
   sodipodi:docname="BlackGoldLance.svg">
  <sodipodi:namedview
     pagecolor="#ffffff"
     bordercolor="#666666"
     borderopacity="1"
     objecttolerance="10"
     gridtolerance="10"
     guidetolerance="10"
     inkscape:pageopacity="0"
     inkscape:pageshadow="2"
     inkscape:window-width="988"
     inkscape:window-height="854"
     id="namedview2999"
     showgrid="false"
     inkscape:zoom="5.8815625"
     inkscape:cx="50.359783"
     inkscape:cy="50"
     inkscape:window-x="0"
     inkscape:window-y="27"
     inkscape:window-maximized="0"
     inkscape:current-layer="svg2833" />
  <defs
     id="defs2835" />
  <metadata
     id="metadata2838">
    <rdf:RDF>
      <cc:Work
         rdf:about="">
        <dc:format>image/svg+xml</dc:format>
        <dc:type
           rdf:resource="http://purl.org/dc/dcmitype/StillImage" />
        <dc:title />
      </cc:Work>
    </rdf:RDF>
  </metadata>
  <g
     id="g3269">
    <path
       inkscape:connector-curvature="0"
       id="path3265"
       d="M 49.3125,16.5 C 37.636626,16.756468 26.607322,22.249362 18.59375,30.5 9.079502,37.828765 7.0047477,51.625273 10.5,62.59375 7.1443875,68.728543 9.902082,75.785859 13,81.28125 c 8.758712,8.222258 21.849242,8.638013 33.1875,9.6875 13.291944,-0.07595 27.116051,-3.127446 38.21875,-10.5 C 92.419269,71.874007 92.941025,57.788919 88.03125,47.5 84.838662,43.825729 85.997274,38.187252 83.125,34.0625 77.023923,21.581551 62.698878,15.712053 49.3125,16.5 z"
       style="color:#000000;fill:#ffffff;fill-opacity:1;fill-rule:nonzero;stroke:#ffffff;stroke-width:2;stroke-linecap:butt;stroke-linejoin:miter;stroke-miterlimit:4;stroke-opacity:1;stroke-dasharray:none;marker:none;visibility:visible;display:inline;overflow:visible;enable-background:accumulate" />
    <path
       style="color:#000000;fill:#000000;fill-opacity:1;fill-rule:nonzero;stroke:#000000;stroke-width:2;stroke-linecap:butt;stroke-linejoin:miter;stroke-miterlimit:4;stroke-opacity:1;stroke-dasharray:none;marker:none;visibility:visible;display:inline;overflow:visible;enable-background:accumulate"
       id="path707"
       inkscape:connector-curvature="0"
       d="M 13.081703,76.480231 C 13.488357,85.37192 36.127941,88.999452 48.724132,88.999999 61.457164,89.000545 84.41016,81.671154 84.754879,76.347357 91.081461,70.560193 90.024106,49.977559 84.469412,46.518742 81.546749,13.592767 38.630577,11.253471 21.320481,31.050905 10.359806,37.975905 9.1557291,53.058848 12.6934,62.682501 c -1.934024,3.79826 -2.8977761,7.693553 0.388303,13.79773 z" />
    <path
       style="color:#000000;fill:none;stroke:#ffffff;stroke-width:2;stroke-linecap:butt;stroke-linejoin:miter;stroke-miterlimit:4;stroke-opacity:1;stroke-dasharray:none;marker:none;visibility:visible;display:inline;overflow:visible;enable-background:accumulate"
       id="path709"
       inkscape:connector-curvature="0"
       d="M 24.925238,31.272337 C 43.925773,32.598945 66.29739,37.14793 82.302391,45.186581" />
    <path
       style="color:#000000;fill:none;stroke:#ffffff;stroke-width:2;stroke-linecap:butt;stroke-linejoin:miter;stroke-miterlimit:4;stroke-opacity:1;stroke-dasharray:none;marker:none;visibility:visible;display:inline;overflow:visible;enable-background:accumulate"
       id="path711"
       inkscape:connector-curvature="0"
       d="m 15.233662,62.445544 c 15.580616,-3.450601 40.330422,1.838319 67.888255,12.248323" />
    <path
       style="color:#000000;fill:none;stroke:#ffffff;stroke-width:2;stroke-linecap:butt;stroke-linejoin:miter;stroke-miterlimit:4;stroke-opacity:1;stroke-dasharray:none;marker:none;visibility:visible;display:inline;overflow:visible;enable-background:accumulate"
       id="path713"
       inkscape:connector-curvature="0"
       d="M 15.871739,75.004534 C 29.63467,65.700109 50.864881,61.048637 83.043823,74.841891" />
    <path
       inkscape:connector-curvature="0"
       style="color:#000000;fill:none;stroke:#ffffff;stroke-width:2;stroke-linecap:butt;stroke-linejoin:miter;stroke-miterlimit:4;stroke-opacity:1;stroke-dasharray:none;marker:none;visibility:visible;display:inline;overflow:visible;enable-background:accumulate"
       id="path766"
       d="m 59.333284,50.101325 a 7.8944607,7.873156 0 1 1 -15.788914,0 7.8944607,7.873156 0 1 1 15.788914,0 z" />
  </g>
</svg>
