<?xml version="1.0" encoding="UTF-8" standalone="no"?>
<!-- Created with Inkscape (http://www.inkscape.org/) -->

<svg
   xmlns:dc="http://purl.org/dc/elements/1.1/"
   xmlns:cc="http://creativecommons.org/ns#"
   xmlns:rdf="http://www.w3.org/1999/02/22-rdf-syntax-ns#"
   xmlns:svg="http://www.w3.org/2000/svg"
   xmlns="http://www.w3.org/2000/svg"
   xmlns:sodipodi="http://sodipodi.sourceforge.net/DTD/sodipodi-0.dtd"
   xmlns:inkscape="http://www.inkscape.org/namespaces/inkscape"
   version="1.0"
   width="100"
   height="100"
   id="svg2833"
   inkscape:version="0.48.3.1 r9886"
   sodipodi:docname="BlackGold.svg">
  <sodipodi:namedview
     pagecolor="#ffffff"
     bordercolor="#666666"
     borderopacity="1"
     objecttolerance="10"
     gridtolerance="10"
     guidetolerance="10"
     inkscape:pageopacity="0"
     inkscape:pageshadow="2"
     inkscape:window-width="1108"
     inkscape:window-height="1012"
     id="namedview3034"
     showgrid="false"
     inkscape:zoom="7.338125"
     inkscape:cx="50.357412"
     inkscape:cy="50"
     inkscape:window-x="0"
     inkscape:window-y="27"
     inkscape:window-maximized="0"
     inkscape:current-layer="svg2833" />
  <defs
     id="defs2835" />
  <metadata
     id="metadata2838">
    <rdf:RDF>
      <cc:Work
         rdf:about="">
        <dc:format>image/svg+xml</dc:format>
        <dc:type
           rdf:resource="http://purl.org/dc/dcmitype/StillImage" />
        <dc:title />
      </cc:Work>
    </rdf:RDF>
  </metadata>
  <g
     id="g3335">
    <path
       inkscape:connector-curvature="0"
       id="path3331"
       d="m 50.625,16.78125 c -12.129221,-0.04923 -23.686034,5.375144 -31.96875,14 C 9.1304952,38.018843 7.1237021,51.814273 10.5625,62.6875 7.2409165,68.940177 9.9795248,76.203427 13.375,81.65625 22.574086,89.680181 35.844416,90.147542 47.5,91 60.324786,90.567948 73.779805,87.724216 84.40625,80.40625 92.401217,71.856107 92.873817,57.687146 87.8125,47.4375 84.74018,43.606346 85.783485,37.849685 82.71875,33.6875 76.767937,22.076992 63.251242,16.392771 50.625,16.78125 z"
       style="color:#000000;fill:#ffffff;fill-opacity:1;fill-rule:nonzero;stroke:#ffffff;stroke-width:2.00000023999999987;stroke-linecap:butt;stroke-linejoin:miter;stroke-miterlimit:4;stroke-opacity:1;stroke-dasharray:none;marker:none;visibility:visible;display:inline;overflow:visible;enable-background:accumulate" />
    <path
       style="color:#000000;fill:#000000;fill-opacity:1;fill-rule:nonzero;stroke:#000000;stroke-width:2.00000024;stroke-linecap:butt;stroke-linejoin:miter;stroke-miterlimit:4;stroke-opacity:1;stroke-dasharray:none;marker:none;visibility:visible;display:inline;overflow:visible;enable-background:accumulate"
       id="path727"
       inkscape:connector-curvature="0"
       d="m 13.15758,76.536443 c 0.405818,8.851767 22.998869,12.463011 35.56917,12.463556 12.706861,5.44e-4 35.61268,-7.295939 35.95669,-12.595833 6.313578,-5.76118 5.258397,-26.2514 -0.28488,-29.694687 C 81.481904,13.931339 38.653941,11.602545 21.379424,31.311091 10.441277,38.204999 9.2396754,53.22022 12.770075,62.800664 c -1.930049,3.781207 -2.8918201,7.65901 0.387505,13.735779 z" />
    <path
       style="color:#000000;fill:none;stroke:#ffffff;stroke-width:2.00000023999999987;stroke-linecap:butt;stroke-linejoin:miter;stroke-miterlimit:4;stroke-opacity:1;stroke-dasharray:none;marker:none;visibility:visible;display:inline;overflow:visible;enable-background:accumulate"
       id="path729"
       inkscape:connector-curvature="0"
       d="m 24.976772,31.531529 c 18.961481,1.320651 41.287117,5.849212 57.259221,13.85177" />
    <path
       style="color:#000000;fill:none;stroke:#ffffff;stroke-width:2.00000023999999987;stroke-linecap:butt;stroke-linejoin:miter;stroke-miterlimit:4;stroke-opacity:1;stroke-dasharray:none;marker:none;visibility:visible;display:inline;overflow:visible;enable-background:accumulate"
       id="path731"
       inkscape:connector-curvature="0"
       d="M 15.305116,62.564771 C 30.853708,59.129663 55.552644,64.394836 83.053834,74.7581" />
    <path
       style="color:#000000;fill:none;stroke:#ffffff;stroke-width:2.00000023999999987;stroke-linecap:butt;stroke-linejoin:miter;stroke-miterlimit:4;stroke-opacity:1;stroke-dasharray:none;marker:none;visibility:visible;display:inline;overflow:visible;enable-background:accumulate"
       id="path733"
       inkscape:connector-curvature="0"
       d="M 15.941881,75.067372 C 29.676524,65.804723 50.863099,61.174136 82.975901,74.90546" />
    <path
       style="color:#000000;fill:#ffffff;fill-opacity:1;stroke:#ffffff;stroke-width:2.00000023999999987;stroke-linecap:butt;stroke-linejoin:miter;stroke-miterlimit:4;stroke-opacity:1;stroke-dasharray:none;marker:none;visibility:visible;display:inline;overflow:visible;enable-background:accumulate"
       id="path790"
       inkscape:connector-curvature="0"
       d="m 51.015985,59.153912 5.87027,-10.420715 -2.506721,-5.744751 -6.727099,0 -2.583544,5.744751 z" />
  </g>
</svg>
