<?xml version="1.0" encoding="UTF-8" standalone="no"?>
<!-- Created with Inkscape (http://www.inkscape.org/) -->

<svg
   xmlns:dc="http://purl.org/dc/elements/1.1/"
   xmlns:cc="http://creativecommons.org/ns#"
   xmlns:rdf="http://www.w3.org/1999/02/22-rdf-syntax-ns#"
   xmlns:svg="http://www.w3.org/2000/svg"
   xmlns="http://www.w3.org/2000/svg"
   xmlns:sodipodi="http://sodipodi.sourceforge.net/DTD/sodipodi-0.dtd"
   xmlns:inkscape="http://www.inkscape.org/namespaces/inkscape"
   version="1.0"
   width="100"
   height="100"
   id="svg2833"
   inkscape:version="0.48.3.1 r9886"
   sodipodi:docname="BlackCommoner.svg">
  <sodipodi:namedview
     pagecolor="#ffffff"
     bordercolor="#666666"
     borderopacity="1"
     objecttolerance="10"
     gridtolerance="10"
     guidetolerance="10"
     inkscape:pageopacity="0"
     inkscape:pageshadow="2"
     inkscape:window-width="1071"
     inkscape:window-height="944"
     id="namedview3075"
     showgrid="false"
     inkscape:zoom="6.71125"
     inkscape:cx="50.35219"
     inkscape:cy="50"
     inkscape:window-x="0"
     inkscape:window-y="27"
     inkscape:window-maximized="0"
     inkscape:current-layer="svg2833" />
  <defs
     id="defs2835" />
  <metadata
     id="metadata2838">
    <rdf:RDF>
      <cc:Work
         rdf:about="">
        <dc:format>image/svg+xml</dc:format>
        <dc:type
           rdf:resource="http://purl.org/dc/dcmitype/StillImage" />
        <dc:title />
      </cc:Work>
    </rdf:RDF>
  </metadata>
  <g
     id="g3252">
    <path
       inkscape:connector-curvature="0"
       id="path3245"
       d="m 49.4375,10.6875 c -3.09321,4.166816 -10.667954,7.22444 -6.525631,13.180637 2.745621,5.046147 1.694493,7.160457 -3.786869,6.444363 -10.055659,0.341558 -21.195638,6.081573 -22.65625,17 -1.594214,9.065128 -2.179145,19.462503 -10.3125,25.28125 -3.1330659,2.520382 -7.13259343,8.443449 -2.40625,11.4375 12.116242,6.39631 26.645762,5.974327 40.093395,6.901657 C 60.81729,90.813464 78.738089,91.292867 94.65625,85 99.07521,83.650431 99.566744,77.940411 96.09375,75.1875 91.175155,70.800681 85.873835,65.942961 85.65625,58.8125 84.605979,49.504682 83.73673,37.653718 73.8125,33.4375 68.613326,30.835632 62.692537,30.169916 56.90625,30 57.744256,24.868086 63.243419,18.585566 56.733266,15.203954 54.467869,14.342448 51.604656,6.8210259 49.4375,10.6875 z"
       style="color:#000000;fill:#ffffff;fill-opacity:1;fill-rule:nonzero;stroke:#ffffff;stroke-width:1.99999988000000006;stroke-linecap:round;stroke-linejoin:miter;stroke-miterlimit:4;stroke-opacity:1;marker:none;visibility:visible;display:inline;overflow:visible;enable-background:accumulate" />
    <path
       style="color:#000000;fill:#000000;fill-opacity:1;fill-rule:nonzero;stroke:#000000;stroke-width:1.99999988;stroke-linecap:round;stroke-linejoin:miter;stroke-miterlimit:4;stroke-opacity:1;marker:none;visibility:visible;display:inline;overflow:visible;enable-background:accumulate"
       id="path929"
       inkscape:connector-curvature="0"
       d="M 96.499695,80.245548 C 96.499695,85.080497 75.681819,89 50.001676,89 24.321532,89 3.503671,85.080497 3.503671,80.245548 3.3066405,76.704422 11.26425,71.640462 13.946019,66.572862 c 4.671893,-8.828224 2.070271,-21.697196 9.457225,-28.42738 6.725334,-6.127398 17.494161,-6.175082 26.598432,-6.196973 9.296258,-0.02235 20.377123,-0.119036 27.189522,6.196973 7.527911,6.979404 4.242121,20.3535 9.063165,29.411027 2.553611,4.797582 10.292391,8.859192 10.245332,12.689039 z" />
    <path
       style="color:#000000;fill:none;stroke:#ffffff;stroke-width:1.99999988000000006;stroke-linecap:round;stroke-linejoin:miter;stroke-miterlimit:4;stroke-opacity:1;marker:none;visibility:visible;display:inline;overflow:visible;enable-background:accumulate"
       id="path931"
       inkscape:connector-curvature="0"
       d="m 11.748787,75.929156 c 8.392682,-2.56856 22.395831,-4.438062 38.252895,-4.438062 16.365789,0 30.7568,1.99138 39.043206,4.687395" />
    <path
       style="color:#000000;fill:none;stroke:#ffffff;stroke-width:1.99999988000000006;stroke-linecap:round;stroke-linejoin:miter;stroke-miterlimit:4;stroke-opacity:1;marker:none;visibility:visible;display:inline;overflow:visible;enable-background:accumulate"
       id="path933"
       inkscape:connector-curvature="0"
       d="m 83.253534,74.88708 c -11.352866,2.489593 -23.549078,3.646043 -33.251858,3.686268 -13.008728,0 -24.769758,-1.505542 -33.208978,-3.619808" />
    <path
       style="color:#000000;fill:none;stroke:#ffffff;stroke-width:1.99999988000000006;stroke-linecap:round;stroke-linejoin:miter;stroke-miterlimit:4;stroke-opacity:1;marker:none;visibility:visible;display:inline;overflow:visible;enable-background:accumulate"
       id="path935"
       inkscape:connector-curvature="0"
       d="m 22.809954,61.132923 c 7.646671,-1.039592 17.203819,-2.765069 27.356324,-2.765069 10.298695,0 19.650779,1.743245 27.356339,2.81024" />
    <path
       style="color:#000000;fill:#000000;fill-opacity:1;fill-rule:nonzero;stroke:#000000;stroke-width:1.99999988;stroke-linecap:round;stroke-linejoin:miter;stroke-miterlimit:4;stroke-opacity:1;stroke-dasharray:none;marker:none;visibility:visible;display:inline;overflow:visible;enable-background:accumulate"
       id="path937"
       inkscape:connector-curvature="0"
       d="m 47.341824,31.850146 -3.64496,-12.393945 7.191419,-7.377348 7.191434,7.377348 -3.84199,12.393945 z" />
    <rect
       style="color:#000000;fill:#ffffff;fill-opacity:1;fill-rule:nonzero;stroke:#ffffff;stroke-width:1.99999988000000006;stroke-linecap:round;stroke-linejoin:miter;stroke-miterlimit:4;stroke-opacity:1;stroke-dasharray:none;marker:none;visibility:visible;display:inline;overflow:visible;enable-background:accumulate"
       id="rect978"
       y="28.99757"
       x="49.903152"
       height="0.098365344"
       width="1.5761958" />
  </g>
</svg>
