<?xml version="1.0" encoding="UTF-8" standalone="no"?>
<!-- Created with Inkscape (http://www.inkscape.org/) -->

<svg
   xmlns:dc="http://purl.org/dc/elements/1.1/"
   xmlns:cc="http://creativecommons.org/ns#"
   xmlns:rdf="http://www.w3.org/1999/02/22-rdf-syntax-ns#"
   xmlns:svg="http://www.w3.org/2000/svg"
   xmlns="http://www.w3.org/2000/svg"
   xmlns:sodipodi="http://sodipodi.sourceforge.net/DTD/sodipodi-0.dtd"
   xmlns:inkscape="http://www.inkscape.org/namespaces/inkscape"
   version="1.0"
   width="100"
   height="100"
   id="svg2833"
   inkscape:version="0.48.3.1 r9886"
   sodipodi:docname="BlackElephant.svg">
  <sodipodi:namedview
     pagecolor="#ffffff"
     bordercolor="#666666"
     borderopacity="1"
     objecttolerance="10"
     gridtolerance="10"
     guidetolerance="10"
     inkscape:pageopacity="0"
     inkscape:pageshadow="2"
     inkscape:window-width="1047"
     inkscape:window-height="840"
     id="namedview3122"
     showgrid="false"
     inkscape:zoom="5.7525"
     inkscape:cx="50.34058"
     inkscape:cy="50"
     inkscape:window-x="0"
     inkscape:window-y="27"
     inkscape:window-maximized="0"
     inkscape:current-layer="svg2833" />
  <defs
     id="defs2835" />
  <metadata
     id="metadata2838">
    <rdf:RDF>
      <cc:Work
         rdf:about="">
        <dc:format>image/svg+xml</dc:format>
        <dc:type
           rdf:resource="http://purl.org/dc/dcmitype/StillImage" />
        <dc:title />
      </cc:Work>
    </rdf:RDF>
  </metadata>
  <g
     id="g3156">
    <path
       inkscape:connector-curvature="0"
       id="path3149"
       d="m 59.75,5.125 c -9.144386,0.9911385 -21.555377,-0.5622698 -26.78125,8.90625 -2.448592,7.187066 -0.896813,15.345851 -1.4375,22.625 -5.278043,5.245512 -2.26958,13.37849 -2.75,19.96875 0.201651,9.452136 9.59416,18.616263 4.34375,27.90625 -3.966954,5.24291 -10.998133,-0.357276 -13.6875,-4.125 C 14.547616,73.764789 14.614401,64.435783 15.625,56.71875 20.240671,54.632782 19.174078,47.557653 14,47.21875 8.7281122,45.183519 6.3674813,51.606745 5.9325855,55.762564 3.2955611,66.869763 3.7823729,79.473621 11.59375,88.40625 c 6.987267,10.410867 24.097898,14.28575 32.9375,4.21875 6.185325,-7.749679 0.229103,-20.904841 9.90625,-26.5 8.497204,-4.449228 18.17171,-8.196747 25.53125,-13.8125 2.510429,6.916689 2.76629,17.209876 10.5,20.5625 5.079716,1.686687 3.247647,-5.703389 3.953927,-8.903213 C 94.625146,51.829359 96.34107,39.882701 98.5,28.03125 98.929683,21.703264 94.972002,15.053595 88.625,13.8125 80.525721,7.9728081 69.839363,4.5616616 59.75,5.125 z"
       style="color:#000000;fill:#ffffff;fill-opacity:1;stroke:#ffffff;stroke-width:1.99999988000000006;stroke-linecap:round;stroke-linejoin:miter;stroke-miterlimit:4;stroke-opacity:1;stroke-dasharray:none;marker:none;visibility:visible;display:inline;overflow:visible;enable-background:accumulate" />
    <path
       style="color:#000000;fill:#ffffff;fill-opacity:1;fill-rule:nonzero;stroke:#000000;stroke-width:0.99999994000000003;stroke-linecap:round;stroke-linejoin:miter;stroke-miterlimit:4;stroke-opacity:1;stroke-dasharray:none;marker:none;visibility:visible;display:inline;overflow:visible;enable-background:accumulate"
       id="path1058"
       inkscape:connector-curvature="0"
       d="m 32.121958,59.613878 c 0,0 -8.316929,18.435805 -29.1092243,23.750631 C 26.965455,84.693223 37.278434,60.942578 37.278434,60.942578 z" />
    <path
       style="color:#000000;fill:#000000;fill-opacity:1;stroke:#000000;stroke-width:1.99999988;stroke-linecap:round;stroke-linejoin:miter;stroke-miterlimit:4;stroke-opacity:1;stroke-dasharray:none;marker:none;visibility:visible;display:inline;overflow:visible;enable-background:accumulate"
       id="path1060"
       inkscape:connector-curvature="0"
       d="M 84.684879,44.167647 C 79.697732,51.722945 70.635134,56.062536 62.56187,59.946039 57.57345,62.345636 52.1453,63.921001 48.75579,68.914817 44.354824,75.398826 47.870276,86.153771 42.434924,92.001099 39.392736,95.273862 34.261738,96.659551 29.793206,96.485488 24.758448,96.289365 19.570429,93.877102 15.987126,90.340211 10.605749,85.02852 6.4942194,77.300796 6.5058482,69.745255 c 0.01083,-6.963847 1.7398223,-20.77475 4.8238008,-20.761044 2.567963,0.01081 5.414423,0.60824 5.322827,3.321763 -0.0643,1.903917 -3.222753,2.62996 -3.326763,4.650477 -0.415038,8.062657 -0.660504,17.303093 3.992127,23.916733 2.996484,4.259447 8.578842,8.888715 13.639742,7.640051 3.463806,-0.85462 5.84392,-5.406204 5.82184,-8.968765 -0.05591,-9.00937 -5.520938,-15.150647 -5.988177,-23.086281 -0.29745,-5.051942 -0.236923,-8.314458 -0.166338,-14.283592 0.01354,-1.114085 0.964344,-2.010608 1.497038,-2.989601 0.522067,-0.959461 1.713153,-1.732706 1.663388,-2.823501 -0.35688,-7.821427 -0.437673,-13.05131 0.332675,-19.266243 0.603402,-4.868011 6.745814,-8.4762737 11.810031,-8.8026768 7.83714,-0.5051157 11.006433,-1.4165084 18.629894,-1.1626259 6.009201,0.2001242 13.727954,2.8845447 20.792296,6.6435397 2.40214,1.278199 3.9939,4.137494 4.491139,6.809614 1.472156,7.911277 -0.721612,16.865929 -5.156489,23.584544 z" />
    <path
       style="color:#000000;fill:#ffffff;fill-opacity:1;fill-rule:nonzero;stroke:#000000;stroke-width:0.99999994000000003;stroke-linecap:round;stroke-linejoin:miter;stroke-miterlimit:4;stroke-opacity:1;stroke-dasharray:none;marker:none;visibility:visible;display:inline;overflow:visible;enable-background:accumulate"
       id="path1062"
       inkscape:connector-curvature="0"
       d="m 38.858661,66.506542 c 0,0 -7.901079,17.35623 -28.693374,22.671056 23.952721,1.328714 33.84985,-21.342356 33.84985,-21.342356 z" />
    <path
       style="color:#000000;fill:none;stroke:#ffffff;stroke-width:1.99999988000000006;stroke-linecap:round;stroke-linejoin:miter;stroke-miterlimit:4;stroke-opacity:1;stroke-dasharray:none;marker:none;visibility:visible;display:inline;overflow:visible;enable-background:accumulate"
       id="path1064"
       inkscape:connector-curvature="0"
       d="M 40.605211,60.112127 39.939848,64.679566 44.93,66.423492 47.258739,63.433903" />
    <path
       style="color:#000000;fill:#ffffff;fill-opacity:1;stroke:#ffffff;stroke-width:1.99999988000000006;stroke-linecap:round;stroke-linejoin:miter;stroke-miterlimit:4;stroke-opacity:1;stroke-dasharray:none;marker:none;visibility:visible;display:inline;overflow:visible;enable-background:accumulate"
       id="path1066"
       inkscape:connector-curvature="0"
       d="m 32.20512,57.620814 3.077264,0" />
    <path
       style="color:#000000;fill:#ffffff;fill-opacity:1;stroke:#ffffff;stroke-width:1.99999988000000006;stroke-linecap:round;stroke-linejoin:miter;stroke-miterlimit:4;stroke-opacity:1;stroke-dasharray:none;marker:none;visibility:visible;display:inline;overflow:visible;enable-background:accumulate"
       id="path1068"
       inkscape:connector-curvature="0"
       d="m 31.872445,52.139887 4.906977,0" />
    <path
       style="color:#000000;fill:#ffffff;fill-opacity:1;stroke:#ffffff;stroke-width:1.99999988000000006;stroke-linecap:round;stroke-linejoin:miter;stroke-miterlimit:4;stroke-opacity:1;stroke-dasharray:none;marker:none;visibility:visible;display:inline;overflow:visible;enable-background:accumulate"
       id="path1070"
       inkscape:connector-curvature="0"
       d="m 31.872445,46.492886 5.073314,0" />
    <path
       style="color:#000000;fill:none;stroke:#ffffff;stroke-width:1.99999988000000006;stroke-linecap:round;stroke-linejoin:miter;stroke-miterlimit:4;stroke-opacity:1;stroke-dasharray:none;marker:none;visibility:visible;display:inline;overflow:visible;enable-background:accumulate"
       id="path1072"
       inkscape:connector-curvature="0"
       d="m 39.10816,31.378843 c 0,0 -1.423297,-9.307671 0,-13.619241 1.036256,-3.139103 5.905015,-7.9722394 5.905015,-7.9722394" />
    <path
       inkscape:connector-curvature="0"
       style="color:#000000;fill:#ffffff;fill-opacity:1;stroke:#ffffff;stroke-width:0.99999994000000003;stroke-linecap:round;stroke-linejoin:miter;stroke-miterlimit:4;stroke-opacity:1;stroke-dasharray:none;marker:none;visibility:visible;display:inline;overflow:visible;enable-background:accumulate"
       id="path1074"
       d="m 50.918193,41.842409 a 1.829722,1.8269718 0 1 1 -3.659439,0 1.829722,1.8269718 0 1 1 3.659439,0 z" />
    <path
       style="color:#000000;fill:#000000;fill-opacity:1;stroke:#000000;stroke-width:1.99999988;stroke-linecap:round;stroke-linejoin:miter;stroke-miterlimit:4;stroke-opacity:1;stroke-dasharray:none;marker:none;visibility:visible;display:inline;overflow:visible;enable-background:accumulate"
       id="path1076"
       inkscape:connector-curvature="0"
       d="m 75.03725,22.243991 c 6.154514,-0.332175 10.437742,-7.84027 15.469468,-5.647001 5.543762,2.416453 6.835866,9.842268 5.489165,15.114042 -3.714889,14.542326 -3.316164,36.7974 -4.158465,39.362936 C 83.354165,70.741793 82.522478,44.00156 77.865001,43.835472" />
    <path
       style="color:#000000;fill:none;stroke:#ffffff;stroke-width:1.99999988000000006;stroke-linecap:round;stroke-linejoin:miter;stroke-miterlimit:4;stroke-opacity:1;stroke-dasharray:none;marker:none;visibility:visible;display:inline;overflow:visible;enable-background:accumulate"
       id="path1092"
       inkscape:connector-curvature="0"
       d="m 75.03725,22.243991 c 4.10786,-0.221711 7.382071,-3.640272 10.601616,-5.237237" />
    <path
       style="color:#000000;fill:none;stroke:#ffffff;stroke-width:1.99999988000000006;stroke-linecap:round;stroke-linejoin:miter;stroke-miterlimit:4;stroke-opacity:1;stroke-dasharray:none;marker:none;visibility:visible;display:inline;overflow:visible;enable-background:accumulate"
       id="path1088"
       inkscape:connector-curvature="0"
       d="m 81.095173,48.953432 c -0.945919,-2.992048 -1.941629,-5.072014 -3.230172,-5.11796" />
  </g>
</svg>
