<?xml version="1.0" encoding="UTF-8" standalone="no"?>
<!-- Created with Inkscape (http://www.inkscape.org/) -->

<svg
   xmlns:dc="http://purl.org/dc/elements/1.1/"
   xmlns:cc="http://creativecommons.org/ns#"
   xmlns:rdf="http://www.w3.org/1999/02/22-rdf-syntax-ns#"
   xmlns:svg="http://www.w3.org/2000/svg"
   xmlns="http://www.w3.org/2000/svg"
   xmlns:sodipodi="http://sodipodi.sourceforge.net/DTD/sodipodi-0.dtd"
   xmlns:inkscape="http://www.inkscape.org/namespaces/inkscape"
   version="1.0"
   width="100"
   height="100"
   id="svg2833"
   inkscape:version="0.48.3.1 r9886"
   sodipodi:docname="BlackKing.svg">
  <sodipodi:namedview
     pagecolor="#ffffff"
     bordercolor="#666666"
     borderopacity="1"
     objecttolerance="10"
     gridtolerance="10"
     guidetolerance="10"
     inkscape:pageopacity="0"
     inkscape:pageshadow="2"
     inkscape:window-width="1016"
     inkscape:window-height="874"
     id="namedview3069"
     showgrid="false"
     inkscape:zoom="6.0659375"
     inkscape:cx="50.360381"
     inkscape:cy="57.435682"
     inkscape:window-x="0"
     inkscape:window-y="27"
     inkscape:window-maximized="0"
     inkscape:current-layer="svg2833" />
  <defs
     id="defs2835" />
  <metadata
     id="metadata2838">
    <rdf:RDF>
      <cc:Work
         rdf:about="">
        <dc:format>image/svg+xml</dc:format>
        <dc:type
           rdf:resource="http://purl.org/dc/dcmitype/StillImage" />
        <dc:title />
      </cc:Work>
    </rdf:RDF>
  </metadata>
  <g
     id="g3445">
    <path
       id="path3411"
       d="M 49 2.9375 L 49 8.75 L 42.96875 8.75 L 42.96875 10.75 L 49 10.75 L 49 18.78125 C 42.436962 19.621073 38.886409 27.017924 39.5625 33.125 C 28.938226 24.480516 9.1100778 26.895709 4.71875 41.25 C 1.3123926 51.202502 9.849325 59.999767 17.625 64.8125 C 19.060259 71.658809 18.065097 79.367189 20.65625 85.8125 C 28.794526 91.305041 39.604858 90.320381 49.03125 91 C 58.992291 90.477328 70.160135 91.389008 78.96875 86.0625 C 82.01862 80.777187 80.411948 73.651696 81.9375 67.78125 C 81.92291 62.694715 88.72388 61.619798 91.0625 57.40625 C 99.420812 49.672786 96.514895 34.911767 86.25 30.46875 C 78.05655 26.454235 67.636411 27.655295 60.4375 33.21875 C 61.158017 27.10317 57.524988 19.436642 51 18.75 L 51 10.75 L 57.03125 10.75 L 57.03125 8.75 L 51 8.75 L 51 2.9375 L 49 2.9375 z "
       style="color:#000000;fill:#ffffff;fill-opacity:1;fill-rule:nonzero;stroke:#ffffff;stroke-width:2;stroke-linejoin:bevel;stroke-opacity:1;marker:none;visibility:visible;display:inline;overflow:visible;enable-background:accumulate" />
    <path
       style="color:#000000;fill:#000000;fill-opacity:1;fill-rule:nonzero;stroke:#000000;stroke-width:2;stroke-linejoin:bevel;stroke-opacity:1;marker:none;visibility:visible;display:inline;overflow:visible;enable-background:accumulate"
       id="path1112"
       inkscape:connector-curvature="0"
       d="m 78.139629,83.551547 c 0,3.0091 -12.626181,5.448456 -28.201337,5.448456 -15.575183,0 -28.201351,-2.439356 -28.201351,-5.448456 L 19.492329,63.639252 c 0,0 -13.5706778,-7.841709 -13.5251292,-17.392973 0.038334,-8.05824 6.5318092,-16.234786 18.6474362,-16.122983 16.854349,0.155515 25.438758,16.623362 25.438758,30.077713 0,-13.454351 8.539102,-30.010907 25.668978,-30.077713 12.037147,-0.04701 18.578971,8.151663 18.302087,16.122983 -0.344048,9.90519 -13.608702,17.392973 -13.608702,17.392973 z" />
    <path
       style="color:#000000;fill:#000000;fill-opacity:1;fill-rule:nonzero;stroke:#000000;stroke-width:2;stroke-linecap:butt;stroke-linejoin:bevel;stroke-opacity:1;marker:none;visibility:visible;display:inline;overflow:visible;enable-background:accumulate"
       id="path1120"
       inkscape:connector-curvature="0"
       d="m 50.022161,20.677361 c -4.675039,0 -8.487314,4.895693 -8.487314,10.931577 l 0.04413,5.850102 c 5.73369,6.061204 8.619928,14.943009 8.619928,22.759884 0,-7.606217 2.754488,-16.198232 8.222086,-22.247466 l 0.04413,-6.36252 c 0,-6.035884 -3.768056,-10.931577 -8.443109,-10.931577 z" />
    <path
       style="color:#000000;fill:none;stroke:#000000;stroke-width:2;stroke-linecap:butt;stroke-linejoin:bevel;stroke-opacity:1;marker:none;visibility:visible;display:inline;overflow:visible;enable-background:accumulate"
       id="path1122"
       inkscape:connector-curvature="0"
       d="m 49.999995,2.9444992 0,18.5071598" />
    <path
       style="color:#000000;fill:none;stroke:#000000;stroke-width:2;stroke-linecap:butt;stroke-linejoin:bevel;stroke-opacity:1;marker:none;visibility:visible;display:inline;overflow:visible;enable-background:accumulate"
       id="path1124"
       inkscape:connector-curvature="0"
       d="m 42.95899,9.7396083 14.081996,0" />
    <path
       style="color:#000000;fill:#000000;fill-opacity:1;fill-rule:nonzero;stroke:#ffffff;stroke-width:2;stroke-linecap:butt;stroke-linejoin:miter;stroke-opacity:1;marker:none;visibility:visible;display:inline;overflow:visible;enable-background:accumulate"
       id="path1140"
       inkscape:connector-curvature="0"
       d="m 50.072208,23.384525 c -1.921358,-0.07912 -3.409863,1.44786 -4.325871,2.892455 -1.61126,2.541045 -1.712726,5.915759 -1.234777,8.859633 0.66723,4.109712 4.197104,7.437776 5.560648,11.264662 1.660784,-3.837858 4.805051,-7.166947 5.440453,-11.264662 0.457297,-2.949135 0.309971,-6.306222 -1.284583,-8.859633 -0.881931,-1.412264 -2.234512,-2.813337 -4.15587,-2.892455 z" />
    <path
       style="color:#000000;fill:none;stroke:#ffffff;stroke-width:2;stroke-linejoin:bevel;stroke-opacity:1;marker:none;visibility:visible;display:inline;overflow:visible;enable-background:accumulate"
       id="path1187"
       inkscape:connector-curvature="0"
       d="m 24.844826,64.30641 c 0,0 -15.9999316,-10.060327 -15.9999316,-18.060131 0,-8.058322 7.3344256,-13.231964 15.7697416,-13.231964 16.855113,0 22.445962,18.068871 22.445962,27.186694 l 5.985593,0 c 0,-9.00663 5.546163,-27.075506 22.676181,-27.075506 8.238862,0 15.58616,5.149456 15.30929,13.120776 -0.305473,8.794511 -15.738197,18.171325 -15.738197,18.171325" />
    <path
       style="color:#000000;fill:none;stroke:#ffffff;stroke-width:2;stroke-opacity:1;marker:none;visibility:visible;display:inline;overflow:visible;enable-background:accumulate"
       id="path1118"
       inkscape:connector-curvature="0"
       d="m 24.291425,82.309374 c 4.425257,-1.890298 14.271886,-4.206286 25.708556,-4.206286 11.312883,0 21.069956,2.343267 25.562971,4.200707" />
    <path
       style="color:#000000;fill:none;stroke:#ffffff;stroke-width:2;stroke-opacity:1;marker:none;visibility:visible;display:inline;overflow:visible;enable-background:accumulate"
       id="path1114"
       inkscape:connector-curvature="0"
       d="m 24.541235,74.666892 c 4.538421,-1.966853 14.232547,-3.32558 25.458746,-3.32558 10.915082,0 20.381861,1.284462 25.069645,3.163475" />
    <path
       style="color:#000000;fill:none;stroke:#ffffff;stroke-width:2.00000023999999987;stroke-opacity:1;marker:none;visibility:visible;display:inline;overflow:visible;enable-background:accumulate"
       id="path1116"
       inkscape:connector-curvature="0"
       d="m 23.408178,64.242845 c 4.765882,-2.313032 14.882209,-3.909087 26.591803,-3.909087 11.869693,0 22.102254,1.639996 26.784281,4.004358" />
  </g>
</svg>
