<?xml version="1.0" encoding="UTF-8" standalone="no"?>
<!-- Created with Inkscape (http://www.inkscape.org/) -->

<svg
   xmlns:dc="http://purl.org/dc/elements/1.1/"
   xmlns:cc="http://creativecommons.org/ns#"
   xmlns:rdf="http://www.w3.org/1999/02/22-rdf-syntax-ns#"
   xmlns:svg="http://www.w3.org/2000/svg"
   xmlns="http://www.w3.org/2000/svg"
   xmlns:sodipodi="http://sodipodi.sourceforge.net/DTD/sodipodi-0.dtd"
   xmlns:inkscape="http://www.inkscape.org/namespaces/inkscape"
   version="1.0"
   width="100"
   height="100"
   id="svg2833"
   inkscape:version="0.48.3.1 r9886"
   sodipodi:docname="BlackGoldKnight.svg">
  <sodipodi:namedview
     pagecolor="#ffffff"
     bordercolor="#666666"
     borderopacity="1"
     objecttolerance="10"
     gridtolerance="10"
     guidetolerance="10"
     inkscape:pageopacity="0"
     inkscape:pageshadow="2"
     inkscape:window-width="923"
     inkscape:window-height="736"
     id="namedview12"
     showgrid="false"
     inkscape:zoom="4.79375"
     inkscape:cx="50"
     inkscape:cy="50"
     inkscape:window-x="0"
     inkscape:window-y="27"
     inkscape:window-maximized="0"
     inkscape:current-layer="svg2833" />
  <defs
     id="defs2835" />
  <metadata
     id="metadata2838">
    <rdf:RDF>
      <cc:Work
         rdf:about="">
        <dc:format>image/svg+xml</dc:format>
        <dc:type
           rdf:resource="http://purl.org/dc/dcmitype/StillImage" />
        <dc:title />
      </cc:Work>
    </rdf:RDF>
  </metadata>
  <g
     id="g3246">
    <path
       inkscape:connector-curvature="0"
       id="path3242"
       d="M 49.3125,16.8125 C 37.645484,17.091538 26.610244,22.49516 18.625,30.78125 9.1317049,37.966361 7.0302282,51.806734 10.53125,62.6875 c -3.3487025,6.121329 -0.6098396,13.160897 2.5,18.625 8.351115,7.941627 20.915293,8.480985 31.8125,9.59375 13.603946,0.353165 27.7384,-2.879696 39.21875,-10.125 C 92.403926,72.372187 92.935131,58.052488 88,47.6875 84.873001,43.789075 85.779029,37.958828 82.78125,33.6875 76.524424,21.6372 62.398952,16.049927 49.3125,16.8125 z"
       style="color:#000000;fill:#ffffff;fill-opacity:1;fill-rule:nonzero;stroke:#ffffff;stroke-width:1.99999988000000006;stroke-linecap:butt;stroke-linejoin:miter;stroke-miterlimit:4;stroke-opacity:1;stroke-dasharray:none;marker:none;visibility:visible;display:inline;overflow:visible;enable-background:accumulate" />
    <path
       style="color:#000000;fill:#000000;fill-opacity:1;fill-rule:nonzero;stroke:#000000;stroke-width:1.99999988;stroke-linecap:butt;stroke-linejoin:miter;stroke-miterlimit:4;stroke-opacity:1;stroke-dasharray:none;marker:none;visibility:visible;display:inline;overflow:visible;enable-background:accumulate"
       id="path667"
       inkscape:connector-curvature="0"
       d="M 13.114652,76.535977 C 13.520943,85.388078 36.140318,88.999458 48.725266,89.000002 61.446931,89.000547 84.379439,81.703789 84.72385,76.403695 91.044785,70.642297 89.988374,50.151306 84.438638,46.707889 81.518584,13.928512 38.64072,11.599631 21.346076,31.30892 10.395185,38.203088 9.1921827,53.218875 12.726696,62.79968 c -1.932298,3.781349 -2.8951897,7.659299 0.387956,13.736297 z" />
    <path
       style="color:#000000;fill:none;stroke:#ffffff;stroke-width:1.99999988000000006;stroke-linecap:butt;stroke-linejoin:miter;stroke-miterlimit:4;stroke-opacity:1;stroke-dasharray:none;marker:none;visibility:visible;display:inline;overflow:visible;enable-background:accumulate"
       id="path669"
       inkscape:connector-curvature="0"
       d="m 24.947615,31.529366 c 18.983575,1.320701 41.335223,5.849433 57.325937,13.852292" />
    <path
       style="color:#000000;fill:none;stroke:#ffffff;stroke-width:1.99999988000000006;stroke-linecap:butt;stroke-linejoin:miter;stroke-miterlimit:4;stroke-opacity:1;stroke-dasharray:none;marker:none;visibility:visible;display:inline;overflow:visible;enable-background:accumulate"
       id="path671"
       inkscape:connector-curvature="0"
       d="m 15.26469,62.563779 c 15.566709,-3.435238 40.294422,1.830134 67.827655,12.193788" />
    <path
       style="color:#000000;fill:none;stroke:#ffffff;stroke-width:1.99999988000000006;stroke-linecap:butt;stroke-linejoin:miter;stroke-miterlimit:4;stroke-opacity:1;stroke-dasharray:none;marker:none;visibility:visible;display:inline;overflow:visible;enable-background:accumulate"
       id="path673"
       inkscape:connector-curvature="0"
       d="M 15.902197,75.066851 C 29.652843,65.803852 50.864104,61.17309 83.014322,74.904932" />
    <path
       style="color:#000000;fill:#ffffff;fill-opacity:1;fill-rule:nonzero;stroke:#ffffff;stroke-width:0.09999999000000000;stroke-opacity:1;marker:none;visibility:visible;display:inline;overflow:visible;enable-background:accumulate"
       id="path825"
       inkscape:connector-curvature="0"
       d="m 53.402199,40.726761 c -5.670426,0 -10.270056,4.570873 -10.270056,10.205847 0,5.634974 4.59963,10.205847 10.270056,10.205847 2.617862,0 4.988148,-0.993484 6.801659,-2.596224 -0.259036,0.02621 -0.544824,0.04469 -0.810794,0.04469 -4.255593,0 -7.702541,-3.425412 -7.702541,-7.654386 0,-4.228973 3.446948,-7.654385 7.702541,-7.654385 0.26597,0 0.551758,-0.02621 0.810794,0 -1.811753,-1.595221 -4.190687,-2.551462 -6.801659,-2.551462 z" />
  </g>
</svg>
