<?xml version="1.0" encoding="UTF-8" standalone="no"?>
<!-- Created with Inkscape (http://www.inkscape.org/) -->

<svg
   xmlns:dc="http://purl.org/dc/elements/1.1/"
   xmlns:cc="http://creativecommons.org/ns#"
   xmlns:rdf="http://www.w3.org/1999/02/22-rdf-syntax-ns#"
   xmlns:svg="http://www.w3.org/2000/svg"
   xmlns="http://www.w3.org/2000/svg"
   xmlns:sodipodi="http://sodipodi.sourceforge.net/DTD/sodipodi-0.dtd"
   xmlns:inkscape="http://www.inkscape.org/namespaces/inkscape"
   version="1.0"
   width="100"
   height="100"
   id="svg2833"
   inkscape:version="0.48.3.1 r9886"
   sodipodi:docname="BlackNightrider.svg">
  <sodipodi:namedview
     pagecolor="#ffffff"
     bordercolor="#666666"
     borderopacity="1"
     objecttolerance="10"
     gridtolerance="10"
     guidetolerance="10"
     inkscape:pageopacity="0"
     inkscape:pageshadow="2"
     inkscape:window-width="1063"
     inkscape:window-height="829"
     id="namedview3115"
     showgrid="false"
     inkscape:zoom="3.9959267"
     inkscape:cx="-6.3454786"
     inkscape:cy="71.313217"
     inkscape:window-x="0"
     inkscape:window-y="27"
     inkscape:window-maximized="0"
     inkscape:current-layer="svg2833" />
  <defs
     id="defs2835" />
  <metadata
     id="metadata2838">
    <rdf:RDF>
      <cc:Work
         rdf:about="">
        <dc:format>image/svg+xml</dc:format>
        <dc:type
           rdf:resource="http://purl.org/dc/dcmitype/StillImage" />
        <dc:title />
      </cc:Work>
    </rdf:RDF>
  </metadata>
  <g
     id="g3564">
    <path
       sodipodi:nodetypes="ccccccccccccccccc"
       inkscape:connector-curvature="0"
       id="path4681"
       d="M 40.125,14.03125 37.89538,13.911181 C 33.844072,8.6188691 28.109494,6.3051173 25.306538,7.1378249 26.442352,9.2369922 27.088235,15.397196 26.385639,19.339969 24.910041,21.001725 24.466256,21.304415 23.09375,22.75 17.059895,29.293703 19.468968,39.470524 13.10155,45.9883 8.8473056,51.722038 4.0751921,61.10133 10.25,67.1875 c 2.496435,2.94145 6.351938,1.296933 8.979672,1.833586 3.629037,3.982308 9.090154,0.343329 10.832828,-3.260922 4.737674,-8.233528 13.619686,-11.618027 20.276933,-14.786313 -0.1207,4.465284 -2.556844,6.563765 -3.639493,9.626649 C 41.552564,67.87968 29.709535,77.784347 29.378793,90.53125 48.725011,90.46316 73.420084,90.5089 92.78125,90.59375 92.172597,67.681908 89.602297,42.759573 74.6875,24.4375 68.599413,18.341703 59.951615,14.240255 51.6875,13.75 51.052394,9.9199827 49.508445,6.7831156 46.844228,4.0002867 44.40057,7.1847989 40.983456,10.700386 40.125,14.03125 z"
       style="opacity:0.98999999000000005;fill:#ffffff;fill-opacity:1;stroke:#ffffff;stroke-width:0.74352384000000005px;stroke-opacity:1" />
    <path
       style="opacity:0.98999999;fill:#000000;fill-opacity:1;stroke:#000000;stroke-width:0.74352384px;stroke-opacity:1"
       id="path4683"
       inkscape:connector-curvature="0"
       d="m 37.442738,14.905615 3.439942,0.07997 c -0.152278,-3.646671 5.987617,-9.6134104 5.987617,-9.6134104 0,0 3.543772,3.9681409 4.116357,9.5646254 7.997901,-0.319186 14.867898,3.896119 17.510178,5.520094 16.739924,10.288578 23.292435,43.609142 23.25813,69.171357 L 31.276378,89.438748 c -0.279195,-17.569823 20.961055,-24.15666 20.339188,-40.843407 -5.367123,4.16531 -11.35016,5.299038 -16.088628,9.280081 -3.762519,3.161091 -5.701189,6.863679 -9.45265,11.30587 -1.382962,1.637591 -5.075349,0.911668 -6.268037,-1.468517 -5.963474,1.785141 -11.6937748,0.0239 -11.5590169,-8.469851 0.119293,-7.519263 7.6975789,-14.314587 10.3029429,-21.371154 1.123156,-3.042046 0.966084,-7.743775 2.740566,-11.128459 1.377838,-2.628126 4.478975,-5.67204 5.900094,-6.671984 1.10378,-3.747695 0.861706,-10.0960188 -0.965618,-12.5271371 2.664853,-0.7597152 8.781083,2.9550391 11.217519,7.3614251 z m 13.886535,2.899266 0,3.704474 c 5.153145,-0.004 11.834431,2.727161 16.616726,7.094035 9.560791,8.730254 13.847408,30.252407 15.769188,49.842553 0.541122,4.579366 1.051926,8.318846 5.31741,8.636333 C 89.235396,71.393727 84.131251,38.972241 73.693211,28.12312 67.053274,21.221685 59.652256,18.158673 51.329273,17.804881 z m -31.307371,46.616042 1.789046,0.595044 1.789043,-5.950457 -0.596358,0 z m -5.035836,-3.049548 c 3.520118,-0.165279 5.142184,-7.708943 1.565431,-7.611674 -3.950821,0.107448 -4.602865,7.754291 -1.565431,7.611674 z m 37.723152,-15.347271 1.192688,0 c 1.830502,-0.59093 2.488937,-5.793425 1.789045,-6.545507 -1.03944,0.276838 -1.689618,4.165324 -2.981733,6.545507 z M 31.948861,21.577613 c 1.192688,0 5.265891,-0.151945 6.458579,-0.746988 11.330617,-3.570281 -5.265891,-5.798518 -6.458579,0.746988 z" />
    <path
       style="color:#000000;fill:#ffffff;fill-opacity:0.99215686000000003;fill-rule:nonzero;stroke:#ffffff;stroke-width:1.00000011999999994;stroke-opacity:0.99215686000000003;marker:none;visibility:visible;display:inline;overflow:visible;enable-background:accumulate"
       id="path4701"
       inkscape:connector-curvature="0"
       d="m 29.45005,20.620474 c -0.07125,0.328646 -0.122431,0.66697 -0.210449,0.965956 -1.421119,0.999944 -4.514751,4.04957 -5.892595,6.677696 -0.653393,1.246275 -1.05773,2.660824 -1.346886,4.115813 l 7.216099,6.691472 10.0595,-10.331531 z" />
    <path
       style="opacity:0.98999999;fill:#000000;fill-opacity:1"
       id="path4739"
       inkscape:connector-curvature="0"
       d="m 27.436979,36.17279 1.192688,-2.975226 c 3.578104,0.595043 5.367136,-1.190084 4.770792,-4.760366 l 2.981734,-0.595042 0,-0.595042 C 31.01507,26.057015 26.244277,30.817381 27.436979,36.17279 z" />
  </g>
</svg>
