<?xml version="1.0" encoding="UTF-8" standalone="no"?>
<!-- Created with Inkscape (http://www.inkscape.org/) -->

<svg
   xmlns:dc="http://purl.org/dc/elements/1.1/"
   xmlns:cc="http://creativecommons.org/ns#"
   xmlns:rdf="http://www.w3.org/1999/02/22-rdf-syntax-ns#"
   xmlns:svg="http://www.w3.org/2000/svg"
   xmlns="http://www.w3.org/2000/svg"
   xmlns:sodipodi="http://sodipodi.sourceforge.net/DTD/sodipodi-0.dtd"
   xmlns:inkscape="http://www.inkscape.org/namespaces/inkscape"
   version="1.0"
   width="100"
   height="100"
   id="svg2833"
   inkscape:version="0.48.3.1 r9886"
   sodipodi:docname="BlackPrincess.svg">
  <sodipodi:namedview
     pagecolor="#ffffff"
     bordercolor="#666666"
     borderopacity="1"
     objecttolerance="10"
     gridtolerance="10"
     guidetolerance="10"
     inkscape:pageopacity="0"
     inkscape:pageshadow="2"
     inkscape:window-width="1039"
     inkscape:window-height="959"
     id="namedview3141"
     showgrid="false"
     inkscape:zoom="6.8495313"
     inkscape:cx="50.343274"
     inkscape:cy="50"
     inkscape:window-x="0"
     inkscape:window-y="27"
     inkscape:window-maximized="0"
     inkscape:current-layer="svg2833" />
  <defs
     id="defs2835" />
  <metadata
     id="metadata2838">
    <rdf:RDF>
      <cc:Work
         rdf:about="">
        <dc:format>image/svg+xml</dc:format>
        <dc:type
           rdf:resource="http://purl.org/dc/dcmitype/StillImage" />
        <dc:title />
      </cc:Work>
    </rdf:RDF>
  </metadata>
  <g
     id="g3627">
    <path
       inkscape:connector-curvature="0"
       id="path3604"
       d="m 37.53125,8.84375 c -6.665056,0.1630786 -8.127979,10.552012 -1.75,12.5 1.419884,4.371333 -0.67186,11.013301 -0.518363,16.204494 -0.192174,7.550083 -0.552644,14.358756 -4.81335,3.985367 -2.3092,-4.770972 -6.491342,-9.836794 -7.730787,-14.439861 4.824583,-5.035754 -2.312382,-13.375712 -8.125,-9.625 -5.7392467,2.783667 -3.125785,12.149747 3.125,11.84375 1.75648,10.297075 3.514863,21.508671 5.1875,31.1875 4.953841,2.035414 9.130881,8.133427 7.653834,14.062242 -1.081805,4.090244 -5.59082,10.461474 0.189916,12.969008 11.118182,4.802046 24.552765,4.268712 36.09375,1.28125 3.923636,-0.870705 8.177736,-4.845016 4.832692,-9.000611 -2.518149,-5.438764 -3.720809,-12.905758 2.05502,-16.678872 5.384503,-2.729772 4.039829,-8.045905 5.294374,-13.876703 1.091713,-6.687333 1.891803,-13.713421 3.161664,-20.193814 6.530232,0.467484 8.960766,-9.472148 2.875,-11.96875 -5.987088,-3.436149 -12.730776,5.471862 -7.4375,10.09375 -3.264895,7.041259 -8.100617,14.35435 -11.96875,21.5 C 65.073413,39.714417 63.930388,30.297431 63.6875,21.59375 70.316992,20.179627 69.780081,9.5813051 63.03125,8.9375 c -6.846058,-1.5876601 -10.525406,8.93735 -4.25,12 C 56,29.739583 53.21875,38.541667 50.4375,47.34375 47.670918,38.513204 43.733948,29.2541 41.6875,20.6875 47.271208,17.227768 44.118361,8.1009638 37.53125,8.84375 z m 45.9375,10.84375 c -0.06692,4.224016 -2.392111,-2.070184 0,0 z"
       style="color:#000000;fill:#ffffff;fill-opacity:1;fill-rule:nonzero;stroke:#ffffff;stroke-width:2.00000023999999987;stroke-linecap:butt;stroke-linejoin:miter;stroke-opacity:1;marker:none;visibility:visible;display:inline;overflow:visible;enable-background:accumulate" />
    <path
       style="color:#000000;fill:#000000;fill-opacity:1;fill-rule:nonzero;stroke:#000000;stroke-width:2;stroke-linecap:butt;stroke-linejoin:miter;stroke-opacity:1;marker:none;visibility:visible;display:inline;overflow:visible;enable-background:accumulate"
       id="path759"
       inkscape:connector-curvature="0"
       d="M 24.554866,58.280821 19.183219,25.935977 36.817434,56.599121" />
    <path
       style="color:#000000;fill:#000000;fill-opacity:1;fill-rule:nonzero;stroke:#000000;stroke-width:2;stroke-linecap:butt;stroke-linejoin:miter;stroke-opacity:1;marker:none;visibility:visible;display:inline;overflow:visible;enable-background:accumulate"
       id="path761"
       inkscape:connector-curvature="0"
       d="M 35.814851,57.005125 38.644113,19.209159 50.730651,54.33479 z" />
    <path
       style="color:#000000;fill:#000000;fill-opacity:1;fill-rule:nonzero;stroke:#000000;stroke-width:2;stroke-linecap:butt;stroke-linejoin:miter;stroke-opacity:1;marker:none;visibility:visible;display:inline;overflow:visible;enable-background:accumulate"
       id="path763"
       inkscape:connector-curvature="0"
       d="M 75.656466,58.348493 80.333542,27.057114 63.456085,56.543065" />
    <path
       style="color:#000000;fill:#000000;fill-opacity:1;fill-rule:nonzero;stroke:#000000;stroke-width:2;stroke-linecap:butt;stroke-linejoin:miter;stroke-opacity:1;marker:none;visibility:visible;display:inline;overflow:visible;enable-background:accumulate"
       id="path765"
       inkscape:connector-curvature="0"
       d="M 64.317705,57.197682 61.321899,19.545498 50.159835,54.948598 z" />
    <path
       style="color:#000000;fill:#000000;fill-opacity:1;fill-rule:nonzero;stroke:#000000;stroke-width:2.00000024;stroke-linecap:butt;stroke-linejoin:miter;stroke-opacity:1;marker:none;visibility:visible;display:inline;overflow:visible;enable-background:accumulate"
       id="path767"
       inkscape:connector-curvature="0"
       d="m 70.845406,83.310227 c 0,3.14239 -9.223935,5.689778 -20.602222,5.689778 -11.378288,0 -20.602223,-2.547388 -20.602223,-5.689778 l 2.928947,-8.156264 -0.08099,-8.352473 -7.320054,-8.128277 5.489508,-3.873545 5.17622,1.260921 7.238672,-3.624922 7.269519,1.696958 6.554341,-1.696958 6.608265,3.624922 6.123304,-1.260921 5.410671,3.873545 -7.318367,8.128277 0.07595,8.352473 z" />
    <path
       style="color:#000000;fill:none;stroke:#ffffff;stroke-width:2.00000023999999987;stroke-linecap:butt;stroke-linejoin:miter;stroke-opacity:1;marker:none;visibility:visible;display:inline;overflow:visible;enable-background:accumulate"
       id="path769"
       inkscape:connector-curvature="0"
       d="m 34.029651,65.95064 c 3.768624,-1.342709 9.665263,-2.206981 16.292812,-2.206981 6.145675,0 11.662845,0.743162 15.437553,1.921835" />
    <path
       inkscape:connector-curvature="0"
       style="color:#000000;fill:#000000;fill-opacity:1;fill-rule:nonzero;stroke:#000000;stroke-width:2;stroke-linecap:butt;stroke-linejoin:miter;stroke-opacity:1;marker:none;visibility:visible;display:inline;overflow:visible;enable-background:accumulate"
       id="path771"
       d="m 22.293787,22.821968 a 4.4952015,4.4791203 0 0 1 -8.990403,0 4.4952015,4.4791203 0 1 1 8.990403,0 z" />
    <path
       inkscape:connector-curvature="0"
       style="color:#000000;fill:#000000;fill-opacity:1;fill-rule:nonzero;stroke:#000000;stroke-width:2;stroke-linecap:butt;stroke-linejoin:miter;stroke-opacity:1;marker:none;visibility:visible;display:inline;overflow:visible;enable-background:accumulate"
       id="path773"
       d="m 86.696598,22.920488 a 4.4952015,4.4791203 0 0 1 -8.990403,0 4.4952015,4.4791203 0 1 1 8.990403,0 z" />
    <path
       inkscape:connector-curvature="0"
       style="color:#000000;fill:#000000;fill-opacity:1;fill-rule:nonzero;stroke:#000000;stroke-width:2;stroke-linecap:butt;stroke-linejoin:miter;stroke-opacity:1;marker:none;visibility:visible;display:inline;overflow:visible;enable-background:accumulate"
       id="path775"
       d="m 66.494858,15.323548 a 4.4952015,4.4791203 0 0 1 -8.990403,0 4.4952015,4.4791203 0 1 1 8.990403,0 z" />
    <path
       inkscape:connector-curvature="0"
       style="color:#000000;fill:#000000;fill-opacity:1;fill-rule:nonzero;stroke:#000000;stroke-width:2;stroke-linecap:butt;stroke-linejoin:miter;stroke-opacity:1;marker:none;visibility:visible;display:inline;overflow:visible;enable-background:accumulate"
       id="path777"
       d="m 42.584345,15.300328 a 4.4952015,4.4791203 0 0 1 -8.990403,0 4.4952015,4.4791203 0 1 1 8.990403,0 z" />
    <path
       style="color:#000000;fill:none;stroke:#ffffff;stroke-width:2.00000023999999987;stroke-linecap:butt;stroke-linejoin:miter;stroke-opacity:1;marker:none;visibility:visible;display:inline;overflow:visible;enable-background:accumulate"
       id="path781"
       inkscape:connector-curvature="0"
       d="m 35.445623,74.379664 c 3.750008,-1.080735 9.028885,-1.753637 14.87684,-1.753637 5.382065,0 10.282104,0.569955 13.951937,1.503237" />
    <path
       inkscape:connector-curvature="0"
       style="color:#000000;fill:#ffffff;stroke:none;stroke-width:2;marker:none;visibility:visible;display:inline;overflow:visible;enable-background:accumulate"
       id="path783"
       d="m 32.841154,80.670752 a 1.2684233,0.64412119 0 1 1 -2.536844,0 1.2684233,0.64412119 0 1 1 2.536844,0 z" />
  </g>
</svg>
