<?xml version="1.0" encoding="UTF-8" standalone="no"?>
<!-- Created with Inkscape (http://www.inkscape.org/) -->

<svg
   xmlns:dc="http://purl.org/dc/elements/1.1/"
   xmlns:cc="http://creativecommons.org/ns#"
   xmlns:rdf="http://www.w3.org/1999/02/22-rdf-syntax-ns#"
   xmlns:svg="http://www.w3.org/2000/svg"
   xmlns="http://www.w3.org/2000/svg"
   xmlns:sodipodi="http://sodipodi.sourceforge.net/DTD/sodipodi-0.dtd"
   xmlns:inkscape="http://www.inkscape.org/namespaces/inkscape"
   version="1.0"
   width="100"
   height="100"
   id="svg2833"
   inkscape:version="0.48.3.1 r9886"
   sodipodi:docname="BlackCanon.svg">
  <sodipodi:namedview
     pagecolor="#ffffff"
     bordercolor="#666666"
     borderopacity="1"
     objecttolerance="10"
     gridtolerance="10"
     guidetolerance="10"
     inkscape:pageopacity="0"
     inkscape:pageshadow="2"
     inkscape:window-width="1059"
     inkscape:window-height="884"
     id="namedview3034"
     showgrid="false"
     inkscape:zoom="4.3544519"
     inkscape:cx="59.521279"
     inkscape:cy="34.612685"
     inkscape:window-x="0"
     inkscape:window-y="27"
     inkscape:window-maximized="0"
     inkscape:current-layer="svg2833" />
  <defs
     id="defs2835" />
  <metadata
     id="metadata2838">
    <rdf:RDF>
      <cc:Work
         rdf:about="">
        <dc:format>image/svg+xml</dc:format>
        <dc:type
           rdf:resource="http://purl.org/dc/dcmitype/StillImage" />
        <dc:title />
      </cc:Work>
    </rdf:RDF>
  </metadata>
  <g
     id="g3358">
    <path
       sodipodi:nodetypes="ccccccccccscccccc"
       inkscape:connector-curvature="0"
       id="path3345"
       d="m 14.5625,23.71875 c -0.855919,4.992515 -7.4650395,12.051407 -4.53125,15.6875 4.677638,-0.95495 10.26485,0.402562 15.512362,3.481749 7.460632,4.01405 7.452164,11.663548 -3.137362,7.799501 -2.299145,0.05143 -3.440446,0.123985 -8.5,0.175581 0,7.739583 0,25.303586 0,33.043169 3.488559,0.911573 9.811659,-2.423417 10.09375,2.8125 3.162155,7.238164 15.191312,5.114717 15.59375,-2.8125 6.531951,0.179037 13.196918,0.06658 18.625,0.06278 0.941022,8.065286 13.416547,9.699856 15.90625,1.968468 0.09806,-0.99702 0.361996,-2.608085 1.0428,-2.602569 2.967909,0.02404 6.268184,-0.05846 9.532539,-0.103907 0.03254,-6.480089 -0.732115,-14.141363 1.424661,-19.762274 4.744888,0.366514 6.721215,-6.635094 2.65625,-8.90625 4.507691,-6.571819 -0.329555,-7.699632 -6.439479,-9.374264 C 61.352847,38.719241 40.363924,32.250245 19.375,25.78125 c 0.890723,-2.779788 -4.57609,-5.368106 -4.8125,-2.0625 z"
       style="color:#000000;fill:#ffffff;fill-opacity:1;fill-rule:nonzero;stroke:#ffffff;stroke-width:1.99999988000000006;stroke-linecap:butt;stroke-linejoin:miter;stroke-miterlimit:4;stroke-opacity:1;stroke-dasharray:none;marker:none;visibility:visible;display:inline;overflow:visible;enable-background:accumulate" />
    <path
       style="color:#000000;fill:#000000;fill-opacity:1;fill-rule:nonzero;stroke:#000000;stroke-width:1.99999988;stroke-linecap:butt;stroke-linejoin:miter;stroke-miterlimit:4;stroke-opacity:1;stroke-dasharray:none;marker:none;visibility:visible;display:inline;overflow:visible;enable-background:accumulate"
       id="path1821"
       inkscape:connector-curvature="0"
       d="m 16.418314,24.466548 -5.462082,13.149449 0.657121,0.340722 2.377362,-1.959115 68.17484,32.165576 6.271286,-19.016126 -70.804734,-21.848317 -0.450813,-2.552283 z" />
    <path
       style="color:#000000;fill:#000000;fill-opacity:1;fill-rule:nonzero;stroke:#000000;stroke-width:1.99999988;stroke-linecap:butt;stroke-linejoin:miter;stroke-miterlimit:4;stroke-opacity:1;stroke-dasharray:none;marker:none;visibility:visible;display:inline;overflow:visible;enable-background:accumulate"
       id="path1823"
       inkscape:connector-curvature="0"
       d="m 15.912558,52.68729 16.4874,0 0,-4.956333 34.390862,0 0,4.956333 16.386234,0 0,29.232237 -67.264496,0 z" />
    <path
       sodipodi:nodetypes="cscsc"
       inkscape:connector-curvature="0"
       style="color:#000000;fill:#ffffff;fill-opacity:1;fill-rule:nonzero;stroke:#000000;stroke-width:1.99999988000000006;stroke-linecap:butt;stroke-linejoin:miter;stroke-miterlimit:4;stroke-opacity:1;stroke-dasharray:none;marker:none;visibility:visible;display:inline;overflow:visible;enable-background:accumulate"
       id="path1825"
       d="m 37.659738,82.728724 c 0.0028,3.285421 -2.985851,6.276644 -6.271273,6.276644 -3.285423,0 -6.274088,-2.991223 -6.271274,-6.276644 -0.0028,-3.285421 2.985851,-6.276644 6.271273,-6.276644 3.285423,0 6.274088,2.991223 6.271274,6.276644 z" />
    <path
       inkscape:connector-curvature="0"
       style="color:#000000;fill:#ffffff;fill-opacity:1;fill-rule:nonzero;stroke:#000000;stroke-width:1.99999988000000006;stroke-linecap:butt;stroke-linejoin:miter;stroke-miterlimit:4;stroke-opacity:1;stroke-dasharray:none;marker:none;visibility:visible;display:inline;overflow:visible;enable-background:accumulate"
       id="path1827"
       d="m 72.657508,82.728724 a 6.2712758,6.2712758 0 1 1 -12.542547,0 6.2712758,6.2712758 0 1 1 12.542547,0 z" />
    <path
       inkscape:connector-curvature="0"
       style="color:#000000;fill:#000000;fill-opacity:1;fill-rule:nonzero;stroke:#000000;stroke-width:1.99999988;stroke-linecap:butt;stroke-linejoin:miter;stroke-miterlimit:4;stroke-opacity:1;stroke-dasharray:none;marker:none;visibility:visible;display:inline;overflow:visible;enable-background:accumulate"
       id="path1829"
       d="m 89.043767,58.655117 a 2.8321891,2.8321891 0 1 1 -5.664377,0 2.8321891,2.8321891 0 1 1 5.664377,0 z" />
    <path
       style="color:#000000;fill:none;stroke:#ffffff;stroke-width:1.99999988000000006;stroke-linecap:butt;stroke-linejoin:miter;stroke-miterlimit:4;stroke-opacity:1;stroke-dasharray:none;marker:none;visibility:visible;display:inline;overflow:visible;enable-background:accumulate"
       id="path1836"
       inkscape:connector-curvature="0"
       d="m 32.399958,47.730957 34.390862,0 0,4.956333 16.386234,0 0,7.990818" />
  </g>
</svg>
