<?xml version="1.0" encoding="UTF-8" standalone="no"?>
<!-- Created with Inkscape (http://www.inkscape.org/) -->

<svg
   xmlns:dc="http://purl.org/dc/elements/1.1/"
   xmlns:cc="http://creativecommons.org/ns#"
   xmlns:rdf="http://www.w3.org/1999/02/22-rdf-syntax-ns#"
   xmlns:svg="http://www.w3.org/2000/svg"
   xmlns="http://www.w3.org/2000/svg"
   xmlns:sodipodi="http://sodipodi.sourceforge.net/DTD/sodipodi-0.dtd"
   xmlns:inkscape="http://www.inkscape.org/namespaces/inkscape"
   version="1.0"
   width="100"
   height="100"
   id="svg2833"
   inkscape:version="0.48.3.1 r9886"
   sodipodi:docname="BlackUnicorn.svg">
  <sodipodi:namedview
     pagecolor="#ffffff"
     bordercolor="#666666"
     borderopacity="1"
     objecttolerance="10"
     gridtolerance="10"
     guidetolerance="10"
     inkscape:pageopacity="0"
     inkscape:pageshadow="2"
     inkscape:window-width="1270"
     inkscape:window-height="918"
     id="namedview3177"
     showgrid="false"
     inkscape:zoom="4.5760857"
     inkscape:cx="52.908208"
     inkscape:cy="56.381367"
     inkscape:window-x="0"
     inkscape:window-y="27"
     inkscape:window-maximized="0"
     inkscape:current-layer="svg2833" />
  <defs
     id="defs2835" />
  <metadata
     id="metadata2838">
    <rdf:RDF>
      <cc:Work
         rdf:about="">
        <dc:format>image/svg+xml</dc:format>
        <dc:type
           rdf:resource="http://purl.org/dc/dcmitype/StillImage" />
        <dc:title />
      </cc:Work>
    </rdf:RDF>
  </metadata>
  <g
     id="g3224">
    <path
       sodipodi:nodetypes="cccccccccccccccccc"
       inkscape:connector-curvature="0"
       id="path4298-8"
       d="m 47.21875,6.65625 c -2.271724,2.2470091 -3.676288,6.331376 -5.4375,8.15625 -3.110977,0.450973 -3.418053,-4.541031 -6.59375,-5.09375 -1.288903,-1.0227694 -4.89394,-2.510931 -7.646409,-2.233007 0.258679,1.6895582 1.586624,1.6371121 1.771409,3.795507 0.697762,4.367378 0.944146,9.447859 -3.1875,12.25 -5.810231,6.616514 -3.460182,16.517821 -9.613562,23.053215 -4.225117,5.82562 -8.8015571,15.55512 -2.105188,21.353035 2.380373,2.605482 6.644578,0.874145 8.875,1.875 3.633697,3.741753 8.046173,-0.738973 9.65625,-4.15625 4.337621,-6.922994 11.629391,-10.31079 18.4375,-14.1875 2.032288,-0.860927 -0.19068,4.794929 -0.8125,6.46875 -4.724769,8.349657 -18.079135,18.024077 -17.4375,32.772821 l 59.71875,0 C 92.199607,67.950084 89.938085,42.910932 75.0625,24.71875 69.401761,19.045161 61.187187,15.168547 53.59375,14.625 53.026967,11.013672 48.875,4.8142278 48.875,4.8142278 c 0,0 -1.104167,1.2795222 -1.65625,1.8420222 z"
       style="fill:#ffffff;fill-opacity:1;stroke:#ffffff;stroke-width:0.74352384px;stroke-opacity:1" />
    <path
       style="color:#000000;fill:#ffffff;fill-opacity:1;fill-rule:nonzero;stroke:#000000;stroke-width:0.99999994;stroke-linecap:round;stroke-linejoin:miter;stroke-miterlimit:4;stroke-opacity:1;stroke-dasharray:none;marker:none;visibility:visible;display:inline;overflow:visible;enable-background:accumulate"
       id="path1471"
       inkscape:connector-curvature="0"
       d="m 28.857811,66.844865 c 0,0 5.730339,5.50075 7.995813,5.363241 -1.732419,-3.025426 -2.13222,-4.400597 -1.998953,-5.638272 1.199377,0.550076 3.464852,-1.237675 3.464852,-1.237675 -1.199378,-0.412554 -5.463806,-3.162936 -6.130128,-4.950687 z" />
    <path
       style="color:#000000;fill:#ffffff;fill-opacity:1;fill-rule:nonzero;stroke:#000000;stroke-width:0.99999994;stroke-linecap:round;stroke-linejoin:miter;stroke-miterlimit:4;stroke-opacity:1;stroke-dasharray:none;marker:none;visibility:visible;display:inline;overflow:visible;enable-background:accumulate"
       id="path1469"
       inkscape:connector-curvature="0"
       d="M 27.389182,27.865874 8.3543883,5.5005529 32.100756,23.587294 z" />
    <path
       style="fill:#000000;fill-opacity:1;stroke:#000000;stroke-width:0.74352384px;stroke-opacity:1"
       id="BlackKnight-0-5"
       inkscape:connector-curvature="0"
       d="m 39.894701,15.817193 3.285829,0.07898 C 43.035071,12.294 48.899895,6.400038 48.899895,6.400038 c 0,0 3.385007,3.919739 3.931946,9.447953 7.639589,-0.315289 14.201811,3.848577 16.725717,5.45274 15.989961,10.16307 22.248919,43.077132 22.21615,68.327513 L 34.004596,89.441057 C 33.737908,72.085573 54.026577,65.57909 53.432575,49.095904 c -5.12667,4.114506 -10.841663,5.234397 -15.367856,9.166876 -3.593952,3.122532 -5.445767,6.779953 -9.029168,11.167943 -1.321003,1.617617 -4.847969,0.900543 -5.987219,-1.450594 -5.696314,1.763356 -11.169888,0.02355 -11.041172,-8.366534 0.113972,-7.427518 7.352722,-14.139947 9.841372,-21.110434 1.072841,-3.004933 0.922805,-7.649301 2.617789,-10.992702 1.316106,-2.596058 4.278312,-5.60283 5.635764,-6.590584 1.054328,-3.701965 0.823101,-9.972853 -0.922357,-12.3743025 2.54547,-0.7504529 8.387679,2.9189805 10.714973,7.2716205 z m -16.640385,48.911243 1.708894,0.587781 1.708894,-5.877862 -0.569631,0 z M 18.444089,61.71608 c 3.362418,-0.163254 4.911815,-7.61489 1.495296,-7.518803 -3.773821,0.106102 -4.396644,7.659686 -1.495296,7.518803 z m 36.033147,-15.160034 1.13925,0 c 1.748496,-0.583719 2.377435,-5.722744 1.708895,-6.465656 -0.992868,0.273458 -1.613922,4.114506 -2.848145,6.465656 z m -24.181629,-9.731134 1.13925,-2.938931 c 3.417788,0.587794 5.126682,-1.175562 4.557051,-4.702287 l 2.848144,-0.587794 0,-0.587781 c -5.12667,-1.175575 -9.683721,3.526712 -8.544445,8.816793 z M 34.646944,22.40779 c 1.139262,0 5.029979,-0.150091 6.169229,-0.737885 10.823009,-3.526712 -5.029967,-5.727771 -6.169229,0.737885 z" />
    <path
       inkscape:connector-curvature="0"
       style="color:#000000;fill:#ffffff;fill-opacity:1;fill-rule:nonzero;stroke:#ffffff;stroke-width:1.00000012;stroke-linecap:round;stroke-linejoin:miter;stroke-miterlimit:4;stroke-opacity:1;stroke-dasharray:none;marker:none;visibility:visible;display:inline;overflow:visible;enable-background:accumulate"
       id="path1478"
       d="m 53.860754,19.150432 a 1.666326,0.75430222 82.273165 1 1 -1.492647,0.219328 1.666326,0.75430222 82.273165 1 1 1.492647,-0.219328 z" />
  </g>
</svg>
