<?xml version="1.0" encoding="UTF-8" standalone="no"?>
<!-- Created with Inkscape (http://www.inkscape.org/) -->

<svg
   xmlns:dc="http://purl.org/dc/elements/1.1/"
   xmlns:cc="http://creativecommons.org/ns#"
   xmlns:rdf="http://www.w3.org/1999/02/22-rdf-syntax-ns#"
   xmlns:svg="http://www.w3.org/2000/svg"
   xmlns="http://www.w3.org/2000/svg"
   xmlns:sodipodi="http://sodipodi.sourceforge.net/DTD/sodipodi-0.dtd"
   xmlns:inkscape="http://www.inkscape.org/namespaces/inkscape"
   version="1.0"
   width="100"
   height="100"
   id="svg2833"
   inkscape:version="0.48.3.1 r9886"
   sodipodi:docname="BlackPawn.svg">
  <sodipodi:namedview
     pagecolor="#ffffff"
     bordercolor="#666666"
     borderopacity="1"
     objecttolerance="10"
     gridtolerance="10"
     guidetolerance="10"
     inkscape:pageopacity="0"
     inkscape:pageshadow="2"
     inkscape:window-width="1111"
     inkscape:window-height="942"
     id="namedview3122"
     showgrid="false"
     inkscape:zoom="6.6928125"
     inkscape:cx="42.5547"
     inkscape:cy="50.448242"
     inkscape:window-x="0"
     inkscape:window-y="27"
     inkscape:window-maximized="0"
     inkscape:current-layer="svg2833" />
  <defs
     id="defs2835" />
  <metadata
     id="metadata2838">
    <rdf:RDF>
      <cc:Work
         rdf:about="">
        <dc:format>image/svg+xml</dc:format>
        <dc:type
           rdf:resource="http://purl.org/dc/dcmitype/StillImage" />
        <dc:title />
      </cc:Work>
    </rdf:RDF>
  </metadata>
  <g
     id="g3575">
    <path
       inkscape:connector-curvature="0"
       id="path3571"
       d="m 48.90625,14.03125 c -7.799869,0.283873 -12.986179,10.175473 -8.03125,16.5 -9.423631,4.055402 -12.030823,17.83994 -4.125,24.625 2.453551,1.889109 -3.69746,2.976634 -4.78125,5 C 23.246381,67.636049 19.372008,79.669253 20.34375,91 c 19.770833,0 39.541667,0 59.3125,0 1.299337,-13.684176 -4.985281,-28.488386 -17.5625,-34.84375 8.284173,-5.834561 7.555482,-19.443149 -1.125,-24.53125 -3.737623,-1.049489 1.090275,-4.335257 0.0625,-7.0625 0.15987,-6.267189 -6.007662,-11.234145 -12.125,-10.53125 z"
       style="color:#000000;fill:#ffffff;fill-opacity:1;fill-rule:nonzero;stroke:#ffffff;stroke-width:1.99999988000000006;stroke-linecap:butt;stroke-linejoin:miter;stroke-miterlimit:4;stroke-opacity:1;stroke-dashoffset:0;marker:none;visibility:visible;display:inline;overflow:visible;enable-background:accumulate" />
    <path
       d="m 49.979524,16.000005 c -4.99989,0 -9.02473,3.820493 -9.02473,8.555112 0,2.694657 1.31064,5.109558 3.36376,6.681141 -6.05375,1.999801 -10.33741,7.090392 -10.33741,13.077102 0,5.254737 3.29969,9.828267 8.20429,12.221587 -11.530117,3.98182 -19.936436,15.84515 -19.936436,30.75402 0,0.57967 0.01588,1.13875 0.04096,1.71103 l 55.420046,0 c 0.0252,-0.57228 0.041,-1.13136 0.041,-1.71103 0,-14.90887 -8.40629,-26.7722 -19.93646,-30.75402 4.90462,-2.39332 8.20431,-6.96685 8.20431,-12.221587 0,-5.98671 -4.28366,-11.077301 -10.33742,-13.077102 2.05313,-1.571584 3.36376,-3.986484 3.36376,-6.681141 0,-4.73462 -4.06585,-8.555113 -9.06575,-8.555113 z"
       inkscape:connector-curvature="0"
       id="path3789"
       style="color:#000000;fill:#000000;fill-opacity:1;fill-rule:nonzero;stroke:#000000;stroke-width:1.99999988;stroke-linecap:butt;stroke-linejoin:miter;stroke-miterlimit:4;stroke-opacity:1;stroke-dashoffset:0;marker:none;visibility:visible;display:inline;overflow:visible;enable-background:accumulate" />
  </g>
</svg>
