<?xml version="1.0" encoding="UTF-8" standalone="no"?>
<!-- Created with Inkscape (http://www.inkscape.org/) -->

<svg
   xmlns:dc="http://purl.org/dc/elements/1.1/"
   xmlns:cc="http://creativecommons.org/ns#"
   xmlns:rdf="http://www.w3.org/1999/02/22-rdf-syntax-ns#"
   xmlns:svg="http://www.w3.org/2000/svg"
   xmlns="http://www.w3.org/2000/svg"
   xmlns:sodipodi="http://sodipodi.sourceforge.net/DTD/sodipodi-0.dtd"
   xmlns:inkscape="http://www.inkscape.org/namespaces/inkscape"
   version="1.0"
   width="100"
   height="100"
   id="svg2833"
   inkscape:version="0.48.3.1 r9886"
   sodipodi:docname="BlackGoldSilver.svg">
  <sodipodi:namedview
     pagecolor="#ffffff"
     bordercolor="#666666"
     borderopacity="1"
     objecttolerance="10"
     gridtolerance="10"
     guidetolerance="10"
     inkscape:pageopacity="0"
     inkscape:pageshadow="2"
     inkscape:window-width="1034"
     inkscape:window-height="960"
     id="namedview3022"
     showgrid="false"
     inkscape:zoom="6.85875"
     inkscape:cx="50.353914"
     inkscape:cy="50"
     inkscape:window-x="0"
     inkscape:window-y="27"
     inkscape:window-maximized="0"
     inkscape:current-layer="svg2833" />
  <defs
     id="defs2835" />
  <metadata
     id="metadata2838">
    <rdf:RDF>
      <cc:Work
         rdf:about="">
        <dc:format>image/svg+xml</dc:format>
        <dc:type
           rdf:resource="http://purl.org/dc/dcmitype/StillImage" />
        <dc:title />
      </cc:Work>
    </rdf:RDF>
  </metadata>
  <g
     id="g3312">
    <path
       inkscape:connector-curvature="0"
       id="path3308"
       d="m 49.34375,16.59375 c -11.705137,0.311065 -22.757249,5.725501 -30.75,14 C 9.0658163,37.895143 7.0595712,51.738345 10.5,62.625 7.1767713,68.864367 9.901567,76.055143 13.21875,81.5625 22.457775,89.66437 35.794041,90.137595 47.5,91 60.301182,90.57843 73.726021,87.727178 84.40625,80.46875 92.474447,71.813121 92.994883,57.481928 87.8125,47.21875 84.892774,43.37539 85.709613,37.637081 82.78125,33.53125 76.573724,21.444939 62.41637,15.88318 49.34375,16.59375 z"
       style="color:#000000;fill:#ffffff;fill-opacity:1;fill-rule:nonzero;stroke:#ffffff;stroke-width:2;stroke-linecap:butt;stroke-linejoin:miter;stroke-miterlimit:4;stroke-opacity:1;stroke-dasharray:none;marker:none;visibility:visible;display:inline;overflow:visible;enable-background:accumulate" />
    <path
       style="color:#000000;fill:#000000;fill-opacity:1;fill-rule:nonzero;stroke:#000000;stroke-width:2;stroke-linecap:butt;stroke-linejoin:miter;stroke-miterlimit:4;stroke-opacity:1;stroke-dasharray:none;marker:none;visibility:visible;display:inline;overflow:visible;enable-background:accumulate"
       id="path687"
       inkscape:connector-curvature="0"
       d="m 13.092811,76.499677 c 0.406531,8.877882 23.039302,12.49978 35.631702,12.500325 12.7292,5.46e-4 35.675288,-7.317463 36.019903,-12.632992 C 91.069093,70.588833 90.012058,50.038163 84.459035,46.584718 81.537251,13.709875 38.633995,11.374211 21.32911,31.140901 10.371733,38.055147 9.1680187,53.114667 12.704625,62.723375 10.771183,66.515737 9.8077209,70.40498 13.092811,76.499677 z" />
    <path
       style="color:#000000;fill:none;stroke:#ffffff;stroke-width:2;stroke-linecap:butt;stroke-linejoin:miter;stroke-miterlimit:4;stroke-opacity:1;stroke-dasharray:none;marker:none;visibility:visible;display:inline;overflow:visible;enable-background:accumulate"
       id="path689"
       inkscape:connector-curvature="0"
       d="m 24.932782,31.361989 c 18.994816,1.324548 41.3597,5.866469 57.359884,13.892636" />
    <path
       style="color:#000000;fill:none;stroke:#ffffff;stroke-width:2;stroke-linecap:butt;stroke-linejoin:miter;stroke-miterlimit:4;stroke-opacity:1;stroke-dasharray:none;marker:none;visibility:visible;display:inline;overflow:visible;enable-background:accumulate"
       id="path691"
       inkscape:connector-curvature="0"
       d="M 15.244122,62.486786 C 30.820049,59.041543 55.562407,64.32225 83.111945,74.716088" />
    <path
       style="color:#000000;fill:none;stroke:#ffffff;stroke-width:2;stroke-linecap:butt;stroke-linejoin:miter;stroke-miterlimit:4;stroke-opacity:1;stroke-dasharray:none;marker:none;visibility:visible;display:inline;overflow:visible;enable-background:accumulate"
       id="path693"
       inkscape:connector-curvature="0"
       d="M 15.882007,75.026272 C 29.640796,65.736296 50.864618,61.092048 83.033875,74.863882" />
    <path
       inkscape:connector-curvature="0"
       style="color:#000000;fill:#ffffff;fill-opacity:1;fill-rule:nonzero;stroke:#ffffff;stroke-width:2;stroke-linecap:butt;stroke-linejoin:miter;stroke-miterlimit:4;stroke-opacity:1;stroke-dasharray:none;marker:none;visibility:visible;display:inline;overflow:visible;enable-background:accumulate"
       id="path739"
       d="m 54.184604,56.985992 -4.663853,-3.357254 -4.677945,3.337788 1.7676,-5.45108 -4.635774,-3.395542 5.756293,-0.01171 1.812868,-5.436347 1.789982,5.443862 5.756199,0.03568 -4.650021,3.376194 z" />
  </g>
</svg>
