<?xml version="1.0" encoding="UTF-8" standalone="no"?>
<!-- Created with Inkscape (http://www.inkscape.org/) -->

<svg
   xmlns:dc="http://purl.org/dc/elements/1.1/"
   xmlns:cc="http://creativecommons.org/ns#"
   xmlns:rdf="http://www.w3.org/1999/02/22-rdf-syntax-ns#"
   xmlns:svg="http://www.w3.org/2000/svg"
   xmlns="http://www.w3.org/2000/svg"
   xmlns:sodipodi="http://sodipodi.sourceforge.net/DTD/sodipodi-0.dtd"
   xmlns:inkscape="http://www.inkscape.org/namespaces/inkscape"
   version="1.0"
   width="100"
   height="100"
   id="svg2833"
   inkscape:version="0.48.3.1 r9886"
   sodipodi:docname="BlackKnight.svg">
  <sodipodi:namedview
     pagecolor="#ffffff"
     bordercolor="#666666"
     borderopacity="1"
     objecttolerance="10"
     gridtolerance="10"
     guidetolerance="10"
     inkscape:pageopacity="0"
     inkscape:pageshadow="2"
     inkscape:window-width="965"
     inkscape:window-height="867"
     id="namedview3078"
     showgrid="false"
     inkscape:zoom="4.2436351"
     inkscape:cx="25.031665"
     inkscape:cy="64.394231"
     inkscape:window-x="0"
     inkscape:window-y="27"
     inkscape:window-maximized="0"
     inkscape:current-layer="svg2833" />
  <defs
     id="defs2835" />
  <metadata
     id="metadata2838">
    <rdf:RDF>
      <cc:Work
         rdf:about="">
        <dc:format>image/svg+xml</dc:format>
        <dc:type
           rdf:resource="http://purl.org/dc/dcmitype/StillImage" />
        <dc:title />
      </cc:Work>
    </rdf:RDF>
  </metadata>
  <g
     id="g3468">
    <path
       sodipodi:nodetypes="csccczsscszcccccc"
       inkscape:connector-curvature="0"
       id="path4298"
       d="m 46.375,3.75 c -2.152279,2.9027646 -4.676923,6.805836 -6.402909,10.180676 -0.41721,0.815777 -0.541308,0.304004 -1.930346,0.319441 -2.169935,-3.250245 -7.620552,-8.5901906 -12.718457,-7.3227017 0.865046,2.023649 1.401564,7.8155117 1.234511,11.9842407 -1.848359,1.798209 -6.357743,7.14792 -7.077851,9.597491 -0.720109,2.449571 0.926688,7.475352 -9.302708,22.261315 -3.7384934,5.403762 -4.4949797,16.942858 3.010201,17.989974 2.286142,0.318961 4.420015,0.02928 6.435029,-0.250395 1.036635,1.085419 3.21723,2.147278 4.762761,2.187924 3.124621,0.08218 8.228264,-10.297522 13.39596,-13.354098 5.167697,-3.056576 8.100084,-4.63567 12.989857,-6.864739 C 50.030537,63.312869 30.51428,71.467295 29.916862,90.488919 l 62.833138,0 C 92.037457,66.668543 89.699762,40.318496 72.34375,22.28125 66.498556,17.399745 59.277156,14.42216 51.71875,13.59375 50.954783,9.8438353 49.010899,6.3913917 46.375,3.75 z"
       style="opacity:0.98999999000000005;fill:#ffffff;fill-opacity:1;stroke:#ffffff;stroke-width:0.74352372000000000px;stroke-opacity:1" />
    <path
       style="opacity:0.98999999;fill:#000000;fill-opacity:1;stroke:#000000;stroke-width:0.74352372px;stroke-opacity:1"
       id="BlackKnight-0"
       inkscape:connector-curvature="0"
       d="m 37.442023,14.905617 3.440137,0.07996 c -0.152287,-3.646672 5.987957,-9.613418 5.987957,-9.613418 0,0 3.543973,3.9681491 4.116591,9.564632 7.998355,-0.319182 14.868742,3.896109 17.511172,5.520087 16.740875,10.288586 23.293758,43.609143 23.259451,69.171356 L 31.275312,89.43874 C 30.996101,71.868918 52.237558,65.282082 51.615655,48.595331 c -5.367428,4.165315 -11.350805,5.299043 -16.089541,9.280085 -3.762733,3.161091 -5.701513,6.863679 -9.453188,11.305869 -1.38304,1.637591 -5.075637,0.911668 -6.268393,-1.468516 -5.963812,1.78514 -11.6944383,0.0239 -11.5596728,-8.46985 C 8.36416,51.723656 15.942876,44.928328 18.548389,37.871761 c 1.123219,-3.042042 0.966138,-7.743769 2.740721,-11.128457 1.377916,-2.628122 4.479229,-5.672034 5.900429,-6.671983 1.103843,-3.747686 0.861755,-10.0960166 -0.965673,-12.5271312 2.665005,-0.7597234 8.781582,2.9550322 11.218157,7.3614272 z m 13.887323,2.89926 0,3.704478 c 5.153438,-0.0046 11.835103,2.727162 16.61767,7.094027 9.561334,8.730255 13.848194,30.25241 15.770084,49.842554 0.541152,4.579365 1.051985,8.318845 5.317712,8.636332 C 89.237623,71.393721 84.133188,38.972234 73.694554,28.123116 67.05424,21.221684 59.652802,18.158669 51.329346,17.804877 z m -31.309149,46.61604 1.789147,0.595044 1.789145,-5.950457 -0.596392,0 z m -5.036123,-3.049548 c 3.520319,-0.165278 5.142477,-7.708943 1.565521,-7.611674 -3.951046,0.107448 -4.603127,7.754291 -1.565521,7.611674 z m 37.725295,-15.347271 1.192756,0 c 1.830607,-0.590927 2.489079,-5.793423 1.789147,-6.54551 -1.039499,0.276838 -1.689715,4.165326 -2.981903,6.54551 z m -25.317221,-9.851307 1.192755,-2.975229 c 3.578295,0.595044 5.367428,-1.190087 4.77105,-4.760368 l 2.981903,-0.595044 0,-0.595043 c -5.367428,-1.190097 -10.138478,3.570271 -8.945708,8.925684 z m 4.555685,-14.595186 c 1.192756,0 5.266191,-0.151944 6.458946,-0.746987 11.331261,-3.570272 -5.26619,-5.798512 -6.458946,0.746987 z" />
  </g>
</svg>
