<?xml version="1.0" encoding="UTF-8" standalone="no"?>
<!-- Created with Inkscape (http://www.inkscape.org/) -->

<svg
   xmlns:dc="http://purl.org/dc/elements/1.1/"
   xmlns:cc="http://creativecommons.org/ns#"
   xmlns:rdf="http://www.w3.org/1999/02/22-rdf-syntax-ns#"
   xmlns:svg="http://www.w3.org/2000/svg"
   xmlns="http://www.w3.org/2000/svg"
   xmlns:inkscape="http://www.inkscape.org/namespaces/inkscape"
   version="1.0"
   width="100"
   height="100"
   id="svg2">
  <metadata
     id="metadata8">
    <rdf:RDF>
      <cc:Work
         rdf:about="">
        <dc:format>image/svg+xml</dc:format>
        <dc:type
           rdf:resource="http://purl.org/dc/dcmitype/StillImage" />
        <dc:title />
      </cc:Work>
    </rdf:RDF>
  </metadata>
  <defs
     id="defs6" />
  <rect
     width="100"
     height="100"
     x="0"
     y="0"
     id="rect2827"
     style="color:#000000;fill:#ffffff;fill-opacity:1;fill-rule:nonzero;stroke:none;stroke-width:0.1;marker:none;visibility:visible;display:inline;overflow:visible;enable-background:accumulate" />
  <path
     d="M 0,0 0,100 100,100 100,0 0,0 z m 45.84375,5.09375 c 3.782737,-0.6304527 5.035226,7.582845 8.1875,8.84375 5.043643,1.891369 10.112586,1.878976 15.15625,5.03125 C 84.948871,29.056036 89.97818,48.602714 92.5,65.625 c 1.26091,6.935012 1.875,13.877489 1.875,20.8125 0,1.891369 0.63591,5.676595 -0.625,6.9375 -1.89137,2.521832 -11.347726,1.25 -14.5,1.25 l -37.8125,0 c -4.41319,0 -11.974213,1.903762 -11.34375,-5.03125 C 33.246024,73.832369 51.525786,66.891834 52.15625,50.5 46.482154,54.91318 39.543643,56.80556 34.5,61.21875 30.717273,64.371024 27.563988,70.665678 23.78125,73.1875 21.259429,74.448405 18.729656,73.178072 17.46875,70.65625 11.164201,72.547619 4.869536,68.153751 5.5,61.21875 c 0.630452,-8.195928 6.311023,-14.502488 10.09375,-21.4375 2.521822,-4.413179 1.889881,-8.83682 3.78125,-13.25 1.260905,-3.152284 4.395334,-5.035226 5.65625,-8.1875 1.891359,-2.521821 -2.527274,-10.1031785 0.625,-12.625 3.152274,-2.5218214 10.739094,6.321928 12,8.84375 2.521821,-1.891358 5.035226,-8.8382973 8.1875,-9.46875 z m 7.5625,12.3125 c -0.844442,0.01991 -1.703778,0.135185 -2.53125,0.3125 1.891368,3.782737 5.691476,3.139892 8.84375,5.03125 4.41319,1.260916 7.566476,5.035226 10.71875,8.1875 9.456833,11.978654 13.875,30.900332 13.875,46.03125 0,5.674096 -1.284205,14.5 6.28125,14.5 0,-20.805024 -1.879988,-44.758963 -15.75,-61.78125 C 70.272949,23.973994 61.569191,17.213759 53.40625,17.40625 z m -16.5,1 c -2.429623,0.100201 -5.635854,1.309687 -6.1875,4.34375 1.260905,0 3.145345,0.0055 4.40625,-0.625 6.737993,-2.127784 4.90505,-3.84758 1.78125,-3.71875 z m -3.875,8.5625 c -4.749346,0.198245 -8.478301,4.691417 -7.375,9.65625 l 1.28125,-3.15625 c 3.782737,0.630453 5.661703,-1.248512 5.03125,-5.03125 l 3.15625,-0.65625 0,-0.625 c -0.709262,-0.157615 -1.415272,-0.215821 -2.09375,-0.1875 z m 22.28125,14.0625 c -2.521822,1.260906 -3.15625,4.415679 -3.15625,6.9375 l 1.25,0 1.90625,-6.9375 z m -41,15.125 c -3.152274,0 -3.777284,6.317953 -0.625,5.6875 3.152275,-0.630452 4.407728,-5.6875 0.625,-5.6875 z m 6.9375,6.3125 -3.15625,5.6875 1.90625,0.625 1.875,-6.3125 -0.625,0 z"
     inkscape:connector-curvature="0"
     id="rect2946"
     style="color:#000000;fill:#000000;fill-opacity:1;fill-rule:nonzero;stroke:#000000;stroke-width:0.1;stroke-linecap:butt;stroke-linejoin:miter;stroke-miterlimit:4;stroke-opacity:1;stroke-dasharray:none;stroke-dashoffset:0;marker:none;visibility:visible;display:inline;overflow:visible;enable-background:accumulate" />
</svg>
