<?xml version="1.0" encoding="UTF-8" standalone="no"?>
<!-- Created with Inkscape (http://www.inkscape.org/) -->

<svg
   xmlns:dc="http://purl.org/dc/elements/1.1/"
   xmlns:cc="http://creativecommons.org/ns#"
   xmlns:rdf="http://www.w3.org/1999/02/22-rdf-syntax-ns#"
   xmlns:svg="http://www.w3.org/2000/svg"
   xmlns="http://www.w3.org/2000/svg"
   xmlns:inkscape="http://www.inkscape.org/namespaces/inkscape"
   version="1.1"
   width="128"
   height="128"
   id="svg2">
  <defs
     id="defs4" />
  <metadata
     id="metadata7">
    <rdf:RDF>
      <cc:Work
         rdf:about="">
        <dc:format>image/svg+xml</dc:format>
        <dc:type
           rdf:resource="http://purl.org/dc/dcmitype/StillImage" />
      </cc:Work>
    </rdf:RDF>
  </metadata>
  <g
     id="layer1">
    <g
       id="g10964">
      <path
         d="m 9.8046247,116.56489 c 0,0 107.1261753,1.21404 106.8937853,0.40468 C 116.46604,116.16021 95.087283,18.227835 95.087283,18.227835 L 60.927745,8.1108558 26.768205,17.823157 9.8046247,116.56489 z"
         inkscape:connector-curvature="0"
         id="path2800"
         style="fill:#c3aa55;fill-opacity:1;fill-rule:evenodd;stroke:none" />
      <path
         d="m 48.359694,73.470922 c 2.3509,3.526351 3.29126,2.070583 5.877251,2.540763 2.58599,0.47018 12.224682,-4.701801 12.929952,-2.821081 0.70527,1.88072 -4.46671,3.761441 -4.23162,5.171981 0.23509,1.41054 4.936891,2.11581 5.171981,3.056171 0.23509,0.94036 -3.761441,2.58599 -3.761441,3.99653 0,1.410541 13.400133,2.115811 13.400133,5.877251 0,3.761441 -10.916414,8.864563 -15.383125,9.099653 -4.466711,0.23509 -23.349061,-4.227779 -21.761103,-6.748752 2.563486,-4.069681 17.567791,1.743009 18.508151,1.272829 0.94036,-0.470181 -9.643585,-5.407072 -14.580476,-5.171982 -4.936891,0.23509 -10.510196,1.313163 -10.275106,3.899153 0.23509,2.585991 18.572114,10.814152 27.035355,10.579062 8.463242,-0.23509 25.154636,-4.701813 22.803735,-12.459782 -2.3509,-7.757972 -10.108872,-7.052702 -11.049232,-7.993062 -0.94036,-0.94036 2.11581,-2.11581 2.11581,-3.291261 0,-1.17545 -6.347431,-1.88072 -6.112341,-3.05617 0.23509,-1.17545 6.197886,0.244228 6.582521,-3.761441 0.303946,-3.165362 -2.470566,-4.296027 -7.757971,-4.186393 -6.349307,0.131652 -8.933423,1.880721 -11.989593,2.821081 -3.056171,0.940361 -6.817611,1.41054 -7.522881,1.17545 z"
         inkscape:connector-curvature="0"
         id="path1324"
         style="fill:#000000;fill-opacity:1;fill-rule:evenodd;stroke:#000000;stroke-width:1px;stroke-linecap:butt;stroke-linejoin:miter;stroke-opacity:1" />
      <g
         transform="translate(0.166234,-1.994805)"
         id="g2064">
        <path
           d="m 63.944493,24.296767 c -0.137713,0.510515 2.585991,1.17545 3.996531,3.761441 1.41054,2.58599 -3.595207,17.793094 -2.184666,18.968544 1.41054,1.17545 5.297879,1.17545 5.76806,2.3509 0.47018,1.175451 -2.597805,3.870632 -1.422355,5.986443 1.17545,2.11581 10.700057,-2.225002 11.170238,-0.814461 0.47018,1.41054 -5.642162,6.935156 -5.877252,8.698331 2.602759,-0.136756 6.095634,-3.182069 9.621985,-6.70842 3.526351,-3.526351 5.148353,-4.060493 2.562363,-5.235944 -2.585991,-1.17545 -13.554553,3.428973 -13.554553,2.018433 0,-1.41054 3.789962,-5.630347 1.909242,-6.570707 -1.880721,-0.94036 -9.128177,1.244306 -8.187817,-1.341685 0.940361,-2.58599 3.595207,-14.169365 4.065387,-15.814995 0.47018,-1.645631 3.664064,-3.761441 0.596079,-5.06279 -3.919627,-1.662591 -7.936019,-0.997402 -8.463242,-0.23509 z"
           inkscape:connector-curvature="0"
           id="path1326"
           style="fill:#000000;fill-opacity:1;fill-rule:evenodd;stroke:#000000;stroke-width:1px;stroke-linecap:butt;stroke-linejoin:miter;stroke-opacity:1" />
        <path
           d="m 36.605192,46.556572 c 0,0 -4.701801,1.88072 2.58599,2.350901 7.287792,0.47018 9.873782,-0.705271 11.049232,0.70527 1.175451,1.41054 -4.28377,3.497829 -7.104851,6.08382 -2.82108,2.58599 -6.765462,7.316312 -5.354921,8.021582 1.41054,0.705271 4.643682,-4.31592 9.156698,-8.301901 4.758843,-4.2031 10.034073,-5.255854 10.590866,-7.214042 0.597714,-2.102103 -4.369333,-2.471906 -9.541314,-1.766636 -5.171981,0.705271 -8.48687,0.384617 -11.3817,0.121006 z"
           inkscape:connector-curvature="0"
           id="path1328"
           style="fill:#000000;fill-opacity:1;fill-rule:evenodd;stroke:#000000;stroke-width:1px;stroke-linecap:butt;stroke-linejoin:miter;stroke-opacity:1" />
        <path
           d="m 54.001855,48.907472 c 0,0 3.291261,-0.23509 5.642161,4.231621 2.350901,4.466711 0.38951,7.993062 -1.272828,8.657997 0,0 -7.660593,-1.370205 -8.365864,-2.545655 -0.70527,-1.175451 3.996531,-2.585991 4.231621,-1.645631 0.23509,0.94036 1.17545,3.291261 2.585991,2.115811 1.41054,-1.175451 1.41054,-5.877252 0.23509,-6.582522 -1.175451,-0.70527 -3.291261,-4.231621 -3.056171,-4.231621 z"
           inkscape:connector-curvature="0"
           id="path1330"
           style="fill:#000000;fill-opacity:1;fill-rule:evenodd;stroke:#000000;stroke-width:1px;stroke-linecap:butt;stroke-linejoin:miter;stroke-opacity:1" />
        <path
           d="m 41.777173,28.219548 c 2.58599,0.23509 4.23162,-0.47018 5.171981,1.17545 0.94036,1.645631 -5.022455,14.212567 -2.671555,16.093287 2.350901,1.880721 10.059314,-0.628513 10.647909,-3.146627 0.332468,-1.422355 -7.786493,2.246602 -8.256673,0.130792 -0.47018,-2.11581 5.962815,-12.991888 5.492635,-14.402428 -0.47018,-1.410541 -7.603552,-2.918459 -8.543912,-1.743009 -0.94036,1.175451 -2.075475,1.657445 -1.840385,1.892535 z"
           inkscape:connector-curvature="0"
           id="path1332"
           style="fill:#000000;fill-opacity:1;fill-rule:evenodd;stroke:#000000;stroke-width:1px;stroke-linecap:butt;stroke-linejoin:miter;stroke-opacity:1" />
        <path
           d="m 38.331492,35.896849 c 2.906644,2.339088 6.227413,1.402743 9.313145,1.203973 4.718509,-0.303948 9.551102,-0.01181 9.080922,-1.657445 -0.47018,-1.64563 -5.506476,-0.23509 -8.785923,0.04033 -2.307246,0.193775 -9.843234,0.178047 -9.608144,0.413137 z"
           inkscape:connector-curvature="0"
           id="path1334"
           style="fill:#000000;fill-opacity:1;fill-rule:evenodd;stroke:#000000;stroke-width:1px;stroke-linecap:butt;stroke-linejoin:miter;stroke-opacity:1" />
        <path
           d="m 51.027446,57.336929 c 3.681094,-4.902185 28.491131,-18.887874 32.722751,-19.122964 4.23162,-0.23509 5.183794,-0.223276 5.183794,1.657445 0,1.88072 -4.93689,1.88072 -8.46324,2.58599 -3.52635,0.70527 -23.812948,12.293538 -26.163848,14.174259 -2.35091,1.88072 -5.126761,3.165362 -3.279457,0.70527 z"
           inkscape:connector-curvature="0"
           id="path2062"
           style="fill:#000000;fill-opacity:1;fill-rule:evenodd;stroke:#000000;stroke-width:1px;stroke-linecap:butt;stroke-linejoin:miter;stroke-opacity:1" />
      </g>
      <path
         d="m 83.172578,43.36646 c 0.509029,-1.211609 3.683116,-1.441302 5.167376,-1.528855 1.678018,-0.09898 2.18934,-0.07403 2.03267,1.030036 -0.273366,1.926418 -2.722051,1.593286 -3.441274,1.405158 -0.719223,-0.188127 -3.099315,-0.195944 -3.758772,-0.906339 z"
         inkscape:connector-curvature="0"
         id="path2072"
         style="fill:#000000;fill-opacity:1;fill-rule:evenodd;stroke:#000000;stroke-width:1px;stroke-linecap:butt;stroke-linejoin:miter;stroke-opacity:1" />
    </g>
  </g>
</svg>
