<?xml version="1.0" encoding="UTF-8" standalone="no"?>
<!-- Created with Inkscape (http://www.inkscape.org/) -->

<svg
   xmlns:dc="http://purl.org/dc/elements/1.1/"
   xmlns:cc="http://creativecommons.org/ns#"
   xmlns:rdf="http://www.w3.org/1999/02/22-rdf-syntax-ns#"
   xmlns:svg="http://www.w3.org/2000/svg"
   xmlns="http://www.w3.org/2000/svg"
   xmlns:inkscape="http://www.inkscape.org/namespaces/inkscape"
   version="1.1"
   width="128"
   height="128"
   id="svg2">
  <defs
     id="defs4" />
  <metadata
     id="metadata7">
    <rdf:RDF>
      <cc:Work
         rdf:about="">
        <dc:format>image/svg+xml</dc:format>
        <dc:type
           rdf:resource="http://purl.org/dc/dcmitype/StillImage" />
      </cc:Work>
    </rdf:RDF>
  </metadata>
  <g
     id="layer1">
    <g
       id="g10964">
      <path
         d="m 9.8046247,116.56489 c 0,0 107.1261753,1.21404 106.8937853,0.40468 C 116.46604,116.16021 95.087283,18.227835 95.087283,18.227835 L 60.927745,8.1108558 26.768205,17.823157 9.8046247,116.56489 z"
         inkscape:connector-curvature="0"
         id="path2800"
         style="fill:#c3aa55;fill-opacity:1;fill-rule:evenodd;stroke:none" />
      <g
         transform="matrix(0.786183,0,0,0.935199,12.88314,7.493534)"
         id="g2075">
        <path
           d="m 39.166741,71.47843 c 3.996531,3.056171 8.724585,4.521408 10.480209,4.170283 3.526351,-0.705271 9.661826,-4.42632 10.301012,-1.484334 2.139032,9.845342 -6.224724,21.750992 -3.291261,24.449366 3.915045,3.601295 12.792127,-25.934871 9.541698,-30.649616 -2.494449,-3.618197 -5.846652,-0.487706 -14.008408,1.301575 -6.358278,1.393909 -12.31798,1.507456 -13.02325,2.212726 z"
           inkscape:connector-curvature="0"
           id="path1327"
           style="fill:#000000;fill-opacity:1;fill-rule:evenodd;stroke:#000000;stroke-width:1px;stroke-linecap:butt;stroke-linejoin:miter;stroke-opacity:1" />
        <path
           d="m 31.737156,99.955197 c -2.3509,1.410533 -4.231621,2.890163 -1.41054,4.065613 2.821081,1.17546 4.701801,-0.47018 12.224682,-2.3509 7.522882,-1.880716 26.094996,-3.761436 32.912607,-2.821076 6.817611,0.94036 14.105403,5.407066 17.631753,3.761436 3.526351,-1.64563 3.526351,-0.53927 1.645631,-2.890164 -1.88072,-2.3509 -27.505536,-4.23162 -35.498597,-3.29126 -7.993062,0.94036 -27.035356,3.291261 -27.505536,3.526351 z"
           inkscape:connector-curvature="0"
           id="path1329"
           style="fill:#000000;fill-opacity:1;fill-rule:evenodd;stroke:#000000;stroke-width:1px;stroke-linecap:butt;stroke-linejoin:miter;stroke-opacity:1" />
        <path
           d="m 54.070711,94.147034 c -1.645631,1.41054 -9.86169,-3.144999 -10.814142,-5.407072 -1.880721,-4.46671 8.534584,-6.652334 14.810673,-7.923974 7.90009,-1.60069 15.104355,-4.847783 17.866843,-1.244538 5.407071,7.052702 -13.400133,17.396663 -14.575583,16.456303 -1.17545,-0.94036 12.459773,-10.177957 9.873782,-13.497048 -0.986361,-1.265984 -23.601073,2.19556 -24.449365,5.033807 -0.664346,2.222791 7.287792,6.817612 7.287792,6.582522 z"
           inkscape:connector-curvature="0"
           id="path1331"
           style="fill:#000000;fill-opacity:1;fill-rule:evenodd;stroke:#000000;stroke-width:1px;stroke-linecap:butt;stroke-linejoin:miter;stroke-opacity:1" />
      </g>
      <g
         transform="matrix(1.036664,-0.02174942,0.02123065,1.061995,-3.652085,-1.466228)"
         id="g2872">
        <path
           d="m 57.329292,63.223532 c -2.539098,1.382136 -7.226662,-1.796779 -6.836032,-4.561051 0.39063,-2.764272 7.349779,-9.878475 14.258006,-14.927071 8.849053,-6.466968 18.326663,-12.162503 20.088365,-10.408627 2.381148,2.370571 -11.656746,7.038401 -19.111788,12.896473 -7.094372,5.574662 -13.867377,10.612239 -13.281431,11.994375 0.585945,1.382137 3.515673,3.485551 4.687564,2.656269 1.17189,-0.829282 2.734412,0.967495 0.195316,2.349632 z"
           inkscape:connector-curvature="0"
           id="path1333"
           style="fill:#000000;fill-opacity:1;fill-rule:evenodd;stroke:#000000;stroke-width:0.98838049px;stroke-linecap:butt;stroke-linejoin:miter;stroke-opacity:1" />
        <path
           d="m 64.919748,23.883161 c 3.906304,6.634255 -0.66402,18.561928 1.00341,19.299394 3.125042,1.382136 4.369371,-6.280409 4.877279,-13.879102 0.319501,-4.779971 -3.463529,-4.991115 -5.880689,-5.420292 z"
           inkscape:connector-curvature="0"
           id="path1335"
           style="fill:#000000;fill-opacity:1;fill-rule:evenodd;stroke:#000000;stroke-width:0.98838049px;stroke-linecap:butt;stroke-linejoin:miter;stroke-opacity:1" />
        <path
           d="m 82.184769,51.834476 c 2.775351,4.800102 3.906303,9.951379 3.125043,11.333516 -1.151062,2.036357 -18.228403,4.265261 -19.191339,-3.676229 -0.944823,-7.792108 1.1085,-17.459774 2.343782,-16.585634 4.296934,3.040699 -1.01709,7.072011 0.195315,14.927071 0.545808,3.536233 4.77307,3.84874 7.110896,4.085076 2.734412,0.276428 6.022113,-0.767949 6.022113,-0.767949 0,0 0.39419,-9.315851 0.39419,-9.315851 z"
           inkscape:connector-curvature="0"
           id="path1337"
           style="fill:#000000;fill-opacity:1;fill-rule:evenodd;stroke:#000000;stroke-width:0.98838049px;stroke-linecap:butt;stroke-linejoin:miter;stroke-opacity:1" />
        <path
           d="m 41.313447,48.434674 c 3.710989,3.593554 13.897616,-4.964442 13.476746,-3.317126 -0.976575,3.822394 -21.223953,16.48331 -19.18422,21.202222 1.131066,2.616715 19.281878,-17.194027 24.067099,-23.137213 1.46804,-1.823286 1.36293,-5.067102 -1.464863,-1.934991 -2.246124,2.487846 -16.699447,5.804972 -16.894762,7.187108 z"
           inkscape:connector-curvature="0"
           id="path1339"
           style="fill:#000000;fill-opacity:1;fill-rule:evenodd;stroke:#000000;stroke-width:0.98838049px;stroke-linecap:butt;stroke-linejoin:miter;stroke-opacity:1" />
        <path
           d="m 41.155208,34.323647 c 0,2.362292 4.333176,1.181145 7.503794,0.843675 3.170616,-0.33747 9.809135,0.146634 9.51185,-2.362291 -0.238685,-2.014381 -4.861612,-0.337473 -9.617538,0.168733 -2.119583,0.225602 -7.609481,1.349883 -7.398106,1.349883 z"
           inkscape:connector-curvature="0"
           id="path1341"
           style="fill:#000000;fill-opacity:1;fill-rule:evenodd;stroke:#000000;stroke-width:1.13608241px;stroke-linecap:butt;stroke-linejoin:miter;stroke-opacity:1" />
        <path
           d="m 46.853667,23.668745 c 2.039596,4.095066 3.625948,8.190131 5.665544,5.985096 2.039595,-2.205035 -4.985678,-5.985096 -5.665544,-5.985096 z"
           inkscape:connector-curvature="0"
           id="path1343"
           style="fill:#000000;fill-opacity:1;fill-rule:evenodd;stroke:#000000;stroke-width:1.13651538px;stroke-linecap:butt;stroke-linejoin:miter;stroke-opacity:1" />
        <path
           d="m 49.320171,37.394832 c -2.733268,1.713091 -7.223636,4.853759 -5.271302,6.281334 1.952334,1.427578 5.661769,-5.710304 5.271302,-6.281334 z"
           inkscape:connector-curvature="0"
           id="path1345"
           style="fill:#000000;fill-opacity:1;fill-rule:evenodd;stroke:#000000;stroke-width:1.00428617px;stroke-linecap:butt;stroke-linejoin:miter;stroke-opacity:1" />
        <path
           d="m 50.220272,44.185972 c 2.717583,-7.394796 5.205879,-8.592958 5.839496,-5.932734 0.607071,2.54877 -5.561424,5.650222 -5.839496,5.932734 z"
           inkscape:connector-curvature="0"
           id="path1347"
           style="fill:#000000;fill-opacity:1;fill-rule:evenodd;stroke:#000000;stroke-width:1.1946274px;stroke-linecap:butt;stroke-linejoin:miter;stroke-opacity:1" />
        <path
           d="m 57.225657,46.835561 c 1.493468,2.211418 3.399228,14.600339 0.860131,15.982476 -2.539097,1.382136 -2.05081,-1.10571 -0.878919,-1.934991 1.171891,-0.829282 0.01879,-13.494631 0.01879,-14.047485 z"
           inkscape:connector-curvature="0"
           id="path2080"
           style="fill:#000000;fill-opacity:1;fill-rule:evenodd;stroke:#000000;stroke-width:0.98838049px;stroke-linecap:butt;stroke-linejoin:miter;stroke-opacity:1" />
        <path
           d="m 73.675557,45.933437 c 4.034884,-1.804039 9.571992,-5.350448 9.905029,-2.391955 0.333038,2.958493 -3.749556,3.468803 -5.745674,3.220746 -1.996118,-0.24806 -4.427628,-0.673929 -4.159355,-0.828791 z"
           inkscape:connector-curvature="0"
           id="path2122"
           style="fill:#000000;fill-opacity:1;fill-rule:evenodd;stroke:#000000;stroke-width:0.92177331px;stroke-linecap:butt;stroke-linejoin:miter;stroke-opacity:1" />
      </g>
    </g>
  </g>
</svg>
