<?xml version="1.0" encoding="UTF-8" standalone="no"?>
<!-- Created with Inkscape (http://www.inkscape.org/) -->

<svg
   xmlns:dc="http://purl.org/dc/elements/1.1/"
   xmlns:cc="http://creativecommons.org/ns#"
   xmlns:rdf="http://www.w3.org/1999/02/22-rdf-syntax-ns#"
   xmlns:svg="http://www.w3.org/2000/svg"
   xmlns="http://www.w3.org/2000/svg"
   xmlns:sodipodi="http://sodipodi.sourceforge.net/DTD/sodipodi-0.dtd"
   xmlns:inkscape="http://www.inkscape.org/namespaces/inkscape"
   version="1.0"
   width="100"
   height="100"
   id="svg2833"
   inkscape:version="0.48.3.1 r9886"
   sodipodi:docname="WhiteChancellor.svg">
  <sodipodi:namedview
     pagecolor="#ffffff"
     bordercolor="#666666"
     borderopacity="1"
     objecttolerance="10"
     gridtolerance="10"
     guidetolerance="10"
     inkscape:pageopacity="0"
     inkscape:pageshadow="2"
     inkscape:window-width="640"
     inkscape:window-height="480"
     id="namedview3048"
     showgrid="false"
     inkscape:zoom="1.216875"
     inkscape:cx="87.478896"
     inkscape:cy="47.636663"
     inkscape:window-x="0"
     inkscape:window-y="27"
     inkscape:window-maximized="0"
     inkscape:current-layer="svg2833" />
  <defs
     id="defs2835" />
  <metadata
     id="metadata2838">
    <rdf:RDF>
      <cc:Work
         rdf:about="">
        <dc:format>image/svg+xml</dc:format>
        <dc:type
           rdf:resource="http://purl.org/dc/dcmitype/StillImage" />
        <dc:title />
      </cc:Work>
    </rdf:RDF>
  </metadata>
  <g
     id="g3203">
    <path
       d="m 63.054986,17.101753 -2.689573,0.05661 c 0.119061,-2.581552 -4.681512,-6.805532 -4.681512,-6.805532 0,0 -2.770755,2.809133 -3.21844,6.770996 -6.253284,-0.225955 -11.6247,2.758134 -13.690608,3.907781 C 25.686478,28.315105 20.563294,51.9034 20.590116,69.999407 l 47.286137,-0.13415 C 68.094545,57.427224 51.48752,52.76427 51.973737,40.951382 c 4.19637,2.94871 8.874302,3.751299 12.579148,6.56956 2.941785,2.237799 4.457565,4.858936 7.390704,8.003652 1.081291,1.159284 3.968242,0.645388 4.900764,-1.039592 4.662631,1.263737 9.142963,0.01692 9.037592,-5.995978 -0.0933,-5.323038 -6.018469,-10.133588 -8.055512,-15.129074 -0.878162,-2.153523 -0.755352,-5.48197 -2.142762,-7.878059 -1.077278,-1.860501 -3.501949,-4.015348 -4.613073,-4.723231 -0.863009,-2.653063 -0.673739,-7.147175 0.754983,-8.86821 -2.083558,-0.537823 -6.865629,2.091927 -8.770595,5.211303 z"
       inkscape:connector-curvature="0"
       id="path4350"
       style="opacity:0.98999999;fill:#000000;fill-opacity:1;stroke:#000000;stroke-width:0.74352378px;stroke-opacity:1" />
    <path
       d="m 58.205518,18.181449 c 0.07582,0.756233 0.344472,1.352274 0.768768,2.169533 2.229588,4.2945 1.257955,-0.163338 1.21004,-1.138924 1.589896,0.455481 4.217758,2.155235 5.343035,3.072935 -0.238206,-0.782549 -1.679207,-2.772399 -1.262419,-4.160082 0.562986,-1.874439 2.524597,-3.146149 4.615368,-4.069798 -0.648412,2.193907 -1.026203,4.879085 0.551687,7.711406 1.014115,1.071634 2.050955,1.896126 2.895966,2.973129 0.719389,0.916891 1.414242,1.860601 1.827122,2.939906 0.876341,1.856431 0.91362,3.903095 1.551174,5.819729 1.069086,3.225001 2.949989,6.151768 5.057199,8.906227 1.403627,2.038037 3.06133,4.183694 3.007202,6.689623 -0.07793,1.2366 -0.696232,2.469848 -1.653217,3.263835 -1.131996,0.827697 -2.729906,0.789273 -4.006627,0.409705 -1.859915,-0.552951 -3.182424,-3.175207 -4.710535,-5.356327 -0.05002,0.451393 0.106245,1.758763 0.295209,3.071648 0.236016,1.639755 0.523064,3.288113 0.523064,3.288113 -3.985259,-2.347309 -6.624158,-6.714063 -10.611397,-9.350342 -2.775504,-1.835102 -6.80951,-2.075127 -9.100882,-4.392405 -2.850957,-2.88318 -3.545136,-3.209016 -4.739222,-10.779123 -1.301362,7.377576 -0.27599,16.456601 3.230929,21.277804 0.993643,1.366033 2.781159,2.983905 4.15907,4.478064 2.484602,2.694208 5.287138,4.979789 6.986375,8.013862 0.868137,1.550111 1.453817,3.658369 1.536978,5.023333 -14.622046,0.04962 -29.092912,-0.03228 -41.821071,0 -0.140996,-4.993911 0.50731,-9.51964 1.326995,-14.217677 0.796728,-4.566439 1.9108,-9.107163 3.478065,-13.507796 1.321392,-3.710259 2.427736,-7.646992 4.968824,-10.796716 3.171483,-3.931098 7.469033,-7.312153 12.300809,-9.458735 1.990476,-0.884297 4.048286,-1.168018 6.188036,-1.354903 0.712555,2.511502 1.198203,0.343883 1.593023,-0.135279 1.091737,-1.85009 1.988813,-2.582058 2.150766,-4.704124 1.38762,1.684718 2.225007,3.170346 2.339666,4.313379 z"
       inkscape:connector-curvature="0"
       id="path4352"
       style="opacity:0.98999999;fill:#ffffcc;fill-opacity:1;stroke:#fdfdca;stroke-width:0.74352378px;stroke-opacity:1" />
    <path
       d="m 80.613089,49.995797 c -2.752263,-0.117004 -4.020496,-5.457316 -1.223962,-5.388458 3.089016,0.07606 3.598822,5.489419 1.223962,5.388458 z"
       inkscape:connector-curvature="0"
       id="path4348"
       style="opacity:0.98999999;fill:#000000;fill-opacity:1" />
    <path
       d="M 70.912194,32.157215 69.979672,30.05099 c -2.797587,0.421244 -4.19637,-0.842487 -3.730109,-3.36996 l -2.331316,-0.421244 0,-0.421243 c 4.19637,-0.842494 7.926479,2.527467 6.993947,6.318672 z"
       inkscape:connector-curvature="0"
       id="path4340"
       style="opacity:0.98999999;fill:#000000;fill-opacity:1" />
    <path
       d="m 63.054986,17.101753 -2.689573,0.05661 c 0.119061,-2.581552 -4.681512,-6.805532 -4.681512,-6.805532 0,0 -2.770755,2.809133 -3.21844,6.770996 -6.253284,-0.225955 -11.6247,2.758134 -13.690608,3.907781 C 25.686478,28.315105 20.563294,51.9034 20.590116,69.999407 l 47.286137,-0.13415 C 68.094545,57.427224 51.48752,52.76427 51.973737,40.951382 c 4.19637,2.94871 8.874302,3.751299 12.579148,6.56956 2.941785,2.237799 4.457565,4.858936 7.390704,8.003652 1.081291,1.159284 3.968242,0.645388 4.900764,-1.039592 4.662631,1.263737 9.142963,0.01692 9.037592,-5.995978 -0.0933,-5.323038 -6.018469,-10.133588 -8.055512,-15.129074 -0.878162,-2.153523 -0.755352,-5.48197 -2.142762,-7.878059 -1.077278,-1.860501 -3.501949,-4.015348 -4.613073,-4.723231 -0.863009,-2.653063 -0.673739,-7.147175 0.754983,-8.86821 -2.083558,-0.537823 -6.865629,2.091927 -8.770595,5.211303 z"
       inkscape:connector-curvature="0"
       id="path4729"
       style="opacity:0.98999999;fill:#000000;fill-opacity:1;stroke:#000000;stroke-width:0.74352378px;stroke-opacity:1" />
    <path
       d="m 58.205518,18.181449 c 0.07582,0.756233 0.344472,1.352274 0.768768,2.169533 2.229588,4.2945 1.257955,-0.163338 1.21004,-1.138924 1.589896,0.455481 4.217758,2.155235 5.343035,3.072935 -0.238206,-0.782549 -1.679207,-2.772399 -1.262419,-4.160082 0.562986,-1.874439 2.524597,-3.146149 4.615368,-4.069798 -0.648412,2.193907 -1.026203,4.879085 0.551687,7.711406 1.014115,1.071634 2.050955,1.896126 2.895966,2.973129 0.719389,0.916891 1.414242,1.860601 1.827122,2.939906 0.876341,1.856431 0.91362,3.903095 1.551174,5.819729 1.069086,3.225001 2.949989,6.151768 5.057199,8.906227 1.403627,2.038037 3.06133,4.183694 3.007202,6.689623 -0.07793,1.2366 -0.696232,2.469848 -1.653217,3.263835 -1.131996,0.827697 -2.729906,0.789273 -4.006627,0.409705 -1.859915,-0.552951 -3.182424,-3.175207 -4.710535,-5.356327 -0.05002,0.451393 0.106245,1.758763 0.295209,3.071648 0.236016,1.639755 0.523064,3.288113 0.523064,3.288113 -3.985259,-2.347309 -6.624158,-6.714063 -10.611397,-9.350342 -2.775504,-1.835102 -6.80951,-2.075127 -9.100882,-4.392405 -2.850957,-2.88318 -3.545136,-3.209016 -4.739222,-10.779123 -1.301362,7.377576 -0.27599,16.456601 3.230929,21.277804 0.993643,1.366033 2.781159,2.983905 4.15907,4.478064 2.484602,2.694208 5.287138,4.979789 6.986375,8.013862 0.868137,1.550111 1.453817,3.658369 1.536978,5.023333 -14.622046,0.04962 -29.092912,-0.03228 -41.821071,0 -0.140996,-4.993911 0.50731,-9.51964 1.326995,-14.217677 0.796728,-4.566439 1.9108,-9.107163 3.478065,-13.507796 1.321392,-3.710259 2.427736,-7.646992 4.968824,-10.796716 3.171483,-3.931098 7.469033,-7.312153 12.300809,-9.458735 1.990476,-0.884297 4.048286,-1.168018 6.188036,-1.354903 0.712555,2.511502 1.198203,0.343883 1.593023,-0.135279 1.091737,-1.85009 1.988813,-2.582058 2.150766,-4.704124 1.38762,1.684718 2.225007,3.170346 2.339666,4.313379 z"
       inkscape:connector-curvature="0"
       id="path4731"
       style="opacity:0.98999999000000005;fill:#ffffff;fill-opacity:1;stroke:#ffffff;stroke-width:0.74352377999999986px;stroke-opacity:1" />
    <path
       d="m 80.613089,49.995797 c -2.752263,-0.117004 -4.020496,-5.457316 -1.223962,-5.388458 3.089016,0.07606 3.598822,5.489419 1.223962,5.388458 z"
       inkscape:connector-curvature="0"
       id="path4733"
       style="opacity:0.98999999;fill:#000000;fill-opacity:1" />
    <path
       d="M 70.912194,32.157215 69.979672,30.05099 c -2.797587,0.421244 -4.19637,-0.842487 -3.730109,-3.36996 l -2.331316,-0.421244 0,-0.421243 c 4.19637,-0.842494 7.926479,2.527467 6.993947,6.318672 z"
       inkscape:connector-curvature="0"
       id="path4735"
       style="opacity:0.98999999;fill:#000000;fill-opacity:1" />
    <path
       style="color:#000000;fill:#ffffff;fill-opacity:1;stroke:#000000;stroke-width:2;stroke-linecap:square;stroke-linejoin:bevel;stroke-opacity:1;marker:none;visibility:visible;display:inline;overflow:visible;enable-background:accumulate"
       id="path1426"
       inkscape:connector-curvature="0"
       d="m 14.749291,76.181856 59.443919,0 -8.314639,-6.395004 -42.847524,0 z" />
    <path
       style="color:#000000;fill:#ffffff;fill-opacity:1;stroke:#000000;stroke-width:2;stroke-opacity:1;marker:none;visibility:visible;display:inline;overflow:visible;enable-background:accumulate"
       id="path1428"
       inkscape:connector-curvature="0"
       d="m 14.744471,89 0,-12.813085 59.453561,0 0,12.813085 -12.152332,0 0,-6.366503 -12.152321,0 0,6.366503 -10.886458,0 0,-6.366503 -12.110125,0 0,6.366503 -12.152325,0 z" />
  </g>
</svg>
