<?xml version="1.0" encoding="UTF-8" standalone="no"?>
<!-- Created with Inkscape (http://www.inkscape.org/) -->

<svg
   xmlns:dc="http://purl.org/dc/elements/1.1/"
   xmlns:cc="http://creativecommons.org/ns#"
   xmlns:rdf="http://www.w3.org/1999/02/22-rdf-syntax-ns#"
   xmlns:svg="http://www.w3.org/2000/svg"
   xmlns="http://www.w3.org/2000/svg"
   xmlns:sodipodi="http://sodipodi.sourceforge.net/DTD/sodipodi-0.dtd"
   xmlns:inkscape="http://www.inkscape.org/namespaces/inkscape"
   version="1.0"
   width="100"
   height="100"
   id="svg2833"
   inkscape:version="0.48.3.1 r9886"
   sodipodi:docname="WhiteKnight.svg">
  <sodipodi:namedview
     pagecolor="#ffffff"
     bordercolor="#666666"
     borderopacity="1"
     objecttolerance="10"
     gridtolerance="10"
     guidetolerance="10"
     inkscape:pageopacity="0"
     inkscape:pageshadow="2"
     inkscape:window-width="640"
     inkscape:window-height="480"
     id="namedview3078"
     showgrid="false"
     inkscape:zoom="2.43375"
     inkscape:cx="50"
     inkscape:cy="47.431865"
     inkscape:window-x="0"
     inkscape:window-y="27"
     inkscape:window-maximized="0"
     inkscape:current-layer="svg2833" />
  <defs
     id="defs2835" />
  <metadata
     id="metadata2838">
    <rdf:RDF>
      <cc:Work
         rdf:about="">
        <dc:format>image/svg+xml</dc:format>
        <dc:type
           rdf:resource="http://purl.org/dc/dcmitype/StillImage" />
        <dc:title />
      </cc:Work>
    </rdf:RDF>
  </metadata>
  <g
     id="g3260">
    <path
       style="opacity:0.98999999;fill:#000000;fill-opacity:1;stroke:#000000;stroke-width:0.74352384px;stroke-opacity:1"
       id="path4350"
       inkscape:connector-curvature="0"
       d="m 37.277839,14.905623 3.485113,0.07996 c -0.154278,-3.646671 6.066241,-9.6134171 6.066241,-9.6134171 0,0 3.590307,3.9681488 4.170411,9.5646311 8.102923,-0.319181 15.063131,3.896109 17.740108,5.520087 16.95974,10.288585 23.598294,43.609139 23.563538,69.17135 L 31.030506,89.43874 c -0.28286,-17.56982 21.236301,-24.156655 20.606268,-40.843405 -5.4376,4.165314 -11.499202,5.299042 -16.299892,9.280084 -3.811926,3.161091 -5.776053,6.863678 -9.576776,11.305869 -1.401121,1.63759 -5.141994,0.911667 -6.350343,-1.468517 -6.041775,1.78514 -11.8473303,0.02389 -11.710792,-8.46985 0.1209005,-7.519261 7.798652,-14.314589 10.438226,-21.371156 1.13791,-3.042041 0.978775,-7.743768 2.776562,-11.128456 1.395922,-2.628121 4.537778,-5.672033 5.977558,-6.671982 1.118275,-3.747686 0.873021,-10.0960161 -0.978297,-12.5271305 2.699846,-0.7597233 8.89639,2.9550315 11.364819,7.3614265 z" />
    <path
       style="opacity:0.98999999000000005;fill:#ffffff;fill-opacity:1;stroke:#ffffff;stroke-width:0.74352384000000005px;stroke-opacity:1"
       id="path4352"
       inkscape:connector-curvature="0"
       d="m 43.561715,16.430789 c -0.09825,1.068246 -0.446363,1.910207 -0.996159,3.064657 -2.889071,6.066361 -1.630041,-0.230729 -1.567954,-1.608831 -2.060165,0.643408 -5.465314,3.04446 -6.923434,4.340793 0.308665,-1.10542 2.175895,-3.916259 1.635827,-5.876484 -0.72951,-2.64781 -3.27134,-4.444214 -5.980533,-5.74895 0.840204,3.099088 1.329741,6.89214 -0.714868,10.893044 -1.314076,1.513778 -2.6576,2.678445 -3.752554,4.199808 -0.932175,1.295189 -1.832556,2.628264 -2.367561,4.152877 -1.13555,2.622374 -1.183855,5.513467 -2.00999,8.220882 -1.385307,4.5556 -3.822556,8.689917 -6.55305,12.580835 -1.818802,2.878907 -3.966831,5.909837 -3.896693,9.449684 0.100978,1.746808 0.902169,3.488879 2.142217,4.610456 1.466825,1.169196 3.537375,1.114918 5.191733,0.578744 2.410053,-0.781091 4.123742,-4.485261 6.103849,-7.566286 0.06482,0.637633 -0.137671,2.484409 -0.382529,4.338975 -0.305826,2.3163 -0.677779,4.644751 -0.677779,4.644751 5.164046,-3.315781 8.583495,-9.484209 13.750106,-13.208186 3.596461,-2.592244 8.823673,-2.9313 11.792802,-6.204661 3.694232,-4.072746 4.59374,-4.53302 6.14102,-15.226466 1.686288,10.42148 0.357625,23.246406 -4.186594,30.056782 -1.287549,1.929643 -3.603789,4.21503 -5.389268,6.325663 -3.219513,3.805807 -6.851002,7.034393 -9.052851,11.320289 -1.12492,2.18967 -1.883836,5.16777 -1.991596,7.095902 18.947052,0.0701 37.698207,-0.0456 54.191184,0 C 88.249742,79.810726 87.409675,73.417733 86.347538,66.78134 85.31515,60.330841 83.871549,53.916667 81.840708,47.700383 80.128466,42.459314 78.694881,36.898329 75.402172,32.449065 71.292608,26.896042 65.7239,22.120002 59.462949,19.087765 c -2.579232,-1.249147 -5.245715,-1.649929 -8.018374,-1.91392 -0.92332,3.547719 -1.552616,0.485764 -2.064219,-0.191094 -1.414658,-2.613417 -2.577076,-3.647386 -2.786932,-6.644992 -1.79806,2.379814 -2.883135,4.478395 -3.031709,6.09303 z" />
    <path
       style="opacity:0.98999999;fill:#000000;fill-opacity:1"
       id="path4348"
       inkscape:connector-curvature="0"
       d="m 14.526285,61.371372 c 3.566345,-0.165279 5.209704,-7.708942 1.585993,-7.611673 -4.002706,0.107447 -4.663305,7.754289 -1.585993,7.611673 z" />
    <path
       style="opacity:0.98999999;fill:#000000;fill-opacity:1"
       id="path4340"
       inkscape:connector-curvature="0"
       d="m 27.096575,36.172796 1.208349,-2.975229 C 31.93,33.79261 33.742525,32.007479 33.13835,28.437199 l 3.020887,-0.595043 0,-0.595044 c -5.4376,-1.190097 -10.271025,3.570271 -9.062662,8.925684 z" />
  </g>
</svg>
