<?xml version="1.0" encoding="UTF-8" standalone="no"?>
<!-- Created with Inkscape (http://www.inkscape.org/) -->

<svg
   xmlns:dc="http://purl.org/dc/elements/1.1/"
   xmlns:cc="http://creativecommons.org/ns#"
   xmlns:rdf="http://www.w3.org/1999/02/22-rdf-syntax-ns#"
   xmlns:svg="http://www.w3.org/2000/svg"
   xmlns="http://www.w3.org/2000/svg"
   xmlns:sodipodi="http://sodipodi.sourceforge.net/DTD/sodipodi-0.dtd"
   xmlns:inkscape="http://www.inkscape.org/namespaces/inkscape"
   version="1.0"
   width="100"
   height="100"
   id="svg2833"
   inkscape:version="0.48.3.1 r9886"
   sodipodi:docname="WhiteUnicorn.svg">
  <sodipodi:namedview
     pagecolor="#ffffff"
     bordercolor="#666666"
     borderopacity="1"
     objecttolerance="10"
     gridtolerance="10"
     guidetolerance="10"
     inkscape:pageopacity="0"
     inkscape:pageshadow="2"
     inkscape:window-width="640"
     inkscape:window-height="480"
     id="namedview3191"
     showgrid="false"
     inkscape:zoom="2.43375"
     inkscape:cx="50"
     inkscape:cy="88.857878"
     inkscape:window-x="0"
     inkscape:window-y="27"
     inkscape:window-maximized="0"
     inkscape:current-layer="svg2833" />
  <defs
     id="defs2835" />
  <metadata
     id="metadata2838">
    <rdf:RDF>
      <cc:Work
         rdf:about="">
        <dc:format>image/svg+xml</dc:format>
        <dc:type
           rdf:resource="http://purl.org/dc/dcmitype/StillImage" />
        <dc:title />
      </cc:Work>
    </rdf:RDF>
  </metadata>
  <g
     id="g3219">
    <path
       style="color:#000000;fill:#ffffff;fill-opacity:1;fill-rule:nonzero;stroke:#000000;stroke-width:1;stroke-linecap:round;stroke-linejoin:miter;stroke-miterlimit:4;stroke-opacity:1;stroke-dasharray:none;marker:none;visibility:visible;display:inline;overflow:visible;enable-background:accumulate"
       id="path696"
       inkscape:connector-curvature="0"
       d="M 27.380226,27.865874 8.3381009,5.5005529 32.093615,23.587294 z" />
    <path
       style="color:#000000;fill:#ffffff;fill-opacity:1;fill-rule:nonzero;stroke:#000000;stroke-width:1;stroke-linecap:round;stroke-linejoin:miter;stroke-miterlimit:4;stroke-opacity:1;stroke-dasharray:none;marker:none;visibility:visible;display:inline;overflow:visible;enable-background:accumulate"
       id="path1467"
       inkscape:connector-curvature="0"
       d="m 28.849421,66.844865 c 0,0 5.732546,5.50075 7.998893,5.363241 -1.733087,-3.025426 -2.133042,-4.400597 -1.999723,-5.638272 1.199839,0.550076 3.466186,-1.237675 3.466186,-1.237675 -1.199839,-0.412554 -5.46591,-3.162936 -6.132488,-4.950687 z" />
    <path
       style="opacity:0.98999999;fill:#000000;fill-opacity:1;stroke:#000000;stroke-width:0.74352384px;stroke-opacity:1"
       id="path4350-3"
       inkscape:connector-curvature="0"
       d="m 39.890419,15.824372 3.287134,0.07898 c -0.145514,-3.601834 5.721636,-9.495216 5.721636,-9.495216 0,0 3.386353,3.919359 3.933502,9.44703 7.642621,-0.315257 14.207441,3.848205 16.732347,5.452215 15.996309,10.162082 22.257746,43.072946 22.224965,68.320859 L 33.997978,89.441073 C 33.731186,72.087282 54.027909,65.581434 53.433666,49.099854 c -5.128707,4.114101 -10.845967,5.233889 -15.373944,9.165983 -3.595382,3.122223 -5.447933,6.779285 -9.032748,11.166857 -1.321529,1.617456 -4.849894,0.900459 -5.9896,-1.45046 -5.69856,1.763191 -11.174319,0.0236 -11.045537,-8.365709 0.114032,-7.42681 7.355634,-14.138586 9.845261,-21.108389 1.07327,-3.004638 0.923174,-7.648555 2.618834,-10.991627 1.316625,-2.595808 4.280001,-5.602294 5.637992,-6.589947 1.054748,-3.701607 0.823427,-9.971882 -0.922724,-12.3731044 2.546476,-0.7503822 8.391013,2.9186984 10.719219,7.2709144 z" />
    <path
       style="opacity:0.98999999000000005;fill:#ffffff;fill-opacity:1;stroke:#ffffff;stroke-width:0.74352384000000005px;stroke-opacity:1"
       id="path4352-8"
       inkscape:connector-curvature="0"
       d="m 45.817327,17.330785 c -0.09267,1.055112 -0.421006,1.886721 -0.939571,3.026977 -2.724951,5.991772 -1.537443,-0.227892 -1.478883,-1.58905 -1.943133,0.635496 -5.154846,3.007027 -6.530134,4.287421 0.29113,-1.091829 2.052288,-3.868107 1.5429,-5.804231 -0.688069,-2.615254 -3.085504,-4.38957 -5.640797,-5.678263 0.792474,3.060983 1.254203,6.807398 -0.674259,10.759108 -1.239427,1.495166 -2.506629,2.645513 -3.539382,4.14817 -0.879221,1.279264 -1.728454,2.595948 -2.233067,4.101816 -1.071043,2.59013 -1.116604,5.445676 -1.895809,8.119803 -1.306611,4.499587 -3.605408,8.583071 -6.180791,12.426148 -1.715481,2.84351 -3.741488,5.837173 -3.675333,9.333496 0.09524,1.72533 0.850919,3.445982 2.020524,4.553769 1.383499,1.15482 3.336427,1.101209 4.896806,0.571628 2.273146,-0.771488 3.889485,-4.430113 5.757108,-7.473255 0.06113,0.629793 -0.129851,2.453862 -0.360799,4.285625 -0.288453,2.28782 -0.639276,4.587642 -0.639276,4.587642 4.870692,-3.275013 8.095893,-9.367597 12.969004,-13.045786 3.392157,-2.560372 8.322426,-2.895258 11.122889,-6.128372 3.484373,-4.02267 4.332783,-4.477284 5.792167,-15.03925 1.590495,10.293343 0.337309,22.960582 -3.948767,29.687221 -1.214407,1.905917 -3.399068,4.163204 -5.083119,6.247886 -3.036623,3.759013 -6.461818,6.947902 -8.538586,11.181101 -1.061017,2.162747 -1.776822,5.104231 -1.87846,7.008655 17.870727,0.06924 35.556686,-0.04504 51.112747,0 C 87.966762,79.931439 87.174417,73.617051 86.172617,67.062255 85.198875,60.691068 83.837281,54.355758 81.921806,48.215907 80.306831,43.039278 78.954684,37.546669 75.849024,33.152111 71.972911,27.667364 66.720545,22.950048 60.81526,19.955093 58.382546,18.721305 55.867538,18.32545 53.252385,18.064705 c -0.870868,3.504099 -1.464416,0.479792 -1.946956,-0.188744 -1.334296,-2.581284 -2.430681,-3.60254 -2.628616,-6.563289 -1.695917,2.350553 -2.719352,4.423331 -2.859486,6.018113 z" />
    <path
       style="opacity:0.98999999;fill:#000000;fill-opacity:1"
       id="path4348-3"
       inkscape:connector-curvature="0"
       d="m 18.431312,61.718805 c 3.363751,-0.163247 4.913756,-7.614158 1.495897,-7.518085 -3.775324,0.106127 -4.398397,7.658948 -1.495897,7.518085 z" />
    <path
       style="opacity:0.98999999;fill:#000000;fill-opacity:1"
       id="path4340-3"
       inkscape:connector-curvature="0"
       d="m 30.287521,36.830056 1.139707,-2.938647 c 3.419146,0.587727 5.128707,-1.175455 4.558853,-4.701837 l 2.84928,-0.587727 0,-0.587728 c -5.128706,-1.175464 -9.687559,3.526373 -8.54784,8.815939 z" />
  </g>
</svg>
