<?xml version="1.0" encoding="UTF-8" standalone="no"?>
<!-- Created with Inkscape (http://www.inkscape.org/) -->

<svg
   xmlns:dc="http://purl.org/dc/elements/1.1/"
   xmlns:cc="http://creativecommons.org/ns#"
   xmlns:rdf="http://www.w3.org/1999/02/22-rdf-syntax-ns#"
   xmlns:svg="http://www.w3.org/2000/svg"
   xmlns="http://www.w3.org/2000/svg"
   xmlns:sodipodi="http://sodipodi.sourceforge.net/DTD/sodipodi-0.dtd"
   xmlns:inkscape="http://www.inkscape.org/namespaces/inkscape"
   version="1.0"
   width="100"
   height="100"
   id="svg2833"
   inkscape:version="0.48.3.1 r9886"
   sodipodi:docname="WhiteNightrider.svg">
  <sodipodi:namedview
     pagecolor="#ffffff"
     bordercolor="#666666"
     borderopacity="1"
     objecttolerance="10"
     gridtolerance="10"
     guidetolerance="10"
     inkscape:pageopacity="0"
     inkscape:pageshadow="2"
     inkscape:window-width="640"
     inkscape:window-height="480"
     id="namedview3116"
     showgrid="false"
     inkscape:zoom="2.43375"
     inkscape:cx="50"
     inkscape:cy="50"
     inkscape:window-x="0"
     inkscape:window-y="27"
     inkscape:window-maximized="0"
     inkscape:current-layer="svg2833" />
  <defs
     id="defs2835" />
  <metadata
     id="metadata2838">
    <rdf:RDF>
      <cc:Work
         rdf:about="">
        <dc:format>image/svg+xml</dc:format>
        <dc:type
           rdf:resource="http://purl.org/dc/dcmitype/StillImage" />
        <dc:title />
      </cc:Work>
    </rdf:RDF>
  </metadata>
  <path
     d="m 37.443438,14.905618 3.439749,0.07996 c -0.15227,-3.64667 5.98728,-9.613409 5.98728,-9.613409 0,0 3.543574,3.9681406 4.116127,9.564624 7.997451,-0.319185 14.867063,3.896119 17.509194,5.520095 16.738985,10.288577 23.291128,43.609138 23.256825,69.171351 L 31.277423,89.438745 C 30.998244,71.868924 52.237302,65.282087 51.61547,48.595341 c -5.366822,4.16531 -11.349523,5.299038 -16.087725,9.280081 -3.762308,3.16109 -5.700869,6.863678 -9.45212,11.305869 -1.382884,1.63759 -5.075064,0.911667 -6.267685,-1.468517 -5.963132,1.78514 -11.6931193,0.0239 -11.5583581,-8.46985 0.1193267,-7.519263 7.6971411,-14.314587 10.3023571,-21.371153 1.123099,-3.042045 0.966035,-7.743775 2.740421,-11.128458 1.377752,-2.628126 4.478713,-5.67204 5.899752,-6.671984 1.103718,-3.747694 0.861657,-10.0960178 -0.965564,-12.5271359 2.664704,-0.7597151 8.780591,2.9550389 11.21689,7.3614249 z"
     inkscape:connector-curvature="0"
     id="path4687"
     style="fill:#000000;fill-opacity:1;stroke:#000000;stroke-width:0.74352378px;stroke-opacity:1" />
  <path
     d="m 46.627827,10.317276 c -1.774655,2.37982 -2.841579,4.517086 -2.988219,6.131721 -0.09697,1.068243 -0.425375,1.911404 -0.968015,3.065861 -2.851465,6.066351 -1.618521,-0.259824 -1.557241,-1.637926 -2.03335,0.643411 -5.379051,3.071465 -6.818191,4.367801 0.304647,-1.105416 2.132367,-3.919503 1.599329,-5.879732 -0.720015,-2.647801 -3.218334,-4.449002 -5.892264,-5.753738 0.758493,2.834595 1.175032,6.245794 -0.294613,9.869551 l 10.311461,9.029588 -10.016848,10.33153 -7.575767,-7.307667 c -0.408149,1.837419 -0.633846,3.735397 -1.178453,5.543747 -1.367274,4.55559 -3.744449,8.666511 -6.439402,12.557428 -1.795127,2.878908 -3.941285,5.909723 -3.872059,9.44957 0.09966,1.746807 0.92256,3.498212 2.146467,4.61979 1.447733,1.169196 3.459776,1.124147 5.0926,0.587973 2.378683,-0.781092 4.064193,-4.47863 6.018526,-7.559656 0.06397,0.637633 -0.137118,2.471238 -0.378788,4.325803 -0.301846,2.3163 -0.631314,4.661788 -0.631314,4.661788 5.096828,-3.315782 8.452846,-9.50542 13.552206,-13.229398 3.549648,-2.592244 8.727782,-2.94236 11.658264,-6.215717 3.646146,-4.072752 4.533474,-4.509855 6.060614,-15.203307 1.664339,10.421493 0.318398,23.260254 -4.166672,30.07063 -1.27079,1.929644 -3.540799,4.18908 -5.303037,6.299714 -3.177607,3.805807 -6.749383,7.053587 -8.922571,11.339483 -1.110277,2.18967 -1.87176,5.169545 -1.978117,7.097677 18.700429,0.0701 37.215039,-0.0456 53.493336,0 C 87.759382,79.825448 86.901779,73.3991 85.853467,66.762706 84.834517,60.312207 83.438676,53.911857 81.43427,47.695574 79.744315,42.454509 78.328892,36.899539 75.079043,32.450269 71.02297,26.897248 65.517737,22.127112 59.338281,19.094877 c -2.54566,-1.249151 -5.175899,-1.667922 -7.912468,-1.931912 -0.911301,3.547716 -1.515261,0.508855 -2.020205,-0.167993 -1.396244,-2.613423 -2.570656,-3.680094 -2.777781,-6.677696 z"
     inkscape:connector-curvature="0"
     id="path4689"
     style="fill:#ffffff;fill-opacity:1;stroke:#ffffff;stroke-width:0.74352377999999986px;stroke-opacity:1" />
  <path
     d="m 14.988028,61.371375 c 3.519924,-0.165279 5.141893,-7.708944 1.565349,-7.611675 -3.950604,0.107448 -4.602605,7.754291 -1.565349,7.611675 z"
     inkscape:connector-curvature="0"
     id="path4691"
     style="fill:#000000;fill-opacity:1" />
  <path
     d="m 27.394698,36.172791 1.192621,-2.975225 c 3.57789,0.595042 5.366822,-1.190085 4.770511,-4.760366 l 2.981566,-0.595042 0,-0.595043 c -5.366822,-1.190098 -10.137333,3.570268 -8.944698,8.925676 z"
     inkscape:connector-curvature="0"
     id="path4737"
     style="opacity:0.98999999000000005;fill:#ffffff;fill-opacity:1" />
</svg>
