<?xml version="1.0" encoding="UTF-8" standalone="no"?>
<!-- Created with Inkscape (http://www.inkscape.org/) -->

<svg
   xmlns:dc="http://purl.org/dc/elements/1.1/"
   xmlns:cc="http://creativecommons.org/ns#"
   xmlns:rdf="http://www.w3.org/1999/02/22-rdf-syntax-ns#"
   xmlns:svg="http://www.w3.org/2000/svg"
   xmlns="http://www.w3.org/2000/svg"
   xmlns:inkscape="http://www.inkscape.org/namespaces/inkscape"
   version="1.1"
   width="128"
   height="128"
   id="svg2">
  <defs
     id="defs4" />
  <metadata
     id="metadata7">
    <rdf:RDF>
      <cc:Work
         rdf:about="">
        <dc:format>image/svg+xml</dc:format>
        <dc:type
           rdf:resource="http://purl.org/dc/dcmitype/StillImage" />
      </cc:Work>
    </rdf:RDF>
  </metadata>
  <g
     id="layer1">
    <path
       d="m 17.30536,116.56489 c 0,0 93.27856,1.21404 93.07622,0.40468 C 110.17924,116.16021 91.564,18.227835 91.564,18.227835 L 61.820077,8.1108558 32.076152,17.823157 17.30536,116.56489 z"
       inkscape:connector-curvature="0"
       id="path2800"
       style="fill:#c3aa55;fill-opacity:1;fill-rule:evenodd;stroke:none" />
    <g
       transform="matrix(1.076601,0,0,1.054549,-5.711809,-3.410499)"
       id="g5704">
      <path
         d="m 63.564282,38.775066 c 0.812661,1.336046 1.02491,2.648179 -0.208587,5.298516 -2.051674,4.408308 -3.758519,7.380958 -3.127264,8.88239 0.631256,1.501431 11.783435,2.252146 12.625108,0.500477 0.841674,-1.75167 0.916955,-4.234464 -0.766393,-4.234464 -1.683347,0 -8.2816,1.982317 -8.2816,1.982317 0,0 5.133531,-9.12804 5.681297,-11.010497 0.50971,-1.751669 -1.098358,-3.775331 -2.781706,-3.024616 -1.683348,0.750716 -3.351274,1.35564 -3.140855,1.605877 z"
         inkscape:connector-curvature="0"
         id="path2052"
         style="fill:#000000;fill-opacity:1;fill-rule:evenodd;stroke:#000000;stroke-width:0.69019181px;stroke-linecap:butt;stroke-linejoin:miter;stroke-opacity:1" />
      <path
         d="m 67.38266,52.205256 c -2.104185,0.250238 -3.156277,6.75644 -3.156277,10.760257 0,4.003817 2.104184,11.260736 0,11.010496 -2.104186,-0.250237 -8.416739,1.501432 -8.416739,0.25024 0,-1.251194 3.317352,-4.018966 2.054841,-7.272067 -1.262511,-3.253101 -5.470881,-2.252147 -5.470881,-2.252147 0,0 0.631256,-0.250239 1.683349,1.75167 1.052091,2.001908 -2.836656,8.020622 -1.15331,10.272768 1.683349,2.252148 12.592432,2.295655 15.117455,0.543985 2.525021,-1.75167 0.154221,-5.838181 -0.897871,-10.842951 -1.052092,-5.004772 -1.654334,-7.465811 0.239433,-9.968195 1.893765,-2.502386 -0.210419,-3.75358 0,-4.254056 z"
         inkscape:connector-curvature="0"
         id="path2780"
         style="fill:#000000;fill-opacity:1;fill-rule:evenodd;stroke:#000000;stroke-width:0.69019181px;stroke-linecap:butt;stroke-linejoin:miter;stroke-opacity:1" />
      <path
         d="m 71.821308,74.478648 c 0.05213,5.438041 -13.697061,1.749509 -16.011664,5.503087 -2.314604,3.753578 -1.840447,9.981584 1.382226,13.264804 2.046158,2.0846 8.090266,4.586984 13.258196,2.791809 3.87532,-1.346164 3.938091,-5.00693 0.150559,-6.258122 -3.787531,-1.251193 -9.651392,2.266454 -12.41469,-1.497112 -2.449185,-3.335748 2.072444,-8.704055 1.891936,-10.050889 -0.569567,-4.249736 11.47316,-7.252598 11.743437,-3.753577 z"
         inkscape:connector-curvature="0"
         id="path3508"
         style="fill:#000000;fill-opacity:1;fill-rule:evenodd;stroke:#000000;stroke-width:0.69019181px;stroke-linecap:butt;stroke-linejoin:miter;stroke-opacity:1" />
      <path
         d="m 52.753473,60.121999 c 3.787532,3.753577 11.318688,1.26155 16.158312,0.761072 4.839624,-0.500476 5.625103,-1.420897 6.677194,0.330773 1.052093,1.751669 0.210419,4.003817 -2.314603,5.255008 -2.525021,1.251194 -5.681298,1.501433 -3.787533,2.252148 1.893768,0.750716 6.462657,1.520002 9.889669,-1.000954 3.732364,-2.745577 6.492128,-8.677816 0.781815,-10.13574 -4.504776,-1.150135 -10.250646,0.876913 -13.82776,1.37739 -3.577114,0.500478 -13.366676,1.41054 -13.577094,1.160303 z"
         inkscape:connector-curvature="0"
         id="path4236"
         style="fill:#000000;fill-opacity:1;fill-rule:evenodd;stroke:#000000;stroke-width:0.69019181px;stroke-linecap:butt;stroke-linejoin:miter;stroke-opacity:1" />
      <path
         d="m 49.421479,56.424756 c -2.752923,4.836751 -10.185816,10.210917 -7.708184,12.091877 2.477629,1.880959 4.485384,0.44862 6.963016,-2.775881 2.477632,-3.224499 1.571046,-9.584705 0.745168,-9.315996 z"
         inkscape:connector-curvature="0"
         id="path4964"
         style="fill:#000000;fill-opacity:1;fill-rule:evenodd;stroke:#000000;stroke-width:0.81806618px;stroke-linecap:butt;stroke-linejoin:miter;stroke-opacity:1" />
    </g>
  </g>
</svg>
