<?xml version="1.0" encoding="UTF-8" standalone="no"?>
<!-- Created with Inkscape (http://www.inkscape.org/) -->

<svg
   xmlns:dc="http://purl.org/dc/elements/1.1/"
   xmlns:cc="http://creativecommons.org/ns#"
   xmlns:rdf="http://www.w3.org/1999/02/22-rdf-syntax-ns#"
   xmlns:svg="http://www.w3.org/2000/svg"
   xmlns="http://www.w3.org/2000/svg"
   xmlns:sodipodi="http://sodipodi.sourceforge.net/DTD/sodipodi-0.dtd"
   xmlns:inkscape="http://www.inkscape.org/namespaces/inkscape"
   id="svg4082"
   version="1.1"
   inkscape:version="0.48.4 r9943 custom"
   width="512"
   height="512"
   sodipodi:docname="BlackLance.svg">
  <metadata
     id="metadata4088">
    <rdf:RDF>
      <cc:Work
         rdf:about="">
        <dc:format>image/svg+xml</dc:format>
        <dc:type
           rdf:resource="http://purl.org/dc/dcmitype/StillImage" />
        <dc:title />
      </cc:Work>
    </rdf:RDF>
  </metadata>
  <defs
     id="defs4086" />
  <sodipodi:namedview
     pagecolor="#ffffff"
     bordercolor="#666666"
     borderopacity="1"
     objecttolerance="10"
     gridtolerance="10"
     guidetolerance="10"
     inkscape:pageopacity="0"
     inkscape:pageshadow="2"
     inkscape:window-width="640"
     inkscape:window-height="480"
     id="namedview4084"
     showgrid="false"
     inkscape:zoom="0.4609375"
     inkscape:cx="256"
     inkscape:cy="256"
     inkscape:window-x="102"
     inkscape:window-y="85"
     inkscape:window-maximized="0"
     inkscape:current-layer="g4092" />
  <g
     id="g4092">
    <g
       id="g3858">
      <path
         inkscape:connector-curvature="0"
         id="path4096"
         d="m 202.64926,375.07216 c -28.51791,-10.36479 -52.44908,-19.45867 -53.18039,-20.20862 -0.82918,-0.85031 -10.58815,-58.42782 -25.92758,-152.97169 L 98.943356,50.283702 99.221678,35.891851 99.5,21.5 254.89374,21.246847 c 114.01825,-0.185748 155.75486,0.04655 156.75,0.872445 1.00598,0.834888 1.35455,4.257792 1.34964,13.253153 -0.006,10.555037 -2.9097,32.011119 -22.39574,165.473295 -12.31402,84.34016 -22.77354,153.72848 -23.24338,154.19627 -0.87775,0.8739 -110.63726,38.99099 -112.06173,38.9166 -0.43589,-0.0228 -24.12536,-8.52167 -52.64327,-18.88645 z"
         style="fill:#d3bc5f" />
      <g
         transform="matrix(-1,0,0,-1,80.215925,473.17532)"
         id="g3809">
        <path
           style="fill:#000000"
           d="m -182.96875,123.78125 c -14.05509,1.60358 -23.82993,13.47522 -31.34375,24.40625 8.81814,-1.52214 18.31045,-2.56911 26.75,-4.46875 -2.44047,2.56645 0.71389,8.42376 -4.59375,8.40625 -11.34293,2.21071 -24.01131,-1.24044 -34.625,4.03125 -3.49025,4.68926 2.89839,9.70082 7.03125,11.09375 9.30395,4.14969 19.59965,2.02592 29.1875,0.8125 3.24297,0.67825 1.1333,6.74842 1.78125,9.25 0.25363,3.5379 -0.82919,9.03319 -5.65625,7.6875 -3.79666,-0.529 -5.37379,4.21209 -2.5,6.5 4.01322,4.45658 8.00776,10.17962 14.125,11.6875 -11.88819,1.65401 -24.27766,5.84478 -36.1875,2.65625 -1.37411,-0.80497 -5.31914,-1.9777 -1.71875,-3.03125 6.53051,-3.19585 16.01159,-8.25776 14.03125,-17.09375 -2.18073,-6.41068 -7.54072,-12.07595 -13.78125,-14.71875 -4.84236,-0.47525 -3.79301,5.65847 -2.25,8.375 1.34099,6.78065 -6.95013,10.14186 -11.25,13.6875 -9.51104,6.88173 -20.79941,11.42929 -29.40625,19.3125 -1.60841,4.55023 4.85243,3.87776 7.4375,3 8.56163,-1.00142 19.556,-5.97404 26.6875,1.0625 9.09912,12.15671 9.59356,28.50331 15.625,42.0625 1.94492,3.81781 6.8824,1.28323 7.125,-2.28125 3.29319,-12.78694 -0.21565,-25.98275 -1.59375,-38.78125 18.40492,0.30967 36.84108,-0.54635 54.90625,-4.125 -0.82977,8.05626 1.70395,17.14483 -1.65625,24.65625 -5.7408,5.214 -14.70445,3.25048 -21.84025,4.49321 -7.6275,0.95569 -16.72368,-0.18972 -23.03475,4.78804 -2.51798,4.85371 4.83622,6.53758 8.25,7.0625 11.38201,2.53536 24.145,0.33203 34.75,5.0625 -0.29052,4.69275 5.83581,5.81512 8.375,2.3125 9.34335,-9.32245 12.35965,-23.49275 13.28125,-36.375 0.92155,-11.05614 -6.48009,-21.41052 -16.9375,-24.59375 -9.17528,-2.83378 -20.49046,1.21251 -28.34375,1.875 7.66427,-5.6719 8.89355,-16.3851 9.75,-25.28125 1.09958,-4.14656 -2.25697,-12.43197 2.0625,-13.25 10.19164,-0.85223 21.40757,1.90953 31,-2.4375 5.67192,-3.88262 0.96218,-12.24316 -4.71875,-13.1875 -9.44347,-3.50058 -19.32598,0.22587 -28.25,2.8125 -6.45609,0.94094 -9.38721,-6.63632 -14.90625,-8.21875 6.03491,-1.83817 15.38531,-6.2172 13.46875,-14 -1.63885,-4.3066 -6.84909,-5.59894 -11.03125,-5.25 z m 22.125,47.09375 c -4.24274,2.83814 1.21936,7.58133 3.0625,10.25 11.34214,11.91303 23.14745,24.77242 38.8125,30.78125 5.63869,2.4922 11.37788,-2.28373 11.5625,-8.0625 1.83769,-8.4186 -7.70628,-12.80045 -13.53125,-16.1875 -12.7654,-6.1697 -25.4444,-13.24898 -39.15625,-16.9375 l -0.375,0 -0.375,0.15625 z m -13.40625,49.75 c -9.17077,0.54184 -19.25747,2.34764 -26.625,7.875 -3.06882,4.64337 3.88893,7.7701 7.5,8.71875 10.30974,2.45224 22.6822,1.93844 31.25,-4.8125 3.98917,-3.11492 2.24422,-9.57561 -2.59375,-10.59375 -3.04403,-1.02088 -6.31514,-1.2915 -9.53125,-1.1875 z m -16.5625,50.03125 c -3.79543,-0.4976 -5.52578,4.24877 -2.4375,6.4375 4.3396,4.48675 7.44953,14.72421 0.0937,17.9375 -11.33691,4.92852 -23.72576,0.35604 -35.4375,0.34375 -4.99912,2.00408 0.0917,7.14516 2.4375,9.15625 9.60306,9.39442 24.22169,4.15487 35.90625,6.5625 3.09678,2.18365 1.8455,8.85725 -2.53125,8.65625 -20.20695,2.26638 -40.70855,1.13317 -60.96875,-0.25 10.96566,20.34541 20.48562,41.61424 32.75,61.125 4.27942,2.25108 4.24499,-4.24581 3.75,-6.875 -0.80418,-12.21267 -3.73853,-24.26829 -5.75,-36.25 2.54287,-2.87809 7.80669,-1.2804 11.3125,-2.0625 7.54792,-0.12865 14.91136,-1.88684 22.25,-3.0625 2.33879,2.166 -2.08483,4.47707 -3.90625,4.9375 -7.23048,3.17099 -18.32618,1.42823 -22.75,9.1875 -1.00049,6.00313 7.10434,7.20203 11.5,7.4375 5.02504,0.73252 11.74473,-1.52926 15.78125,2.0625 -0.5025,4.01212 -6.77947,3.04981 -9.84375,3.375 -5.84148,0.7416 -14.48469,0.95365 -16.90625,7.4375 -0.12403,6.30509 8.19067,6.33896 12.75,7 4.51794,0.50346 10.42778,-0.62945 13.90625,2.4375 -14.78348,6.26031 -31.31041,7.12114 -47.15625,9.03125 -12.55778,1.41904 -25.17504,1.12702 -37.59375,-0.65625 -4.13285,-0.97802 -9.22082,2.72207 -6.46875,7.09375 4.31217,8.82398 13.6778,14.29453 23.5,14 19.07377,0.58661 36.10768,-9.72496 54.71875,-12 5.56344,-0.20473 14.93204,-5.6616 13.50785,3.77844 2.13052,9.67978 1.54067,20.83954 7.0234,29.34656 4.10141,3.14813 6.78275,-3.04009 7.28125,-6.3125 2.2287,-9.4122 3.56798,-19.08547 3.5,-28.78125 25.237,-0.4178 50.88544,-0.10604 75.125,7.53125 5.369957,1.19815 14.975858,2.50833 16.34375,-4.75 0.186944,-8.73914 -6.938615,-17.19123 -15.9375,-17.0625 -8.55218,-0.70265 -17.14807,-0.29378 -25.71875,-0.40625 2.12877,-13.47721 7.27522,-25.99967 12.59375,-38.46875 2.47198,-8.53846 -2.4224,-17.31553 -7.78125,-23.59375 -8.4306,-5.98427 -19.69859,-2.13798 -29.13732,-1.50676 -8.20431,0.41753 -16.91673,3.90922 -24.89393,2.16301 -1.02073,-3.0236 -1.36482,-8.9403 3.46875,-8.71875 11.21047,-1.70542 23.52931,1.29712 34.0625,-3.53125 3.36252,-4.79255 -2.44329,-10.75455 -7.09375,-12.09375 -9.13442,-3.90948 -19.07757,0.0587 -28.4375,-0.3125 -2.68115,-5.09284 1.61815,-13.88813 -4.59375,-17.6875 -5.49541,-2.6842 -12.21652,-2.4781 -18.21875,-2.65625 z m 44.09375,57.5 c 5.98629,0.53892 13.74519,-0.80599 18.34375,3.6875 3.03405,10.69853 -1.16564,22.02453 -2.8125,32.625 -0.52524,5.17966 -4.17063,9.84713 -9.75,9.875 -9.30016,1.20312 -19.31263,4.16222 -28.46875,1.46875 -3.37675,-2.49055 1.90741,-4.81135 4.125,-4.8125 8.96744,-2.31373 18.95012,-0.13852 27.53125,-3.65625 3.62413,-3.73353 -2.19232,-7.90825 -4.875,-10.15625 -8.04762,-6.12639 -18.65109,-1.12404 -27.46875,-1.84375 1.4554,-4.38524 7.95594,-3.92205 11.68212,-4.69736 6.50505,-1.09465 15.39383,1.2012 20.09913,-4.52139 2.17718,-7.03883 -5.36437,-13.72682 -12.1875,-13.375 -6.5455,-0.91271 -13.45941,2.31486 -19.625,1.125 1.79377,-3.92785 7.98321,-3.67138 11.64505,-4.77425 3.86194,-0.5895 7.81171,-0.8777 11.7612,-0.9445 z"
           id="path3807"
           inkscape:connector-curvature="0" />
      </g>
      <path
         sodipodi:nodetypes="sssssssssscssssssssss"
         inkscape:connector-curvature="0"
         id="path4094"
         d="M 202.01827,373.18144 C 155.67821,356.33603 150.45761,354.21891 149.74625,351.98347 149.31159,350.61756 137.94087,281.42862 124.47798,198.23028 102.89406,64.845374 100,45.626872 100,35.680277 100,28.240062 100.40851,23.991493 101.2,23.2 102.12286,22.277143 137.67071,22 255.11821,22 c 83.99502,0 153.43002,0.273145 154.3,0.606989 C 410.75195,23.118792 411,25.32013 411,36.644722 c 0,12.263795 -1.9161,26.569029 -22.05298,164.643008 -12.65935,86.80232 -22.56286,151.72912 -23.25,152.42566 -1.44623,1.46602 -107.81533,38.30858 -110.38801,38.23457 -0.99495,-0.0286 -24.97579,-8.47355 -53.29074,-18.76652 z M 307.1768,355.34385 c 28.45098,-9.71089 51.93606,-18.19557 52.18904,-18.85484 1.03982,-2.70972 40.75097,-301.742227 40.24582,-303.058631 C 399.13916,32.199071 379.09523,32 255.5904,32 c -78.9098,0 -143.68382,0.342135 -143.94226,0.760299 -0.44605,0.721723 44.81969,299.987081 45.88051,303.329801 0.3361,1.05907 16.61282,7.4569 48.73799,19.15729 26.52835,9.66195 48.4466,17.6089 48.70722,17.6599 0.26063,0.051 23.75195,-7.85256 52.20294,-17.56344 z"
         style="fill:#161411" />
    </g>
  </g>
</svg>
