<?xml version="1.0" encoding="UTF-8" standalone="no"?>
<!-- Created with Inkscape (http://www.inkscape.org/) -->

<svg
   xmlns:dc="http://purl.org/dc/elements/1.1/"
   xmlns:cc="http://creativecommons.org/ns#"
   xmlns:rdf="http://www.w3.org/1999/02/22-rdf-syntax-ns#"
   xmlns:svg="http://www.w3.org/2000/svg"
   xmlns="http://www.w3.org/2000/svg"
   xmlns:sodipodi="http://sodipodi.sourceforge.net/DTD/sodipodi-0.dtd"
   xmlns:inkscape="http://www.inkscape.org/namespaces/inkscape"
   version="1.1"
   width="128"
   height="128"
   id="svg2"
   inkscape:version="0.48.3.1 r9886"
   sodipodi:docname="BlackBishop.svg">
  <sodipodi:namedview
     pagecolor="#ffffff"
     bordercolor="#666666"
     borderopacity="1"
     objecttolerance="10"
     gridtolerance="10"
     guidetolerance="10"
     inkscape:pageopacity="0"
     inkscape:pageshadow="2"
     inkscape:window-width="640"
     inkscape:window-height="480"
     id="namedview3033"
     showgrid="false"
     inkscape:zoom="1.8653564"
     inkscape:cx="64"
     inkscape:cy="64"
     inkscape:window-x="0"
     inkscape:window-y="27"
     inkscape:window-maximized="0"
     inkscape:current-layer="svg2" />
  <defs
     id="defs4" />
  <metadata
     id="metadata7">
    <rdf:RDF>
      <cc:Work
         rdf:about="">
        <dc:format>image/svg+xml</dc:format>
        <dc:type
           rdf:resource="http://purl.org/dc/dcmitype/StillImage" />
      </cc:Work>
    </rdf:RDF>
  </metadata>
  <g
     id="layer1"
     transform="matrix(-1,0,0,-1,126.50341,125.35865)">
    <g
       id="g10964">
      <path
         d="m 9.8046247,116.56489 c 0,0 107.1261753,1.21404 106.8937853,0.40468 C 116.46604,116.16021 95.087283,18.227835 95.087283,18.227835 L 60.927745,8.1108558 26.768205,17.823157 9.8046247,116.56489 z"
         inkscape:connector-curvature="0"
         id="path2800"
         style="fill:#c3aa55;fill-opacity:1;fill-rule:evenodd;stroke:none" />
      <path
         d="m 76.64339,80.21537 c 2.614725,4.014369 6.12444,18.852836 3.531885,19.559421 -5.980979,1.630079 -27.238083,-12.531612 -27.517295,-11.03916 -0.319977,1.710356 10.649935,9.564735 15.705478,11.582269 6.384454,2.54787 10.451634,6.47706 13.551729,5.66575 3.100096,-0.8113 3.301825,-2.34287 2.6583,-9.239593 C 83.929962,89.847348 84.397924,85.79693 82.668006,82.469239 80.934663,79.13496 79.328952,78.820445 76.64339,80.21537 z"
         inkscape:connector-curvature="0"
         id="path1335"
         style="fill:#000000;fill-opacity:1;fill-rule:evenodd;stroke:#000000;stroke-width:0.95338881px;stroke-linecap:butt;stroke-linejoin:miter;stroke-opacity:1" />
      <path
         d="m 54.112441,82.736699 c 3.860285,1.476494 4.877609,2.686762 8.6509,1.440002 3.773291,-1.246758 13.892423,-3.541905 13.892423,-3.541905 8.126445,-0.182198 12.336699,-0.569436 12.900603,-1.344115 1.178992,-1.619675 4.012263,-3.456834 -1.898716,-3.886842 -5.91098,-0.430008 -9.85931,-0.250193 -16.294269,1.822772 -6.43496,2.072965 -17.219831,4.594499 -17.000618,4.601948 0.219213,0.0074 -0.461759,0.671794 -0.250323,0.90814 z"
         inkscape:connector-curvature="0"
         id="path1337"
         style="fill:#000000;fill-opacity:1;fill-rule:evenodd;stroke:#000000;stroke-width:0.95338881px;stroke-linecap:butt;stroke-linejoin:miter;stroke-opacity:1" />
      <path
         d="m 57.685289,71.985838 c 1.592957,3.088831 14.631432,0.654426 20.158429,-0.532744 5.526996,-1.187171 11.455483,-0.02976 11.321823,-2.555084 -0.133659,-2.525318 -9.20923,-1.478197 -13.851596,-0.49013 -4.642366,0.988067 -17.620878,3.34906 -17.628656,3.577958 z"
         inkscape:connector-curvature="0"
         id="path1339"
         style="fill:#000000;fill-opacity:1;fill-rule:evenodd;stroke:#000000;stroke-width:0.95338881px;stroke-linecap:butt;stroke-linejoin:miter;stroke-opacity:1" />
      <path
         d="m 40.362392,85.89676 c 0.251764,5.508432 -0.272538,7.796146 -1.179215,10.483334 -1.04246,3.089616 -4.594581,5.816006 -2.237679,7.500216 2.356903,1.68422 5.118227,-1.16474 6.408733,-6.849928 1.290506,-5.685196 2.645484,-9.108782 1.392425,-10.984651 -1.253058,-1.875869 -3.718847,-0.355523 -4.384264,-0.148971 z"
         inkscape:connector-curvature="0"
         id="path1341"
         style="fill:#000000;fill-opacity:1;fill-rule:evenodd;stroke:#000000;stroke-width:0.95338881px;stroke-linecap:butt;stroke-linejoin:miter;stroke-opacity:1" />
      <path
         d="m 49.307111,71.684874 c 0.757643,5.889022 -3.032561,7.174523 -8.003028,11.359704 -4.970466,4.185181 -15.526243,9.381993 -14.915269,10.777722 0.610975,1.395725 8.619637,-2.024506 14.686168,-6.172444 6.066533,-4.147938 13.649751,-10.468184 13.484981,-12.077913 -0.164771,-1.60973 -4.806648,-4.101069 -5.252852,-3.887069 z"
         inkscape:connector-curvature="0"
         id="path1343"
         style="fill:#000000;fill-opacity:1;fill-rule:evenodd;stroke:#000000;stroke-width:0.95338881px;stroke-linecap:butt;stroke-linejoin:miter;stroke-opacity:1" />
      <path
         d="m 47.158422,65.899111 c 0.938097,2.010923 -1.035155,3.06188 -3.050533,5.028053 -2.496899,2.435937 -6.261556,4.937339 -5.456118,5.425695 1.007276,0.610737 6.543537,-3.701209 8.782335,-5.000107 2.238798,-1.298899 5.89662,-1.822778 5.097543,-4.141545 -0.799077,-2.318768 -4.919246,-1.754994 -5.373227,-1.312096 z"
         inkscape:connector-curvature="0"
         id="path1345"
         style="fill:#000000;fill-opacity:1;fill-rule:evenodd;stroke:#000000;stroke-width:0.95338881px;stroke-linecap:butt;stroke-linejoin:miter;stroke-opacity:1" />
      <g
         transform="matrix(0.958364,0,0,1,1.690641,0)"
         id="g1352">
        <path
           d="m 41.082189,35.912628 c 3.302276,3.84702 9.012976,1.691373 13.781756,-1.761217 4.76878,-3.452588 10.412431,-10.533183 9.540472,-12.977869 -0.871959,-2.44469 -4.300899,-1.897824 -4.300899,-1.897824 -0.941043,0.292109 -0.100358,1.972315 -0.976127,4.586799 -0.875768,2.614483 -6.208047,8.178362 -8.929979,9.822476 -2.721932,1.644115 -6.638776,1.907147 -9.115223,2.227635 z"
           inkscape:connector-curvature="0"
           id="path1359"
           style="fill:#000000;fill-opacity:1;fill-rule:evenodd;stroke:#000000;stroke-width:0.95338881px;stroke-linecap:butt;stroke-linejoin:miter;stroke-opacity:1" />
        <g
           id="g1342">
          <path
             d="m 76.199476,35.932785 c -2.646114,0.368412 -2.221802,7.257677 -1.539389,13.009904 0.682413,5.752226 2.538668,9.252723 0.746075,10.337621 -1.792595,1.084898 -6.22073,-1.632017 -6.56862,-0.452354 -0.145302,0.492704 1.629265,3.721946 4.228713,4.726917 2.599448,1.004972 4.95635,2.689187 6.10686,1.124149 1.15051,-1.565038 -0.111768,-9.628584 -0.23765,-12.3828 -0.125882,-2.754217 -0.52669,-8.592967 -0.307647,-10.322725 0.26356,-2.0813 0.264674,-6.356696 0.264674,-6.356696 -0.172547,-1.380833 -2.466025,0.09454 -2.693016,0.315984 z"
             inkscape:connector-curvature="0"
             id="path1351"
             style="fill:#000000;fill-opacity:1;fill-rule:evenodd;stroke:#000000;stroke-width:0.95338881px;stroke-linecap:butt;stroke-linejoin:miter;stroke-opacity:1" />
          <g
             id="g1334">
            <path
               d="m 63.977909,36.66497 c -2.821228,0.803026 -4.028251,1.175662 -3.824829,9.344314 0.138611,5.566112 -1.974957,9.218095 -1.027673,11.659318 0.947286,2.441223 2.093157,4.17948 2.093157,4.17948 0,0 2.108015,-2.744438 2.462047,-6.371649 0.411981,-4.220921 1.466239,-6.941276 1.290732,-11.605852 -0.175507,-4.664576 -1.041962,-6.979644 -0.993434,-7.205611 z"
               inkscape:connector-curvature="0"
               id="path1347"
               style="fill:#000000;fill-opacity:1;fill-rule:evenodd;stroke:#000000;stroke-width:1.09695542px;stroke-linecap:butt;stroke-linejoin:miter;stroke-opacity:1" />
            <path
               d="m 47.325638,39.250159 c -1.240671,0.989071 0.606953,9.67705 -0.621332,13.531062 -1.228285,3.854011 -2.355461,4.732358 -0.22555,6.638021 2.129912,1.905665 2.495983,1.56238 2.495983,1.56238 0,0 1.151902,-0.497819 1.573333,-6.441701 0.421431,-5.943881 1.869722,-14.935036 0.374116,-16.131663 -1.495604,-1.196626 -1.451804,-0.918516 -3.59655,0.841901 z"
               inkscape:connector-curvature="0"
               id="path1349"
               style="fill:#000000;fill-opacity:1;fill-rule:evenodd;stroke:#000000;stroke-width:0.95338881px;stroke-linecap:butt;stroke-linejoin:miter;stroke-opacity:1" />
            <path
               d="m 49.903106,41.226635 c 5.730654,-0.721927 10.803669,-1.4662 15.007609,-2.469164 4.203939,-1.002964 15.107823,-0.06771 13.666661,-2.866613 -1.441161,-2.798907 -11.530412,-1.873193 -16.188333,-0.427332 -4.657922,1.445862 -10.138253,1.259649 -11.711634,2.351995 -1.57338,1.092347 -0.993516,3.403666 -0.774303,3.411114 z"
               inkscape:connector-curvature="0"
               id="path1353"
               style="fill:#000000;fill-opacity:1;fill-rule:evenodd;stroke:#000000;stroke-width:0.95338881px;stroke-linecap:butt;stroke-linejoin:miter;stroke-opacity:1" />
            <path
               d="m 49.584864,47.613716 c 6.565795,-0.668981 5.123557,0.508019 9.578327,-0.801856 6.02701,-1.772174 16.006448,-0.513822 16.146441,-3.496694 0.139992,-2.982873 -7.69756,-1.094493 -12.93556,-0.0099 -5.238002,1.084569 -11.853739,0.347471 -13.57738,1.548331 -1.723641,1.200861 0.556709,2.30936 0.788172,2.760143 z"
               inkscape:connector-curvature="0"
               id="path1355"
               style="fill:#000000;fill-opacity:1;fill-rule:evenodd;stroke:#000000;stroke-width:0.95338881px;stroke-linecap:butt;stroke-linejoin:miter;stroke-opacity:1" />
            <path
               d="m 50.526113,55.969749 c 11.453532,-1.214957 13.19946,-0.926471 16.080343,-1.745229 2.880882,-0.818758 12.291496,-0.04068 11.71941,-2.580892 -0.572086,-2.540216 -2.701033,-2.624661 -8.893447,-1.23094 -6.192414,1.393722 -16.535931,0.406576 -18.586627,2.628513 -2.050695,2.221936 0.118747,2.943445 -0.319679,2.928548 z"
               inkscape:connector-curvature="0"
               id="path1357"
               style="fill:#000000;fill-opacity:1;fill-rule:evenodd;stroke:#000000;stroke-width:0.95338881px;stroke-linecap:butt;stroke-linejoin:miter;stroke-opacity:1" />
            <path
               d="m 60.703894,26.92729 c 5.143013,-2.804349 2.607716,-2.703333 8.510919,-2.044428 5.903202,0.658906 7.296842,-0.02938 7.837818,3.426427 0.540976,3.455806 -2.15892,1.523604 -5.901101,1.854773 -3.74218,0.33117 -6.047779,1.303734 -8.61967,3.122512 -1.236784,0.874623 -3.019963,2.085391 -3.306911,1.681611 -0.3898,-0.54851 2.007504,-3.626175 4.246302,-4.925073 2.238798,-1.298899 2.031985,-0.372995 2.297864,-1.73893 0.265879,-1.365935 -5.292212,-1.155444 -5.065221,-1.376892 z"
               inkscape:connector-curvature="0"
               id="path1361"
               style="fill:#000000;fill-opacity:1;fill-rule:evenodd;stroke:#000000;stroke-width:0.95338881px;stroke-linecap:butt;stroke-linejoin:miter;stroke-opacity:1" />
          </g>
        </g>
      </g>
    </g>
  </g>
</svg>
