<?xml version="1.0" encoding="UTF-8" standalone="no"?>
<!-- Created with Inkscape (http://www.inkscape.org/) -->

<svg
   xmlns:dc="http://purl.org/dc/elements/1.1/"
   xmlns:cc="http://creativecommons.org/ns#"
   xmlns:rdf="http://www.w3.org/1999/02/22-rdf-syntax-ns#"
   xmlns:svg="http://www.w3.org/2000/svg"
   xmlns="http://www.w3.org/2000/svg"
   xmlns:sodipodi="http://sodipodi.sourceforge.net/DTD/sodipodi-0.dtd"
   xmlns:inkscape="http://www.inkscape.org/namespaces/inkscape"
   version="1.1"
   width="128"
   height="128"
   id="svg2"
   inkscape:version="0.48.3.1 r9886"
   sodipodi:docname="BlackRook.svg">
  <sodipodi:namedview
     pagecolor="#ffffff"
     bordercolor="#666666"
     borderopacity="1"
     objecttolerance="10"
     gridtolerance="10"
     guidetolerance="10"
     inkscape:pageopacity="0"
     inkscape:pageshadow="2"
     inkscape:window-width="640"
     inkscape:window-height="480"
     id="namedview3288"
     showgrid="false"
     inkscape:zoom="1.8653564"
     inkscape:cx="64"
     inkscape:cy="64"
     inkscape:window-x="0"
     inkscape:window-y="27"
     inkscape:window-maximized="0"
     inkscape:current-layer="svg2" />
  <defs
     id="defs4" />
  <metadata
     id="metadata7">
    <rdf:RDF>
      <cc:Work
         rdf:about="">
        <dc:format>image/svg+xml</dc:format>
        <dc:type
           rdf:resource="http://purl.org/dc/dcmitype/StillImage" />
      </cc:Work>
    </rdf:RDF>
  </metadata>
  <g
     id="layer1"
     transform="matrix(-1,0,0,-1,126.50341,125.35865)">
    <g
       id="g10964">
      <path
         d="m 9.8046247,116.56489 c 0,0 107.1261753,1.21404 106.8937853,0.40468 C 116.46604,116.16021 95.087283,18.227835 95.087283,18.227835 L 60.927745,8.1108558 26.768205,17.823157 9.8046247,116.56489 z"
         inkscape:connector-curvature="0"
         id="path2800"
         style="fill:#c3aa55;fill-opacity:1;fill-rule:evenodd;stroke:none" />
      <path
         d="m 32.079324,101.8128 c 21.227606,-4.006868 16.811408,-4.746786 34.662887,-4.532908 17.851479,0.213876 18.770326,0.181473 22.359372,0.790279 3.037742,0.51529 4.25395,2.458599 4.901416,-1.014126 0.617263,-3.310744 -1.662298,-3.093211 -11.198444,-3.884083 -9.536147,-0.790871 -26.367373,1.022225 -27.814182,1.144245 -1.446809,0.12202 -7.414258,0.60458 -13.041622,1.762799 -9.04828,1.862309 -10.648657,1.399817 -11.760233,2.682294 -1.127773,1.30117 1.530377,3.04046 1.890806,3.0515 z"
         inkscape:connector-curvature="0"
         id="path1372"
         style="fill:#000000;fill-opacity:1;fill-rule:evenodd;stroke:#000000;stroke-width:1.04144847px;stroke-linecap:butt;stroke-linejoin:miter;stroke-opacity:1" />
      <path
         d="m 53.284363,63.945574 c 0,0 5.343177,-2.493507 9.127927,0.997402 3.78475,3.490909 0.89053,4.987013 0.445265,17.454546 -0.445265,12.467532 -0.890531,27.428578 -3.78475,27.428578 -2.89422,0 -2.671588,-7.97922 -2.89422,-15.293513 -0.222634,-7.314286 3.116852,-25.766234 0.890528,-27.096104 -2.226322,-1.32987 -3.78475,-3.158442 -3.78475,-3.490909 z"
         inkscape:connector-curvature="0"
         id="path2100"
         style="fill:#000000;fill-opacity:1;fill-rule:evenodd;stroke:#000000;stroke-width:1.15726948px;stroke-linecap:butt;stroke-linejoin:miter;stroke-opacity:1" />
      <g
         transform="matrix(0.901386,0.03688791,-0.04212903,1.15275,9.903787,-13.48342)"
         id="g1333">
        <path
           d="m 42.716733,77.813066 c -1.927904,0.346837 -2.607217,1.95562 -1.669423,4.795257 1.195249,3.619209 1.88161,6.117421 4.360238,6.898047 2.259539,0.711625 3.240424,-2.627063 1.96525,-5.466977 -1.275175,-2.839917 -1.335047,-5.214889 -4.656065,-6.226327 z"
           inkscape:connector-curvature="0"
           id="path2828"
           style="fill:#000000;fill-opacity:1;fill-rule:evenodd;stroke:#000000;stroke-width:1.18664074px;stroke-linecap:butt;stroke-linejoin:miter;stroke-opacity:1" />
        <path
           d="m 78.2541,74.77929 c -4.256472,-0.802648 -3.966592,1.994805 -5.228689,4.322078 -1.262098,2.327273 -1.912577,7.050674 -1.912577,7.050674 0,0 3.701813,1.130479 5.573359,-1.747901 1.818926,-2.797453 2.579946,-3.989611 3.034197,-6.190985 0.335645,-1.62659 1.527125,-2.797452 -1.46629,-3.433866 z"
           inkscape:connector-curvature="0"
           id="path3556"
           style="fill:#000000;fill-opacity:1;fill-rule:evenodd;stroke:#000000;stroke-width:1.04144847px;stroke-linecap:butt;stroke-linejoin:miter;stroke-opacity:1" />
        <path
           d="m 41.441117,79.571548 c -1.262097,-1.163637 5.408989,-2.992208 14.96487,-4.322078 9.555881,-1.32987 22.561348,-1.662338 22.020448,-0.332468 -0.540898,1.32987 -9.579773,0.997403 -15.529661,1.496104 -5.949889,0.498702 -21.455657,3.158442 -21.455657,3.158442 z"
           inkscape:connector-curvature="0"
           id="path4284"
           style="fill:#000000;fill-opacity:1;fill-rule:evenodd;stroke:#000000;stroke-width:1.04144847px;stroke-linecap:butt;stroke-linejoin:miter;stroke-opacity:1" />
        <path
           d="m 42.833685,84.371355 c -1.20998,-1.081177 5.068085,-3.602981 14.229366,-4.838609 9.161282,-1.23563 19.11757,-0.956812 18.599007,0.278817 -0.518564,1.235628 -6.554512,1.161812 -12.258705,1.625173 -5.704194,0.463361 -20.569668,2.934619 -20.569668,2.934619 z"
           inkscape:connector-curvature="0"
           id="path5012"
           style="fill:#000000;fill-opacity:1;fill-rule:evenodd;stroke:#000000;stroke-width:0.98292404px;stroke-linecap:butt;stroke-linejoin:miter;stroke-opacity:1" />
        <path
           d="m 45.842656,89.693922 c -0.913553,-0.836342 3.680137,-4.266402 10.597039,-5.22222 6.916904,-0.955819 17.801765,-1.194774 16.940062,1.876855 -0.278995,0.994505 -7.699947,0.716864 -12.006698,1.075296 -4.306751,0.358432 -15.530403,2.270069 -15.530403,2.270069 z"
           inkscape:connector-curvature="0"
           id="path5014"
           style="fill:#000000;fill-opacity:1;fill-rule:evenodd;stroke:#000000;stroke-width:0.7511754px;stroke-linecap:butt;stroke-linejoin:miter;stroke-opacity:1" />
      </g>
      <path
         d="m 48.319541,71.373185 c 4.028642,1.076278 3.474985,0.847773 10.836823,0.07439 7.361838,-0.773382 12.803881,-0.286615 13.463319,-1.480514 0.659437,-1.1939 0.612174,-2.093045 -1.568694,-2.364821 -2.180868,-0.271777 -7.402349,0.0027 -11.856364,1.138438 -4.454014,1.135751 -10.701786,2.494594 -10.875084,2.632507 z"
         inkscape:connector-curvature="0"
         id="path5016"
         style="fill:#000000;fill-opacity:1;fill-rule:evenodd;stroke:#000000;stroke-width:0.91610116px;stroke-linecap:butt;stroke-linejoin:miter;stroke-opacity:1" />
      <g
         transform="matrix(1.070988,0,0,1.071093,-4.35961,-2.330676)"
         id="g10952">
        <path
           d="m 59.012988,30.420778 c 1.828571,4.987013 1.163636,4.82078 1.32987,9.807793 0.166234,4.987013 0.664935,9.475324 -0.332468,10.14026 -0.997402,0.664935 -4.820779,-1.828572 -4.820779,-1.662339 0,0.166234 2.65974,5.153247 5.153247,4.82078 2.493506,-0.332468 2.161039,-7.646754 1.994805,-10.971428 C 61.672728,33.246752 62.17143,32.748051 61.506495,31.085713 59.95837,30.508981 59.179221,30.254544 59.012988,30.420778 z"
           inkscape:connector-curvature="0"
           id="path1481"
           style="fill:#000000;fill-opacity:1;fill-rule:evenodd;stroke:#000000;stroke-width:1px;stroke-linecap:butt;stroke-linejoin:miter;stroke-opacity:1" />
        <path
           d="m 38.732468,48.041558 c 7.314286,0.166234 9.641558,-2.493507 14.961039,-4.987013 5.31948,-2.493507 15.127273,-4.820779 15.625974,-6.150649 0.498701,-1.32987 0.872856,-1.022312 -0.664935,-1.32987 -1.662338,-0.332468 -7.979221,2.659739 -14.961039,5.31948 -5.281676,2.012068 -14.628572,7.148052 -14.961039,7.148052 z"
           inkscape:connector-curvature="0"
           id="path2214"
           style="fill:#000000;fill-opacity:1;fill-rule:evenodd;stroke:#000000;stroke-width:1px;stroke-linecap:butt;stroke-linejoin:miter;stroke-opacity:1" />
        <path
           d="m 40.062338,38.067532 c 2.992208,0.997402 5.984415,0.498701 8.810389,-0.664936 2.825975,-1.163636 5.818182,-1.163636 5.319481,-2.825973 -0.498701,-1.662338 -0.664935,-1.496104 -4.654545,0.166233 -3.989611,1.662338 -9.309091,2.493507 -9.475325,3.324676 z"
           inkscape:connector-curvature="0"
           id="path3668"
           style="fill:#000000;fill-opacity:1;fill-rule:evenodd;stroke:#000000;stroke-width:1px;stroke-linecap:butt;stroke-linejoin:miter;stroke-opacity:1" />
        <path
           d="m 52.197403,35.740259 c -0.166234,6.981819 -0.357966,9.248083 -2.825974,12.467533 -2.504004,3.266404 -9.641559,6.815584 -9.309091,7.148052 0.332467,0.332467 3.252165,-0.633029 5.818182,-1.828572 1.815988,-0.846094 4.654546,-1.828571 6.981818,-6.150649 2.129366,-3.954539 0.997403,-11.636364 0.997403,-11.636364"
           inkscape:connector-curvature="0"
           id="path4396"
           style="fill:#000000;fill-opacity:1;fill-rule:evenodd;stroke:#000000;stroke-width:1px;stroke-linecap:butt;stroke-linejoin:miter;stroke-opacity:1" />
        <path
           d="m 67.335128,37.735064 c -0.675326,6.981818 -0.520281,11.546869 4.384291,13.498038 3.078446,1.224687 6.252118,2.342726 8.793701,2.167216 1.805465,-0.124677 3.935006,-0.466147 3.847743,-1.215566 -0.480098,-4.123093 -2.5529,-6.906196 -2.5529,-6.906196 0,0 -0.320257,4.953247 -0.320257,4.953247 0,0 -0.820231,0.767424 -3.085392,0.658757 -2.886161,-0.138459 -6.544999,-0.904443 -7.697051,-2.869151 -1.346021,-1.861817 -2.86364,-6.546085 -1.681819,-11.117514 l -1.688316,0.831169 z"
           inkscape:connector-curvature="0"
           id="path5130"
           style="fill:#000000;fill-opacity:1;fill-rule:evenodd;stroke:#000000;stroke-width:1.00778329px;stroke-linecap:butt;stroke-linejoin:miter;stroke-opacity:1" />
        <path
           d="m 66.161039,24.103895 c -0.332468,4.571428 -1.496104,6.732467 0.664935,8.893506 2.161039,2.161039 3.720041,2.957209 6.321692,3.602272 1.562202,0.387339 3.292046,0.747094 4.206332,0.747094 0.914285,0 3.653519,-0.632493 4.069103,-1.214311 0.415585,-0.581819 -2.44003,-5.144194 -2.44003,-5.144194 -0.253636,0.966743 -0.256463,2.635393 -1.408878,3.842567 0,0 -2.077627,0.355041 -4.148931,-0.221106 -2.283638,-0.635208 -4.527979,-1.782277 -5.601886,-3.607127 -1.066476,-1.812223 -0.08312,-4.072727 -0.166233,-5.07013 -0.08312,-0.997402 0.581818,-3.740259 -0.415585,-3.657142 -0.997403,0.08312 -1.163636,1.828571 -1.080519,1.828571 z"
           inkscape:connector-curvature="0"
           id="path5860"
           style="fill:#000000;fill-opacity:1;fill-rule:evenodd;stroke:#000000;stroke-width:1px;stroke-linecap:butt;stroke-linejoin:miter;stroke-opacity:1" />
        <path
           d="m 50.036364,25.766233 c 0.674306,0.72535 6.625126,-0.329545 9.225974,-1.32987 2.161039,-0.831168 5.735065,-2.244157 8.561039,-2.244156 0.587726,0 1.501378,-1.457182 0.498702,-1.994805 -0.982771,-0.52695 -1.365868,0.626009 -4.654546,1.662337 -7.147427,2.252296 -12.633766,3.657144 -13.631169,3.906494 z"
           inkscape:connector-curvature="0"
           id="path6588"
           style="fill:#000000;fill-opacity:1;fill-rule:evenodd;stroke:#000000;stroke-width:1px;stroke-linecap:butt;stroke-linejoin:miter;stroke-opacity:1" />
        <path
           d="m 73.175912,21.710421 c -1.246752,0.415584 -2.077921,1.08052 -1.745454,1.911688 0.332468,0.831169 -0.249351,1.412987 -0.249351,1.412987 -1.911688,2.41039 -3.440847,6.050617 -3.440847,6.050617 1.745455,-1.246753 4.022665,-3.806461 4.770717,-4.138928 0.748052,-0.332468 2.433447,-1.6696 2.493507,-3.158442 0.07067,-1.751928 -0.581818,-2.244156 -1.828572,-2.077922 z"
           inkscape:connector-curvature="0"
           id="path8042"
           style="fill:#000000;fill-opacity:1;fill-rule:evenodd;stroke:#000000;stroke-width:1px;stroke-linecap:butt;stroke-linejoin:miter;stroke-opacity:1" />
        <path
           d="m 73.375747,40.412783 c -2.238669,0.793153 -4.69871,2.655271 -4.69871,2.655271 1.779785,0.215019 3.537376,-0.490137 6.406786,-1.829722 2.519788,-1.176364 2.569296,-1.302497 2.041373,-2.483799 -0.678855,-1.519032 -2.511111,0.953712 -3.749449,1.65825 z"
           inkscape:connector-curvature="0"
           id="path8770"
           style="fill:#000000;fill-opacity:1;fill-rule:evenodd;stroke:#000000;stroke-width:1.03748047px;stroke-linecap:butt;stroke-linejoin:miter;stroke-opacity:1" />
        <path
           d="m 69.262094,43.060297 c 8.078803,2.640887 9.246247,4.340776 8.299381,5.305573 -0.81142,0.826785 -3.014892,-1.020097 -4.093164,-1.72735 -1.025305,-0.67251 -2.785916,-2.09222 -4.206217,-3.578223 z"
           inkscape:connector-curvature="0"
           id="path9498"
           style="fill:#000000;fill-opacity:1;fill-rule:evenodd;stroke:#000000;stroke-width:1.15234041px;stroke-linecap:butt;stroke-linejoin:miter;stroke-opacity:1" />
      </g>
    </g>
  </g>
</svg>
