<?xml version="1.0" encoding="UTF-8" standalone="no"?>
<!-- Created with Inkscape (http://www.inkscape.org/) -->

<svg
   xmlns:dc="http://purl.org/dc/elements/1.1/"
   xmlns:cc="http://creativecommons.org/ns#"
   xmlns:rdf="http://www.w3.org/1999/02/22-rdf-syntax-ns#"
   xmlns:svg="http://www.w3.org/2000/svg"
   xmlns="http://www.w3.org/2000/svg"
   xmlns:sodipodi="http://sodipodi.sourceforge.net/DTD/sodipodi-0.dtd"
   xmlns:inkscape="http://www.inkscape.org/namespaces/inkscape"
   id="svg3335"
   version="1.1"
   inkscape:version="0.48.4 r9943 custom"
   width="512"
   height="512"
   sodipodi:docname="BlackGoldPawn.svg">
  <metadata
     id="metadata3341">
    <rdf:RDF>
      <cc:Work
         rdf:about="">
        <dc:format>image/svg+xml</dc:format>
        <dc:type
           rdf:resource="http://purl.org/dc/dcmitype/StillImage" />
        <dc:title />
      </cc:Work>
    </rdf:RDF>
  </metadata>
  <defs
     id="defs3339" />
  <sodipodi:namedview
     pagecolor="#ffffff"
     bordercolor="#666666"
     borderopacity="1"
     objecttolerance="10"
     gridtolerance="10"
     guidetolerance="10"
     inkscape:pageopacity="0"
     inkscape:pageshadow="2"
     inkscape:window-width="640"
     inkscape:window-height="480"
     id="namedview3337"
     showgrid="false"
     inkscape:zoom="0.4609375"
     inkscape:cx="256"
     inkscape:cy="256"
     inkscape:window-x="347"
     inkscape:window-y="22"
     inkscape:window-maximized="0"
     inkscape:current-layer="g3355" />
  <g
     id="g3355">
    <g
       id="g4065">
      <path
         inkscape:connector-curvature="0"
         id="path3361"
         d="M 207.01633,356.66921 C 167.01924,341.2986 159.33758,338.03357 158.29539,335.96078 157.61488,334.60735 146.90742,269.75492 134.50102,191.84427 L 111.94394,50.188539 112.22197,35.84427 112.5,21.5 254.8934,21.246565 c 104.40586,-0.185823 142.75531,0.04693 143.75,0.872445 1.00657,0.835378 1.35449,4.255058 1.34843,13.253435 -0.007,10.350027 -2.99087,33.280816 -20.35821,156.450055 -14.05048,99.64604 -20.78088,144.73734 -21.74183,145.66262 -1.26334,1.21645 -100.8226,37.57078 -102.62367,37.47331 -0.42247,-0.0229 -22.13577,-8.25301 -48.25179,-18.28922 z"
         style="fill:#d3bc5f" />
      <path
         sodipodi:nodetypes="sssssssssscssssssscs"
         inkscape:connector-curvature="0"
         id="path3359"
         d="M 207.21596,355.12222 C 181.75974,345.33756 160.52966,336.91974 160.038,336.41596 159.54635,335.91218 148.76166,270.59251 136.07204,191.26113 115.83712,64.759019 113,45.63136 113,35.711133 113,28.246918 113.40812,23.99188 114.2,23.2 115.12188,22.278118 147.78183,22 255.11821,22 c 76.84502,0 140.43002,0.273145 141.3,0.606989 C 397.75259,23.119037 398,25.32713 398,36.724143 c 0,12.15881 -2.00694,27.777027 -20.06434,156.143007 -14.35996,102.08173 -20.46318,142.94168 -21.4672,143.71911 -1.97425,1.52869 -99.0876,36.42331 -101.2194,36.37 -0.96198,-0.0241 -22.57688,-8.04938 -48.0331,-17.83404 z m 95.24558,-17.63448 c 25.82884,-9.08095 47.35813,-16.90741 47.84286,-17.39214 1.13128,-1.13128 37.05874,-284.706893 36.31601,-286.642425 C 386.13666,32.19255 368.77483,32 255.5904,32 c -71.7598,0 -130.68273,0.340378 -130.93984,0.756395 -0.75565,1.222669 41.03911,286.333275 42.13458,287.428745 0.74407,0.74407 85.4361,33.10316 88.21486,33.70509 0.275,0.0596 21.63269,-7.32155 47.46154,-16.40249 z"
         style="fill:#f01713" />
      <g
         transform="matrix(-1.5626356,0,0,-1.1267045,1248.9614,529.82455)"
         id="g4026">
        <path
           style="fill:#ff0000"
           d="m 609.40625,227.90625 c 4.91804,10.34622 12.02207,21.28122 8.52085,33.11102 -2.8456,12.78488 -5.61731,26.56733 -0.0208,39.04523 5.56247,13.70412 -4.36251,26.91486 -6.25,40.21875 -3.66839,15.57304 -0.59537,33.57994 11.53125,44.53125 10.611,9.93132 26.03017,19.09285 40.9375,13.96875 4.75792,-1.62264 3.21104,-7.84555 -0.5,-9.75 -10.27479,-8.03941 -25.62394,-7.73023 -33.28125,-19.46875 -11.85415,-15.34296 -8.70369,-40.00464 7.6875,-51 7.94362,-7.22688 20.10688,-9.8575 25.875,-19.1875 1.45705,-5.75821 -4.59482,-10.31737 -9.9375,-8.5625 -7.82064,1.58274 -14.62227,6.17426 -21.75,9.625 0.55094,-18.20407 5.12982,-37.1172 0.15625,-55 -3.7278,-12.09808 -16.64599,-17.18275 -26.0625,-24.0625 1.03125,2.17708 2.0625,4.35417 3.09375,6.53125 z"
           id="path4024"
           inkscape:connector-curvature="0" />
      </g>
      <path
         inkscape:connector-curvature="0"
         id="path3357"
         d="M 207.21596,355.12222 C 181.75974,345.33756 160.52966,336.91974 160.038,336.41596 159.54635,335.91218 148.76166,270.59251 136.07204,191.26113 115.83712,64.759019 113,45.63136 113,35.711133 113,28.246918 113.40812,23.99188 114.2,23.2 115.12188,22.278118 147.78183,22 255.11821,22 c 76.84502,0 140.43002,0.273145 141.3,0.606989 C 397.75259,23.119037 398,25.32713 398,36.724143 c 0,12.15881 -2.00694,27.777027 -20.06434,156.143007 -14.35996,102.08173 -20.46318,142.94168 -21.4672,143.71911 -1.97425,1.52869 -99.0876,36.42331 -101.2194,36.37 -0.96198,-0.0241 -22.57688,-8.04938 -48.0331,-17.83404 z m 95.24558,-17.63448 c 25.82884,-9.08095 47.35813,-16.90741 47.84286,-17.39214 1.13128,-1.13128 37.05874,-284.706893 36.31601,-286.642425 C 386.13666,32.19255 368.77483,32 255.5904,32 c -71.7598,0 -130.68273,0.340378 -130.93984,0.756395 -0.75565,1.222669 41.03911,286.333275 42.13458,287.428745 0.74407,0.74407 85.4361,33.10316 88.21486,33.70509 0.275,0.0596 21.63269,-7.32155 47.46154,-16.40249 z"
         style="fill:#161513" />
    </g>
  </g>
</svg>
