<?xml version="1.0" encoding="UTF-8" standalone="no"?>
<!-- Created with Inkscape (http://www.inkscape.org/) -->

<svg
   xmlns:dc="http://purl.org/dc/elements/1.1/"
   xmlns:cc="http://creativecommons.org/ns#"
   xmlns:rdf="http://www.w3.org/1999/02/22-rdf-syntax-ns#"
   xmlns:svg="http://www.w3.org/2000/svg"
   xmlns="http://www.w3.org/2000/svg"
   xmlns:sodipodi="http://sodipodi.sourceforge.net/DTD/sodipodi-0.dtd"
   xmlns:inkscape="http://www.inkscape.org/namespaces/inkscape"
   version="1.1"
   width="128"
   height="128"
   id="svg2"
   inkscape:version="0.48.3.1 r9886"
   sodipodi:docname="BlackPawn.svg">
  <sodipodi:namedview
     pagecolor="#ffffff"
     bordercolor="#666666"
     borderopacity="1"
     objecttolerance="10"
     gridtolerance="10"
     guidetolerance="10"
     inkscape:pageopacity="0"
     inkscape:pageshadow="2"
     inkscape:window-width="640"
     inkscape:window-height="480"
     id="namedview3260"
     showgrid="false"
     inkscape:zoom="1.8653564"
     inkscape:cx="64"
     inkscape:cy="64"
     inkscape:window-x="0"
     inkscape:window-y="27"
     inkscape:window-maximized="0"
     inkscape:current-layer="svg2" />
  <defs
     id="defs4" />
  <metadata
     id="metadata7">
    <rdf:RDF>
      <cc:Work
         rdf:about="">
        <dc:format>image/svg+xml</dc:format>
        <dc:type
           rdf:resource="http://purl.org/dc/dcmitype/StillImage" />
      </cc:Work>
    </rdf:RDF>
  </metadata>
  <g
     id="layer1"
     transform="matrix(-1,0,0,-1,127.68727,125.35865)">
    <g
       id="g1336">
      <path
         d="m 17.30536,116.56489 c 0,0 93.27856,1.21404 93.07622,0.40468 C 110.17924,116.16021 91.564,18.227835 91.564,18.227835 L 61.820077,8.1108558 32.076152,17.823157 17.30536,116.56489 z"
         inkscape:connector-curvature="0"
         id="path2800"
         style="fill:#c3aa55;fill-opacity:1;fill-rule:evenodd;stroke:none" />
      <path
         d="m 41.004599,110.64878 c 0,0 9.431446,-3.59405 14.339648,-9.80195 1.184443,-1.495419 -0.192478,-4.574249 -0.192478,-4.574249 3.657092,1.198017 4.330766,2.613855 5.19692,4.356429 0,0 -0.428263,2.95652 -7.69914,6.97027 -3.94581,2.17822 -11.64495,3.0495 -11.64495,3.0495 z"
         inkscape:connector-curvature="0"
         id="path1332"
         style="fill:#000000;fill-opacity:1;fill-rule:evenodd;stroke:#000000;stroke-width:0.20270023px;stroke-linecap:butt;stroke-linejoin:miter;stroke-opacity:1" />
      <path
         d="m 36.074363,96.072028 c 0.735315,1.922581 1.058632,4.029692 2.213504,4.247512 4.755028,0.89685 12.515654,-3.361254 16.168194,-4.792065 2.50222,-0.980194 15.551369,-4.481657 20.306484,-3.485139 2.59846,0.544554 6.859006,3.834823 7.987856,2.940586 0.962392,-0.762373 0.288718,-3.70296 0.288718,-3.70296 0,0 -1.636068,-1.524751 -3.94581,-2.069304 -6.503657,-1.533324 -11.506099,-0.413075 -17.665411,1.220583 -6.19304,1.402663 -15.328735,6.930641 -25.353535,5.640787 z"
         inkscape:connector-curvature="0"
         id="path2060"
         style="fill:#000000;fill-opacity:1;fill-rule:evenodd;stroke:#000000;stroke-width:0.20270023px;stroke-linecap:butt;stroke-linejoin:miter;stroke-opacity:1" />
      <path
         d="m 53.493669,74.072087 0,14.811841 1.443588,4.900977 1.539828,-0.762373 0.384958,-19.60391 -3.368374,0.653465 z"
         inkscape:connector-curvature="0"
         id="path2790"
         style="fill:#000000;fill-opacity:1;fill-rule:evenodd;stroke:#000000;stroke-width:0.20270023px;stroke-linecap:butt;stroke-linejoin:miter;stroke-opacity:1" />
      <path
         d="m 64.079987,83.111665 c 0.288718,-0.762374 0.866154,-2.0693 1.539828,-2.0693 0.775907,0 2.828235,1.753502 2.983416,3.158407 0.09624,0.871285 -2.50222,6.316815 -2.887178,6.752458 l -2.309742,0.871285 c -0.769914,-0.762373 0.06121,-7.09561 0.673676,-8.71285 z"
         inkscape:connector-curvature="0"
         id="path2792"
         style="fill:#000000;fill-opacity:1;fill-rule:evenodd;stroke:#000000;stroke-width:0.20270023px;stroke-linecap:butt;stroke-linejoin:miter;stroke-opacity:1" />
      <path
         d="m 56.380847,80.314528 c 1.05863,0.217821 16.168194,-1.306928 16.841868,-1.960392 0.42607,-0.413287 -0.09624,-3.049496 -0.577434,-3.70296 -0.803307,-1.090891 -15.975716,3.049498 -16.360674,3.59405 l 0.09624,2.069302 z"
         inkscape:connector-curvature="0"
         id="path2794"
         style="fill:#000000;fill-opacity:1;fill-rule:evenodd;stroke:#000000;stroke-width:0.20270023px;stroke-linecap:butt;stroke-linejoin:miter;stroke-opacity:1" />
      <path
         d="m 52.520259,74.490459 c 1.114286,0.360284 10.971276,-1.089106 11.64495,-1.74257 0.326781,-0.316977 1.25111,-1.198015 1.25111,-1.851479 0,-0.762373 -5.002717,-7.21874 -5.293158,-6.643549 -0.384958,0.762374 1.338326,4.17605 1.058632,5.336621 -0.288718,1.198017 -2.213504,1.524747 -2.983418,1.633658 -0.880429,0.124545 -6.377098,-0.622944 -6.736748,0.326732 -0.288718,0.762373 0.384958,2.722766 1.058632,2.940587 z"
         inkscape:connector-curvature="0"
         id="path2796"
         style="fill:#000000;fill-opacity:1;fill-rule:evenodd;stroke:#000000;stroke-width:0.20270023px;stroke-linecap:butt;stroke-linejoin:miter;stroke-opacity:1" />
      <path
         d="m 64.209275,95.21134 c -0.183113,0.708405 12.9923,14.48511 14.33965,14.59402 1.167825,0.0944 2.598458,-1.08911 3.079656,-2.50494 0.449121,-1.32147 -3.661591,-6.45613 -10.586318,-10.237601 -2.887178,-0.871285 -6.675439,-2.460991 -6.832988,-1.851479 z"
         inkscape:connector-curvature="0"
         id="path2798"
         style="fill:#000000;fill-opacity:1;fill-rule:evenodd;stroke:#000000;stroke-width:0.20270023px;stroke-linecap:butt;stroke-linejoin:miter;stroke-opacity:1" />
      <g
         transform="matrix(1.093122,0,0,1.080064,-6.632551,-1.360261)"
         id="g5800">
        <path
           d="m 59.540188,19.282989 c 0.557326,0.836671 1.800548,0.603288 2.507963,2.196263 1.300426,2.92835 0.851694,22.834653 1.393319,24.054301 0.278666,0.627504 2.04352,2.405431 2.693737,1.987095 0.798385,-0.513666 -1.001853,-9.516262 -1.02176,-14.223414 0.252481,-4.673488 0.80382,-8.931752 0.435126,-11.549916 -0.320996,-1.802563 -1.133864,-3.471533 -2.38577,-3.82392 -1.857753,-0.522919 -3.025153,-0.786322 -3.529731,-0.104584 -0.464443,0.627504 -0.606715,0.692802 -0.09288,1.464175 z"
           inkscape:connector-curvature="0"
           id="path1407"
           style="fill:#000000;fill-opacity:1;fill-rule:evenodd;stroke:#000000;stroke-width:0.83850801px;stroke-linecap:butt;stroke-linejoin:miter;stroke-opacity:1" />
        <path
           d="m 45.709987,36.139716 c 1.564724,-0.207534 3.765876,-0.590323 5.050292,-0.855387 3.040698,-0.627503 14.496671,-4.219871 17.375398,-4.497108 2.171928,-0.209168 9.19185,-1.096546 12.075904,-0.104584 0.608143,0.209168 0.951084,1.072808 0.498861,1.888012 -3.689003,-0.124597 -8.322609,-0.283877 -12.770922,0.624752 -1.650666,0.418336 -9.507991,2.016816 -10.81115,2.435152 -1.021216,0.327829 -6.073037,2.053826 -7.711486,2.316811 -1.303159,0.209168 -2.667707,0.766768 -4.152261,0.766768 -0.955652,0 -1.541385,-0.292286 -1.888893,-1.128957 -0.269089,-0.730988 1.015547,-1.002905 2.334257,-1.445459 z"
           inkscape:connector-curvature="0"
           id="path2137"
           style="fill:#000000;fill-opacity:1;fill-rule:evenodd;stroke:#000000;stroke-width:0.81092495px;stroke-linecap:butt;stroke-linejoin:miter;stroke-opacity:1" />
        <path
           d="m 69.477311,26.07671 c -0.378747,-0.833012 1.978661,-1.218516 3.08671,-1.218516 1.691959,0 3.797057,-0.24219 3.957316,0.580245 0.07915,0.406172 -2.37439,0.928394 -3.245003,1.044443 -1.084595,0.144573 -3.482438,0.290123 -3.799023,-0.406172 z"
           inkscape:connector-curvature="0"
           id="path2865"
           style="fill:#000000;fill-opacity:1;fill-rule:evenodd;stroke:#000000;stroke-width:0.57652354px;stroke-linecap:butt;stroke-linejoin:miter;stroke-opacity:1" />
        <path
           d="m 52.677293,27.778599 c 0.351419,0.842981 1.643001,0.598223 2.558638,1.141559 0.505843,0.574595 0.29451,2.074661 0.54566,3.930348 0.392415,0.15524 0.615711,0.516702 1.220206,0.261109 0.257521,-2.176467 -0.116378,-3.879297 -0.411567,-5.022537 -0.623652,-0.844399 -1.117661,-0.963572 -2.361074,-1.474773 -1.068882,0.291644 -1.532929,0.380877 -1.551863,1.164294 z"
           inkscape:connector-curvature="0"
           id="path3593"
           style="fill:#000000;fill-opacity:1;fill-rule:evenodd;stroke:#000000;stroke-width:0.60614818px;stroke-linecap:butt;stroke-linejoin:miter;stroke-opacity:1" />
        <path
           d="m 53.4625,40.627263 c -0.292678,0.948697 -0.469869,2.893781 -0.469869,3.883759 0,0.340563 0.469869,0.380759 0.75179,0.533064 0.410978,0.22202 0.986734,-2.132261 1.268656,-2.665325 0.497789,-0.941225 1.043454,-4.066252 0.798786,-5.254497 -0.281921,-0.228457 -0.986734,0.07615 -1.268655,0.380761 -0.66578,0.719349 -0.798787,2.20841 -1.080708,3.122238 z"
           inkscape:connector-curvature="0"
           id="path4321"
           style="fill:#000000;fill-opacity:1;fill-rule:evenodd;stroke:#000000;stroke-width:0.71968359px;stroke-linecap:butt;stroke-linejoin:miter;stroke-opacity:1" />
        <path
           d="m 57.179577,41.769006 c 1.390052,-0.604191 3.340601,-1.73609 4.938278,-2.525221 1.764096,-0.871331 6.100226,-1.420438 7.697903,-1.499353 1.126228,-0.05563 2.759623,-0.157825 4.284674,0.473481 1.601653,0.663014 1.888166,1.420437 1.960791,2.209569 -0.61418,1.76979 -2.881439,3.449392 -4.284685,5.050446 -1.452427,1.657177 -4.166434,3.630007 -8.305878,6.470882 -2.308596,1.583066 -5.560601,3.075294 -8.034009,4.419139 -1.307187,0.710219 -1.607987,1.062187 -4.489046,1.274317 -0.757706,0.02102 0.649335,-0.653696 1.371914,-1.023126 0.817922,-0.353155 0.75086,-0.342091 2.481525,-1.157745 1.943004,-0.915724 3.059125,-1.490856 4.874665,-2.59564 2.945249,-2.00509 3.875954,-2.801083 5.328382,-3.748041 3.527327,-2.796425 4.711336,-4.164236 5.6105,-6.717403 0.290489,-0.710219 0.180503,-1.736542 -0.363113,-1.972829 -0.363105,-0.157826 -1.008565,-0.297135 -1.815533,-0.394566 -0.653602,-0.07891 -1.52506,-0.07891 -3.267986,0.394566 -2.323894,0.631305 -5.665178,1.464693 -7.552653,2.604136 -1.307188,0.789133 -2.228283,1.981915 -3.050113,1.657177 -0.798842,-0.315654 -1.089322,-0.631305 -0.871459,-1.183697 0.226645,-0.390533 2.39652,-1.262612 3.485843,-1.736092 z"
           inkscape:connector-curvature="0"
           id="path5049"
           style="fill:#000000;fill-opacity:1;fill-rule:evenodd;stroke:#000000;stroke-width:0.91079122px;stroke-linecap:butt;stroke-linejoin:miter;stroke-opacity:1" />
      </g>
    </g>
  </g>
</svg>
