<?xml version="1.0" encoding="UTF-8" standalone="no"?>
<!-- Created with Inkscape (http://www.inkscape.org/) -->

<svg
   xmlns:dc="http://purl.org/dc/elements/1.1/"
   xmlns:cc="http://creativecommons.org/ns#"
   xmlns:rdf="http://www.w3.org/1999/02/22-rdf-syntax-ns#"
   xmlns:svg="http://www.w3.org/2000/svg"
   xmlns="http://www.w3.org/2000/svg"
   xmlns:sodipodi="http://sodipodi.sourceforge.net/DTD/sodipodi-0.dtd"
   xmlns:inkscape="http://www.inkscape.org/namespaces/inkscape"
   id="svg2"
   version="1.1"
   inkscape:version="0.48.4 r9939"
   width="512"
   height="512"
   sodipodi:docname="BlackElephant.svg">
  <metadata
     id="metadata8">
    <rdf:RDF>
      <cc:Work
         rdf:about="">
        <dc:format>image/svg+xml</dc:format>
        <dc:type
           rdf:resource="http://purl.org/dc/dcmitype/StillImage" />
        <dc:title />
      </cc:Work>
    </rdf:RDF>
  </metadata>
  <defs
     id="defs6" />
  <sodipodi:namedview
     pagecolor="#ffffff"
     bordercolor="#666666"
     borderopacity="1"
     objecttolerance="10"
     gridtolerance="10"
     guidetolerance="10"
     inkscape:pageopacity="0"
     inkscape:pageshadow="2"
     inkscape:window-width="640"
     inkscape:window-height="480"
     id="namedview4"
     showgrid="false"
     inkscape:zoom="0.4609375"
     inkscape:cx="256"
     inkscape:cy="256"
     inkscape:window-x="473"
     inkscape:window-y="52"
     inkscape:window-maximized="0"
     inkscape:current-layer="g2987" />
  <g
     id="g2987">
    <path
       style="fill:#d3bc5f"
       d="m 187.5,455.85776 c -35.75,-11.55389 -65.56073,-21.55028 -66.24608,-22.21421 -0.73497,-0.712 -13.5527,-77.88594 -31.249996,-188.15242 L 60,58.545837 60,40.972919 C 60,28.638426 60.357716,23.042284 61.2,22.2 62.125053,21.274947 106.67071,21 255.61821,21 c 106.27002,0 193.93002,0.273145 194.8,0.606989 C 451.78652,22.132059 452,24.872588 452,41.913335 l 0,19.699357 -30.00398,185.411928 c -17.63655,108.98636 -30.51759,185.90928 -31.25,186.61854 -1.87074,1.81159 -131.64029,43.36741 -135.18269,43.28926 C 253.8785,476.89525 223.25,467.41165 187.5,455.85776 z"
       id="path2991"
       inkscape:connector-curvature="0" />
    <path
       style="fill:#11100c"
       d="m 188.5,454.89208 c -35.75,-11.55144 -65.54439,-21.54024 -66.20976,-22.19735 -0.68354,-0.67506 -14.2764,-82.6365 -31.249996,-188.42944 L 61,57.03058 61,40.71529 C 61,29.358953 61.364734,24.035266 62.2,23.2 63.125009,22.274991 107.44849,22 255.61821,22 c 105.72002,0 192.93002,0.273145 193.8,0.606989 C 450.78146,23.130117 451,25.761559 451,41.653514 l 0,18.439536 -30.03848,185.70347 c -16.94975,104.78652 -30.56638,186.22397 -31.25,186.89799 -1.5292,1.50773 -131.13022,43.32413 -134.05297,43.25284 -1.1872,-0.029 -31.40855,-9.50383 -67.15855,-21.05527 z m 131.31997,-23.99874 c 53.05638,-17.68542 63.45889,-21.45408 64.17632,-23.25 1.33343,-3.33792 56.20618,-372.673338 55.60242,-374.246697 C 439.14265,32.20816 411.79196,32 256.0904,32 155.4556,32 72.90525,32.344292 72.64518,32.765094 c -0.465276,0.752833 54.80074,371.913786 55.88836,375.340596 0.4193,1.32107 16.14663,6.97617 63.26224,22.74729 34.48732,11.54402 63.15419,21.02465 63.70416,21.06807 0.54996,0.0434 29.49398,-9.41905 64.32003,-21.02771 z M 218.43399,398.20808 c -1.68631,-0.93944 -4.65379,-2.94558 -6.59439,-4.45808 -3.36068,-2.6193 -4.05092,-2.75 -14.52275,-2.75 -6.04691,0 -20.55699,-0.29781 -32.24464,-0.6618 -18.25551,-0.56853 -21.5548,-0.91226 -23.41124,-2.43908 l -2.16097,-1.77728 2.27399,-2.31092 c 2.11894,-2.15336 3.27803,-2.34501 17,-2.81092 l 14.72601,-0.5 0.29153,-7.72052 c 0.27836,-7.37148 0.18573,-7.74708 -2.04875,-8.3079 -1.28715,-0.32306 -8.31714,-0.13938 -15.6222,0.40818 -7.30506,0.54755 -13.92063,0.75046 -14.70126,0.45091 C 140.21372,364.86803 140,355.00687 140,299.84198 l 0,-64.94403 3.46788,-1.44898 c 4.71847,-1.9715 9.04419,-1.82056 15.7918,0.55103 5.16583,1.81564 8.25381,2 33.5,2 25.24618,0 28.33417,-0.18436 33.5,-2 6.74102,-2.36928 11.53243,-2.53153 16.27244,-0.55103 l 3.46788,1.44898 0,63.16705 0,63.16705 -3.6069,4.91357 C 237.84751,372.33796 234.62533,374 227.16593,374 c -5.41342,0 -6.52382,-0.40427 -12.67072,-4.61315 -3.92986,-2.69084 -6.9994,-4.18987 -7.36626,-3.59738 -0.34592,0.55868 -0.40395,4.0971 -0.12895,7.86315 l 0.5,6.84738 17.0998,0.5 c 17.89087,0.52313 20.4002,1.15755 20.4002,5.15763 0,2.34044 -2.36631,6.2714 -6.37626,10.59237 -2.86322,3.0853 -3.37355,3.24788 -10.06991,3.20808 -4.72235,-0.0281 -8.06723,-0.60648 -10.11984,-1.75 z m -24.26732,-18.18746 c 0.18333,-0.53867 0.18222,-3.9185 -0.002,-7.51074 -0.27445,-5.33801 -0.70686,-6.72994 -2.36667,-7.61824 -1.53666,-0.8224 -2.33916,-0.75895 -3.29781,0.26074 -1.27976,1.36124 -2.72777,14.28624 -1.71407,15.29993 0.94912,0.94913 7.03214,0.59335 7.38102,-0.43169 z M 172.27928,344.79276 C 171.92952,329.41101 166.46028,307 163.05623,307 c -1.63886,0 -1.44793,46.66785 0.19377,47.36143 0.6875,0.29045 3.05,0.44045 5.25,0.33333 l 4,-0.19476 -0.22072,-9.70724 z M 192.8,353.8 c 0.73903,-0.73903 1.2,-4.36325 1.2,-9.43462 0,-9.74515 2.31768,-21.88314 4.83159,-25.30359 3.45692,-4.70354 6.83123,-6.41421 13.40497,-6.79588 C 224.10202,311.577 223,313.48789 223,293.60227 l 0,-17.35963 -3.25,-1.37132 C 217.26708,273.82367 210.12731,273.5 189.5,273.5 l -27,0 -0.27343,12 -0.27344,12 8.82582,9 c 8.31223,8.47628 8.95125,9.43643 10.98136,16.5 1.18554,4.125 2.91501,12.45 3.84327,18.5 1.87143,12.19732 3.87487,15.62155 7.19642,12.3 z m 29.94484,-7.8 c 0.18061,-6.27043 -0.0292,-8.04097 -0.79969,-6.75 -0.57449,0.9625 -1.40344,1.75 -1.84211,1.75 -0.43867,0 -2.69488,-4.95 -5.0138,-11 -2.31891,-6.05 -4.5895,-11 -5.04574,-11 -1.35384,0 -2.03476,2.76731 -3.04893,12.3911 -1.33015,12.62219 -1.23932,20.96415 0.24442,22.44789 0.81179,0.81179 3.65629,1.13934 8.25,0.95 L 222.5,354.5 222.74484,346 z M 222.5,255.5 l 0,-10 -5,-1.25072 c -3.48929,-0.87283 -12.55353,-1.17497 -30,-1 l -25,0.25072 -0.28837,9.92882 c -0.1586,5.46085 -0.0577,10.53007 0.22434,11.26492 0.4151,1.08173 6.18156,1.28566 30.28837,1.07118 L 222.5,265.5 l 0,-10 z m 63.20173,139.25753 c -1.29184,-0.95498 -1.85838,-3.49522 -2.35476,-10.55823 -0.80889,-11.50961 -1.49803,-12.19285 -12.31948,-12.21404 -8.01668,-0.0157 -12.29925,-1.44235 -12.84559,-4.27925 C 257.67334,365.06526 263.73716,363 271.99927,363 c 5.15414,0 7.20969,-0.38095 7.6043,-1.4093 1.10244,-2.87292 -10.84329,-25.09096 -18.23601,-33.91743 -4.88486,-5.83222 -2.28704,-6.19027 6.13244,-0.84519 9.38068,5.95529 18.10558,14.69886 24.53912,24.59166 3.24783,4.99414 6.39813,9.65637 7.00068,10.3605 0.80501,0.94072 4.32626,1.20591 13.27787,1 L 324.5,362.5 l 0.51987,-15 c 0.28593,-8.25 0.90115,-15.79943 1.36716,-16.77651 2.57077,-5.39012 18.1527,-9.50067 31.81201,-8.39209 7.03262,0.57076 10.21939,1.71067 11.08441,3.96488 0.51212,1.33455 -2.71887,35.09313 -3.77606,39.45372 -0.30002,1.2375 -0.92819,2.25 -1.39593,2.25 -0.46774,0 -4.12496,-7.21557 -8.12716,-16.0346 -4.00975,-8.83566 -7.77229,-15.86296 -8.38051,-15.6523 -1.12879,0.39095 -1.13908,10.07772 -0.0257,24.23179 0.53273,6.77271 0.42409,7.23361 -2.81194,11.92939 -4.65496,6.75481 -7.70283,8.77696 -13.97465,9.2717 -5.50481,0.43423 -4.75451,0.71747 -20.88679,-7.88478 -6.33743,-3.37933 -7.96087,-1.15433 -5.84711,8.01378 0.81039,3.51496 0.70442,4.83933 -0.53908,6.73714 -3.04868,4.65287 -14.495,8.60097 -17.81676,6.14541 z m 10.17071,-60.40895 c -1.00144,-1.20501 -1.5076,-6.40865 -1.87244,-19.25 L 293.5,297.5 278,297 c -15.6323,-0.50427 -20,-1.48965 -20,-4.51213 0,-3.40779 4.11125,-4.39425 18.93633,-4.54362 7.93325,-0.0799 15.018,-0.37323 15.74388,-0.65178 C 293.72527,286.89145 294,281.50501 294,261.41606 l 0,-25.36995 2.70602,-1.77306 c 1.84199,-1.20692 4.6499,-1.77305 8.79398,-1.77305 4.14408,0 6.95199,0.56613 8.79398,1.77305 l 2.70602,1.77306 0,25.36995 c 0,22.2116 0.19692,25.44553 1.58179,25.97695 0.86998,0.33385 11.89498,0.60699 24.5,0.60699 21.64899,0 23.02991,0.1117 24.93514,2.01693 1.85794,1.85794 1.90022,2.24261 0.53631,4.88012 C 364.51994,302.69659 358.70192,307 352.19058,307 c -3.6469,0 -5.40244,-0.74118 -19.3365,-8.16384 -2.69079,-1.43338 -5.17954,-1.8628 -9.5,-1.63917 L 317.5,297.5 317,313.71572 c -0.57779,18.73861 -0.57971,18.74277 -9.64186,20.8748 -7.65933,1.802 -9.82495,1.75638 -11.4857,-0.24194 z M 204,213.80047 c -24.19293,-22.30868 -50,-47.29791 -50,-48.41547 0,-0.76175 0.71252,-1.385 1.58339,-1.385 2.39996,0 16.5634,3.74556 20.7015,5.47457 6.49398,2.71336 6.40113,2.8692 6.92442,-11.62248 0.39776,-11.01536 0.75864,-13.35549 2.22496,-14.42769 3.10918,-2.27348 9.10347,-2.65847 15.57575,-1.00035 7.42691,1.90269 48.40951,2.32418 49.5311,0.50942 0.94646,-1.5314 -1.53639,-3.16741 -15.04112,-9.91095 -13.85213,-6.91702 -26.02885,-11.0649 -39.5,-13.45531 -5.225,-0.92716 -11.3,-2.16534 -13.5,-2.75151 -3.81702,-1.01701 -3.88875,-1.10739 -1.56796,-1.97585 1.47941,-0.5536 8.33416,-0.51096 17.5,0.10888 21.21494,1.43465 36.22566,4.43072 53.47204,10.67279 8.6193,3.11963 12.70817,3.70458 9.06696,1.29713 -21.88674,-14.47084 -51.53534,-25.88977 -73.76976,-28.411858 -7.11323,-0.806866 -7.88063,-2.569371 -1.61915,-3.71873 7.35998,-1.351001 30.66092,-0.980018 40.73006,0.648479 15.86515,2.565891 25.18776,5.385129 42.93781,12.984749 11.00604,4.7122 -5.51985,-7.07797 -20.23669,-14.437586 C 232.70214,85.82679 211.92662,79.094742 193.25,75.914298 188.67399,75.135049 186,74.208122 186,73.40112 c 0,-1.454097 3.9441,-2.064654 18.27802,-2.829483 14.98527,-0.799584 33.08501,-7.606314 49.22198,-18.510798 3.3,-2.229961 7.02094,-4.055906 8.26876,-4.057656 1.90084,-0.0027 12.07791,4.637912 25.73124,11.733032 4.67093,2.427304 6.51436,4.368789 9.27071,9.763785 2.16663,4.240758 2.56035,6.366636 2.59281,14 0.023,5.408835 -0.6867,11.992637 -1.77862,16.5 -2.60196,10.74061 -9.51773,24.94479 -14.99751,30.80312 -2.52307,2.69736 -4.58739,5.33678 -4.58739,5.86537 0,0.5286 1.62274,1.73491 3.60608,2.6807 4.65463,2.21964 5.53304,1.46954 8.98468,-7.67225 9.90032,-26.22136 27.6946,-48.534619 51.16946,-64.164277 l 10.08481,-6.714505 9.06763,4.850921 c 4.9872,2.668006 9.07207,5.357488 9.07749,5.976625 0.005,0.619138 -4.15265,3.509137 -9.24015,6.422222 -11.6652,6.679453 -25.09629,16.030325 -34.69171,24.152744 -11.97823,10.13945 -35.64498,37.53926 -34.7483,40.2293 0.50072,1.50216 49.88355,1.48942 50.38435,-0.013 0.19856,-0.59567 -6.40144,-5.52995 -14.66666,-10.96507 -14.02062,-9.21982 -17.52628,-12.49878 -13.27768,-12.41907 1.74397,0.0327 20.77494,2.71602 35.5,5.00537 5.66711,0.88109 7.75,1.60609 7.75,2.69757 0,0.82096 -2.25,4.08986 -5,7.26423 -2.75,3.17437 -5,5.98547 -5,6.2469 0,0.26143 2.80393,0.72957 6.23096,1.04033 9.59021,0.86961 9.76904,1.27661 9.76904,22.23376 l 0,17.29941 -3.83388,4.8398 c -5.81348,7.33881 -6.56472,7.75156 -14.10827,7.75156 -5.90432,0 -7.37183,-0.40475 -11.8226,-3.2608 -2.79484,-1.79344 -5.62121,-3.91109 -6.28083,-4.70588 C 326.03722,184.33992 323.0788,184 314.37756,184 c -10.34878,0 -13.85024,0.83717 -9.87756,2.36163 2.56489,0.98424 1.72174,2.23393 -5.3766,7.96913 l -6.8766,5.55604 -24.8734,-0.51868 c -13.68037,-0.28527 -28.9234,-0.1473 -33.8734,0.3066 -8.63401,0.79172 -8.98686,0.91921 -8.67699,3.13517 0.19072,1.3639 -0.78445,3.76184 -2.38111,5.85518 -2.64697,3.47035 -10.79923,9.35946 -12.88768,9.30993 C 208.9744,217.9612 206.475,216.08271 204,213.80047 z m 78,-25.67803 c 0,-3.13637 -3.30941,-3.47991 -37.81645,-3.92562 -19.07595,-0.24639 -35.56932,-0.27555 -36.65192,-0.0648 -1.87097,0.36423 -1.84927,0.49414 0.43856,2.62558 C 210.37095,188.99425 210.469,189 246.18856,189 266.06502,189 282,188.60952 282,188.12244 z m -14.60699,-15.70423 c 0.88863,-2.31573 0.71198,-15.70455 -0.22671,-17.18337 -0.62461,-0.98401 -7.45472,-1.20623 -30.73469,-1 L 206.5,154.5 l -0.29313,8.41641 c -0.16122,4.62903 -0.0628,9.01653 0.21861,9.75 0.41073,1.07034 6.41877,1.33359 30.43615,1.33359 26.36464,0 29.9966,-0.18817 30.53138,-1.58179 z M 340.5,164 l 0,-9.5 -25,0 -25,0 -0.29313,8.41641 c -0.16122,4.62903 -0.0598,9.02441 0.22534,9.76752 0.42005,1.09464 5.22135,1.30033 25.29313,1.08359 L 340.5,173.5 l 0,-9.5 z M 277,81.923077 c 0,-4.278003 -0.45998,-5.536908 -2.92308,-8 L 271.15385,71 250.07692,71 C 236.69231,71 229,71.364964 229,72 c 0,0.55 0.81525,1 1.81166,1 4.96244,0 32.87227,8.547822 39.18834,12.00204 5.91218,3.233335 7,2.754855 7,-3.078963 z"
       id="path2989"
       inkscape:connector-curvature="0" />
  </g>
</svg>
