<?xml version="1.0" encoding="UTF-8" standalone="no"?>
<!-- Created with Inkscape (http://www.inkscape.org/) -->

<svg
   xmlns:dc="http://purl.org/dc/elements/1.1/"
   xmlns:cc="http://creativecommons.org/ns#"
   xmlns:rdf="http://www.w3.org/1999/02/22-rdf-syntax-ns#"
   xmlns:svg="http://www.w3.org/2000/svg"
   xmlns="http://www.w3.org/2000/svg"
   xmlns:sodipodi="http://sodipodi.sourceforge.net/DTD/sodipodi-0.dtd"
   xmlns:inkscape="http://www.inkscape.org/namespaces/inkscape"
   id="svg3332"
   version="1.1"
   inkscape:version="0.48.4 r9939"
   width="512"
   height="512"
   sodipodi:docname="w_crown_prince.svg">
  <metadata
     id="metadata3338">
    <rdf:RDF>
      <cc:Work
         rdf:about="">
        <dc:format>image/svg+xml</dc:format>
        <dc:type
           rdf:resource="http://purl.org/dc/dcmitype/StillImage" />
        <dc:title />
      </cc:Work>
    </rdf:RDF>
  </metadata>
  <defs
     id="defs3336" />
  <sodipodi:namedview
     pagecolor="#ffffff"
     bordercolor="#666666"
     borderopacity="1"
     objecttolerance="10"
     gridtolerance="10"
     guidetolerance="10"
     inkscape:pageopacity="0"
     inkscape:pageshadow="2"
     inkscape:window-width="640"
     inkscape:window-height="480"
     id="namedview3334"
     showgrid="false"
     inkscape:zoom="0.4609375"
     inkscape:cx="256"
     inkscape:cy="256"
     inkscape:window-x="225"
     inkscape:window-y="75"
     inkscape:window-maximized="0"
     inkscape:current-layer="g3342" />
  <g
     id="g3342">
    <path
       style="fill:#d3bc5f"
       d="M 187.5,455.85418 C 151.75,444.30254 121.94155,434.31015 121.259,433.64888 120.53071,432.9433 107.62291,355.20093 90.015643,245.47329 L 60.013279,58.5 60.006639,40.95 C 60.001977,28.625455 60.357296,23.042704 61.2,22.2 62.125053,21.274947 106.67071,21 255.61821,21 c 106.27002,0 193.93002,0.273145 194.8,0.606989 C 451.78633,22.131984 452,24.867998 452,41.861254 l 0,19.647275 -30.01001,185.470031 c -17.54537,108.43516 -30.52504,185.9674 -31.25,186.66749 -1.86408,1.80015 -131.70736,43.36504 -135.20899,43.28254 -1.66705,-0.0393 -32.281,-9.52276 -68.031,-21.07441 z"
       id="path3348"
       inkscape:connector-curvature="0" />
    <path
       style="fill:#f5180d"
       d="M 188.5,454.90925 C 152.75,443.35908 122.9506,433.36395 122.27911,432.69786 121.58154,432.0059 108.1865,351.24281 91.029105,244.28123 L 61,57.075671 61,40.66028 C 61,28.066351 61.315563,23.982995 62.355528,23.119901 63.351637,22.293204 114.98973,22.061875 257.10553,22.247456 L 450.5,22.5 l 0.2719,18.704728 0.2719,18.704728 -30.05498,185.792634 c -17.03864,105.32883 -30.582,186.31475 -31.2719,186.99821 -1.52248,1.50829 -131.09111,43.3163 -134.05146,43.25449 -1.191,-0.0249 -31.41546,-9.49536 -67.16546,-21.04554 z m 131.26555,-24.00551 c 53.67328,-17.87179 63.47753,-21.42546 64.14476,-23.25 1.32632,-3.62685 56.24994,-372.793743 55.68302,-374.271132 C 439.14442,32.212768 410.90532,32 256.0904,32 155.4556,32 72.907358,32.340881 72.649865,32.757513 72.191006,33.499962 127.47757,404.77861 128.55026,408.15835 c 0.40414,1.27335 16.97019,7.19174 63.74789,22.77458 34.76102,11.57979 63.40624,21.05706 63.65605,21.06061 0.24982,0.004 28.96492,-9.48686 63.81135,-21.0898 z M 247.3453,371.86362 c -0.62902,-0.78824 -1.33796,-8.53682 -1.68014,-18.36362 -0.32557,-9.35 -1.04987,-19.025 -1.60956,-21.5 -0.55968,-2.475 -1.54939,-6.86818 -2.19935,-9.76262 -0.64995,-2.89444 -1.69525,-5.6888 -2.32289,-6.20969 -0.67855,-0.56315 -23.65756,-1.06476 -56.68447,-1.23738 C 123.40358,314.47961 124,314.53284 124,309.53807 c 0,-4.78532 1.68649,-4.94091 57.85804,-5.33776 l 52.35804,-0.36991 -0.60003,-3.00016 c -0.73511,-3.67555 -10.16812,-19.14932 -16.72174,-27.4301 -6.99481,-8.83825 -22.45786,-23.2908 -31.00484,-28.9787 C 178.84353,239.73247 156.04561,228 153.98018,228 153.44108,228 153,227.4833 153,226.85178 c 0,-1.86564 14.07877,-0.29879 27.22704,3.03014 34.41472,8.71324 61.6686,30.74369 78.33078,63.31803 L 264.08218,304 l 3.83647,0 c 4.58575,0 5.0352,-0.50044 8.53209,-9.5 9.10105,-23.42243 25.95777,-44.74417 45.0091,-56.93116 12.3953,-7.92918 28.02732,-14.61478 33.94671,-14.51855 3.73144,0.0607 19.73967,6.03944 19.94667,7.44971 0.0807,0.55 -3.90322,2.39157 -8.85322,4.09238 -19.84985,6.82035 -39.13939,19.04962 -55.04593,34.89826 -13.53789,13.48861 -26.85932,31.53782 -24.77453,33.56702 0.45125,0.43923 23.13922,0.94344 50.4177,1.12047 40.20931,0.26094 49.91007,0.58165 51.25,1.69431 2.82864,2.34889 2.1472,9.14493 -1.40924,14.05445 -3.65903,5.05115 -8.02163,7.08081 -15.15588,7.05115 -6.46643,-0.0269 -11.74567,-2.32078 -18.20268,-7.90929 l -4.90661,-4.24663 -33.92545,0.33894 -33.92545,0.33894 -1.89701,2.34355 c -3.87305,4.78473 -6.96725,17.63719 -7.60498,31.58905 -0.34741,7.6003 -1.1464,14.15762 -1.90975,15.67323 -2.44013,4.84482 -19.43726,10.05051 -22.06489,6.75779 z m 0.2422,-117.72205 c -0.34551,-0.55904 3.99346,-5.68844 9.64215,-11.39866 5.64869,-5.71023 11.21716,-11.67532 12.37437,-13.25575 1.87052,-2.55463 2.68466,-2.86477 7.33614,-2.79459 10.74867,0.16215 21.68472,8.69233 16.50249,12.87205 -8.71767,7.03121 -43.65468,18.13739 -45.85515,14.57695 z M 312.5,205.68208 c -2.2,-1.26161 -5.98002,-3.73119 -8.40004,-5.48796 L 299.69992,197 240.09996,196.9436 c -61.71993,-0.0584 -65.05021,-0.2647 -67.49018,-4.17966 -0.85678,-1.3747 -0.61087,-2.20738 1.18129,-4 l 2.26332,-2.2639 60.97349,-0.5 c 38.66676,-0.31708 61.02733,-0.85858 61.12064,-1.48016 0.0809,-0.53908 -5.88189,-4.90237 -13.25069,-9.69618 -22.88724,-14.88942 -21.47871,-14.20093 -26.29429,-12.85265 -2.30652,0.64579 -5.97339,1.02899 -8.1486,0.85157 L 246.5,162.5 245.93993,145 c -0.30804,-9.625 -0.64554,-17.55468 -0.75,-17.62151 -0.10446,-0.0668 -23.25243,-0.32444 -51.43993,-0.57246 -45.77944,-0.4028 -51.59691,-0.63274 -54.5,-2.15416 -4.5049,-2.36089 -4.24531,-5.0363 0.74399,-7.66793 1.93144,-1.01874 13.99927,-1.42021 53.5,-1.77981 36.07333,-0.3284 51.2211,-0.7922 51.7407,-1.58423 1.09207,-1.66467 0.89387,-47.867902 -0.21286,-49.6199 -0.74984,-1.18704 -4.13704,-1.606901 -16.23468,-2.012373 -16.70035,-0.559738 -16.50947,-0.269212 -3.5936,-5.469612 3.68145,-1.482288 9.98145,-4.69514 14,-7.139672 6.27536,-3.817381 7.84731,-4.365835 11.13909,-3.88644 7.58421,1.104517 16.70161,7.068194 18.88726,12.354125 0.66113,1.598913 1.2786,13.486932 1.55324,29.903972 l 0.45585,27.25 38.63551,0.064 c 44.75599,0.0741 66.27664,0.97834 68.56923,2.88102 2.62415,2.17785 1.78048,5.57186 -2.94894,11.86339 -5.064,6.73661 -7.93856,8.19161 -16.18367,8.19161 -5.98427,0 -9.23963,-1.37877 -16.88612,-7.15192 L 337.31826,127 l -33.06101,0 -33.06102,0 -0.46785,13.25 c -0.25732,7.2875 -0.80432,14.26389 -1.21556,15.50309 -0.66469,2.00295 -0.15179,2.51599 4.61974,4.621 2.95209,1.30235 11.89244,4.64651 19.86744,7.43147 45.56453,15.91166 44.09964,15.28772 47.53663,20.2473 2.52325,3.64104 2.55537,3.86856 0.97709,6.92061 -0.89756,1.7357 -3.77261,5.37672 -6.38899,8.09117 L 331.36768,208 l -7.43384,-0.012 c -5.90723,-0.01 -8.25528,-0.4831 -11.43384,-2.30587 z"
       id="path3346"
       inkscape:connector-curvature="0" />
    <path
       style="fill:#11100c"
       d="M 188.5,454.90925 C 152.75,443.35908 122.9506,433.36395 122.27911,432.69786 121.58154,432.0059 108.1865,351.24281 91.029105,244.28123 L 61,57.075671 61,40.66028 C 61,28.066351 61.315563,23.982995 62.355528,23.119901 63.351637,22.293204 114.98973,22.061875 257.10553,22.247456 L 450.5,22.5 l 0.2719,18.704728 0.2719,18.704728 -30.05498,185.792634 c -17.03864,105.32883 -30.582,186.31475 -31.2719,186.99821 -1.52248,1.50829 -131.09111,43.3163 -134.05146,43.25449 -1.191,-0.0249 -31.41546,-9.49536 -67.16546,-21.04554 z m 131.26555,-24.00551 c 53.67328,-17.87179 63.47753,-21.42546 64.14476,-23.25 1.32632,-3.62685 56.24994,-372.793743 55.68302,-374.271132 C 439.14442,32.212768 410.90532,32 256.0904,32 155.4556,32 72.907358,32.340881 72.649865,32.757513 72.191006,33.499962 127.47757,404.77861 128.55026,408.15835 c 0.40414,1.27335 16.97019,7.19174 63.74789,22.77458 34.76102,11.57979 63.40624,21.05706 63.65605,21.06061 0.24982,0.004 28.96492,-9.48686 63.81135,-21.0898 z"
       id="path3344"
       inkscape:connector-curvature="0" />
  </g>
</svg>
