<?xml version="1.0" encoding="UTF-8" standalone="no"?>
<!-- Created with Inkscape (http://www.inkscape.org/) -->

<svg
   xmlns:dc="http://purl.org/dc/elements/1.1/"
   xmlns:cc="http://creativecommons.org/ns#"
   xmlns:rdf="http://www.w3.org/1999/02/22-rdf-syntax-ns#"
   xmlns:svg="http://www.w3.org/2000/svg"
   xmlns="http://www.w3.org/2000/svg"
   xmlns:sodipodi="http://sodipodi.sourceforge.net/DTD/sodipodi-0.dtd"
   xmlns:inkscape="http://www.inkscape.org/namespaces/inkscape"
   id="svg3247"
   version="1.1"
   inkscape:version="0.48.4 r9943 custom"
   width="512"
   height="512"
   sodipodi:docname="BlackGoldLance.svg">
  <metadata
     id="metadata3253">
    <rdf:RDF>
      <cc:Work
         rdf:about="">
        <dc:format>image/svg+xml</dc:format>
        <dc:type
           rdf:resource="http://purl.org/dc/dcmitype/StillImage" />
        <dc:title />
      </cc:Work>
    </rdf:RDF>
  </metadata>
  <defs
     id="defs3251" />
  <sodipodi:namedview
     pagecolor="#ffffff"
     bordercolor="#666666"
     borderopacity="1"
     objecttolerance="10"
     gridtolerance="10"
     guidetolerance="10"
     inkscape:pageopacity="0"
     inkscape:pageshadow="2"
     inkscape:window-width="640"
     inkscape:window-height="480"
     id="namedview3249"
     showgrid="false"
     inkscape:zoom="0.4609375"
     inkscape:cx="256"
     inkscape:cy="256"
     inkscape:window-x="106"
     inkscape:window-y="34"
     inkscape:window-maximized="0"
     inkscape:current-layer="g3257" />
  <g
     id="g3257">
    <g
       id="g3935">
      <path
         inkscape:connector-curvature="0"
         id="path3263"
         d="m 202.64926,375.07216 c -28.51791,-10.36479 -52.44908,-19.45867 -53.18039,-20.20862 -0.82918,-0.85031 -10.58815,-58.42782 -25.92758,-152.97169 L 98.943356,50.283702 99.221678,35.891851 99.5,21.5 254.89374,21.246847 c 114.01825,-0.185748 155.75486,0.04655 156.75,0.872445 1.00598,0.834888 1.35455,4.257792 1.34964,13.253153 -0.006,10.555037 -2.9097,32.011119 -22.39574,165.473295 -12.31402,84.34016 -22.77354,153.72848 -23.24338,154.19627 -0.87775,0.8739 -110.63726,38.99099 -112.06173,38.9166 -0.43589,-0.0228 -24.12536,-8.52167 -52.64327,-18.88645 z"
         style="fill:#d3bc5f" />
      <g
         transform="matrix(-1.1711716,0,0,-1.1711716,99.101722,501.58782)"
         style="fill:#ff0000"
         id="g3885">
        <path
           style="fill:#ff0000"
           d="m -139.67187,369.20679 c -10.04129,-3.05078 -23.88905,-11.2287 -23.88905,-14.10791 0,-1.0846 12.34138,-1.97201 27.42529,-1.97201 26.00404,0 27.42529,0.39242 27.42529,7.57212 0,11.13021 -11.7254,14.35217 -30.96153,8.5078 z m -1.51861,-24.34066 c 1.18667,-1.92008 -2.42658,-8.71213 -8.02945,-15.09344 -13.47739,-15.34987 -19.04503,-32.38544 -14.49534,-44.35203 6.17862,-16.25099 20.59324,-14.74272 27.74582,2.90319 1.83864,4.53604 2.90338,-2.91509 3.04468,-21.30699 0.26017,-33.86101 -0.70505,-34.30119 -31.94768,-14.56968 -24.67879,15.58606 -27.8673,16.53839 -22.63422,6.7603 2.04643,-3.82379 5.19456,-6.04149 6.99586,-4.92823 1.80129,1.11326 9.82292,-3.27944 17.82584,-9.76156 28.45594,-23.04844 54.67432,-31.17466 69.416494,-21.51522 10.93251,7.16326 10.87171,13.57608 -0.17645,18.60995 -12.237954,5.57598 -16.727224,4.95049 -10.336534,-1.44019 2.98024,-2.98024 4.542064,-6.83692 3.4707,-8.5704 -2.22468,-3.59962 -15.45159,-4.17702 -23.64669,-1.03227 -5.0061,1.92102 -4.97438,2.52096 0.3386,6.40591 5.34622,3.90925 5.47914,6.85971 1.51076,33.53339 -3.17548,21.34414 -3.34274,31.13137 -0.61899,36.22072 5.59887,10.46162 4.50526,23.7923 -2.52893,30.82647 -7.16477,7.16479 -19.27958,12.72253 -15.93449,7.31008 z m 8.48301,-21.41408 c 0,-11.10402 -2.36661,-17.53402 -9.67607,-26.28957 -19.00328,-22.76286 -23.715,0.74502 -5.62753,28.07705 4.69951,7.10143 10.06534,12.91169 11.92408,12.91169 1.85874,0 3.37952,-6.61464 3.37952,-14.69917 z m 10.28449,0.78419 c 0,-1.77421 -1.54268,-3.22583 -3.42816,-3.22583 -1.88549,0 -3.42817,2.40506 -3.42817,5.34457 0,2.93951 1.54268,4.39113 3.42817,3.22583 1.88548,-1.1653 3.42816,-3.57036 3.42816,-5.34457 z m -26.19377,-101.64249 c 10.79071,-11.80949 9.69205,-18.14084 -3.14793,-18.14084 -10.64413,0 -10.5158,-3.68469 0.80082,-22.99504 8.95586,-15.28202 9.0156,-15.75951 2.57112,-20.55064 -6.12047,-4.55024 -5.75476,-4.82658 5.05506,-3.8198 6.40906,0.59692 13.31357,3.73801 15.34335,6.9802 2.99311,4.78094 1.43889,8.22704 -8.22468,18.23617 l -11.91519,12.34126 16.78061,-1.09536 c 20.55932,-1.34201 23.72478,3.95903 8.21797,13.76223 -6.20726,3.92415 -16.68528,11.38155 -23.2845,16.572 l -11.99856,9.43719 z"
           id="path3883"
           inkscape:connector-curvature="0"
           sodipodi:nodetypes="ssssscsssssssssssssssssccssssssssssssssssscssscs" />
      </g>
      <path
         sodipodi:nodetypes="sssssssssscssssssssss"
         inkscape:connector-curvature="0"
         id="path3261"
         d="M 202.01827,373.18144 C 155.67821,356.33603 150.45761,354.21891 149.74625,351.98347 149.31159,350.61756 137.94087,281.42862 124.47798,198.23028 102.89406,64.845374 100,45.626872 100,35.680277 100,28.240062 100.40851,23.991493 101.2,23.2 102.12286,22.277143 137.67071,22 255.11821,22 c 83.99502,0 153.43002,0.273145 154.3,0.606989 C 410.75195,23.118792 411,25.32013 411,36.644722 c 0,12.263795 -1.9161,26.569029 -22.05298,164.643008 -12.65935,86.80232 -22.56286,151.72912 -23.25,152.42566 -1.44623,1.46602 -107.81533,38.30858 -110.38801,38.23457 -0.99495,-0.0286 -24.97579,-8.47355 -53.29074,-18.76652 z M 307.1768,355.34385 c 28.45098,-9.71089 51.93606,-18.19557 52.18904,-18.85484 1.03982,-2.70972 40.75097,-301.742227 40.24582,-303.058631 C 399.13916,32.199071 379.09523,32 255.5904,32 c -78.9098,0 -143.68382,0.342135 -143.94226,0.760299 -0.44605,0.721723 44.81969,299.987081 45.88051,303.329801 0.3361,1.05907 16.61282,7.4569 48.73799,19.15729 26.52835,9.66195 48.4466,17.6089 48.70722,17.6599 0.26063,0.051 23.75195,-7.85256 52.20294,-17.56344 z"
         style="fill:#f21612" />
      <path
         inkscape:connector-curvature="0"
         id="path3259"
         d="M 202.01827,373.18144 C 155.67821,356.33603 150.45761,354.21891 149.74625,351.98347 149.31159,350.61756 137.94087,281.42862 124.47798,198.23028 102.89406,64.845374 100,45.626872 100,35.680277 100,28.240062 100.40851,23.991493 101.2,23.2 102.12286,22.277143 137.67071,22 255.11821,22 c 83.99502,0 153.43002,0.273145 154.3,0.606989 C 410.75195,23.118792 411,25.32013 411,36.644722 c 0,12.263795 -1.9161,26.569029 -22.05298,164.643008 -12.65935,86.80232 -22.56286,151.72912 -23.25,152.42566 -1.44623,1.46602 -107.81533,38.30858 -110.38801,38.23457 -0.99495,-0.0286 -24.97579,-8.47355 -53.29074,-18.76652 z M 307.1768,355.34385 c 28.45098,-9.71089 51.93606,-18.19557 52.18904,-18.85484 1.03982,-2.70972 40.75097,-301.742227 40.24582,-303.058631 C 399.13916,32.199071 379.09523,32 255.5904,32 c -78.9098,0 -143.68382,0.342135 -143.94226,0.760299 -0.44605,0.721723 44.81969,299.987081 45.88051,303.329801 0.3361,1.05907 16.61282,7.4569 48.73799,19.15729 26.52835,9.66195 48.4466,17.6089 48.70722,17.6599 0.26063,0.051 23.75195,-7.85256 52.20294,-17.56344 z"
         style="fill:#151412" />
    </g>
  </g>
</svg>
