<?xml version="1.0" encoding="UTF-8" standalone="no"?>
<!-- Created with Inkscape (http://www.inkscape.org/) -->

<svg
   xmlns:dc="http://purl.org/dc/elements/1.1/"
   xmlns:cc="http://creativecommons.org/ns#"
   xmlns:rdf="http://www.w3.org/1999/02/22-rdf-syntax-ns#"
   xmlns:svg="http://www.w3.org/2000/svg"
   xmlns="http://www.w3.org/2000/svg"
   xmlns:sodipodi="http://sodipodi.sourceforge.net/DTD/sodipodi-0.dtd"
   xmlns:inkscape="http://www.inkscape.org/namespaces/inkscape"
   id="svg2"
   version="1.1"
   inkscape:version="0.48.4 r9943 custom"
   width="512"
   height="512"
   sodipodi:docname="BlackPawn.svg">
  <metadata
     id="metadata8">
    <rdf:RDF>
      <cc:Work
         rdf:about="">
        <dc:format>image/svg+xml</dc:format>
        <dc:type
           rdf:resource="http://purl.org/dc/dcmitype/StillImage" />
        <dc:title />
      </cc:Work>
    </rdf:RDF>
  </metadata>
  <defs
     id="defs6" />
  <sodipodi:namedview
     pagecolor="#ffffff"
     bordercolor="#666666"
     borderopacity="1"
     objecttolerance="10"
     gridtolerance="10"
     guidetolerance="10"
     inkscape:pageopacity="0"
     inkscape:pageshadow="2"
     inkscape:window-width="640"
     inkscape:window-height="480"
     id="namedview4"
     showgrid="false"
     inkscape:zoom="0.4609375"
     inkscape:cx="256"
     inkscape:cy="256"
     inkscape:window-x="0"
     inkscape:window-y="22"
     inkscape:window-maximized="0"
     inkscape:current-layer="g2987" />
  <g
     id="g2987">
    <g
       id="g3129">
      <path
         inkscape:connector-curvature="0"
         id="path2991"
         d="M 207.01633,356.66921 C 167.01924,341.2986 159.33758,338.03357 158.29539,335.96078 157.61488,334.60735 146.90742,269.75492 134.50102,191.84427 L 111.94394,50.188539 112.22197,35.84427 112.5,21.5 254.8934,21.246565 c 104.40586,-0.185823 142.75531,0.04693 143.75,0.872445 1.00657,0.835378 1.35449,4.255058 1.34843,13.253435 -0.007,10.350027 -2.99087,33.280816 -20.35821,156.450055 -14.05048,99.64604 -20.78088,144.73734 -21.74183,145.66262 -1.26334,1.21645 -100.8226,37.57078 -102.62367,37.47331 -0.42247,-0.0229 -22.13577,-8.25301 -48.25179,-18.28922 z"
         style="fill:#d3bc5f" />
      <g
         transform="matrix(-0.92627741,0,0,-0.92627741,150.81532,455.04764)"
         id="g3962">
        <path
           style="fill:#000000"
           d="m -189.54499,435.16208 c 0,-0.88538 8.31732,-6.13666 18.48294,-11.66947 11.54062,-6.2812 19.28329,-13.24857 20.61379,-18.54969 1.76289,-7.02392 3.33579,-7.84518 9.10829,-4.75585 8.75345,4.68473 8.97682,15.24092 0.48514,22.92578 -8.10929,7.33879 -48.69016,17.38125 -48.69016,12.04923 z m 109.836948,-12.1858 c -7.217071,-7.58758 -15.953784,-16.03197 -19.414915,-18.76526 -9.727033,-7.68159 -4.866533,-8.54534 12.870839,-2.28724 23.99696,8.46664 32.823848,15.38744 32.823848,25.73584 0,13.4988 -10.819501,11.57066 -26.279772,-4.68334 z M -196.75934,388.25342 c -10.25845,-11.01114 -9.40811,-14.69516 2.61581,-11.33259 9.03223,2.52588 48.36947,2.63224 50.79632,0.13721 0.52801,-0.54284 -0.78183,-9.76457 -2.91075,-20.49277 -3.12721,-15.75878 -5.00655,-19.02474 -9.78329,-17.00135 -3.25188,1.37754 -10.05119,3.26602 -15.10959,4.19674 l -9.19707,1.69219 9.54357,-6.76383 c 22.30579,-15.80874 33.41881,-27.33963 31.40544,-32.58642 -2.89156,-7.53528 2.64952,-6.8248 9.98444,1.2802 8.00299,8.84321 7.82605,9.75522 -4.02837,20.76303 l -10.11679,9.39426 18.39416,-2.37855 c 10.11678,-1.30823 23.82895,-4.57923 30.471485,-7.26889 8.326929,-3.37169 14.895689,-3.81874 21.153273,-1.4396 12.396703,4.7132 11.39052,9.60781 -2.548135,12.39553 -6.393247,1.27865 -10.658173,3.29074 -9.477619,4.47128 1.180554,1.18058 -0.138801,8.62358 -2.931889,16.5401 l -5.078354,14.39357 24.672751,-2.27543 c 22.095437,-2.03771 25.406948,-1.46006 31.70129,5.52994 3.865698,4.29294 5.894874,8.93901 4.509297,10.3246 -1.385589,1.38556 -14.981631,0.42516 -30.213429,-2.1342 -30.153905,-5.06678 -65.43167,-3.05498 -95.11615,5.42414 -24.42935,6.97809 -29.94276,6.56969 -38.7364,-2.86916 z m 96.36965,-19.17159 c 1.486535,-2.22592 2.728142,-9.63435 2.759124,-16.46317 0.05421,-11.95179 -0.373551,-12.33008 -11.440014,-10.11679 -6.32298,1.2646 -15.31252,2.29927 -19.97676,2.29927 -7.70883,0 -8.18694,1.02334 -5.25474,11.24729 1.77412,6.18599 2.3633,13.49461 1.30929,16.24134 -1.50213,3.91446 1.52258,4.54493 13.99196,2.91657 8.74959,-1.14256 17.1246,-3.89863 18.61114,-6.12451 z m -31.91701,-88.75007 c 29.1202,-17.2747 45.768958,-35.28805 45.768958,-49.52034 0,-9.79585 -1.250611,-11.09051 -10.713133,-11.09051 -9.629395,0 -10.964295,1.48663 -13.196005,14.69604 -3.04384,18.01629 -8.80458,22.2676 -15.83202,11.68371 -6.97001,-10.49741 -10.21757,-10.10424 -25.20043,3.05089 -14.69097,12.89885 -19.87815,13.61315 -28.62999,3.94246 -7.90737,-8.73753 -4.96002,-20.27863 7.21617,-28.25677 7.37229,-4.83052 10.72617,-5.00455 21.48326,-1.11473 10.93943,3.95574 14.09543,3.72597 22.25489,-1.62032 10.83141,-7.097 11.25665,-8.96211 4.17405,-18.30711 -4.21659,-5.56349 -6.4759,-5.99225 -13.04638,-2.47584 -10.96929,5.87059 -17.27375,2.51087 -20.18819,-10.75848 -1.36059,-6.19475 -5.24152,-12.81716 -8.62427,-14.71651 -5.60862,-3.14911 -5.53281,-3.69123 0.8605,-6.15363 8.11194,-3.12434 22.1586,11.1803 19.01725,19.36653 -2.32316,6.05401 -0.4165,6.10399 15.35101,0.40239 11.74744,-4.24794 12.33016,-5.26012 10.044,-17.44643 -3.05215,-16.26935 -4.36841,-18.32911 -14.09166,-22.0515 -7.5681,-2.89733 -7.47512,-3.13562 2.20764,-5.65719 12.91401,-3.36305 21.3458,-0.0895 23.78393,9.23406 1.56194,5.97283 4.57777,7.18063 16.029037,6.41939 7.757816,-0.51572 14.59838,0.71781 15.201261,2.74116 0.602893,2.02336 -5.769243,4.17956 -14.160283,4.79157 -11.335025,0.82672 -15.726455,2.91008 -17.085065,8.10539 -1.61235,6.16565 0.59275,7.12178 18.644625,8.08435 12.270479,0.65428 21.081014,2.93412 21.990174,5.69022 1.110589,3.36676 -4.970398,4.59853 -22.702049,4.59853 -13.32043,0 -24.21896,0.8502 -24.21896,1.88933 0,1.03914 1.9594,5.02684 4.35423,8.86157 3.65543,5.85327 7.39624,6.65826 23.308937,5.01593 20.443657,-2.10997 34.876943,2.90592 34.876943,12.12053 0,4.30861 -2.764284,5.03693 -12.31616,3.24499 l -12.31617,-2.31053 0.359983,17.26043 c 0.320201,15.35409 -1.030319,18.42129 -12.227982,27.77125 -10.911951,9.11137 -49.816431,25.47493 -60.566871,25.47493 -2.01728,0 6.16766,-5.83459 18.18877,-12.96576 z m -16.77116,-45.56094 c 0,-1.73541 -3.715,-4.12678 -8.25558,-5.31417 -9.93751,-2.59872 -19.44937,5.62 -16.22597,14.02004 2.07537,5.40833 3.25678,5.42518 13.37897,0.19078 6.10643,-3.15775 11.10258,-7.16124 11.10258,-8.89665 z m 25.75181,-2.39112 c 0,-3.15445 -1.68247,-4.69553 -3.73883,-3.42463 -2.05636,1.2709 -2.7864,3.85181 -1.6223,5.73536 3.15364,5.10269 5.36113,4.15123 5.36113,-2.31073 z"
           id="path3960"
           inkscape:connector-curvature="0"
           sodipodi:nodetypes="ssssssssssssssscscsssscsssscscsscsssssssssssssssssssssssssssssssssssssssssssscsssssssssssss" />
      </g>
      <path
         sodipodi:nodetypes="sssssssssscssssssscs"
         inkscape:connector-curvature="0"
         id="path2989"
         d="M 207.21596,355.12222 C 181.75974,345.33756 160.52966,336.91974 160.038,336.41596 159.54635,335.91218 148.76166,270.59251 136.07204,191.26113 115.83712,64.759019 113,45.63136 113,35.711133 113,28.246918 113.40812,23.99188 114.2,23.2 115.12188,22.278118 147.78183,22 255.11821,22 c 76.84502,0 140.43002,0.273145 141.3,0.606989 C 397.75259,23.119037 398,25.32713 398,36.724143 c 0,12.15881 -2.00694,27.777027 -20.06434,156.143007 -14.35996,102.08173 -20.46318,142.94168 -21.4672,143.71911 -1.97425,1.52869 -99.0876,36.42331 -101.2194,36.37 -0.96198,-0.0241 -22.57688,-8.04938 -48.0331,-17.83404 z m 95.24558,-17.63448 c 25.82884,-9.08095 47.35813,-16.90741 47.84286,-17.39214 1.13128,-1.13128 37.05874,-284.706893 36.31601,-286.642425 C 386.13666,32.19255 368.77483,32 255.5904,32 c -71.7598,0 -130.68273,0.340378 -130.93984,0.756395 -0.75565,1.222669 41.03911,286.333275 42.13458,287.428745 0.74407,0.74407 85.4361,33.10316 88.21486,33.70509 0.275,0.0596 21.63269,-7.32155 47.46154,-16.40249 z"
         style="fill:#171512" />
    </g>
  </g>
</svg>
