<?xml version="1.0" encoding="UTF-8" standalone="no"?>
<!-- Created with Inkscape (http://www.inkscape.org/) -->

<svg
   xmlns:dc="http://purl.org/dc/elements/1.1/"
   xmlns:cc="http://creativecommons.org/ns#"
   xmlns:rdf="http://www.w3.org/1999/02/22-rdf-syntax-ns#"
   xmlns:svg="http://www.w3.org/2000/svg"
   xmlns="http://www.w3.org/2000/svg"
   xmlns:sodipodi="http://sodipodi.sourceforge.net/DTD/sodipodi-0.dtd"
   xmlns:inkscape="http://www.inkscape.org/namespaces/inkscape"
   id="svg3127"
   version="1.1"
   inkscape:version="0.48.4 r9939"
   width="512"
   height="512"
   sodipodi:docname="BlackGoldKnight.svg">
  <metadata
     id="metadata3133">
    <rdf:RDF>
      <cc:Work
         rdf:about="">
        <dc:format>image/svg+xml</dc:format>
        <dc:type
           rdf:resource="http://purl.org/dc/dcmitype/StillImage" />
        <dc:title />
      </cc:Work>
    </rdf:RDF>
  </metadata>
  <defs
     id="defs3131" />
  <sodipodi:namedview
     pagecolor="#ffffff"
     bordercolor="#666666"
     borderopacity="1"
     objecttolerance="10"
     gridtolerance="10"
     guidetolerance="10"
     inkscape:pageopacity="0"
     inkscape:pageshadow="2"
     inkscape:window-width="640"
     inkscape:window-height="480"
     id="namedview3129"
     showgrid="false"
     inkscape:zoom="0.4609375"
     inkscape:cx="256"
     inkscape:cy="256"
     inkscape:window-x="95"
     inkscape:window-y="81"
     inkscape:window-maximized="0"
     inkscape:current-layer="g3137" />
  <g
     id="g3137">
    <path
       style="fill:#d3bc5f"
       d="M 197.03171,393.67676 C 143.42698,374.80404 142.55058,374.45244 141.75365,371.5 141.30828,369.85 129.47357,296.95 115.4543,209.5 L 89.964719,50.5 90.232359,36 90.5,21.5 253.89392,21.246998 c 119.93355,-0.185707 163.75462,0.04635 164.75,0.872445 1.00568,0.834643 1.35454,4.259074 1.35011,13.253002 -0.005,10.4975 -3.15042,34.01616 -23.40055,174.978105 -12.86702,89.5678 -23.78444,163.24041 -24.26095,163.71692 -1.38761,1.38761 -115.88342,38.94013 -118.48006,38.85929 -1.29386,-0.0403 -26.8632,-8.70279 -56.82076,-19.25 z"
       id="path3143"
       inkscape:connector-curvature="0" />
    <path
       style="fill:#f21511"
       d="m 199.5,392.89708 c -29.7,-10.43789 -54.54384,-19.52227 -55.20852,-20.18753 -0.67782,-0.67839 -12.64432,-72.46473 -27.25,-163.47108 C 94.106844,66.335335 91,45.630183 91,35.68847 91,28.241882 91.408404,23.991596 92.2,23.2 93.123378,22.276622 130.44849,22 254.11821,22 c 88.39502,0 161.43002,0.273145 162.3,0.606989 1.33382,0.511833 1.58179,2.713998 1.58179,14.04745 0,12.221736 -2.09168,28.010402 -23.06766,174.122081 -12.68722,88.37489 -23.5261,161.234 -24.08641,161.90913 -0.79979,0.96369 -115.67129,39.49889 -117.00788,39.25188 C 253.65212,411.90317 229.2,403.33497 199.5,392.89708 z m 109.14641,-18.94804 c 29.06948,-9.92803 53.47939,-18.66991 54.24426,-19.42639 C 364.43,353.0002 407.59331,35.988527 406.61013,33.426393 406.13947,32.199889 384.83599,32 254.5904,32 c -83.3098,0 -151.68139,0.338208 -151.93686,0.751574 -0.91146,1.474772 48.17691,321.525606 49.4337,322.302346 0.67417,0.41666 20.84284,7.85443 44.81926,16.52837 23.97643,8.67395 46.2935,16.79437 49.5935,18.04538 3.3,1.25102 6.74089,2.29657 7.64641,2.32345 0.90553,0.0269 25.43053,-8.07405 54.5,-18.00208 z M 256.5,322.13672 c -8.4007,-2.47469 -12.27737,-4.72363 -14.54048,-8.43527 -2.8016,-4.59476 -2.45138,-6.88846 1.84577,-12.08861 4.45572,-5.39204 12.60575,-20.25079 11.4737,-20.91831 -0.42845,-0.25264 -2.35399,-0.78563 -4.27899,-1.18444 -10.91134,-2.26053 -26.02221,-15.76363 -43.75574,-39.1002 -10.9544,-14.41553 -21.78255,-25.02315 -33.86612,-33.17641 -4.88297,-3.29473 -11.05528,-7.91825 -13.71624,-10.27449 -5.35347,-4.74041 -14.92871,-17.71827 -14.08272,-19.08711 0.8683,-1.40493 22.30687,-0.96724 29.7371,0.60712 3.74896,0.79436 8.69896,2.48199 11,3.75031 5.96536,3.28806 16.37573,16.74146 25.85824,33.41677 8.69837,15.29638 17.78739,28.03302 27.13736,38.02817 6.33354,6.77057 18.25846,15.33427 21.3226,15.31249 1.37391,-0.01 3.68647,-3.50143 8.77556,-13.25 9.38125,-17.97053 23.84515,-43.71637 29.34636,-52.23674 2.48578,-3.85 9.51999,-11.99223 15.63159,-18.09384 11.9439,-11.92436 19.4741,-16.59492 28.61201,-17.74639 5.34034,-0.67293 12.18307,0.38945 12.71109,1.9735 0.20644,0.61932 -1.76954,2.38302 -4.39107,3.91934 -6.30636,3.69577 -17.69662,12.99299 -23.41334,19.11098 -12.58129,13.46437 -38.36987,58.54454 -55.11026,96.33641 -8.91054,20.11578 -8.69844,19.02987 -4.9079,25.12757 4.26095,6.85443 3.90526,9.30706 -1.38852,9.57453 -2.2,0.11116 -6.7,-0.59327 -10,-1.56538 z M 242.18467,237.06713 C 235.29366,235.31856 231,228.98252 231,220.5622 c 0,-5.31459 0.15127,-5.6326 3.764,-7.91322 C 238.92616,210.02152 248.60613,205 249.50891,205 c 0.31647,0 -0.56857,1.95204 -1.96676,4.33786 -1.39818,2.38582 -2.54215,4.61128 -2.54215,4.94547 0,0.33419 3.2625,2.31888 7.25,4.41043 8.49943,4.45816 17.10392,12.22174 16.58129,14.96079 -0.2663,1.39566 -1.56824,1.99176 -5.34171,2.44574 -12.29661,1.47938 -18.22479,1.74841 -21.30491,0.96684 z m -4.48668,-37.51107 C 228.71592,196.35222 223,190.11632 223,183.52098 c 0,-3.18469 6.79296,-24.08125 10.54889,-32.45058 2.54785,-5.67737 2.69084,-6.56849 1.51161,-9.42046 -5.29037,-12.79474 -3.95865,-17.9458 7.72685,-29.88743 4.70824,-4.81143 8.27792,-9.03058 7.93261,-9.37588 -0.3453,-0.3453 -5.71105,0.1046 -11.92389,0.99978 -15.04505,2.16777 -18.45876,2.11238 -19.76089,-0.32067 -2.61011,-4.877037 -1.38511,-6.246201 8.96482,-10.019819 3.025,-1.102926 9.06774,-4.489455 13.42831,-7.52562 C 245.78887,82.484135 250.21941,80 251.27394,80 c 2.8702,0 7.06975,3.374017 13.2138,10.616269 7.27159,8.571342 7.27534,10.480141 0.0329,16.732791 C 259.24091,111.90728 253,119.77561 253,121.87394 c 0,0.55748 1.9125,0.1772 4.25,-0.84507 17.83495,-7.79985 33.66161,0.76537 33.72804,18.25325 0.0366,9.64832 -4.14557,16.67283 -12.47804,20.95827 -6.134,3.15476 -18.21754,2.89137 -25.45097,-0.55476 -4.35446,-2.07453 -5.74345,-2.3544 -6.90491,-1.39128 -3.84371,3.18735 -5.70669,14.89206 -2.56233,16.09866 0.86998,0.33385 8.05332,0.60699 15.96298,0.60699 12.20137,0 15.18257,0.31513 19.66821,2.07902 9.86245,3.87822 11.90252,7.92098 3.99712,7.92098 -9.80376,0 -18.94392,3.38335 -31.34458,11.60261 -7.17284,4.75422 -8.40116,5.01028 -14.16753,2.95345 z m 30.38867,-50.83786 c 2.93786,-2.25562 4.09423,-5.67891 3.39249,-10.04306 -1.96659,-12.23033 -9.9569,-11.47615 -15.97235,1.50758 -1.32013,2.84937 -2.1452,5.59335 -1.83347,6.09773 1.87692,3.03693 11.51071,4.66631 14.41333,2.43775 z"
       id="path3141"
       inkscape:connector-curvature="0" />
    <path
       style="fill:#151412"
       d="m 199.5,392.89708 c -29.7,-10.43789 -54.54384,-19.52227 -55.20852,-20.18753 -0.67782,-0.67839 -12.64432,-72.46473 -27.25,-163.47108 C 94.106844,66.335335 91,45.630183 91,35.68847 91,28.241882 91.408404,23.991596 92.2,23.2 93.123378,22.276622 130.44849,22 254.11821,22 c 88.39502,0 161.43002,0.273145 162.3,0.606989 1.33382,0.511833 1.58179,2.713998 1.58179,14.04745 0,12.221736 -2.09168,28.010402 -23.06766,174.122081 -12.68722,88.37489 -23.5261,161.234 -24.08641,161.90913 -0.79979,0.96369 -115.67129,39.49889 -117.00788,39.25188 C 253.65212,411.90317 229.2,403.33497 199.5,392.89708 z m 109.14641,-18.94804 c 29.06948,-9.92803 53.47939,-18.66991 54.24426,-19.42639 C 364.43,353.0002 407.59331,35.988527 406.61013,33.426393 406.13947,32.199889 384.83599,32 254.5904,32 c -83.3098,0 -151.68139,0.338208 -151.93686,0.751574 -0.91146,1.474772 48.17691,321.525606 49.4337,322.302346 0.67417,0.41666 20.84284,7.85443 44.81926,16.52837 23.97643,8.67395 46.2935,16.79437 49.5935,18.04538 3.3,1.25102 6.74089,2.29657 7.64641,2.32345 0.90553,0.0269 25.43053,-8.07405 54.5,-18.00208 z"
       id="path3139"
       inkscape:connector-curvature="0" />
  </g>
</svg>
