<?xml version="1.0" encoding="UTF-8" standalone="no"?>
<!-- Created with Inkscape (http://www.inkscape.org/) -->

<svg
   xmlns:dc="http://purl.org/dc/elements/1.1/"
   xmlns:cc="http://creativecommons.org/ns#"
   xmlns:rdf="http://www.w3.org/1999/02/22-rdf-syntax-ns#"
   xmlns:svg="http://www.w3.org/2000/svg"
   xmlns="http://www.w3.org/2000/svg"
   xmlns:sodipodi="http://sodipodi.sourceforge.net/DTD/sodipodi-0.dtd"
   xmlns:inkscape="http://www.inkscape.org/namespaces/inkscape"
   id="svg3703"
   version="1.1"
   inkscape:version="0.48.4 r9943 custom"
   width="512"
   height="512"
   sodipodi:docname="BlackAdvisor.svg">
  <metadata
     id="metadata3709">
    <rdf:RDF>
      <cc:Work
         rdf:about="">
        <dc:format>image/svg+xml</dc:format>
        <dc:type
           rdf:resource="http://purl.org/dc/dcmitype/StillImage" />
        <dc:title />
      </cc:Work>
    </rdf:RDF>
  </metadata>
  <defs
     id="defs3707" />
  <sodipodi:namedview
     pagecolor="#ffffff"
     bordercolor="#666666"
     borderopacity="1"
     objecttolerance="10"
     gridtolerance="10"
     guidetolerance="10"
     inkscape:pageopacity="0"
     inkscape:pageshadow="2"
     inkscape:window-width="680"
     inkscape:window-height="480"
     id="namedview3705"
     showgrid="false"
     inkscape:zoom="0.65186406"
     inkscape:cx="463.71899"
     inkscape:cy="309.37607"
     inkscape:window-x="549"
     inkscape:window-y="22"
     inkscape:window-maximized="0"
     inkscape:current-layer="g3713" />
  <g
     id="g3713">
    <g
       id="g3039">
      <path
         inkscape:connector-curvature="0"
         id="path3717"
         d="m 193.50633,412.36873 c -32.44652,-11.80084 -59.38801,-21.85041 -59.86998,-22.33238 -0.48196,-0.48196 -13.65317,-75.94981 -29.26934,-167.70632 L 75.973971,55.5 76.236986,38.5 76.5,21.5 254.89422,21.247246 c 138.63089,-0.196416 178.71993,0.01756 179.85548,0.95999 1.21853,1.011283 1.37731,4.209548 0.95582,19.252754 -0.49094,17.521974 -1.25178,22.773539 -26.49522,182.87975 -14.29438,90.66185 -26.37689,165.22208 -26.85004,165.6894 -1.53317,1.51428 -124.74436,43.97369 -127.343,43.88326 -1.38449,-0.0482 -29.06441,-9.74283 -61.51093,-21.54367 z"
         style="fill:#d3bc5f" />
      <g
         transform="matrix(-1.0066378,0,0,-1.0066378,-16.987894,373.40945)"
         id="g3160">
        <path
           style="fill:#000000"
           d="m -316.40625,-0.25 c -6.69109,1.3883585 -5.75838,9.5947071 -6.84375,14.65625 -7.47928,15.889046 -22.92191,26.19721 -34.47363,39.291488 -2.27207,3.168143 -8.68633,7.419331 -5.40137,11.552262 5.75762,1.557705 11.15349,-3.51974 16.21875,-5.59375 12.94165,-7.284273 24.99624,-16.135525 35.1875,-26.84375 5.58084,-2.165028 9.07669,5.008901 13.125,7.53125 5.72407,3.755303 13.99264,8.017488 20.625,4.3125 4.03769,-4.545542 -1.04848,-11.027466 -4.65625,-14.1875 -4.86783,-5.101891 -15.07252,-6.676838 -15.21875,-15.15625 -2.36434,-7.5207536 -10.22338,-15.58743944 -18.5625,-15.5625 z m 92.46875,18.375 c -13.71227,2.020217 -27.90891,3.562765 -41.125,7.90625 -4.14807,1.348728 -3.41853,6.625915 -0.28125,8.65625 4.31599,4.976063 11.35359,8.669845 17.8179,5.33661 9.73473,-1.563516 19.99214,-4.834907 29.8071,-3.74286 2.2555,2.390992 -0.78646,5.657969 -3.5625,5.40625 -12.04992,-0.193687 -23.65155,3.725055 -34.65625,7.78125 -3.67071,2.240747 -3.75481,-2.636879 -6.5625,-3.78125 -3.16135,-2.94829 -7.92712,-0.5826 -8.15625,3.5625 -2.16592,16.664512 -0.46901,33.6831 -2.74887,50.401951 -1.64984,15.016429 -5.53435,31.237879 1.78688,45.491059 2.48892,4.59817 4.36155,13.16562 10.99324,12.70074 7.15208,-3.33529 7.29721,-12.99094 12.75,-18.15625 4.24444,-4.779 9.46404,-10.82472 16.09375,-11.28125 10.62583,7.20884 16.19959,21.06846 28.46875,26.125 5.94838,1.91472 8.22581,-5.66176 7.40625,-10.1875 0.61506,-10.11583 -6.02045,-18.45587 -14.20625,-23.50625 -6.05729,-4.15554 -12.29046,-8.11896 -18.45,-12.18125 9.57746,-4.0463 22.87262,-5.04003 28.21875,-15.15625 1.99109,-5.843429 -1.50855,-13.247784 -6.6875,-16.21875 -5.58215,-0.254741 -7.67188,6.700625 -11.8064,9.357767 -6.8583,5.821811 -12.46012,13.962623 -21.16235,17.110983 -5.20422,0.63901 -10.04312,-6.61924 -14.9375,-3.21875 -1.76606,4.51257 4.03716,7.79603 6.53125,10.8125 2.10413,3.11952 11.79657,7.45622 8.28907,9.56044 -7.10192,2.37248 -14.45044,5.86433 -18.85157,11.84581 -4.80771,-8.31304 -3.54381,-19.20887 -3.40478,-28.7167 1.14214,-8.114718 0.61572,-17.2084 4.99853,-24.3458 7.11876,-4.387698 16.59768,-1.537652 24.15625,-5.4375 4.42784,-0.847288 8.4779,-8.043935 2.875,-10.1875 -8.05687,-1.827613 -16.5531,3.219854 -24.4375,1.40625 -1.1271,-3.162706 -1.18473,-9.212569 3.6875,-8.5625 9.84275,0.793476 19.48887,-1.267404 28.96875,-3.09375 3.10511,0.155746 0.25009,4.863859 0.0312,6.40625 -1.85446,5.886125 -7.18713,12.783409 -3.875,19.03125 5.06923,4.455016 11.04262,-2.250963 13.86527,-6.194566 7.54776,-11.059605 14.30543,-24.429292 12.79098,-38.242934 -1.8427,-11.42138 -13.85156,-17.541603 -24.625,-16.6875 z m -72.46875,32.15625 c -12.96516,1.339875 -24.45282,9.201418 -37.71565,9.328702 -3.79939,0.878598 -10.88908,-1.717199 -12.3781,3.202548 1.66412,5.070372 7.83585,7.397496 12.25,9.65625 3.54005,2.464092 9.35526,0.43719 12.21875,3.0625 -2.99654,6.556588 -11.84119,6.767271 -18.03125,8.40625 -4.66806,-0.07282 -12.33262,6.440081 -5.90625,9.875 3.23523,1.535647 6.91854,1.508032 10.4375,1.5625 -5.47312,4.98923 -14.77329,9.16339 -15.1875,17.53125 1.39957,6.93673 10.45152,6.79366 16,6.96875 3.69344,0.69642 11.93536,-1.66563 11.96875,4.21875 1.18999,4.59765 -1.07861,9.41657 -5.96875,10.1875 -9.37214,3.71511 -20.57665,3.11254 -28.78125,9.125 -3.39579,4.9799 3.60562,9.67794 7.9375,10.46875 13.34953,3.59624 26.46737,-2.37329 38.96875,-6.375 8.28841,-3.07879 20.56605,-1.87331 25.375,-10.875 1.96017,-5.94992 -5.79435,-8.46102 -10.40625,-7.8125 -3.10309,0.0445 -9.21836,1.41176 -8.84375,-3.46875 -0.70209,-4.09218 1.34165,-10.3788 5.65625,-10.84375 -2.4876,4.35733 2.90337,7.91122 6.90625,6.40625 5.4186,-0.83419 13.56705,-5.67364 10.625,-12.125 -4.34709,-7.4586 -14.16025,-10.5261 -22.1875,-7.96875 -1.88709,-2.777832 -1.46416,-7.883421 0.0625,-10.9375 4.4693,-4.081856 14.0128,-0.709234 16.375,-7.5625 0.0859,-5.947422 -8.09567,-6.326325 -12.5,-6.09375 -1.83366,-0.242864 -5.81635,1.186049 -6.75,-0.0625 1.72583,-6.152198 7.7218,-9.445685 13.71875,-9.625 7.57604,-2.253875 7.0782,-14.139204 -0.5625,-15.96875 -1.03753,-0.337773 -2.17935,-0.355187 -3.28125,-0.28125 z m -26.28125,47.3125 c 1.63382,6.34078 -5.57922,9.26866 -10.625,9.15625 -4.15116,0.85159 1.43679,-2.8356 2.375,-3.8125 2.51379,-1.55359 6.25435,-5.417566 8.25,-5.34375 z M -337.65625,168.5 c -5.29093,0.64656 -12.87301,1.88551 -14.8125,7.625 0.83922,6.52756 9.08936,8.26303 13.34375,12.1875 8.50286,5.55509 16.74622,16.08664 11.5625,26.5625 -4.90045,11.08435 -15.2116,18.3722 -23.34375,26.96875 -4.6732,-7.51702 -11.04145,-18.57091 -21.5625,-16.53125 -11.3759,3.29911 -13.12768,18.00335 -9.9375,27.78125 0.93538,5.50779 6.23615,11.0185 3.9375,16.59375 -8.51025,8.22766 -15.71579,18.36092 -20.21875,29.34375 -1.32689,5.64694 3.99477,11.32462 9.125,12.59375 7.12341,-1.5415 10.21711,-9.72777 14.84252,-14.55556 3.20974,-2.57769 5.69943,-11.16294 9.25123,-10.41319 12.76376,11.79902 21.16221,28.0777 32.90625,40.8125 3.27484,4.07434 10.30787,4.12498 12.34375,-1.25 6.35569,-14.60236 6.18482,-31.17314 8.24214,-46.8088 1.73378,-20.09007 3.35459,-40.19037 5.03911,-60.28495 12.27755,-10.74826 23.44781,-23.18457 36.9375,-32.15625 0.56789,10.95319 -11.66375,17.3686 -13.0625,27.8125 1.82011,5.65341 9.67236,3.47479 13.40625,1.15625 9.22599,-5.27136 16.78699,-14.45985 19.28125,-24.875 -0.66195,-6.9891 -7.41266,-12.26122 -13.6875,-14.375 -14.41992,-3.41972 -27.33253,7.28422 -37.38378,16.22292 -3.78399,3.6146 -8.29187,9.10954 -6.64747,0.33958 -0.63128,-14.65231 -15.49123,-25.51702 -29.5625,-24.75 z m 111.84375,11.1875 c -6.73228,1.01019 -15.24108,0.65905 -20.1875,6.0625 -1.98416,5.28169 5.50403,6.94126 9.25,7.65625 6.43907,1.67788 16.64742,-0.0524 19.40625,7.4375 0.079,9.22881 -10.2087,14.10377 -15.92247,19.78852 -4.8976,3.92687 -11.48146,9.04846 -1.05044,5.5605 12.38916,-2.46091 28.4601,-5.19312 33.50416,-18.69277 3.88477,-10.14678 -0.62377,-23.69145 -11.90625,-26.4375 -4.19562,-1.38751 -8.70195,-1.57781 -13.09375,-1.375 z m -29.03125,29.46875 c -6.48995,1.60896 -5.22729,9.67907 -5.03125,14.71875 -1.3063,10.33622 -12.94678,14.49058 -19.57714,21.04168 -4.50896,3.5804 9.21684,0.85095 12.57714,1.70832 9.80528,-0.84255 20.25865,-5.98997 24.96875,-14.875 1.54723,-6.47446 -1.68063,-13.79624 -5.875,-19.3125 -1.7949,-1.92038 -4.29095,-3.65295 -7.0625,-3.28125 z m 41.5,13.5 c -6.05065,0.32967 -6.48115,8.01605 -3.625,11.96875 0.66071,2.20761 3.63856,5.53197 2.34375,7.5625 -20.30013,6.22748 -41.82257,8.59039 -63.03125,9.9375 -7.98591,0.64036 -17.44126,-3.48494 -24.5,1.6875 -3.68883,4.86372 2.92378,9.63711 6.5625,12 9.88869,7.75974 22.71973,2.93329 33.71875,1.40625 2.13217,0.0612 7.73943,-1.92728 5.75,2.125 -2.98151,13.58442 -15.75725,21.19293 -27.26175,26.98655 -2.68283,2.03131 -9.80153,4.67945 -6.61325,8.8572 6.51552,2.7941 14.07047,-0.26143 20.8125,-0.96875 10.85983,-2.79491 25.22925,-4.28169 30.375,-15.90625 3.49414,-8.82718 -4.32583,-15.94078 -8.90625,-22.375 3.2753,-4.40381 10.46432,-4.86834 15.59375,-6.25 7.39033,-1.0436 15.69463,-3.11287 22.84375,-1.0625 4.41035,12.83375 2.21878,26.93485 2.8125,40.3125 -11.53563,0.8565 -24.07886,-1.97992 -35,2.53125 -4.19145,2.61668 0.1677,7.38614 3.65625,7.8125 9.19872,3.25956 21.50238,3.19441 26.96875,12.6875 2.99087,5.38787 10.99141,8.81861 15.625,3.40625 8.9812,-11.33804 8.76978,-27.05492 8.63203,-40.90471 -0.49623,-9.08067 -1.72461,-18.10231 -2.53828,-27.15779 9.11687,0.63242 19.47538,5.21921 28.21875,0.8125 5.0357,-3.91933 -0.19756,-10.34713 -3.78125,-13.09375 -6.69339,-6.68527 -16.528,-10.10204 -25.75,-7.03125 -2.22565,0.66416 -5.97062,0.78602 -5.03125,-2.59375 -1.61005,-7.47767 -10.46829,-13.03856 -17.875,-12.75 z m -113,21.96875 c -0.77476,19.13033 -1.02257,38.65497 -5.71875,57.21875 -9.41674,-8.63363 -18.19658,-18.2338 -25.1875,-28.90625 9.17901,-12.71391 20.3828,-23.79347 30.8125,-35.5625 0.0312,2.41667 0.0625,4.83333 0.0937,7.25 z m -43.03125,-4.8125 c 5.7668,-0.62219 9.11961,5.47798 7.03125,10.46875 0.0754,2.87425 -3.7972,7.84027 -5.9375,3.53125 -1.87657,-3.97991 -4.03282,-9.83721 -1.96875,-13.78125 0.27134,-0.1206 0.56584,-0.20902 0.875,-0.21875 z"
           id="path3158"
           inkscape:connector-curvature="0" />
      </g>
      <path
         sodipodi:nodetypes="sssssssssscssssssscs"
         inkscape:connector-curvature="0"
         id="path3715"
         d="M 195.5266,411.42227 C 163.09124,399.63 135.99659,389.42338 135.31627,388.74089 134.61967,388.04207 121.61209,314.25244 105.53966,219.82368 77.582135,55.567528 77,51.864378 77,38.273683 77,28.816374 77.381993,24.018007 78.2,23.2 79.124228,22.275772 119.78183,22 255.11821,22 c 96.64502,0 176.43002,0.273145 177.3,0.606989 1.35077,0.51834 1.58179,2.933231 1.58179,16.535044 0,15.908587 -0.0318,16.131226 -26.04561,182.143007 -14.70096,93.81689 -26.57021,166.74008 -27.25,167.42056 -1.06444,1.06551 -124.14998,44.39873 -125.62081,44.22578 -0.32097,-0.0377 -27.12161,-9.71684 -59.55698,-21.50911 z m 119.241,-18.51985 c 31.75282,-10.50367 58.25254,-19.61617 58.88827,-20.25 1.3227,-1.31875 49.76793,-337.105625 48.94492,-339.250349 C 422.14223,32.207079 397.47562,32 255.5904,32 164.0306,32 88.910159,32.3375 88.656089,32.75 88.0365,33.755946 140.73079,370.10719 141.79311,371.92722 c 0.82139,1.40725 110.04275,39.93199 113.47449,40.02492 0.97218,0.0263 27.74718,-8.54605 59.5,-19.04972 z"
         style="fill:#151311" />
    </g>
  </g>
</svg>
