<?xml version="1.0" encoding="UTF-8" standalone="no"?>
<!-- Created with Inkscape (http://www.inkscape.org/) -->

<svg
   xmlns:dc="http://purl.org/dc/elements/1.1/"
   xmlns:cc="http://creativecommons.org/ns#"
   xmlns:rdf="http://www.w3.org/1999/02/22-rdf-syntax-ns#"
   xmlns:svg="http://www.w3.org/2000/svg"
   xmlns="http://www.w3.org/2000/svg"
   xmlns:sodipodi="http://sodipodi.sourceforge.net/DTD/sodipodi-0.dtd"
   xmlns:inkscape="http://www.inkscape.org/namespaces/inkscape"
   id="svg3585"
   version="1.1"
   inkscape:version="0.48.4 r9943 custom"
   width="512"
   height="512"
   sodipodi:docname="BlackRook.svg">
  <metadata
     id="metadata3591">
    <rdf:RDF>
      <cc:Work
         rdf:about="">
        <dc:format>image/svg+xml</dc:format>
        <dc:type
           rdf:resource="http://purl.org/dc/dcmitype/StillImage" />
        <dc:title />
      </cc:Work>
    </rdf:RDF>
  </metadata>
  <defs
     id="defs3589" />
  <sodipodi:namedview
     pagecolor="#ffffff"
     bordercolor="#666666"
     borderopacity="1"
     objecttolerance="10"
     gridtolerance="10"
     guidetolerance="10"
     inkscape:pageopacity="0"
     inkscape:pageshadow="2"
     inkscape:window-width="640"
     inkscape:window-height="480"
     id="namedview3587"
     showgrid="false"
     inkscape:zoom="0.4609375"
     inkscape:cx="256"
     inkscape:cy="228.2202"
     inkscape:window-x="0"
     inkscape:window-y="22"
     inkscape:window-maximized="0"
     inkscape:current-layer="g3595" />
  <g
     id="g3595">
    <g
       id="g3501">
      <path
         inkscape:connector-curvature="0"
         id="path3599"
         d="m 191.5,438.65982 c -33.55,-11.1077 -61.74965,-20.49658 -62.66589,-20.86416 -1.03366,-0.41469 -2.06811,-2.68494 -2.72573,-5.982 -0.58292,-2.92251 -14.13065,-83.22962 -30.10607,-178.46024 L 66.95609,60.206845 67.228045,40.853422 67.5,21.5 254.89438,21.247376 c 145.1305,-0.195648 187.72217,0.01943 188.84782,0.953628 1.21488,1.008264 1.37377,4.578622 0.96808,21.752624 L 444.22492,64.5 416.72433,240.33813 c -15.12532,96.71097 -27.88843,176.21676 -28.36246,176.67953 -1.44985,1.41541 -130.43309,41.98731 -133.23777,41.91017 -1.44326,-0.0397 -30.0741,-9.1603 -63.6241,-20.26801 z"
         style="fill:#d3bc5f" />
      <g
         transform="matrix(-1.0130742,0,0,-1.0130742,983.16991,499.20075)"
         id="g3447">
        <path
           style="fill:#000000"
           d="m 711.86791,445.7882 c -1.10857,-1.8076 -3.16172,-12.5013 -4.56256,-23.76376 l -2.54697,-20.47718 -14.52586,2.41223 c -7.98923,1.32671 -24.03047,5.37268 -35.64721,8.99104 -11.61674,3.61837 -25.26399,6.59926 -30.32723,6.62425 -9.3062,0.0459 -27.75647,-11.79356 -27.75647,-17.8112 0,-1.7956 11.78727,-3.26473 26.19393,-3.26473 14.40666,0 26.9587,-1.23743 27.89343,-2.74986 2.8444,-4.60234 -7.85593,-49.58615 -14.0402,-59.02454 -7.29035,-11.12647 -3.98492,-14.69795 9.0496,-9.77798 5.55807,2.09795 13.81414,3.28081 18.34682,2.62858 4.53268,-0.65222 15.76572,-2.14131 24.9623,-3.30908 13.87766,-1.76215 16.72106,-3.36206 16.72106,-9.40855 0,-6.53749 -1.3551,-7.01646 -13.20084,-4.66592 -19.85149,3.93911 -29.25819,3.1143 -35.48381,-3.11132 -5.15635,-5.15634 -4.31196,-5.66223 10.08791,-6.04386 28.30467,-0.75015 36.87788,-3.97965 36.4941,-13.7472 -0.18839,-4.79477 -1.54595,-11.48994 -3.01679,-14.87816 -2.20888,-5.08833 -0.84592,-6.16039 7.832,-6.16039 13.23333,0 19.40006,7.1455 16.41862,19.02451 -2.61381,10.41428 -1.98224,10.61006 16.43099,5.09332 14.5594,-4.36211 24.2816,-0.33224 24.2816,10.06475 0,4.05903 -2.97,4.65694 -13.9324,2.80485 -17.77543,-3.00313 -28.31026,0.35067 -28.31026,9.0127 0,8.04506 8.29481,8.72474 35.43686,2.90382 22.4996,-4.8253 33.3661,-0.71786 40.03,15.13104 4.2078,10.00732 3.9875,12.21827 -2.0284,20.35523 -3.712,5.02065 -7.7045,15.01647 -8.8723,22.21293 l -2.1233,13.08446 14.7015,0 c 11.1055,0 16.9206,2.21915 23.7741,9.07257 14.535,14.53504 6.5506,18.11539 -24.3047,10.89872 -14.0638,-3.28934 -36.8858,-5.96034 -50.71551,-5.93552 -27.44149,0.0493 -29.20089,1.37383 -29.66589,22.33444 -0.29683,13.37928 -4.78192,26.06532 -7.59412,21.47981 z m -17.68008,-54.28174 c 8.14551,-0.0352 11.44072,-1.67883 11.44072,-5.71002 0,-4.23849 -2.15109,-5.12206 -8.55626,-3.51445 -8.4228,2.11397 -29.29743,-3.42644 -25.8602,-6.86366 0.9692,-0.96922 8.5889,-2.92759 16.93266,-4.35198 8.34375,-1.42439 15.90311,-4.78779 16.79859,-7.47421 1.25923,-3.7777 -0.93681,-4.37142 -9.69217,-2.62032 -11.13356,2.22672 -24.82485,-2.13371 -24.82485,-7.90621 0,-1.6186 7.9205,-3.99355 17.60111,-5.27773 12.70475,-1.68534 17.60112,-3.88126 17.60112,-7.89368 0,-4.66035 -2.7025,-5.12618 -16.72106,-2.88232 -9.19658,1.47205 -19.49324,2.54241 -22.88145,2.37858 -7.42535,-0.35903 -7.80429,6.72285 -1.89149,35.34977 3.75919,18.20022 5.12521,20.43789 11.44072,18.74114 3.94451,-1.05976 12.32016,-1.94848 18.61256,-1.97491 z m 80.3545,-28.19752 c 4.6291,-25.66983 3.7797,-30.49341 -5.9113,-33.56921 -12.0206,-3.81518 -45.40136,2.07457 -45.40136,8.01073 0,4.22434 2.85757,4.86769 13.82825,3.11342 10.14304,-1.62194 15.30281,-0.73671 19.36121,3.32176 9.2133,9.21323 6.4366,11.6714 -14.43017,12.77492 -13.12579,0.69412 -20.51364,2.72276 -21.57037,5.92303 -1.28891,3.9034 1.66244,4.37701 14.90259,2.39153 16.99325,-2.54829 26.63095,1.25852 26.63095,10.51896 0,3.46506 -4.761,4.10359 -19.36123,2.59669 -16.60095,-1.71336 -19.36123,-1.15231 -19.36123,3.93544 0,5.07806 3.40212,5.78355 23.59432,4.89275 l 23.59434,-1.04089 z M 696.53142,255.31665 c -9.00947,-9.68288 -9.05841,-9.97746 -1.83941,-11.07242 6.82677,-1.03547 7.41632,-3.35396 7.41632,-29.1657 0,-26.94997 -0.27389,-27.89423 -7.04045,-24.27288 -3.87224,2.07236 -7.04045,6.82666 -7.04045,10.5651 0,19.15078 -31.06626,52.79893 -48.74757,52.79893 -6.13699,0 -7.57601,-2.08781 -7.57601,-10.99171 0,-8.63256 0.98445,-10.17468 4.58676,-7.18503 3.37645,2.8022 7.51132,2.02814 15.6701,-2.93352 10.46743,-6.36562 24.46436,-26.86776 20.82642,-30.5057 -0.92321,-0.9232 -8.18549,1.64104 -16.13841,5.69832 -11.05236,5.63849 -17.09056,6.69519 -25.62331,4.48413 -18.44915,-4.78065 -14.93127,-9.87119 9.99563,-14.46416 32.31117,-5.95356 37.51204,-9.16584 35.62763,-22.00514 -1.18294,-8.05985 -0.27465,-10.15428 4.04669,-9.33156 3.06458,0.58344 6.07777,4.60583 6.69597,8.93865 0.94205,6.60252 2.22427,7.28899 7.92051,4.24046 5.39397,-2.88677 6.79649,-7.46192 6.79649,-22.17071 0,-10.19333 -1.87452,-20.40785 -4.1656,-22.69892 -6.94083,-6.94083 0.40679,-9.73701 10.52558,-4.00557 8.74348,4.95243 9.38391,6.83302 8.23263,24.17464 -1.18819,17.89754 -0.8747,18.70673 6.49993,16.77822 14.38098,-3.76071 17.62992,0.35147 17.62992,22.31412 0,29.6202 10.426,40.35067 37.84244,38.9475 6.8897,-0.35261 7.9344,-2.35244 8.0275,-15.36632 0.092,-12.85479 0.6552,-13.96981 4.001,-7.9205 2.1417,3.87225 6.8906,10.35841 10.5531,14.41371 12.9653,14.35553 1.6811,23.361 -29.2724,23.361 -29.74614,0 -45.23253,-17.81566 -45.23253,-52.03589 0,-11.42789 -1.30528,-15.8154 -4.40028,-14.791 -3.03102,1.00323 -4.94799,13.87752 -6.1604,41.37296 -1.95381,44.30934 -4.70338,48.90119 -19.6578,32.82899 z m 58.38031,-50.01954 c 0,-5.54679 13.579,-6.83877 20.0776,-1.91029 5.7,4.32281 5.0215,4.80708 -6.8768,4.908 -7.2605,0.0616 -13.2008,-1.2874 -13.2008,-2.99771 z m -1.9674,-23.40397 c 7.5926,-5.74279 21.6085,-6.89102 24.6208,-2.01703 2.5801,4.17462 -6.493,7.43597 -20.3012,7.29736 -10.56844,-0.1061 -10.79477,-0.38275 -4.3196,-5.28033 z M 644.71342,170.18909 c 16.2178,-10.39302 24.29225,-23.65524 18.58722,-30.52938 -5.90923,-7.12019 -2.31114,-10.06256 8.87259,-7.25562 11.87966,2.98161 14.49879,10.57053 7.39167,21.41736 -7.54722,11.51851 -19.0792,18.79429 -33.96417,21.42871 l -12.13676,2.14804 z m 99.95695,-11.38257 c -12.58202,-5.03071 -17.68339,-13.7633 -17.80852,-30.48484 -0.12198,-16.30115 -3.19435,-17.98027 -17.71307,-9.68062 -12.79931,7.31675 -29.46616,6.52309 -36.96235,-1.76011 -6.24487,-6.9005 -6.14854,-7.04045 4.84579,-7.04045 6.16952,0 20.88377,-3.25639 32.69834,-7.23643 28.96459,-9.757461 32.20008,-8.072369 29.28582,15.25251 -1.92785,15.43003 -1.15549,20.04536 4.52937,27.06587 6.03627,7.45448 8.26068,8.06021 18.65348,5.07959 8.0245,-2.30141 12.5762,-6.17034 14.2261,-12.09224 1.4393,-5.16592 2.5689,-6.28343 2.777,-2.74728 0.193,3.27843 3.5978,8.23496 7.5661,11.01451 6.6531,4.65996 6.7706,5.49837 1.5087,10.76028 -6.3608,6.3608 -29.8544,7.36786 -43.60676,1.86921 z M 749.42412,132.61 c 7.54601,-5.70755 19.56841,-6.95153 19.56841,-2.02478 0,3.98954 -8.8909,7.45001 -18.76903,7.30512 -7.46868,-0.10955 -7.48585,-0.22294 -0.79938,-5.28034 z m 1.47727,-22.51602 c 9.14494,-8.02634 16.42644,-9.31523 19.99604,-3.53949 3.2946,5.33069 0.7982,6.85721 -14.6695,8.97037 l -13.63703,1.86306 z"
           id="path3445"
           inkscape:connector-curvature="0"
           sodipodi:nodetypes="sscsssssssssssssssssssssssssscsssssscssssssssssssscsssssssssssscsssssssssssssssssssssssssssssssssssssssssssssscsssssssssssccssssssssscs" />
      </g>
      <path
         sodipodi:nodetypes="ssscssssscsssssssssscs"
         inkscape:connector-curvature="0"
         id="path3597"
         d="m 193,437.57176 c -33.825,-11.17923 -62.27929,-20.9437 -63.23175,-21.69882 -1.3974,-1.10786 -7.5275,-35.88006 -31.750002,-180.09769 L 68,57.050498 68,40.725249 C 68,29.361166 68.364674,24.035326 69.2,23.2 70.124671,22.275329 112.78183,22 255.11821,22 c 101.59502,0 185.43002,0.273145 186.3,0.606989 C 442.78115,23.129996 443,25.755121 443,41.580463 l 0,18.366485 -27.55185,177.276522 c -15.5708,100.18706 -28.07286,177.79074 -28.75,178.45902 -1.02945,1.01599 -124.10743,40.54934 -130.05047,41.77295 C 255.46646,457.69865 226.825,448.75099 193,437.57176 z m 125.16391,-25.1264 c 36.41114,-12.13702 61.88476,-21.12982 62.20301,-21.95915 1.13346,-2.95375 51.75647,-355.722265 51.24002,-357.068127 C 431.14006,32.201427 406.13831,32 255.5904,32 159.0806,32 79.905887,32.343261 79.646597,32.762801 c -0.737722,1.19366 54.965823,357.249619 56.061743,358.345539 1.11795,1.11795 117.00987,41.76816 119.2916,41.84267 0.82496,0.0269 29.24875,-9.2006 63.16397,-20.50565 z"
         style="fill:#12110f" />
    </g>
  </g>
</svg>
