<?xml version="1.0" encoding="UTF-8" standalone="no"?>
<!-- Created with Inkscape (http://www.inkscape.org/) -->

<svg
   xmlns:dc="http://purl.org/dc/elements/1.1/"
   xmlns:cc="http://creativecommons.org/ns#"
   xmlns:rdf="http://www.w3.org/1999/02/22-rdf-syntax-ns#"
   xmlns:svg="http://www.w3.org/2000/svg"
   xmlns="http://www.w3.org/2000/svg"
   xmlns:sodipodi="http://sodipodi.sourceforge.net/DTD/sodipodi-0.dtd"
   xmlns:inkscape="http://www.inkscape.org/namespaces/inkscape"
   id="svg3247"
   version="1.1"
   inkscape:version="0.48.4 r9943 custom"
   width="512"
   height="512"
   sodipodi:docname="BlackGoldLance.svg">
  <metadata
     id="metadata3253">
    <rdf:RDF>
      <cc:Work
         rdf:about="">
        <dc:format>image/svg+xml</dc:format>
        <dc:type
           rdf:resource="http://purl.org/dc/dcmitype/StillImage" />
        <dc:title />
      </cc:Work>
    </rdf:RDF>
  </metadata>
  <defs
     id="defs3251" />
  <sodipodi:namedview
     pagecolor="#ffffff"
     bordercolor="#666666"
     borderopacity="1"
     objecttolerance="10"
     gridtolerance="10"
     guidetolerance="10"
     inkscape:pageopacity="0"
     inkscape:pageshadow="2"
     inkscape:window-width="640"
     inkscape:window-height="480"
     id="namedview3249"
     showgrid="false"
     inkscape:zoom="0.4609375"
     inkscape:cx="256"
     inkscape:cy="256"
     inkscape:window-x="106"
     inkscape:window-y="22"
     inkscape:window-maximized="0"
     inkscape:current-layer="g3257" />
  <g
     id="g3257">
    <g
       id="g3935">
      <path
         inkscape:connector-curvature="0"
         id="path3263"
         d="m 202.64926,375.07216 c -28.51791,-10.36479 -52.44908,-19.45867 -53.18039,-20.20862 -0.82918,-0.85031 -10.58815,-58.42782 -25.92758,-152.97169 L 98.943356,50.283702 99.221678,35.891851 99.5,21.5 254.89374,21.246847 c 114.01825,-0.185748 155.75486,0.04655 156.75,0.872445 1.00598,0.834888 1.35455,4.257792 1.34964,13.253153 -0.006,10.555037 -2.9097,32.011119 -22.39574,165.473295 -12.31402,84.34016 -22.77354,153.72848 -23.24338,154.19627 -0.87775,0.8739 -110.63726,38.99099 -112.06173,38.9166 -0.43589,-0.0228 -24.12536,-8.52167 -52.64327,-18.88645 z"
         style="fill:#d3bc5f" />
      <g
         transform="matrix(-1.1711716,0,0,-1.1711716,99.101722,501.58782)"
         style="fill:#ff0000"
         id="g3885">
        <path
           style="fill:#ff0000"
           d="m -151.46875,154.65625 c -4.09713,0.0615 -3.15923,5.1898 -0.125,6.34375 2.98057,2.03653 7.95077,4.93061 4.65625,9.0625 -4.45878,10.30585 -13.38413,19.38487 -14.65625,30.9375 0.76623,6.51106 9.18855,5.21393 13.84375,5.71875 3.57778,-0.16041 5.95674,3.26041 3.59375,6.34375 -4.35088,9.00587 -14.1779,14.127 -17.78125,23.53125 10.10368,-3.56038 17.14047,-12.67863 26.15144,-18.15211 7.49381,-6.76451 18.54715,-10.01016 23.91106,-18.81664 2.37402,-5.13294 -4.18684,-8.08044 -8.3125,-8.03125 -7.63392,-0.74121 -15.28114,0.3857 -22.90625,0.71875 6.09894,-7.64215 15.86156,-13.48549 18.4375,-23.3125 0.30298,-8.96922 -9.94301,-12.58871 -17.25,-13.78125 -3.17494,-0.29148 -6.36948,-0.70016 -9.5625,-0.5625 z m 42.21875,62.375 c -23.67323,1.42366 -43.26089,17.07765 -61.33205,30.83595 -3.71441,2.3207 -7.59787,5.40347 -12.04295,4.22655 -5.20145,2.03287 -9.08722,8.15589 -8.8125,13.625 2.70022,4.40343 8.34217,-0.41805 11.5625,-1.75 13.39779,-7.09199 25.31469,-17.67318 39.71875,-22.625 5.23999,-0.78807 4.54811,6.91955 5.0625,10.1875 0.2977,10.87717 0.38405,22.05658 -0.53125,32.75 -3.34793,-7.79696 -12.77993,-15.52338 -21.34375,-10.65625 -11.39052,7.09269 -12.31311,23.38503 -7.625,34.84375 3.80097,12.22927 13.57935,20.91515 20.1875,31.5 2.24819,2.3586 0.74149,4.75197 0.78125,7.28125 2.96439,4.22667 8.62523,-0.35874 11.9375,-2.0625 9.88529,-5.20811 15.86452,-16.08977 14.40625,-27.25 -0.36046,-8.17823 -6.7875,-14.77094 -5.34375,-23.21875 0.17157,-17.30013 5.70005,-34.1418 5.09375,-51.4375 0.16994,-4.78542 -5.27764,-7.78174 -7.21875,-10.21875 6.98361,-2.65812 15.99101,-4.19815 22.75,-0.40625 0.38163,5.48406 -9.30987,8.43185 -5.71875,13.9375 5.35698,2.43471 11.194535,-1.90837 16.1875,-3.6875 5.616441,-2.00143 11.118874,-8.75764 6.96875,-14.53125 -5.500868,-7.76088 -15.216432,-11.91572 -24.6875,-11.34375 z M -154.96875,290 c 7.5434,1.96935 12.16377,9.80418 16.34375,15.90625 4.83681,9.03851 4.96084,20.24903 2.1875,29.90625 -10.68387,-10.08491 -18.6814,-24.00269 -20.84375,-38.53125 -0.004,-2.27061 -0.60599,-6.63167 2.3125,-7.28125 z m 29.0625,33.03125 c 3.33075,-0.021 -0.13512,5.62207 -1.25,4.40625 -0.27656,-1.46508 -0.10361,-3.5565 1.25,-4.40625 z m -15.78125,28.125 c -7.57866,0.69774 -15.89633,-0.5814 -23.03125,2.25 -2.72482,3.76467 3.19573,6.91462 5.78125,8.8125 12.58812,7.75066 27.95463,14.0996 43.03125,10.875 8.04225,-1.65992 12.21963,-12.75285 7.0625,-19.15625 -7.26489,-4.32732 -16.59371,-2.03691 -24.6875,-2.8125 -2.71881,0.004 -5.43769,-0.017 -8.15625,0.0312 z"
           id="path3883"
           inkscape:connector-curvature="0" />
      </g>
      <path
         sodipodi:nodetypes="sssssssssscssssssssss"
         inkscape:connector-curvature="0"
         id="path3261"
         d="M 202.01827,373.18144 C 155.67821,356.33603 150.45761,354.21891 149.74625,351.98347 149.31159,350.61756 137.94087,281.42862 124.47798,198.23028 102.89406,64.845374 100,45.626872 100,35.680277 100,28.240062 100.40851,23.991493 101.2,23.2 102.12286,22.277143 137.67071,22 255.11821,22 c 83.99502,0 153.43002,0.273145 154.3,0.606989 C 410.75195,23.118792 411,25.32013 411,36.644722 c 0,12.263795 -1.9161,26.569029 -22.05298,164.643008 -12.65935,86.80232 -22.56286,151.72912 -23.25,152.42566 -1.44623,1.46602 -107.81533,38.30858 -110.38801,38.23457 -0.99495,-0.0286 -24.97579,-8.47355 -53.29074,-18.76652 z M 307.1768,355.34385 c 28.45098,-9.71089 51.93606,-18.19557 52.18904,-18.85484 1.03982,-2.70972 40.75097,-301.742227 40.24582,-303.058631 C 399.13916,32.199071 379.09523,32 255.5904,32 c -78.9098,0 -143.68382,0.342135 -143.94226,0.760299 -0.44605,0.721723 44.81969,299.987081 45.88051,303.329801 0.3361,1.05907 16.61282,7.4569 48.73799,19.15729 26.52835,9.66195 48.4466,17.6089 48.70722,17.6599 0.26063,0.051 23.75195,-7.85256 52.20294,-17.56344 z"
         style="fill:#f21612" />
      <path
         inkscape:connector-curvature="0"
         id="path3259"
         d="M 202.01827,373.18144 C 155.67821,356.33603 150.45761,354.21891 149.74625,351.98347 149.31159,350.61756 137.94087,281.42862 124.47798,198.23028 102.89406,64.845374 100,45.626872 100,35.680277 100,28.240062 100.40851,23.991493 101.2,23.2 102.12286,22.277143 137.67071,22 255.11821,22 c 83.99502,0 153.43002,0.273145 154.3,0.606989 C 410.75195,23.118792 411,25.32013 411,36.644722 c 0,12.263795 -1.9161,26.569029 -22.05298,164.643008 -12.65935,86.80232 -22.56286,151.72912 -23.25,152.42566 -1.44623,1.46602 -107.81533,38.30858 -110.38801,38.23457 -0.99495,-0.0286 -24.97579,-8.47355 -53.29074,-18.76652 z M 307.1768,355.34385 c 28.45098,-9.71089 51.93606,-18.19557 52.18904,-18.85484 1.03982,-2.70972 40.75097,-301.742227 40.24582,-303.058631 C 399.13916,32.199071 379.09523,32 255.5904,32 c -78.9098,0 -143.68382,0.342135 -143.94226,0.760299 -0.44605,0.721723 44.81969,299.987081 45.88051,303.329801 0.3361,1.05907 16.61282,7.4569 48.73799,19.15729 26.52835,9.66195 48.4466,17.6089 48.70722,17.6599 0.26063,0.051 23.75195,-7.85256 52.20294,-17.56344 z"
         style="fill:#151412" />
    </g>
  </g>
</svg>
