<?xml version="1.0" encoding="UTF-8" standalone="no"?>
<!-- Created with Inkscape (http://www.inkscape.org/) -->

<svg
   xmlns:dc="http://purl.org/dc/elements/1.1/"
   xmlns:cc="http://creativecommons.org/ns#"
   xmlns:rdf="http://www.w3.org/1999/02/22-rdf-syntax-ns#"
   xmlns:svg="http://www.w3.org/2000/svg"
   xmlns="http://www.w3.org/2000/svg"
   xmlns:sodipodi="http://sodipodi.sourceforge.net/DTD/sodipodi-0.dtd"
   xmlns:inkscape="http://www.inkscape.org/namespaces/inkscape"
   id="svg2"
   version="1.1"
   inkscape:version="0.48.4 r9943 custom"
   width="512"
   height="512"
   sodipodi:docname="BlackCrownedRook.svg">
  <metadata
     id="metadata8">
    <rdf:RDF>
      <cc:Work
         rdf:about="">
        <dc:format>image/svg+xml</dc:format>
        <dc:type
           rdf:resource="http://purl.org/dc/dcmitype/StillImage" />
        <dc:title />
      </cc:Work>
    </rdf:RDF>
  </metadata>
  <defs
     id="defs6" />
  <sodipodi:namedview
     pagecolor="#ffffff"
     bordercolor="#666666"
     borderopacity="1"
     objecttolerance="10"
     gridtolerance="10"
     guidetolerance="10"
     inkscape:pageopacity="0"
     inkscape:pageshadow="2"
     inkscape:window-width="933"
     inkscape:window-height="911"
     id="namedview4"
     showgrid="false"
     inkscape:zoom="1.3037281"
     inkscape:cx="271.28932"
     inkscape:cy="213.78296"
     inkscape:window-x="328"
     inkscape:window-y="22"
     inkscape:window-maximized="0"
     inkscape:current-layer="svg2" />
  <g
     id="g3301">
    <path
       style="fill:#d3bc5f"
       d="m 191.5,438.65982 c -33.55,-11.1077 -61.74965,-20.49658 -62.66589,-20.86416 -1.03366,-0.41469 -2.06811,-2.68494 -2.72573,-5.982 -0.58292,-2.92251 -14.13065,-83.22962 -30.10607,-178.46024 L 66.95609,60.206845 67.228045,40.853422 67.5,21.5 254.89438,21.247376 c 145.1305,-0.195648 187.72217,0.01943 188.84782,0.953628 1.21488,1.008264 1.37377,4.578622 0.96808,21.752624 L 444.22492,64.5 416.72433,240.33813 c -15.12532,96.71097 -27.88843,176.21676 -28.36246,176.67953 -1.44985,1.41541 -130.43309,41.98731 -133.23777,41.91017 -1.44326,-0.0397 -30.0741,-9.1603 -63.6241,-20.26801 z"
       id="path2993"
       inkscape:connector-curvature="0" />
    <g
       transform="matrix(-1,0,0,-1,-116.69019,482.84403)"
       id="g3246">
      <path
         style="fill:#ff0000"
         d="m -401.52574,432.14803 c -20.17111,-9.15974 -24.16659,-15.43516 -9.82735,-15.43516 15.39222,0 16.56799,-2.84722 5.67434,-13.74087 -7.8674,-7.86743 -9.12093,-11.89217 -7.28887,-23.4029 3.26601,-20.52021 17.85291,-31.70414 39.6061,-30.36645 16.22802,0.99795 17.39503,0.41399 20.27137,-10.14366 5.94723,-21.82935 -2.23558,-25.92284 -26.17302,-13.09314 -16.98568,9.10378 -23.14097,9.40567 -34.17639,1.67618 -12.54345,-8.78579 -10.52904,-14.25991 4.22869,-11.49133 7.82413,1.46783 17.8522,0.18867 26.34644,-3.36033 7.54279,-3.15158 19.76621,-5.73014 27.16314,-5.73014 11.0167,0 14.12737,1.78432 17.2001,9.8662 2.34397,6.16513 2.46423,14.52697 0.32056,22.29068 -2.64845,9.59189 -2.09089,13.76413 2.44564,18.30065 5.31419,5.31418 5.00335,7.17472 -3.24999,19.45295 -8.36065,12.43786 -38.25118,35.96104 -45.69515,35.96104 -1.72308,0 -3.13287,1.7015 -3.13287,3.78112 0,5.14517 13.776,4.75825 29.20291,-0.8202 8.95785,-3.23922 14.56731,-3.43905 18.94903,-0.67516 10.93411,6.89708 9.59534,12.79408 -4.21452,18.56423 -18.04549,7.53987 -38.74004,6.95342 -57.65016,-1.63371 z m 27.4315,-43.83565 c 4.48152,-8.29533 9.29808,-18.91084 10.70347,-23.58999 2.32,-7.72427 1.29756,-8.50753 -11.10536,-8.50753 -25.06739,0 -40.81544,25.83016 -25.83809,42.37992 9.11407,10.07095 16.89046,7.0237 26.23998,-10.2824 z m -87.09252,-99.57821 c -4.84045,-7.83201 1.25507,-24.26996 18.42912,-49.69829 9.11627,-13.49777 15.99563,-25.1208 15.28748,-25.82894 -0.70815,-0.70816 -4.72442,0.55181 -8.92506,2.79992 -11.59163,6.20365 -28.91805,4.89557 -35.79405,-2.70233 -5.80527,-6.41474 -5.46988,-6.71102 6.07148,-5.36363 7.12577,0.83189 23.02196,-2.64112 38.1484,-8.3347 27.5351,-10.36418 40.15639,-12.21422 40.15639,-5.88616 0,2.13109 -3.82839,5.35358 -8.50753,7.16108 -9.22579,3.56382 -19.35318,13.92876 -32.9832,33.75688 l -8.69786,12.65309 11.92864,-6.16853 c 6.56075,-3.3927 15.87678,-5.68358 20.7023,-5.09085 7.19584,0.88388 12.51226,-4.39518 29.56242,-29.35463 l 20.78874,-30.43232 2.58497,-39.44484 c 2.49302,-38.041568 2.27961,-39.679868 -5.99866,-46.051398 l -8.58363,-6.60655 10.12802,-0.0841 c 16.09946,-0.13366 22.76488,9.32563 19.92335,28.274308 l -2.42069,16.14235 16.43367,5.47612 c 9.03852,3.01187 16.94141,8.09264 17.56199,11.2906 0.68665,3.53846 -7.08379,11.26537 -19.85091,19.7397 -18.23402,12.10307 -20.97924,15.52041 -20.97924,26.11574 0,6.70477 2.47759,15.72774 5.50574,20.05104 4.90063,6.99662 4.59468,10.66274 -2.7838,33.3571 l -8.28955,25.49656 9.35656,7.57648 c 10.62155,8.60081 33.23174,7.52809 52.61689,-2.49636 10.11237,-5.22931 10.67401,-6.6485 7.75431,-19.59407 l -3.14768,-13.95642 13.45162,13.45162 c 7.46118,7.46118 12.28396,15.34095 10.82961,17.69414 -10.78623,17.45248 -69.98521,26.15445 -88.70901,13.03979 -8.2914,-5.80753 -8.68921,-7.74708 -6.01031,-29.30372 3.02967,-24.37929 3.0608,-59.06822 0.0557,-62.07332 -5.63853,-5.63853 -34.85286,44.71022 -38.20464,65.84291 -3.16725,19.9692 -7.98456,27.97216 -16.8376,27.97216 -9.11102,0 -9.40563,-6.94222 -1.03916,-24.4869 8.78423,-18.42073 2.77537,-24.85483 -15.20471,-16.28072 -9.04764,4.31451 -15.36398,11.74083 -22.08626,25.96751 -5.92,12.52879 -10.45748,18.23771 -12.22384,15.37968 z m 133.48871,-134.40178 8.4974,-9.04507 -8.67962,-6.07943 c -12.68371,-8.88402 -14.55922,-7.71885 -14.55922,9.04506 0,17.45947 2.91939,18.66344 14.74144,6.07944 z m 13.21411,79.55413 10.94047,-9.26953 -8.10463,-5.06143 c -9.65239,-6.02801 -10.0781,-11.14502 -2.19539,-26.38849 4.60771,-8.91033 4.92215,-12.61661 1.42759,-16.8273 -3.69204,-4.44863 -2.71369,-5.40007 5.5528,-5.40007 12.96142,0 16.4218,9.28981 8.47283,22.74634 -8.11692,13.74084 -8.1388,13.66251 5.10542,18.27946 21.06106,7.34193 11.41368,19.5292 -22.68676,28.65957 -9.33317,2.49895 -9.31434,2.41367 1.48767,-6.73855 z m -110.061,-50.4736 c 6.59646,-7.51709 6.47443,-7.74851 -5.33034,-10.10947 -16.31048,-3.26209 -13.3744,-4.6984 15.5944,-7.62867 l 24.57732,-2.48606 -9.20305,7.25223 c -5.06168,3.98873 -14.41997,10.27014 -20.7962,13.9587 -11.57849,6.69799 -11.58461,6.69675 -4.84213,-0.98673 z m 4.5912,-28.19407 c 1.20067,-3.17412 -3.39696,-7.41801 -12.27343,-11.32914 l -14.19328,-6.25379 13.93307,-0.36318 c 7.66319,-0.19975 18.57468,-2.1279 24.24776,-4.28481 7.44886,-2.83205 11.45678,-2.70073 14.42537,0.47265 2.97899,3.1845 2.77101,4.8842 -0.75542,6.17386 -2.67636,0.97877 -9.91461,6.02762 -16.08501,11.21966 -6.1704,5.19205 -10.35497,7.15619 -9.29906,4.36475 z m 8.5087,-43.17065 c 13.77631,-14.196346 -3.58634,-40.549977 21.71873,-19.566858 8.50372,7.34342 9.17761,9.424778 4.92486,15.210838 -2.70981,3.68682 -11.72737,7.59492 -20.03902,8.68467 -14.84396,1.94621 -14.96114,1.8694 -6.60457,-4.32865 z"
         id="path3244"
         inkscape:connector-curvature="0"
         sodipodi:nodetypes="ssssssssscsssssssssssssssscssssssssscssscsscsscsssssscssscssssssssssccscsssscssssssssssscssssscssssssccssc" />
    </g>
    <path
       sodipodi:nodetypes="ssscssssscsssssssssscs"
       style="fill:#f21914"
       d="m 193,437.57176 c -33.825,-11.17923 -62.27929,-20.9437 -63.23175,-21.69882 -1.3974,-1.10786 -7.5275,-35.88006 -31.750002,-180.09769 L 68,57.050498 68,40.725249 C 68,29.361166 68.364674,24.035326 69.2,23.2 70.124671,22.275329 112.78183,22 255.11821,22 c 101.59502,0 185.43002,0.273145 186.3,0.606989 C 442.78115,23.129996 443,25.755121 443,41.580463 l 0,18.366485 -27.55185,177.276522 c -15.5708,100.18706 -28.07286,177.79074 -28.75,178.45902 -1.02945,1.01599 -124.10743,40.54934 -130.05047,41.77295 C 255.46646,457.69865 226.825,448.75099 193,437.57176 z m 125.17078,-25.14065 c 34.90005,-11.64405 61.89716,-21.16578 62.19229,-21.93487 1.11721,-2.91139 51.74957,-355.760321 51.2405,-357.086937 C 431.14117,32.204308 405.62438,32 255.5904,32 159.0806,32 79.90768,32.34036 79.650581,32.756355 78.928687,33.924404 134.62061,390.02061 135.69288,391.09288 c 1.09806,1.09806 117.06515,41.79065 119.30712,41.8646 0.825,0.0272 29.25185,-9.20966 63.17078,-20.52637 z"
       id="path2991"
       inkscape:connector-curvature="0" />
    <path
       style="fill:#131210"
       d="m 193,437.57176 c -33.825,-11.17923 -62.27929,-20.9437 -63.23175,-21.69882 -1.3974,-1.10786 -7.5275,-35.88006 -31.750002,-180.09769 L 68,57.050498 68,40.725249 C 68,29.361166 68.364674,24.035326 69.2,23.2 70.124671,22.275329 112.78183,22 255.11821,22 c 101.59502,0 185.43002,0.273145 186.3,0.606989 C 442.78115,23.129996 443,25.755121 443,41.580463 l 0,18.366485 -27.55185,177.276522 c -15.5708,100.18706 -28.07286,177.79074 -28.75,178.45902 -1.02945,1.01599 -124.10743,40.54934 -130.05047,41.77295 C 255.46646,457.69865 226.825,448.75099 193,437.57176 z m 125.17078,-25.14065 c 34.90005,-11.64405 61.89716,-21.16578 62.19229,-21.93487 1.11721,-2.91139 51.74957,-355.760321 51.2405,-357.086937 C 431.14117,32.204308 405.62438,32 255.5904,32 159.0806,32 79.90768,32.34036 79.650581,32.756355 78.928687,33.924404 134.62061,390.02061 135.69288,391.09288 c 1.09806,1.09806 117.06515,41.79065 119.30712,41.8646 0.825,0.0272 29.25185,-9.20966 63.17078,-20.52637 z"
       id="path2989"
       inkscape:connector-curvature="0" />
    <g
       id="g4439"
       transform="matrix(4.4238841,0,0,4.1007377,-30.238211,-33.391315)">
      <g
         id="g10964"
         transform="matrix(-1,0,0,-1,126.50341,125.35865)"
         style="fill:#ff0000">
        <g
           id="g2075"
           transform="matrix(0.786183,0,0,0.935199,12.88314,7.493534)"
           style="fill:#ff0000" />
        <g
           id="g2872"
           transform="matrix(1.036664,-0.02174942,0.02123065,1.061995,-3.652085,-1.466228)"
           style="fill:#ff0000" />
      </g>
    </g>
  </g>
</svg>
