<?xml version="1.0" encoding="UTF-8" standalone="no"?>
<!-- Created with Inkscape (http://www.inkscape.org/) -->

<svg
   xmlns:dc="http://purl.org/dc/elements/1.1/"
   xmlns:cc="http://creativecommons.org/ns#"
   xmlns:rdf="http://www.w3.org/1999/02/22-rdf-syntax-ns#"
   xmlns:svg="http://www.w3.org/2000/svg"
   xmlns="http://www.w3.org/2000/svg"
   xmlns:sodipodi="http://sodipodi.sourceforge.net/DTD/sodipodi-0.dtd"
   xmlns:inkscape="http://www.inkscape.org/namespaces/inkscape"
   version="1.1"
   width="128"
   height="128"
   id="svg2"
   inkscape:version="0.48.3.1 r9886"
   sodipodi:docname="BlackAdvisor.svg">
  <sodipodi:namedview
     pagecolor="#ffffff"
     bordercolor="#666666"
     borderopacity="1"
     objecttolerance="10"
     gridtolerance="10"
     guidetolerance="10"
     inkscape:pageopacity="0"
     inkscape:pageshadow="2"
     inkscape:window-width="640"
     inkscape:window-height="480"
     id="namedview33"
     showgrid="false"
     inkscape:zoom="1.8653564"
     inkscape:cx="64"
     inkscape:cy="64"
     inkscape:window-x="0"
     inkscape:window-y="27"
     inkscape:window-maximized="0"
     inkscape:current-layer="svg2" />
  <defs
     id="defs4" />
  <metadata
     id="metadata7">
    <rdf:RDF>
      <cc:Work
         rdf:about="">
        <dc:format>image/svg+xml</dc:format>
        <dc:type
           rdf:resource="http://purl.org/dc/dcmitype/StillImage" />
      </cc:Work>
    </rdf:RDF>
  </metadata>
  <g
     id="layer1"
     transform="matrix(-1,0,0,-1,126.50341,125.35865)">
    <g
       id="g10964">
      <path
         d="m 9.8046247,116.56489 c 0,0 107.1261753,1.21404 106.8937853,0.40468 C 116.46604,116.16021 95.087283,18.227835 95.087283,18.227835 L 60.927745,8.1108558 26.768205,17.823157 9.8046247,116.56489 z"
         inkscape:connector-curvature="0"
         id="path2800"
         style="fill:#c3aa55;fill-opacity:1;fill-rule:evenodd;stroke:none" />
      <path
         d="m 74.758635,79.10127 c 1.880721,4.231621 1.880721,6.817611 2.115811,12.459772 0.23509,5.642162 1.88072,11.754498 0.70527,12.929948 -1.17545,1.17545 -15.045763,-10.108867 -15.280853,-9.168507 -0.23509,0.94036 13.870313,13.165047 16.221213,12.929957 2.350901,-0.23509 3.996531,-0.47018 3.996531,-6.11235 0,-5.642156 -1.41054,-21.1581 -2.821081,-22.33355 -1.41054,-1.17545 -3.99653,-1.17545 -4.936891,-0.70527 z"
         inkscape:connector-curvature="0"
         id="path1330"
         style="fill:#000000;fill-opacity:1;fill-rule:evenodd;stroke:#000000;stroke-width:1px;stroke-linecap:butt;stroke-linejoin:miter;stroke-opacity:1" />
      <path
         d="m 56.891792,87.799602 c 3.291261,1.17545 4.466711,-0.235091 8.228152,-1.175451 3.76144,-0.94036 4.936891,-2.58599 11.049232,-3.29126 6.112341,-0.705271 14.340493,-0.470181 15.986123,-0.705271 1.645631,-0.23509 4.231621,0 3.761441,-1.88072 -0.47018,-1.88072 -1.88072,-3.996531 -6.347431,-3.056171 -4.466711,0.940361 -17.631754,3.761441 -23.038825,5.407071 -5.407071,1.645631 -12.459773,1.175451 -13.635223,2.115811 -1.17545,0.94036 3.996531,2.585991 3.996531,2.585991 z"
         inkscape:connector-curvature="0"
         id="path1332"
         style="fill:#000000;fill-opacity:1;fill-rule:evenodd;stroke:#000000;stroke-width:1px;stroke-linecap:butt;stroke-linejoin:miter;stroke-opacity:1" />
      <path
         d="m 70.997194,91.561042 c -2.3509,-0.47018 -4.23162,0.70527 -4.23162,2.350901 0,1.64563 1.17545,5.171981 1.17545,5.171981 0,0 2.585991,-0.47018 3.291261,-2.3509 0.70527,-1.880721 -10e-7,-4.936892 -0.235091,-5.171982 z"
         inkscape:connector-curvature="0"
         id="path1334"
         style="fill:#000000;fill-opacity:1;fill-rule:evenodd;stroke:#000000;stroke-width:1px;stroke-linecap:butt;stroke-linejoin:miter;stroke-opacity:1" />
      <path
         d="m 64.208104,81.658739 c 0,0 4.810992,-3.652249 8.807523,-7.1786 3.996531,-3.526351 5.407071,-6.112342 6.347432,-6.112342 0.94036,0 4.231621,1.410541 3.76144,3.056171 -0.47018,1.64563 -1.17545,1.17545 -5.171981,3.056171 -4.426289,2.08296 -14.214594,6.94351 -13.744414,7.1786 z"
         inkscape:connector-curvature="0"
         id="path1336"
         style="fill:#000000;fill-opacity:1;fill-rule:evenodd;stroke:#000000;stroke-width:1px;stroke-linecap:butt;stroke-linejoin:miter;stroke-opacity:1" />
      <path
         d="m 65.286177,66.446742 c 0,0 0.940361,1.645631 3.056171,3.291261 2.115811,1.64563 2.585991,3.05617 1.64563,4.936891 -0.566172,1.132344 -0.23509,3.056171 -1.88072,2.585991 -1.645631,-0.47018 -3.761441,-6.112342 -3.526351,-7.287792 0.23509,-1.17545 0.70527,-3.29126 0.70527,-3.526351 z"
         inkscape:connector-curvature="0"
         id="path1338"
         style="fill:#000000;fill-opacity:1;fill-rule:evenodd;stroke:#000000;stroke-width:1px;stroke-linecap:butt;stroke-linejoin:miter;stroke-opacity:1" />
      <path
         d="m 55.716341,69.973093 c 0,0 9.403602,-2.58599 12.929953,-3.526351 3.526351,-0.94036 5.642161,-1.64563 5.877251,-2.82108 0.23509,-1.17545 -1.88072,-3.761441 -3.05617,-3.526351 -1.175451,0.23509 -2.821081,2.821081 -4.936891,4.231621 -2.115811,1.41054 -10.579052,5.171981 -10.814143,5.642161 z"
         inkscape:connector-curvature="0"
         id="path1340"
         style="fill:#000000;fill-opacity:1;fill-rule:evenodd;stroke:#000000;stroke-width:1px;stroke-linecap:butt;stroke-linejoin:miter;stroke-opacity:1" />
      <path
         d="m 46.31274,63.820417 c 0,0 2.11581,1.17545 3.05617,2.58599 0.94036,1.410541 -1.88072,16.221214 -2.58599,22.568645 -0.705271,6.347431 0.47018,11.049228 -0.47018,11.519408 -0.940361,0.47018 -6.072006,-2.930267 -6.112342,-2.821076 -0.407316,1.102623 3.056171,8.933426 5.642161,9.168516 2.585991,0.23509 3.996531,-1.17545 4.231621,-3.52636 0.23509,-2.3509 1.410541,-19.277379 1.645631,-22.56864 0.23509,-3.29126 2.58599,-13.165043 1.17545,-14.810673 -1.41054,-1.64563 -3.291261,-3.29126 -4.466711,-3.05617 -1.17545,0.23509 -1.88072,0.70527 -2.11581,0.94036 z"
         inkscape:connector-curvature="0"
         id="path1342"
         style="fill:#000000;fill-opacity:1;fill-rule:evenodd;stroke:#000000;stroke-width:1px;stroke-linecap:butt;stroke-linejoin:miter;stroke-opacity:1" />
      <path
         d="m 31.031886,88.034692 c 4.701801,1.41054 7.993062,1.64563 12.224683,0 4.231621,-1.645631 6.347431,-2.585991 6.347431,-2.585991 0,0 -0.70527,-3.761441 -6.112341,-2.11581 -5.407071,1.64563 -12.459773,4.231621 -12.459773,4.701801 z"
         inkscape:connector-curvature="0"
         id="path1344"
         style="fill:#000000;fill-opacity:1;fill-rule:evenodd;stroke:#000000;stroke-width:1px;stroke-linecap:butt;stroke-linejoin:miter;stroke-opacity:1" />
      <path
         d="m 36.909137,86.624152 c 0,3.76144 -6.817611,10.343962 -6.347431,12.929948 0.47018,2.58599 1.88072,2.82109 4.466711,1.41054 2.585991,-1.41054 3.51272,-5.345726 3.996531,-7.522877 0.47018,-2.115811 -1.17545,-6.347431 -2.115811,-6.817611 z"
         inkscape:connector-curvature="0"
         id="path1346"
         style="fill:#000000;fill-opacity:1;fill-rule:evenodd;stroke:#000000;stroke-width:1px;stroke-linecap:butt;stroke-linejoin:miter;stroke-opacity:1" />
      <path
         d="m 38.554768,65.936227 c 2.82108,1.41054 3.52635,3.996531 2.82108,5.877251 -0.70527,1.88072 -1.64563,3.996531 -1.64563,3.996531 0,0 4.231621,-0.940361 6.112341,-1.175451 1.880721,-0.23509 3.526351,10e-7 3.526351,10e-7 l -0.47018,1.88072 c 0,0 -7.287792,2.3509 -9.403602,1.88072 -2.11581,-0.47018 -3.761441,-3.29126 -3.526351,-4.466711 0.23509,-1.17545 1.17545,-1.17545 1.645631,-3.05617 0.47018,-1.880721 0.70527,-4.466711 0.94036,-4.936891 z"
         inkscape:connector-curvature="0"
         id="path1348"
         style="fill:#000000;fill-opacity:1;fill-rule:evenodd;stroke:#000000;stroke-width:1px;stroke-linecap:butt;stroke-linejoin:miter;stroke-opacity:1" />
      <path
         d="m 51.484721,73.694199 c 3.99653,-0.23509 7.052701,1.17545 7.522881,3.52635 0.425067,2.125334 -1.64563,3.996532 -2.821081,3.291261 -1.17545,-0.70527 -4.7018,-6.347431 -4.7018,-6.817611 z"
         inkscape:connector-curvature="0"
         id="path1350"
         style="fill:#000000;fill-opacity:1;fill-rule:evenodd;stroke:#000000;stroke-width:1px;stroke-linecap:butt;stroke-linejoin:miter;stroke-opacity:1" />
      <g
         transform="matrix(0.916991,0,0,0.987734,2.787559,-1.164154)"
         id="g2830">
        <path
           d="m 52.921957,35.413866 c -1.559351,0.437724 -1.113821,5.25269 -0.891057,8.973346 0.222764,3.720656 -0.891058,9.629932 0.668293,9.41107 1.55935,-0.218863 2.227643,-4.814966 2.227643,-7.879036 0,-3.064068 -1.782114,-10.067656 -2.004879,-10.50538 z"
           inkscape:connector-curvature="0"
           id="path2078"
           style="fill:#000000;fill-opacity:1;fill-rule:evenodd;stroke:#000000;stroke-width:0.93923414px;stroke-linecap:butt;stroke-linejoin:miter;stroke-opacity:1" />
        <path
           d="m 44.90244,38.242468 c 2.56142,1.256615 4.678052,0.673192 6.905696,0.01661 2.227643,-0.656587 7.573988,-2.845208 6.68293,-3.720656 -0.891057,-0.875449 -5.082098,0.572065 -6.864212,1.228651 -1.782116,0.656586 -6.641449,1.46561 -6.724414,2.475399 z"
           inkscape:connector-curvature="0"
           id="path2080"
           style="fill:#000000;fill-opacity:1;fill-rule:evenodd;stroke:#000000;stroke-width:0.93923414px;stroke-linecap:butt;stroke-linejoin:miter;stroke-opacity:1" />
        <path
           d="m 43.788618,45.26266 c 3.118701,0.218862 7.796753,-1.532034 10.024397,-2.18862 2.227643,-0.656587 5.812997,-0.694881 5.812997,-2.883503 0,-2.18862 -5.548751,0.105465 -7.999158,1.199775 -2.450409,1.094311 -7.838236,3.653486 -7.838236,3.872348 z"
           inkscape:connector-curvature="0"
           id="path2082"
           style="fill:#000000;fill-opacity:1;fill-rule:evenodd;stroke:#000000;stroke-width:0.93923414px;stroke-linecap:butt;stroke-linejoin:miter;stroke-opacity:1" />
        <path
           d="m 44.679676,50.077626 c 2.673172,0.437724 3.382948,0.690543 8.283764,-1.279215 4.900816,-1.969759 7.175314,-2.222579 6.729784,-3.316889 -0.445528,-1.09431 0.134428,-1.532034 -4.543623,0.218862 -4.678052,1.750897 -10.469925,4.15838 -10.469925,4.377242 z"
           inkscape:connector-curvature="0"
           id="path2084"
           style="fill:#000000;fill-opacity:1;fill-rule:evenodd;stroke:#000000;stroke-width:0.93923414px;stroke-linecap:butt;stroke-linejoin:miter;stroke-opacity:1" />
        <path
           d="m 43.565854,56.862351 c 3.118701,1.750896 6.460166,0.218862 8.68781,-0.437724 2.227644,-0.656587 7.851483,-2.806913 7.183189,-4.338948 -0.668292,-1.532034 -4.287252,-0.694881 -7.405953,0.618292 -3.118701,1.313173 -7.796753,3.720656 -8.465046,4.15838 z"
           inkscape:connector-curvature="0"
           id="path2086"
           style="fill:#000000;fill-opacity:1;fill-rule:evenodd;stroke:#000000;stroke-width:0.93923414px;stroke-linecap:butt;stroke-linejoin:miter;stroke-opacity:1" />
        <path
           d="m 38.877022,37.283243 c 6.414113,-2.946336 8.611053,-4.445158 10.393169,-7.071503 1.782114,-2.626345 4.542824,-4.427805 4.542824,-4.427805 0,0 1.098469,0.589416 2.657821,2.340312 1.55935,1.750897 1.683798,3.047464 3.243149,2.60974 1.55935,-0.437724 2.170809,-2.626345 1.056988,-3.720656 -1.113822,-1.09431 -7.180723,-2.542569 -7.180723,-2.542569 0,0 3.522748,0.807532 1.740633,-0.943364 -1.782115,-1.750897 -3.633218,-1.324366 -4.455288,-0.437724 -1.170655,1.262608 -3.968276,3.569709 -6.195919,6.414916 -2.227644,2.845207 -6.667579,6.65113 -5.802654,7.778653 z"
           inkscape:connector-curvature="0"
           id="path2088"
           style="fill:#000000;fill-opacity:1;fill-rule:evenodd;stroke:#000000;stroke-width:0.93923414px;stroke-linecap:butt;stroke-linejoin:miter;stroke-opacity:1" />
        <path
           d="m 64.179583,23.608341 c 1.880721,2.58599 0.94036,13.17672 0.47018,16.467981 -0.47018,3.291261 -2.093072,12.956757 0.02274,14.602388 2.11581,1.64563 8.525382,-3.115054 9.431791,-6.312718 -4.69493,3.102129 -6.014072,3.898701 -6.61071,2.786367 -0.477153,-0.889574 0.447441,-7.549686 0.682531,-11.076037 0.23509,-3.526351 2.628552,-14.35509 1.218012,-15.29545 -1.41054,-0.94036 -5.214543,-1.642711 -5.214543,-1.172531 z"
           inkscape:connector-curvature="0"
           id="path2090"
           style="fill:#000000;fill-opacity:1;fill-rule:evenodd;stroke:#000000;stroke-width:1px;stroke-linecap:butt;stroke-linejoin:miter;stroke-opacity:1" />
        <path
           d="m 66.287819,40.228832 c 9.801632,-2.845207 13.121974,-2.741229 13.790267,-4.492126 0.668294,-1.750897 -2.20652,-2.511461 -2.20652,-2.511461 l -11.583747,7.003587 z"
           inkscape:connector-curvature="0"
           id="path2092"
           style="fill:#000000;fill-opacity:1;fill-rule:evenodd;stroke:#000000;stroke-width:0.93923414px;stroke-linecap:butt;stroke-linejoin:miter;stroke-opacity:1" />
        <path
           d="m 78.985388,24.689625 c -2.004879,0.656586 -2.227644,3.064068 -2.227644,4.814965 0,1.750897 -1.424923,5.909276 0.357192,6.347 1.782115,0.437725 4.098096,-3.501793 4.32086,-5.471552 0.222764,-1.969759 -1.782115,-5.690413 -2.450408,-5.690413 z"
           inkscape:connector-curvature="0"
           id="path2094"
           style="fill:#000000;fill-opacity:1;fill-rule:evenodd;stroke:#000000;stroke-width:0.93923414px;stroke-linecap:butt;stroke-linejoin:miter;stroke-opacity:1" />
        <path
           d="m 67.84717,26.440521 c 2.450408,-1.532034 5.346344,-3.720656 8.465046,-2.845208 3.118701,0.875449 3.786994,1.532036 2.227643,2.407484 -1.55935,0.875448 -4.455287,1.09431 -6.460166,1.532034 -2.004879,0.437724 -4.678052,-0.875448 -4.232523,-1.09431 z"
           inkscape:connector-curvature="0"
           id="path2096"
           style="fill:#000000;fill-opacity:1;fill-rule:evenodd;stroke:#000000;stroke-width:0.93923414px;stroke-linecap:butt;stroke-linejoin:miter;stroke-opacity:1" />
        <path
           d="m 67.178877,33.006383 c 0.445528,-1.750896 2.807599,-1.693454 5.035243,-2.350041 2.227644,-0.656586 2.76151,-1.808339 4.32086,-1.151752 1.55935,0.656586 -1.080215,1.893169 -3.085095,2.549755 -2.004879,0.656586 -5.82548,1.389762 -6.271008,0.952038 z"
           inkscape:connector-curvature="0"
           id="path2098"
           style="fill:#000000;fill-opacity:1;fill-rule:evenodd;stroke:#000000;stroke-width:0.93923414px;stroke-linecap:butt;stroke-linejoin:miter;stroke-opacity:1" />
        <path
           d="m 67.401641,38.477936 c 8.465046,5.033828 10.558262,5.709561 13.454199,7.898181 2.895937,2.188622 7.485651,7.422165 5.480772,7.859889 -2.004879,0.437724 -7.351224,-4.814966 -10.247161,-7.003588 -2.895937,-2.18862 -8.910574,-8.973344 -8.68781,-8.754482 z"
           inkscape:connector-curvature="0"
           id="path2100"
           style="fill:#000000;fill-opacity:1;fill-rule:evenodd;stroke:#000000;stroke-width:0.93923414px;stroke-linecap:butt;stroke-linejoin:miter;stroke-opacity:1" />
        <path
           d="m 78.436305,42.961944 c 0.73901,-0.985438 4.507949,-7.14555 6.290064,-6.707826 1.782115,0.437724 2.542783,0.641219 1.428961,1.954391 -1.113822,1.313173 -6.053683,4.627212 -7.719025,4.753435 z"
           inkscape:connector-curvature="0"
           id="path2102"
           style="fill:#000000;fill-opacity:1;fill-rule:evenodd;stroke:#000000;stroke-width:0.93923414px;stroke-linecap:butt;stroke-linejoin:miter;stroke-opacity:1" />
      </g>
    </g>
  </g>
</svg>
