<?xml version="1.0" encoding="UTF-8" standalone="no"?>
<!-- Created with Inkscape (http://www.inkscape.org/) -->

<svg
   xmlns:dc="http://purl.org/dc/elements/1.1/"
   xmlns:cc="http://creativecommons.org/ns#"
   xmlns:rdf="http://www.w3.org/1999/02/22-rdf-syntax-ns#"
   xmlns:svg="http://www.w3.org/2000/svg"
   xmlns="http://www.w3.org/2000/svg"
   xmlns:sodipodi="http://sodipodi.sourceforge.net/DTD/sodipodi-0.dtd"
   xmlns:inkscape="http://www.inkscape.org/namespaces/inkscape"
   id="svg3703"
   version="1.1"
   inkscape:version="0.48.4 r9943 custom"
   width="512"
   height="512"
   sodipodi:docname="BlackAdvisor.svg">
  <metadata
     id="metadata3709">
    <rdf:RDF>
      <cc:Work
         rdf:about="">
        <dc:format>image/svg+xml</dc:format>
        <dc:type
           rdf:resource="http://purl.org/dc/dcmitype/StillImage" />
        <dc:title />
      </cc:Work>
    </rdf:RDF>
  </metadata>
  <defs
     id="defs3707" />
  <sodipodi:namedview
     pagecolor="#ffffff"
     bordercolor="#666666"
     borderopacity="1"
     objecttolerance="10"
     gridtolerance="10"
     guidetolerance="10"
     inkscape:pageopacity="0"
     inkscape:pageshadow="2"
     inkscape:window-width="680"
     inkscape:window-height="480"
     id="namedview3705"
     showgrid="false"
     inkscape:zoom="0.65186406"
     inkscape:cx="463.71899"
     inkscape:cy="309.37607"
     inkscape:window-x="549"
     inkscape:window-y="22"
     inkscape:window-maximized="0"
     inkscape:current-layer="g3713" />
  <g
     id="g3713">
    <g
       id="g3039">
      <path
         inkscape:connector-curvature="0"
         id="path3717"
         d="m 193.50633,412.36873 c -32.44652,-11.80084 -59.38801,-21.85041 -59.86998,-22.33238 -0.48196,-0.48196 -13.65317,-75.94981 -29.26934,-167.70632 L 75.973971,55.5 76.236986,38.5 76.5,21.5 254.89422,21.247246 c 138.63089,-0.196416 178.71993,0.01756 179.85548,0.95999 1.21853,1.011283 1.37731,4.209548 0.95582,19.252754 -0.49094,17.521974 -1.25178,22.773539 -26.49522,182.87975 -14.29438,90.66185 -26.37689,165.22208 -26.85004,165.6894 -1.53317,1.51428 -124.74436,43.97369 -127.343,43.88326 -1.38449,-0.0482 -29.06441,-9.74283 -61.51093,-21.54367 z"
         style="fill:#d3bc5f" />
      <g
         transform="matrix(-1.0066378,0,0,-1.0066378,-16.987894,373.40945)"
         id="g3160">
        <path
           style="fill:#000000"
           d="m -339.41172,315.90187 c -12.72632,-18.37834 -26.46012,-34.36031 -27.86471,-32.42603 -20.73893,28.55959 -20.99978,28.79014 -26.42987,23.36004 -4.74391,-4.7439 -4.50305,-6.63696 2.23078,-17.53249 4.1519,-6.71793 9.78583,-14.07086 12.51984,-16.3399 4.28052,-3.55253 4.27782,-5.78442 -0.0194,-16.06913 -9.91282,-23.72472 8.44361,-41.29802 21.81758,-20.88676 l 5.89412,8.99555 13.54918,-13.2304 c 19.87872,-19.41106 18.27613,-33.81736 -5.39718,-48.51722 -7.88804,-4.89805 -9.06296,-6.98528 -5.28058,-9.38084 15.28323,-9.67963 38.30844,2.55303 38.30844,20.35225 l 0,9.45961 9.68108,-9.02946 c 19.07853,-17.79441 34.39988,-21.47566 44.21989,-10.62467 5.27508,5.8289 5.20158,7.1365 -0.97168,17.28762 -6.28705,10.33822 -19.47861,18.07142 -23.6726,13.87743 -1.04293,-1.04293 1.45271,-6.15374 5.54588,-11.35735 7.38027,-9.38249 9.87797,-19.22021 4.80183,-18.91299 -1.45216,0.0879 -10.68569,7.61273 -20.51896,16.72186 l -17.87866,16.56205 -4.22038,50.80134 c -5.25908,63.3043 -9.59634,71.03275 -26.31464,46.88949 z m 12.95239,-35.2039 c 1.23433,-13.06945 2.18359,-29.30725 2.10946,-36.084 l -0.13476,-12.32137 -17.44215,19.15251 c -9.5932,10.53385 -17.44216,20.1498 -17.44216,21.36877 0,3.46903 24.86695,31.64672 27.92837,31.64672 1.50536,0 3.74691,-10.69318 4.98124,-23.76263 z m -33.5428,-31.975 c 0.67447,-4.58471 -1.15347,-8.53596 -4.55232,-9.84023 -7.89627,-3.03007 -10.13523,0.31472 -7.42881,11.09796 2.68927,10.7149 10.33793,9.91197 11.98113,-1.25773 z m 149.57976,70.25664 c -2.26812,-3.63185 -9.7224,-7.65365 -16.56508,-8.93732 -20.29089,-3.8066 -18.57708,-9.10208 2.94578,-9.10208 l 19.56991,0 0,-20.91457 c 0,-11.50301 -1.69665,-21.96318 -3.77033,-23.24478 -4.57147,-2.82533 -31.18803,0.87049 -38.33437,5.32286 -4.43237,2.7615 -4.31112,4.11932 0.88009,9.85555 8.22079,9.08387 7.55427,17.27248 -1.90017,23.34487 -8.18482,5.25693 -41.36459,11.56772 -41.36459,7.86754 0,-1.1486 6.40053,-5.35367 14.22341,-9.34463 12.28584,-6.26777 20.98049,-17.82711 20.98049,-27.89314 0,-1.57545 -7.19085,-1.33078 -15.97967,0.54369 -12.96208,2.76453 -17.63679,2.32233 -24.75491,-2.34162 -12.23715,-8.01808 -7.52984,-12.68911 10.32181,-10.24226 12.89003,1.76677 67.4652,-6.43443 71.82402,-10.79324 0.77214,-0.77213 -0.31293,-4.61178 -2.41125,-8.53254 -2.45957,-4.59573 -2.58676,-7.88779 -0.35797,-9.26528 5.09745,-3.1504 17.68422,4.61759 17.68422,10.91391 0,4.12991 2.38214,4.91323 9.91207,3.25939 7.14672,-1.56971 12.55787,-0.0958 19.39569,5.28277 12.59331,9.90588 8.65112,15.27722 -9.12613,12.43451 l -14.138,-2.26076 2.24309,22.12379 c 3.79596,37.4397 -8.70115,62.06222 -21.27811,41.92334 z m -55.93294,-81.81771 c 6.80547,-5.35318 9.17012,-10.06293 8.39564,-16.72185 -1.49286,-12.83553 8.26781,-12.24312 12.84771,0.77976 3.04173,8.64911 2.38597,10.97936 -4.70571,16.72186 -4.53197,3.66976 -12.23853,6.6723 -17.12568,6.6723 l -8.88573,0 z m 42.03794,-21.40499 c 13.76106,-11.50952 11.63033,-21.80548 -4.82595,-23.31969 -17.91121,-1.64809 -20.65293,-6.77307 -5.17663,-9.67644 19.63225,-3.68304 31.37845,1.55768 32.65931,14.57137 1.22622,12.45856 -6.44532,20.92543 -22.17327,24.47205 l -10.56117,2.38154 z m -45.8499,-72.29118 c -4.21108,-10.07853 -4.8012,-17.66261 -2.53377,-32.56361 1.62572,-10.68382 2.94394,-29.933811 2.92939,-42.777761 -0.0197,-17.5192 1.09765,-22.92127 4.47359,-21.6258 2.47503,0.94976 4.50005,3.06069 4.50005,4.69095 0,1.63026 5.49374,0.66869 12.2083,-2.13684 6.71456,-2.80552 17.01171,-5.10095 22.88254,-5.10095 7.47512,0 10.67424,-1.70241 10.67424,-5.68031 0,-4.76047 -2.63818,-5.28468 -16.29184,-3.23719 -8.96051,1.34371 -18.2613,3.19887 -20.66842,4.12257 -2.40713,0.9237 -7.23272,-1.17666 -10.72353,-4.66747 -6.91193,-6.91194 -6.49449,-7.08003 34.56133,-13.917 15.43084,-2.56968 27.20402,5.31308 27.20402,18.21451 0,16.61548 -17.29799,45.36661 -23.53947,39.12513 -1.23583,-1.23583 -0.40546,-6.28865 1.84527,-11.22847 6.36339,-13.9661 5.23203,-16.76415 -5.58882,-13.82213 -5.32459,1.44767 -14.03756,2.38633 -19.36215,2.08591 -7.66643,-0.43255 -9.68108,0.99501 -9.68108,6.85992 0,6.72583 1.33207,7.18108 14.50174,4.95608 11.40408,-1.92671 14.16554,-1.42882 12.92786,2.33086 -0.89523,2.71939 -7.73333,5.23918 -15.85842,5.8437 -12.80753,0.95291 -14.50828,2.18143 -16.44825,11.88132 -5.58521,27.926021 -1.10261,57.665711 6.77147,44.925181 1.27046,-2.05565 6.51253,-5.3456 11.64904,-7.31101 l 9.3391,-3.57347 -9.68107,-8.36189 c -11.50766,-9.93957 -12.60565,-14.032901 -2.28217,-8.50794 6.25203,3.34598 9.11688,2.41112 18.48206,-6.031131 6.09572,-5.49499 13.12591,-12.36201 15.62263,-15.26003 4.02801,-4.67544 4.91999,-4.67608 7.91646,-0.006 5.9378,9.2548 2.0189,15.11011 -13.59542,20.313201 l -15.22103,5.07203 16.98123,11.08479 c 13.7375,8.96739 17.19194,13.26582 18.08436,22.50271 1.5279,15.81429 -5.33838,14.78819 -20.72451,-3.09709 -12.53509,-14.57113 -12.61409,-14.60209 -21.83926,-8.55752 -5.09227,3.33658 -11.303,10.68495 -13.80161,16.32972 -5.98402,13.51883 -9.10238,12.94824 -15.71386,-2.87527 z m -85.22166,4.89131 c -3.15191,-3.79781 -0.12319,-5.57711 15.4107,-9.05344 16.93544,-3.78999 19.33358,-5.38703 19.33358,-12.87518 0,-7.62633 -1.51906,-8.5485 -14.08156,-8.5485 -16.97512,0 -18.65434,-6.56226 -4.40049,-17.1968 9.18641,-6.853821 9.28697,-7.228581 1.96796,-7.334411 -13.70512,-0.19816 -11.94376,-6.20531 2.49652,-8.5144 14.25283,-2.27912 20.53179,-12.71947 7.64964,-12.71947 -3.50236,0 -9.44302,-2.32588 -13.20146,-5.16862 -6.45948,-4.88571 -6.20108,-5.17476 4.7208,-5.28059 6.35489,-0.0616 17.36037,-2.53787 24.45663,-5.50288 7.09625,-2.965 14.96625,-4.5989 17.48888,-3.63087 7.20537,2.76496 5.38878,12.54218 -2.33032,12.54218 -3.80431,0 -8.62041,3.183 -10.70246,7.07334 -3.406,6.36417 -2.80075,6.98184 6.03682,6.16069 12.80685,-1.18997 16.333,5.78405 3.66168,7.24205 -7.68362,0.88409 -9.68107,2.9305 -9.68107,9.9183 0,6.880691 1.3864,8.364351 6.34535,6.790441 7.53169,-2.390471 20.34318,5.94241 17.12987,11.14165 -3.70074,5.98793 -16.22326,8.02529 -14.0189,2.28081 1.30278,-3.39497 0.12885,-4.24671 -3.78378,-2.74529 -3.1199,1.19722 -5.67254,5.86991 -5.67254,10.38376 0,6.76683 1.69883,8.09069 9.68107,7.54424 14.78519,-1.01219 12.52221,9.26812 -2.64029,11.99439 -6.77676,1.21848 -16.78098,4.01766 -22.23162,6.2204 -13.33715,5.38987 -28.83886,5.05721 -33.63501,-0.7218 z m 34.74428,-48.653821 c 0,-6.58587 -0.26712,-6.60031 -8.69035,-0.4697 -11.14695,8.113001 -11.18343,11.063551 -0.11061,8.946841 5.76671,-1.10237 8.80098,-4.025 8.80098,-8.477141 z m -23.7467,-56.54862 c 17.47254,-16.8808 23.7467,-25.3871 23.7467,-32.19502 0,-5.6719404 1.9462,-9.2525404 5.02913,-9.2525404 6.42999,0 16.09322,9.5888504 16.09322,15.9693504 0,2.6979 3.56439,6.78234 7.92088,9.07653 8.04494,4.2366 13.04996,9.77875 13.14755,14.55851 0.11027,5.40086 -14.27081,2.39713 -21.06843,-4.40049 -8.49989,-8.49988 -11.78502,-8.76918 -17.84852,-1.46311 -6.67229,8.03962 -31.70725,24.67421 -41.98219,27.89526 -6.39054,2.00334 -2.3125,-3.49936 14.96166,-20.18849 z"
           id="path3158"
           inkscape:connector-curvature="0"
           sodipodi:nodetypes="csssssscsssscssssssscsccsscssssssssssscsssssssssssssssssscssssssscsssssscscssssssssssssssssssssssscsssscscsssssccsssssssssssssssssssssssssscssccssssssssss" />
      </g>
      <path
         sodipodi:nodetypes="sssssssssscssssssscs"
         inkscape:connector-curvature="0"
         id="path3715"
         d="M 195.5266,411.42227 C 163.09124,399.63 135.99659,389.42338 135.31627,388.74089 134.61967,388.04207 121.61209,314.25244 105.53966,219.82368 77.582135,55.567528 77,51.864378 77,38.273683 77,28.816374 77.381993,24.018007 78.2,23.2 79.124228,22.275772 119.78183,22 255.11821,22 c 96.64502,0 176.43002,0.273145 177.3,0.606989 1.35077,0.51834 1.58179,2.933231 1.58179,16.535044 0,15.908587 -0.0318,16.131226 -26.04561,182.143007 -14.70096,93.81689 -26.57021,166.74008 -27.25,167.42056 -1.06444,1.06551 -124.14998,44.39873 -125.62081,44.22578 -0.32097,-0.0377 -27.12161,-9.71684 -59.55698,-21.50911 z m 119.241,-18.51985 c 31.75282,-10.50367 58.25254,-19.61617 58.88827,-20.25 1.3227,-1.31875 49.76793,-337.105625 48.94492,-339.250349 C 422.14223,32.207079 397.47562,32 255.5904,32 164.0306,32 88.910159,32.3375 88.656089,32.75 88.0365,33.755946 140.73079,370.10719 141.79311,371.92722 c 0.82139,1.40725 110.04275,39.93199 113.47449,40.02492 0.97218,0.0263 27.74718,-8.54605 59.5,-19.04972 z"
         style="fill:#151311" />
    </g>
  </g>
</svg>
