<?xml version="1.0" encoding="UTF-8" standalone="no"?>
<!-- Created with Inkscape (http://www.inkscape.org/) -->

<svg
   xmlns:dc="http://purl.org/dc/elements/1.1/"
   xmlns:cc="http://creativecommons.org/ns#"
   xmlns:rdf="http://www.w3.org/1999/02/22-rdf-syntax-ns#"
   xmlns:svg="http://www.w3.org/2000/svg"
   xmlns="http://www.w3.org/2000/svg"
   xmlns:sodipodi="http://sodipodi.sourceforge.net/DTD/sodipodi-0.dtd"
   xmlns:inkscape="http://www.inkscape.org/namespaces/inkscape"
   version="1.1"
   width="128"
   height="128"
   id="svg2"
   inkscape:version="0.48.3.1 r9886"
   sodipodi:docname="BlackKnight.svg">
  <sodipodi:namedview
     pagecolor="#ffffff"
     bordercolor="#666666"
     borderopacity="1"
     objecttolerance="10"
     gridtolerance="10"
     guidetolerance="10"
     inkscape:pageopacity="0"
     inkscape:pageshadow="2"
     inkscape:window-width="640"
     inkscape:window-height="480"
     id="namedview3211"
     showgrid="false"
     inkscape:zoom="1.8653564"
     inkscape:cx="64"
     inkscape:cy="64"
     inkscape:window-x="0"
     inkscape:window-y="27"
     inkscape:window-maximized="0"
     inkscape:current-layer="svg2" />
  <defs
     id="defs4" />
  <metadata
     id="metadata7">
    <rdf:RDF>
      <cc:Work
         rdf:about="">
        <dc:format>image/svg+xml</dc:format>
        <dc:type
           rdf:resource="http://purl.org/dc/dcmitype/StillImage" />
      </cc:Work>
    </rdf:RDF>
  </metadata>
  <g
     id="layer1"
     transform="matrix(-1,0,0,-1,126.50341,125.35865)">
    <path
       d="m 9.8046247,116.56489 c 0,0 107.1261753,1.21404 106.8937853,0.40468 C 116.46604,116.16021 95.087283,18.227835 95.087283,18.227835 L 60.927745,8.1108558 26.768205,17.823157 9.8046247,116.56489 z"
       inkscape:connector-curvature="0"
       id="path2800"
       style="fill:#c3aa55;fill-opacity:1;fill-rule:evenodd;stroke:none" />
    <g
       transform="matrix(1.066578,0,0,1,-4.261859,0)"
       id="g24112">
      <path
         d="m 45.840118,68.249959 c 5.36441,0.705856 4.172319,2.11757 11.026844,0.470571 6.854524,-1.647 14.174695,-0.705857 15.068763,-2.588142 0.894069,-1.882285 -0.162208,-1.616432 -3.188237,-1.686747 -3.421057,-0.07949 -5.125698,0.0763 -10.179679,0.705857 -4.422101,0.550847 -11.833623,2.863175 -12.727691,3.098461 z"
         inkscape:connector-curvature="0"
         id="path13858"
         style="fill:#000000;fill-opacity:1;fill-rule:evenodd;stroke:#000000;stroke-width:0.79647696px;stroke-linecap:butt;stroke-linejoin:miter;stroke-opacity:1" />
      <path
         d="m 47.875325,90.181818 c 13.817985,-3.34573 20.28052,-4.737663 26.264935,-5.07013 5.984416,-0.332468 10.638961,-1.32987 11.636364,0 0.997403,1.32987 0.664935,6.316883 -1.994805,9.974026 -2.659741,3.657143 -4.654546,7.646756 -7.979221,7.979226 -3.324675,0.33247 -7.979221,-0.66494 -7.979221,-0.66494 0,0 4.322078,5.65195 6.316883,5.98442 1.994805,0.33247 5.984416,-2.65974 8.644156,-5.98442 2.65974,-3.324676 8.976624,-10.971429 8.976624,-13.298702 0,-2.327273 -2.768103,-6.276548 -5.427843,-6.941483 -2.659741,-0.664935 -8.976624,0.664935 -13.298702,0.664935 -3.790713,1e-6 -10.971428,1.662337 -17.953247,3.324675 -5.785629,1.37753 -8.61891,1.871354 -8.61891,1.871354 0,0 -0.332467,1.57922 1.412987,2.161039 z"
         inkscape:connector-curvature="0"
         id="path11674"
         style="fill:#000000;fill-opacity:1;fill-rule:evenodd;stroke:#000000;stroke-width:1px;stroke-linecap:butt;stroke-linejoin:miter;stroke-opacity:1" />
      <path
         d="m 43.885714,64.166233 c 0.498701,1.496103 1.496103,5.984415 1.163636,9.974026 -0.332468,3.98961 -1.994805,10.971428 -0.332468,12.966234 1.662338,1.994805 1.998106,3.058371 2.659741,2.992207 1.662338,-0.166234 0.997402,-3.324675 0.997402,-9.974026 0,-6.64935 2.65974,-9.974026 1.32987,-12.301298 -1.32987,-2.327273 -5.818181,-3.657143 -5.818181,-3.657143 z"
         inkscape:connector-curvature="0"
         id="path12402"
         style="fill:#000000;fill-opacity:1;fill-rule:evenodd;stroke:#000000;stroke-width:1px;stroke-linecap:butt;stroke-linejoin:miter;stroke-opacity:1" />
      <path
         d="m 54.833506,67.324675 c 2.741698,3.657143 1.361092,4.301434 1.645019,9.641558 0.28283,5.319481 0.464067,9.641559 3.290041,9.309091 2.009341,-0.19778 2.193359,-2.65974 2.193359,-7.979221 0,-5.31948 0.980084,-7.314285 -1.213275,-8.976623 -2.193361,-1.662338 -5.915144,-1.662338 -5.915144,-1.994805 z"
         inkscape:connector-curvature="0"
         id="path13130"
         style="fill:#000000;fill-opacity:1;fill-rule:evenodd;stroke:#000000;stroke-width:1.28425217px;stroke-linecap:butt;stroke-linejoin:miter;stroke-opacity:1" />
      <path
         d="m 46.664652,75.539136 c 1.565417,1.06549 5.44186,0.494654 11.022629,-0.336968 6.911696,-1.029951 13.594292,-0.715208 14.381576,-2.346159 0.787285,-1.630949 1.752898,-1.432763 -1.245225,-1.628431 -2.998121,-0.195669 -6.453886,-0.252411 -11.858988,0.732416 -4.243031,0.773094 -11.421422,3.323489 -12.299992,3.579142 z"
         inkscape:connector-curvature="0"
         id="path14586"
         style="fill:#000000;fill-opacity:1;fill-rule:evenodd;stroke:#000000;stroke-width:0.72842008px;stroke-linecap:butt;stroke-linejoin:miter;stroke-opacity:1" />
      <path
         d="m 46.879242,81.334322 c 3.162527,1.82721 3.72761,1.366598 11.083225,0.03593 6.42771,-1.16281 13.566773,-0.693432 14.383482,-2.283655 0.8167,-1.590221 0.820262,-1.196549 -1.953163,-1.53846 -2.773424,-0.341913 -8.289633,0.659577 -12.295406,1.352116 -4.365817,0.754786 -10.388962,2.221709 -11.218138,2.434074 z"
         inkscape:connector-curvature="0"
         id="path14588"
         style="fill:#000000;fill-opacity:1;fill-rule:evenodd;stroke:#000000;stroke-width:0.70237607px;stroke-linecap:butt;stroke-linejoin:miter;stroke-opacity:1" />
      <path
         d="m 36.405196,95.584415 c -0.332468,4.155845 -0.166234,5.485715 1.496104,7.480525 2.26252,2.71503 3.324675,2.65974 4.654545,1.66234 1.32987,-0.99741 2.65974,-1.99481 0,-5.319488 -2.65974,-3.324676 -5.153246,-3.490909 -6.150649,-3.823377 z"
         inkscape:connector-curvature="0"
         id="path14590"
         style="fill:#000000;fill-opacity:1;fill-rule:evenodd;stroke:#000000;stroke-width:1px;stroke-linecap:butt;stroke-linejoin:miter;stroke-opacity:1" />
      <path
         d="m 48.706494,94.420779 c -0.997403,1.412987 -1.662338,2.244155 -0.997403,4.987013 0.700599,2.889968 1.662338,4.654548 3.657143,4.322078 1.994805,-0.33246 2.65974,-3.65714 1.32987,-5.651948 -1.32987,-1.994806 -2.992208,-3.657143 -3.98961,-3.657143 z"
         inkscape:connector-curvature="0"
         id="path15318"
         style="fill:#000000;fill-opacity:1;fill-rule:evenodd;stroke:#000000;stroke-width:1px;stroke-linecap:butt;stroke-linejoin:miter;stroke-opacity:1" />
      <path
         d="m 58.297628,91.894334 c -1.35655,1.280552 -0.08979,5.341002 1.545872,6.427308 1.635659,1.086306 5.125638,0.268374 4.702517,-1.17683 -0.715599,-2.444189 -3.000161,-5.446346 -6.248389,-5.250478 z"
         inkscape:connector-curvature="0"
         id="path16046"
         style="fill:#000000;fill-opacity:1;fill-rule:evenodd;stroke:#000000;stroke-width:1.15739727px;stroke-linecap:butt;stroke-linejoin:miter;stroke-opacity:1" />
      <path
         d="m 66.885538,91.24625 c 2.306614,3.28901 1.618898,2.695039 2.786281,4.044852 0.755339,0.873377 1.832122,2.213544 2.843675,0.736295 1.195411,-1.745751 0.276086,-3.222158 -0.412252,-3.558917 -2.241604,-1.096671 -5.248278,-1.385628 -5.217704,-1.22223 z"
         inkscape:connector-curvature="0"
         id="path16776"
         style="fill:#000000;fill-opacity:1;fill-rule:evenodd;stroke:#000000;stroke-width:1px;stroke-linecap:butt;stroke-linejoin:miter;stroke-opacity:1" />
    </g>
    <g
       transform="matrix(0.929875,0,0,1.064024,5.43612,-0.969076)"
       id="g24061">
      <path
         d="m 57.683117,51.532467 c 0.332468,1.662338 7.48052,0.831169 12.8,0.166234 5.319481,-0.664935 11.137663,-1.496104 13.464936,-0.498702 2.327272,0.997403 2.327272,2.327273 3.823376,1.828572 1.496104,-0.498701 2.327273,-1.496104 1.994805,-3.324675 -0.332467,-1.828572 -1.994805,-3.823377 -3.823376,-3.49091 -1.828572,0.332468 -8.145455,1.662338 -14.628572,2.825974 -6.483117,1.163637 -11.137662,0.997403 -12.301299,1.329871 -1.163636,0.332467 -1.163636,0.997402 -1.32987,1.163636 z"
         inkscape:connector-curvature="0"
         id="path17504"
         style="fill:#000000;fill-opacity:1;fill-rule:evenodd;stroke:#000000;stroke-width:1px;stroke-linecap:butt;stroke-linejoin:miter;stroke-opacity:1" />
      <path
         d="m 65.828572,19.283116 c 0.498701,0.997403 2.493506,0.498701 3.158442,1.662338 0.664935,1.163636 0,7.148052 0,10.805195 0,3.657143 -2.327273,18.451948 0.332467,18.285714 2.65974,-0.166234 2.161039,-5.651948 2.493507,-11.636364 0.332467,-5.984415 -0.166234,-14.628571 0.831168,-15.625974 0.997403,-0.997402 2.825974,-2.161039 1.662338,-3.158441 -1.163636,-0.997403 -1.994805,-1.828572 -4.155844,-1.828572 -2.161039,0 -3.989611,1.163637 -4.322078,1.496104 z"
         inkscape:connector-curvature="0"
         id="path18232"
         style="fill:#000000;fill-opacity:1;fill-rule:evenodd;stroke:#000000;stroke-width:1px;stroke-linecap:butt;stroke-linejoin:miter;stroke-opacity:1" />
      <path
         d="m 59.012988,45.215583 c 0,-1.32987 3.158441,-1.828571 7.979221,-2.493506 4.820779,-0.664935 9.475324,-3.158442 10.472727,-2.327273 0.997403,0.831169 1.496104,1.994805 0.498701,2.65974 -0.997402,0.664935 -5.984416,1.329871 -9.641559,1.828572 -3.657142,0.498702 -8.976623,0.831169 -9.30909,0.332467 z"
         inkscape:connector-curvature="0"
         id="path18960"
         style="fill:#000000;fill-opacity:1;fill-rule:evenodd;stroke:#000000;stroke-width:1px;stroke-linecap:butt;stroke-linejoin:miter;stroke-opacity:1" />
      <path
         d="m 58.960377,37.718009 c 0.130463,0.881748 5.20599,1.324175 10.263238,0.132417 5.057248,-1.191757 10.709467,-1.059339 11.304437,-1.986261 0.594971,-0.926923 -0.59497,-2.251096 -2.231139,-2.383514 -1.636168,-0.132418 -5.800961,1.191757 -9.519525,1.986261 -3.718565,0.794505 -9.370783,0.926922 -9.817011,2.251097 z"
         inkscape:connector-curvature="0"
         id="path19688"
         style="fill:#000000;fill-opacity:1;fill-rule:evenodd;stroke:#000000;stroke-width:0.8442499px;stroke-linecap:butt;stroke-linejoin:miter;stroke-opacity:1" />
      <path
         d="m 59.844156,30.375452 c 0.299239,1.432033 3.98961,1.250025 9.475325,0.277783 5.485714,-0.972241 9.309091,-0.833349 8.810389,-2.50005 -0.498701,-1.6667 0.831169,-2.500049 -5.31948,-1.111133 -6.15065,1.388917 -12.864641,2.160707 -12.966234,3.3334 z"
         inkscape:connector-curvature="0"
         id="path20416"
         style="fill:#000000;fill-opacity:1;fill-rule:evenodd;stroke:#000000;stroke-width:0.91406792px;stroke-linecap:butt;stroke-linejoin:miter;stroke-opacity:1" />
    </g>
    <g
       transform="translate(-1.443955,-3.98961)"
       id="g24056">
      <path
         d="m 49.537663,22.275324 c 0.664935,1.496104 1.828571,0.997402 2.493506,1.662338 0.664935,0.664935 0.664935,3.324675 0.332468,7.97922 -0.332468,4.654546 -1.828572,9.142858 -1.994805,14.129871 -0.166234,4.987013 -0.664936,8.145454 -1.662338,8.976623 -0.997403,0.831169 -3.823377,-0.166234 -3.823377,-0.166234 0,0 2.65974,4.654546 3.823377,4.82078 1.163636,0.166233 2.825974,-2.825974 3.657143,-5.485715 0.831169,-2.65974 0.997402,-11.137662 1.662337,-16.290909 0.664935,-5.153247 0.997403,-10.805195 1.662338,-12.135065 0.664935,-1.32987 2.65974,-2.493507 1.32987,-3.324675 -1.32987,-0.831169 -3.657143,-1.994806 -4.654545,-1.662338 -0.997403,0.332468 -2.825974,1.496104 -2.825974,1.496104 z"
         inkscape:connector-curvature="0"
         id="path21144"
         style="fill:#000000;fill-opacity:1;fill-rule:evenodd;stroke:#000000;stroke-width:1px;stroke-linecap:butt;stroke-linejoin:miter;stroke-opacity:1" />
      <path
         d="m 53.028572,36.903895 c -1.32987,-2.161039 -5.153247,0.664935 -9.309091,5.485714 -4.155844,4.82078 -7.314286,10.805195 -5.818182,11.636364 1.496104,0.831169 2.327273,0.166234 3.823377,-1.828571 1.496104,-1.994805 2.327272,-6.15065 5.485714,-9.309091 3.158441,-3.158442 5.153247,-3.823377 5.485714,-4.654546 0.332468,-0.831169 0,-1.32987 0.332468,-1.32987 z"
         inkscape:connector-curvature="0"
         id="path21872"
         style="fill:#000000;fill-opacity:1;fill-rule:evenodd;stroke:#000000;stroke-width:1px;stroke-linecap:butt;stroke-linejoin:miter;stroke-opacity:1" />
      <path
         d="m 35.906494,38.399999 c 1.496104,0.997403 7.646753,0.166234 10.14026,-0.997402 2.493506,-1.163637 8.311688,-3.490909 10.140259,-3.324676 1.828572,0.166234 4.488312,0.332468 4.155845,-0.831168 -0.332468,-1.163637 -1.994806,-2.992208 -7.979221,-0.997403 -5.984416,1.994805 -8.644156,3.823377 -11.137663,4.488312 -2.493506,0.664935 -5.31948,1.828571 -5.31948,1.662337 z"
         inkscape:connector-curvature="0"
         id="path23326"
         style="fill:#000000;fill-opacity:1;fill-rule:evenodd;stroke:#000000;stroke-width:1px;stroke-linecap:butt;stroke-linejoin:miter;stroke-opacity:1" />
    </g>
  </g>
</svg>
