<?xml version="1.0" encoding="UTF-8" standalone="no"?>
<!-- Created with Inkscape (http://www.inkscape.org/) -->

<svg
   xmlns:dc="http://purl.org/dc/elements/1.1/"
   xmlns:cc="http://creativecommons.org/ns#"
   xmlns:rdf="http://www.w3.org/1999/02/22-rdf-syntax-ns#"
   xmlns:svg="http://www.w3.org/2000/svg"
   xmlns="http://www.w3.org/2000/svg"
   xmlns:sodipodi="http://sodipodi.sourceforge.net/DTD/sodipodi-0.dtd"
   xmlns:inkscape="http://www.inkscape.org/namespaces/inkscape"
   version="1.1"
   width="128"
   height="128"
   id="svg2"
   inkscape:version="0.48.3.1 r9886"
   sodipodi:docname="BlackGold.svg">
  <sodipodi:namedview
     pagecolor="#ffffff"
     bordercolor="#666666"
     borderopacity="1"
     objecttolerance="10"
     gridtolerance="10"
     guidetolerance="10"
     inkscape:pageopacity="0"
     inkscape:pageshadow="2"
     inkscape:window-width="640"
     inkscape:window-height="480"
     id="namedview3157"
     showgrid="false"
     inkscape:zoom="1.8653564"
     inkscape:cx="64"
     inkscape:cy="64"
     inkscape:window-x="0"
     inkscape:window-y="27"
     inkscape:window-maximized="0"
     inkscape:current-layer="svg2" />
  <defs
     id="defs4" />
  <metadata
     id="metadata7">
    <rdf:RDF>
      <cc:Work
         rdf:about="">
        <dc:format>image/svg+xml</dc:format>
        <dc:type
           rdf:resource="http://purl.org/dc/dcmitype/StillImage" />
      </cc:Work>
    </rdf:RDF>
  </metadata>
  <g
     id="layer1"
     transform="matrix(-1,0,0,-1,126.50341,125.35865)">
    <g
       id="g10964">
      <path
         d="m 9.8046247,116.56489 c 0,0 107.1261753,1.21404 106.8937853,0.40468 C 116.46604,116.16021 95.087283,18.227835 95.087283,18.227835 L 60.927745,8.1108558 26.768205,17.823157 9.8046247,116.56489 z"
         inkscape:connector-curvature="0"
         id="path2800"
         style="fill:#c3aa55;fill-opacity:1;fill-rule:evenodd;stroke:none" />
      <g
         transform="translate(-0.47018,-0.23509)"
         id="g2841">
        <path
           d="m 55.224386,71.000684 c 0,0 9.119479,-3.456904 12.542041,-4.723987 3.422562,-1.267082 5.462864,-2.167763 5.586626,-3.360086 0.123763,-1.192322 -2.225352,-3.568382 -3.373558,-3.224039 -1.148207,0.344343 -3.375108,3.073332 -5.349236,4.676171 -1.974128,1.60284 -9.215935,6.141777 -9.405873,6.631941 z"
           inkscape:connector-curvature="0"
           id="path1340"
           style="fill:#000000;fill-opacity:1;fill-rule:evenodd;stroke:#000000;stroke-width:1px;stroke-linecap:butt;stroke-linejoin:miter;stroke-opacity:1" />
        <g
           id="g2829">
          <path
             d="m 74.758635,79.10127 c 1.880721,4.231621 1.880721,6.817611 2.115811,12.459772 0.23509,5.642162 0.717084,11.255798 -0.458366,12.431248 -1.17545,1.17545 -13.882127,-9.610167 -14.117217,-8.669807 -0.23509,0.94036 13.039144,13.497517 15.390044,13.262427 2.350901,-0.23509 3.830297,0.19475 3.830297,-5.44742 0,-5.642153 -0.413137,-22.1555 -1.823678,-23.33095 -1.41054,-1.17545 -3.99653,-1.17545 -4.936891,-0.70527 z"
             inkscape:connector-curvature="0"
             id="path1330"
             style="fill:#000000;fill-opacity:1;fill-rule:evenodd;stroke:#000000;stroke-width:1px;stroke-linecap:butt;stroke-linejoin:miter;stroke-opacity:1" />
          <path
             d="m 56.891792,87.799602 c 3.291261,1.17545 4.466711,-0.235091 8.228152,-1.175451 3.76144,-0.94036 6.100527,-2.087289 12.212868,-2.792559 6.112341,-0.705271 13.176857,-0.968882 14.822487,-1.203972 1.645631,-0.23509 4.231621,0 3.761441,-1.88072 -0.47018,-1.88072 -2.046954,-3.165362 -6.513665,-2.225002 -4.466711,0.940361 -17.133052,3.428973 -22.540123,5.074603 -5.407071,1.645631 -11.961072,0.67675 -13.136522,1.61711 -1.17545,0.94036 3.165362,2.585991 3.165362,2.585991 z"
             inkscape:connector-curvature="0"
             id="path1332"
             style="fill:#000000;fill-opacity:1;fill-rule:evenodd;stroke:#000000;stroke-width:1px;stroke-linecap:butt;stroke-linejoin:miter;stroke-opacity:1" />
          <path
             d="m 69.667324,90.397406 c -2.3509,-0.47018 -4.23162,0.70527 -4.23162,2.350901 0,1.64563 1.17545,5.171981 1.17545,5.171981 0,0 2.585991,-0.47018 3.291261,-2.3509 0.70527,-1.880721 -1e-6,-4.936892 -0.235091,-5.171982 z"
             inkscape:connector-curvature="0"
             id="path1334"
             style="fill:#000000;fill-opacity:1;fill-rule:evenodd;stroke:#000000;stroke-width:1px;stroke-linecap:butt;stroke-linejoin:miter;stroke-opacity:1" />
          <path
             d="m 67.200312,80.162635 c 0,0 1.818784,-2.156145 5.815315,-5.682496 3.996531,-3.526351 6.570707,-6.112342 7.511068,-7.109745 0.645082,-0.684212 3.067985,2.407944 2.597804,4.053574 -0.47018,1.64563 -1.17545,1.17545 -5.171981,3.056171 -4.426289,2.08296 -11.222386,5.447406 -10.752206,5.682496 z"
             inkscape:connector-curvature="0"
             id="path1336"
             style="fill:#000000;fill-opacity:1;fill-rule:evenodd;stroke:#000000;stroke-width:1px;stroke-linecap:butt;stroke-linejoin:miter;stroke-opacity:1" />
          <path
             d="m 65.286177,66.446742 c 0,0 1.439062,2.4768 3.554872,4.12243 2.115811,1.64563 2.08729,2.225001 1.146929,4.105722 -0.566172,1.132344 -0.23509,3.056171 -1.88072,2.585991 -1.645631,-0.47018 -3.761441,-6.112342 -3.526351,-7.287792 0.23509,-1.17545 0.70527,-3.29126 0.70527,-3.526351 z"
             inkscape:connector-curvature="0"
             id="path1338"
             style="fill:#000000;fill-opacity:1;fill-rule:evenodd;stroke:#000000;stroke-width:1px;stroke-linecap:butt;stroke-linejoin:miter;stroke-opacity:1" />
          <path
             d="m 46.478974,62.989248 c 0,0 1.949576,2.006619 2.889936,3.417159 0.94036,1.410541 -1.382019,16.886149 -2.087289,23.23358 -0.705271,6.347431 -1.358391,9.885592 -2.298751,10.355772 -0.940361,0.470181 -4.742136,-2.431566 -4.782472,-2.322375 -0.407316,1.102623 3.056171,8.933426 5.642161,9.168516 2.585991,0.23509 3.165362,-1.34168 3.400452,-3.69259 0.23509,-2.3509 1.576775,-19.277383 1.811865,-22.568644 0.23509,-3.29126 3.250925,-12.998809 1.840385,-14.644439 -1.41054,-1.64563 -1.628923,-3.29126 -2.804373,-3.05617 -1.17545,0.23509 -3.376824,-0.125899 -3.611914,0.109191 z"
             inkscape:connector-curvature="0"
             id="path1342"
             style="fill:#000000;fill-opacity:1;fill-rule:evenodd;stroke:#000000;stroke-width:1px;stroke-linecap:butt;stroke-linejoin:miter;stroke-opacity:1" />
          <path
             d="m 31.19812,87.203523 c 2.873229,1.909241 6.663192,2.476799 10.894813,0.831169 4.231621,-1.645631 7.511067,-2.585991 7.511067,-2.585991 0,0 -0.70527,-3.761441 -6.112341,-2.11581 -5.407071,1.64563 -12.293539,3.400452 -12.293539,3.870632 z"
             inkscape:connector-curvature="0"
             id="path1344"
             style="fill:#000000;fill-opacity:1;fill-rule:evenodd;stroke:#000000;stroke-width:1px;stroke-linecap:butt;stroke-linejoin:miter;stroke-opacity:1" />
          <path
             d="m 36.909137,86.624152 c 0,3.76144 -5.321507,9.180326 -4.851327,11.766312 0.47018,2.585986 1.215785,4.150956 3.801776,2.740406 2.585991,-1.410536 2.016616,-4.847021 2.500427,-7.024172 0.47018,-2.115811 -0.510515,-7.012366 -1.450876,-7.482546 z"
             inkscape:connector-curvature="0"
             id="path1346"
             style="fill:#000000;fill-opacity:1;fill-rule:evenodd;stroke:#000000;stroke-width:1px;stroke-linecap:butt;stroke-linejoin:miter;stroke-opacity:1" />
          <path
             d="m 38.554768,65.936227 c 2.82108,1.41054 3.52635,3.996531 2.82108,5.877251 -0.70527,1.88072 -1.64563,3.996531 -1.64563,3.996531 0,0 4.231621,-0.940361 6.112341,-1.175451 1.880721,-0.23509 3.526351,10e-7 3.526351,10e-7 l -0.47018,1.88072 c 0,0 -7.287792,2.3509 -9.403602,1.88072 -2.11581,-0.47018 -3.761441,-3.29126 -3.526351,-4.466711 0.23509,-1.17545 1.17545,-1.17545 1.645631,-3.05617 0.47018,-1.880721 0.70527,-4.466711 0.94036,-4.936891 z"
             inkscape:connector-curvature="0"
             id="path1348"
             style="fill:#000000;fill-opacity:1;fill-rule:evenodd;stroke:#000000;stroke-width:1px;stroke-linecap:butt;stroke-linejoin:miter;stroke-opacity:1" />
          <path
             d="m 58.339486,71.279065 c 3.327681,2.225771 4.912123,5.19551 3.867405,7.353371 -0.944479,1.950817 -3.558706,1.859607 -4.069832,0.587663 -0.511127,-1.271943 -0.08147,-7.566242 0.202427,-7.941034 z"
             inkscape:connector-curvature="0"
             id="path1350"
             style="fill:#000000;fill-opacity:1;fill-rule:evenodd;stroke:#000000;stroke-width:1px;stroke-linecap:butt;stroke-linejoin:miter;stroke-opacity:1" />
        </g>
      </g>
      <g
         transform="matrix(1.103193,0,0,1.108159,-5.830971,-4.768402)"
         id="g2817">
        <path
           d="m 38.769905,40.981253 c 5.881684,-2.910197 15.210544,-10.042582 16.844729,-12.636712 1.634182,-2.59413 4.165728,-4.373494 4.165728,-4.373494 0,0 15.41611,11.815447 17.398237,12.86745 3.258481,1.72942 6.863509,1.347746 8.29342,0.915391 1.42991,-0.432355 -5.323674,-3.924 -10.168415,-6.334759 -1.331387,-0.662503 -15.727515,-8.745147 -15.727515,-8.745147 0,0 3.230328,0.797626 1.596145,-0.931793 -1.634184,-1.729421 -2.666693,-1.141887 -3.420524,-0.266121 -1.07348,1.247121 -2.807705,3.359689 -4.850433,6.169997 -2.04273,2.810307 -14.9245,12.221495 -14.131372,13.335188 z"
           inkscape:connector-curvature="0"
           id="path2088"
           style="fill:#000000;fill-opacity:1;fill-rule:evenodd;stroke:#000000;stroke-width:0.89387423px;stroke-linecap:butt;stroke-linejoin:miter;stroke-opacity:1" />
        <g
           transform="matrix(0.99937,0.03548559,-0.03548559,0.99937,1.642572,-3.68305)"
           id="g2807">
          <path
             d="m 67.823376,46.212988 c -2.161039,1.828571 -1.163636,4.322077 -1.496104,6.150649 -0.339051,1.864784 2.0302,0.202047 2.992209,-2.327273 0.687676,-1.808043 0.997401,-2.327273 0.831167,-3.989611 -0.854747,-1.961085 -2.161038,0.166235 -2.327272,0.166235 z"
             inkscape:connector-curvature="0"
             id="path1343"
             style="fill:#000000;fill-opacity:1;fill-rule:evenodd;stroke:#000000;stroke-width:1px;stroke-linecap:butt;stroke-linejoin:miter;stroke-opacity:1" />
          <g
             transform="translate(0.117545,-0.117545)"
             id="g2799">
            <path
               d="m 59.628205,34.812728 c -1.429911,0.432354 -1.021364,5.18826 -0.817091,8.863278 0.204273,3.675019 -0.817092,9.511812 0.612819,9.295634 1.42991,-0.216178 2.042728,-4.755905 2.042728,-7.782391 0,-3.026485 -1.634182,-9.944167 -1.838456,-10.376521 z"
               inkscape:connector-curvature="0"
               id="path2078"
               style="fill:#000000;fill-opacity:1;fill-rule:evenodd;stroke:#000000;stroke-width:0.89387423px;stroke-linecap:butt;stroke-linejoin:miter;stroke-opacity:1" />
            <path
               d="m 52.440614,36.11053 c 2.348799,1.241201 3.458563,1.662338 5.501292,1.013805 2.042729,-0.648533 10.436188,-1.646672 9.619096,-2.511382 -0.817091,-0.864711 -8.151147,-0.598588 -9.78533,0.04994 -1.634184,0.648532 -5.258979,0.45023 -5.335058,1.447633 z"
               inkscape:connector-curvature="0"
               id="path2080"
               style="fill:#000000;fill-opacity:1;fill-rule:evenodd;stroke:#000000;stroke-width:0.89387423px;stroke-linecap:butt;stroke-linejoin:miter;stroke-opacity:1" />
            <path
               d="m 49.590678,42.047209 c 2.85982,0.216178 7.149552,0.647798 9.192281,-7.34e-4 2.042729,-0.648533 11.481116,-0.686358 11.481116,-2.848134 0,-2.161775 -7.082959,-0.06206 -10.659832,0.520123 -2.461073,0.400574 -10.013565,2.112568 -10.013565,2.328745 z"
               inkscape:connector-curvature="0"
               id="path2082"
               style="fill:#000000;fill-opacity:1;fill-rule:evenodd;stroke:#000000;stroke-width:0.89387423px;stroke-linecap:butt;stroke-linejoin:miter;stroke-opacity:1" />
            <path
               d="m 48.911667,48.29922 c 0.788935,2.344043 6.442192,0.14888 11.253279,-0.764823 4.992706,-0.948195 10.403075,-0.699213 9.994528,-1.7801 -0.408545,-1.080888 -5.029978,-1.014541 -9.818409,-0.614992 -4.609207,0.384594 -11.263164,1.946334 -11.429398,3.159915 z"
               inkscape:connector-curvature="0"
               id="path2084"
               style="fill:#000000;fill-opacity:1;fill-rule:evenodd;stroke:#000000;stroke-width:0.89387423px;stroke-linecap:butt;stroke-linejoin:miter;stroke-opacity:1" />
            <path
               d="m 46.560431,55.998125 c 2.859821,1.72942 13.319575,-1.023094 15.779631,-1.429756 2.856234,-0.472153 14.514025,0.718425 13.901205,-0.794818 C 75.62845,52.260309 62.003403,50.75992 59.143582,52.056986 56.283761,53.354052 47.17325,55.565771 46.560431,55.998125 z"
               inkscape:connector-curvature="0"
               id="path2086"
               style="fill:#000000;fill-opacity:1;fill-rule:evenodd;stroke:#000000;stroke-width:0.89387423px;stroke-linecap:butt;stroke-linejoin:miter;stroke-opacity:1" />
            <path
               d="m 47.550596,47.251569 c -0.35143,0.611595 -0.22421,1.830714 0.974322,2.397193 1.12856,0.533408 1.848079,1.481479 2.381676,1.098714 0.744662,-0.534168 -0.541291,-1.698013 -1.082581,-2.59696 -0.54129,-0.898948 -1.623868,-1.198596 -2.273417,-0.898947 z"
               inkscape:connector-curvature="0"
               id="path2071"
               style="fill:#000000;fill-opacity:1;fill-rule:evenodd;stroke:#000000;stroke-width:1.25108445px;stroke-linecap:butt;stroke-linejoin:miter;stroke-opacity:1" />
          </g>
        </g>
      </g>
    </g>
  </g>
</svg>
