<?xml version="1.0" encoding="UTF-8" standalone="no"?>
<!-- Created with Inkscape (http://www.inkscape.org/) -->

<svg
   xmlns:dc="http://purl.org/dc/elements/1.1/"
   xmlns:cc="http://creativecommons.org/ns#"
   xmlns:rdf="http://www.w3.org/1999/02/22-rdf-syntax-ns#"
   xmlns:svg="http://www.w3.org/2000/svg"
   xmlns="http://www.w3.org/2000/svg"
   xmlns:sodipodi="http://sodipodi.sourceforge.net/DTD/sodipodi-0.dtd"
   xmlns:inkscape="http://www.inkscape.org/namespaces/inkscape"
   version="1.1"
   width="128"
   height="128"
   id="svg2"
   inkscape:version="0.48.3.1 r9886"
   sodipodi:docname="BlackKing.svg">
  <sodipodi:namedview
     pagecolor="#ffffff"
     bordercolor="#666666"
     borderopacity="1"
     objecttolerance="10"
     gridtolerance="10"
     guidetolerance="10"
     inkscape:pageopacity="0"
     inkscape:pageshadow="2"
     inkscape:window-width="640"
     inkscape:window-height="480"
     id="namedview3183"
     showgrid="false"
     inkscape:zoom="1.8653564"
     inkscape:cx="64"
     inkscape:cy="64"
     inkscape:window-x="0"
     inkscape:window-y="27"
     inkscape:window-maximized="0"
     inkscape:current-layer="svg2" />
  <defs
     id="defs4" />
  <metadata
     id="metadata7">
    <rdf:RDF>
      <cc:Work
         rdf:about="">
        <dc:format>image/svg+xml</dc:format>
        <dc:type
           rdf:resource="http://purl.org/dc/dcmitype/StillImage" />
      </cc:Work>
    </rdf:RDF>
  </metadata>
  <g
     id="layer1"
     transform="matrix(-1,0,0,-1,126.50341,125.35865)">
    <g
       id="g10964">
      <path
         d="m 9.8046247,116.56489 c 0,0 107.1261753,1.21404 106.8937853,0.40468 C 116.46604,116.16021 95.087283,18.227835 95.087283,18.227835 L 60.927745,8.1108558 26.768205,17.823157 9.8046247,116.56489 z"
         inkscape:connector-curvature="0"
         id="path2800"
         style="fill:#c3aa55;fill-opacity:1;fill-rule:evenodd;stroke:none" />
      <g
         transform="translate(9.684393e-8,-1.17545)"
         id="g2841">
        <path
           d="m 57.052957,69.172113 c 0,0 7.290908,-1.628333 10.71347,-2.895416 3.422562,-1.267082 6.044682,-1.502828 6.168444,-2.695151 0.123763,-1.192322 -2.415162,-3.661677 -3.290441,-4.055208 -0.420446,-0.189034 -1.46342,2.32528 -3.437548,3.928119 -1.974128,1.60284 -9.963987,5.227492 -10.153925,5.717656 z"
           inkscape:connector-curvature="0"
           id="path1340"
           style="fill:#000000;fill-opacity:1;fill-rule:evenodd;stroke:#000000;stroke-width:1px;stroke-linecap:butt;stroke-linejoin:miter;stroke-opacity:1" />
        <g
           id="g2829">
          <path
             d="m 74.758635,79.10127 c 1.880721,4.231621 1.880721,6.817611 2.115811,12.459772 0.23509,5.642162 0.717084,11.255798 -0.458366,12.431248 -1.17545,1.17545 -17.525009,-9.500976 -17.525009,-9.500976 0.09738,1.771529 16.446936,14.328686 18.797836,14.093596 2.350901,-0.23509 3.830297,0.19475 3.830297,-5.44742 0,-5.642153 -0.413137,-22.1555 -1.823678,-23.33095 -1.41054,-1.17545 -3.99653,-1.17545 -4.936891,-0.70527 z"
             inkscape:connector-curvature="0"
             id="path1330"
             style="fill:#000000;fill-opacity:1;fill-rule:evenodd;stroke:#000000;stroke-width:1px;stroke-linecap:butt;stroke-linejoin:miter;stroke-opacity:1" />
          <path
             d="m 56.891792,87.799602 c 3.291261,1.17545 4.466711,-0.235091 8.228152,-1.175451 3.76144,-0.94036 6.100527,-2.087289 12.212868,-2.792559 6.112341,-0.705271 13.176857,-0.968882 14.822487,-1.203972 1.645631,-0.23509 4.231621,0 3.761441,-1.88072 -0.47018,-1.88072 -2.046954,-3.165362 -6.513665,-2.225002 -4.466711,0.940361 -17.133052,3.428973 -22.540123,5.074603 -5.407071,1.645631 -11.961072,0.67675 -13.136522,1.61711 -1.17545,0.94036 3.165362,2.585991 3.165362,2.585991 z"
             inkscape:connector-curvature="0"
             id="path1332"
             style="fill:#000000;fill-opacity:1;fill-rule:evenodd;stroke:#000000;stroke-width:1px;stroke-linecap:butt;stroke-linejoin:miter;stroke-opacity:1" />
          <path
             d="m 69.833558,91.311692 c -0.605446,-0.387063 -2.370851,0.221465 -3.067984,1.685966 -1.505807,3.163324 -1.318056,6.169383 -1.318056,6.169383 0,0 3.41716,0.111639 4.12243,-1.769081 0.70527,-1.880721 1.496102,-4.853775 0.26361,-6.086268 z"
             inkscape:connector-curvature="0"
             id="path1334"
             style="fill:#000000;fill-opacity:1;fill-rule:evenodd;stroke:#000000;stroke-width:1px;stroke-linecap:butt;stroke-linejoin:miter;stroke-opacity:1" />
          <path
             d="m 67.78213,78.666531 c 0,0 1.901901,-3.652249 5.898432,-7.1786 3.996531,-3.526351 6.903175,-3.037017 8.25912,-2.953901 0.938598,0.05753 1.654998,1.244308 1.184817,2.889938 -0.47018,1.64563 -0.759866,0.842982 -4.756397,2.723703 -4.426289,2.08296 -7.980827,3.868186 -10.585972,4.51886 z"
             inkscape:connector-curvature="0"
             id="path1336"
             style="fill:#000000;fill-opacity:1;fill-rule:evenodd;stroke:#000000;stroke-width:1px;stroke-linecap:butt;stroke-linejoin:miter;stroke-opacity:1" />
          <path
             d="m 65.286177,66.446742 c 0,0 0.441659,1.645631 2.557469,3.291261 2.115811,1.64563 2.419758,2.058767 1.479397,3.939488 -0.566172,1.132344 -0.733791,2.889938 -2.379421,2.419758 -1.645631,-0.47018 -2.597805,-4.948706 -2.362715,-6.124156 0.23509,-1.17545 0.70527,-3.29126 0.70527,-3.526351 z"
             inkscape:connector-curvature="0"
             id="path1338"
             style="fill:#000000;fill-opacity:1;fill-rule:evenodd;stroke:#000000;stroke-width:1px;stroke-linecap:butt;stroke-linejoin:miter;stroke-opacity:1" />
          <path
             d="m 46.714064,60.873438 c 0,0 1.949576,2.006619 2.889936,3.417159 0.94036,1.410541 -1.382019,17.826509 -2.087289,24.17394 -0.705271,6.347431 -1.593481,11.061042 -2.533841,11.531222 -0.940361,0.470181 -4.977226,-0.785936 -5.017562,-0.676745 -0.407316,1.102626 4.495093,6.361626 6.817611,7.522886 2.350901,1.17545 2.225002,-1.34168 2.460092,-3.69259 0.23509,-2.3509 2.046955,-20.452833 2.282045,-23.744094 0.23509,-3.29126 3.015835,-13.939169 1.605295,-15.584799 -1.41054,-1.64563 -1.628923,-3.29126 -2.804373,-3.05617 -1.17545,0.23509 -3.376824,-0.125899 -3.611914,0.109191 z"
             inkscape:connector-curvature="0"
             id="path1342"
             style="fill:#000000;fill-opacity:1;fill-rule:evenodd;stroke:#000000;stroke-width:1px;stroke-linecap:butt;stroke-linejoin:miter;stroke-opacity:1" />
          <path
             d="m 30.200717,85.208718 c 2.873229,1.909241 7.660595,4.471604 11.892216,2.825974 4.231621,-1.645631 7.511067,-2.585991 7.511067,-2.585991 0,-2.65974 -2.201374,-2.431571 -7.608445,-1.450875 -5.561217,1.008654 -11.794838,0.740712 -11.794838,1.210892 z"
             inkscape:connector-curvature="0"
             id="path1344"
             style="fill:#000000;fill-opacity:1;fill-rule:evenodd;stroke:#000000;stroke-width:1px;stroke-linecap:butt;stroke-linejoin:miter;stroke-opacity:1" />
          <path
             d="m 38.239007,86.291684 c 0,3.76144 -8.135924,9.545753 -7.677301,11.267611 0.509035,1.911123 3.069972,3.870605 4.965412,2.906635 1.829938,-0.930649 2.349084,-4.182081 2.832895,-6.359232 0.47018,-2.115811 0.819355,-7.344834 -0.121006,-7.815014 z"
             inkscape:connector-curvature="0"
             id="path1346"
             style="fill:#000000;fill-opacity:1;fill-rule:evenodd;stroke:#000000;stroke-width:1px;stroke-linecap:butt;stroke-linejoin:miter;stroke-opacity:1" />
          <path
             d="m 40.905668,63.585327 c 3.486015,1.909241 3.52635,3.996531 2.82108,5.877251 -0.70527,1.88072 -2.11581,5.642161 -2.11581,5.642161 0,0 2.350901,-0.235091 4.231621,-0.470181 1.880721,-0.23509 3.526351,10e-7 3.526351,10e-7 l -0.47018,1.88072 c 0,0 -5.407072,1.64563 -7.522882,1.17545 -2.11581,-0.47018 -2.350901,-3.52635 -2.115811,-4.701801 0.23509,-1.17545 1.64563,-2.82108 2.115811,-4.7018 0.47018,-1.880721 -0.23509,-2.982422 -0.47018,-4.701801 z"
             inkscape:connector-curvature="0"
             id="path1348"
             style="fill:#000000;fill-opacity:1;fill-rule:evenodd;stroke:#000000;stroke-width:1px;stroke-linecap:butt;stroke-linejoin:miter;stroke-opacity:1" />
          <path
             d="m 58.173252,72.110234 c 3.327681,2.225771 5.244591,4.198107 4.199873,6.355968 -0.944479,1.950817 -3.060005,2.358309 -3.571131,1.086365 -0.511127,-1.271943 -0.912644,-7.067541 -0.628742,-7.442333 z"
             inkscape:connector-curvature="0"
             id="path1350"
             style="fill:#000000;fill-opacity:1;fill-rule:evenodd;stroke:#000000;stroke-width:1px;stroke-linecap:butt;stroke-linejoin:miter;stroke-opacity:1" />
        </g>
      </g>
      <g
         transform="matrix(0.951832,0,0,0.830054,0.704819,4.945752)"
         id="g1352">
        <path
           d="m 61.55035,27.574012 c -1.240764,0.892766 -1.564249,9.937253 -1.482906,14.015225 0.08134,4.077973 -0.433453,12.34203 2.780178,11.96428 2.768377,-0.325412 1.61547,-9.065637 1.733949,-12.417352 C 64.70005,37.784451 68.223613,25.23978 61.55035,27.574012 z"
           inkscape:connector-curvature="0"
           id="path2078"
           style="fill:#000000;fill-opacity:1;fill-rule:evenodd;stroke:#000000;stroke-width:0.98833269px;stroke-linecap:butt;stroke-linejoin:miter;stroke-opacity:1" />
        <path
           d="m 45.229543,27.67073 c 2.540956,1.466945 10.097901,1.985791 17.779978,0.63381 9.071625,-1.59653 16.917865,-1.415521 16.463055,-4.28372 -0.404568,-2.551355 -8.371989,-0.973653 -17.490328,0.963512 -4.698093,0.998096 -16.629782,1.584804 -16.752705,2.686398 z"
           inkscape:connector-curvature="0"
           id="path2080"
           style="fill:#000000;fill-opacity:1;fill-rule:evenodd;stroke:#000000;stroke-width:0.98833269px;stroke-linecap:butt;stroke-linejoin:miter;stroke-opacity:1" />
        <path
           d="m 49.560062,41.550829 c 0.778036,3.744442 10.302774,1.03172 15.610375,-0.409009 6.952108,-1.887126 14.533224,-1.51674 13.204443,-5.265646 -1.130403,-3.189219 -8.561994,0.127114 -15.149866,2.499998 -4.947064,1.781882 -13.434171,1.268262 -13.664952,3.174657 z"
           inkscape:connector-curvature="0"
           id="path2084"
           style="fill:#000000;fill-opacity:1;fill-rule:evenodd;stroke:#000000;stroke-width:1.17996716px;stroke-linecap:butt;stroke-linejoin:miter;stroke-opacity:1" />
        <path
           d="m 39.49619,55.811666 c 2.144885,3.32072 18.104063,-1.2224 23.212689,-1.315521 7.401151,-0.130625 21.606851,7.456699 24.408133,2.722588 2.425824,-4.099595 -12.286814,-5.989971 -24.777761,-6.217269 -4.056045,-0.07381 -21.445233,1.41686 -22.843061,4.810202 z"
           inkscape:connector-curvature="0"
           id="path2086"
           style="fill:#000000;fill-opacity:1;fill-rule:evenodd;stroke:#000000;stroke-width:0.98833269px;stroke-linecap:butt;stroke-linejoin:miter;stroke-opacity:1" />
      </g>
    </g>
  </g>
</svg>
