<?xml version="1.0" encoding="UTF-8" standalone="no"?>
<!-- Created with Inkscape (http://www.inkscape.org/) -->

<svg
   xmlns:dc="http://purl.org/dc/elements/1.1/"
   xmlns:cc="http://creativecommons.org/ns#"
   xmlns:rdf="http://www.w3.org/1999/02/22-rdf-syntax-ns#"
   xmlns:svg="http://www.w3.org/2000/svg"
   xmlns="http://www.w3.org/2000/svg"
   xmlns:sodipodi="http://sodipodi.sourceforge.net/DTD/sodipodi-0.dtd"
   xmlns:inkscape="http://www.inkscape.org/namespaces/inkscape"
   id="svg3862"
   version="1.1"
   inkscape:version="0.48.4 r9943 custom"
   width="512"
   height="512"
   sodipodi:docname="BlackKing.svg">
  <metadata
     id="metadata3868">
    <rdf:RDF>
      <cc:Work
         rdf:about="">
        <dc:format>image/svg+xml</dc:format>
        <dc:type
           rdf:resource="http://purl.org/dc/dcmitype/StillImage" />
        <dc:title />
      </cc:Work>
    </rdf:RDF>
  </metadata>
  <defs
     id="defs3866" />
  <sodipodi:namedview
     pagecolor="#ffffff"
     bordercolor="#666666"
     borderopacity="1"
     objecttolerance="10"
     gridtolerance="10"
     guidetolerance="10"
     inkscape:pageopacity="0"
     inkscape:pageshadow="2"
     inkscape:window-width="640"
     inkscape:window-height="480"
     id="namedview3864"
     showgrid="false"
     inkscape:zoom="0.4609375"
     inkscape:cx="256"
     inkscape:cy="256"
     inkscape:window-x="51"
     inkscape:window-y="22"
     inkscape:window-maximized="0"
     inkscape:current-layer="g3872" />
  <g
     id="g3872">
    <g
       id="g3415">
      <g
         id="g3079">
        <path
           style="fill:#d3bc5f"
           d="M 188.50717,456.52228 C 152.21111,444.78591 121.91024,434.80237 121.1719,434.33663 120.25149,433.75606 110.41981,374.85986 89.89851,246.99492 L 59.967563,60.5 60.233782,41 60.5,21.5 255.3945,21.247476 c 143.2249,-0.185576 195.25386,0.04572 196.25,0.872444 1.04426,0.866659 1.35509,5.057719 1.35371,18.252525 L 452.99641,57.5 422.60575,245.34245 c -16.71486,103.31335 -30.77655,188.22179 -31.2482,188.68542 -0.96605,0.94963 -134.16893,44.01079 -135.80603,43.9027 -0.57833,-0.0382 -30.74829,-9.67192 -67.04435,-21.40829 z"
           id="path3876"
           inkscape:connector-curvature="0" />
        <path
           style="fill:#11100e"
           d="M 188.5,454.87021 C 152.75,443.3157 122.96135,433.33056 122.303,432.681 121.63756,432.02446 107.90731,349.56799 91.384292,247 L 61.662582,62.5 61.237071,43.715991 C 60.923958,29.893732 61.132939,24.544744 62.028225,23.465991 63.089441,22.187303 87.813702,22 255.54066,22 361.30333,22 448.54823,22.273145 449.41821,22.606989 450.78088,23.129894 451,25.74971 451,41.519063 l 0,18.305085 -30.05432,185.837922 c -16.65068,102.95781 -30.58757,186.36448 -31.25,187.01858 -1.50867,1.48971 -131.23529,43.34091 -134.089,43.25855 C 254.448,475.90577 224.25,466.42472 188.5,454.87021 z m 131.27021,-23.96802 c 53.21584,-17.71948 63.49985,-21.44244 64.22392,-23.25 1.34374,-3.35448 56.21919,-372.653903 55.60986,-374.241797 C 439.14092,32.203646 412.64344,32 256.0904,32 155.4556,32 72.902304,32.349058 72.638635,32.775684 72.167065,33.5387 127.42853,404.6241 128.53101,408.09771 c 0.42951,1.35326 15.74642,6.83829 63.76714,22.83522 34.76102,11.57979 63.40624,21.05706 63.65605,21.06061 0.24982,0.004 28.96702,-9.48756 63.81601,-21.09135 z"
           id="path3874"
           inkscape:connector-curvature="0"
           sodipodi:nodetypes="ssscssssscssssssssssscs" />
      </g>
      <g
         transform="matrix(-1.0827996,0,0,-1.0827996,-32.872152,470.92258)"
         id="g3344">
        <path
           style="fill:#000000"
           d="m -201.83361,379.39189 c -5.99632,-7.57101 -16.31658,-15.72324 -22.9339,-18.11607 -18.05367,-6.52829 -14.51681,-10.66178 7.99727,-9.34632 l 20.02876,1.17027 0,-24.38285 0,-24.38284 -22.64121,1.04076 c -12.45267,0.57241 -32.53516,3.31548 -44.62776,6.09572 -35.19893,8.09263 -43.75358,5.79326 -50.67203,-13.62002 -1.86312,-5.22792 -1.12244,-5.96199 3.82462,-3.79034 11.94539,5.2437 32.91171,5.75281 66.6599,1.6187 37.82378,-4.6334 43.46622,-6.71559 40.33192,-14.88344 -1.91074,-4.97933 -3.61974,-5.0417 -16.2306,-0.59233 -15.3615,5.41986 -31.90291,6.07161 -42.82684,1.68743 -5.91741,-2.37486 -4.86828,-3.34402 6.96652,-6.43547 7.66318,-2.00175 18.69876,-4.60446 24.5235,-5.78381 14.62253,-2.96063 32.95035,-14.6515 32.95035,-21.01822 0,-7.26405 -7.68114,-6.60737 -24.35191,2.08192 -8.32428,4.33886 -17.77031,6.65956 -23.02106,5.65581 -6.27725,-1.19997 -11.34656,0.73995 -17.18166,6.57505 -9.50293,9.50293 -20.80906,10.81167 -23.89642,2.76614 -1.40487,-3.66103 3.73197,-11.38869 15.30201,-23.01973 9.57926,-9.62975 17.38123,-18.5139 17.33772,-19.74256 -0.0435,-1.22866 -5.03774,-4.6769 -11.0983,-7.66274 -17.40625,-8.5755 -15.64331,-12.7909 5.42854,-12.98025 10.39954,-0.0935 23.70689,-2.65138 29.5719,-5.68429 13.35217,-6.90468 22.84317,-7.01629 28.3891,-0.33384 7.80409,9.40336 1.50872,14.65268 -20.56799,17.15037 -20.49719,2.31898 -21.19435,2.72914 -21.19435,12.46911 0,5.53919 -1.56747,11.04 -3.48327,12.22403 -5.22199,3.22737 -4.19335,8.70815 1.63437,8.70815 2.8147,0 11.48801,-3.32042 19.27402,-7.37872 30.97987,-16.14761 59.50164,4.97507 36.05682,26.703 -6.75695,6.26213 -7.7393,8.54183 -3.68078,8.54183 3.04481,0 7.91783,3.40051 10.82893,7.55669 4.88537,6.97482 6.37409,7.23276 19.33478,3.34963 15.24797,-4.5684 25.49019,-1.61387 29.35944,8.4692 3.68982,9.61561 -0.60306,11.38034 -22.78979,9.36851 -21.33363,-1.93446 -21.43169,-1.90141 -19.06242,6.42617 5.0511,17.75374 6.35748,54.10198 2.46038,68.45689 -5.19005,19.1174 -13.43944,19.42337 -28.00056,1.03846 z m -156.14193,-8.00499 c -11.08173,-19.51491 -9.91321,-23.91908 3.93821,-14.84326 8.54152,5.59659 8.59374,5.55894 10.56036,-7.6179 1.08701,-7.28326 2.96654,-22.09504 4.17673,-32.91503 l 2.20034,-19.67277 -17.77319,8.79586 c -16.19971,8.01715 -17.77319,9.85119 -17.77319,20.71654 0,14.57773 -8.74786,32.47432 -15.87346,32.47432 -8.79205,0 -9.42239,-9.12277 -1.81813,-26.31344 8.57086,-19.37586 8.51602,-18.96898 2.55677,-18.96898 -6.35103,0 -16.21455,-11.36572 -16.21455,-18.68395 0,-4.89959 1.24607,-5.27714 7.0917,-2.14865 19.80738,10.60058 59.68363,-0.62744 62.05788,-17.47373 1.17912,-8.36641 0.97096,-8.46783 -5.45108,-2.65597 -3.67236,3.32344 -11.69634,7.79237 -17.83107,9.93094 -9.09956,3.17212 -12.74706,2.84456 -19.80259,-1.7784 -12.02017,-7.87592 -10.79516,-12.47266 3.3239,-12.47266 11.86525,0 11.95467,-0.11694 9.98897,-13.06224 -1.0909,-7.18423 -5.18426,-16.58904 -9.09635,-20.89958 l -7.11288,-7.83735 7.73204,0 c 10.31275,0 24.83169,14.99159 24.83169,25.64005 0,12.84327 12.56715,8.18476 15.34149,-5.68693 1.71046,-8.55229 0.34843,-12.66573 -6.59282,-19.91084 -15.54481,-16.22528 -9.77812,-26.02279 10.00995,-17.00674 14.71198,6.70322 17.84471,20.30924 10.92385,47.44434 -3.29805,12.93089 -7.09201,44.67153 -8.43103,70.53476 -3.42346,66.12457 -11.80607,78.14789 -30.96354,44.41161 z m 79.85405,-26.62697 c -3.40674,-2.15837 -0.45443,-4.46077 10.44979,-8.14937 13.32381,-4.5071 15.07436,-6.27733 14.19535,-14.35471 -0.76779,-7.05538 0.53364,-9.21361 5.55585,-9.21361 8.72346,0 19.47387,12.26391 16.81781,19.1855 -4.22679,11.01485 -36.03299,19.49234 -47.0188,12.53219 z m -64.91705,-169.47849 c -21.39073,-10.95938 -25.35055,-24.42093 -6.09571,-20.72258 11.91264,2.28811 56.90557,2.96379 58.35482,0.87634 0.33658,-0.48479 -0.0845,-7.54319 -0.93578,-15.68531 -1.52402,-14.57691 -1.75277,-14.80387 -14.92069,-14.80387 -9.027,0 -16.47542,-2.66864 -22.91958,-8.21167 l -9.54663,-8.21166 22.41463,0.37432 22.41463,0.37432 1.08108,-13.06224 1.08109,-13.062234 -15.69072,0 c -11.56919,0 -18.25787,-2.209559 -25.46393,-8.41183 -12.33273,-10.614817 -9.93677,-13.114734 8.16558,-8.519867 10.11064,2.566353 22.68407,2.427316 43.4284,-0.480231 16.05871,-2.250804 34.7712,-4.875649 41.5833,-5.832985 8.33713,-1.171659 13.75941,-0.0853 16.58845,3.323468 6.49077,7.820902 -3.52222,13.890314 -25.98921,15.753453 -17.57401,1.457373 -19.06303,2.232169 -17.25273,8.977226 1.08971,4.0602 2.0027,10.2997 2.02886,13.86555 0.0407,5.54461 1.85106,6.14504 12.50303,4.14671 13.09028,-2.45575 22.37717,1.98327 22.37717,10.69602 0,3.35535 -4.65207,4.79838 -15.46911,4.79838 -17.48784,0 -17.79117,0.26783 -21.26299,18.77425 l -2.53192,13.49629 20.50282,-2.92509 c 30.32999,-4.3271 42.16911,-3.44137 50.11468,3.74928 13.37778,12.10672 7.00572,13.92585 -49.06693,14.00785 -43.43075,0.0635 -56.16872,1.22861 -66.64381,6.09571 -15.70414,7.29669 -15.8133,7.29904 -28.8488,0.6204 z"
           id="path3342"
           inkscape:connector-curvature="0"
           sodipodi:nodetypes="ssscccssssssssssssssssssssssssssssssssssssssscsssssssssssssscsssssssssssssssssssscccccssssssssssssscsssss" />
      </g>
    </g>
  </g>
</svg>
