<?xml version="1.0" encoding="UTF-8" standalone="no"?>
<!-- Created with Inkscape (http://www.inkscape.org/) -->

<svg
   xmlns:dc="http://purl.org/dc/elements/1.1/"
   xmlns:cc="http://creativecommons.org/ns#"
   xmlns:rdf="http://www.w3.org/1999/02/22-rdf-syntax-ns#"
   xmlns:svg="http://www.w3.org/2000/svg"
   xmlns="http://www.w3.org/2000/svg"
   xmlns:sodipodi="http://sodipodi.sourceforge.net/DTD/sodipodi-0.dtd"
   xmlns:inkscape="http://www.inkscape.org/namespaces/inkscape"
   id="svg2"
   version="1.1"
   inkscape:version="0.48.4 r9943 custom"
   width="512"
   height="512"
   sodipodi:docname="BlackBishop.svg">
  <metadata
     id="metadata8">
    <rdf:RDF>
      <cc:Work
         rdf:about="">
        <dc:format>image/svg+xml</dc:format>
        <dc:type
           rdf:resource="http://purl.org/dc/dcmitype/StillImage" />
        <dc:title />
      </cc:Work>
    </rdf:RDF>
  </metadata>
  <defs
     id="defs6" />
  <sodipodi:namedview
     pagecolor="#ffffff"
     bordercolor="#666666"
     borderopacity="1"
     objecttolerance="10"
     gridtolerance="10"
     guidetolerance="10"
     inkscape:pageopacity="0"
     inkscape:pageshadow="2"
     inkscape:window-width="640"
     inkscape:window-height="480"
     id="namedview4"
     showgrid="false"
     inkscape:zoom="0.4609375"
     inkscape:cx="256"
     inkscape:cy="256"
     inkscape:window-x="546"
     inkscape:window-y="22"
     inkscape:window-maximized="0"
     inkscape:current-layer="svg2" />
  <g
     id="g3058">
    <path
       style="fill:#d3bc5f"
       d="m 191.5,438.65982 c -33.55,-11.1077 -61.74965,-20.49658 -62.66589,-20.86416 -1.03366,-0.41469 -2.06811,-2.68494 -2.72573,-5.982 -0.58292,-2.92251 -14.13065,-83.22962 -30.10607,-178.46024 L 66.95609,60.206845 67.228045,40.853422 67.5,21.5 254.89438,21.247376 c 145.1305,-0.195648 187.72217,0.01943 188.84782,0.953628 1.21488,1.008264 1.37377,4.578622 0.96808,21.752624 L 444.22492,64.5 416.72433,240.33813 c -15.12532,96.71097 -27.88843,176.21676 -28.36246,176.67953 -1.44985,1.41541 -130.43309,41.98731 -133.23777,41.91017 -1.44326,-0.0397 -30.0741,-9.1603 -63.6241,-20.26801 z"
       id="path2999"
       inkscape:connector-curvature="0" />
    <g
       transform="matrix(-1.0248367,0,0,-1.0248367,947.91463,499.28528)"
       id="g3419">
      <path
         style="fill:#000000"
         d="m 735.64554,439.82119 c -1.0431,-2.7183 -7.96792,-6.86882 -15.38849,-9.22341 -7.42056,-2.35458 -17.068,-6.5246 -21.43873,-9.26671 -14.29132,-8.96607 -9.27325,-12.21928 15.01061,-9.73129 l 22.95742,2.35204 0,-22.92132 c 0,-20.7978 -1.01103,-23.97927 -10.91313,-34.34087 l -10.91313,-11.41955 -22.58096,5.0655 c -21.50861,4.82494 -23.12887,4.71453 -34.11873,-2.32502 l -11.53776,-7.39056 12.36168,-0.94617 c 34.99059,-2.67814 72.89587,-8.9175 81.63722,-13.43786 12.74755,-6.59199 24.333,-6.45322 34.12996,0.40882 15.12148,10.59153 9.97003,15.68335 -15.99071,15.80566 -21.77287,0.10242 -23.24352,0.56372 -16.95787,5.31736 11.5983,8.77136 17.14413,81.2943 6.99284,91.44557 -6.85795,6.85795 -10.78272,7.03801 -13.25022,0.60781 z m -129.36818,-3.68057 c -2.99133,-3.60431 -3.50013,-13.40243 -1.74236,-33.55315 1.36553,-15.65417 1.42696,-28.46214 0.13651,-28.46214 -1.29046,0 -5.86642,2.25434 -10.16881,5.00966 -8.40466,5.38245 -15.3771,6.63239 -33.42889,5.99277 -15.55052,-0.55098 -14.46569,-5.45748 2.3185,-10.48614 17.04016,-5.10538 56.841,-33.90231 56.841,-41.12595 0,-6.58695 -6.14524,-6.58949 -17.65955,-0.007 -4.85638,2.77615 -15.18722,5.03206 -22.95742,5.01313 l -14.12764,-0.0353 15.18678,-7.94889 c 21.19869,-11.09486 43.08974,-33.14454 43.08974,-43.40131 0,-9.69542 5.73939,-10.67309 16.87368,-2.87433 9.40301,6.58613 10.2172,17.59909 1.66885,22.57324 -3.39946,1.9781 -9.21965,5.97352 -12.93374,8.87873 -6.55716,5.12907 -6.48038,5.49657 2.64893,12.67769 5.17101,4.06748 9.40183,8.95049 9.40183,10.85108 0,1.9006 -5.75511,8.72803 -12.78913,15.17203 -12.45031,11.40599 -12.67488,12.06261 -8.47659,24.78356 4.584,13.88966 5.88104,51.9633 1.98496,58.2673 -3.28212,5.31058 -10.8867,4.67558 -15.86665,-1.32489 z M 675.8609,310.26803 c -11.12289,-6.47848 -6.55646,-9.3368 17.68771,-11.07146 13.12771,-0.93928 29.06738,-4.3962 35.4215,-7.68205 9.84419,-5.09063 12.96797,-5.29604 21.1201,-1.38883 5.26195,2.52199 10.14128,7.56649 10.84296,11.21002 1.06516,5.53093 -0.2324,6.24606 -7.85971,4.33173 -5.02451,-1.26108 -20.6781,0.11521 -34.78574,3.05838 -29.86832,6.23124 -34.11145,6.38547 -42.42682,1.54221 z m 39.73399,-48.50969 c 0,-1.58276 -5.9601,-5.83473 -13.24466,-9.44881 -10.97748,-5.44625 -12.0355,-6.83245 -6.18085,-8.09804 14.16353,-3.06171 15.8936,-7.59086 15.8936,-41.60784 0,-18.90837 -1.55795,-33.87511 -3.66153,-35.17519 -2.01383,-1.24462 -9.86344,-1.21514 -17.44357,0.0655 -9.92239,1.67638 -13.24216,3.73541 -11.8542,7.35238 1.06032,2.76314 4.74192,5.0239 8.18134,5.0239 6.88305,0 16.45863,9.49663 13.03136,12.92391 -1.18662,1.18661 -5.78384,2.34022 -10.21606,2.56358 -5.6595,0.2852 -8.41381,2.91869 -9.25182,8.84597 -1.02542,7.25288 -0.0578,8.14295 6.88004,6.32866 7.95549,-2.08041 17.27062,2.56963 17.27062,8.62136 0,1.7047 -5.56276,3.09945 -12.36169,3.09945 -11.43951,0 -12.36168,0.80776 -12.36168,10.82792 0,12.00981 -5.46321,24.49118 -10.72,24.49118 -1.87421,0 -3.40765,-6.35744 -3.40765,-14.12764 0,-13.20918 -0.66072,-14.12764 -10.16326,-14.12764 -5.5898,0 -12.10529,-2.33999 -14.47886,-5.19997 -3.64767,-4.39517 -2.07472,-5.55829 10.16327,-7.51523 12.26842,-1.96179 14.47885,-3.60463 14.47885,-10.76092 0,-7.33778 -1.20799,-8.14247 -9.20887,-6.13438 -6.05089,1.51868 -10.22612,0.66533 -12.17524,-2.48842 -3.56148,-5.76259 2.20611,-10.15349 13.43732,-10.22992 8.51708,-0.058 9.64992,-2.49228 4.75568,-10.21933 -1.69562,-2.67706 -4.86423,-3.76649 -7.04134,-2.42096 -5.78897,3.57778 -17.50367,-1.03577 -21.47577,-8.4577 -3.1721,-5.92713 -1.50374,-6.46742 21.02996,-6.81042 13.46146,-0.20492 31.86921,-2.88283 40.90611,-5.95093 15.81649,-5.36984 16.72705,-5.3 24.35738,1.86832 7.13948,6.7072 8.136,11.87753 10.03483,52.06441 1.26426,26.75692 0.72025,47.21108 -1.35897,51.09613 -3.43809,6.42415 -13.81434,9.12868 -13.81434,3.60067 z m -102.48108,-9.55101 c -3.57428,-4.30674 -3.58349,-10.44534 -0.0467,-31.12161 2.4232,-14.16616 3.83488,-34.00395 3.13707,-44.08399 -1.29274,-18.67406 -0.69574,-20.1905 6.14932,-15.61992 8.45288,5.64414 12.00744,19.2569 12.00744,45.98449 0,41.68139 -8.675,59.98954 -21.24714,44.84103 z m 48.56857,-102.70352 c -1.45791,-1.45791 3.16881,-5.95006 10.28161,-9.98255 17.28388,-9.79882 22.80944,-18.855 14.41836,-23.6311 -3.44033,-1.9582 -5.29327,-5.11668 -4.11766,-7.01886 4.53088,-7.33111 29.79829,6.87834 29.79829,16.75744 0,10.11083 -43.52065,30.73502 -50.3806,23.87507 z m -25.7553,-23.6407 c 12.22443,-11.71307 15.35436,-16.92838 13.77773,-22.95742 -1.62182,-6.201856 -0.53287,-7.801289 5.31141,-7.801289 4.04331,0 8.80895,2.781379 10.59031,6.180839 7.3661,14.05718 -14.31786,39.734 -33.55518,39.734 l -11.94208,0 z"
         id="path3417"
         inkscape:connector-curvature="0"
         sodipodi:nodetypes="sssscsscsscssssssscssssssccccsssssssssccssssssssssssssssssssssssssssssssssssssssscssssccssssssssssscs" />
    </g>
    <path
       sodipodi:nodetypes="ssscssssscssssscssssscs"
       style="fill:#12110e"
       d="M 193,437.56253 C 159.175,426.38003 130.72279,416.6163 129.77287,415.86536 128.38253,414.76624 122.25699,380.18014 98.359757,238.5 L 68.673778,62.5 68.242669,43.715991 C 67.925278,29.886825 68.132492,24.545283 69.028225,23.465991 70.089128,22.187681 93.90304,22 255.04066,22 356.67833,22 440.54823,22.273145 441.41821,22.606989 442.78107,23.129965 443,25.753478 443,41.561815 l 0,18.347837 -27.55739,177.295178 c -15.48351,99.61581 -28.07991,177.8099 -28.75,178.46998 -1.03232,1.01692 -124.0231,40.53362 -129.98516,41.76399 -1.2559,0.25917 -28.71782,-8.30875 -63.70745,-19.87627 z m 125.56003,-25.11714 c 33.51698,-11.30503 61.24167,-20.86753 61.61041,-21.25 C 381.22616,390.1004 432.30021,35.224715 431.64706,33.522625 431.1269,32.16713 411.8022,32 255.5904,32 159.0806,32 79.887535,32.372955 79.605814,32.828789 78.815185,34.108054 133.85164,387.18383 135.25893,389.86064 c 1.0484,1.99417 10.2451,5.51011 59.24107,22.64814 31.9,11.15812 59.15201,20.33334 60.56003,20.38936 1.40802,0.056 29.98302,-9.14771 63.5,-20.45275 z"
       id="path2997"
       inkscape:connector-curvature="0" />
  </g>
</svg>
