<?xml version="1.0" encoding="UTF-8" standalone="no"?>
<!-- Created with Inkscape (http://www.inkscape.org/) -->

<svg
   xmlns:dc="http://purl.org/dc/elements/1.1/"
   xmlns:cc="http://creativecommons.org/ns#"
   xmlns:rdf="http://www.w3.org/1999/02/22-rdf-syntax-ns#"
   xmlns:svg="http://www.w3.org/2000/svg"
   xmlns="http://www.w3.org/2000/svg"
   xmlns:sodipodi="http://sodipodi.sourceforge.net/DTD/sodipodi-0.dtd"
   xmlns:inkscape="http://www.inkscape.org/namespaces/inkscape"
   id="svg2"
   version="1.1"
   inkscape:version="0.48.4 r9943 custom"
   width="512"
   height="512"
   sodipodi:docname="BlackCrownedRook.svg">
  <metadata
     id="metadata8">
    <rdf:RDF>
      <cc:Work
         rdf:about="">
        <dc:format>image/svg+xml</dc:format>
        <dc:type
           rdf:resource="http://purl.org/dc/dcmitype/StillImage" />
        <dc:title />
      </cc:Work>
    </rdf:RDF>
  </metadata>
  <defs
     id="defs6" />
  <sodipodi:namedview
     pagecolor="#ffffff"
     bordercolor="#666666"
     borderopacity="1"
     objecttolerance="10"
     gridtolerance="10"
     guidetolerance="10"
     inkscape:pageopacity="0"
     inkscape:pageshadow="2"
     inkscape:window-width="933"
     inkscape:window-height="911"
     id="namedview4"
     showgrid="false"
     inkscape:zoom="1.3037281"
     inkscape:cx="271.28932"
     inkscape:cy="213.78296"
     inkscape:window-x="328"
     inkscape:window-y="22"
     inkscape:window-maximized="0"
     inkscape:current-layer="svg2" />
  <g
     id="g3301">
    <path
       style="fill:#d3bc5f"
       d="m 191.5,438.65982 c -33.55,-11.1077 -61.74965,-20.49658 -62.66589,-20.86416 -1.03366,-0.41469 -2.06811,-2.68494 -2.72573,-5.982 -0.58292,-2.92251 -14.13065,-83.22962 -30.10607,-178.46024 L 66.95609,60.206845 67.228045,40.853422 67.5,21.5 254.89438,21.247376 c 145.1305,-0.195648 187.72217,0.01943 188.84782,0.953628 1.21488,1.008264 1.37377,4.578622 0.96808,21.752624 L 444.22492,64.5 416.72433,240.33813 c -15.12532,96.71097 -27.88843,176.21676 -28.36246,176.67953 -1.44985,1.41541 -130.43309,41.98731 -133.23777,41.91017 -1.44326,-0.0397 -30.0741,-9.1603 -63.6241,-20.26801 z"
       id="path2993"
       inkscape:connector-curvature="0" />
    <g
       transform="matrix(-1,0,0,-1,-116.69019,482.84403)"
       id="g3246">
      <path
         style="fill:#ff0000"
         d="m -367.0625,82.15625 c -11.08081,-1.565705 0.93638,4.58443 4.3684,7.851919 5.76522,3.258333 10.34615,8.778043 9.60035,15.773081 -0.13853,23.30123 -2.68776,46.52078 -3.90625,69.78125 -13.19283,18.19651 -24.31428,38.29006 -39.46875,54.8125 -4.76169,6.02274 -12.79254,2.22903 -19.09375,4.78125 -5.77616,1.30947 -11.10914,3.87565 -16.28125,6.71875 10.03605,-13.93348 19.21905,-29.90796 34.6875,-38.46875 6.28267,-0.80868 16.84119,-10.53321 7.5,-14.8125 -11.50399,-1.83846 -22.72896,3.88721 -33.53802,7.11494 -16.18055,5.9466 -33.24204,12.37887 -50.77448,9.57256 -3.75918,-0.51963 -5.12094,4.11314 -2.34375,6.3125 9.13872,12.60175 28.03014,12.60059 40.84375,6.1875 1.27914,-0.39295 6.69026,-4.02723 4.125,-0.59375 -11.26095,20.65607 -28.78405,38.73307 -33.28341,62.39813 -0.4087,4.05603 -0.25661,11.66369 5.22091,11.82062 6.99752,-3.3631 9.15288,-12.19086 12.875,-18.5 5.38976,-12.25692 14.81507,-23.73987 28.40625,-26.71875 6.72322,-3.42976 10.78066,3.62625 7.5625,9.21875 -2.78028,9.91512 -10.85884,19.21598 -8.59375,30.0625 3.59151,7.60446 15.77375,5.29202 19.625,-1.0625 8.17431,-12.07844 6.39016,-27.79695 12.96875,-40.65625 7.53565,-16.57662 15.41543,-33.51775 28.125,-46.78125 2.85271,-3.02984 1.94178,3.67451 2.53125,5.125 1.96942,23.56027 -1.26706,47.07618 -3.21875,70.5 -1.01077,11.37225 10.95695,17.71825 20.46875,19.65625 22.31114,4.15195 46.12216,0.90106 66.78125,-8.3125 5.05281,-2.94183 11.98708,-6.25019 13.21875,-12.53125 -2.74877,-11.73802 -13.9395,-19.11231 -21.59849,-27.73174 -3.71283,-3.27923 -10.9663,-12.99775 -7.09951,-2.57452 1.13486,8.83344 5.69221,17.57645 4.3855,26.52501 -5.49711,6.42737 -14.56952,8.64906 -22.28125,11.34375 -13.45404,3.72491 -30.24874,4.36788 -40.5985,-6.74699 -7.06666,-3.24326 0.28745,-10.75873 0.72965,-16.22652 3.26195,-12.4009 9.71395,-24.51297 9.5876,-37.49524 -0.95954,-7.12326 -7.35035,-12.30558 -7.78125,-19.65625 -2.05014,-8.11353 -1.29173,-18.20594 6.4375,-23.03125 10.88335,-9.36897 25.70764,-15.1163 33.0625,-27.9375 2.08677,-6.37466 -5.964,-9.82416 -10.3125,-12.40625 -7.30236,-3.69032 -15.34015,-5.60635 -23.03125,-8.375 1.36497,-12.58717 6.90493,-28.359497 -2.625,-39.125 -7.0029,-7.438207 -18.11401,-5.775708 -27.28125,-5.8125 z m -35.71875,0.53125 c -6.26449,1.911477 -3.45469,10.309834 -4.73306,15.150394 -0.30348,7.115876 -4.40079,13.031176 -10.32944,16.724606 -2.96076,2.37938 0.26372,5.93866 3.34375,4.90625 11.17619,-1.12316 24.70494,-2.17966 32.125,-11.75 3.99433,-4.33508 1.58691,-10.630565 -2.68548,-13.728605 -5.29139,-4.136153 -10.62339,-10.663102 -17.72077,-11.302645 z m 1.9375,46.3125 c -9.46462,2.00889 -18.85122,5.9814 -28.78125,6.125 -7.9138,0.47142 -15.86777,0.14389 -23.75,1.125 9.71578,6.19001 22.55086,8.13548 30.78125,16.21875 1.61974,1.979 -0.69931,6.61199 3.625,5.96875 9.8604,-3.96302 16.61684,-13.77835 26.59375,-17.59375 5.12138,-2.39466 1.49945,-8.84498 -2.28125,-10.59375 -1.85036,-1.11742 -4.0454,-1.42066 -6.1875,-1.25 z m 62.5625,6.75 c 6.04641,1.76899 10.68797,6.59129 16.0625,9.84375 -5.5456,4.81807 -9.65044,12.47881 -16.59375,15.0625 -2.67701,-6.63053 -1.53365,-14.77711 -1.15625,-21.84375 0.35229,-0.93753 0.23404,-3.14803 1.6875,-3.0625 z m -51.625,25.4375 c -16.60414,2.31339 -33.78523,2.12219 -50,6.375 -4.31147,1.97143 -0.004,6.55753 3.34375,6.28125 4.40824,1.51273 10.75284,1.49659 14.15625,3.6875 -2.25845,4.64297 -8.78185,7.5079 -8.6875,12.96875 4.62986,2.48432 9.06541,-3.48968 13.29887,-4.88299 12.3482,-7.22418 23.53104,-16.1399 34.70113,-25.11701 -2.27083,0.22917 -4.54167,0.45833 -6.8125,0.6875 z m 80.1875,7.8125 c -3.61803,-0.74859 -8.85597,2.39077 -5.90625,6.3125 3.49465,3.37379 4.68962,8.22761 2.0625,12.625 -3.45911,8.36807 -11.55563,18.65837 -5.625,27.75 3.09743,4.19091 8.04201,6.3264 12.28125,9.1875 -5.67135,5.60218 -13.20144,9.65316 -17.78125,16.125 -0.36669,5.16581 6.51183,2.18253 9.25,1.5625 11.85564,-3.83622 25.77091,-6.6708 33.875,-16.875 4.1366,-5.8166 -1.7945,-12.30003 -7.3125,-14.09375 -3.99745,-2.42604 -10.35071,-2.33406 -13.09375,-6.25 2.90628,-9.31375 12.64119,-18.13356 9.03125,-28.84375 -2.47941,-6.73652 -10.49267,-8.02171 -16.78125,-7.5 z m -47.46875,136.09375 c -12.67963,0.15022 -24.30684,5.61518 -36.125,8.78125 -8.76999,2.66176 -17.68572,-1.46643 -26.46875,0 -4.88567,0.85059 -4.80102,7.31044 -1.28125,9.875 7.50074,7.96792 19.34308,14.65239 30.34375,9.6875 11.49956,-3.55132 21.62467,-13.59556 34.21875,-12.40625 5.55912,2.8724 2.6997,10.87751 1.96875,15.59375 -1.04056,4.4638 -2.28706,11.5831 -8.5,10.84375 -12.74744,-0.47356 -26.92471,-1.62256 -37.625,6.65625 -11.66052,8.52825 -16.58043,24.47766 -14.40625,38.4375 1.94146,8.70813 11.69068,12.78744 14.5,20.625 -6.13023,3.6481 -15.64995,-1.23094 -20.84375,4.53125 -2.03813,5.66156 5.55615,8.80771 9.25,11.34375 22.76747,13.77535 53.55024,16.94523 76.75,2.5 5.29114,-2.60089 6.83123,-10.18591 2,-13.96875 -5.38065,-6.37292 -14.42041,-7.75171 -21.99648,-4.86358 -9.55626,2.8793 -20.16805,7.73238 -30.15977,4.45733 -1.2194,-2.49377 2.70889,-2.46715 4.28125,-3 15.67414,-7.56092 29.18174,-19.4122 40.9375,-32.15625 3.999,-5.98373 10.24375,-11.98438 10.0625,-19.65625 -1.33389,-5.72829 -9.04001,-8.60652 -7.40625,-15.375 2.50705,-10.96127 5.30153,-23.22584 -0.1875,-33.75 -3.15668,-7.85195 -11.99356,-8.51228 -19.3125,-8.15625 z m -18.375,53.125 c 3.35478,0.58564 8.74571,-1.14293 11.15625,1.5 -2.51517,12.22575 -9.08494,23.4457 -15.36212,34.14792 -2.97349,4.9565 -9.24009,11.5034 -15.26288,6.82083 -10.89916,-6.93381 -11.8798,-23.05155 -3.09375,-32 5.55526,-6.55276 14.13665,-10.23687 22.5625,-10.46875 z"
         id="path3244"
         inkscape:connector-curvature="0" />
    </g>
    <path
       sodipodi:nodetypes="ssscssssscsssssssssscs"
       style="fill:#f21914"
       d="m 193,437.57176 c -33.825,-11.17923 -62.27929,-20.9437 -63.23175,-21.69882 -1.3974,-1.10786 -7.5275,-35.88006 -31.750002,-180.09769 L 68,57.050498 68,40.725249 C 68,29.361166 68.364674,24.035326 69.2,23.2 70.124671,22.275329 112.78183,22 255.11821,22 c 101.59502,0 185.43002,0.273145 186.3,0.606989 C 442.78115,23.129996 443,25.755121 443,41.580463 l 0,18.366485 -27.55185,177.276522 c -15.5708,100.18706 -28.07286,177.79074 -28.75,178.45902 -1.02945,1.01599 -124.10743,40.54934 -130.05047,41.77295 C 255.46646,457.69865 226.825,448.75099 193,437.57176 z m 125.17078,-25.14065 c 34.90005,-11.64405 61.89716,-21.16578 62.19229,-21.93487 1.11721,-2.91139 51.74957,-355.760321 51.2405,-357.086937 C 431.14117,32.204308 405.62438,32 255.5904,32 159.0806,32 79.90768,32.34036 79.650581,32.756355 78.928687,33.924404 134.62061,390.02061 135.69288,391.09288 c 1.09806,1.09806 117.06515,41.79065 119.30712,41.8646 0.825,0.0272 29.25185,-9.20966 63.17078,-20.52637 z"
       id="path2991"
       inkscape:connector-curvature="0" />
    <path
       style="fill:#131210"
       d="m 193,437.57176 c -33.825,-11.17923 -62.27929,-20.9437 -63.23175,-21.69882 -1.3974,-1.10786 -7.5275,-35.88006 -31.750002,-180.09769 L 68,57.050498 68,40.725249 C 68,29.361166 68.364674,24.035326 69.2,23.2 70.124671,22.275329 112.78183,22 255.11821,22 c 101.59502,0 185.43002,0.273145 186.3,0.606989 C 442.78115,23.129996 443,25.755121 443,41.580463 l 0,18.366485 -27.55185,177.276522 c -15.5708,100.18706 -28.07286,177.79074 -28.75,178.45902 -1.02945,1.01599 -124.10743,40.54934 -130.05047,41.77295 C 255.46646,457.69865 226.825,448.75099 193,437.57176 z m 125.17078,-25.14065 c 34.90005,-11.64405 61.89716,-21.16578 62.19229,-21.93487 1.11721,-2.91139 51.74957,-355.760321 51.2405,-357.086937 C 431.14117,32.204308 405.62438,32 255.5904,32 159.0806,32 79.90768,32.34036 79.650581,32.756355 78.928687,33.924404 134.62061,390.02061 135.69288,391.09288 c 1.09806,1.09806 117.06515,41.79065 119.30712,41.8646 0.825,0.0272 29.25185,-9.20966 63.17078,-20.52637 z"
       id="path2989"
       inkscape:connector-curvature="0" />
    <g
       id="g4439"
       transform="matrix(4.4238841,0,0,4.1007377,-30.238211,-33.391315)">
      <g
         id="g10964"
         transform="matrix(-1,0,0,-1,126.50341,125.35865)"
         style="fill:#ff0000">
        <g
           id="g2075"
           transform="matrix(0.786183,0,0,0.935199,12.88314,7.493534)"
           style="fill:#ff0000" />
        <g
           id="g2872"
           transform="matrix(1.036664,-0.02174942,0.02123065,1.061995,-3.652085,-1.466228)"
           style="fill:#ff0000" />
      </g>
    </g>
  </g>
</svg>
