<?xml version="1.0" encoding="UTF-8" standalone="no"?>
<!-- Created with Inkscape (http://www.inkscape.org/) -->

<svg
   xmlns:dc="http://purl.org/dc/elements/1.1/"
   xmlns:cc="http://creativecommons.org/ns#"
   xmlns:rdf="http://www.w3.org/1999/02/22-rdf-syntax-ns#"
   xmlns:svg="http://www.w3.org/2000/svg"
   xmlns="http://www.w3.org/2000/svg"
   xmlns:sodipodi="http://sodipodi.sourceforge.net/DTD/sodipodi-0.dtd"
   xmlns:inkscape="http://www.inkscape.org/namespaces/inkscape"
   id="svg3754"
   version="1.1"
   inkscape:version="0.48.4 r9943 custom"
   width="512"
   height="512"
   sodipodi:docname="WhiteKnight.svg">
  <metadata
     id="metadata3760">
    <rdf:RDF>
      <cc:Work
         rdf:about="">
        <dc:format>image/svg+xml</dc:format>
        <dc:type
           rdf:resource="http://purl.org/dc/dcmitype/StillImage" />
        <dc:title />
      </cc:Work>
    </rdf:RDF>
  </metadata>
  <defs
     id="defs3758" />
  <sodipodi:namedview
     pagecolor="#ffffff"
     bordercolor="#666666"
     borderopacity="1"
     objecttolerance="10"
     gridtolerance="10"
     guidetolerance="10"
     inkscape:pageopacity="0"
     inkscape:pageshadow="2"
     inkscape:window-width="1160"
     inkscape:window-height="712"
     id="namedview3756"
     showgrid="false"
     inkscape:zoom="0.4609375"
     inkscape:cx="256"
     inkscape:cy="256"
     inkscape:window-x="0"
     inkscape:window-y="22"
     inkscape:window-maximized="0"
     inkscape:current-layer="g3764" />
  <g
     id="g3764">
    <g
       id="g3652">
      <path
         inkscape:connector-curvature="0"
         id="path3768"
         d="m 95.072155,473.3646 c -4.895079,-6.22308 -5.788704,2.25431 18.785045,-178.20493 12.60791,-92.58719 23.31032,-168.72495 23.78313,-169.19502 1.29405,-1.28654 115.55058,-41.954093 117.85967,-41.950027 2.25173,0.004 111.52115,40.619397 112.85943,41.949847 0.47269,0.46992 12.29661,76.60765 26.27538,169.19496 27.29982,180.81832 26.23664,171.92039 21.29303,178.20517 L 413.85484,476 255.5,476 97.14516,476 95.072155,473.3646 z"
         style="fill:#d3bc5f" />
      <g
         transform="matrix(1.0499886,0,0,1.0499886,675.47879,35.837793)"
         id="g3625">
        <path
           style="fill:#000000"
           d="m -469.06489,374.79586 c -1.89316,-2.40932 -5.87245,-11.68219 -8.84287,-20.60629 -5.20368,-15.63359 -5.16872,-16.10148 0.95827,-12.82242 9.97516,5.33853 20.94709,21.14331 19.84114,28.58067 -1.23256,8.28888 -7.31501,10.75514 -11.95654,4.84804 z m 103.97085,-4.63114 c -7.04047,-4.61052 -12.80085,-9.05607 -12.80085,-9.87901 0,-0.82294 7.38647,-0.62144 16.41437,0.44776 17.67149,2.09295 20.32957,0.0451 30.54313,-23.53161 3.50908,-8.10028 3.04641,-10.45597 -3.53916,-18.0196 l -7.57596,-8.70113 -37.54916,6.34925 c -35.3504,5.97742 -51.20339,5.53683 -51.20339,-1.42311 0,-1.6624 6.52843,-3.49487 14.50763,-4.0722 9.87784,-0.71467 14.50762,-2.62107 14.50762,-5.97373 0,-3.48098 -4.06068,-4.92406 -13.85569,-4.92406 -8.36789,0 -13.02011,-1.35201 -11.746,-3.41356 1.16033,-1.87746 5.73366,-3.41356 10.16295,-3.41356 11.67524,0 18.8523,-3.43708 18.8523,-9.02832 0,-2.98509 -2.98648,-4.62766 -7.6805,-4.22421 -12.61483,1.08415 -19.62797,-0.2055 -19.62797,-3.60919 0,-1.76414 5.64164,-3.68427 12.53698,-4.26697 6.90298,-0.58334 13.23907,-3.19347 14.09929,-5.80815 1.14659,-3.48513 -0.59983,-4.22945 -6.56325,-2.79727 -4.46906,1.07329 -12.73387,0.004 -18.36624,-2.37643 l -10.24068,-4.32787 16.49902,-2.51399 c 9.07446,-1.3827 22.89938,-4.7736 30.72204,-7.53535 15.24669,-5.38276 30.94355,-3.69223 28.69826,3.09077 -0.75392,2.27757 -7.7755,5.51138 -15.60352,7.18622 -16.83655,3.60227 -19.43921,11.85993 -3.50241,11.11239 15.04151,-0.70555 16.11046,6.71812 1.36566,9.48427 -16.33993,3.06538 -16.07158,11.39685 0.35054,10.88311 7.19618,-0.22495 13.07598,1.41059 13.9387,3.8776 1.00682,2.87906 -2.35051,4.26695 -10.32178,4.26695 -11.38617,0 -22.86006,7.74693 -16.91541,11.42091 1.59122,0.98345 14.81738,-0.61256 29.39149,-3.54665 l 26.49836,-5.33471 10.03021,9.60954 c 5.51661,5.28525 10.0302,12.19911 10.0302,15.36409 0,7.98517 -11.98873,34.30641 -20.62881,45.29046 -8.75842,11.13455 -14.84049,11.19982 -31.42797,0.33726 z m -72.27024,-7.42998 c -3.57824,-3.55523 -12.57935,-25.52216 -11.07451,-27.027 3.47441,-3.47442 19.34051,14 19.34051,21.30102 0,8.25628 -3.36987,10.59064 -8.266,5.72598 z m 25.3338,-17.92119 c -11.38635,-14.37645 -9.43508,-16.94341 6.58297,-8.66017 9.97335,5.15745 15.35847,13.77675 12.00122,19.20889 -3.48054,5.63165 -7.63825,3.27165 -18.58419,-10.54872 z m 33.41565,-5.79735 -14.64108,-12.30776 14.64151,1.91856 c 15.53324,2.03543 24.61443,7.39701 24.61443,14.53254 0,9.446 -10.56474,7.66768 -24.61486,-4.14334 z m -67.43115,-24.70028 c -1.94351,-3.63148 -3.53366,-17.11459 -3.53366,-29.96248 0,-15.98522 -1.74155,-25.84621 -5.51656,-31.23579 -5.29775,-7.56361 -5.20979,-7.83067 2.2177,-6.73327 4.25384,0.6285 10.63902,5.04896 14.18928,9.82324 5.62562,7.56516 6.15481,12.28015 4.11863,36.69576 -2.36485,28.35658 -5.0638,33.3927 -11.47539,21.41254 z m 3.03445,-92.9936 c -0.14245,-2.48448 -0.0317,-15.26996 0.24617,-28.41216 l 0.50516,-23.89492 -9.63344,8.9702 c -14.84724,13.82502 -24.65415,18.07675 -27.08484,11.74247 -1.2623,-3.28951 5.61613,-13.74067 18.82522,-28.60326 11.44787,-12.8809 20.8143,-24.34678 20.8143,-25.47974 0,-1.13295 -5.64164,-2.53667 -12.53698,-3.11937 -18.00785,-1.52177 -19.18722,-9.59335 -1.40172,-9.59335 13.14958,0 13.9387,-0.56835 13.9387,-10.03922 0,-5.52157 -1.5361,-10.98858 -3.41356,-12.14891 -7.41288,-16.314576 19.13767,-1.700272 15.15621,12.59277 -1.86516,5.87657 -1.18692,6.79133 3.65711,4.93251 6.55867,-2.5168 16.33835,3.67074 13.37646,8.46319 -1.02887,1.66473 -5.62026,3.02678 -10.2031,3.02678 -6.58398,0 -8.33244,1.76825 -8.33244,8.42677 0,6.61807 1.28019,7.9355 5.96447,6.13798 5.64907,-2.16775 5.65606,-1.81809 0.13238,6.61214 -4.20919,6.42403 -6.10643,17.76635 -6.81787,40.75946 -0.84051,27.16427 -1.86597,32.02689 -6.95949,33.00121 -3.28555,0.62848 -6.09028,-0.89007 -6.23274,-3.37455 z m 3.67257,-68.19715 c 0,-6.23576 -5.95449,-2.39457 -9.97841,6.43698 -4.23647,9.29803 -4.22926,9.30529 2.86563,2.8845 3.91203,-3.54034 7.11278,-7.73501 7.11278,-9.32148 z m 30.55659,65.75109 -8.36845,-6.96439 19.41582,-0.11357 c 17.27747,-0.10106 19.35917,-0.86546 18.90154,-6.94068 -0.35758,-4.74706 -2.9614,-6.82712 -8.54616,-6.82712 -4.41754,0 -11.38713,-1.90986 -15.48799,-4.24414 -6.92746,-3.94324 -6.36918,-4.36677 7.87439,-5.97373 11.03225,-1.24466 15.64849,-3.40446 16.46471,-7.70332 0.91733,-4.83142 -1.36144,-5.99448 -11.91693,-6.08229 -7.17813,-0.0597 -15.91481,-2.2775 -19.41485,-4.92842 -5.76696,-4.36789 -4.64661,-4.91788 11.94746,-5.86517 15.67559,-0.89485 18.31116,-2.02621 18.31116,-7.86035 0,-5.81147 -1.91018,-6.65048 -12.97161,-5.69748 -7.35813,0.63394 -15.35921,-0.8485 -18.48888,-3.42563 -4.77285,-3.9302 -3.02264,-4.77349 12.97161,-6.24998 l 18.48888,-1.70678 -0.96193,-11.79861 c -0.52906,-6.48923 -3.46384,-14.56318 -6.52172,-17.94211 -7.28099,-8.04539 -3.29332,-11.61718 8.40365,-7.52721 7.92196,2.76999 9.47985,5.46055 10.38137,17.92903 1.03057,14.25343 1.34187,14.6082 10.96368,12.49489 12.50675,-2.74694 22.99223,2.15928 16.35319,7.65176 -2.46545,2.03967 -9.09095,4.22844 -14.72332,4.86393 -7.31595,0.82545 -10.53176,3.1929 -11.25987,8.28943 -0.90061,6.30397 0.64779,7.09828 13.3084,6.82712 20.09957,-0.4305 21.27607,7.12639 1.56955,10.08156 -12.37111,1.85517 -15.56554,3.70302 -15.56554,9.00408 0,5.74121 2.01995,6.51899 14.50763,5.58614 11.10162,-0.82931 14.50762,0.11838 14.50762,4.0366 0,3.58357 -4.35418,5.43537 -14.50762,6.17 -12.08193,0.87416 -14.50763,2.23693 -14.50763,8.15049 0,6.61721 1.3066,6.94727 19.18425,4.8461 19.5399,-2.29653 28.60558,0.87583 28.60558,10.00996 0,3.34085 -6.99875,4.29739 -28.16186,3.84898 -15.48903,-0.32818 -33.61268,0.66824 -40.27478,2.21429 -9.85605,2.28727 -13.67209,1.51342 -20.48135,-4.15338 z"
           id="path3623"
           inkscape:connector-curvature="0"
           sodipodi:nodetypes="ssssscsssscsssssssssssssccsssssscsscscsssccssssssssscsssssssssssscsssssssccsssssssssssssscssssssssssssscssssssssssssssssssss" />
      </g>
      <path
         sodipodi:nodetypes="cssscsssscccssssscc"
         inkscape:connector-curvature="0"
         id="path3766"
         d="M 98.223264,474.32881 C 96.361491,473.5803 93,466.52268 93,463.3623 c 0,-6.81391 45.23317,-334.97676 46.32613,-336.09221 0.66282,-0.67645 27.07307,-10.4755 58.68945,-21.77566 l 57.48433,-20.545748 55.19953,20.612328 c 30.35974,11.33678 55.65028,21.15545 56.2012,21.81926 C 367.85481,128.52999 418,458.49248 418,463.62139 c 0,3.22055 -3.47199,9.96202 -5.53919,10.75528 -1.93547,0.7427 -312.38876,0.69542 -314.237546,-0.0479 z M 407.34943,454.24363 c 0.72691,-1.17617 -48.00015,-320.29435 -49.07002,-321.36422 -1.03347,-1.03347 -100.74519,-37.862614 -102.62705,-37.905941 -0.6338,-0.01459 -25.35049,8.386921 -54.92598,18.670041 -45.34556,15.76621 -53.85515,19.02256 -54.29375,20.77653 -1.16917,4.67554 -43.24552,319.07369 -42.79882,319.79647 0.62223,1.00679 303.09346,1.03379 303.71562,0.0271 z"
         style="fill:#151310" />
    </g>
  </g>
</svg>
