<?xml version="1.0" encoding="UTF-8" standalone="no"?>
<!-- Created with Inkscape (http://www.inkscape.org/) -->

<svg
   xmlns:dc="http://purl.org/dc/elements/1.1/"
   xmlns:cc="http://creativecommons.org/ns#"
   xmlns:rdf="http://www.w3.org/1999/02/22-rdf-syntax-ns#"
   xmlns:svg="http://www.w3.org/2000/svg"
   xmlns="http://www.w3.org/2000/svg"
   xmlns:sodipodi="http://sodipodi.sourceforge.net/DTD/sodipodi-0.dtd"
   xmlns:inkscape="http://www.inkscape.org/namespaces/inkscape"
   id="svg3502"
   version="1.1"
   inkscape:version="0.48.4 r9943 custom"
   width="512"
   height="512"
   sodipodi:docname="WhiteJewled.svg">
  <metadata
     id="metadata3508">
    <rdf:RDF>
      <cc:Work
         rdf:about="">
        <dc:format>image/svg+xml</dc:format>
        <dc:type
           rdf:resource="http://purl.org/dc/dcmitype/StillImage" />
        <dc:title />
      </cc:Work>
    </rdf:RDF>
  </metadata>
  <defs
     id="defs3506" />
  <sodipodi:namedview
     pagecolor="#ffffff"
     bordercolor="#666666"
     borderopacity="1"
     objecttolerance="10"
     gridtolerance="10"
     guidetolerance="10"
     inkscape:pageopacity="0"
     inkscape:pageshadow="2"
     inkscape:window-width="866"
     inkscape:window-height="583"
     id="namedview3504"
     showgrid="false"
     inkscape:zoom="0.65186406"
     inkscape:cx="337.34053"
     inkscape:cy="310.02684"
     inkscape:window-x="175"
     inkscape:window-y="67"
     inkscape:window-maximized="0"
     inkscape:current-layer="g3512" />
  <g
     id="g3512">
    <g
       id="g3565">
      <g
         id="g3110">
        <path
           style="fill:#d3bc5f"
           d="M 65.249679,484.75 C 64.702313,484.0625 63.254296,479.225 62.031864,474 L 59.80926,464.5 88.794087,268.16054 C 104.73574,160.17384 118.16616,71.436297 118.63946,70.966001 119.11276,70.495704 150.2125,59.464348 187.75,46.451875 L 256,22.792834 324.25,46.451875 c 37.5375,13.012473 68.63817,24.044759 69.11261,24.516191 0.47443,0.471433 13.90328,89.208974 29.84188,197.194544 L 452.18376,464.5 449.96464,474 c -1.22051,5.225 -2.66695,10.0625 -3.21432,10.75 C 445.96043,485.74211 406.60664,486 256,486 105.39336,486 66.039567,485.74211 65.249679,484.75 z"
           id="path3516"
           inkscape:connector-curvature="0" />
        <path
           style="fill:#110f0d"
           d="M 67.333178,484.22708 C 65.952189,483.34853 62,468.47944 62,464.16237 62,457.71704 119.18293,73.440458 120.31204,72.298029 121.63782,70.956609 253.47753,25 256,25 258.52318,25 390.36257,70.956876 391.68684,72.298029 392.81422,73.439783 450,457.73405 450,464.16841 c 0,4.31238 -3.95319,19.18076 -5.33318,20.05867 -1.52552,0.97049 -375.808119,0.97049 -377.333642,0 z M 439.35585,454.23325 C 440.19167,452.88086 383.88777,79.54905 382.66873,78.360474 382.02593,77.733734 353.2625,67.73363 318.75,56.13802 L 256,35.055093 193.25,56.13802 c -34.5125,11.59561 -63.27535,21.595714 -63.91744,22.222454 -1.22344,1.194191 -57.532912,374.506336 -56.694278,375.863266 0.623488,1.00883 366.094098,1.0183 366.717568,0.01 z"
           id="path3514"
           inkscape:connector-curvature="0"
           sodipodi:nodetypes="sssssssscsscssscc" />
      </g>
      <g
         transform="matrix(1.1311236,0,0,1.1311236,-613.73549,-14.663102)"
         id="g3543">
        <path
           style="fill:#000000"
           d="m 837.54369,384.45473 c -5.7007,-7.19779 -15.5122,-14.94815 -21.8033,-17.22302 -17.1637,-6.20648 -13.8012,-10.1362 7.603,-8.88559 l 19.0414,1.11258 0,-23.18087 0,-23.18087 -21.5251,0.98946 c -11.8388,0.54419 -30.9313,3.15204 -42.4277,5.79522 -33.4638,7.6937 -41.5968,5.50768 -48.1742,-12.9486 -1.7712,-4.97021 -1.0671,-5.66809 3.6361,-3.6035 11.3566,4.98521 31.2893,5.46923 63.3739,1.53891 35.9592,-4.40499 41.3235,-6.38454 38.3437,-14.14975 -1.8166,-4.73387 -3.4413,-4.79316 -15.4305,-0.56313 -14.6043,5.15268 -30.3302,5.7723 -40.7157,1.60425 -5.6257,-2.2578 -4.6283,-3.17917 6.6231,-6.11823 7.2855,-1.90308 17.777,-4.37748 23.3146,-5.49869 13.9017,-2.81469 31.3261,-13.92924 31.3261,-19.98211 0,-6.90597 -7.3025,-6.28166 -23.1515,1.97928 -7.9139,4.12498 -16.8943,6.33128 -21.8862,5.37701 -5.9678,-1.14081 -10.7872,0.70347 -16.3347,6.25093 -9.0345,9.03447 -19.7833,10.2787 -22.7184,2.62978 -1.3356,-3.48056 3.548,-10.82728 14.5477,-21.88495 9.107,-9.15505 16.5244,-17.60125 16.483,-18.76934 -0.041,-1.16809 -4.7894,-4.44634 -10.5512,-7.285 -16.5482,-8.15276 -14.8721,-12.16036 5.1609,-12.34037 9.8869,-0.0888 22.5383,-2.52068 28.1142,-5.40408 12.6939,-6.56431 21.7171,-6.67042 26.9896,-0.31738 7.4194,8.93981 1.4344,13.93036 -19.5541,16.30493 -19.4867,2.20466 -20.1495,2.5946 -20.1495,11.85443 0,5.26613 -1.4902,10.49577 -3.3116,11.62143 -4.9646,3.06828 -3.9866,8.27888 1.5538,8.27888 2.676,0 10.9217,-3.15674 18.3239,-7.01498 29.4527,-15.3516 56.5685,4.72982 34.2794,25.38665 -6.4239,5.95343 -7.3578,8.12075 -3.4994,8.12075 2.8948,0 7.5276,3.23288 10.2952,7.18418 4.6445,6.63099 6.0598,6.87621 18.3816,3.18451 14.4963,-4.3432 24.2336,-1.53432 27.9121,8.0517 3.508,9.1416 -0.5733,10.81933 -21.6663,8.90668 -20.282,-1.8391 -20.3752,-1.80768 -18.1227,6.10939 4.8021,16.87855 6.0441,51.43497 2.3391,65.08224 -4.9342,18.175 -12.777,18.46588 -26.6203,0.98727 z m -148.44474,-7.61037 c -10.53544,-18.55291 -9.42453,-22.73997 3.74407,-14.11156 8.12046,5.32071 8.17011,5.28491 10.03978,-7.24236 1.03342,-6.92423 2.8203,-21.00585 3.97083,-31.29246 l 2.09186,-18.70298 -16.89703,8.36226 c -15.40113,7.62194 -16.89704,9.36557 -16.89704,19.6953 0,13.85911 -8.31663,30.87347 -15.09096,30.87347 -8.35865,0 -8.95791,-8.67305 -1.72851,-25.0163 8.14835,-18.42071 8.09621,-18.03388 2.43073,-18.03388 -6.03795,0 -15.41524,-10.80544 -15.41524,-17.76291 0,-4.65806 1.18465,-5.017 6.74211,-2.04273 18.83095,10.07802 56.74144,-0.59651 58.99864,-16.61235 1.121,-7.95398 0.9231,-8.0504 -5.18232,-2.52504 -3.49133,3.15961 -11.11976,7.40823 -16.95208,9.44139 -8.65098,3.01575 -12.11867,2.70433 -18.82639,-1.69074 -11.42763,-7.48767 -10.26301,-11.85781 3.16004,-11.85781 11.28034,0 11.36535,-0.11117 9.49655,-12.41832 -1.03712,-6.83008 -4.92869,-15.77127 -8.64793,-19.86932 l -6.76225,-7.45099 7.35088,0 c 9.80438,0 23.6076,14.25255 23.6076,24.37609 0,12.21015 11.9476,7.78128 14.5852,-5.40659 1.6261,-8.1307 0.3313,-12.04136 -6.26781,-18.92931 -14.77852,-15.42545 -9.2961,-24.73998 9.51651,-16.16838 13.9867,6.37278 16.965,19.30807 10.3853,45.10553 -3.1354,12.29345 -6.7424,42.46941 -8.0154,67.05769 -3.2547,62.86489 -11.22406,74.29551 -29.43714,42.2223 z m 75.91754,-25.31438 c -3.2388,-2.05197 -0.432,-4.24087 9.9347,-7.74764 12.667,-4.28492 14.3312,-5.96788 13.4956,-13.64707 -0.73,-6.70759 0.5073,-8.75942 5.2819,-8.75942 8.2935,0 18.5139,11.65934 15.9888,18.23973 -4.0184,10.47186 -34.2567,18.53145 -44.701,11.9144 z m -61.71687,-161.1239 c -20.33625,-10.41912 -24.10087,-23.21707 -5.79522,-19.70104 11.32539,2.17532 54.10039,2.81769 55.47819,0.83314 0.32,-0.46089 -0.08,-7.17133 -0.8897,-14.91209 -1.4489,-13.85832 -1.6663,-14.0741 -14.1851,-14.0741 -8.582,0 -15.6633,-2.53708 -21.7898,-7.80686 l -9.07599,-7.80686 21.30969,0.35587 21.3097,0.35587 1.0277,-12.41833 1.0278,-12.41832 -14.9172,0 c -10.9989,0 -17.3578,-2.10064 -24.2086,-7.997157 -11.72482,-10.091551 -9.44697,-12.468233 7.763,-8.099874 9.6122,2.439844 21.5658,2.307654 41.2876,-0.456557 15.267,-2.139849 33.0571,-4.6353 39.5334,-5.545444 7.9261,-1.1139 13.0811,-0.0811 15.7707,3.159636 6.1708,7.435359 -3.3486,13.205579 -24.7081,14.976869 -16.7076,1.385527 -18.1233,2.122127 -16.4022,8.534687 1.036,3.86005 1.904,9.79197 1.9288,13.18204 0.039,5.27128 1.7598,5.8421 11.8867,3.94229 12.445,-2.33469 21.2741,1.8855 21.2741,10.16875 0,3.18994 -4.4228,4.56184 -14.7066,4.56184 -16.6257,0 -16.9141,0.25463 -20.2148,17.84875 l -2.4071,12.83098 19.4921,-2.78089 c 28.8349,-4.1138 40.0904,-3.27173 47.6443,3.56445 12.7183,11.50991 6.6603,13.23937 -46.6482,13.31732 -41.2898,0.0604 -53.3998,1.16805 -63.3585,5.79522 -14.93,6.937 -15.0338,6.93923 -27.42667,0.58981 z m 130.76737,-50.19105 c -2.5447,-5.08941 -7.5622,-12.60642 -11.15,-16.70446 -6.4977,-7.42177 -6.497,-7.451 0.1873,-7.451 11.4326,0 29.2152,14.18998 29.2152,23.31278 0,12.20146 -12.2895,12.76884 -18.2525,0.84268 z"
           id="path3531"
           inkscape:connector-curvature="0"
           sodipodi:nodetypes="ssscccsscssssssssssssscsssssssssssssssssssssscsssssssssssssscsssssssssscsssssccsscccccsssssssscsssscssssssssss" />
      </g>
    </g>
  </g>
</svg>
