<?xml version="1.0" encoding="UTF-8" standalone="no"?>
<!-- Created with Inkscape (http://www.inkscape.org/) -->

<svg
   xmlns:dc="http://purl.org/dc/elements/1.1/"
   xmlns:cc="http://creativecommons.org/ns#"
   xmlns:rdf="http://www.w3.org/1999/02/22-rdf-syntax-ns#"
   xmlns:svg="http://www.w3.org/2000/svg"
   xmlns="http://www.w3.org/2000/svg"
   xmlns:sodipodi="http://sodipodi.sourceforge.net/DTD/sodipodi-0.dtd"
   xmlns:inkscape="http://www.inkscape.org/namespaces/inkscape"
   id="svg4397"
   version="1.1"
   inkscape:version="0.48.4 r9943 custom"
   width="512"
   height="512"
   sodipodi:docname="WhiteGoldLance.svg">
  <metadata
     id="metadata4403">
    <rdf:RDF>
      <cc:Work
         rdf:about="">
        <dc:format>image/svg+xml</dc:format>
        <dc:type
           rdf:resource="http://purl.org/dc/dcmitype/StillImage" />
        <dc:title />
      </cc:Work>
    </rdf:RDF>
  </metadata>
  <defs
     id="defs4401" />
  <sodipodi:namedview
     pagecolor="#ffffff"
     bordercolor="#666666"
     borderopacity="1"
     objecttolerance="10"
     gridtolerance="10"
     guidetolerance="10"
     inkscape:pageopacity="0"
     inkscape:pageshadow="2"
     inkscape:window-width="640"
     inkscape:window-height="480"
     id="namedview4399"
     showgrid="false"
     inkscape:zoom="0.4609375"
     inkscape:cx="256"
     inkscape:cy="244.09001"
     inkscape:window-x="252"
     inkscape:window-y="22"
     inkscape:window-maximized="0"
     inkscape:current-layer="g4407" />
  <g
     id="g4407">
    <g
       id="g3900">
      <path
         inkscape:connector-curvature="0"
         id="path4413"
         d="m 103.12951,473.43752 c -4.889381,-6.21585 -5.772542,2.36208 17.4072,-169.07198 13.53945,-100.13579 22.08696,-160.35204 22.87725,-161.16766 1.00047,-1.03252 84.91146,-31.23148 107.24808,-38.59781 l 5.16204,-1.70237 52.83796,19.60707 c 29.06088,10.78388 53.22556,19.992 53.6993,20.46248 0.47373,0.47048 11.84841,72.78282 25.27705,160.69409 26.23412,171.74297 25.23809,163.41209 20.28945,169.70326 L 405.85484,476 255.5,476 l -150.35484,0 -2.01565,-2.56248 z"
         style="fill:#d3bc5f" />
      <g
         transform="matrix(1.1711716,0,0,1.1711716,414.60295,-15.959412)"
         style="fill:#ff0000"
         id="g3885">
        <path
           style="fill:#ff0000"
           d="m -151.46875,154.65625 c -4.09713,0.0615 -3.15923,5.1898 -0.125,6.34375 2.98057,2.03653 7.95077,4.93061 4.65625,9.0625 -4.45878,10.30585 -13.38413,19.38487 -14.65625,30.9375 0.76623,6.51106 9.18855,5.21393 13.84375,5.71875 3.57778,-0.16041 5.95674,3.26041 3.59375,6.34375 -4.35088,9.00587 -14.1779,14.127 -17.78125,23.53125 10.10368,-3.56038 17.14047,-12.67863 26.15144,-18.15211 7.49381,-6.76451 18.54715,-10.01016 23.91106,-18.81664 2.37402,-5.13294 -4.18684,-8.08044 -8.3125,-8.03125 -7.63392,-0.74121 -15.28114,0.3857 -22.90625,0.71875 6.09894,-7.64215 15.86156,-13.48549 18.4375,-23.3125 0.30298,-8.96922 -9.94301,-12.58871 -17.25,-13.78125 -3.17494,-0.29148 -6.36948,-0.70016 -9.5625,-0.5625 z m 42.21875,62.375 c -23.67323,1.42366 -43.26089,17.07765 -61.33205,30.83595 -3.71441,2.3207 -7.59787,5.40347 -12.04295,4.22655 -5.20145,2.03287 -9.08722,8.15589 -8.8125,13.625 2.70022,4.40343 8.34217,-0.41805 11.5625,-1.75 13.39779,-7.09199 25.31469,-17.67318 39.71875,-22.625 5.23999,-0.78807 4.54811,6.91955 5.0625,10.1875 0.2977,10.87717 0.38405,22.05658 -0.53125,32.75 -3.34793,-7.79696 -12.77993,-15.52338 -21.34375,-10.65625 -11.39052,7.09269 -12.31311,23.38503 -7.625,34.84375 3.80097,12.22927 13.57935,20.91515 20.1875,31.5 2.24819,2.3586 0.74149,4.75197 0.78125,7.28125 2.96439,4.22667 8.62523,-0.35874 11.9375,-2.0625 9.88529,-5.20811 15.86452,-16.08977 14.40625,-27.25 -0.36046,-8.17823 -6.7875,-14.77094 -5.34375,-23.21875 0.17157,-17.30013 5.70005,-34.1418 5.09375,-51.4375 0.16994,-4.78542 -5.27764,-7.78174 -7.21875,-10.21875 6.98361,-2.65812 15.99101,-4.19815 22.75,-0.40625 0.38163,5.48406 -9.30987,8.43185 -5.71875,13.9375 5.35698,2.43471 11.194535,-1.90837 16.1875,-3.6875 5.616441,-2.00143 11.118874,-8.75764 6.96875,-14.53125 -5.500868,-7.76088 -15.216432,-11.91572 -24.6875,-11.34375 z M -154.96875,290 c 7.5434,1.96935 12.16377,9.80418 16.34375,15.90625 4.83681,9.03851 4.96084,20.24903 2.1875,29.90625 -10.68387,-10.08491 -18.6814,-24.00269 -20.84375,-38.53125 -0.004,-2.27061 -0.60599,-6.63167 2.3125,-7.28125 z m 29.0625,33.03125 c 3.33075,-0.021 -0.13512,5.62207 -1.25,4.40625 -0.27656,-1.46508 -0.10361,-3.5565 1.25,-4.40625 z m -15.78125,28.125 c -7.57866,0.69774 -15.89633,-0.5814 -23.03125,2.25 -2.72482,3.76467 3.19573,6.91462 5.78125,8.8125 12.58812,7.75066 27.95463,14.0996 43.03125,10.875 8.04225,-1.65992 12.21963,-12.75285 7.0625,-19.15625 -7.26489,-4.32732 -16.59371,-2.03691 -24.6875,-2.8125 -2.71881,0.004 -5.43769,-0.017 -8.15625,0.0312 z"
           id="path3883"
           inkscape:connector-curvature="0" />
      </g>
      <path
         sodipodi:nodetypes="csssscscsccsscsssscc"
         inkscape:connector-curvature="0"
         id="path4411"
         d="m 105.25012,473.75325 c -2.34157,-2.9341 -4.24783,-7.88513 -4.21738,-10.95359 0.0612,-6.16344 42.6761,-317.90876 43.57432,-318.76356 C 145.80279,142.89818 253.3947,105 255.42952,105 c 2.42715,0 103.80751,37.80716 105.23458,39.2445 1.17096,1.17938 49.35703,313.39268 49.31945,319.55687 -0.009,1.48425 -1.03586,4.49863 -2.28179,6.69863 l -2.26535,4 -149.59306,0.25325 c -118.92608,0.20133 -149.7981,-0.004 -150.59323,-1 z M 399.34258,454.25 c 0.62101,-1.01118 -45.10215,-301.36267 -46.15533,-303.19037 -0.4565,-0.7922 -22.6221,-9.44531 -49.25689,-19.22914 l -48.42691,-17.78878 -50.50172,17.54234 c -27.77595,9.64829 -51.12835,18.1566 -51.89422,18.90735 -0.97159,0.95242 -7.51901,46.94938 -21.66138,152.17568 -11.1479,82.94587 -20.05722,151.15317 -19.7985,151.57179 0.6106,0.98797 287.08822,0.99905 287.69495,0.0111 z"
         style="fill:#f21712" />
      <path
         inkscape:connector-curvature="0"
         id="path4409"
         d="m 105.25012,473.75325 c -2.34157,-2.9341 -4.24783,-7.88513 -4.21738,-10.95359 0.0612,-6.16344 42.6761,-317.90876 43.57432,-318.76356 C 145.80279,142.89818 253.3947,105 255.42952,105 c 2.42715,0 103.80751,37.80716 105.23458,39.2445 1.17096,1.17938 49.35703,313.39268 49.31945,319.55687 -0.009,1.48425 -1.03586,4.49863 -2.28179,6.69863 l -2.26535,4 -149.59306,0.25325 c -118.92608,0.20133 -149.7981,-0.004 -150.59323,-1 z M 399.34258,454.25 c 0.62101,-1.01118 -45.10215,-301.36267 -46.15533,-303.19037 -0.4565,-0.7922 -22.6221,-9.44531 -49.25689,-19.22914 l -48.42691,-17.78878 -50.50172,17.54234 c -27.77595,9.64829 -51.12835,18.1566 -51.89422,18.90735 -0.97159,0.95242 -7.51901,46.94938 -21.66138,152.17568 -11.1479,82.94587 -20.05722,151.15317 -19.7985,151.57179 0.6106,0.98797 287.08822,0.99905 287.69495,0.0111 z"
         style="fill:#161513" />
    </g>
  </g>
</svg>
