<?xml version="1.0" encoding="UTF-8" standalone="no"?>
<!-- Created with Inkscape (http://www.inkscape.org/) -->

<svg
   xmlns:dc="http://purl.org/dc/elements/1.1/"
   xmlns:cc="http://creativecommons.org/ns#"
   xmlns:rdf="http://www.w3.org/1999/02/22-rdf-syntax-ns#"
   xmlns:svg="http://www.w3.org/2000/svg"
   xmlns="http://www.w3.org/2000/svg"
   xmlns:sodipodi="http://sodipodi.sourceforge.net/DTD/sodipodi-0.dtd"
   xmlns:inkscape="http://www.inkscape.org/namespaces/inkscape"
   id="svg4605"
   version="1.1"
   inkscape:version="0.48.4 r9943 custom"
   width="512"
   height="512"
   sodipodi:docname="WhiteGoldSilver.svg">
  <metadata
     id="metadata4611">
    <rdf:RDF>
      <cc:Work
         rdf:about="">
        <dc:format>image/svg+xml</dc:format>
        <dc:type
           rdf:resource="http://purl.org/dc/dcmitype/StillImage" />
        <dc:title />
      </cc:Work>
    </rdf:RDF>
  </metadata>
  <defs
     id="defs4609" />
  <sodipodi:namedview
     pagecolor="#ffffff"
     bordercolor="#666666"
     borderopacity="1"
     objecttolerance="10"
     gridtolerance="10"
     guidetolerance="10"
     inkscape:pageopacity="0"
     inkscape:pageshadow="2"
     inkscape:window-width="1035"
     inkscape:window-height="712"
     id="namedview4607"
     showgrid="false"
     inkscape:zoom="0.4609375"
     inkscape:cx="256"
     inkscape:cy="256"
     inkscape:window-x="45"
     inkscape:window-y="22"
     inkscape:window-maximized="0"
     inkscape:current-layer="g4615" />
  <g
     id="g4615">
    <g
       id="g3312">
      <path
         inkscape:connector-curvature="0"
         id="path4621"
         d="m 81.239624,479.75 c -0.552897,-0.6875 -1.995733,-4.4 -3.206303,-8.25 l -2.201037,-7 25.083856,-177.09934 C 114.71226,189.99602 126,109.79936 126,109.18584 c 0,-0.61351 0.91337,-1.60429 2.02972,-2.20174 C 131.74047,104.99816 253.45469,63 255.49934,63 c 1.10517,0 29.23041,9.814635 62.50053,21.8103 51.98803,18.74448 60.66289,22.15324 61.71306,24.25 0.67205,1.34183 13.42558,81.97027 28.34115,179.17429 l 27.11924,176.73459 -2.21977,6.76541 c -1.22087,3.72098 -2.66497,7.32791 -3.2091,8.01541 C 428.9598,480.74138 392.90978,481 255.5,481 118.09872,481 82.036857,480.74132 81.239624,479.75 z"
         style="fill:#d3bc5f" />
      <g
         transform="matrix(1.3586678,0,0,1.3586678,704.94087,-76.297251)"
         id="g3250">
        <path
           style="fill:#ff0000"
           d="m -368.08221,357.37962 c -9.09419,-1.71879 -16.35961,-9.71818 -13.30924,-14.6538 1.21928,-1.97282 5.62772,-5.40423 9.79653,-7.6253 6.89145,-3.67168 7.14292,-3.50899 2.76963,1.79202 -6.72534,8.15197 -3.10639,10.18696 13.21286,7.42982 12.67032,-2.14062 14.04971,-3.36124 14.04971,-12.43276 0,-11.76516 -0.68828,-11.97961 -13.07492,-4.07379 -8.89548,5.67756 -9.13388,5.67756 -4.63687,0 4.06336,-5.1301 3.99277,-5.9853 -0.494,-5.9853 -5.29833,0 -11.11173,-9.8305 -7.7823,-13.15993 0.99464,-0.99464 1.80843,0.005 1.80843,2.22151 0,2.31779 5.23856,4.02995 12.33007,4.02995 10.81098,0 12.19409,-0.95754 11.22627,-7.77204 -0.7369,-5.18865 -3.11309,-7.43466 -7.14872,-6.75705 -3.3247,0.55824 -6.04491,-0.60756 -6.04491,-2.59068 0,-1.98311 -2.03452,-3.60566 -4.52115,-3.60566 -2.48663,0 -7.53845,-2.40139 -11.22627,-5.33643 -6.20506,-4.93844 -5.38774,-5.17671 10.95892,-3.19484 15.93294,1.93172 17.84889,1.43471 19.5503,-5.07149 1.92967,-7.37908 -5.57942,-14.03114 -15.83888,-14.03114 -2.74202,0 -6.7393,-2.1132 -8.88284,-4.69601 -3.17795,-3.82921 -0.22742,-5.17132 15.98468,-7.27098 30.90235,-4.00223 39.83715,-3.90532 41.33261,0.44829 0.76049,2.21396 -3.93583,5.94858 -10.43627,8.29917 -15.07921,5.45272 -13.85828,16.12606 2.02557,17.70748 12.18691,1.21335 17.45252,9.69172 6.01918,9.69172 -11.17795,0 -20.78619,6.34256 -20.78619,13.72131 0,5.57918 1.8229,6.27395 12.08983,4.60786 12.71086,-2.06269 17.60572,4.36285 6.04492,7.93524 -12.10159,3.73951 -16.41527,7.44235 -16.78575,14.40885 -0.33907,6.3758 1.57269,7.09255 18.51155,6.94032 12.449,-0.11191 19.88992,1.44871 21.82327,4.57694 4.95021,8.00961 -1.85566,10.61781 -30.17948,11.56551 -14.96245,0.50066 -30.27815,1.67358 -34.0349,2.6065 -3.75675,0.93292 -10.21499,1.05655 -14.35164,0.27461 z m 92.09067,-96.58588 c -10.41644,-8.87242 -27.90407,-24.7834 -38.86141,-35.35773 l -19.92243,-19.22606 -18.07418,19.67173 c -16.83579,18.32388 -54.99671,47.58951 -62.05433,47.58951 -1.71111,0 9.81603,-12.27887 25.61588,-27.28638 15.79984,-15.0075 32.613,-34.60188 37.36258,-43.54304 l 8.63559,-16.25667 -7.77203,-5.2376 c -10.62637,-7.16114 -9.74876,-11.30343 2.3948,-11.30343 13.1241,0 21.72237,11.26024 17.3599,22.73441 -3.496,9.19515 -1.15538,11.26882 39.83089,35.28831 31.62331,18.53244 42.39692,27.97508 45.13551,39.55948 3.47552,14.70169 -7.48134,12.25077 -29.65077,-6.63253 z"
           id="path3248"
           inkscape:connector-curvature="0"
           sodipodi:nodetypes="csssssssssssssssssssssssssssssssssccsscsssscssssss" />
      </g>
      <path
         sodipodi:nodetypes="sssscssscsscsscsssscc"
         inkscape:connector-curvature="0"
         id="path4619"
         d="m 83.265046,479.18497 c -1.53838,-0.97713 -5.257384,-11.59288 -5.286997,-15.09152 -0.04681,-5.53048 49.150861,-351.72779 50.301891,-353.96753 1.0408,-2.02527 10.47616,-5.59199 64.2187,-24.275707 L 255.49729,63.948594 315.87165,85.704 c 33.2059,11.965473 60.96634,22.21454 61.68987,22.7757 0.87061,0.67524 10.46874,60.5423 28.3806,177.0203 14.88581,96.8 27.06348,177.16705 27.06149,178.59345 -0.005,3.46977 -3.71837,14.10683 -5.26866,15.09152 -1.61454,1.02551 -342.855361,1.02551 -344.469904,0 z M 422.34474,454.25 c 0.44725,-0.72483 -51.73931,-334.76709 -52.84312,-338.2449 -0.39684,-1.25032 -16.02525,-7.1435 -57.24189,-21.584871 L 255.56372,74.555244 197.66127,94.027622 c -31.84635,10.709808 -58.57039,19.950858 -59.38676,20.535658 -1.11754,0.80056 -7.49237,42.80036 -25.79926,169.97517 -13.373227,92.90154 -24.099467,169.26056 -23.836088,169.68672 0.616156,0.99696 333.090478,1.0217 333.705578,0.0248 z"
         style="fill:#f4130f" />
      <path
         inkscape:connector-curvature="0"
         id="path4617"
         d="m 83.265046,479.18497 c -1.53838,-0.97713 -5.257384,-11.59288 -5.286997,-15.09152 -0.04681,-5.53048 49.150861,-351.72779 50.301891,-353.96753 1.0408,-2.02527 10.47616,-5.59199 64.2187,-24.275707 L 255.49729,63.948594 315.87165,85.704 c 33.2059,11.965473 60.96634,22.21454 61.68987,22.7757 0.87061,0.67524 10.46874,60.5423 28.3806,177.0203 14.88581,96.8 27.06348,177.16705 27.06149,178.59345 -0.005,3.46977 -3.71837,14.10683 -5.26866,15.09152 -1.61454,1.02551 -342.855361,1.02551 -344.469904,0 z M 422.34474,454.25 c 0.44725,-0.72483 -51.73931,-334.76709 -52.84312,-338.2449 -0.39684,-1.25032 -16.02525,-7.1435 -57.24189,-21.584871 L 255.56372,74.555244 197.66127,94.027622 c -31.84635,10.709808 -58.57039,19.950858 -59.38676,20.535658 -1.11754,0.80056 -7.49237,42.80036 -25.79926,169.97517 -13.373227,92.90154 -24.099467,169.26056 -23.836088,169.68672 0.616156,0.99696 333.090478,1.0217 333.705578,0.0248 z"
         style="fill:#131211" />
    </g>
  </g>
</svg>
