<?xml version="1.0" encoding="UTF-8" standalone="no"?>
<!-- Created with Inkscape (http://www.inkscape.org/) -->

<svg
   xmlns:dc="http://purl.org/dc/elements/1.1/"
   xmlns:cc="http://creativecommons.org/ns#"
   xmlns:rdf="http://www.w3.org/1999/02/22-rdf-syntax-ns#"
   xmlns:svg="http://www.w3.org/2000/svg"
   xmlns="http://www.w3.org/2000/svg"
   xmlns:inkscape="http://www.inkscape.org/namespaces/inkscape"
   version="1.1"
   width="128"
   height="128"
   id="svg2">
  <defs
     id="defs4" />
  <metadata
     id="metadata7">
    <rdf:RDF>
      <cc:Work
         rdf:about="">
        <dc:format>image/svg+xml</dc:format>
        <dc:type
           rdf:resource="http://purl.org/dc/dcmitype/StillImage" />
      </cc:Work>
    </rdf:RDF>
  </metadata>
  <g
     id="layer1">
    <path
       d="m 17.30536,116.56489 c 0,0 93.27856,1.21404 93.07622,0.40468 C 110.17924,116.16021 91.564,18.227835 91.564,18.227835 L 61.820077,8.1108558 32.076152,17.823157 17.30536,116.56489 z"
       inkscape:connector-curvature="0"
       id="path2800"
       style="fill:#c3aa55;fill-opacity:1;fill-rule:evenodd;stroke:none" />
    <g
       transform="translate(0.664935,-5.153247)"
       id="g11588">
      <path
         d="m 34.244156,105.05974 c 19.449351,-4.65454 15.792209,-6.316883 32.249352,-6.64935 16.457143,-0.332468 17.953246,0.664933 21.277922,1.163632 2.813982,0.422095 3.98961,2.327278 4.488311,-1.163632 0.475439,-3.328081 -2.161039,-3.158442 -10.971428,-3.657143 -8.81039,-0.498701 -24.27013,1.828571 -25.600001,1.994805 -1.32987,0.166234 -6.815585,0.831169 -11.968831,2.161039 -8.285943,2.138309 -10.315699,1.842549 -11.303896,3.158439 -1.002595,1.33507 1.496104,2.99221 1.828571,2.99221 z"
         inkscape:connector-curvature="0"
         id="path1372"
         style="fill:#000000;fill-opacity:1;fill-rule:evenodd;stroke:#000000;stroke-width:1px;stroke-linecap:butt;stroke-linejoin:miter;stroke-opacity:1" />
      <path
         d="m 57.018182,67.490909 c 0,0 3.989611,-2.493507 6.815585,0.997402 2.825974,3.490909 0.664935,4.987013 0.332467,17.454546 -0.332467,12.467532 -0.664935,27.428573 -2.825974,27.428573 -2.161039,0 -1.994805,-7.97922 -2.161039,-15.293508 -0.166234,-7.314286 2.327273,-25.766234 0.664935,-27.096104 -1.662337,-1.32987 -2.825974,-3.158442 -2.825974,-3.490909 z"
         inkscape:connector-curvature="0"
         id="path2100"
         style="fill:#000000;fill-opacity:1;fill-rule:evenodd;stroke:#000000;stroke-width:1px;stroke-linecap:butt;stroke-linejoin:miter;stroke-opacity:1" />
      <path
         d="m 42.223377,79.958441 c -1.496104,0.997403 0,4.155844 1.828571,7.979221 1.828572,3.823377 3.158442,6.483117 4.488312,5.984416 1.32987,-0.498702 0.664935,-4.488312 -0.997403,-7.314286 -1.662337,-2.825974 -5.153246,-6.649351 -5.31948,-6.649351 z"
         inkscape:connector-curvature="0"
         id="path2828"
         style="fill:#000000;fill-opacity:1;fill-rule:evenodd;stroke:#000000;stroke-width:1px;stroke-linecap:butt;stroke-linejoin:miter;stroke-opacity:1" />
      <path
         d="m 79.293507,78.794805 c -3.490909,-0.332468 -3.657143,1.994805 -4.820779,4.322078 -1.163637,2.327273 -1.32987,6.815584 -1.32987,6.815584 0,0 2.161039,-0.831169 4.488311,-3.158441 2.327273,-2.327273 4.654546,-3.989611 3.989611,-5.485715 -0.664935,-1.496104 -2.493507,-2.327272 -2.327273,-2.493506 z"
         inkscape:connector-curvature="0"
         id="path3556"
         style="fill:#000000;fill-opacity:1;fill-rule:evenodd;stroke:#000000;stroke-width:1px;stroke-linecap:butt;stroke-linejoin:miter;stroke-opacity:1" />
      <path
         d="m 44.051948,83.116883 c -1.163636,-1.163637 4.987013,-2.992208 13.797403,-4.322078 8.81039,-1.32987 21.776624,-1.662338 21.277922,-0.332468 -0.498701,1.32987 -9.807792,0.997403 -15.293506,1.496104 -5.485715,0.498702 -19.781819,3.158442 -19.781819,3.158442 z"
         inkscape:connector-curvature="0"
         id="path4284"
         style="fill:#000000;fill-opacity:1;fill-rule:evenodd;stroke:#000000;stroke-width:1px;stroke-linecap:butt;stroke-linejoin:miter;stroke-opacity:1" />
      <path
         d="m 45.335877,87.337958 c -1.115585,-0.836342 4.781079,-2.150592 13.227653,-3.10641 8.446575,-0.955819 20.877381,-1.194774 20.399273,-0.238955 -0.478108,0.955818 -9.40279,0.716864 -14.661977,1.075296 -5.259188,0.358432 -18.964949,2.270069 -18.964949,2.270069 z"
         inkscape:connector-curvature="0"
         id="path5012"
         style="fill:#000000;fill-opacity:1;fill-rule:evenodd;stroke:#000000;stroke-width:0.83009124px;stroke-linecap:butt;stroke-linejoin:miter;stroke-opacity:1" />
      <path
         d="m 48.110106,93.239257 c -0.842283,-0.836342 3.609785,-2.150592 9.987073,-3.10641 6.37729,-0.955819 15.762732,-1.194774 15.401753,-0.238955 -0.360978,0.955818 -7.099245,0.716864 -11.070009,1.075296 -3.970765,0.358432 -14.318817,2.270069 -14.318817,2.270069 z"
         inkscape:connector-curvature="0"
         id="path5014"
         style="fill:#000000;fill-opacity:1;fill-rule:evenodd;stroke:#000000;stroke-width:0.72127944px;stroke-linecap:butt;stroke-linejoin:miter;stroke-opacity:1" />
      <path
         d="m 51.200001,74.034554 c 3.657143,1.286265 3.158441,1.029012 9.974026,0.643132 6.815584,-0.385879 11.802597,0.38588 12.467532,-0.771758 0.664935,-1.157639 0.664935,-2.058025 -1.32987,-2.443904 -1.994805,-0.38588 -6.815584,-0.38588 -10.971429,0.514506 -4.155844,0.900385 -9.974026,1.929398 -10.140259,2.058024 z"
         inkscape:connector-curvature="0"
         id="path5016"
         style="fill:#000000;fill-opacity:1;fill-rule:evenodd;stroke:#000000;stroke-width:0.87964135px;stroke-linecap:butt;stroke-linejoin:miter;stroke-opacity:1" />
    </g>
    <g
       transform="matrix(0.984405,0,0,1.171745,0.28553,-11.10902)"
       id="g11608">
      <path
         d="m 61.672728,29.423376 c 1.662338,2.493507 1.496104,5.319481 1.662337,8.976624 0.166234,3.657143 -0.166233,7.812987 -0.166233,7.812987 l 1.994805,0 c 0,0 1.32987,-2.992208 0.831169,-8.477922 -0.498702,-5.485715 -4.155844,-8.477922 -4.322078,-8.311689 z"
         inkscape:connector-curvature="0"
         id="path5744"
         style="fill:#000000;fill-opacity:1;fill-rule:evenodd;stroke:#000000;stroke-width:1px;stroke-linecap:butt;stroke-linejoin:miter;stroke-opacity:1" />
      <path
         d="m 55.79679,47.088413 c 0.569095,-0.960924 6.117769,-1.494769 9.959159,-1.601539 3.841391,-0.106769 8.109602,-0.213539 8.109602,0.320308 0,0.533846 -2.560927,0.213539 -8.109602,0.640615 -5.548674,0.427077 -9.959159,0.854154 -9.959159,0.640616 z"
         inkscape:connector-curvature="0"
         id="path6472"
         style="fill:#000000;fill-opacity:1;fill-rule:evenodd;stroke:#000000;stroke-width:0.74142319px;stroke-linecap:butt;stroke-linejoin:miter;stroke-opacity:1" />
      <path
         d="m 54.998481,45.510444 c -1.117058,1.512245 0.303533,3.21293 1.127326,6.047868 0.823792,2.834938 1.09839,5.291885 1.922182,4.724897 0.823793,-0.566987 0.686494,-4.535901 -0.411896,-6.803852 -1.09839,-2.26795 -1.225235,-4.614088 -2.637612,-3.968913 z"
         inkscape:connector-curvature="0"
         id="path7200"
         style="fill:#000000;fill-opacity:1;fill-rule:evenodd;stroke:#000000;stroke-width:0.96903676px;stroke-linecap:butt;stroke-linejoin:miter;stroke-opacity:1" />
      <path
         d="m 73.803899,45.465787 c -2.413376,0 -2.413376,4.44426 -2.413376,7.08304 0,2.638779 -0.134076,3.749844 0.804459,3.888727 0.938535,0.138883 1.340764,-1.111065 1.742993,-4.166494 0.40223,-3.055429 0,-6.66639 -0.134076,-6.805273 z"
         inkscape:connector-curvature="0"
         id="path7928"
         style="fill:#000000;fill-opacity:1;fill-rule:evenodd;stroke:#000000;stroke-width:0.82088387px;stroke-linecap:butt;stroke-linejoin:miter;stroke-opacity:1" />
      <path
         d="m 57.386107,51.826729 c 0.491385,-0.640193 5.282396,-0.995854 8.599249,-1.066987 3.316853,-0.07113 7.002246,-0.142266 7.002246,0.213397 0,0.355662 -2.211236,0.142265 -7.002246,0.426795 -4.79101,0.284529 -8.599249,0.569059 -8.599249,0.426795 z"
         inkscape:connector-curvature="0"
         id="path8658"
         style="fill:#000000;fill-opacity:1;fill-rule:evenodd;stroke:#000000;stroke-width:0.56233603px;stroke-linecap:butt;stroke-linejoin:miter;stroke-opacity:1" />
      <path
         d="m 57.911324,56.35738 c 0.501178,-0.918562 5.013631,-1.05584 8.126511,-0.888554 3.11288,0.167288 6.571132,0.365004 6.548531,0.897856 -0.0226,0.532851 -2.081279,0.03057 -6.589212,0.06128 -4.507932,0.03071 -8.094871,0.142561 -8.08583,-0.07058 z"
         inkscape:connector-curvature="0"
         id="path8660"
         style="fill:#000000;fill-opacity:1;fill-rule:evenodd;stroke:#000000;stroke-width:0.66756338px;stroke-linecap:butt;stroke-linejoin:miter;stroke-opacity:1" />
      <path
         d="m 44.265126,40.409057 c 3.976961,2.024358 7.533866,1.214917 13.153511,-0.351133 5.619644,-1.566051 7.672685,-2.550211 13.037137,-3.081722 5.364451,-0.531514 10.464012,-0.256038 11.032586,-0.959819 0.568573,-0.703779 0.664651,-1.960582 -1.138046,-2.124735 -1.802698,-0.164153 -9.996367,0.695287 -17.543881,2.67134 -7.547515,1.976055 -18.247324,3.721728 -18.541307,3.846069 z"
         inkscape:connector-curvature="0"
         id="path8664"
         style="fill:#000000;fill-opacity:1;fill-rule:evenodd;stroke:#000000;stroke-width:0.78492796px;stroke-linecap:butt;stroke-linejoin:miter;stroke-opacity:1" />
      <path
         d="m 53.361041,29.89067 c 5.31948,1.188297 5.485714,1.03976 10.140259,-0.297071 4.654546,-1.336833 8.357658,-2.274371 7.48052,-3.861958 -1.662338,-3.008767 -0.997402,0.173888 -6.316883,2.104868 -5.319481,1.930978 -11.636364,2.054161 -11.303896,2.054161 z"
         inkscape:connector-curvature="0"
         id="path9392"
         style="fill:#000000;fill-opacity:1;fill-rule:evenodd;stroke:#000000;stroke-width:0.9452734px;stroke-linecap:butt;stroke-linejoin:miter;stroke-opacity:1" />
      <path
         d="m 52.400796,41.249964 c 2.318257,2.555444 5.59109,2.439288 2.045521,5.227045 -3.54557,2.787757 -10.50034,5.343201 -11.045812,5.227044 -0.545472,-0.116156 -4.363778,-0.232313 -3.136466,-0.929252 1.227313,-0.696939 3.298755,-0.464626 7.526164,-2.903913 4.22741,-2.439289 5.428801,-3.717011 5.292433,-4.646263 -0.136368,-0.929252 -0.545472,-1.974661 -0.68184,-1.974661 z"
         inkscape:connector-curvature="0"
         id="path10120"
         style="fill:#000000;fill-opacity:1;fill-rule:evenodd;stroke:#000000;stroke-width:0.75710988px;stroke-linecap:butt;stroke-linejoin:miter;stroke-opacity:1" />
      <path
         d="m 67.832135,35.918097 c 3.819888,5.415433 5.888968,9.049895 7.570045,11.189775 1.681076,2.139879 3.270435,4.924861 4.000154,4.170206 0.493168,-0.51002 0.635232,-1.014098 0.165197,-3.048092 -0.546539,-2.36505 -1.891311,-3.280073 -3.711358,-5.363291 -3.053492,-3.495013 -7.710971,-6.655421 -8.024038,-6.948598 z"
         inkscape:connector-curvature="0"
         id="path10848"
         style="fill:#000000;fill-opacity:1;fill-rule:evenodd;stroke:#000000;stroke-width:0.89498514px;stroke-linecap:butt;stroke-linejoin:miter;stroke-opacity:1" />
    </g>
  </g>
</svg>
