<?xml version="1.0" encoding="UTF-8" standalone="no"?>
<!-- Created with Inkscape (http://www.inkscape.org/) -->

<svg
   xmlns:dc="http://purl.org/dc/elements/1.1/"
   xmlns:cc="http://creativecommons.org/ns#"
   xmlns:rdf="http://www.w3.org/1999/02/22-rdf-syntax-ns#"
   xmlns:svg="http://www.w3.org/2000/svg"
   xmlns="http://www.w3.org/2000/svg"
   xmlns:sodipodi="http://sodipodi.sourceforge.net/DTD/sodipodi-0.dtd"
   xmlns:inkscape="http://www.inkscape.org/namespaces/inkscape"
   id="svg3036"
   version="1.1"
   inkscape:version="0.48.4 r9943 custom"
   width="512"
   height="512"
   sodipodi:docname="WhiteBishop.svg">
  <metadata
     id="metadata3042">
    <rdf:RDF>
      <cc:Work
         rdf:about="">
        <dc:format>image/svg+xml</dc:format>
        <dc:type
           rdf:resource="http://purl.org/dc/dcmitype/StillImage" />
        <dc:title />
      </cc:Work>
    </rdf:RDF>
  </metadata>
  <defs
     id="defs3040" />
  <sodipodi:namedview
     pagecolor="#ffffff"
     bordercolor="#666666"
     borderopacity="1"
     objecttolerance="10"
     gridtolerance="10"
     guidetolerance="10"
     inkscape:pageopacity="0"
     inkscape:pageshadow="2"
     inkscape:window-width="640"
     inkscape:window-height="480"
     id="namedview3038"
     showgrid="false"
     inkscape:zoom="0.4609375"
     inkscape:cx="578.16949"
     inkscape:cy="256.98712"
     inkscape:window-x="147"
     inkscape:window-y="22"
     inkscape:window-maximized="0"
     inkscape:current-layer="g3046" />
  <g
     id="g3046">
    <g
       id="g3434">
      <path
         inkscape:connector-curvature="0"
         id="path3050"
         d="M 72.249679,484.75 C 71.702313,484.0625 70.254357,479.225 69.032,474 L 66.809531,464.5 93.29548,276.65929 C 107.86275,173.34689 120.16811,88.435496 120.64071,87.967294 121.92769,86.69231 253.12009,41 255.49386,41 c 2.32043,0 129.53764,45.664114 130.8678,46.974479 0.47391,0.466858 13.678,85.376091 29.34242,188.687181 L 444.18485,464.5 441.96519,474 c -1.22081,5.225 -2.6675,10.0625 -3.21487,10.75 -1.46182,1.83607 -365.038821,1.83607 -366.500641,0 z"
         style="fill:#d3bc5f" />
      <g
         transform="matrix(1.0248367,0,0,1.0248367,-432.37391,-17.548525)"
         id="g3419">
        <path
           style="fill:#000000"
           d="m 735.64554,439.82119 c -1.0431,-2.7183 -7.96792,-6.86882 -15.38849,-9.22341 -7.42056,-2.35458 -17.068,-6.5246 -21.43873,-9.26671 -14.29132,-8.96607 -9.27325,-12.21928 15.01061,-9.73129 l 22.95742,2.35204 0,-22.92132 c 0,-20.7978 -1.01103,-23.97927 -10.91313,-34.34087 l -10.91313,-11.41955 -22.58096,5.0655 c -21.50861,4.82494 -23.12887,4.71453 -34.11873,-2.32502 l -11.53776,-7.39056 12.36168,-0.94617 c 34.99059,-2.67814 72.89587,-8.9175 81.63722,-13.43786 12.74755,-6.59199 24.333,-6.45322 34.12996,0.40882 15.12148,10.59153 9.97003,15.68335 -15.99071,15.80566 -21.77287,0.10242 -23.24352,0.56372 -16.95787,5.31736 11.5983,8.77136 17.14413,81.2943 6.99284,91.44557 -6.85795,6.85795 -10.78272,7.03801 -13.25022,0.60781 z m -129.36818,-3.68057 c -2.99133,-3.60431 -3.50013,-13.40243 -1.74236,-33.55315 1.36553,-15.65417 1.42696,-28.46214 0.13651,-28.46214 -1.29046,0 -5.86642,2.25434 -10.16881,5.00966 -8.40466,5.38245 -15.3771,6.63239 -33.42889,5.99277 -15.55052,-0.55098 -14.46569,-5.45748 2.3185,-10.48614 17.04016,-5.10538 56.841,-33.90231 56.841,-41.12595 0,-6.58695 -6.14524,-6.58949 -17.65955,-0.007 -4.85638,2.77615 -15.18722,5.03206 -22.95742,5.01313 l -14.12764,-0.0353 15.18678,-7.94889 c 21.19869,-11.09486 43.08974,-33.14454 43.08974,-43.40131 0,-9.69542 5.73939,-10.67309 16.87368,-2.87433 9.40301,6.58613 10.2172,17.59909 1.66885,22.57324 -3.39946,1.9781 -9.21965,5.97352 -12.93374,8.87873 -6.55716,5.12907 -6.48038,5.49657 2.64893,12.67769 5.17101,4.06748 9.40183,8.95049 9.40183,10.85108 0,1.9006 -5.75511,8.72803 -12.78913,15.17203 -12.45031,11.40599 -12.67488,12.06261 -8.47659,24.78356 4.584,13.88966 5.88104,51.9633 1.98496,58.2673 -3.28212,5.31058 -10.8867,4.67558 -15.86665,-1.32489 z M 675.8609,310.26803 c -11.12289,-6.47848 -6.55646,-9.3368 17.68771,-11.07146 13.12771,-0.93928 29.06738,-4.3962 35.4215,-7.68205 9.84419,-5.09063 12.96797,-5.29604 21.1201,-1.38883 5.26195,2.52199 10.14128,7.56649 10.84296,11.21002 1.06516,5.53093 -0.2324,6.24606 -7.85971,4.33173 -5.02451,-1.26108 -20.6781,0.11521 -34.78574,3.05838 -29.86832,6.23124 -34.11145,6.38547 -42.42682,1.54221 z m 39.73399,-48.50969 c 0,-1.58276 -5.9601,-5.83473 -13.24466,-9.44881 -10.97748,-5.44625 -12.0355,-6.83245 -6.18085,-8.09804 14.16353,-3.06171 15.8936,-7.59086 15.8936,-41.60784 0,-18.90837 -1.55795,-33.87511 -3.66153,-35.17519 -2.01383,-1.24462 -9.86344,-1.21514 -17.44357,0.0655 -9.92239,1.67638 -13.24216,3.73541 -11.8542,7.35238 1.06032,2.76314 4.74192,5.0239 8.18134,5.0239 6.88305,0 16.45863,9.49663 13.03136,12.92391 -1.18662,1.18661 -5.78384,2.34022 -10.21606,2.56358 -5.6595,0.2852 -8.41381,2.91869 -9.25182,8.84597 -1.02542,7.25288 -0.0578,8.14295 6.88004,6.32866 7.95549,-2.08041 17.27062,2.56963 17.27062,8.62136 0,1.7047 -5.56276,3.09945 -12.36169,3.09945 -11.43951,0 -12.36168,0.80776 -12.36168,10.82792 0,12.00981 -5.46321,24.49118 -10.72,24.49118 -1.87421,0 -3.40765,-6.35744 -3.40765,-14.12764 0,-13.20918 -0.66072,-14.12764 -10.16326,-14.12764 -5.5898,0 -12.10529,-2.33999 -14.47886,-5.19997 -3.64767,-4.39517 -2.07472,-5.55829 10.16327,-7.51523 12.26842,-1.96179 14.47885,-3.60463 14.47885,-10.76092 0,-7.33778 -1.20799,-8.14247 -9.20887,-6.13438 -6.05089,1.51868 -10.22612,0.66533 -12.17524,-2.48842 -3.56148,-5.76259 2.20611,-10.15349 13.43732,-10.22992 8.51708,-0.058 9.64992,-2.49228 4.75568,-10.21933 -1.69562,-2.67706 -4.86423,-3.76649 -7.04134,-2.42096 -5.78897,3.57778 -17.50367,-1.03577 -21.47577,-8.4577 -3.1721,-5.92713 -1.50374,-6.46742 21.02996,-6.81042 13.46146,-0.20492 31.86921,-2.88283 40.90611,-5.95093 15.81649,-5.36984 16.72705,-5.3 24.35738,1.86832 7.13948,6.7072 8.136,11.87753 10.03483,52.06441 1.26426,26.75692 0.72025,47.21108 -1.35897,51.09613 -3.43809,6.42415 -13.81434,9.12868 -13.81434,3.60067 z m -102.48108,-9.55101 c -3.57428,-4.30674 -3.58349,-10.44534 -0.0467,-31.12161 2.4232,-14.16616 3.83488,-34.00395 3.13707,-44.08399 -1.29274,-18.67406 -0.69574,-20.1905 6.14932,-15.61992 8.45288,5.64414 12.00744,19.2569 12.00744,45.98449 0,41.68139 -8.675,59.98954 -21.24714,44.84103 z m 48.56857,-102.70352 c -1.45791,-1.45791 3.16881,-5.95006 10.28161,-9.98255 17.28388,-9.79882 22.80944,-18.855 14.41836,-23.6311 -3.44033,-1.9582 -5.29327,-5.11668 -4.11766,-7.01886 4.53088,-7.33111 29.79829,6.87834 29.79829,16.75744 0,10.11083 -43.52065,30.73502 -50.3806,23.87507 z m -25.7553,-23.6407 c 12.22443,-11.71307 15.35436,-16.92838 13.77773,-22.95742 -1.62182,-6.201856 -0.53287,-7.801289 5.31141,-7.801289 4.04331,0 8.80895,2.781379 10.59031,6.180839 7.3661,14.05718 -14.31786,39.734 -33.55518,39.734 l -11.94208,0 z"
           id="path3417"
           inkscape:connector-curvature="0"
           sodipodi:nodetypes="sssscsscsscssssssscssssssccccsssssssssccssssssssssssssssssssssssssssssssssssssssscssssccssssssssssscs" />
      </g>
      <path
         sodipodi:nodetypes="sssscssssscsssscc"
         inkscape:connector-curvature="0"
         id="path3048"
         d="M 74.333178,484.22708 C 72.934299,483.33715 69,468.45528 69,464.05381 69,458.46366 121.13145,90.54654 122.08661,89.395639 122.59762,88.779912 152.8305,77.851437 189.27078,65.110137 l 66.25507,-23.165999 63.98708,23.071644 c 35.19289,12.689404 64.52241,23.614473 65.17672,24.277931 C 385.82109,90.440973 442,457.97084 442,464.22559 c 0,4.26797 -3.9627,19.12963 -5.33318,20.00149 -1.52551,0.97048 -360.808133,0.97048 -362.333642,0 z M 431.35399,454.23624 C 432.29606,452.71195 376.2006,96.742012 374.89076,95.932485 373.06417,94.803592 257.19604,54.005373 255.72519,53.973206 254.27707,53.941537 134.00578,94.760359 132.12832,95.920693 130.801,96.741021 78.656683,452.63548 79.632479,454.21436 c 0.626082,1.01302 351.095481,1.03483 351.721511,0.0219 z"
         style="fill:#11100e" />
    </g>
  </g>
</svg>
