<?xml version="1.0" encoding="UTF-8" standalone="no"?>
<!-- Created with Inkscape (http://www.inkscape.org/) -->

<svg
   xmlns:dc="http://purl.org/dc/elements/1.1/"
   xmlns:cc="http://creativecommons.org/ns#"
   xmlns:rdf="http://www.w3.org/1999/02/22-rdf-syntax-ns#"
   xmlns:svg="http://www.w3.org/2000/svg"
   xmlns="http://www.w3.org/2000/svg"
   xmlns:sodipodi="http://sodipodi.sourceforge.net/DTD/sodipodi-0.dtd"
   xmlns:inkscape="http://www.inkscape.org/namespaces/inkscape"
   id="svg3754"
   version="1.1"
   inkscape:version="0.48.4 r9943 custom"
   width="512"
   height="512"
   sodipodi:docname="WhiteKnight.svg">
  <metadata
     id="metadata3760">
    <rdf:RDF>
      <cc:Work
         rdf:about="">
        <dc:format>image/svg+xml</dc:format>
        <dc:type
           rdf:resource="http://purl.org/dc/dcmitype/StillImage" />
        <dc:title />
      </cc:Work>
    </rdf:RDF>
  </metadata>
  <defs
     id="defs3758" />
  <sodipodi:namedview
     pagecolor="#ffffff"
     bordercolor="#666666"
     borderopacity="1"
     objecttolerance="10"
     gridtolerance="10"
     guidetolerance="10"
     inkscape:pageopacity="0"
     inkscape:pageshadow="2"
     inkscape:window-width="1160"
     inkscape:window-height="712"
     id="namedview3756"
     showgrid="false"
     inkscape:zoom="0.4609375"
     inkscape:cx="256"
     inkscape:cy="256"
     inkscape:window-x="0"
     inkscape:window-y="22"
     inkscape:window-maximized="0"
     inkscape:current-layer="g3764" />
  <g
     id="g3764">
    <g
       id="g3652">
      <path
         inkscape:connector-curvature="0"
         id="path3768"
         d="m 95.072155,473.3646 c -4.895079,-6.22308 -5.788704,2.25431 18.785045,-178.20493 12.60791,-92.58719 23.31032,-168.72495 23.78313,-169.19502 1.29405,-1.28654 115.55058,-41.954093 117.85967,-41.950027 2.25173,0.004 111.52115,40.619397 112.85943,41.949847 0.47269,0.46992 12.29661,76.60765 26.27538,169.19496 27.29982,180.81832 26.23664,171.92039 21.29303,178.20517 L 413.85484,476 255.5,476 97.14516,476 95.072155,473.3646 z"
         style="fill:#d3bc5f" />
      <g
         transform="matrix(1.0499886,0,0,1.0499886,675.47879,35.837793)"
         id="g3625">
        <path
           style="fill:#000000"
           d="m -442.46875,91.59375 c -5.67669,1.199695 -3.5556,8.90193 -0.6875,11.75 1.7802,4.97533 3.0533,11.46414 0.75,16.34375 -7.64699,3.32377 -18.2627,-1.42608 -24.84375,4.96875 -2.89362,4.83553 3.83856,8.01375 7.6875,8.65625 5.79259,1.56866 11.88368,1.03749 17.59375,2.96875 -12.03604,16.88573 -28.8877,30.51967 -38.34375,49 -2.97752,4.88463 2.21185,10.91932 7.5,9.125 11.46978,-3.38032 19.69526,-13.03282 28.46875,-20.6875 -0.0376,16.38187 -1.33978,32.90204 -0.375,49.21875 2.91342,6.61728 13.90154,4.24732 14.5625,-2.8125 4.52352,-21.58959 -0.3695,-44.7762 7.5,-65.6875 1.42015,-4.15909 6.66405,-7.58041 5.46875,-12.3125 -2.80623,-2.92788 -6.90525,1.9587 -9.46875,0.53125 -0.64812,-3.55835 -1.72965,-11.15626 3.90625,-10.8125 5.12672,-0.15753 14.23712,-0.25133 14.71875,-6.96875 -1.067,-7.98945 -11.82272,-11.1676 -18.46875,-7.84375 4.59051,-10.66686 -3.98045,-23.175809 -14.6875,-25.46875 -0.42627,0.0182 -0.85885,-0.03866 -1.28125,0.03125 z m 55.09375,5.75 c -4.85838,-0.409466 -6.98093,5.44616 -4,8.875 7.66837,8.02691 9.37948,19.47853 9.625,30.25 -10.63313,1.66248 -21.99135,0.62615 -32.125,4.3125 -4.19518,3.54351 1.94139,8.00417 5.34375,9.09375 8.25055,3.47463 17.47669,0.68795 25.875,1.96875 2.39545,2.70176 1.14095,8.23409 -3.125,8.125 -9.0782,2.20078 -19.26513,0.076 -28.0625,3.53125 -3.51866,3.73207 2.61833,7.38432 5.65625,8.875 8.38734,4.21194 18.04902,2.91825 26.96875,4.625 2.6834,2.35505 -1.1374,6.49323 -4.03125,6.875 -7.36678,2.92801 -16.23624,0.98922 -23.28125,4.8125 -2.38732,4.52777 4.50205,6.48899 7.46875,8.1875 5.65085,2.96926 12.23713,2.55363 18.15625,4 3.04742,1.885 3.36048,8.74911 -1.46875,8.3125 -12.70882,1.19286 -25.52869,0.4244 -38.28125,0.75 8.88226,6.11834 16.7095,18.15858 28.9375,16.09375 22.16897,-5.03342 45.39236,-2.07417 67.96875,-3.75 4.42849,0.10278 9.63457,-3.17915 7.59375,-8.21875 -2.24299,-9.37977 -14.04423,-10.15408 -22,-9.78125 -8.30461,-0.26183 -17.01213,3.2309 -25.0625,1.09375 -1.47643,-3.56774 -0.24957,-8.56083 4.375,-8.5 7.60492,-1.95017 17.9341,0.53824 23.5,-6.28125 2.86585,-5.00498 -2.51516,-9.73054 -7.4375,-9.0625 -6.68469,-0.89907 -14.22538,2.32589 -20.4375,-0.53125 -1.91481,-3.91988 1.07907,-8.0529 5.34375,-8.28125 7.61794,-2.54686 18.17937,-1.07314 23.5625,-8.03125 1.86809,-5.25891 -5.36738,-6.94494 -9.125,-7.28125 -6.35128,-1.30137 -13.73518,1.28787 -19.5625,-1.5 -1.28881,-4.70506 2.29336,-9.46434 7.1875,-9.625 7.0858,-1.26835 16.53213,-1.84654 20.53125,-8.75 1.99019,-6.17867 -6.41988,-8.85641 -11.15625,-8.8125 -5.402,-0.92627 -10.91367,2.19869 -16,1.375 -3.8473,-8.81104 0.69745,-21.4257 -7.8125,-28.1875 -4.46226,-2.768154 -9.82179,-4.548193 -15.125,-4.5625 z m -54.03125,54.96875 c -0.11101,3.21704 -5.18564,7.57427 -6.09375,8.0625 1.45549,-2.81575 3.35038,-6.73575 6.09375,-8.0625 z M -371.96875,242 c -14.30713,1.18874 -27.34584,8.03332 -41.60558,9.91487 -7.71138,0.99442 -16.27421,3.3066 -23.51942,3.08513 -5.16062,-6.54549 -13.91673,-12.8768 -22.53125,-10.46875 -3.47447,3.94208 2.75397,8.07356 4.0625,11.75 6.99885,17.4493 1.73878,37.07333 6.43568,55.03869 1.27978,4.39306 3.76851,11.09198 9.18932,10.99256 5.69979,-3.02653 4.6914,-11.21676 6.06547,-16.61678 1.06946,-13.96263 4.08701,-28.51486 1.18453,-42.41447 -2.05061,-4.12646 -1.58077,-4.73292 2.97693,-2.04493 8.92769,4.65614 19.30923,6.18436 28.99182,4.01368 -1.93477,4.32627 -8.48004,4.43108 -12.625,5.21875 -4.81673,0.95712 -12.48848,0.6539 -14.375,6.1875 0.86844,6.43705 9.45066,5.87812 14.28125,6.0625 3.98736,0.74607 10.11258,-2.32812 12.96875,1.25 0.12452,6.09861 -8.18118,6.98377 -12.78125,7.46875 -5.47636,0.36705 -14.11224,-0.2855 -16.34375,6 0.83165,5.41621 8.30876,4.53532 12.40625,4.96875 4.14442,0.63298 10.29946,-0.99425 13.34375,2.5 -0.10624,3.35348 -5.30505,3.14359 -7.6875,3.90625 -6.91349,1.35525 -15.69547,0.0176 -21,5.375 -1.51644,6.81499 7.43448,8.79236 12.46875,8.71875 26.0765,0.18012 51.56986,-6.57661 77.25,-10.28125 3.7694,5.9638 11.99298,10.28548 11.96875,18 -3.0988,9.08296 -6.70664,18.80201 -13.21875,25.9375 -7.49891,5.73993 -17.89353,1.0334 -26.5,1.34375 -2.98734,-0.0401 -10.77791,-1.36328 -8.875,3.78125 8.39328,7.55613 18.11081,14.4453 28.90625,18.0625 9.83971,2.88494 17.3783,-6.22011 21.90625,-13.625 7.54971,-12.8106 15.13987,-26.336 17.59375,-41.1875 -1.89157,-11.68637 -13.15742,-18.71027 -20.6875,-26.8125 -4.90926,-1.26446 -11.11758,2.07102 -16.48459,2.43719 -13.22443,2.39297 -26.60764,6.13416 -39.98416,6.00031 -1.29356,-2.33869 3.57365,-4.13683 5.09375,-5.125 6.84286,-4.27294 16.17492,-0.13031 22.53125,-5.125 3.53762,-4.77887 -3.26348,-8.85436 -7.5,-8.9375 -5.7828,-1.57752 -13.36458,1.31565 -18.0625,-2.71875 5.40965,-6.53611 17.32972,-2.99114 22.1875,-10.6875 2.05535,-5.36287 -5.45365,-7.63598 -9.5,-7.4375 -4.01213,-0.49891 -9.36683,1.1192 -12.5625,-1.4375 7.75645,-7.65589 21.66385,-4.94547 29.15625,-13.28125 3.003,-5.09746 -3.14528,-9.58175 -7.90625,-9.53125 -2.36783,-0.4276 -4.81763,-0.38193 -7.21875,-0.28125 z m -22.5625,86.25 c 11.1683,8.15272 20.65808,20.94169 35.0625,22.96875 7.81515,0.55276 9.65851,-10.27969 4.875,-14.96875 -10.70468,-10.72657 -27.54362,-9.24025 -41.37957,-11.8992 -7.52945,-1.88773 -0.50663,1.63162 1.44207,3.8992 z m -23.78125,1.25 c -5.3576,1.20671 -2.00413,7.84527 0.28125,10.5625 5.6818,7.11412 10.60353,15.9332 19.09375,19.90625 7.30004,1.52929 10.70299,-8.73574 7,-13.9375 -5.24162,-9.1212 -15.68637,-14.42562 -25.625,-16.5625 -0.24987,0.0113 -0.50294,-0.0249 -0.75,0.0312 z m -29.59375,3.78125 c -5.20653,1.50847 -1.37106,8.05164 -0.5,11.375 3.48179,7.51956 5.3854,17.13997 12.78125,21.875 5.07504,2.95311 8.98127,-3.40126 8.5,-7.9375 -0.0802,-9.34903 -7.68614,-16.73997 -14.125,-22.59375 -1.89876,-1.39207 -4.16554,-2.98448 -6.65625,-2.71875 z m -33.3125,4.5 c -5.0492,1.73891 -0.8658,8.39751 -0.3125,11.8125 3.74991,9.66749 5.78515,20.74517 12.9375,28.5625 4.78919,4.45525 12.09724,0.25716 12.96875,-5.59375 2.35316,-9.50843 -4.88963,-18.22814 -10.625,-25.0625 -4.10193,-4.06602 -9.01267,-8.96846 -14.96875,-9.71875 z"
           id="path3623"
           inkscape:connector-curvature="0" />
      </g>
      <path
         sodipodi:nodetypes="cssscsssscccssssscc"
         inkscape:connector-curvature="0"
         id="path3766"
         d="M 98.223264,474.32881 C 96.361491,473.5803 93,466.52268 93,463.3623 c 0,-6.81391 45.23317,-334.97676 46.32613,-336.09221 0.66282,-0.67645 27.07307,-10.4755 58.68945,-21.77566 l 57.48433,-20.545748 55.19953,20.612328 c 30.35974,11.33678 55.65028,21.15545 56.2012,21.81926 C 367.85481,128.52999 418,458.49248 418,463.62139 c 0,3.22055 -3.47199,9.96202 -5.53919,10.75528 -1.93547,0.7427 -312.38876,0.69542 -314.237546,-0.0479 z M 407.34943,454.24363 c 0.72691,-1.17617 -48.00015,-320.29435 -49.07002,-321.36422 -1.03347,-1.03347 -100.74519,-37.862614 -102.62705,-37.905941 -0.6338,-0.01459 -25.35049,8.386921 -54.92598,18.670041 -45.34556,15.76621 -53.85515,19.02256 -54.29375,20.77653 -1.16917,4.67554 -43.24552,319.07369 -42.79882,319.79647 0.62223,1.00679 303.09346,1.03379 303.71562,0.0271 z"
         style="fill:#151310" />
    </g>
  </g>
</svg>
