<?xml version="1.0" encoding="UTF-8" standalone="no"?>
<!-- Created with Inkscape (http://www.inkscape.org/) -->

<svg
   xmlns:dc="http://purl.org/dc/elements/1.1/"
   xmlns:cc="http://creativecommons.org/ns#"
   xmlns:rdf="http://www.w3.org/1999/02/22-rdf-syntax-ns#"
   xmlns:svg="http://www.w3.org/2000/svg"
   xmlns="http://www.w3.org/2000/svg"
   xmlns:sodipodi="http://sodipodi.sourceforge.net/DTD/sodipodi-0.dtd"
   xmlns:inkscape="http://www.inkscape.org/namespaces/inkscape"
   id="svg3089"
   version="1.1"
   inkscape:version="0.48.4 r9939"
   width="512"
   height="512"
   sodipodi:docname="WhiteElephant.svg">
  <metadata
     id="metadata3095">
    <rdf:RDF>
      <cc:Work
         rdf:about="">
        <dc:format>image/svg+xml</dc:format>
        <dc:type
           rdf:resource="http://purl.org/dc/dcmitype/StillImage" />
        <dc:title />
      </cc:Work>
    </rdf:RDF>
  </metadata>
  <defs
     id="defs3093" />
  <sodipodi:namedview
     pagecolor="#ffffff"
     bordercolor="#666666"
     borderopacity="1"
     objecttolerance="10"
     gridtolerance="10"
     guidetolerance="10"
     inkscape:pageopacity="0"
     inkscape:pageshadow="2"
     inkscape:window-width="640"
     inkscape:window-height="480"
     id="namedview3091"
     showgrid="false"
     inkscape:zoom="0.4609375"
     inkscape:cx="256"
     inkscape:cy="256"
     inkscape:window-x="530"
     inkscape:window-y="89"
     inkscape:window-maximized="0"
     inkscape:current-layer="g3107" />
  <g
     id="g3107">
    <path
       style="fill:#d3bc5f"
       d="m 66.329882,485.22504 c -0.643564,-0.40938 -2.290651,-5.15715 -3.660192,-10.55059 L 60.179615,464.86819 89.098572,268.71104 C 106.58897,150.07374 118.50806,72.072043 119.25876,71.334605 120.95804,69.665367 252.87664,24.004996 256,24.004996 c 3.12019,0 135.04104,45.659482 136.73859,47.326966 0.74719,0.733956 12.71288,79.041408 30.16001,197.377168 l 28.92141,196.16052 -2.48989,9.80553 c -1.36943,5.39304 -3.01644,10.14048 -3.66,10.54986 -1.52984,0.97316 -377.810405,0.97316 -379.340238,0 z"
       id="path3111"
       inkscape:connector-curvature="0" />
    <path
       style="fill:#11100c"
       d="M 67.333178,484.22708 C 65.931803,483.33556 62,468.4519 62,464.03857 62,457.42794 119.13941,73.453832 120.29681,72.286781 121.67492,70.897181 253.39025,25 256,25 258.61107,25 390.3259,70.897706 391.70112,72.286781 392.85503,73.45231 450,457.46372 450,464.05241 c 0,4.40256 -3.93407,19.2846 -5.33318,20.17467 -1.52552,0.97049 -375.808119,0.97049 -377.333642,0 z M 439.3472,454.24723 C 440.17677,452.90497 383.87612,79.540939 382.66699,78.366098 382.02515,77.742452 353.2625,67.742009 318.75,56.142891 L 256,35.053585 193.25,56.142891 c -34.5125,11.599118 -63.27584,21.599561 -63.91854,22.223207 -1.21285,1.176899 -57.513387,374.530522 -56.681084,375.877212 0.609925,0.98688 366.086904,0.99079 366.696824,0.004 z M 254.5,435.35348 c -8.92957,-5.87275 -22.95601,-12.51935 -32.25319,-15.28357 -4.67815,-1.3909 -11.85884,-2.42849 -20.22607,-2.92261 -7.13508,-0.42136 -13.25371,-1.04694 -13.59695,-1.39017 -1.4529,-1.45291 1.02876,-2.65167 7.82976,-3.78213 19.51222,-3.24333 37.94239,-9.43666 56.79639,-19.08603 12.36386,-6.32775 21.7064,-12.46596 20.62281,-13.54955 -0.23658,-0.23658 -4.24068,1.14722 -8.898,3.07512 -11.11167,4.5997 -24.00201,8.28705 -35.76286,10.23018 -9.88274,1.63283 -34.1639,1.98188 -41.42976,0.59557 -6.79334,-1.29615 -5.24633,-2.8453 4.13651,-4.14222 14.97833,-2.07035 29.5235,-6.36688 45.78136,-13.52344 7.50286,-3.30268 26.5,-14.65231 26.5,-15.83211 0,-0.96342 -3.10626,-0.1838 -7,1.75688 -3.60363,1.79609 -18.95864,6.15595 -30,8.51811 -15.50358,3.31679 -48.35509,5.00425 -45.69818,2.34734 0.29579,-0.2958 6.98639,-1.83926 14.86799,-3.42992 7.88161,-1.59065 18.48451,-4.32235 23.56202,-6.07042 11.1364,-3.83403 32.76817,-15.04109 32.76817,-16.97665 0,-2.29106 -37.39643,-2.51269 -48.56401,-0.28781 -7.5406,1.50228 -9.09413,1.5385 -13,0.30306 L 186.5,344.5 186.22068,331.20736 c -0.20668,-9.83579 -0.62026,-13.42346 -1.59032,-13.79571 -0.72104,-0.27669 -3.74535,0.40189 -6.72067,1.50795 -5.7948,2.15418 -17.28482,5.04134 -20.15969,5.06562 -0.9625,0.008 -1.75,-0.6021 -1.75,-1.35606 0,-1.28179 51.30928,-50.10348 54.58008,-51.93391 2.02322,-1.13225 9.57622,3.35889 13.15302,7.82101 1.5218,1.89846 2.9919,4.92145 3.2669,6.71775 l 0.5,3.26599 33.66194,0.0938 33.66195,0.0938 6.58805,5.24227 C 307.36229,298.66476 309.67175,302 307,302 c -0.55,0 -1,0.45 -1,1 0,0.60343 4.18097,1 10.54291,1 l 10.5429,0 5.48179,-4.13879 c 5.96222,-4.50152 11.49857,-6.09658 17.9324,-5.16645 4.76254,0.68852 5.67166,1.34014 10.66612,7.64504 l 3.83388,4.8398 0,17.75521 c 0,20.86492 -0.0129,20.89331 -9.92612,21.79221 -3.34063,0.30292 -6.07388,0.75987 -6.07388,1.01545 0,0.25558 2.25,3.15743 5,6.44855 4.56781,5.46664 6.17659,8.80267 4.25,8.813 -0.4125,0.002 -4.85781,0.67027 -9.87846,1.48457 C 335.5839,366.56261 318.00045,369 315.82593,369 c -4.23719,0 -0.95914,-3.05624 13.18153,-12.2896 C 337.25336,351.32612 344,346.54487 344,346.0854 344,344.4773 337.57629,344 315.93402,344 c -14.27196,0 -22.04225,0.36611 -22.47031,1.05872 -0.80028,1.29488 2.77459,6.54916 11.38089,16.72744 16.49584,19.5089 35.03558,35.08038 56.1708,47.17773 6.04153,3.45804 10.9832,6.79332 10.9815,7.41173 C 371.99402,417.41717 355.95935,427 354.21943,427 c -2.59864,0 -20.83266,-13.46035 -29.09564,-21.4784 -14.8996,-14.45793 -24.97968,-29.59648 -32.08105,-48.18024 -3.81846,-9.99261 -4.84006,-11.01465 -8.90749,-8.9113 -1.65464,0.85564 -3.29469,2.0189 -3.64456,2.58501 -0.34988,0.56611 1.3918,3.28485 3.87039,6.04164 10.25543,11.40651 16.79407,29.24836 17.02044,46.44329 0.13541,10.2861 -1.7179,16.53197 -6.17157,20.79885 -3.64752,3.49455 -27.92047,15.70702 -31.16435,15.67975 -1.40008,-0.0118 -5.6956,-2.09307 -9.5456,-4.62512 z m 21.91111,-21.43021 c 2.018,-2.39826 2.58889,-4.16238 2.58889,-8 C 279,403.18201 278.53914,401 277.96016,401 c -0.57191,0 -2.70941,0.84654 -4.75,1.8812 -5.14168,2.60703 -23.25372,8.50043 -32.7849,10.66773 -4.35889,0.99117 -8.35276,2.17314 -8.87526,2.6266 -0.5225,0.45346 8.775,0.82447 20.66111,0.82447 l 21.6111,0 2.5889,-3.07673 z m -7.0181,-81.50506 c 1.22498,-3.19223 0.65385,-16.13443 -0.76392,-17.31108 -0.97257,-0.80715 -9.90759,-1.06066 -30.75,-0.87244 L 208.5,314.5 l -0.29313,8.41641 c -0.16122,4.62903 -0.0628,9.01653 0.21861,9.75 0.41073,1.07034 6.41877,1.33359 30.43615,1.33359 26.36464,0 29.9966,-0.18817 30.53138,-1.58179 z M 342.5,324 l 0,-9.5 -25,0 -25,0 -0.29313,8.41641 c -0.16122,4.62903 -0.0598,9.02441 0.22534,9.76752 0.42005,1.09464 5.22135,1.30033 25.29313,1.08359 L 342.5,333.5 l 0,-9.5 z m -66.50945,-20.8807 c 6.04249,-0.49958 7.55489,-0.95761 7.82333,-2.3693 0.3119,-1.64023 -1.90925,-1.75 -35.41182,-1.75 -31.85738,0 -35.94345,0.17998 -37.57332,1.65499 -1.00581,0.91024 -1.82874,2.03524 -1.82874,2.5 0,0.95111 55.412,0.92159 66.99055,-0.0357 z M 145,254.70583 l -2.5,-1.2647 -0.25728,-64.68148 c -0.29736,-74.75846 -1.60598,-67.19822 11.36014,-65.63068 4.41645,0.53393 11.15004,0.83584 14.96353,0.67091 L 175.5,123.5 l 0.29708,-7.41189 c 0.21058,-5.25379 -0.0806,-7.65146 -1,-8.23468 -0.7134,-0.45254 -7.01341,-0.8297 -14.00003,-0.83812 -15.92902,-0.0192 -20.7974,-1.89455 -17.31029,-6.66811 1.25141,-1.71308 3.73943,-1.883504 34.26675,-2.3472 l 32.91737,-0.5 3.84183,-3.375096 C 219.77353,89.50321 223.85006,88 231.12272,88 c 5.86819,0 6.37409,0.196725 9.81921,3.818298 4.2104,4.426045 7.10885,9.885812 6.32816,11.920252 C 246.2776,106.32493 242.00642,107 226.6349,107 c -10.51603,0 -15.60659,0.37169 -16.4349,1.2 -1.35672,1.35672 -1.68626,14.8 -0.36279,14.8 0.46046,0 3.47714,-1.89042 6.70373,-4.20093 4.87025,-3.48751 6.82812,-4.27048 11.52881,-4.6105 7.33774,-0.53076 11.45981,1.42216 16.2444,7.69613 l 3.68585,4.83321 0,63.0186 c 0,55.88451 -0.17667,63.16522 -1.56062,64.3138 -2.70827,2.24766 -11.93567,2.42222 -17.21526,0.32567 C 224.97971,252.6905 221.50442,252.5 195,252.5 c -25.80181,0 -30.03533,0.21938 -33.77024,1.75 -4.98714,2.0438 -12.66447,2.25942 -16.22976,0.45583 z m 77.5,-11.71618 c 2.93043,-1.47533 3.00677,-1.70367 3.29201,-9.84692 0.18515,-5.28588 -0.13411,-8.85001 -0.87245,-9.73965 -1.57631,-1.89934 -57.832,-2.09064 -59.71956,-0.20308 -1.31489,1.31489 -1.73317,19.9335 -0.47606,21.19061 0.39817,0.39816 12.88567,0.58566 27.75,0.41666 21.65422,-0.24619 27.62236,-0.60747 30.02606,-1.81762 z m 0,-30.00312 3,-1.51348 0,-16.95758 0,-16.95757 -8.5,-1.15391 c -4.675,-0.63465 -9.74855,-1.73744 -11.27456,-2.45065 -5.72856,-2.67737 -8.63069,-11.39517 -9.62663,-28.9178 L 195.5,134.5 l -2.75,-0.31642 c -1.5125,-0.17403 -2.76274,-0.17403 -2.77831,0 -0.0156,0.17403 -1.10992,6.63011 -2.43188,14.34685 -3.48728,20.35635 -4.97302,23.69122 -15.09477,33.88156 L 164,190.91426 l 0,11.3762 c 0,6.25691 0.31987,11.69607 0.71081,12.08702 0.39095,0.39094 12.87845,0.57844 27.75,0.41666 21.71497,-0.23622 27.62991,-0.59215 30.03919,-1.80761 z M 167.78524,177.75 c 3.69022,-8.34746 7.11502,-26.72663 7.18388,-38.55226 l 0.0309,-5.30226 -5.25,0.30226 -5.25,0.30226 -0.2681,23.75 c -0.168,14.88291 0.0945,23.75 0.70321,23.75 0.53421,0 1.81677,-1.9125 2.85013,-4.25 z m 49.36366,-19.25016 c 4.34717,-11.17226 5.62406,-13.08403 6.50048,-9.73259 1.29202,4.94066 2.41566,1.78276 2.14106,-6.01725 L 225.5,134.5 l -8.26577,-0.2907 c -6.8787,-0.24191 -8.37028,-0.0183 -8.88859,1.33237 -0.34256,0.89268 -0.14999,7.99849 0.42792,15.79069 1.58803,21.41199 2.5218,22.21109 8.37534,7.16748 z M 194.74061,122.75 c 0.54203,-0.6875 1.2548,-4.28328 1.58394,-7.99061 0.58957,-6.64067 0.55965,-6.75035 -2.01783,-7.39726 -4.54511,-1.14075 -5.70123,0.50515 -5.40765,7.69855 0.14431,3.53591 0.73116,6.99377 1.3041,7.68413 1.33008,1.60264 3.27625,1.60487 4.53744,0.005 z M 301,255.29056 c -0.825,-0.30334 -2.2875,-1.23756 -3.25,-2.07604 -1.58054,-1.37687 -1.75,-3.97883 -1.75,-26.86951 L 296,201 l -9.75,-0.0514 c -14.01619,-0.0738 -22.97076,-1.24084 -24.98631,-3.25639 -1.60026,-1.60026 -1.56835,-1.83221 0.54302,-3.94623 2.0851,-2.08772 3.3516,-2.28127 17.96825,-2.74603 l 15.72504,-0.5 0.61457,-16 c 0.33802,-8.8 0.67552,-16.99667 0.75,-18.21482 0.22991,-3.76005 3.21581,-4.50361 11.30882,-2.81617 3.97768,0.82937 7.9284,2.20356 8.77937,3.05375 1.22271,1.22158 1.65211,4.94697 2.04724,17.76152 l 0.5,16.21572 7.5,0 c 6.85365,0 7.90841,-0.28357 12.23902,-3.29048 13.15764,-9.13587 23.71378,-7.53453 30.55335,4.63484 l 2.28956,4.07371 -2.04097,2.04097 c -1.12253,1.12253 -3.05346,2.09798 -4.29096,2.16767 -1.2375,0.0697 -12.15,0.40719 -24.25,0.75 l -22,0.62329 -0.54253,26 c -0.2984,14.3 -0.6359,26.06848 -0.75,26.15217 -2.64271,1.9384 -13.5636,2.97822 -17.20747,1.63839 z m 41.92045,-90.3009 c -6.44704,-1.09118 -12.61359,-4.49559 -14.39984,-7.94981 C 327.37105,154.81684 327,150.66396 327,140.02063 l 0,-14.07868 -13.16086,0.27902 -13.16085,0.27903 -4.08915,7 c -5.35315,9.16379 -21.11303,25.0507 -28.77983,29.01181 -3.12988,1.61708 -5.98295,2.64788 -6.34016,2.29067 -0.35721,-0.3572 1.17408,-3.06474 3.40287,-6.01674 8.14343,-10.7859 18.19123,-30.2305 16.42935,-31.79426 -0.44075,-0.39119 -4.78469,-1.17371 -9.6532,-1.73892 -9.68418,-1.12428 -12.98094,-2.91613 -11.03658,-5.99858 1.45774,-2.31099 4.5095,-3.03348 13.38841,-3.16961 4.125,-0.0633 8.175,-0.53968 9,-1.05875 1.0523,-0.66207 1.79847,-4.01525 2.5,-11.23468 l 1,-10.29094 4.22821,-0.306433 c 5.22631,-0.378769 12.46122,2.639716 14.76896,6.161769 1.44035,2.198254 1.50814,3.302114 0.50077,8.154574 -0.64079,3.08668 -0.89554,6.31456 -0.56611,7.17304 0.89672,2.33682 5.20788,1.09752 12.84951,-3.69376 12.17241,-7.63207 20.7615,-6.40239 28.01463,4.01081 l 3.83093,5.5 -0.58608,8.5 c -0.32234,4.675 -0.83929,11.7625 -1.14877,15.75 -0.90541,11.66578 1.25842,9.71407 9.70097,-8.75 4.02372,-8.8 7.66529,-16 8.09237,-16 1.20242,0 1.72427,3.1305 3.74873,22.48824 1.15053,11.00128 1.53688,18.63169 0.99467,19.64482 -0.48762,0.91112 -2.31322,2.15391 -4.0569,2.76176 -3.53596,1.23264 -16.91594,1.28562 -23.95144,0.0948 z"
       id="path3109"
       inkscape:connector-curvature="0" />
  </g>
</svg>
