<?xml version="1.0" encoding="UTF-8" standalone="no"?>
<!-- Created with Inkscape (http://www.inkscape.org/) -->

<svg
   xmlns:dc="http://purl.org/dc/elements/1.1/"
   xmlns:cc="http://creativecommons.org/ns#"
   xmlns:rdf="http://www.w3.org/1999/02/22-rdf-syntax-ns#"
   xmlns:svg="http://www.w3.org/2000/svg"
   xmlns="http://www.w3.org/2000/svg"
   xmlns:sodipodi="http://sodipodi.sourceforge.net/DTD/sodipodi-0.dtd"
   xmlns:inkscape="http://www.inkscape.org/namespaces/inkscape"
   id="svg3400"
   version="1.1"
   inkscape:version="0.48.4 r9943 custom"
   width="512"
   height="512"
   sodipodi:docname="WhiteGold.svg">
  <metadata
     id="metadata3406">
    <rdf:RDF>
      <cc:Work
         rdf:about="">
        <dc:format>image/svg+xml</dc:format>
        <dc:type
           rdf:resource="http://purl.org/dc/dcmitype/StillImage" />
        <dc:title />
      </cc:Work>
    </rdf:RDF>
  </metadata>
  <defs
     id="defs3404" />
  <sodipodi:namedview
     pagecolor="#ffffff"
     bordercolor="#666666"
     borderopacity="1"
     objecttolerance="10"
     gridtolerance="10"
     guidetolerance="10"
     inkscape:pageopacity="0"
     inkscape:pageshadow="2"
     inkscape:window-width="997"
     inkscape:window-height="724"
     id="namedview3402"
     showgrid="false"
     inkscape:zoom="0.4609375"
     inkscape:cx="190.91525"
     inkscape:cy="189.50259"
     inkscape:window-x="258"
     inkscape:window-y="49"
     inkscape:window-maximized="0"
     inkscape:current-layer="g3410" />
  <g
     id="g3410">
    <g
       id="g2999">
      <path
         inkscape:connector-curvature="0"
         id="path3414"
         d="m 81.239624,479.75 c -0.552897,-0.6875 -1.995733,-4.4 -3.206303,-8.25 l -2.201037,-7 25.083856,-177.09934 C 114.71226,189.99602 126,109.79936 126,109.18584 c 0,-0.61351 0.91337,-1.60429 2.02972,-2.20174 C 131.74047,104.99816 253.45469,63 255.49934,63 c 1.10517,0 29.23041,9.814635 62.50053,21.8103 51.98803,18.74448 60.66289,22.15324 61.71306,24.25 0.67205,1.34183 13.42558,81.97027 28.34115,179.17429 l 27.11924,176.73459 -2.21977,6.76541 c -1.22087,3.72098 -2.66497,7.32791 -3.2091,8.01541 C 428.9598,480.74138 392.90978,481 255.5,481 118.09872,481 82.036857,480.74132 81.239624,479.75 z"
         style="fill:#d3bc5f" />
      <g
         transform="matrix(1.0897825,0,0,1.0897825,663.11434,-25.583254)"
         id="g3097">
        <path
           style="fill:#000000"
           d="m -318.68333,419.24611 c -5.98748,-6.17751 -15.63379,-12.75872 -21.43624,-14.62492 -9.86315,-3.17218 -9.3052,-3.41517 8.57128,-3.73255 l 19.12119,-0.33949 -0.0509,-15.79577 c -0.0279,-8.68767 -1.15033,-17.44364 -2.49406,-19.45775 -2.59191,-3.88496 -40.77684,-1.00415 -68.09439,5.13731 -15.38593,3.45904 -29.12335,-1.94001 -29.12335,-11.44594 0,-3.84402 1.789,-4.149 8.76973,-1.49494 9.60575,3.65211 77.08601,-1.96543 82.2234,-6.84489 5.65208,-5.36826 -1.10721,-9.82885 -9.85445,-6.50316 -10.46609,3.9792 -42.26728,4.23579 -39.84813,0.32156 0.97789,-1.58227 10.69693,-4.63155 21.59787,-6.77618 19.95804,-3.92649 37.45204,-14.12962 32.5906,-19.00799 -1.44154,-1.44657 -7.4273,-0.58253 -13.30169,1.92008 -5.8744,2.50258 -15.91826,4.67965 -22.3197,4.8379 -6.40144,0.15825 -14.25776,2.9065 -17.45848,6.10722 -3.20072,3.20072 -8.81237,5.81949 -12.47034,5.81949 -11.04546,0 -7.76165,-11.29591 6.65085,-22.87811 7.31593,-5.87924 13.3017,-11.78738 13.3017,-13.12919 0,-1.34182 -4.86344,-4.42266 -10.80763,-6.84631 l -10.80763,-4.40664 23.27797,-4.72031 c 12.80288,-2.59617 27.37594,-5.5979 32.38457,-6.6705 6.64348,-1.4227 9.67782,-0.46165 11.21845,3.55318 3.02086,7.87224 -0.23305,9.82934 -19.69774,11.84745 -11.53222,1.19566 -16.96383,3.19454 -16.37817,6.02729 0.48194,2.33108 -0.58774,6.97384 -2.37707,10.31723 -5.06808,9.46979 -0.77246,10.4224 16.42714,3.64295 15.44745,-6.08881 27.25714,-5.80089 35.78638,0.87248 6.01716,4.70788 5.18254,8.36534 -4.00562,17.55349 -5.77599,5.77599 -6.71772,8.16242 -3.22106,8.16242 2.71774,0 5.85565,2.38263 6.97313,5.2947 1.62664,4.23899 4.98013,4.8526 16.81816,3.07738 11.50391,-1.72513 16.17984,-0.95629 21.0634,3.46327 9.76782,8.83977 4.32865,12.07365 -16.02901,9.53013 -17.17703,-2.14613 -18.32778,-1.86636 -16.10872,3.91642 4.4819,11.67962 5.97661,46.18508 2.39808,55.35962 -4.68837,12.01998 -10.0853,11.53637 -23.2895,-2.08693 z m -120.51035,-2.9012 c -2.17794,-4.11521 -6.27008,-11.04194 -9.09365,-15.39269 l -5.13375,-7.91052 10.22515,5.28766 10.22515,5.28762 2.04032,-12.34154 c 2.55108,-15.43107 2.70693,-33.9568 0.28566,-33.9568 -1.00531,0 -6.04106,2.17875 -11.19054,4.84165 -7.04294,3.64203 -9.87838,8.06658 -11.44408,17.85792 -2.32198,14.5209 -10.29556,23.68274 -15.81102,18.16726 -2.33233,-2.33232 -1.71226,-7.47991 1.9596,-16.26791 3.51857,-8.4211 4.15013,-13.26312 1.83081,-14.03621 -4.95794,-1.65267 -13.39827,-10.45251 -13.39827,-13.96898 0,-1.61216 7.2147,-2.07676 16.03267,-1.03241 17.86454,2.1158 37.17411,-5.22128 37.17411,-14.1251 0,-4.54586 -0.79182,-4.53671 -7.39077,0.0855 -8.79948,6.16337 -22.95782,6.75217 -28.52381,1.18618 -6.3322,-6.33221 -4.70194,-8.94928 5.15441,-8.27452 8.30589,0.56861 9.04043,-0.28931 8.00607,-9.35023 -0.62637,-5.48701 -3.47707,-12.59511 -6.3349,-15.79583 -4.72437,-5.29123 -4.69646,-5.81949 0.3075,-5.81949 7.64063,0 18.80523,11.91521 18.80523,20.06955 0,5.73737 1.01266,6.22588 6.65085,3.20842 3.65796,-1.95769 6.65085,-6.49966 6.65085,-10.09327 0,-3.59362 -2.99289,-9.52673 -6.65085,-13.1847 -14.78118,-14.78117 -4.01241,-22.61984 12.07031,-8.78607 l 9.11575,7.84104 -5.6049,25.50771 c -3.08269,14.02923 -5.61324,36.31436 -5.62344,49.52251 -0.0316,40.85293 -9.95319,61.08867 -20.33446,41.47329 z m 68.57166,-21.72041 c -5.45708,-1.36219 -4.56176,-2.38635 4.98813,-5.70599 8.59352,-2.98716 11.5699,-5.91044 11.37494,-11.17199 -0.16588,-4.47699 1.75029,-7.12619 5.15441,-7.12619 6.45752,0 13.39947,6.31382 13.39947,12.18708 0,7.58267 -22.02245,15.03584 -34.91695,11.81709 z m -39.26166,-129.70675 c -5.74588,-6.34912 -5.37908,-6.5034 19.21504,-8.08175 28.58289,-1.83434 39.31658,-8.20575 37.6625,-22.3561 -1.36099,-11.64296 -12.62775,-13.76686 -12.62775,-2.38047 0,10.16859 -3.10891,18.80564 -6.7691,18.80564 -1.50266,0 -5.19423,-2.46212 -8.20349,-5.47137 -4.33673,-4.33674 -4.57837,-6.02329 -1.16519,-8.13275 2.36841,-1.46375 3.45728,-3.51028 2.41972,-4.54783 -1.03755,-1.03756 -7.55986,2.62218 -14.49401,8.13274 -15.9129,12.64599 -24.99471,13.1863 -24.99471,1.48704 0,-16.71897 5.51028,-21.78533 22.5261,-20.71131 12.55382,0.79238 15.71036,-0.12418 16.6758,-4.84211 0.79866,-3.90293 -0.87049,-5.81949 -5.06824,-5.81949 -3.4425,0 -9.16388,-2.19707 -12.71417,-4.88238 -6.04918,-4.57536 -5.67093,-4.88902 6.01526,-4.98813 10.35478,-0.0878 12.47034,-1.27208 12.47034,-6.9807 0,-5.18757 -1.51714,-6.39342 -6.18136,-4.91306 -3.56844,1.13258 -7.95761,-0.17837 -10.38345,-3.10133 -2.31115,-2.78477 -2.89654,-5.07452 -1.30085,-5.08834 1.59569,-0.014 12.40593,-1.5674 24.02276,-3.45241 15.85018,-2.57194 22.32143,-2.43144 25.92944,0.56294 5.86672,4.86895 0.44304,9.43458 -11.30264,9.51452 -4.2648,0.0289 -7.48221,2.10596 -7.48221,4.82999 0,3.6046 2.86031,4.3149 11.63899,2.89031 9.20202,-1.49328 11.63898,-0.78478 11.63898,3.38382 0,3.39292 -4.14921,6.05095 -11.63898,7.45604 -7.18017,1.347 -11.63899,4.10121 -11.63899,7.18938 0,3.45367 2.17296,4.43765 7.00774,3.17333 3.85425,-1.00791 10.58824,-0.47126 14.96441,1.19256 10.20341,3.87933 10.40889,15.06765 0.47446,25.83507 l -7.4822,8.10958 7.35659,-2.25999 c 8.55137,-2.62703 20.90951,2.96871 20.90951,9.46779 0,3.2879 -8.15725,4.98461 -30.76017,6.39813 -16.91809,1.05801 -35.28318,2.85283 -40.81131,3.98848 -7.53376,1.54769 -11.51822,0.44372 -15.90882,-4.40784 z m 14.32098,-34.08222 c 0,-1.76463 -2.99288,-3.20842 -6.65085,-3.20842 -4.47223,0 -6.65085,2.21695 -6.65085,6.76785 0,5.73737 1.01266,6.22589 6.65085,3.20842 3.65797,-1.95768 6.65085,-5.00322 6.65085,-6.76785 z m -34.14415,-42.28215 c 31.30698,-30.68813 47.12116,-55.12036 41.50176,-64.11845 3.04317,-18.10028 24.37434,-4.13847 22.8705,9.02657 -0.2688,2.16393 10.4031,10.94102 23.71532,19.50466 37.78499,24.30677 52.47013,37.35389 52.47013,46.61748 0,4.45001 -1.87581,8.09092 -4.16847,8.09092 -2.29266,0 -20.62406,-14.21145 -40.73644,-31.581 l -36.56797,-31.58101 -26.60339,27.78667 c -22.18772,23.17458 -47.61653,42.02619 -56.68887,42.02619 -1.14638,0 9.74696,-11.59741 24.20743,-25.77203 z"
           id="path3095"
           inkscape:connector-curvature="0"
           sodipodi:nodetypes="cssccsssssssssssssssscsssssssssssssssscccscccsssssscssscsssssssssscssccsssssssssssssssssssssssscsscsssssssscsssssssssssccsssscsss" />
      </g>
      <path
         sodipodi:nodetypes="sssscssscsscsscsssscc"
         inkscape:connector-curvature="0"
         id="path3412"
         d="m 83.265046,479.18497 c -1.53838,-0.97713 -5.257384,-11.59288 -5.286997,-15.09152 -0.04681,-5.53048 49.150861,-351.72779 50.301891,-353.96753 1.0408,-2.02527 10.47616,-5.59199 64.2187,-24.275707 L 255.49729,63.948594 315.87165,85.704 c 33.2059,11.965473 60.96634,22.21454 61.68987,22.7757 0.87061,0.67524 10.46874,60.5423 28.3806,177.0203 14.88581,96.8 27.06348,177.16705 27.06149,178.59345 -0.005,3.46977 -3.71837,14.10683 -5.26866,15.09152 -1.61454,1.02551 -342.855361,1.02551 -344.469904,0 z M 422.34568,454.2497 c 0.44553,-0.72088 -51.75365,-334.80901 -52.853,-338.27276 -0.38507,-1.21326 -16.57207,-7.31007 -57.23295,-21.556711 L 255.56372,74.555244 197.66127,94.027622 c -31.84635,10.709808 -58.5677,19.948888 -59.38078,20.531288 -1.10961,0.79481 -7.54361,43.19024 -25.79641,169.97979 -13.374944,92.90648 -24.103874,169.26747 -23.842064,169.69109 0.614407,0.99413 333.089304,1.01397 333.703664,0.0199 z"
         style="fill:#141310" />
    </g>
  </g>
</svg>
