<?xml version="1.0" encoding="UTF-8" standalone="no"?>
<!-- Created with Inkscape (http://www.inkscape.org/) -->

<svg
   xmlns:dc="http://purl.org/dc/elements/1.1/"
   xmlns:cc="http://creativecommons.org/ns#"
   xmlns:rdf="http://www.w3.org/1999/02/22-rdf-syntax-ns#"
   xmlns:svg="http://www.w3.org/2000/svg"
   xmlns="http://www.w3.org/2000/svg"
   xmlns:sodipodi="http://sodipodi.sourceforge.net/DTD/sodipodi-0.dtd"
   xmlns:inkscape="http://www.inkscape.org/namespaces/inkscape"
   id="svg3209"
   version="1.1"
   inkscape:version="0.48.4 r9939"
   width="512"
   height="512"
   sodipodi:docname="crown_prince.svg">
  <metadata
     id="metadata3215">
    <rdf:RDF>
      <cc:Work
         rdf:about="">
        <dc:format>image/svg+xml</dc:format>
        <dc:type
           rdf:resource="http://purl.org/dc/dcmitype/StillImage" />
        <dc:title />
      </cc:Work>
    </rdf:RDF>
  </metadata>
  <defs
     id="defs3213" />
  <sodipodi:namedview
     pagecolor="#ffffff"
     bordercolor="#666666"
     borderopacity="1"
     objecttolerance="10"
     gridtolerance="10"
     guidetolerance="10"
     inkscape:pageopacity="0"
     inkscape:pageshadow="2"
     inkscape:window-width="640"
     inkscape:window-height="480"
     id="namedview3211"
     showgrid="false"
     inkscape:zoom="0.4609375"
     inkscape:cx="256"
     inkscape:cy="256"
     inkscape:window-x="570"
     inkscape:window-y="30"
     inkscape:window-maximized="0"
     inkscape:current-layer="g3219" />
  <g
     id="g3219">
    <path
       style="fill:#d3bc5f"
       d="m 66.329882,485.22504 c -0.643564,-0.40938 -2.288017,-5.14678 -3.654339,-10.52754 L 60.191321,464.91429 89.111472,268.72705 C 106.48538,150.86672 118.52437,72.055907 119.26581,71.327774 120.91838,69.704877 252.96387,24 256,24 c 3.03257,0 135.08059,45.703879 136.73122,47.32481 0.73753,0.724251 12.82829,79.88079 30.15272,197.40566 l 28.9215,196.19658 -2.4826,9.77683 c -1.36543,5.37725 -3.00916,10.11178 -3.65272,10.52116 -1.52984,0.97316 -377.810405,0.97316 -379.340238,0 z"
       id="path3225"
       inkscape:connector-curvature="0" />
    <path
       style="fill:#f7170f"
       d="M 67.333178,484.22708 C 65.921815,483.32921 62,468.43833 62,463.97734 62,457.20837 119.12192,73.459587 120.30658,72.269977 121.7086,70.86209 253.36053,25 256,25 258.64084,25 390.29226,70.862638 391.69127,72.269977 392.87246,73.458203 450,457.24317 450,463.99025 c 0,4.45094 -3.92392,19.3403 -5.33318,20.23683 -1.52552,0.97049 -375.808119,0.97049 -377.333642,0 z M 439.3472,454.24723 C 440.17677,452.90497 383.87612,79.540939 382.66699,78.366098 382.02515,77.742452 353.2625,67.742009 318.75,56.142891 L 256,35.053585 193.25,56.142891 c -34.5125,11.599118 -63.27584,21.599561 -63.91854,22.223207 -1.21285,1.176899 -57.513387,374.530522 -56.681084,375.877212 0.609925,0.98688 366.086904,0.99079 366.696824,0.004 z M 238.08308,435.52569 c -5.17931,-3.01055 -12.37931,-6.44111 -16,-7.62347 C 213.20507,425.00306 212.4497,424 219.14444,424 c 3.04944,0 10.33944,-0.29338 16.2,-0.65197 L 246,422.69607 l 0,-25.73896 0,-25.73896 -51.25,-0.39172 C 138.8686,370.39931 137.5,370.26002 137.5,365 c 0,-5.11832 1.47561,-5.26779 57.20938,-5.79521 L 246,358.71943 l 0,-16.65972 c 0,-11.62422 0.36271,-17.02242 1.2,-17.85971 1.51404,-1.51404 6.51436,-1.53618 12.05833,-0.0534 l 4.28703,1.1466 17.71548,-11.3966 c 9.74352,-6.26814 17.72082,-11.66161 17.72733,-11.9855 0.0163,-0.81101 -51.78526,-1.90703 -90.23817,-1.90927 -30.41536,-0.002 -31.83407,-0.0859 -33.75,-2.00184 -2.71325,-2.71325 -2.51383,-4.61705 0.70464,-6.72695 2.49326,-1.63448 7.51775,-1.81213 64.29175,-2.27305 l 61.58712,-0.5 3.95825,-3.11693 c 7.67246,-6.04169 12.04614,-7.63205 19.78633,-7.19469 l 7.00155,0.39562 4.75624,5.31031 c 6.84366,7.6409 7.59284,9.92085 4.72114,14.36769 -1.26886,1.96485 -3.43202,4.10669 -4.80702,4.75965 -2.41274,1.14576 -18.403,6.97979 -49.20326,17.95177 -8.08679,2.88076 -15.32233,5.75273 -16.07897,6.38216 -1.09428,0.9103 -1.28612,4.26423 -0.93775,16.39442 l 0.43797,15.25 33.05013,0 33.05014,0 5.09674,-3.84808 C 350.12565,349.33033 353.30037,348 359.48246,348 c 7.65996,0 11.53033,1.8872 15.8005,7.70433 8.33748,11.35793 7.01878,13.34312 -9.5825,14.42571 -6.16025,0.40172 -29.98796,0.7618 -52.95046,0.80018 L 271,371 l -0.0239,25.75 c -0.0131,14.1625 -0.42554,27.48099 -0.91648,29.59665 -1.13849,4.90611 -4.14027,8.07362 -10.50062,11.08034 -9.28999,4.39164 -10.89396,4.24964 -21.47596,-1.9013 z M 347.5,261.63914 C 316.07953,251.44376 289.92591,225.60624 276.50276,191.5 l -3.14855,-8 -4.42643,0 -4.42644,0 -5.75324,10.88115 c -7.36096,13.92185 -13.58254,22.26419 -24.22175,32.47825 -20.47946,19.66111 -44.60479,30.49888 -74.7163,33.56464 -5.60925,0.5711 -8.86709,-0.7528 -5.12343,-2.08203 6.40135,-2.27287 23.53726,-11.01375 30.53873,-15.57754 9.35754,-6.09956 23.81231,-19.42097 32.20687,-29.68162 C 223.07977,206.17986 235,186.62683 235,184.26601 c 0,-0.99857 -8.29139,-1.28181 -39.25,-1.34083 -21.5875,-0.0412 -45.65977,-0.38842 -53.49393,-0.77171 -12.46878,-0.61004 -14.49879,-0.95175 -16.28895,-2.7419 -2.50219,-2.5022 -1.73985,-5.13717 1.91926,-6.63375 1.69282,-0.69237 21.91355,-1.23739 57.39459,-1.547 50.06368,-0.43686 54.85867,-0.62323 55.68342,-2.16427 2.05677,-3.84312 5.18724,-24.86393 5.83816,-39.20274 L 247.5,114.5 252,114.25684 c 5.56608,-0.30077 14.5683,3.23561 17.16543,6.74316 1.47068,1.98624 2.04453,5.47982 2.79237,17 0.72298,11.13732 1.53226,16.22051 3.48962,21.91892 C 279.59022,171.97975 276.07195,171 315.23944,171 l 33.92947,0 5.66554,-4.38422 c 6.92721,-5.36055 8.55962,-6.20051 13.70505,-7.05198 7.00733,-1.15959 12.42616,0.71935 17.2105,5.9676 3.77952,4.14599 4.25,5.201 4.25,9.53016 0,3.99431 -0.39546,5.07972 -2.20325,6.04722 -1.568,0.83916 -16.41687,1.32307 -51.5,1.67831 -28.44207,0.288 -49.29675,0.88268 -49.29675,1.4057 0,3.43539 10.17523,17.546 20.97792,29.09136 16.79829,17.95314 36.86725,30.99588 59.52208,38.68315 4.43637,1.50535 8,3.28648 8,3.99845 0,1.11919 -17.25743,7.98342 -20,7.9551 -0.55,-0.006 -4.15,-1.03245 -8,-2.28171 z M 269.07797,255.75 C 267.11008,253.4125 261.5625,247.61726 256.75,242.8717 245.01811,231.30298 245.11753,229.97408 257.52326,232.53655 275.56212,236.26258 296,245.58936 296,250.09533 c 0,1.92545 -6.39011,6.84959 -10.86945,8.37585 -2.46776,0.84085 -6.28408,1.52882 -8.48072,1.52882 -3.47079,0 -4.46253,-0.55666 -7.57186,-4.25 z"
       id="path3223"
       inkscape:connector-curvature="0" />
    <path
       style="fill:#100f0c"
       d="M 67.333178,484.22708 C 65.921815,483.32921 62,468.43833 62,463.97734 62,457.20837 119.12192,73.459587 120.30658,72.269977 121.7086,70.86209 253.36053,25 256,25 258.64084,25 390.29226,70.862638 391.69127,72.269977 392.87246,73.458203 450,457.24317 450,463.99025 c 0,4.45094 -3.92392,19.3403 -5.33318,20.23683 -1.52552,0.97049 -375.808119,0.97049 -377.333642,0 z M 439.3472,454.24723 C 440.17677,452.90497 383.87612,79.540939 382.66699,78.366098 382.02515,77.742452 353.2625,67.742009 318.75,56.142891 L 256,35.053585 193.25,56.142891 c -34.5125,11.599118 -63.27584,21.599561 -63.91854,22.223207 -1.21285,1.176899 -57.513387,374.530522 -56.681084,375.877212 0.609925,0.98688 366.086904,0.99079 366.696824,0.004 z"
       id="path3221"
       inkscape:connector-curvature="0" />
  </g>
</svg>
