<?xml version="1.0" encoding="UTF-8" standalone="no"?>
<!-- Created with Inkscape (http://www.inkscape.org/) -->

<svg
   xmlns:dc="http://purl.org/dc/elements/1.1/"
   xmlns:cc="http://creativecommons.org/ns#"
   xmlns:rdf="http://www.w3.org/1999/02/22-rdf-syntax-ns#"
   xmlns:svg="http://www.w3.org/2000/svg"
   xmlns="http://www.w3.org/2000/svg"
   xmlns:sodipodi="http://sodipodi.sourceforge.net/DTD/sodipodi-0.dtd"
   xmlns:inkscape="http://www.inkscape.org/namespaces/inkscape"
   id="svg3400"
   version="1.1"
   inkscape:version="0.48.4 r9943 custom"
   width="512"
   height="512"
   sodipodi:docname="WhiteGold.svg">
  <metadata
     id="metadata3406">
    <rdf:RDF>
      <cc:Work
         rdf:about="">
        <dc:format>image/svg+xml</dc:format>
        <dc:type
           rdf:resource="http://purl.org/dc/dcmitype/StillImage" />
        <dc:title />
      </cc:Work>
    </rdf:RDF>
  </metadata>
  <defs
     id="defs3404" />
  <sodipodi:namedview
     pagecolor="#ffffff"
     bordercolor="#666666"
     borderopacity="1"
     objecttolerance="10"
     gridtolerance="10"
     guidetolerance="10"
     inkscape:pageopacity="0"
     inkscape:pageshadow="2"
     inkscape:window-width="997"
     inkscape:window-height="724"
     id="namedview3402"
     showgrid="false"
     inkscape:zoom="0.4609375"
     inkscape:cx="190.91525"
     inkscape:cy="189.50259"
     inkscape:window-x="258"
     inkscape:window-y="27"
     inkscape:window-maximized="0"
     inkscape:current-layer="g3410" />
  <g
     id="g3410">
    <g
       id="g2999">
      <path
         inkscape:connector-curvature="0"
         id="path3414"
         d="m 81.239624,479.75 c -0.552897,-0.6875 -1.995733,-4.4 -3.206303,-8.25 l -2.201037,-7 25.083856,-177.09934 C 114.71226,189.99602 126,109.79936 126,109.18584 c 0,-0.61351 0.91337,-1.60429 2.02972,-2.20174 C 131.74047,104.99816 253.45469,63 255.49934,63 c 1.10517,0 29.23041,9.814635 62.50053,21.8103 51.98803,18.74448 60.66289,22.15324 61.71306,24.25 0.67205,1.34183 13.42558,81.97027 28.34115,179.17429 l 27.11924,176.73459 -2.21977,6.76541 c -1.22087,3.72098 -2.66497,7.32791 -3.2091,8.01541 C 428.9598,480.74138 392.90978,481 255.5,481 118.09872,481 82.036857,480.74132 81.239624,479.75 z"
         style="fill:#d3bc5f" />
      <g
         transform="matrix(1.0897825,0,0,1.0897825,663.11434,-25.583254)"
         id="g3097">
        <path
           style="fill:#000000"
           d="m -381.375,113.84375 c -6.56129,0.69259 -10.3037,8.73005 -7.75,14.3125 -0.9159,12.66234 -10.33706,22.62151 -17.5,32.5 -14.9307,18.86578 -33.91714,33.95594 -49.09375,52.40625 -1.28938,4.89288 5.34403,3.04913 7.96875,1.78125 22.08555,-10.81992 39.85885,-28.7082 56.80663,-46.21539 6.81446,-7.12612 13.62891,-14.25224 20.44337,-21.37836 24.73556,20.69335 48.05117,43.36887 74.65625,61.5625 5.75067,3.43122 9.45087,-5.14353 8.6875,-9.8125 -1.77721,-11.39 -12.70973,-18.21619 -20.82124,-25.23812 -17.4735,-14.30057 -38.60235,-23.91706 -54.86626,-39.69938 -0.78202,-3.59726 -0.75238,-7.99613 -3.3125,-11.21875 -3.31018,-4.96977 -8.9004,-9.45364 -15.21875,-9 z m 22.75,60 c -13.29902,1.21713 -26.68756,3.78682 -39.8125,5.65625 -3.40572,3.64377 1.5475,8.76762 4.8125,10.6875 3.75412,2.52768 8.2234,0.84076 12.15625,0.625 1.46811,3.11799 0.73919,8.47537 -3.8125,8 -5.68031,1.32553 -12.6896,-1.41275 -17.625,2.125 -1.41931,4.51289 4.65234,6.70768 7.5625,8.8125 4.0209,2.85815 9.2053,2.62019 13.5625,4.03125 1.61465,3.42138 -1.93218,6.7401 -5.5,6.0625 -9.72779,0.42092 -22.49401,-2.94578 -29.5625,5.6875 -4.2177,6.35517 -5.01918,15.29738 -3.03125,22.59375 2.69901,6.8645 11.57845,4.80491 16.375,1.71875 6.22964,-2.97655 15.01022,-11.24053 18.75,-12.78125 -4.06176,4.78089 2.51303,9.63629 5.8125,12.53125 1.63306,1.26379 3.36571,2.50435 5.34375,3.125 -12.8766,3.1768 -26.74412,1.10027 -39.4375,4.8125 -4.76774,3.07192 0.98477,8.13331 3.5,10.5625 7.63213,7.43689 18.6652,1.74578 27.6823,1.64812 18.89833,-2.72823 38.48078,-1.3308 57.0052,-6.05437 5.36801,-0.98347 5.48724,-7.79385 1.78125,-10.75 -5.37784,-5.31227 -13.87137,-7.44694 -21.125,-5.28125 6.87992,-6.49788 14.20752,-17.8137 7.875,-26.96875 -6.31229,-7.62662 -17.60746,-7.13162 -26.4375,-5.625 -2.54133,-1.3081 0.90913,-4.70961 2.8125,-5 6.52934,-2.84458 17.05337,-2.08135 19.5,-10.25 1.1678,-4.70973 -3.57363,-8.10685 -7.9375,-7.09375 -4.92918,-0.17535 -10.59315,2.68831 -15.125,0.6875 -0.58658,-4.27047 5.90177,-3.67996 8.65625,-3.875 4.96495,-0.27647 13.51417,-2.36577 12.15625,-9 -2.34105,-6.35902 -10.12587,-7.12735 -15.9375,-6.6875 z m -2.3125,52.75 c 6.36227,1.22315 6.94712,10.22979 5.34375,15.28125 -1.80238,5.66191 -9.12543,8.70315 -13.46875,9.65625 6.00438,-6.22878 4.40895,-15.85719 6.1875,-23.4375 0.41288,-0.71616 1.04827,-1.43474 1.9375,-1.5 z M -402.25,229.625 c 2.00808,-0.24765 6.68712,0.95246 3.25,3.15625 -1.99451,1.86598 -5.39694,4.31884 -7.6875,4.34375 -0.78658,-3.40928 -0.0551,-8.04124 4.4375,-7.5 z m 77.21875,46.53125 c -21.93894,4.19347 -43.84263,8.94565 -65.78125,13.28125 8.70269,4.04619 18.40645,6.34403 26.21875,12.03125 -8.15302,10.30821 -23.03959,16.31044 -26.21875,30.15625 -0.99855,6.99176 7.84919,9.28952 13.03125,6.9375 7.41698,-2.15486 11.69093,-9.48276 19.71875,-10.34375 10.89566,-1.13721 21.90092,-2.37696 32,-6.9375 2.30724,-0.44159 6.26844,-2.37872 8.15625,-0.75 -2.98035,5.93597 -10.68329,8.02895 -16.3125,10.75 -12.15435,5.33159 -26.65249,4.69564 -38.0625,11.6875 -2.89768,4.46659 4.12914,5.96158 7.28125,5.96875 13.05074,1.0459 26.31015,-0.17917 38.78125,-3.875 2.66287,-0.93266 7.39767,1.50556 3.6875,4.125 -15.40491,5.08869 -32.12957,5.2725 -48.27519,6.81552 -12.61565,0.36542 -25.85849,2.31929 -37.91231,-2.19052 -5.36532,-1.19196 -6.60398,5.6195 -4.71875,9.25 4.8231,10.40946 18.78035,11.49839 28.82896,9.70366 21.73713,-4.31888 43.9541,-8.31455 66.20229,-6.73491 4.13156,0.28628 2.42952,6.32691 3.43429,9.05839 0.80555,7.80831 0.41384,15.67021 0.53446,23.50411 -10.87142,0.71994 -22.20233,-0.67151 -32.84375,1.375 -3.74225,3.02133 2.18877,5.55422 4.8125,6 13.66427,3.87475 22.00053,15.96425 33,23.90625 4.65814,3.80649 11.90267,1.95374 14.0625,-3.71875 6.02558,-11.97013 3.71222,-26.10572 3.37821,-39.05839 -0.46061,-8.11601 -2.21685,-16.71987 -4.40946,-24.12911 11.57952,-0.87016 24.1998,4.84379 35.375,0.125 5.06663,-3.61452 -0.32262,-9.86267 -3.75,-12.5 -9.69569,-8.874 -23.46179,-1.10413 -34.6875,-3.03125 -3.11056,-1.68919 -3.22629,-6.4769 -7,-7.75 -1.70695,-1.13866 -5.36227,-0.6543 -2,-3.09375 4.26821,-5.25817 12.56318,-10.44173 10.65625,-18.21875 -6.04582,-10.74553 -20.83917,-12.41414 -31.75277,-9.48179 -8.87434,1.53043 -16.96988,7.60493 -25.90348,7.23179 1.42447,-5.44607 5.33663,-10.6497 4.40625,-16.53125 8.22698,-4.69885 18.64938,-3.06626 27.59375,-5.46875 5.13708,-0.46788 11.33879,-4.54549 9.0625,-10.46875 -0.87956,-5.1423 -5.22107,-8.59421 -10.59375,-7.625 z m -107.09375,6.6875 c -6.13936,0.15377 -7.06311,7.97959 -3.875,12 3.72439,6.81947 12.81399,12.06404 11.5625,20.78125 -1.10834,4.06756 -5.01187,7.25784 -8.8125,8.15625 0.174,-11.46702 -9.00124,-22.5056 -20.03125,-24.96875 -3.33978,-1.11512 -8.90531,1.35366 -5.96875,5.25 6.14976,6.5041 10.43961,16.08503 8.96875,25.375 -5.14066,1.7307 -13.68498,-2.44061 -16.75,3.75 -0.15333,6.50319 6.74429,11.30335 12.65625,12.25 9.64595,1.82794 19.29071,-1.94976 26.875,-7.6875 -0.0253,7.24668 -9.08508,9.75623 -14.65625,11.65625 -11.51167,4.05591 -23.7906,-0.45681 -35.53125,1.53125 -5.28439,1.0912 -2.11583,7.3535 0.40625,9.8125 2.91076,3.99986 7.5144,6.97794 11.3125,9.4375 -0.16965,9.51221 -9.13389,18.31874 -5.59375,27.96875 2.92461,5.68028 11.0011,3.93743 13.71875,-1.03125 1.84715,-3.69293 3.13242,-4.43843 4.93182,0.35256 6.34496,8.31324 9.90179,18.61923 16.78693,26.39744 4.45586,4.61485 11.14105,0.41697 12.78125,-4.71875 9.42337,-22.67976 4.5797,-48.12604 8.5,-71.875 1.89291,-16.32078 5.95143,-32.15222 9.4375,-48.1875 -8.0867,-6.09969 -15.70695,-16.33604 -26.71875,-16.25 z m 0.71875,77.25 c 1.46432,13.58022 -0.82174,27.15049 -3.09375,40.5 -6.53349,-3.39598 -13.06484,-6.77896 -19.59375,-10.1875 3.90838,-8.60336 2.05539,-21.0528 12.03125,-25.84375 3.26362,-1.47399 7.78072,-4.59986 10.65625,-4.46875 z m 81.5,8.5625 c -5.64828,0.37366 -6.73836,6.91029 -6.53125,11.375 -3.2059,7.82164 -14.36921,6.0259 -19.28125,11.875 -1.09987,4.6687 5.70765,4.82223 8.8125,5.34375 11.1037,0.42544 23.61796,-1.80631 31.59375,-10.09375 4.8999,-7.3283 -3.1162,-16.17071 -10.25,-18.03125 -1.40622,-0.38272 -2.8712,-0.62 -4.34375,-0.46875 z"
           id="path3095"
           inkscape:connector-curvature="0" />
      </g>
      <path
         sodipodi:nodetypes="sssscssscsscsscsssscc"
         inkscape:connector-curvature="0"
         id="path3412"
         d="m 83.265046,479.18497 c -1.53838,-0.97713 -5.257384,-11.59288 -5.286997,-15.09152 -0.04681,-5.53048 49.150861,-351.72779 50.301891,-353.96753 1.0408,-2.02527 10.47616,-5.59199 64.2187,-24.275707 L 255.49729,63.948594 315.87165,85.704 c 33.2059,11.965473 60.96634,22.21454 61.68987,22.7757 0.87061,0.67524 10.46874,60.5423 28.3806,177.0203 14.88581,96.8 27.06348,177.16705 27.06149,178.59345 -0.005,3.46977 -3.71837,14.10683 -5.26866,15.09152 -1.61454,1.02551 -342.855361,1.02551 -344.469904,0 z M 422.34568,454.2497 c 0.44553,-0.72088 -51.75365,-334.80901 -52.853,-338.27276 -0.38507,-1.21326 -16.57207,-7.31007 -57.23295,-21.556711 L 255.56372,74.555244 197.66127,94.027622 c -31.84635,10.709808 -58.5677,19.948888 -59.38078,20.531288 -1.10961,0.79481 -7.54361,43.19024 -25.79641,169.97979 -13.374944,92.90648 -24.103874,169.26747 -23.842064,169.69109 0.614407,0.99413 333.089304,1.01397 333.703664,0.0199 z"
         style="fill:#141310" />
    </g>
  </g>
</svg>
