<?xml version="1.0" encoding="UTF-8" standalone="no"?>
<!-- Created with Inkscape (http://www.inkscape.org/) -->

<svg
   xmlns:dc="http://purl.org/dc/elements/1.1/"
   xmlns:cc="http://creativecommons.org/ns#"
   xmlns:rdf="http://www.w3.org/1999/02/22-rdf-syntax-ns#"
   xmlns:svg="http://www.w3.org/2000/svg"
   xmlns="http://www.w3.org/2000/svg"
   xmlns:sodipodi="http://sodipodi.sourceforge.net/DTD/sodipodi-0.dtd"
   xmlns:inkscape="http://www.inkscape.org/namespaces/inkscape"
   id="svg4397"
   version="1.1"
   inkscape:version="0.48.4 r9943 custom"
   width="512"
   height="512"
   sodipodi:docname="WhiteGoldLance.svg">
  <metadata
     id="metadata4403">
    <rdf:RDF>
      <cc:Work
         rdf:about="">
        <dc:format>image/svg+xml</dc:format>
        <dc:type
           rdf:resource="http://purl.org/dc/dcmitype/StillImage" />
        <dc:title />
      </cc:Work>
    </rdf:RDF>
  </metadata>
  <defs
     id="defs4401" />
  <sodipodi:namedview
     pagecolor="#ffffff"
     bordercolor="#666666"
     borderopacity="1"
     objecttolerance="10"
     gridtolerance="10"
     guidetolerance="10"
     inkscape:pageopacity="0"
     inkscape:pageshadow="2"
     inkscape:window-width="640"
     inkscape:window-height="480"
     id="namedview4399"
     showgrid="false"
     inkscape:zoom="0.4609375"
     inkscape:cx="256"
     inkscape:cy="244.09001"
     inkscape:window-x="0"
     inkscape:window-y="22"
     inkscape:window-maximized="0"
     inkscape:current-layer="g4407" />
  <g
     id="g4407">
    <g
       id="g3900">
      <path
         inkscape:connector-curvature="0"
         id="path4413"
         d="m 103.12951,473.43752 c -4.889381,-6.21585 -5.772542,2.36208 17.4072,-169.07198 13.53945,-100.13579 22.08696,-160.35204 22.87725,-161.16766 1.00047,-1.03252 84.91146,-31.23148 107.24808,-38.59781 l 5.16204,-1.70237 52.83796,19.60707 c 29.06088,10.78388 53.22556,19.992 53.6993,20.46248 0.47373,0.47048 11.84841,72.78282 25.27705,160.69409 26.23412,171.74297 25.23809,163.41209 20.28945,169.70326 L 405.85484,476 255.5,476 l -150.35484,0 -2.01565,-2.56248 z"
         style="fill:#d3bc5f" />
      <g
         transform="matrix(1.1711716,0,0,1.1711716,414.60295,-15.959412)"
         style="fill:#ff0000"
         id="g3885">
        <path
           style="fill:#ff0000"
           d="m -139.67187,369.20679 c -10.04129,-3.05078 -23.88905,-11.2287 -23.88905,-14.10791 0,-1.0846 12.34138,-1.97201 27.42529,-1.97201 26.00404,0 27.42529,0.39242 27.42529,7.57212 0,11.13021 -11.7254,14.35217 -30.96153,8.5078 z m -1.51861,-24.34066 c 1.18667,-1.92008 -2.42658,-8.71213 -8.02945,-15.09344 -13.47739,-15.34987 -19.04503,-32.38544 -14.49534,-44.35203 6.17862,-16.25099 20.59324,-14.74272 27.74582,2.90319 1.83864,4.53604 2.90338,-2.91509 3.04468,-21.30699 0.26017,-33.86101 -0.70505,-34.30119 -31.94768,-14.56968 -24.67879,15.58606 -27.8673,16.53839 -22.63422,6.7603 2.04643,-3.82379 5.19456,-6.04149 6.99586,-4.92823 1.80129,1.11326 9.82292,-3.27944 17.82584,-9.76156 28.45594,-23.04844 54.67432,-31.17466 69.416494,-21.51522 10.93251,7.16326 10.87171,13.57608 -0.17645,18.60995 -12.237954,5.57598 -16.727224,4.95049 -10.336534,-1.44019 2.98024,-2.98024 4.542064,-6.83692 3.4707,-8.5704 -2.22468,-3.59962 -15.45159,-4.17702 -23.64669,-1.03227 -5.0061,1.92102 -4.97438,2.52096 0.3386,6.40591 5.34622,3.90925 5.47914,6.85971 1.51076,33.53339 -3.17548,21.34414 -3.34274,31.13137 -0.61899,36.22072 5.59887,10.46162 4.50526,23.7923 -2.52893,30.82647 -7.16477,7.16479 -19.27958,12.72253 -15.93449,7.31008 z m 8.48301,-21.41408 c 0,-11.10402 -2.36661,-17.53402 -9.67607,-26.28957 -19.00328,-22.76286 -23.715,0.74502 -5.62753,28.07705 4.69951,7.10143 10.06534,12.91169 11.92408,12.91169 1.85874,0 3.37952,-6.61464 3.37952,-14.69917 z m 10.28449,0.78419 c 0,-1.77421 -1.54268,-3.22583 -3.42816,-3.22583 -1.88549,0 -3.42817,2.40506 -3.42817,5.34457 0,2.93951 1.54268,4.39113 3.42817,3.22583 1.88548,-1.1653 3.42816,-3.57036 3.42816,-5.34457 z m -26.19377,-101.64249 c 10.79071,-11.80949 9.69205,-18.14084 -3.14793,-18.14084 -10.64413,0 -10.5158,-3.68469 0.80082,-22.99504 8.95586,-15.28202 9.0156,-15.75951 2.57112,-20.55064 -6.12047,-4.55024 -5.75476,-4.82658 5.05506,-3.8198 6.40906,0.59692 13.31357,3.73801 15.34335,6.9802 2.99311,4.78094 1.43889,8.22704 -8.22468,18.23617 l -11.91519,12.34126 16.78061,-1.09536 c 20.55932,-1.34201 23.72478,3.95903 8.21797,13.76223 -6.20726,3.92415 -16.68528,11.38155 -23.2845,16.572 l -11.99856,9.43719 z"
           id="path3883"
           inkscape:connector-curvature="0"
           sodipodi:nodetypes="ssssscsssssssssssssssssccssssssssssssssssscssscs" />
      </g>
      <path
         sodipodi:nodetypes="csssscscsccsscsssscc"
         inkscape:connector-curvature="0"
         id="path4411"
         d="m 105.25012,473.75325 c -2.34157,-2.9341 -4.24783,-7.88513 -4.21738,-10.95359 0.0612,-6.16344 42.6761,-317.90876 43.57432,-318.76356 C 145.80279,142.89818 253.3947,105 255.42952,105 c 2.42715,0 103.80751,37.80716 105.23458,39.2445 1.17096,1.17938 49.35703,313.39268 49.31945,319.55687 -0.009,1.48425 -1.03586,4.49863 -2.28179,6.69863 l -2.26535,4 -149.59306,0.25325 c -118.92608,0.20133 -149.7981,-0.004 -150.59323,-1 z M 399.34258,454.25 c 0.62101,-1.01118 -45.10215,-301.36267 -46.15533,-303.19037 -0.4565,-0.7922 -22.6221,-9.44531 -49.25689,-19.22914 l -48.42691,-17.78878 -50.50172,17.54234 c -27.77595,9.64829 -51.12835,18.1566 -51.89422,18.90735 -0.97159,0.95242 -7.51901,46.94938 -21.66138,152.17568 -11.1479,82.94587 -20.05722,151.15317 -19.7985,151.57179 0.6106,0.98797 287.08822,0.99905 287.69495,0.0111 z"
         style="fill:#f21712" />
      <path
         inkscape:connector-curvature="0"
         id="path4409"
         d="m 105.25012,473.75325 c -2.34157,-2.9341 -4.24783,-7.88513 -4.21738,-10.95359 0.0612,-6.16344 42.6761,-317.90876 43.57432,-318.76356 C 145.80279,142.89818 253.3947,105 255.42952,105 c 2.42715,0 103.80751,37.80716 105.23458,39.2445 1.17096,1.17938 49.35703,313.39268 49.31945,319.55687 -0.009,1.48425 -1.03586,4.49863 -2.28179,6.69863 l -2.26535,4 -149.59306,0.25325 c -118.92608,0.20133 -149.7981,-0.004 -150.59323,-1 z M 399.34258,454.25 c 0.62101,-1.01118 -45.10215,-301.36267 -46.15533,-303.19037 -0.4565,-0.7922 -22.6221,-9.44531 -49.25689,-19.22914 l -48.42691,-17.78878 -50.50172,17.54234 c -27.77595,9.64829 -51.12835,18.1566 -51.89422,18.90735 -0.97159,0.95242 -7.51901,46.94938 -21.66138,152.17568 -11.1479,82.94587 -20.05722,151.15317 -19.7985,151.57179 0.6106,0.98797 287.08822,0.99905 287.69495,0.0111 z"
         style="fill:#161513" />
    </g>
  </g>
</svg>
