<?xml version="1.0" encoding="UTF-8" standalone="no"?>
<!-- Created with Inkscape (http://www.inkscape.org/) -->

<svg
   xmlns:dc="http://purl.org/dc/elements/1.1/"
   xmlns:cc="http://creativecommons.org/ns#"
   xmlns:rdf="http://www.w3.org/1999/02/22-rdf-syntax-ns#"
   xmlns:svg="http://www.w3.org/2000/svg"
   xmlns="http://www.w3.org/2000/svg"
   xmlns:sodipodi="http://sodipodi.sourceforge.net/DTD/sodipodi-0.dtd"
   xmlns:inkscape="http://www.inkscape.org/namespaces/inkscape"
   id="svg3122"
   version="1.1"
   inkscape:version="0.48.4 r9943 custom"
   width="512"
   height="512"
   sodipodi:docname="WhiteCrownedBishop.svg">
  <metadata
     id="metadata3128">
    <rdf:RDF>
      <cc:Work
         rdf:about="">
        <dc:format>image/svg+xml</dc:format>
        <dc:type
           rdf:resource="http://purl.org/dc/dcmitype/StillImage" />
        <dc:title />
      </cc:Work>
    </rdf:RDF>
  </metadata>
  <defs
     id="defs3126" />
  <sodipodi:namedview
     pagecolor="#ffffff"
     bordercolor="#666666"
     borderopacity="1"
     objecttolerance="10"
     gridtolerance="10"
     guidetolerance="10"
     inkscape:pageopacity="0"
     inkscape:pageshadow="2"
     inkscape:window-width="640"
     inkscape:window-height="480"
     id="namedview3124"
     showgrid="false"
     inkscape:zoom="0.4609375"
     inkscape:cx="578.16949"
     inkscape:cy="256"
     inkscape:window-x="0"
     inkscape:window-y="22"
     inkscape:window-maximized="0"
     inkscape:current-layer="g3132" />
  <g
     id="g3132">
    <g
       id="g3033">
      <path
         inkscape:connector-curvature="0"
         id="path3138"
         d="M 72.249679,484.75 C 71.702313,484.0625 70.254357,479.225 69.032,474 L 66.809531,464.5 93.29548,276.65929 C 107.86275,173.34689 120.16811,88.435496 120.64071,87.967294 121.92769,86.69231 253.12009,41 255.49386,41 c 2.32043,0 129.53764,45.664114 130.8678,46.974479 0.47391,0.466858 13.678,85.376091 29.34242,188.687181 L 444.18485,464.5 441.96519,474 c -1.22081,5.225 -2.6675,10.0625 -3.21487,10.75 -1.46182,1.83607 -365.038821,1.83607 -366.500641,0 z"
         style="fill:#d3bc5f" />
      <g
         transform="matrix(1.0721232,0,0,1.0721232,-480.27016,-34.23597)"
         id="g3006">
        <path
           style="fill:#ff0000"
           d="m 658.65017,441.5708 c -12.51696,-2.94309 -28.63989,-17.78076 -28.63989,-26.35681 0,-9.78834 13.15031,-16.90872 29.11144,-15.7627 12.79598,0.91874 15.5501,2.38214 15.5501,8.26235 0,5.5888 -1.94631,6.86108 -8.93231,5.83894 -17.78535,-2.60227 -22.5276,-2.18895 -24.01774,2.09323 -2.2803,6.55292 20.47842,18.8362 34.92822,18.85139 16.45083,0.0179 49.32834,-16.41569 54.18979,-27.0854 9.76129,-21.42371 -13.64893,-39.81237 -44.42009,-34.89185 -10.62845,1.69954 -13.53433,1.00942 -13.53433,-3.21434 0,-2.9582 2.41172,-7.38009 5.35938,-9.82643 7.27928,-6.04128 6.75811,-10.41554 -0.99926,-8.38694 -7.72992,2.02142 -26.91194,-4.78418 -24.49717,-8.69135 2.51834,-4.07478 59.43921,-5.13107 59.43921,-1.10307 0,1.85446 -5.00166,7.28612 -11.1148,12.07037 l -11.11479,8.69864 18.55879,1.78328 c 23.42659,2.25098 32.40952,10.65714 34.88822,32.64805 1.69271,15.01768 0.82775,17.4006 -10.38698,28.61533 -17.97613,17.97612 -43.69891,23.66847 -74.36779,16.45731 z M 623.9569,310.93072 c -7.71417,-7.11513 -8.37773,-8.65627 -2.87893,-6.68638 16.53265,5.92264 24.60871,5.48792 62.31785,-3.3545 45.63697,-10.7014 53.41,-11.21662 62.94481,-4.17211 6.56332,4.84912 6.07269,5.49707 -9.14265,12.07424 -8.84298,3.82259 -20.9016,7.90527 -26.79692,9.07263 -9.80498,1.94154 -10.03343,1.77944 -2.6797,-1.90147 4.4215,-2.21316 8.03908,-5.38606 8.03908,-7.05087 0,-5.08979 -18.39154,-3.39363 -44.66154,4.11892 -32.01158,9.15449 -35.08808,9.01741 -47.142,-2.10046 z m 66.37273,-47.50012 c -7.62924,-7.62924 -13.87135,-16.7754 -13.87135,-20.32479 0,-5.67482 0.92322,-5.46249 7.65185,1.75985 7.25545,7.78781 27.24271,18.14459 35.01672,18.14459 1.97776,0 6.14996,-4.93894 9.27155,-10.97543 6.82134,-13.19101 3.47287,-18.84716 -14.71023,-24.84812 -13.08415,-4.31816 -15.50689,-10.59404 -6.86004,-17.77029 6.76254,-5.61241 6.89371,-12.93839 0.27712,-15.47741 -2.79524,-1.07264 -5.60892,-5.5118 -6.25262,-9.86482 -1.1592,-7.83919 -1.28946,-7.81738 -13.67558,2.28974 l -12.50523,10.20432 8.93231,-10.25436 c 4.91277,-5.63989 11.74599,-13.19985 15.18492,-16.79991 4.38434,-4.58975 6.25262,-12.34536 6.25262,-25.95587 0,-16.75964 -1.05531,-19.74525 -7.72785,-21.86303 -6.90182,-2.19055 -7.08507,-2.81245 -1.71436,-5.81804 15.24632,-8.53228 28.832,9.83632 20.61444,27.87189 -6.16009,13.51992 -4.91565,15.68668 5.79916,10.09731 12.31327,-6.42322 16.80484,-6.46847 21.98931,-0.22156 3.29213,3.96677 2.139,5.40819 -5.81513,7.26888 -21.89216,5.12117 -29.57265,9.9307 -29.57265,18.51841 0,5.94603 2.55636,9.07237 8.67378,10.60774 11.07467,2.77957 14.48293,11.575 7.48273,19.31013 -6.31063,6.97317 -4.44721,9.60626 11.53365,16.2975 13.29711,5.56755 15.27684,16.35909 6.21564,33.88152 -11.54661,22.32866 -32.22966,23.88284 -52.19076,3.92175 z m -49.02102,-5.08141 c -2.36514,-2.84981 -2.52344,-6.44032 -0.42989,-9.75046 1.8226,-2.88175 3.38958,-11.67082 3.48217,-19.53125 0.15721,-13.34588 0.5155,-13.8327 5.4141,-7.35618 5.19272,6.86539 5.30193,6.86539 10.80224,0 5.36754,-6.69966 5.42829,-6.67012 1.78646,0.86868 -2.07351,4.2923 -3.77002,13.48067 -3.77002,20.4186 0,14.25412 -10.47472,23.55657 -17.28506,15.35061 z m -38.18801,-6.20778 c -1.26552,-2.04765 8.43103,-15.71408 21.54787,-30.36985 13.11685,-14.65576 22.1283,-26.64685 20.02544,-26.64685 -2.10285,0 -14.34795,4.32213 -27.21133,9.60473 -21.94808,9.0134 -23.75931,9.23337 -29.41976,3.57292 -5.66045,-5.66045 -5.31383,-6.0318 5.63003,-6.0318 6.414,0 16.26347,-2.3796 21.88769,-5.288 10.92066,-5.64729 25.16666,-21.66422 25.12063,-28.24338 -0.037,-5.28607 -16.90492,-12.91662 -28.55324,-12.91662 -8.92793,0 -17.86689,-5.63599 -17.86689,-11.26502 0,-1.4795 7.96262,-1.74694 17.6947,-0.59432 17.55421,2.07904 17.74385,1.9926 23.88575,-10.88711 6.90653,-14.48313 14.89216,-16.47408 24.31489,-6.06207 7.63688,8.43865 5.42999,12.52228 -11.63977,21.53819 -12.89951,6.81326 -12.96738,6.95772 -3.34141,7.11242 11.11851,0.17868 12.44652,5.54472 4.26356,17.22753 -5.3842,7.68701 -5.21288,7.94084 5.35938,7.94084 6.36372,0 10.91467,1.8638 10.90531,4.46616 -0.009,2.45638 -8.53195,14.11304 -18.94026,25.90369 -10.40832,11.79064 -22.56919,26.66294 -27.02416,33.04954 -8.45262,12.11756 -12.76217,14.16091 -16.63843,7.889 z m 51.06859,-118.46457 c -1.78456,-5.35369 -7.98084,-3.81802 -9.25356,2.29339 -0.7953,3.81893 0.63654,4.84895 4.61716,3.32144 3.17349,-1.21778 5.25987,-3.74445 4.6364,-5.61483 z m 101.76664,33.91398 c 10.47249,-6.69085 12.53013,-14.78034 5.53803,-21.77244 -3.33473,-3.33473 -2.55905,-4.28751 3.49056,-4.28751 4.40253,0 10.37894,3.96944 13.77115,9.1466 7.61234,11.6179 2.3877,17.57329 -18.33359,20.89787 l -14.29169,2.293 z"
           id="path3004"
           inkscape:connector-curvature="0"
           sodipodi:nodetypes="sssssscsssssssscsssssssssssssssssssssssscsssssssssssssssssssssssssssssssssssssssscsssssssssssscs" />
      </g>
      <path
         sodipodi:nodetypes="sssscssssscsssscc"
         inkscape:connector-curvature="0"
         id="path3136"
         d="M 74.333178,484.22708 C 72.934299,483.33715 69,468.45528 69,464.05381 69,458.46366 121.13145,90.54654 122.08661,89.395639 122.59762,88.779912 152.8305,77.851437 189.27078,65.110137 l 66.25507,-23.165999 63.98708,23.071644 c 35.19289,12.689404 64.52241,23.614473 65.17672,24.277931 C 385.82109,90.440973 442,457.97084 442,464.22559 c 0,4.26797 -3.9627,19.12963 -5.33318,20.00149 -1.52551,0.97048 -360.808133,0.97048 -362.333642,0 z M 431.35399,454.23624 C 432.29606,452.71195 376.2006,96.742012 374.89076,95.932485 373.06417,94.803592 257.19604,54.005373 255.72519,53.973206 254.27707,53.941537 134.00578,94.760359 132.12832,95.920693 130.801,96.741021 78.656683,452.63548 79.632479,454.21436 c 0.626082,1.01302 351.095481,1.03483 351.721511,0.0219 z"
         style="fill:#f21914" />
      <path
         inkscape:connector-curvature="0"
         id="path3134"
         d="M 74.333178,484.22708 C 72.934299,483.33715 69,468.45528 69,464.05381 69,458.46366 121.13145,90.54654 122.08661,89.395639 122.59762,88.779912 152.8305,77.851437 189.27078,65.110137 l 66.25507,-23.165999 63.98708,23.071644 c 35.19289,12.689404 64.52241,23.614473 65.17672,24.277931 C 385.82109,90.440973 442,457.97084 442,464.22559 c 0,4.26797 -3.9627,19.12963 -5.33318,20.00149 -1.52551,0.97048 -360.808133,0.97048 -362.333642,0 z M 431.35399,454.23624 C 432.29606,452.71195 376.2006,96.742012 374.89076,95.932485 373.06417,94.803592 257.19604,54.005373 255.72519,53.973206 254.27707,53.941537 134.00578,94.760359 132.12832,95.920693 130.801,96.741021 78.656683,452.63548 79.632479,454.21436 c 0.626082,1.01302 351.095481,1.03483 351.721511,0.0219 z"
         style="fill:#11100f" />
    </g>
  </g>
</svg>
