<?xml version="1.0" encoding="UTF-8" standalone="no"?>
<!-- Created with Inkscape (http://www.inkscape.org/) -->

<svg
   xmlns:dc="http://purl.org/dc/elements/1.1/"
   xmlns:cc="http://creativecommons.org/ns#"
   xmlns:rdf="http://www.w3.org/1999/02/22-rdf-syntax-ns#"
   xmlns:svg="http://www.w3.org/2000/svg"
   xmlns="http://www.w3.org/2000/svg"
   xmlns:sodipodi="http://sodipodi.sourceforge.net/DTD/sodipodi-0.dtd"
   xmlns:inkscape="http://www.inkscape.org/namespaces/inkscape"
   id="svg3840"
   version="1.1"
   inkscape:version="0.48.4 r9943 custom"
   width="512"
   height="512"
   sodipodi:docname="WhiteLance.svg">
  <metadata
     id="metadata3846">
    <rdf:RDF>
      <cc:Work
         rdf:about="">
        <dc:format>image/svg+xml</dc:format>
        <dc:type
           rdf:resource="http://purl.org/dc/dcmitype/StillImage" />
        <dc:title />
      </cc:Work>
    </rdf:RDF>
  </metadata>
  <defs
     id="defs3844" />
  <sodipodi:namedview
     pagecolor="#ffffff"
     bordercolor="#666666"
     borderopacity="1"
     objecttolerance="10"
     gridtolerance="10"
     guidetolerance="10"
     inkscape:pageopacity="0"
     inkscape:pageshadow="2"
     inkscape:window-width="1114"
     inkscape:window-height="705"
     id="namedview3842"
     showgrid="false"
     inkscape:zoom="0.4609375"
     inkscape:cx="256"
     inkscape:cy="256"
     inkscape:window-x="0"
     inkscape:window-y="22"
     inkscape:window-maximized="0"
     inkscape:current-layer="g3850" />
  <g
     id="g3850">
    <g
       id="g3836">
      <path
         inkscape:connector-curvature="0"
         id="path3854"
         d="m 103.12951,473.43752 c -4.889381,-6.21585 -5.772542,2.36208 17.4072,-169.07198 13.53945,-100.13579 22.08696,-160.35204 22.87725,-161.16766 1.00047,-1.03252 84.91146,-31.23148 107.24808,-38.59781 l 5.16204,-1.70237 52.83796,19.60707 c 29.06088,10.78388 53.22556,19.992 53.6993,20.46248 0.47373,0.47048 11.84841,72.78282 25.27705,160.69409 26.23412,171.74297 25.23809,163.41209 20.28945,169.70326 L 405.85484,476 255.5,476 l -150.35484,0 -2.01565,-2.56248 z"
         style="fill:#d3bc5f" />
      <g
         transform="translate(438.23729,15.016949)"
         id="g3809">
        <path
           style="fill:#000000"
           d="m -185.06323,406.40013 -2.56474,-17.13589 -14.63216,2.47209 c -8.04769,1.35963 -20.85764,4.66855 -28.46655,7.35312 -19.20507,6.77597 -35.58898,6.15158 -42.62617,-1.62444 -9.00052,-9.94548 -7.14546,-12.42465 7.45273,-9.96014 18.91781,3.19381 79.15149,-5.16099 79.15149,-10.97879 0,-2.8385 -4.641,-4.5719 -12.24085,-4.5719 -6.73247,0 -13.12654,-1.43308 -14.20905,-3.18462 -2.39845,-3.88078 6.19865,-7.48749 17.84742,-7.48749 4.89405,0 8.60248,-2.09184 8.60248,-4.85246 0,-3.28538 -4.18899,-4.72145 -12.9709,-4.44672 -18.5201,0.57936 -19.71255,-7.72806 -1.52672,-10.63611 9.17117,-1.46652 14.49762,-4.19976 14.49762,-7.43938 0,-3.3816 -2.25717,-4.4047 -6.64512,-3.01203 -3.65482,1.15999 -12.56674,2.33172 -19.80427,2.60378 -11.45668,0.43069 -12.92015,1.45451 -11.31183,7.91341 3.49757,14.04606 6.73165,39.43203 4.79729,37.65637 -1.06572,-0.97828 -8.39674,-14.28235 -16.29116,-29.56463 l -14.35348,-27.78594 13.12809,0.83896 c 7.22045,0.46146 21.53238,0.55879 31.80429,0.21629 16.12293,-0.53752 18.67619,-1.59924 18.67619,-7.76612 0,-6.19614 -2.14661,-7.06227 -16.18692,-6.5312 -11.51742,0.43564 -17.93123,-1.22407 -22.23357,-5.7534 -5.76251,-6.06654 -5.45565,-6.27744 6.53056,-4.48836 20.06006,2.99423 31.88993,-0.56024 31.88993,-9.58178 0,-4.27199 -2.00102,-9.80236 -4.44671,-12.28972 -3.58545,-3.64653 -2.03516,-4.30109 8.00408,-3.3795 11.09177,1.01821 12.43261,2.24779 12.28423,11.26482 -0.16119,9.7957 0.28146,10.05021 13.73772,7.89847 13.36118,-2.13654 23.78123,1.84879 23.78123,9.09554 0,1.71698 -8.80449,3.12179 -19.56553,3.12179 -17.58864,0 -19.56554,0.76518 -19.56554,7.57304 0,7.11564 1.12802,7.40585 18.67619,4.80507 32.88478,-4.8738 35.811,-4.39232 41.23089,6.78416 4.30341,8.87415 4.26151,11.775 -0.30853,21.35845 -2.90856,6.09933 -6.42957,16.28589 -7.82447,22.63687 l -2.5362,11.54719 17.94434,0 c 14.608256,0 18.690246,1.39374 21.956426,7.49666 6.27711,11.72886 -0.29974,14.55419 -19.981596,8.58379 -9.66635,-2.93224 -29.1811,-5.34865 -43.36611,-5.36985 l -25.79094,-0.0385 -0.3546,11.56145 c -3.57898,29.69654 -7.85785,33.48485 -12.18948,5.09765 z m 41.36647,-29.52916 c 12.37008,-2.04617 12.9422,-2.81541 16.50683,-22.1944 2.57002,-13.97186 2.55697,-21.47542 -0.0429,-24.68203 -5.17569,-6.38352 -42.3488,-4.31438 -44.59334,2.48215 -1.27979,3.87526 1.10918,4.54227 10.69635,2.98645 13.37493,-2.17042 19.39342,2.5e-4 21.23113,7.65742 0.85169,3.54876 -3.14004,5.00632 -14.52106,5.3024 -10.00793,0.2604 -16.30417,2.21642 -17.37493,5.39796 -1.31517,3.90773 1.1183,4.53564 11.22272,2.89594 9.43978,-1.53187 14.51954,-0.4843 18.92968,3.90379 5.6577,5.6294 4.89514,6.06347 -12.4246,7.07273 -13.23926,0.77149 -18.45226,2.53022 -18.45226,6.2254 0,5.55387 8.08665,6.38217 28.82238,2.95219 z M -154.7323,258.58453 c 0,-2.03458 -9.95479,-4.15826 -22.23356,-4.74316 -27.22579,-1.2969 -28.90134,-7.77914 -2.38472,-9.22582 27.189,-1.48337 28.17565,-2.14406 28.17565,-18.86736 l 0,-14.80658 -13.34014,2.20499 c -7.33707,1.21274 -20.65702,2.2226 -29.59988,2.24414 l -16.25975,0.0392 2.51246,18.67619 c 2.49025,18.51105 -2.07606,32.82811 -5.93704,18.61484 -11.82196,-43.51965 -13.43297,-45.09697 -40.53939,-39.69167 -11.30147,2.25363 -10.48052,1.29239 8.89343,-10.41321 23.27233,-14.06098 26.96103,-17.88895 24.19186,-25.10529 -2.44477,-6.37098 0.7219,-6.02762 7.57037,0.82085 8.1534,8.15339 6.86897,14.8568 -3.93092,20.51544 -8.98744,4.70899 -9.13698,5.19195 -2.66803,8.61689 4.85294,2.56934 15.32535,2.00431 35.88199,-1.93601 26.93792,-5.16348 29.69256,-5.12948 38.24173,0.47216 10.374,6.79731 11.86387,20.23584 4.5653,41.17895 -4.00241,11.48481 -13.13936,19.41606 -13.13936,11.4055 z m -42.5679,-25.21801 c -4.17545,-2.64084 -3.24251,-4.04879 4.67829,-7.06027 14.22717,-5.40916 30.77487,-4.78567 30.77487,1.15953 0,8.21358 -25.17212,12.40316 -35.45316,5.90074 z m 69.24818,-28.1875 c -12.61077,-7.87605 -36.67651,-32.42562 -31.82483,-32.46465 1.85123,-0.0149 14.23535,5.14902 27.52028,11.47536 18.91463,9.00723 23.93064,13.00405 23.1229,18.42462 -1.43677,9.64188 -6.40297,10.3187 -18.81835,2.56467 z m -64.03267,-11.09335 c -5.79033,-6.39825 -5.84585,-7.11474 -0.55135,-7.11474 4.21678,0 5.88741,-3.1407 5.88741,-11.06802 0,-10.71401 -0.39663,-10.9936 -12.40094,-8.74158 -12.46473,2.3384 -26.73013,-2.34442 -26.73013,-8.77453 0,-1.88772 8.80449,-3.43221 19.56553,-3.43221 15.83436,0 19.56554,-1.12274 19.56554,-5.8874 0,-5.44206 0.50055,-5.43441 6.61723,0.1011 5.38552,4.87383 8.50492,5.27081 16.75865,2.13274 12.28334,-4.6701 26.4273,-1.72648 26.4273,5.50002 0,3.95036 -4.44959,5.26828 -17.78685,5.26828 l -17.78685,0 0,12.68466 c 0,13.08182 -5.17774,26.44642 -10.24592,26.44642 -1.58448,0 -5.7783,-3.20164 -9.31962,-7.11474 z m -1.77485,-51.10418 -16.00434,2.49351 c 27.16242,-38.85454 57.20102,-9.56066 16.00434,-2.49351 z"
           id="path3807"
           inkscape:connector-curvature="0"
           sodipodi:nodetypes="ccssssssssssssssssscsssssssssssssssssscsssscccssssssssssssssssscsscssssssssssssssssssssssssssssssssscsssccc" />
      </g>
      <path
         sodipodi:nodetypes="ccssssscccsscsssscc"
         inkscape:connector-curvature="0"
         id="path3852"
         d="m 106.22326,474.32881 c -1.88347,-0.75723 -5.22392,-7.82288 -5.21893,-11.03897 0.009,-5.56047 42.74583,-318.43885 43.60888,-319.25989 C 145.79838,142.90247 253.39591,105 255.41143,105 c 2.41457,0 103.8433,37.82398 105.25079,39.24927 C 361.78325,145.38449 410,457.48717 410,463.60832 c 0,3.23135 -3.4682,9.97363 -5.53919,10.76835 -1.9354,0.74268 -296.38875,0.69543 -298.23755,-0.0479 z M 399.34318,454.25 c 0.62421,-1.01505 -45.09485,-301.36919 -46.15078,-303.19037 -0.45933,-0.7922 -22.62725,-9.44531 -49.26204,-19.22914 l -48.42691,-17.78878 -50.50172,17.54234 c -27.77595,9.64829 -51.13157,18.15982 -51.90138,18.91452 -0.98108,0.96181 -7.45987,46.46873 -21.66444,152.17073 -11.14563,82.93921 -20.05173,151.14329 -19.79133,151.56463 0.6126,0.99121 287.0891,1.00721 287.6986,0.0161 z"
         style="fill:#161412" />
    </g>
  </g>
</svg>
