<?xml version="1.0" encoding="UTF-8" standalone="no"?>
<!-- Created with Inkscape (http://www.inkscape.org/) -->

<svg
   xmlns:dc="http://purl.org/dc/elements/1.1/"
   xmlns:cc="http://creativecommons.org/ns#"
   xmlns:rdf="http://www.w3.org/1999/02/22-rdf-syntax-ns#"
   xmlns:svg="http://www.w3.org/2000/svg"
   xmlns="http://www.w3.org/2000/svg"
   xmlns:sodipodi="http://sodipodi.sourceforge.net/DTD/sodipodi-0.dtd"
   xmlns:inkscape="http://www.inkscape.org/namespaces/inkscape"
   id="svg4261"
   version="1.1"
   inkscape:version="0.48.4 r9943 custom"
   width="512"
   height="512"
   sodipodi:docname="WhiteGoldKnight.svg">
  <metadata
     id="metadata4267">
    <rdf:RDF>
      <cc:Work
         rdf:about="">
        <dc:format>image/svg+xml</dc:format>
        <dc:type
           rdf:resource="http://purl.org/dc/dcmitype/StillImage" />
        <dc:title />
      </cc:Work>
    </rdf:RDF>
  </metadata>
  <defs
     id="defs4265" />
  <sodipodi:namedview
     pagecolor="#ffffff"
     bordercolor="#666666"
     borderopacity="1"
     objecttolerance="10"
     gridtolerance="10"
     guidetolerance="10"
     inkscape:pageopacity="0"
     inkscape:pageshadow="2"
     inkscape:window-width="957"
     inkscape:window-height="785"
     id="namedview4263"
     showgrid="false"
     inkscape:zoom="0.4609375"
     inkscape:cx="256"
     inkscape:cy="256"
     inkscape:window-x="440"
     inkscape:window-y="56"
     inkscape:window-maximized="0"
     inkscape:current-layer="g4271" />
  <g
     id="g4271">
    <g
       id="g3716">
      <path
         inkscape:connector-curvature="0"
         id="path4277"
         d="m 95.072155,473.3646 c -4.895079,-6.22308 -5.788704,2.25431 18.785045,-178.20493 12.60791,-92.58719 23.31032,-168.72495 23.78313,-169.19502 1.29405,-1.28654 115.55058,-41.954093 117.85967,-41.950027 2.25173,0.004 111.52115,40.619397 112.85943,41.949847 0.47269,0.46992 12.29661,76.60765 26.27538,169.19496 27.29982,180.81832 26.23664,171.92039 21.29303,178.20517 L 413.85484,476 255.5,476 97.14516,476 95.072155,473.3646 z"
         style="fill:#d3bc5f" />
      <g
         transform="matrix(1.3089706,0,0,1.3089706,588.84215,-119.2468)"
         id="g3701">
        <path
           style="fill:#ff0000"
           d="m -266.11059,398.66442 c -5.79853,-1.44799 -13.4325,-4.24986 -16.96438,-6.2264 -5.58196,-3.12382 -4.78729,-3.90032 6.07767,-5.93861 13.4093,-2.51559 20.79979,-9.02486 10.24665,-9.02486 -9.43429,0 -21.82563,-9.86332 -21.82563,-17.37288 0,-9.6802 13.4199,-17.37289 30.30701,-17.37289 13.4411,0 14.86248,-0.81111 14.86248,-8.48138 0,-11.77395 -3.19782,-12.78602 -25.57151,-8.09309 -14.41902,3.02442 -20.58233,3.08166 -23.44625,0.21775 -6.09399,-6.09399 -0.46377,-12.13257 7.39209,-7.92824 4.44939,2.38124 11.67803,2.39167 22.20721,0.032 25.78761,-5.77913 42.57006,6.10546 28.97354,20.51777 -3.47457,3.68305 -3.47457,4.92232 0,6.19633 8.53617,3.12993 4.10354,14.53817 -10.42373,26.82747 l -14.76694,12.49211 14.70913,-2.21504 c 11.92914,-1.79639 15.13561,-1.10367 16.9656,3.66522 1.24106,3.23414 0.87618,7.21704 -0.81083,8.85089 -4.74555,4.59603 -26.22215,6.778 -37.93211,3.85383 z m 9.40055,-33.88942 c 9.48739,-8.58595 7.91572,-15.09706 -3.64419,-15.09706 -11.33128,0 -19.56631,7.7539 -16.5588,15.59136 2.65594,6.92125 12.26876,6.68609 20.20299,-0.4943 z m -52.08249,-80.33111 c 31.32895,-32.87339 40.32773,-47.71843 34.54195,-56.98292 -2.14609,-3.43644 -3.90197,-7.05105 -3.90197,-8.03249 0,-4.26146 13.80247,-1.23865 21.01616,4.60265 l 7.88771,6.38708 -10.57738,15.32902 c -13.62188,19.74119 -48.10898,52.55355 -63.59694,60.50859 -10.17585,5.2266 -7.89006,1.81881 14.63047,-21.81193 z m 89.70777,-4.76077 -33.00847,-31.44035 24.70014,12.66986 c 29.19914,14.97762 50.00325,32.94945 50.00325,43.19579 0,4.04205 -1.95445,7.274 -4.34322,7.18212 -2.38877,-0.0919 -19.19704,-14.31522 -37.3517,-31.60742 z m -47.14952,16.64455 c 9.63513,-7.70951 9.82405,-8.34601 3.52368,-11.87187 -6.17874,-3.4578 -5.97072,-3.89793 2.8938,-6.12279 10.88995,-2.7332 19.88458,2.85896 19.88458,12.36268 0,6.43219 -15.64445,13.82751 -29.18374,13.7955 -6.60097,-0.0156 -6.32527,-0.79663 2.88168,-8.16352 z"
           id="path3699"
           inkscape:connector-curvature="0"
           sodipodi:nodetypes="cssssssssssssscsssccsssssssscsssscssssssssss" />
      </g>
      <path
         sodipodi:nodetypes="cssscsscscscssssscs"
         inkscape:connector-curvature="0"
         id="path4275"
         d="M 97.24999,473.75309 C 95.059701,471.00854 93,465.95174 93,463.3189 c 0,-6.84605 45.21213,-334.92587 46.30894,-336.03877 0.66123,-0.67093 27.07049,-10.47529 58.68725,-21.78747 l 57.48501,-20.567594 55.20812,20.623214 c 30.36446,11.34276 55.66367,21.17213 56.22047,21.84303 1.00489,1.21082 51.10528,331.19418 51.07376,336.39444 -0.009,1.49284 -1.03586,4.51425 -2.2818,6.71425 l -2.26534,4 -157.5932,0.25309 c -125.32632,0.20127 -157.797948,-0.003 -158.59322,-1 z M 407.34361,454.25 c 0.7137,-1.15948 -48.00268,-320.30907 -49.05381,-321.3602 -1.02754,-1.02754 -100.80087,-37.878452 -102.63778,-37.908888 -0.63361,-0.0105 -25.35047,8.392298 -54.92636,18.672888 -45.34448,15.76176 -53.85483,19.01759 -54.28778,20.76909 -1.15654,4.67869 -43.22902,319.10604 -42.79294,319.81162 0.61236,0.99083 303.08883,1.00626 303.69867,0.0155 z"
         style="fill:#f31611" />
      <path
         inkscape:connector-curvature="0"
         id="path4273"
         d="M 97.24999,473.75309 C 95.059701,471.00854 93,465.95174 93,463.3189 c 0,-6.84605 45.21213,-334.92587 46.30894,-336.03877 0.66123,-0.67093 27.07049,-10.47529 58.68725,-21.78747 l 57.48501,-20.567594 55.20812,20.623214 c 30.36446,11.34276 55.66367,21.17213 56.22047,21.84303 1.00489,1.21082 51.10528,331.19418 51.07376,336.39444 -0.009,1.49284 -1.03586,4.51425 -2.2818,6.71425 l -2.26534,4 -157.5932,0.25309 c -125.32632,0.20127 -157.797948,-0.003 -158.59322,-1 z M 407.34361,454.25 c 0.7137,-1.15948 -48.00268,-320.30907 -49.05381,-321.3602 -1.02754,-1.02754 -100.80087,-37.878452 -102.63778,-37.908888 -0.63361,-0.0105 -25.35047,8.392298 -54.92636,18.672888 -45.34448,15.76176 -53.85483,19.01759 -54.28778,20.76909 -1.15654,4.67869 -43.22902,319.10604 -42.79294,319.81162 0.61236,0.99083 303.08883,1.00626 303.69867,0.0155 z"
         style="fill:#161513" />
    </g>
  </g>
</svg>
