<?xml version="1.0" encoding="UTF-8" standalone="no"?>
<!-- Created with Inkscape (http://www.inkscape.org/) -->

<svg
   xmlns:dc="http://purl.org/dc/elements/1.1/"
   xmlns:cc="http://creativecommons.org/ns#"
   xmlns:rdf="http://www.w3.org/1999/02/22-rdf-syntax-ns#"
   xmlns:svg="http://www.w3.org/2000/svg"
   xmlns="http://www.w3.org/2000/svg"
   xmlns:sodipodi="http://sodipodi.sourceforge.net/DTD/sodipodi-0.dtd"
   xmlns:inkscape="http://www.inkscape.org/namespaces/inkscape"
   id="svg3122"
   version="1.1"
   inkscape:version="0.48.4 r9943 custom"
   width="512"
   height="512"
   sodipodi:docname="WhiteCrownedBishop.svg">
  <metadata
     id="metadata3128">
    <rdf:RDF>
      <cc:Work
         rdf:about="">
        <dc:format>image/svg+xml</dc:format>
        <dc:type
           rdf:resource="http://purl.org/dc/dcmitype/StillImage" />
        <dc:title />
      </cc:Work>
    </rdf:RDF>
  </metadata>
  <defs
     id="defs3126" />
  <sodipodi:namedview
     pagecolor="#ffffff"
     bordercolor="#666666"
     borderopacity="1"
     objecttolerance="10"
     gridtolerance="10"
     guidetolerance="10"
     inkscape:pageopacity="0"
     inkscape:pageshadow="2"
     inkscape:window-width="640"
     inkscape:window-height="480"
     id="namedview3124"
     showgrid="false"
     inkscape:zoom="0.4609375"
     inkscape:cx="578.16949"
     inkscape:cy="256"
     inkscape:window-x="0"
     inkscape:window-y="22"
     inkscape:window-maximized="0"
     inkscape:current-layer="g3132" />
  <g
     id="g3132">
    <g
       id="g3033">
      <path
         inkscape:connector-curvature="0"
         id="path3138"
         d="M 72.249679,484.75 C 71.702313,484.0625 70.254357,479.225 69.032,474 L 66.809531,464.5 93.29548,276.65929 C 107.86275,173.34689 120.16811,88.435496 120.64071,87.967294 121.92769,86.69231 253.12009,41 255.49386,41 c 2.32043,0 129.53764,45.664114 130.8678,46.974479 0.47391,0.466858 13.678,85.376091 29.34242,188.687181 L 444.18485,464.5 441.96519,474 c -1.22081,5.225 -2.6675,10.0625 -3.21487,10.75 -1.46182,1.83607 -365.038821,1.83607 -366.500641,0 z"
         style="fill:#d3bc5f" />
      <g
         transform="matrix(1.0721232,0,0,1.0721232,-480.27016,-34.23597)"
         id="g3006">
        <path
           style="fill:#ff0000"
           d="m 702.46875,111.75 c -4.62406,0.56218 -10.51525,2.34758 -12.625,6.78125 0.75729,6.22951 11.02734,3.33167 12.125,9.78125 1.60631,11.64219 2.19033,24.45385 -1.90625,35.75 -6.37933,9.54788 -15.48631,17.1073 -22.56917,26.2135 -3.14348,2.6081 -10.29452,13.14337 -1.58708,7.849 7.5061,-5.54759 14.45302,-12.75326 22.28125,-17.40625 0.7166,6.35972 3.20589,13.61807 9.78125,15.90625 4.8812,3.71225 -0.3645,10.26132 -4.03125,12.71875 -5.14606,3.70961 -5.75311,11.99086 0.0625,15.375 7.70154,5.93166 20.20245,5.17731 25.28125,14.4375 1.4326,7.89493 -4.30601,15.40386 -9.15625,21.125 -4.3763,1.86358 -9.45387,-1.82004 -13.68921,-3.20031 -10.05607,-4.33644 -18.90098,-10.93621 -26.24829,-18.86219 -2.79436,-2.84785 -6.55081,0.49797 -5.71875,3.90625 0.5903,8.5572 7.89562,15.01825 13,21.25 9.90278,10.7377 25.51608,20.32185 40.34375,13.96875 12.82889,-6.14142 20.03927,-20.46791 22.1875,-34.09375 1.43449,-9.53821 -6.06215,-17.66647 -14.74136,-20.26396 -3.82694,-2.22841 -10.28266,-3.25617 -11.82114,-7.82979 2.26074,-5.14139 8.24906,-9.20204 6.875,-15.65625 -1.07021,-7.92887 -9.46754,-10.61997 -15.90625,-12.65625 -6.59955,-3.67097 -4.00024,-14.47082 2.6875,-16.8125 8.93074,-5.42148 20.02607,-5.29859 29.125,-10.0625 4.11288,-4.14817 -1.72959,-9.36187 -5.15625,-11.625 -9.26566,-4.61811 -17.9198,4.19559 -26.53125,6.375 1.78564,-8.6908 7.9941,-16.62717 5.84375,-26 -1.11727,-8.87611 -8.30653,-17.58527 -17.90625,-16.96875 z m -54.40625,6.75 c -10.44043,1.71659 -13.30021,13.90845 -18.15625,21.53125 -4.61007,5.9039 -13.37451,1.46229 -19.53125,1.71875 -5.72194,0.0454 -12.54353,-2.03128 -17.65625,1.28125 -1.73639,7.15451 6.47819,12.04585 12.34375,13.75 8.38402,1.57456 17.15139,1.17813 24.90625,5.34375 3.34021,1.86812 10.98818,4.45143 7.9375,9.53125 -7.98687,14.2981 -22.01635,26.45499 -38.76826,28.16068 -5.2208,1.56095 -12.12107,-1.44552 -16.38799,2.52682 -1.02833,4.71314 4.61809,7.72468 7.59375,10.46875 7.97119,3.86521 16.46489,-2.45409 24,-4.65625 8.95675,-3.62801 17.97156,-7.32558 27.15625,-10.21875 -12.2611,18.26318 -30.48819,32.49882 -40.25,52.28125 -1.25691,5.69722 7.18478,9.9066 11.21875,5.53125 9.05922,-8.40361 14.77393,-19.60721 23.31554,-28.59974 1.79484,-1.39744 6.63868,-9.30438 6.90321,-7.15026 -0.41257,10.58331 -0.0428,21.67024 -5.0625,31.25 -2.14165,8.05683 8.33493,15.92598 15.0625,10.25 8.78792,-6.35081 7.5654,-18.16866 8.68837,-27.61258 0.35274,-6.12911 3.69537,-11.44196 5.49913,-17.04367 -1.58113,-4.97563 -5.87201,0.74427 -7.3566,2.98837 -1.76597,0.99382 -3.65469,7.21411 -5.8309,3.66788 -2.63201,-2.50632 -4.11191,-7.40914 -8.15625,-7.84375 7.8206,-9.48099 17.04731,-18.39343 22.125,-29.6875 0.16625,-6.24057 -8.1068,-7.14165 -12.84375,-7.125 -1.45312,-0.51118 -6.74824,0.92516 -6.28125,-0.90625 3.40338,-6.01503 10.65507,-12.92618 7.15625,-20.34375 -2.43683,-4.10633 -9.11462,-3.7204 -12.0625,-4.15625 7.64091,-4.87998 18.35669,-7.67655 22.40625,-16.5 1.52712,-7.26251 -5.53329,-13.04364 -10.875,-16.71875 -2.13377,-1.23323 -4.61417,-1.94651 -7.09375,-1.71875 z m 2.0625,13.90625 c 3.36047,0.23376 1.98052,4.40996 -0.71875,4.78125 -2.13854,1.50547 -3.49233,0.59424 -2.28125,-1.75 0.52062,-1.33199 1.43306,-2.77932 3,-3.03125 z m 112.71875,7.1875 c -3.87866,-0.90798 -7.22208,3.62778 -3.90625,6.40625 4.77009,3.45071 6.41671,10.80908 1.75,15.09375 -5.98202,6.28094 -14.50638,9.31552 -20.875,15.1875 12.95521,-1.55135 26.82888,-2.13785 38.625,-8.03125 6.14302,-2.89595 7.11454,-11.17432 3.3125,-16.46875 -3.69193,-6.66742 -10.77785,-13.03985 -18.90625,-12.1875 z m -32.875,150.46875 c -30.13267,2.29514 -58.73601,14.54252 -88.875,16.125 -8.23041,0.64244 -15.76797,-3.34816 -23.59375,-4.6875 -4.73898,1.80138 0.35047,6.67693 2.53125,8.46875 6.40438,6.80718 14.99933,13.51824 25.05638,11.38957 22.41132,-3.26974 43.87291,-14.2828 66.88112,-13.07707 3.8918,0.28286 -0.98243,3.31055 -2.25,4.21875 -2.53146,2.64178 -9.68304,2.81135 -8.875,7.4375 3.14155,2.80539 8.34738,-0.34677 12.18612,-0.62836 12.94113,-3.77797 26.18463,-8.01505 37.65763,-15.12164 4.53503,-3.90771 -1.70388,-8.54663 -5.03125,-10.375 -4.58443,-3.1479 -10.22817,-3.99962 -15.6875,-3.75 z m -43.875,46.71875 c -11.34662,0.67883 -23.44722,-0.40219 -34.15625,3.625 -3.84086,3.3805 1.35343,7.75334 4.625,8.8125 7.61888,3.67122 16.41577,5.16383 24.65625,3.40625 -1.89025,4.81272 -8.27811,7.33984 -9.59375,12.96875 -2.39008,4.39111 0.52074,10.38499 5.84375,9.78125 11.69044,-0.93022 23.94127,-3.52954 35.28125,1.03125 11.36292,3.20115 21.81789,15.10576 17.34375,27.34375 -3.45815,9.95888 -14.34915,14.50362 -22.90625,19.4375 -13.77225,6.66032 -29.7767,13.01793 -44.84375,6.375 -6.72008,-3.02435 -15.37943,-5.84764 -18.75,-12.8125 1.07225,-4.40185 7.68151,-2.38235 10.9375,-2.5625 6.51143,-0.37831 14.27277,4.10913 20.15625,-0.0312 4.1982,-4.95632 1.97401,-14.64201 -5.15625,-15.34375 -13.26815,-2.74734 -30.75185,-2.71391 -39.5,9.46875 -5.38234,7.99459 1.25973,17.21567 7.1875,22.71875 8.87311,9.15091 21.22537,13.8992 33.84375,14.84375 23.29994,3.38061 48.73023,-3.16438 64.7982,-20.74864 6.23031,-5.66574 11.68931,-13.51254 10.10805,-22.53261 -0.57132,-13.39501 -3.86052,-29.38845 -17.1875,-35.6875 -10.33606,-5.18463 -22.35996,-4.99724 -33.65625,-6.34375 6.63581,-5.81444 15.45864,-10.41281 19.0625,-18.78125 -0.4351,-4.92335 -7.41579,-3.72011 -10.8125,-4.5625 -5.74982,-0.38508 -11.52024,-0.46086 -17.28125,-0.40625 z"
           id="path3004"
           inkscape:connector-curvature="0" />
      </g>
      <path
         sodipodi:nodetypes="sssscssssscsssscc"
         inkscape:connector-curvature="0"
         id="path3136"
         d="M 74.333178,484.22708 C 72.934299,483.33715 69,468.45528 69,464.05381 69,458.46366 121.13145,90.54654 122.08661,89.395639 122.59762,88.779912 152.8305,77.851437 189.27078,65.110137 l 66.25507,-23.165999 63.98708,23.071644 c 35.19289,12.689404 64.52241,23.614473 65.17672,24.277931 C 385.82109,90.440973 442,457.97084 442,464.22559 c 0,4.26797 -3.9627,19.12963 -5.33318,20.00149 -1.52551,0.97048 -360.808133,0.97048 -362.333642,0 z M 431.35399,454.23624 C 432.29606,452.71195 376.2006,96.742012 374.89076,95.932485 373.06417,94.803592 257.19604,54.005373 255.72519,53.973206 254.27707,53.941537 134.00578,94.760359 132.12832,95.920693 130.801,96.741021 78.656683,452.63548 79.632479,454.21436 c 0.626082,1.01302 351.095481,1.03483 351.721511,0.0219 z"
         style="fill:#f21914" />
      <path
         inkscape:connector-curvature="0"
         id="path3134"
         d="M 74.333178,484.22708 C 72.934299,483.33715 69,468.45528 69,464.05381 69,458.46366 121.13145,90.54654 122.08661,89.395639 122.59762,88.779912 152.8305,77.851437 189.27078,65.110137 l 66.25507,-23.165999 63.98708,23.071644 c 35.19289,12.689404 64.52241,23.614473 65.17672,24.277931 C 385.82109,90.440973 442,457.97084 442,464.22559 c 0,4.26797 -3.9627,19.12963 -5.33318,20.00149 -1.52551,0.97048 -360.808133,0.97048 -362.333642,0 z M 431.35399,454.23624 C 432.29606,452.71195 376.2006,96.742012 374.89076,95.932485 373.06417,94.803592 257.19604,54.005373 255.72519,53.973206 254.27707,53.941537 134.00578,94.760359 132.12832,95.920693 130.801,96.741021 78.656683,452.63548 79.632479,454.21436 c 0.626082,1.01302 351.095481,1.03483 351.721511,0.0219 z"
         style="fill:#11100f" />
    </g>
  </g>
</svg>
