<?xml version="1.0" encoding="UTF-8" standalone="no"?>
<!-- Created with Inkscape (http://www.inkscape.org/) -->

<svg
   xmlns:dc="http://purl.org/dc/elements/1.1/"
   xmlns:cc="http://creativecommons.org/ns#"
   xmlns:rdf="http://www.w3.org/1999/02/22-rdf-syntax-ns#"
   xmlns:svg="http://www.w3.org/2000/svg"
   xmlns="http://www.w3.org/2000/svg"
   xmlns:sodipodi="http://sodipodi.sourceforge.net/DTD/sodipodi-0.dtd"
   xmlns:inkscape="http://www.inkscape.org/namespaces/inkscape"
   id="svg4028"
   version="1.1"
   inkscape:version="0.48.4 r9943 custom"
   width="512"
   height="512"
   sodipodi:docname="WhitePawn.svg">
  <metadata
     id="metadata4034">
    <rdf:RDF>
      <cc:Work
         rdf:about="">
        <dc:format>image/svg+xml</dc:format>
        <dc:type
           rdf:resource="http://purl.org/dc/dcmitype/StillImage" />
        <dc:title />
      </cc:Work>
    </rdf:RDF>
  </metadata>
  <defs
     id="defs4032" />
  <sodipodi:namedview
     pagecolor="#ffffff"
     bordercolor="#666666"
     borderopacity="1"
     objecttolerance="10"
     gridtolerance="10"
     guidetolerance="10"
     inkscape:pageopacity="0"
     inkscape:pageshadow="2"
     inkscape:window-width="1680"
     inkscape:window-height="921"
     id="namedview4030"
     showgrid="false"
     inkscape:zoom="1.84375"
     inkscape:cx="182.61953"
     inkscape:cy="243.69577"
     inkscape:window-x="0"
     inkscape:window-y="22"
     inkscape:window-maximized="0"
     inkscape:current-layer="g4046" />
  <g
     id="g4046">
    <g
       id="g3977">
      <path
         inkscape:connector-curvature="0"
         id="path4050"
         d="m 116.12951,473.43752 c -4.86391,-6.18346 -5.60943,1.59621 15.38776,-160.57459 16.56631,-127.9491 19.87154,-151.59809 21.36729,-152.88314 0.9732,-0.83612 24.48015,-9.76531 52.23767,-19.84264 l 50.46821,-18.32243 47.82955,18.50313 c 26.30626,10.17672 48.4166,19.10591 49.1341,19.84264 0.82062,0.84261 9.69082,57.49217 23.9119,152.71336 24.28574,162.61193 23.33281,154.29834 18.4045,160.56367 L 392.85484,476 255.5,476 l -137.35484,0 -2.01565,-2.56248 z"
         style="fill:#d3bc5f" />
      <g
         transform="matrix(0.92627741,0,0,0.92627741,369.47954,29.852836)"
         id="g3962">
        <path
           style="fill:#000000"
           d="m -126.78125,141.09375 c -5.34946,0.98835 -11.78875,1.20293 -15.96875,4.875 -1.24144,4.84169 6.08278,5.06978 8.90625,6.875 9.69039,3.35353 8.89472,15.34684 11,23.5625 1.27182,3.74078 0.007,8.21933 -4.125,9.09375 -6.07287,2.25749 -12.47831,5.18286 -18.71875,6.09375 4.09378,-9.35276 -4.26635,-19.05311 -12.25,-23 -4.7811,-2.55738 -12.20289,-1.25822 -14.9375,3.5 0.14533,5.06332 7.35296,4.89987 8.8125,9.59375 5.38817,7.57021 3.65371,20.77221 14.15625,24.0625 6.96141,2.14157 12.53349,-4.07408 19,-4.625 4.20627,2.27316 7.37332,7.13639 8.65625,11.71875 -2.08251,5.29177 -8.52399,7.64237 -13.125,10.5 -11.41869,4.47775 -22.46211,-8.77967 -33.9375,-2.8125 -10.06789,4.45571 -20.27394,15.43929 -16.3125,27.1875 2.96246,7.00304 9.5415,14.53852 17.84375,13.875 13.06194,-2.80256 19.90831,-16.71167 32.25,-20.875 6.85241,0.71329 7.69195,10.5491 14.03125,12.625 6.62291,2.38276 10.14126,-5.91606 11.375,-11 2.38871,-6.25868 1.04522,-14.4178 5.75,-19.53125 4.404019,-1.5779 10.224886,-1.86446 14.5625,0.125 4.358318,10.47062 -2.413849,21.81067 -9.449375,29.3378 -14.255585,16.31963 -34.518165,25.31758 -51.706875,38.00595 -2.93748,1.5335 -1.93322,6.08751 1.78125,4.96875 19.17776,-3.60152 37.19224,-12.11969 54.199814,-21.51687 9.235415,-5.85665 19.665589,-14.05515 19.237686,-26.17063 0.267887,-7.44709 -0.178251,-14.89658 -0.25,-22.34375 7.249403,0.42089 15.3356,4.86307 22.375,1.625 5.279204,-4.92272 0.275461,-13.53133 -5.46875,-15.71875 -13.868705,-6.94098 -29.74557,-2.04754 -44.46875,-2.9375 -5.6543,-0.62113 -7.61594,-6.90117 -9.9375,-11.125 14.389033,-2.49116 29.64867,0.88716 43.78125,-3.15625 4.693731,-1.74294 2.628126,-7.9812 -1.5625,-8.78125 -11.408527,-4.82065 -24.762129,-1.95058 -36.25,-5.71875 -1.97971,-3.28259 1.94741,-8.07171 5.46875,-8.40625 8.043142,-2.72101 18.605123,-0.082 25.1875,-6.40625 2.12988,-4.8757 -5.158546,-6.35831 -8.53125,-6.53125 -6.726428,-1.36254 -14.60798,2.22557 -20.65625,-1.59375 -2.59545,-4.39077 -3.19344,-10.41917 -8.40625,-12.96875 -3.6457,-2.27568 -8.10047,-2.70238 -12.3125,-2.40625 z m 1.03125,89.4375 c 0.88308,1.57483 0.61645,7.35134 -1.1875,3.1875 -0.79474,-1.11042 0.0378,-2.68243 1.1875,-3.1875 z m -35.28125,0.4375 c 3.4756,0.2002 7.47337,1.33774 9.8125,3.84375 -5.19453,5.02103 -11.96911,9.10869 -18.9375,10.71875 -5.6829,-6.46581 1.39057,-15.02309 9.125,-14.5625 z m 21.9375,67.90625 c -5.02201,0.98469 -2.15363,6.38605 -2.21875,9.5625 -5.88154,11.43188 -17.61015,18.46669 -27.43873,26.33124 -6.06044,4.41115 -12.39593,8.45859 -18.06127,13.38751 11.34209,-0.87941 22.70691,-3.76417 33.34375,-7.0625 4.58358,5.52011 4.23986,13.95414 6.17521,20.76578 0.63849,4.51933 2.07319,9.62886 1.85604,13.89047 -15.82543,1.75211 -32.47753,1.69259 -48.21875,-0.78125 -3.84548,-1.24464 -12.28115,-3.12772 -12.1875,3.25 2.56098,7.43483 8.85358,13.49701 15.375,17.71875 11.9885,5.19253 24.88979,-1.4089 36.74601,-3.91937 33.33692,-8.83905 68.734516,-8.86221 102.529124,-2.5952 6.488667,0.1616 13.895375,2.64149 19.943616,-0.14168 3.10757,-5.1092 -2.542442,-10.76329 -5.6875,-14.40625 -8.027294,-9.10598 -21.576333,-5.24933 -32.15625,-4.90625 -7.1875,0.66667 -14.375,1.33333 -21.5625,2 2.826398,-9.37859 8.016231,-18.83353 7.34375,-28.78125 6.341706,-3.5199 16.459018,-1.82501 20.25,-9.0625 0.84933,-6.25593 -7.202739,-8.45217 -11.75,-10.21875 -12.945233,-3.83575 -24.81047,5.27695 -37.35013,6.90912 -8.32289,1.91505 -16.97568,2.85818 -25.49362,3.96588 5.17012,-5.98765 13.88827,-10.16856 15.75,-18.34375 -0.76696,-6.86035 -7.1206,-11.61208 -12.03125,-15.8125 -1.5337,-0.9557 -3.27739,-1.93686 -5.15625,-1.75 z m 37.0625,44.5625 c 4.01833,0.13309 1.6429,6.61499 2.40625,9.125 -0.63234,5.29341 0.311925,11.92874 -3.28125,16.09375 -8.67203,4.01035 -18.91765,5.77098 -28.40625,5.0625 2.85413,-8.82958 -1.9425,-17.63999 -2.5625,-26.25 5.93863,-1.42732 13.01761,-0.44961 19.19999,-1.99202 4.25321,-0.44446 8.37785,-1.77109 12.64376,-2.03923 z m -0.75,52.375 c -4.42228,0.0141 -3.6624,5.64408 -0.65625,7.34375 13.158539,9.94956 22.677379,24.47172 36.875,33.25 4.519321,3.1715 12.481575,3.32038 14.3125,-2.96875 3.263857,-9.30639 -2.60333,-19.00633 -10.78125,-23.34375 -11.877861,-6.60756 -24.854297,-11.86794 -38.25,-14.28125 -0.49264,0.008 -1.01295,-0.10543 -1.5,0 z m -44,0.6875 c -6.36456,1.60278 -4.33611,10.29797 -9.25,13.71875 -9.93246,10.65914 -25.19671,14.30307 -35.5,24.1875 -0.12682,5.6006 7.56309,4.28378 11.2124,3.88751 14.03001,-2.56522 28.79448,-5.54837 40.75635,-13.63751 7.39289,-5.67201 10.02749,-18.51315 1.65625,-24.59375 -2.55124,-1.77961 -5.61949,-3.74081 -8.875,-3.5625 z"
           id="path3960"
           inkscape:connector-curvature="0" />
      </g>
      <path
         sodipodi:nodetypes="cssssscscsccsscssscc"
         inkscape:connector-curvature="0"
         id="path4048"
         d="m 118.25037,473.75355 c -2.33713,-2.92851 -4.24865,-7.88368 -4.22559,-10.95389 0.0469,-6.24276 38.70369,-300.92812 39.58907,-301.792 1.78848,-1.74507 100.90004,-37.14258 102.91772,-36.75687 1.14692,0.21924 22.92459,8.44784 48.39483,18.28576 35.76845,13.81563 46.4965,18.35107 47.13096,19.92529 0.96071,2.38373 44.99924,297.835 44.94581,301.53816 -0.0198,1.375 -1.05547,4.3 -2.30141,6.5 l -2.26534,4 -136.59282,0.25355 c -108.52563,0.20145 -136.79839,-0.004 -137.59323,-1 z M 386.34335,454.25 c 0.97357,-1.58258 -41.03,-285.36531 -42.44648,-286.77514 -0.76828,-0.76467 -20.98416,-8.82814 -44.92419,-17.91882 l -43.52732,-16.52851 -46.91991,16.82536 c -25.80596,9.25395 -47.27681,17.46026 -47.71301,18.23624 -1.00671,1.79088 -36.82283,285.08503 -36.17506,286.13316 0.61732,0.99884 261.09159,1.02641 261.70597,0.0277 z"
         style="fill:#181613" />
    </g>
  </g>
</svg>
