<?xml version="1.0" encoding="UTF-8" standalone="no"?>
<!-- Created with Inkscape (http://www.inkscape.org/) -->

<svg
   xmlns:dc="http://purl.org/dc/elements/1.1/"
   xmlns:cc="http://creativecommons.org/ns#"
   xmlns:rdf="http://www.w3.org/1999/02/22-rdf-syntax-ns#"
   xmlns:svg="http://www.w3.org/2000/svg"
   xmlns="http://www.w3.org/2000/svg"
   xmlns:sodipodi="http://sodipodi.sourceforge.net/DTD/sodipodi-0.dtd"
   xmlns:inkscape="http://www.inkscape.org/namespaces/inkscape"
   id="svg4501"
   version="1.1"
   inkscape:version="0.48.4 r9943 custom"
   width="512"
   height="512"
   sodipodi:docname="WhiteGoldPawn.svg">
  <metadata
     id="metadata4507">
    <rdf:RDF>
      <cc:Work
         rdf:about="">
        <dc:format>image/svg+xml</dc:format>
        <dc:type
           rdf:resource="http://purl.org/dc/dcmitype/StillImage" />
        <dc:title />
      </cc:Work>
    </rdf:RDF>
  </metadata>
  <defs
     id="defs4505" />
  <sodipodi:namedview
     pagecolor="#ffffff"
     bordercolor="#666666"
     borderopacity="1"
     objecttolerance="10"
     gridtolerance="10"
     guidetolerance="10"
     inkscape:pageopacity="0"
     inkscape:pageshadow="2"
     inkscape:window-width="640"
     inkscape:window-height="480"
     id="namedview4503"
     showgrid="false"
     inkscape:zoom="0.4609375"
     inkscape:cx="256"
     inkscape:cy="256"
     inkscape:window-x="232"
     inkscape:window-y="22"
     inkscape:window-maximized="0"
     inkscape:current-layer="g4511" />
  <g
     id="g4511">
    <g
       id="g4041">
      <path
         inkscape:connector-curvature="0"
         id="path4517"
         d="m 116.12951,473.43752 c -4.86391,-6.18346 -5.60943,1.59621 15.38776,-160.57459 16.56631,-127.9491 19.87154,-151.59809 21.36729,-152.88314 0.9732,-0.83612 24.48015,-9.76531 52.23767,-19.84264 l 50.46821,-18.32243 47.82955,18.50313 c 26.30626,10.17672 48.4166,19.10591 49.1341,19.84264 0.82062,0.84261 9.69082,57.49217 23.9119,152.71336 24.28574,162.61193 23.33281,154.29834 18.4045,160.56367 L 392.85484,476 255.5,476 l -137.35484,0 -2.01565,-2.56248 z"
         style="fill:#d3bc5f" />
      <path
         sodipodi:nodetypes="cssssscscsccsscssscc"
         inkscape:connector-curvature="0"
         id="path4515"
         d="m 118.25037,473.75355 c -2.33713,-2.92851 -4.24865,-7.88368 -4.22559,-10.95389 0.0469,-6.24276 38.70369,-300.92812 39.58907,-301.792 1.78848,-1.74507 100.90004,-37.14258 102.91772,-36.75687 1.14692,0.21924 22.92459,8.44784 48.39483,18.28576 35.76845,13.81563 46.4965,18.35107 47.13096,19.92529 0.96071,2.38373 44.99924,297.835 44.94581,301.53816 -0.0198,1.375 -1.05547,4.3 -2.30141,6.5 l -2.26534,4 -136.59282,0.25355 c -108.52563,0.20145 -136.79839,-0.004 -137.59323,-1 z M 386.34364,454.25 c 0.94787,-1.53983 -41.20013,-286.54327 -42.49397,-287.34291 -0.69908,-0.43205 -20.86786,-8.23463 -44.81952,-17.33907 l -43.54847,-16.55351 -46.93807,16.83187 c -25.81594,9.25753 -47.29497,17.46677 -47.73117,18.24275 -1.00671,1.79088 -36.82283,285.08503 -36.17506,286.13316 0.61732,0.99884 261.09149,1.02641 261.70626,0.0277 z"
         style="fill:#f01813" />
      <g
         transform="matrix(1.5626356,0,0,1.1267045,-737.89712,-41.444797)"
         id="g4026">
        <path
           style="fill:#ff0000"
           d="m 631.17475,388.91715 c -19.58606,-14.18806 -23.71449,-33.19315 -13.58266,-62.52729 5.06418,-14.66203 5.25865,-18.21153 1.58233,-28.88213 -3.33637,-9.68387 -3.44218,-15.73776 -0.5187,-29.67555 3.18605,-15.1896 2.93708,-19.05252 -1.87886,-29.15166 l -5.5516,-11.64181 7.28525,4.79315 c 12.96088,8.52729 15.58989,17.53335 13.42091,45.97537 l -1.99067,26.10383 12.78261,-6.66267 c 12.62352,-6.57975 19.31837,-6.18613 19.31837,1.13583 0,2.06755 -6.59017,7.25525 -14.64481,11.52823 -8.05464,4.27298 -17.26842,12.07131 -20.47507,17.32963 -12.63181,20.71385 -3.4911,48.3161 18.32887,55.34781 21.78919,7.02179 26.96925,15.6733 9.38434,15.6733 -6.70232,0 -15.27048,-3.41337 -23.46031,-9.34604 z"
           id="path4024"
           inkscape:connector-curvature="0"
           sodipodi:nodetypes="ssssscsscsssssss" />
      </g>
      <path
         inkscape:connector-curvature="0"
         id="path4513"
         d="m 118.25037,473.75355 c -2.33713,-2.92851 -4.24865,-7.88368 -4.22559,-10.95389 0.0469,-6.24276 38.70369,-300.92812 39.58907,-301.792 1.78848,-1.74507 100.90004,-37.14258 102.91772,-36.75687 1.14692,0.21924 22.92459,8.44784 48.39483,18.28576 35.76845,13.81563 46.4965,18.35107 47.13096,19.92529 0.96071,2.38373 44.99924,297.835 44.94581,301.53816 -0.0198,1.375 -1.05547,4.3 -2.30141,6.5 l -2.26534,4 -136.59282,0.25355 c -108.52563,0.20145 -136.79839,-0.004 -137.59323,-1 z M 386.34364,454.25 c 0.94787,-1.53983 -41.20013,-286.54327 -42.49397,-287.34291 -0.69908,-0.43205 -20.86786,-8.23463 -44.81952,-17.33907 l -43.54847,-16.55351 -46.93807,16.83187 c -25.81594,9.25753 -47.29497,17.46677 -47.73117,18.24275 -1.00671,1.79088 -36.82283,285.08503 -36.17506,286.13316 0.61732,0.99884 261.09149,1.02641 261.70626,0.0277 z"
         style="fill:#171513" />
    </g>
  </g>
</svg>
