/* XPM */
static char *add40[] = {
/* columns rows colors chars-per-pixel */
"40 40 3 1",
"  c black s dark_piece",
". c green s dark_square",
"X c white s light_piece",
/* pixels */
"........................................",
"........................................",
"........................................",
"........................................",
"........................................",
"........................................",
"..................     .................",
"................         ...............",
"...............           ..............",
".............               ............",
"...........                   ..........",
".........                       ........",
".......             X             ......",
"......              X              .....",
".....               X               ....",
".....            XXXXXXX            ....",
"......              X              .....",
".......             X             ......",
"........            X            .......",
"..........                     .........",
"...........                   ..........",
"............                 ...........",
".............   XXXXXXXXX   ............",
".............. X         X .............",
"..............             .............",
".............               ............",
"............. XXXXXXXXXXXXX ............",
"............                 ...........",
"............                 ...........",
"...............           ..............",
"...................   ..................",
".................       ................",
"......                             .....",
"....                                 ...",
"...                 .                 ..",
"....              .....              ...",
"..... ............................. ....",
"........................................",
"........................................",
"........................................"
};
