/* XPM */
static char *add58[] = {
/* columns rows colors chars-per-pixel */
"58 58 3 1",
"  c black s dark_piece",
". c green s dark_square",
"X c white s light_piece",
/* pixels */
"..........................................................",
"..........................................................",
"..........................................................",
"..........................................................",
"..........................................................",
"..........................................................",
"..........................................................",
"..........................................................",
"..........................................................",
"..........................      ..........................",
".......................            .......................",
".....................                .....................",
"....................                  ....................",
"..................                      ..................",
".................                        .................",
"...............                            ...............",
".............                                .............",
"...........                                    ...........",
".........                   XX                   .........",
".......                     XX                     .......",
"......                      XX                      ......",
".....                       XX                       .....",
".....                   XXXXXXXXXX                   .....",
".....                   XXXXXXXXXX                   .....",
"......                      XX                      ......",
".......                     XX                     .......",
"........                    XX                    ........",
"..........                  XX                  ..........",
"............                XX                ............",
"..............                              ..............",
"................                          ................",
".................                        .................",
"..................                      ..................",
"...................  XXXXXXXXXXXXXXXX  ...................",
"...................  XXXXXXXXXXXXXXXX  ...................",
"...................                    ...................",
"..................                      ..................",
"..................                      ..................",
"..................  XXXXXXXXXXXXXXXXXX  ..................",
".................   XXXXXXXXXXXXXXXXXX   .................",
".................                        .................",
".................                        .................",
".................                        .................",
"......................              ......................",
"..........................  XX  ..........................",
"........................          ........................",
"........                                          ........",
"......                                              ......",
"....                                                  ....",
"....                                                  ....",
".....                                                .....",
".....                       ..                       .....",
"......                    ......                    ......",
".......  ........       ..........       ........  .......",
"..........................................................",
"..........................................................",
"..........................................................",
".........................................................."
};
