/* XPM */
static char *adl45[] = {
/* columns rows colors chars-per-pixel */
"45 45 3 1",
"  c black s dark_piece",
". c gray s light_square",
"X c white s light_piece",
/* pixels */
".............................................",
".............................................",
".............................................",
".............................................",
".............................................",
".............................................",
".............................................",
".............................................",
"....................     ....................",
"...................       ...................",
".................           .................",
"...............               ...............",
".............                   .............",
"...........                       ...........",
".........                           .........",
".......               X               .......",
".....                 X                 .....",
"....                  X                  ....",
"....              XXXXXXXXX              ....",
"....                  X                  ....",
".....                 X                 .....",
".....                 X                 .....",
"......                X                ......",
"........                             ........",
"..........                         ..........",
"............                     ............",
"..............                 ..............",
".............. XXXXXXXXXXXXXXX ..............",
"...............               ...............",
"...............               ...............",
"..............                 ..............",
"..............  XXXXXXXXXXXXX  ..............",
".............. X             X ..............",
".............                   .............",
".............                   .............",
"................             ................",
".................... XXX ....................",
"..................         ..................",
".......                               .......",
"....                  .                  ....",
"...                 .....                 ...",
"...                .......                ...",
"....  .................................  ....",
".............................................",
"............................................."
};
