/* XPM */
static char *adl64[] = {
/* columns rows colors chars-per-pixel */
"64 64 3 1",
"  c black s dark_piece",
". c gray s light_square",
"X c white s light_piece",
/* pixels */
"................................................................",
"................................................................",
"................................................................",
"................................................................",
"................................................................",
"................................................................",
"................................................................",
"................................................................",
"................................................................",
"................................................................",
"................................................................",
"................................................................",
"............................        ............................",
".........................              .........................",
".......................                  .......................",
"......................                    ......................",
".....................                      .....................",
"...................                          ...................",
".................                              .................",
"..............                                    ..............",
"............                                        ............",
"..........                     XX                     ..........",
"........                       XX                       ........",
".......                        XX                        .......",
"......                         XX                         ......",
"......                    XXXXXXXXXXXX                    ......",
"......                    XXXXXXXXXXXX                    ......",
"......                         XX                         ......",
".......                        XX                        .......",
".........                      XX                      .........",
"..........                     XX                     ..........",
"............                                        ............",
"..............                                     .............",
"...............                                  ...............",
".................                              .................",
"...................                          ...................",
"....................     XXXXXXXXXXXXXX     ....................",
".....................  XXXXXXXXXXXXXXXXXXX .....................",
".....................  XX              XXX .....................",
".....................                      .....................",
".....................                      .....................",
"....................                        ....................",
"....................   XXXXXXXXXXXXXXXXXX   ....................",
"....................  XXXXXXXXXXXXXXXXXXXX  ....................",
"...................  XX                  XX  ...................",
"...................                          ...................",
"...................                          ...................",
"....................                        ....................",
".........................              .........................",
"............................  XXXX  ............................",
"..........................    XXXX    ..........................",
".........                                              .........",
".......                                                  .......",
".....                                                      .....",
"....                                                        ....",
".....                                                      .....",
"......                         ..                         ......",
"......                       ......                       ......",
".......    ........        ..........        ........    .......",
"........ .............................................. ........",
"................................................................",
"................................................................",
"................................................................",
"................................................................"
};
