/* XPM */
static char *ald37[] = {
/* columns rows colors chars-per-pixel */
"37 37 3 1",
"  c black s dark_piece",
". c green s dark_square",
"X c white s light_piece",
/* pixels */
".....................................",
".....................................",
".....................................",
".....................................",
".....................................",
".................   .................",
"...............  XXX  ...............",
"............   XXXXXXX   ............",
".........   XXXXXXXXXXXXX   .........",
".......  XXXXXXXXXXXXXXXXXXX  .......",
"..... XXXXXXXXXXXXXXXXXXXXXXXX  .....",
".... XXXXXXXXXXXXXXXXXXXXXXXXXXX ....",
"... XXXXXXXXXXXXXXXXXXXXXXXXXXXXX ...",
"... XXXXXXXXXXXXXX XXXXXXXXXXXXXX ...",
"... XXXXXXXXXXXXXX XXXXXXXXXXXXXX ...",
".... XXXXXXXXXX       XXXXXXXXXX ....",
".... XXXXXXXXXXXXX XXXXXXXXXXXXX ....",
".....  XXXXXXXXXXX XXXXXXXXXXX  .....",
".......  XXXXXXXXX XXXXXXXXX  .......",
".........  XXXXXXXXXXXXXXX  .........",
"........... XXXXXXXXXXXXX ...........",
"............ XXXXXXXXXXX ............",
"............             ............",
"............ XXXXXXXXXXX ............",
"............ XXXXXXXXXXX ............",
"............             ............",
"...........  XXXXXXXXXXX  ...........",
"...........  XXXXXXXXXXX  ...........",
".............           .............",
"................  X X................",
"........  ....  XXXXX  ....  ........",
"....    XX    XXXX XXXX    XX    ....",
"... XXXXXXXXXXXX  .  XXXXXXXXXXXX ...",
".... X          .....          X ....",
"....  .........................  ....",
".....................................",
"....................................."
};
