/* XPM */
static char *ald40[] = {
/* columns rows colors chars-per-pixel */
"40 40 3 1",
"  c black s dark_piece",
". c green s dark_square",
"X c white s light_piece",
/* pixels */
"........................................",
"........................................",
"........................................",
"........................................",
"........................................",
"........................................",
"..................     .................",
"................  XXXXX  ...............",
"............... XXXXXXXXX ..............",
".............  XXXXXXXXXXX  ............",
"...........  XXXXXXXXXXXXXXX  ..........",
".........  XXXXXXXXXXXXXXXXXXX  ........",
".......  XXXXXXXXXXX XXXXXXXXXXX  ......",
"...... XXXXXXXXXXXXX XXXXXXXXXXXXX .....",
"..... XXXXXXXXXXXXXX XXXXXXXXXXXXXX ....",
"..... XXXXXXXXXXX       XXXXXXXXXXX ....",
"...... XXXXXXXXXXXXX XXXXXXXXXXXXX .....",
"....... XXXXXXXXXXXX XXXXXXXXXXXX ......",
"........  XXXXXXXXXX XXXXXXXXXX  .......",
".......... XXXXXXXXXXXXXXXXXXX .........",
"........... XXXXXXXXXXXXXXXXX ..........",
"............ XXXXXXXXXXXXXXX ...........",
"............. XX         XX ............",
"..............  XXXXXXXXX  .............",
".............. XXXXXXXXXXX .............",
"............. XXXXXXXXXXXXX ............",
".............               ............",
"............  XXXXXXXXXXXXX  ...........",
"............   XXXXXXXXXXX   ...........",
"...............           ..............",
"................... X ..................",
".................  XXX  ................",
"......           XXXXXXX           .....",
"....  XXXXXXXXXXXXXX XXXXXXXXXXXXXX  ...",
"... XXXXXXXXXXXXXX  .  XXXXXXXXXXXXXX ..",
".... X            .....            X ...",
"..... ............................. ....",
"........................................",
"........................................",
"........................................"
};
