/* XPM */
static char *ald45[] = {
/* columns rows colors chars-per-pixel */
"45 45 3 1",
"  c black s dark_piece",
". c green s dark_square",
"X c white s light_piece",
/* pixels */
".............................................",
".............................................",
".............................................",
".............................................",
".............................................",
".............................................",
".............................................",
".............................................",
"....................     ....................",
"................... XXXXX ...................",
".................  XXXXXXX  .................",
"...............  XXXXXXXXXXX  ...............",
".............  XXXXXXXXXXXXXXX  .............",
"...........  XXXXXXXXXXXXXXXXXXX  ...........",
".........  XXXXXXXXXXXXXXXXXXXXXXX  .........",
".......  XXXXXXXXXXXXX XXXXXXXXXXXXX  .......",
".....  XXXXXXXXXXXXXXX XXXXXXXXXXXXXXX  .....",
".... XXXXXXXXXXXXXXXXX XXXXXXXXXXXXXXXXX ....",
".... XXXXXXXXXXXXX         XXXXXXXXXXXXX ....",
".... XXXXXXXXXXXXXXXXX XXXXXXXXXXXXXXXXX ....",
"..... XXXXXXXXXXXXXXXX XXXXXXXXXXXXXXXX .....",
"..... XXXXXXXXXXXXXXXX XXXXXXXXXXXXXXXX .....",
"......  XXXXXXXXXXXXXX XXXXXXXXXXXXXX  ......",
"........  XXXXXXXXXXXXXXXXXXXXXXXXX  ........",
"..........  XXXXXXXXXXXXXXXXXXXXX  ..........",
"............  XXXXXXXXXXXXXXXXX  ............",
".............. XXXXXXXXXXXXXXX ..............",
"..............                 ..............",
"............... XXXXXXXXXXXXX ...............",
"............... XXXXXXXXXXXXX ...............",
".............. XXXXXXXXXXXXXXX ..............",
".............. X             X ..............",
"..............  XXXXXXXXXXXXX  ..............",
"............. XXXXXXXXXXXXXXXXX .............",
".............   XXXXXXXXXXXXX   .............",
"................             ................",
"....................  X  ....................",
"..................  XXXXX  ..................",
".......           XXXX XXXX           .......",
"....   XXXXXXXXXXXXX  .  XXXXXXXXXXXXX   ....",
"... XXXXXXXXXXXXXXX ..... XXXXXXXXXXXXXXX ...",
"... XX             .......             XX ...",
"....  .................................  ....",
".............................................",
"............................................."
};
