/* XPM */
static char *ald49[] = {
/* columns rows colors chars-per-pixel */
"49 49 3 1",
"  c black s dark_piece",
". c green s dark_square",
"X c white s light_piece",
/* pixels */
".................................................",
".................................................",
".................................................",
".................................................",
".................................................",
".................................................",
".................................................",
".................................................",
".......................   .......................",
"....................   XXX   ....................",
"................... XXXXXXXXX ...................",
".................  XXXXXXXXXXX  .................",
"................ XXXXXXXXXXXXXXX ................",
"..............  XXXXXXXXXXXXXXXXX  ..............",
"............  XXXXXXXXXXXXXXXXXXXXX  ............",
"..........  XXXXXXXXXXXXXXXXXXXXXXXXX  ..........",
"........  XXXXXXXXXXXXXX XXXXXXXXXXXXXX  ........",
"......  XXXXXXXXXXXXXXXX XXXXXXXXXXXXXXXX  ......",
"..... XXXXXXXXXXXXXXXXXX XXXXXXXXXXXXXXXXXX .....",
".... XXXXXXXXXXXXXXXXXXX XXXXXXXXXXXXXXXXXXX ....",
"..... XXXXXXXXXXXXXX         XXXXXXXXXXXXXX .....",
"...... XXXXXXXXXXXXXXXXX XXXXXXXXXXXXXXXXX ......",
".......  XXXXXXXXXXXXXXX XXXXXXXXXXXXXXX  .......",
".........  XXXXXXXXXXXXX XXXXXXXXXXXXX  .........",
"........... XXXXXXXXXXXX XXXXXXXXXXXX ...........",
"............ XXXXXXXXXXXXXXXXXXXXXXX ............",
"............. XXXXXXXXXXXXXXXXXXXXX .............",
".............. XXXXXXXXXXXXXXXXXXX ..............",
"............... XXXXXXXXXXXXXXXXX ...............",
"................ XX           XX ................",
"................   XXXXXXXXXXX   ................",
"................ XXXXXXXXXXXXXXX ................",
"................ XXXXXXXXXXXXXXX ................",
"................ XXXXXXXXXXXXXXX ................",
"...............                   ...............",
"............... XXXXXXXXXXXXXXXXX ...............",
".............. XXXXXXXXXXXXXXXXXXX ..............",
"..............    XXXXXXXXXXXXX    ..............",
"..................             ..................",
"......................  X  ......................",
"....................  XXXXX  ....................",
"........            XXXX XXXX            ........",
".....   XXXXXXXXXXXXXX  .  XXXXXXXXXXXXXX   .....",
".... XXXXXXXXXXXXXXX  .....  XXXXXXXXXXXXXXX ....",
".... XXX            .........            XXX ....",
"....    .................................    ....",
".................................................",
".................................................",
"................................................."
};
