/* XPM */
static char *all33[] = {
/* columns rows colors chars-per-pixel */
"33 33 3 1",
"  c black s dark_piece",
". c gray s light_square",
"X c white s light_piece",
/* pixels */
".................................",
".................................",
".................................",
".................................",
".................................",
"..............     ..............",
"............. XXXXX .............",
"............ XXXXXXX ............",
"..........  XXXXXXXXX  ..........",
"........  XXXXXXXXXXXXX  ........",
"......  XXXXXXXX XXXXXXXX  ......",
"....  XXXXXXXXXX XXXXXXXXXX  ....",
"... XXXXXXXXXXXX XXXXXXXXXXXX ...",
"... XXXXXXXXXX     XXXXXXXXXX ...",
"....  XXXXXXXXXX XXXXXXXXXX  ....",
"......  XXXXXXXX XXXXXXXX  ......",
"........ XXXXXXXXXXXXXXX ........",
"......... XXXXXXXXXXXXX .........",
".......... XXXXXXXXXXX ..........",
"...........           ...........",
"........... XXXXXXXXX ...........",
".......... X         X ..........",
"..........  XXXXXXXXX  ..........",
".......... XXXXXXXXXXX ..........",
"...........           ...........",
"..............  X  ..............",
"....          XXXXX          ....",
"... XXXXXXXXXXXX XXXXXXXXXXXX ...",
"... XXXXXXXXXX  .  XXXXXXXXXX ...",
"....          .....          ....",
".... ....................... ....",
".................................",
"................................."
};
