/* XPM */
static char *all54[] = {
/* columns rows colors chars-per-pixel */
"54 54 3 1",
"  c black s dark_piece",
". c gray s light_square",
"X c white s light_piece",
/* pixels */
"......................................................",
"......................................................",
"......................................................",
"......................................................",
"......................................................",
"......................................................",
"......................................................",
"......................................................",
"......................................................",
"......................          ......................",
"....................              ....................",
"...................   XXXXXXXXXX   ...................",
"..................   XXXXXXXXXXXX   ..................",
".................   XXXXXXXXXXXXXX   .................",
"..............     XXXXXXXXXXXXXXXX     ..............",
"...........      XXXXXXXXXXXXXXXXXXXX      ...........",
".........     XXXXXXXXXXXXXXXXXXXXXXXXXX     .........",
"........   XXXXXXXXXXXXXXX  XXXXXXXXXXXXXXX   ........",
".......   XXXXXXXXXXXXXXXX  XXXXXXXXXXXXXXXX   .......",
"......   XXXXXXXXXXXXXXXXX  XXXXXXXXXXXXXXXXX   ......",
".....   XXXXXXXXXXXXXXXXXX  XXXXXXXXXXXXXXXXXX   .....",
".....  XXXXXXXXXXXXXXX          XXXXXXXXXXXXXXX  .....",
".....   XXXXXXXXXXXXXX          XXXXXXXXXXXXXX   .....",
"......  XXXXXXXXXXXXXXXXXX  XXXXXXXXXXXXXXXXXX  ......",
"......   XXXXXXXXXXXXXXXXX  XXXXXXXXXXXXXXXXX   ......",
".......    XXXXXXXXXXXXXXX  XXXXXXXXXXXXXXX    .......",
".........    XXXXXXXXXXXXX  XXXXXXXXXXXXX    .........",
"...........    XXXXXXXXXXXXXXXXXXXXXXXX    ...........",
".............    XXXXXXXXXXXXXXXXXXXX    .............",
"...............   XXXXXXXXXXXXXXXXXX   ...............",
"................   XX            XX   ................",
".................                    .................",
"..................   XXXXXXXXXXXX   ..................",
"..................  XXXXXXXXXXXXXX  ..................",
".................   XXXXXXXXXXXXXX   .................",
".................  X              X  .................",
"................                      ................",
"................    XXXXXXXXXXXXXX    ................",
"................  XXXXXXXXXXXXXXXXXX  ................",
"...............     XXXXXXXXXXXXXX     ...............",
"................                      ................",
"....................              ....................",
"......................    XX    ......................",
".......                 XXXXXX                 .......",
".....                 XXXXXXXXXX                 .....",
"...    XXXXXXXXXXXXXXXXXXXXXXXXXXXXXXXXXXXXXXXX    ...",
"....  XXXXXXXXXXXXXXXXXXXX  XXXXXXXXXXXXXXXXXXXX  ....",
"....   XXXXXXXXXXXXXXXX        XXXXXXXXXXXXXXXX   ....",
".....                     ..                     .....",
"......                 ........                 ......",
"....... ...................................... .......",
"......................................................",
"......................................................",
"......................................................"
};
