/* XPM */
static char *all58[] = {
/* columns rows colors chars-per-pixel */
"58 58 3 1",
"  c black s dark_piece",
". c gray s light_square",
"X c white s light_piece",
/* pixels */
"..........................................................",
"..........................................................",
"..........................................................",
"..........................................................",
"..........................................................",
"..........................................................",
"..........................................................",
"..........................................................",
"..........................................................",
"..........................      ..........................",
".......................            .......................",
".....................     XXXXXX     .....................",
"....................   XXXXXXXXXXXX   ....................",
"..................    XXXXXXXXXXXXXX    ..................",
".................   XXXXXXXXXXXXXXXXXX   .................",
"...............    XXXXXXXXXXXXXXXXXXXX    ...............",
".............    XXXXXXXXXXXXXXXXXXXXXXXX    .............",
"...........    XXXXXXXXXXXXXXXXXXXXXXXXXXXX    ...........",
".........    XXXXXXXXXXXXXXX  XXXXXXXXXXXXXXX    .........",
".......    XXXXXXXXXXXXXXXXX  XXXXXXXXXXXXXXXXX    .......",
"......   XXXXXXXXXXXXXXXXXXX  XXXXXXXXXXXXXXXXXXX   ......",
".....  XXXXXXXXXXXXXXXXXXXXX  XXXXXXXXXXXXXXXXXXXXX  .....",
".....  XXXXXXXXXXXXXXXXX          XXXXXXXXXXXXXXXXX  .....",
".....   XXXXXXXXXXXXXXXX          XXXXXXXXXXXXXXXX   .....",
"......   XXXXXXXXXXXXXXXXXXX  XXXXXXXXXXXXXXXXXXX   ......",
".......   XXXXXXXXXXXXXXXXXX  XXXXXXXXXXXXXXXXXX   .......",
"........    XXXXXXXXXXXXXXXX  XXXXXXXXXXXXXXXX    ........",
"..........    XXXXXXXXXXXXXX  XXXXXXXXXXXXXX    ..........",
"............    XXXXXXXXXXXX  XXXXXXXXXXXX    ............",
"..............    XXXXXXXXXXXXXXXXXXXXXX    ..............",
"................   XXXXXXXXXXXXXXXXXXXX   ................",
".................   XXXXXXXXXXXXXXXXXX   .................",
"..................   XXXXXXXXXXXXXXXX   ..................",
"...................                    ...................",
"...................                    ...................",
"...................  XXXXXXXXXXXXXXXX  ...................",
"..................   XXXXXXXXXXXXXXXX   ..................",
"..................  XXXXXXXXXXXXXXXXXX  ..................",
"..................                      ..................",
".................                        .................",
".................   XXXXXXXXXXXXXXXXXX   .................",
".................     XXXXXXXXXXXXXX     .................",
".................                        .................",
"......................              ......................",
"..........................      ..........................",
"........................    XX    ........................",
"........                  XXXXXX                  ........",
"......                  XXXXXXXXXX                  ......",
"....    XXXXXXXXXXXXXXXXXXXXXXXXXXXXXXXXXXXXXXXXXX    ....",
"....   XXXXXXXXXXXXXXXXXXXXX  XXXXXXXXXXXXXXXXXXXXX   ....",
".....  XXXXXXXXXXXXXXXXXXX      XXXXXXXXXXXXXXXXXXX  .....",
".....   X        XXXXXXX    ..    XXXXXXX        X   .....",
"......                    ......                    ......",
".......  ........       ..........       ........  .......",
"..........................................................",
"..........................................................",
"..........................................................",
".........................................................."
};
