/* XPM */
static char *all72[] = {
/* columns rows colors chars-per-pixel */
"72 72 3 1",
"  c black s dark_piece",
". c gray s light_square",
"X c white s light_piece",
/* pixels */
"........................................................................",
"........................................................................",
"........................................................................",
"........................................................................",
"........................................................................",
"........................................................................",
"........................................................................",
"........................................................................",
"........................................................................",
"........................................................................",
"...............................          ...............................",
".............................              .............................",
"............................    XXXXXXXX    ............................",
"...........................    XXXXXXXXXX    ...........................",
"..........................    XXXXXXXXXXXX    ..........................",
"........................    XXXXXXXXXXXXXXXX    ........................",
"......................     XXXXXXXXXXXXXXXXXX     ......................",
"....................     XXXXXXXXXXXXXXXXXXXXXX     ....................",
"..................     XXXXXXXXXXXXXXXXXXXXXXXXXX     ..................",
"................     XXXXXXXXXXXXXXXXXXXXXXXXXXXXXX     ................",
"..............      XXXXXXXXXXXXXXXXXXXXXXXXXXXXXXXX      ..............",
".............      XXXXXXXXXXXXXXXXXXXXXXXXXXXXXXXXXX      .............",
"...........      XXXXXXXXXXXXXXXXXXXXXXXXXXXXXXXXXXXXXX      ...........",
".........      XXXXXXXXXXXXXXXXXXXX  XXXXXXXXXXXXXXXXXXXX      .........",
"........     XXXXXXXXXXXXXXXXXXXXXX  XXXXXXXXXXXXXXXXXXXXXX     ........",
"......     XXXXXXXXXXXXXXXXXXXXXXXX  XXXXXXXXXXXXXXXXXXXXXXXX     ......",
"......   XXXXXXXXXXXXXXXXXXXXXXXXXX  XXXXXXXXXXXXXXXXXXXXXXXXXX   ......",
".....   XXXXXXXXXXXXXXXXXXXXXXXXXXX  XXXXXXXXXXXXXXXXXXXXXXXXXXX   .....",
".....   XXXXXXXXXXXXXXXXXXXXXXXXXXX  XXXXXXXXXXXXXXXXXXXXXXXXXXX   .....",
".....   XXXXXXXXXXXXXXXXXXXXX              XXXXXXXXXXXXXXXXXXXXX   .....",
".......  XXXXXXXXXXXXXXXXXXXX              XXXXXXXXXXXXXXXXXXX    ......",
".......     XXXXXXXXXXXXXXXXXXXXXXX  XXXXXXXXXXXXXXXXXXXXXXX     .......",
".........     XXXXXXXXXXXXXXXXXXXXX  XXXXXXXXXXXXXXXXXXXX      .........",
"............    XXXXXXXXXXXXXXXXXXX  XXXXXXXXXXXXXXXXXXX     ...........",
"..............   XXXXXXXXXXXXXXXXXX  XXXXXXXXXXXXXXXXXX    .............",
"...............   XXXXXXXXXXXXXXXXX  XXXXXXXXXXXXXXXXX   ...............",
"................   XXXXXXXXXXXXXXXXXXXXXXXXXXXXXXXXXX   ................",
".................   XXXXXXXXXXXXXXXXXXXXXXXXXXXXXXXX   .................",
"..................   XXXXXXXXXXXXXXXXXXXXXXXXXXXXXX   ..................",
"...................   XXXXXXXXXXXXXXXXXXXXXXXXXXXX   ...................",
"....................   XXXXXXXXXXXXXXXXXXXXXXXXX    ....................",
".....................   XXXXXXXXXXXXXXXXXXXXXXXX   .....................",
"......................   XXX                XXX   ......................",
".......................                          .......................",
"........................    XXXXXXXXXXXXXXXX    ........................",
".......................   XXXXXXXXXXXXXXXXXXXX   .......................",
".......................  XXXXXXXXXXXXXXXXXXXXXX  .......................",
".......................  XXXXXXXXXXXXXXXXXXXXXX  .......................",
"......................   XXXXXXXXXXXXXXXXXXXXXX   ......................",
"......................  XXX                  XXX  ......................",
".....................                              .....................",
".....................      XXXXXXXXXXXXXXXXXX      .....................",
".....................  XXXXXXXXXXXXXXXXXXXXXXXXXX  .....................",
"....................   XXXXXXXXXXXXXXXXXXXXXXXXXX   ....................",
"....................        XXXXXXXXXXXXXXXX        ....................",
"......................                            ......................",
"............................                ............................",
"................................        ................................",
"...............................   XXXX   ...............................",
".............................    XXXXXX    .............................",
"...........                    XXXXXXXXXX                    ...........",
".......                      XXXXXXXXXXXXXX                      .......",
".....      XXXXXXXXXXXXXXXXXXXXXXXX  XXXXXXXXXXXXXXXXXXXXXXXX      .....",
"....   XXXXXXXXXXXXXXXXXXXXXXXXXX      XXXXXXXXXXXXXXXXXXXXXXXXXX   ....",
"....  XXXXXXXXXXXXXXXXXXXXXXXX     ..     XXXXXXXXXXXXXXXXXXXXXXXX  ....",
"....   XXXXX                     ......                     XXXXX   ....",
".....   X                     ............                     X   .....",
"......      ................................................      ......",
".......  ......................................................  .......",
"........................................................................",
"........................................................................",
"........................................................................"
};
