/* XPM */
static char *asdd72[] = {
/* columns rows colors chars-per-pixel */
"72 72 3 1",
"  c black s dark_piece",
". c green s dark_square",
"X c white s light_piece",
/* pixels */
"........................................................................",
"........................................................................",
"........................................................................",
"........................................................................",
"........................................................................",
"........................................................................",
"........................................................................",
"........             ...................................................",
"........              ............................             .........",
"........               ..........................              .........",
"........                ........................               .........",
"........                 ......................                .........",
"........                  ....................                 .........",
"........      X            ..................                  .........",
"........      XX            ................            X      .........",
"........       XX            ..............            XX      .........",
"........        XX            ............            XX       .........",
"........         XX            ..........            XX        .........",
"........          XX            ........            XX         .........",
"........           XX            ......            XX          .........",
"........            XX            ....            XX           .........",
".........            XX            ..            XX            .........",
"..........            XX                        XX            ..........",
"...........            XX            XX        XX            ...........",
"............            XX            XX      XX            ............",
".............            XX            XX    XX            .............",
"..............            XX            XX  XX            ..............",
"...............            XX            XX              ...............",
"................            XX            XX            ................",
".................            XX            XX          .................",
"..................            XX            XX        ..................",
"...................            XX            XX      ...................",
"....................            XX            XX    ....................",
".....................            XX            XX  .....................",
"......................            XX              ......................",
".......................            XX            .......................",
"......................              XX            ......................",
"........   ..........  XX            XX            ..........   ........",
".......     ........    XX            XX            ........     .......",
"......       ......      XX            XX            ......       ......",
".....         ....        XX            XX            ....         .....",
"....           ..          XX            XX            ..           ....",
"....            XX          XX            XX          XX            ....",
"....             XX          XX            XX        XX             ....",
"....              XX      X   XX            XX      XX              ....",
".....              XX    XX    XX            XX    XX              .....",
"......              XX   X      XX            X   XX              ......",
".......              XX          X               XX              .......",
"........              XX                        XX              ........",
".........              XX          ..          XX              .........",
"............            XX        ....        XX            ............",
".............            XX      ......      XX            .............",
"............ X            XX    ........    XX            X ............",
"...........   X            XX  ..........  XX            X   ...........",
"..........     X            XX............XX            X     ..........",
".........       X            ..............            X       .........",
"........         X            ............            X         ........",
".......           X            ..........            X           .......",
"......             .            ........            .             ......",
".....              ..            ......            ..              .....",
"....              ....            ....            ....              ....",
"...              .....            ....            .....              ...",
"...             ......            ....            ......             ...",
"...            ........          ......          ........            ...",
"....          ..........        ........        ..........          ....",
".....        ............      ..........      ............        .....",
"......      ..............    ............    ..............      ......",
".......    ..................................................    .......",
"........................................................................",
"........................................................................",
"........................................................................",
"........................................................................"
};
