/* XPM */
static char *asdd33[] = {
/* columns rows colors chars-per-pixel */
"33 33 3 1",
"  c black s dark_piece",
". c green s dark_square",
"X c white s light_piece",
/* pixels */
".................................",
".................................",
".................................",
"...      ...............      ...",
"...       .............       ...",
"...        ...........     X  ...",
"...   X     .........     X   ...",
"...    X     .......     X    ...",
"...     X     .....     X     ...",
"....     X     ...     X     ....",
".....     X     .     X     .....",
"......     X     X   X     ......",
".......     X     X       .......",
"........     X     X     ........",
".........     X     X   .........",
"..........     X     X ..........",
"...........     X     ...........",
".......... X     X     ..........",
"...   ...   X     X     ...   ...",
"..     .     X     X     .     ..",
"..      X   X X     X   X      ..",
"...      X X   X       X      ...",
"....      X     .     X      ....",
"......     X   ...   X     ......",
"..... X     X ..... X     X .....",
"....   X     .......     X   ....",
"...     X     .....     X     ...",
"..       .     ...     .       ..",
".       ..     ...     ..       .",
".      ....    ...    ....      .",
"..    ......  .....  ......    ..",
"...  .......................  ...",
"................................."
};
