/* XPM */
static char *asld33[] = {
/* columns rows colors chars-per-pixel */
"33 33 3 1",
"  c black s dark_piece",
". c green s dark_square",
"X c white s light_piece",
/* pixels */
".................................",
".................................",
".................................",
"...      ...............      ...",
"... XXXXX ............. XXXXX ...",
"... XXXXXX ........... XXXXXX ...",
"... XX XXXX ......... XXXX XX ...",
"... XXX XXXX ....... XXXX XXX ...",
"... XXXX XXXX ..... XXXX XXXX ...",
".... XXXX XXXX ... XXXX XXXX ....",
"..... XXXX XXXX . XXXX XXXX .....",
"...... XXXX XXXX XXXX XXXX ......",
"....... XXXX XXXX XX XXXX .......",
"........ XXXX XXXX XXXXX ........",
"......... XXXX XXXX XXX .........",
".......... XXXX XXXX X ..........",
"........... XXXX XXXX ...........",
".......... X XXXX XXXX ..........",
"...   ... XXX XXXX XXXX ...   ...",
".. XXX . XXXXX XXXX XXXX . XXX ..",
".. XXXX XXXX XX XXXX XXXX XXXX ..",
"... XXXX XX XXXX XXXX XX XXXX ...",
"....  XXX XXXXX . XXXXX XXX  ....",
"...... XXX XXX ... XXX XXX ......",
"..... X XXX X ..... X XXX X .....",
".... XXX XXX ....... XXX XXX ....",
"... XXXXX XXX ..... XXX XXXXX ...",
".. XXXXX . XXX ... XXX . XXXXX ..",
". XXXXX .. XXX ... XXX .. XXXXX .",
". XXXX .... XX ... XX .... XXXX .",
".. XX ......  .....  ...... XX ..",
"...  .......................  ...",
"................................."
};
