/* XPM */
static char *asld49[] = {
/* columns rows colors chars-per-pixel */
"49 49 3 1",
"  c black s dark_piece",
". c green s dark_square",
"X c white s light_piece",
/* pixels */
".................................................",
".................................................",
".................................................",
".................................................",
".................................................",
".......        ...................        .......",
"....... XXXXXXX ................. XXXXXXX .......",
"....... XXXXXXXX ............... XXXXXXXX .......",
"....... XXXXXXXXX ............. XXXXXXXXX .......",
"....... XXXXXXXXXX ........... XXXXXX XXX .......",
"....... XXXX XXXXXX ......... XXXXXX XXXX .......",
"....... XXXXX XXXXXX ....... XXXXXX XXXXX .......",
"....... XXXXXX XXXXXX ..... XXXXXX XXXXXX .......",
"........ XXXXXX XXXXXX ... XXXXXX XXXXXX ........",
"......... XXXXXX XXXXXX . XXXXXX XXXXXX .........",
".......... XXXXXX XXXXXX XXXXXX XXXXXX ..........",
"........... XXXXXX XXXXXX XXXX XXXXXX ...........",
"............ XXXXXX XXXXXX XX XXXXXX ............",
"............. XXXXXX XXXXXX XXXXXXX .............",
".............. XXXXXX XXXXXX XXXXX ..............",
"............... XXXXXX XXXXXX XXX ...............",
"................ XXXXXX XXXXXX X ................",
"................. XXXXXX XXXXXX .................",
"................ X XXXXXX XXXXXX ................",
"............... XXX XXXXXX XXXXXX ...............",
".............. XXXXX XXXXXX XXXXXX .....  .......",
"......  ..... XXXXXXX XXXXXX XXXXXX ... XX ......",
"..... XX ... XXXXXX XX XXXXXX XXXXXX . XXXX .....",
".... XXXX . XXXXXX XXXX XXXXXX XXXXXX XXXXX .....",
".... XXXXX XXXXXX XXXXXX XXXXXX XXXX XXXXX ......",
"..... XXXXX XXXX XXXXXX . XXXXXX XX XXXX  .......",
"......  XXXX XX XXXXXX ... XXXXXXX XXXX .........",
"........ XXXX XXXXXXX ..... XXXXX XXXX ..........",
"......... XXXX XXXXX ....... XXX XXXX X .........",
"........ X XXXX XXX ......... X XXXX XXX ........",
"....... XXX XXXX X ........... XXXX XXXXX .......",
"...... XXXXX XXXX ........... XXXX XXXXXXX ......",
"..... XXXXXXX XXXX ......... XXXX . XXXXXXX .....",
".... XXXXXXX . XXXX ....... XXXX ... XXXXXXX ....",
"... XXXXXXX ... XXXX ...... XXXX .... XXXXXX ....",
"... XXXXXX .... XXXX ....... XX ...... XXXXX ....",
"... XXXXX ...... XX .........  ........ XXX .....",
".... XXX ........  .....................   ......",
".....   .........................................",
".................................................",
".................................................",
".................................................",
".................................................",
"................................................."
};
