/* XPM */
static char *asll72[] = {
/* columns rows colors chars-per-pixel */
"72 72 3 1",
"  c black s dark_piece",
". c gray s light_square",
"X c white s light_piece",
/* pixels */
"........ ...............................................................",
"........................................................................",
"........................................................................",
"........................................................................",
"........................................................................",
"........................................................................",
"........................................................................",
"........              ..................................................",
"........               ..........................              .........",
"........  XXXXXXXXXXX   ........................               .........",
"........  XXXXXXXXXXXX   ......................  XXXXXXXXXXXX  .........",
"........  XXXXXXXXXXXXX   ....................  XXXXXXXXXXXXX  .........",
"........  XXXXXXXXXXXXXX   ..................  XXXXXXXXXXXXXX  .........",
"........  XXXXXXXXXXXXXXX   ................  XXXXXXXXXXXXXXX  .........",
"........  XXXXXXXXXXXXXXXX   ..............  XXXXXXXXXXXXXXXX  .........",
"........  XXXXXX XXXXXXXXXX   ............  XXXXXXXXXX  XXXXX  .........",
"........  XXXXXX  XXXXXXXXXX   ..........  XXXXXXXXXX  XXXXXX  .........",
"........  XXXXXXX  XXXXXXXXXX   ........  XXXXXXXXXX  XXXXXXX  .........",
"........  XXXXXXXX  XXXXXXXXXX   ......  XXXXXXXXXX  XXXXXXXX  .........",
"........  XXXXXXXXX  XXXXXXXXXX   ....  XXXXXXXXXX  XXXXXXXXX  .........",
"........  XXXXXXXXXX  XXXXXXXXXX   ..  XXXXXXXXXX  XXXXXXXXXX  .........",
".........  XXXXXXXXXX  XXXXXXXXXX     XXXXXXXXXX  XXXXXXXXXX   .........",
"..........  XXXXXXXXXX  XXXXXXXXXX   XXXXXXXXXX  XXXXXXXXXX   ..........",
"...........  XXXXXXXXXX  XXXXXXXXXX   XXXXXXXX  XXXXXXXXXX   ...........",
"............  XXXXXXXXXX  XXXXXXXXXX   XXXXXX  XXXXXXXXXX   ............",
".............  XXXXXXXXXX  XXXXXXXXXX   XXXX  XXXXXXXXXX   .............",
"..............  XXXXXXXXXX  XXXXXXXXXX   XX  XXXXXXXXXX   ..............",
"...............  XXXXXXXXXX  XXXXXXXXXX   X XXXXXXXXXX   ...............",
"................  XXXXXXXXXX  XXXXXXXXXX   XXXXXXXXXX   ................",
".................  XXXXXXXXXX  XXXXXXXXXX   XXXXXXXX   .................",
"..................  XXXXXXXXXX  XXXXXXXXXX   XXXXXX   ..................",
"...................  XXXXXXXXXX  XXXXXXXXXX   XXXX   ...................",
"....................  XXXXXXXXXX  XXXXXXXXXX   XX   ....................",
".....................  XXXXXXXXXX  XXXXXXXXXX      .....................",
"......................  XXXXXXXXXX  XXXXXXXXXX    ......................",
"......................   XXXXXXXXXX  XXXXXXXXXX   ......................",
".....................  X  XXXXXXXXXX  XXXXXXXXXX   .....................",
"........   .........  XXX  XXXXXXXXXX  XXXXXXXXXX   .........   ........",
".......     .......  XXXXX  XXXXXXXXXX  XXXXXXXXXX   .......     .......",
"......  XX   .....  XXXXXXX  XXXXXXXXXX  XXXXXXXXXX   .....  XX   ......",
".....  XXXX   ...  XXXXXXXXX  XXXXXXXXXX  XXXXXXXXXX   ...  XXXX   .....",
"....  XXXXXX   .  XXXXXXXXXXX  XXXXXXXXXX  XXXXXXXXXX   .  XXXXXX   ....",
".... XXXXXXXX    XXXXXXXXXX  X  XXXXXXXXXX  XXXXXXXXXX    XXXXXXXX  ....",
".... XXXXXXXXX   XXXXXXXXX  XXX  XXXXXXXXXX  XXXXXXXXXX  XXXXXXXXX  ....",
"....  XXXXXXXXX   XXXXXXX  XXXXX  XXXXXXXXXX  XXXXXXXX  XXXXXXXXX   ....",
".....  XXXXXXXXX   XXXXX  XXXXXXX  XXXXXXXXXX  XXXXXX  XXXXXXXXX   .....",
"......  XXXXXXXXX   XXX  XXXXXXXXX  XXXXXXXXXX  XXXX  XXXXXXXXX   ......",
".......  XXXXXXXXX   XXXXXXXXXXXXX   XXXXXXXXXX XXX  XXXXXXXXX   .......",
"........    XXXXXXX   XXXXXXXXXXX     XXXXXXXXXXXX  XXXXXXX     ........",
".........    XXXXXXX   XXXXXXXXX   ..  XXXXXXXXXX  XXXXXXX     .........",
"............  XXXXXXX   XXXXXXX   ....  XXXXXXXX  XXXXXXX   ............",
".............  XXXXXXX   XXXXX   ......  XXXXXX  XXXXXXX   .............",
"............    XXXXXXX   XXX   ........  XXXX  XXXXXXX     ............",
"...........  XX  XXXXXXX   X   ..........  XX  XXXXXXX   X   ...........",
"..........  XXXX  XXXXXXX     ............    XXXXXXX   XXX   ..........",
".........  XXXXXX  XXXXXXX   ..............  XXXXXXX   XXXXX   .........",
"........  XXXXXXXX  XXXXXXX   ............  XXXXXXX   XXXXXXX   ........",
".......  XXXXXXXXX   XXXXXXX   ..........  XXXXXXX   XXXXXXXXX   .......",
"......  XXXXXXXXX     XXXXXXX   ........  XXXXXXX     XXXXXXXXX   ......",
".....  XXXXXXXXX   ..  XXXXXXX   ......  XXXXXXX   ..  XXXXXXXXX   .....",
"....  XXXXXXXXX   ....  XXXXXXX   ....  XXXXXXXX  ....  XXXXXXXXX   ....",
"...  XXXXXXXXX   .....  XXXXXXXX  .... XXXXXXXXX  .....  XXXXXXXXX   ...",
"...  XXXXXXXX   ......  XXXXXXX   ....  XXXXXXX   ......  XXXXXXXXX  ...",
"...  XXXXXXX   ........  XXXXX   ......  XXXXX   ........  XXXXXXX   ...",
"....  XXXXX   ..........  XXX   ........  XXX   ..........  XXXXX   ....",
".....  XXX   ............  X   ..........  X   ............  XXX   .....",
"......  X   ..............    ............    ..............  X   ......",
".......    ..................................................    .......",
"........................................................................",
"........................................................................",
"........................................................................",
"........................................................................"
};
