/* XPM */
static char *asll45[] = {
/* columns rows colors chars-per-pixel */
"45 45 3 1",
"  c black s dark_piece",
". c gray s light_square",
"X c white s light_piece",
/* pixels */
".............................................",
".............................................",
".............................................",
".............................................",
".............................................",
"......        .................        ......",
"...... XXXXXXX ............... XXXXXXX ......",
"...... XXXXXXXX ............. XXXXXXXX ......",
"...... XXXXXXXXX ........... XXXXXXXXX ......",
"...... XXXXXXXXXX ......... XXXXXX XXX ......",
"...... XXXX XXXXXX ....... XXXXXX XXXX ......",
"...... XXXXX XXXXXX ..... XXXXXX XXXXX ......",
"...... XXXXXX XXXXXX ... XXXXXX XXXXXX ......",
"....... XXXXXX XXXXXX . XXXXXX XXXXXX .......",
"........ XXXXXX XXXXXX XXXXXX XXXXXX ........",
"......... XXXXXX XXXXXX XXXX XXXXXX .........",
".......... XXXXXX XXXXXX XX XXXXXX ..........",
"........... XXXXXX XXXXXX XXXXXXX ...........",
"............ XXXXXX XXXXXX XXXXX ............",
"............. XXXXXX XXXXXX XXX .............",
".............. XXXXXX XXXXXX X ..............",
"............... XXXXXX XXXXXX ...............",
".............. X XXXXXX XXXXXX ..............",
"............. XXX XXXXXX XXXXXX .............",
".....  ..... XXXXX XXXXXX XXXXXX .....  .....",
".... XX ... XXXXXXX XXXXXX XXXXXX ... XX ....",
"... XXXX . XXXXXX XX XXXXXX XXXXXX . XXXX ...",
"... XXXXX XXXXXX XXXX XXXXXX XXXXXX XXXXX ...",
".... XXXXX XXXX XXXXXX XXXXXX XXXX XXXXX ....",
".....  XXXX XX XXXXXX . XXXXXX XX XXXX  .....",
"....... XXXX XXXXXXX ... XXXXXXX XXXX .......",
"........ XXXX XXXXX ..... XXXXX XXXX ........",
"....... X XXXX XXX ....... XXX XXXX X .......",
"...... XXX XXXX X ......... X XXXX XXX ......",
"..... XXXXX XXXX ........... XXXX XXXXX .....",
".... XXXXXXX XXXX ......... XXXX XXXXXXX ....",
"... XXXXXXX . XXXX ....... XXXX . XXXXXXX ...",
".. XXXXXXX ... XXXX ..... XXXX ... XXXXXXX ..",
".. XXXXXX .... XXXX ..... XXXX .... XXXXXX ..",
".. XXXXX ...... XX ....... XX ...... XXXXX ..",
"... XXX ........  .........  ........ XXX ...",
"....   ...............................   ....",
".............................................",
".............................................",
"............................................."
};
