/* XPM */
static char *board__[] = {
/* columns rows colors chars-per-pixel */
"32 32 4 1",
"  c #000000",
". c #FFFF00",
"X c #808080",
"o c #FFFFFF",
/* pixels */
"X.X.    X.X.    X.X.    X.X.    ",
".XoX    .XoX    .XoX    .XoX    ",
"X.X.    X.X.    X.X.    X.X.    ",
"oX.X    oX.X    oX.X    oX.X    ",
"    X.X.    X.X.    X.X.    X.X.",
"    .XoX    .XoX    .XoX    .XoX",
"    X.X.    X.X.    X.X.    X.X.",
"    oX.X    oX.X    oX.X    oX.X",
"X.X.    X.X.    X.X.    X.X.    ",
".XoX    .XoX    .XoX    .XoX    ",
"X.X.    X.X.    X.X.    X.X.    ",
"oX.X    oX.X    oX.X    oX.X    ",
"    X.X.    X.X.    X.X.    X.X.",
"    .XoX    .XoX    .XoX    .XoX",
"    X.X.    X.X.    X.X.    X.X.",
"    oX.X    oX.X    oX.X    oX.X",
"X.X.    X.X.    X.X.    X.X.    ",
".XoX    .XoX    .XoX    .XoX    ",
"X.X.    X.X.    X.X.    X.X.    ",
"oX.X    oX.X    oX.X    oX.X    ",
"    X.X.    X.X.    X.X.    X.X.",
"    .XoX    .XoX    .XoX    .XoX",
"    X.X.    X.X.    X.X.    X.X.",
"    oX.X    oX.X    oX.X    oX.X",
"X.X.    X.X.    X.X.    X.X.    ",
".XoX    .XoX    .XoX    .XoX    ",
"X.X.    X.X.    X.X.    X.X.    ",
"oX.X    oX.X    oX.X    oX.X    ",
"    X.X.    X.X.    X.X.    X.X.",
"    .XoX    .XoX    .XoX    .XoX",
"    X.X.    X.X.    X.X.    X.X.",
"    oX.X    oX.X    oX.X    oX.X"
};
