/* XPM */
static char *board__[] = {
/* columns rows colors chars-per-pixel */
"48 48 4 1",
"  c #000000",
". c #FFFF00",
"X c #808080",
"o c #FFFFFF",
/* pixels */
"X.X.X.      X.X.X.      X.X.X.      X.X.X.      ",
".XoX.X      .XoX.X      .XoX.X      .XoX.X      ",
"X.X.X.      X.X.X.      X.X.X.      X.X.X.      ",
"oX.XoX      oX.XoX      oX.XoX      oX.XoX      ",
"X.X.X.      X.X.X.      X.X.X.      X.X.X.      ",
".XoX.X      .XoX.X      .XoX.X      .XoX.X      ",
"      X.X.X.      X.X.X.      X.X.X.      X.X.X.",
"      .XoX.X      .XoX.X      .XoX.X      .XoX.X",
"      X.X.X.      X.X.X.      X.X.X.      X.X.X.",
"      oX.XoX      oX.XoX      oX.XoX      oX.XoX",
"      X.X.X.      X.X.X.      X.X.X.      X.X.X.",
"      .XoX.X      .XoX.X      .XoX.X      .XoX.X",
"X.X.X.      X.X.X.      X.X.X.      X.X.X.      ",
".XoX.X      .XoX.X      .XoX.X      .XoX.X      ",
"X.X.X.      X.X.X.      X.X.X.      X.X.X.      ",
"oX.XoX      oX.XoX      oX.XoX      oX.XoX      ",
"X.X.X.      X.X.X.      X.X.X.      X.X.X.      ",
".XoX.X      .XoX.X      .XoX.X      .XoX.X      ",
"      X.X.X.      X.X.X.      X.X.X.      X.X.X.",
"      .XoX.X      .XoX.X      .XoX.X      .XoX.X",
"      X.X.X.      X.X.X.      X.X.X.      X.X.X.",
"      oX.XoX      oX.XoX      oX.XoX      oX.XoX",
"      X.X.X.      X.X.X.      X.X.X.      X.X.X.",
"      .XoX.X      .XoX.X      .XoX.X      .XoX.X",
"X.X.X.      X.X.X.      X.X.X.      X.X.X.      ",
".XoX.X      .XoX.X      .XoX.X      .XoX.X      ",
"X.X.X.      X.X.X.      X.X.X.      X.X.X.      ",
"oX.XoX      oX.XoX      oX.XoX      oX.XoX      ",
"X.X.X.      X.X.X.      X.X.X.      X.X.X.      ",
".XoX.X      .XoX.X      .XoX.X      .XoX.X      ",
"      X.X.X.      X.X.X.      X.X.X.      X.X.X.",
"      .XoX.X      .XoX.X      .XoX.X      .XoX.X",
"      X.X.X.      X.X.X.      X.X.X.      X.X.X.",
"      oX.XoX      oX.XoX      oX.XoX      oX.XoX",
"      X.X.X.      X.X.X.      X.X.X.      X.X.X.",
"      .XoX.X      .XoX.X      .XoX.X      .XoX.X",
"X.X.X.      X.X.X.      X.X.X.      X.X.X.      ",
".XoX.X      .XoX.X      .XoX.X      .XoX.X      ",
"X.X.X.      X.X.X.      X.X.X.      X.X.X.      ",
"oX.XoX      oX.XoX      oX.XoX      oX.XoX      ",
"X.X.X.      X.X.X.      X.X.X.      X.X.X.      ",
".XoX.X      .XoX.X      .XoX.X      .XoX.X      ",
"      X.X.X.      X.X.X.      X.X.X.      X.X.X.",
"      .XoX.X      .XoX.X      .XoX.X      .XoX.X",
"      X.X.X.      X.X.X.      X.X.X.      X.X.X.",
"      oX.XoX      oX.XoX      oX.XoX      oX.XoX",
"      X.X.X.      X.X.X.      X.X.X.      X.X.X.",
"      .XoX.X      .XoX.X      .XoX.X      .XoX.X",
};
