/* XPM */
static char *cdd33[] = {
/* columns rows colors chars-per-pixel */
"33 33 3 1",
"  c black s dark_piece",
". c green s dark_square",
"X c white s light_piece",
/* pixels */
".................................",
".................................",
"...............  ................",
".............. XX ...............",
".............. XX ...............",
"...............  ................",
"..............    ...............",
".............      ..............",
"....  ......        ......  .....",
"... XX                    XX ....",
"... XX        XXXX        XX ....",
"....        XX    XX        .....",
"......      X      X      .......",
"......     X        X     .......",
".......    X        X    ........",
".......   X          X   ........",
"........  X          X  .........",
".......   X          X   ........",
".......    X        X    ........",
"......     X        X     .......",
"......      X      X      .......",
"....        XX    XX        .....",
"... XX        XXXX        XX ....",
"... XX                    XX ....",
"....  ......        ......  .....",
".............      ..............",
"..............    ...............",
"...............  ................",
".............. XX ...............",
".............. XX ...............",
"...............  ................",
".................................",
"................................."
};
