/* XPM */
static char *cdd37[] = {
/* columns rows colors chars-per-pixel */
"37 37 2 1",
"  c black s dark_piece",
". c green s dark_square",
/* pixels */
".....................................",
".................   .................",
"................ ... ................",
"................ ... ................",
"................ ... ................",
".................   .................",
"................     ................",
"...............       ...............",
"...   .........       .........   ...",
".. ... .......         ....... ... ..",
".. ...                         ... ..",
".. ...          .....          ... ..",
"...           ..     ..           ...",
"......       .         .       ......",
".......     .           .     .......",
".......     .           .     .......",
"........   .             .   ........",
"........   .             .   ........",
".........  .             .  .........",
"........   .             .   ........",
"........   .             .   ........",
".......     .           .     .......",
".......     .           .     .......",
"......       .         .       ......",
"...           ..     ..           ...",
".. ...          .....          ... ..",
".. ...                         ... ..",
".. ... .......         ....... ... ..",
"...   .........       .........   ...",
"...............       ...............",
"................     ................",
".................   .................",
"................ ... ................",
"................ ... ................",
"................ ... ................",
".................   .................",
"....................................."
};
