/* XPM */
static char *cdd40[] = {
/* columns rows colors chars-per-pixel */
"40 40 3 1",
"  c black s dark_piece",
". c green s dark_square",
"X c white s light_piece",
/* pixels */
"........................................",
"...................   ..................",
".................. XXX .................",
".................. XXX .................",
".................. XXX .................",
"...................   ..................",
"...................   ..................",
"..................     .................",
"..................     .................",
".....   .........       ........   .....",
".... XXX                        XXX ....",
".... XXX                        XXX ....",
".... XXX         XXXXXX         XXX ....",
".....           X      X           .....",
"........       X        X        .......",
".........     X          X      ........",
".........    X            X     ........",
"..........   X            X    .........",
"...........  X            X   ..........",
"...........  X            X  ...........",
"..........   X            X  ...........",
".........    X            X   ..........",
"........      X          X     .........",
"........       X        X      .........",
".......         X      X        ........",
".....            XXXXXX            .....",
".... XXX                        XXX ....",
".... XXX                        XXX ....",
".... XXX ........        ...... XXX ....",
".....   .........       ........   .....",
"..................     .................",
"..................     .................",
"...................   ..................",
"...................   ..................",
".................. XXX .................",
".................. XXX .................",
".................. XXX .................",
"...................   ..................",
"........................................",
"........................................"
};
