/* XPM */
static char *cdd45[] = {
/* columns rows colors chars-per-pixel */
"45 45 3 1",
"  c black s dark_piece",
". c green s dark_square",
"X c white s light_piece",
/* pixels */
".............................................",
".............................................",
".....................   .....................",
".................... XXX ....................",
".................... XXX ....................",
".................... XXX ....................",
".....................   .....................",
"....................     ....................",
"...................       ...................",
"...................       ...................",
"..................         ..................",
"....   ...........         ...........   ....",
"... XXX .........           ......... XXX ...",
"... XXX                               XXX ...",
"... XXX             XXXXX             XXX ...",
"....              XX     XX              ....",
".......          X         X          .......",
"........        X           X        ........",
"........       X             X       ........",
".........      X             X      .........",
".........     X               X     .........",
"..........    X               X    ..........",
"...........   X               X   ...........",
"..........    X               X    ..........",
".........     X               X     .........",
".........      X             X      .........",
"........       X             X       ........",
"........        X           X        ........",
".......          X         X          .......",
"....              XX     XX              ....",
"... XXX             XXXXX             XXX ...",
"... XXX                               XXX ...",
"... XXX .........           ......... XXX ...",
"....   ...........         ...........   ....",
"..................         ..................",
"...................       ...................",
"...................       ...................",
"....................     ....................",
".....................   .....................",
".................... XXX ....................",
".................... XXX ....................",
".................... XXX ....................",
".....................   .....................",
".............................................",
"............................................."
};
