/* XPM */
static char *cdd64[] = {
/* columns rows colors chars-per-pixel */
"64 64 3 1",
"  c black s dark_piece",
". c green s dark_square",
"X c white s light_piece",
/* pixels */
"................................................................",
"................................................................",
"................................................................",
"...............................  ...............................",
".............................      .............................",
"............................   XX   ............................",
"............................  XXXX  ............................",
"............................  XXXX  ............................",
"............................   XX   ............................",
".............................      .............................",
"..............................    ..............................",
".............................      .............................",
"............................        ............................",
"............................        ............................",
"...........................          ...........................",
".......  ..................          ..................  .......",
".....      ...............            ...............      .....",
"....   XX   .............              .............   XX   ....",
"....  XXXX                                            XXXX  ....",
"....  XXXX                                            XXXX  ....",
"....   XX                     XXXX                     XX   ....",
".....                     XXXXXXXXXXXX                     .....",
"......                   XXXXX    XXXXX                   ......",
".........              XXXX          XXXX              .........",
"..........            XXX              XXX            ..........",
"..........            XX                XX            ..........",
"...........          XX                  XX          ...........",
"............        XXX                  XXX        ............",
"............        XX                    XX        ............",
".............       XX                    XX       .............",
".............       X                      X       .............",
"..............     XX                      XX     ..............",
"...............    XX                      XX    ...............",
"...............    XX                      XX    ...............",
"...............    XX                      XX    ...............",
"..............      X                      X      ..............",
"..............      XX                    XX      ..............",
".............       XX                    XX       .............",
"............        XXX                  XXX        ............",
"............         XX                  XX         ............",
"...........           XX                XX           ...........",
"...........           XXX              XXX           ...........",
".......  .             XXXX          XXXX             .  .......",
".....                    XXXXX    XXXXX                    .....",
"....   XX                 XXXXXXXXXXXX                 XX   ....",
"....  XXXX                    XXXX                    XXXX  ....",
"....  XXXX                                            XXXX  ....",
"....   XX   ............                ............   XX   ....",
".....      ..............              ..............      .....",
"......    ...............              ...............    ......",
"..........................            ..........................",
"...........................          ...........................",
"...........................          ...........................",
"............................        ............................",
".............................      .............................",
"............................   XX   ............................",
"............................  XXXX  ............................",
"............................  XXXX  ............................",
"............................   XX   ............................",
".............................      .............................",
"..............................    ..............................",
"................................................................",
"................................................................",
"................................................................"
};
