/* XPM */
static char *cdd72[] = {
/* columns rows colors chars-per-pixel */
"72 72 3 1",
"  c black s dark_piece",
". c green s dark_square",
"X c white s light_piece",
/* pixels */
"........................................................................",
"........................................................................",
"........................................................................",
"..................................     .................................",
".................................       ................................",
"................................   XXX   ...............................",
"................................  XXXXX  ...............................",
"................................  XXXXX  ...............................",
"................................  XXXXX  ...............................",
"................................   XXX   ...............................",
".................................       ................................",
"..................................      ................................",
".................................       ................................",
"................................         ...............................",
"................................         ...............................",
"...............................           ..............................",
".........     ................            ..............................",
"........       ...............             ...............     .........",
".......   XXX   .............              ..............       ........",
".......  XXXXX  ............                ............   XXX   .......",
".......  XXXXX                                            XXXXX  .......",
".......  XXXXX                                            XXXXX  .......",
".......   XXX                                             XXXXX  .......",
"........                                                   XXX   .......",
".........                        XXXXXXX                        ........",
"..............                 XXXXXXXXXXX                     .........",
"..............                XXXX     XXXX               ..............",
"...............              XXX         XXX              ..............",
"...............             XXX           XXX            ...............",
"................           XXX             XXX           ...............",
"................           XXX              XXX         ................",
".................         XXX                XX         ................",
".................         XX                 XXX       .................",
"..................       XXX                  XX       .................",
"..................       XX                   XX      ..................",
"...................      XX                   XX      ..................",
"...................      XX                   XX     ...................",
"..................       XX                   XX      ..................",
"..................       XXX                 XXX      ..................",
".................         XX                 XX        .................",
".................         XX                 XX        .................",
"................           XX               XX          ................",
"...............            XXX             XXX          ................",
"...............             XXX           XXX            ...............",
"..............               XXX         XXX             ...............",
".........                     XXXX     XXX                   ...........",
"........                       XXXXXXXXXXX                    ..........",
".......   XXX                    XXXXXXX                 XXX   .........",
".......  XXXXX                                          XXXXX  .........",
".......  XXXXX                                          XXXXX  .........",
".......  XXXXX                                          XXXXX  .........",
".......   XXX   ...........                 ..........   XXX   .........",
"........       .............                ...........       ..........",
".........     ..............               .............     ...........",
".............................              .............................",
".............................             ..............................",
"..............................            ..............................",
"..............................           ...............................",
"...............................          ...............................",
"...............................         ................................",
"................................       .................................",
"................................       .................................",
"...............................   XXX   ................................",
"...............................  XXXXX  ................................",
"...............................  XXXXX  ................................",
"...............................  XXXXX  ................................",
"...............................   XXX   ................................",
"................................       .................................",
".................................     ..................................",
"........................................................................",
"........................................................................",
"........................................................................"
};
