/* XPM */
static char *cdl37[] = {
/* columns rows colors chars-per-pixel */
"37 37 3 1",
"  c black s dark_piece",
". c gray s light_square",
"X c white s light_piece",
/* pixels */
".....................................",
".................   .................",
"................ XXX ................",
"................ XXX ................",
"................ XXX ................",
".................   .................",
"................     ................",
"...............       ...............",
"...   .........       .........   ...",
".. XXX .......         ....... XXX ..",
".. XXX                         XXX ..",
".. XXX          XXXXX          XXX ..",
"...           XX     XX           ...",
"......       X         X       ......",
".......     X           X     .......",
".......     X           X     .......",
"........   X             X   ........",
"........   X             X   ........",
".........  X             X  .........",
"........   X             X   ........",
"........   X             X   ........",
".......     X           X     .......",
".......     X           X     .......",
"......       X         X       ......",
"...           XX     XX           ...",
".. XXX          XXXXX          XXX ..",
".. XXX                         XXX ..",
".. XXX .......         ....... XXX ..",
"...   .........       .........   ...",
"...............       ...............",
"................     ................",
".................   .................",
"................ XXX ................",
"................ XXX ................",
"................ XXX ................",
".................   .................",
"....................................."
};
