/* XPM */
static char *cdl49[] = {
/* columns rows colors chars-per-pixel */
"49 49 3 1",
"  c black s dark_piece",
". c gray s light_square",
"X c white s light_piece",
/* pixels */
".................................................",
".................................................",
".......................   .......................",
"...................... XXX ......................",
"...................... XXX ......................",
"...................... XXX ......................",
".......................   .......................",
"......................     ......................",
".....................       .....................",
".....................       .....................",
"....................         ....................",
"....................         ....................",
"......   ..........           .........   .......",
"..... XXX                              XXX ......",
"..... XXX                              XXX ......",
"..... XXX             XXXX             XXX ......",
"......             XXX    XXX             .......",
".........         X          X         ..........",
"..........       X            X       ...........",
"..........      X              X      ...........",
"...........     X              X     ............",
"...........     X              X    .............",
"............   X                X   .............",
"............   X                X  ..............",
".............  X                X  ..............",
".............  X                X   .............",
"............    X              X    .............",
"............    X              X     ............",
"...........     X              X      ...........",
"..........       X            X       ...........",
"..........        X          X         ..........",
".........          XXX    XXX          ..........",
"......                XXXX                .......",
"..... XXX                              XXX ......",
"..... XXX                              XXX ......",
"..... XXX .........           ........ XXX ......",
"......   ...........         ..........   .......",
"....................         ....................",
".....................       .....................",
".....................       .....................",
"......................     ......................",
".......................   .......................",
"...................... XXX ......................",
"...................... XXX ......................",
"...................... XXX ......................",
".......................   .......................",
".................................................",
".................................................",
"................................................."
};
