/* XPM */
static char *cdl54[] = {
/* columns rows colors chars-per-pixel */
"54 54 3 1",
"  c black s dark_piece",
". c gray s light_square",
"X c white s light_piece",
/* pixels */
"......................................................",
"..........................  ..........................",
"........................      ........................",
".......................   XX   .......................",
".......................  XXXX  .......................",
".......................  XXXX  .......................",
".......................   XX   .......................",
"........................      ........................",
".......................        .......................",
"......................         .......................",
"......................          ......................",
".....................           ......................",
"......  .............            .............  ......",
"....      ..........             ...........      ....",
"...   XX   .........              .........   XX   ...",
"...  XXXX                                    XXXX  ...",
"...  XXXX               XXXXXX               XXXX  ...",
"...   XX              XXXXXXXXXX              XX   ...",
"....                XXXXX    XXXXX                ....",
"......             XXX          XXX          .  ......",
".........         XXX            XXX        ..........",
".........         XX              XX        ..........",
"..........       XX                XX      ...........",
"..........       XX                XX      ...........",
"...........     XXX                XX     ............",
"...........     XX                  XX    ............",
"............    XX                  XX   .............",
".............   XX                  XX    ............",
"............    XX                  XX    ............",
"............    XXX                XX      ...........",
"...........      XX                XX       ..........",
"...........      XX                XX       ..........",
"..........        XX              XX         .........",
"..........        XXX            XXX         .........",
"......  .          XXX          XXX             ......",
"....                XXXXX    XXXXX                ....",
"...   XX              XXXXXXXXXX              XX   ...",
"...  XXXX                XXXX                XXXX  ...",
"...  XXXX                                    XXXX  ...",
"...   XX   .........              .........   XX   ...",
"....      ..........              ..........      ....",
"......  .............            .............  ......",
".....................           ......................",
"......................          ......................",
"......................         .......................",
".......................       ........................",
".......................   XX   .......................",
".......................  XXXX  .......................",
".......................  XXXX  .......................",
".......................   XX   .......................",
"........................      ........................",
"..........................  ..........................",
"......................................................",
"......................................................"
};
