/* XPM */
static char *cdl58[] = {
/* columns rows colors chars-per-pixel */
"58 58 3 1",
"  c black s dark_piece",
". c gray s light_square",
"X c white s light_piece",
/* pixels */
"..........................................................",
"..........................     ...........................",
".........................       ..........................",
".........................  XXX  ..........................",
".........................  XXX  ..........................",
".........................  XXX  ..........................",
".........................       ..........................",
"..........................     ...........................",
".........................       ..........................",
"........................         .........................",
"........................         .........................",
".......................           ........................",
".......................           ........................",
"....     .............             .............     .....",
"...       ............             ............       ....",
"...  XXX                                         XXX  ....",
"...  XXX                                         XXX  ....",
"...  XXX                  XXXXX                  XXX  ....",
"...                    XXXXXXXXXXX                    ....",
"....                 XXXXX     XXXXX                 .....",
"........            XXX           XXX            .........",
".........          XXX             XXX          ..........",
".........         XXX               XXX         ..........",
"..........        XX                 XX        ...........",
"..........       XX                   XX       ...........",
"...........      XX                   XX      ............",
"............     XX                   XX     .............",
"............    XX                     XX    .............",
".............   XX                     XX   ..............",
".............   XX                     XX   ..............",
".............   XX                     XX   ..............",
"............    XX                     XX    .............",
"...........      XX                   XX      ............",
"...........      XX                   XX      ............",
"..........       XX                   XX       ...........",
"..........        XX                 XX        ...........",
".........         XXX               XXX         ..........",
".........          XXX             XXX          ..........",
"........            XXX           XXX            .........",
"....                 XXXXX     XXXXX                 .....",
"...                    XXXXXXXXXXX                    ....",
"...  XXX                  XXXXX                  XXX  ....",
"...  XXX                                         XXX  ....",
"...  XXX                                         XXX  ....",
"...       ............             ............       ....",
"....     ..............           ..............     .....",
".......................           ........................",
"........................         .........................",
"........................         .........................",
".........................       ..........................",
"..........................     ...........................",
".........................       ..........................",
".........................  XXX  ..........................",
".........................  XXX  ..........................",
".........................  XXX  ..........................",
".........................       ..........................",
"..........................     ...........................",
".........................................................."
};
