/* XPM */
static char *cld40[] = {
/* columns rows colors chars-per-pixel */
"40 40 3 1",
"  c black s dark_piece",
". c green s dark_square",
"X c white s light_piece",
/* pixels */
"........................................",
"...................   ..................",
".................. XXX .................",
".................. XXX .................",
".................. XXX .................",
"...................   ..................",
"................... X ..................",
".................. XXX .................",
".................. XXX .................",
".....   ......... XXXXX ........   .....",
".... XXX         XXXXXXX        XXX ....",
".... XXX XXXXXXXXXXXXXXXXXXXXXX XXX ....",
".... XXX XXXXXXXX      XXXXXXXX XXX ....",
".....   XXXXXXXX XXXXXX XXXXXXXX   .....",
"........ XXXXXX XXXXXXXX XXXXXXX .......",
"......... XXXX XXXXXXXXXX XXXXX ........",
"......... XXX XXXXXXXXXXX XXXXX ........",
".......... XX XXXXXXXXXXXX XXX .........",
"........... X XXXXXXXXXXXX XX ..........",
"........... X XXXXXXXXXXXX X ...........",
".......... XX XXXXXXXXXXXX X ...........",
"......... XXX XXXXXXXXXXX XXX ..........",
"........ XXXXX XXXXXXXXXX XXXX .........",
"........ XXXXXX XXXXXXXX XXXXX .........",
"....... XXXXXXXX XXXXXX XXXXXXX ........",
".....   XXXXXXXXX      XXXXXXXXX   .....",
".... XXX XXXXXXXXXXXXXXXXXXXXXX XXX ....",
".... XXX         XXXXXXX        XXX ....",
".... XXX ........ XXXXXX ...... XXX ....",
".....   ......... XXXXX ........   .....",
".................. XXX .................",
".................. XXX .................",
"................... X ..................",
"...................   ..................",
".................. XXX .................",
".................. XXX .................",
".................. XXX .................",
"...................   ..................",
"........................................",
"........................................"
};
