/* XPM */
static char *cld49[] = {
/* columns rows colors chars-per-pixel */
"49 49 3 1",
"  c black s dark_piece",
". c green s dark_square",
"X c white s light_piece",
/* pixels */
".................................................",
".................................................",
".......................   .......................",
"...................... XXX ......................",
"...................... XXX ......................",
"...................... XXX ......................",
".......................   .......................",
"...................... XXX ......................",
"..................... XXXXX .....................",
"..................... XXXXX .....................",
".................... XXXXXXX ....................",
".................... XXXXXXX ....................",
"......   .......... XXXXXXXXX .........   .......",
"..... XXX          XXXXXXXXXXX         XXX ......",
"..... XXX XXXXXXXXXXXXXXXXXXXXXXXXXXXX XXX ......",
"..... XXX XXXXXXXXXXXX    XXXXXXXXXXXX XXX ......",
"......   XXXXXXXXXX   XXXX   XXXXXXXXXX   .......",
"......... XXXXXXXX XXXXXXXXXX XXXXXXXX ..........",
".......... XXXXXX XXXXXXXXXXXX XXXXXX ...........",
".......... XXXXX XXXXXXXXXXXXXX XXXXX ...........",
"........... XXXX XXXXXXXXXXXXXX XXXX ............",
"........... XXXX XXXXXXXXXXXXXX XXX .............",
"............ XX XXXXXXXXXXXXXXXX XX .............",
"............ XX XXXXXXXXXXXXXXXX X ..............",
"............. X XXXXXXXXXXXXXXXX X ..............",
"............. X XXXXXXXXXXXXXXXX XX .............",
"............ XXX XXXXXXXXXXXXXX XXX .............",
"............ XXX XXXXXXXXXXXXXX XXXX ............",
"........... XXXX XXXXXXXXXXXXXX XXXXX ...........",
".......... XXXXXX XXXXXXXXXXXX XXXXXX ...........",
".......... XXXXXXX XXXXXXXXXX XXXXXXXX ..........",
"......... XXXXXXXXX   XXXX   XXXXXXXXX ..........",
"......   XXXXXXXXXXXXX    XXXXXXXXXXXX    .......",
"..... XXX XXXXXXXXXXXXXXXXXXXXXXXXXXXX XXX ......",
"..... XXX          XXXXXXXXXXX         XXX ......",
"..... XXX ......... XXXXXXXXX ........ XXX ......",
"......   ........... XXXXXXX ..........   .......",
".................... XXXXXXX ....................",
"..................... XXXXX .....................",
"..................... XXXXX .....................",
"...................... XXX ......................",
".......................   .......................",
"...................... XXX ......................",
"...................... XXX ......................",
"...................... XXX ......................",
".......................   .......................",
".................................................",
".................................................",
"................................................."
};
