/* XPM */
static char *cld54[] = {
/* columns rows colors chars-per-pixel */
"54 54 3 1",
"  c black s dark_piece",
". c green s dark_square",
"X c white s light_piece",
/* pixels */
"......................................................",
"..........................  ..........................",
"........................      ........................",
".......................   XX   .......................",
".......................  XXXX  .......................",
".......................  XXXX  .......................",
".......................   XX   .......................",
"........................      ........................",
".......................  X  X  .......................",
"......................  XXXXX  .......................",
"......................  XXXXXX  ......................",
".....................  XXXXXXX  ......................",
"......  .............  XXXXXXXX  .............  ......",
"....      ..........  XXXXXXXXX  ...........      ....",
"...   XX   .........  XXXXXXXXXX  .........   XX   ...",
"...  XXXX             XXXXXXXXXXX            XXXX  ...",
"...  XXXX            XXX      XXX            XXXX  ...",
"...   XX   XXXXXXXXXXX          XXXXXXXXXXX   XX   ...",
"....      XXXXXXXXXX     XXXX     XXXXXXXXXX      ....",
"......    XXXXXXXXX   XXXXXXXXXX   XXXXXXXX  .  ......",
".........  XXXXXXX   XXXXXXXXXXXX   XXXXXX  ..........",
".........  XXXXXXX  XXXXXXXXXXXXXX  XXXXXX  ..........",
"..........  XXXXX  XXXXXXXXXXXXXXXX  XXXX  ...........",
"..........  XXXXX  XXXXXXXXXXXXXXXX  XXXX  ...........",
"...........  XXX   XXXXXXXXXXXXXXXX  XXX  ............",
"...........   XX  XXXXXXXXXXXXXXXXXX  X   ............",
"............   X  XXXXXXXXXXXXXXXXXX  X  .............",
".............  X  XXXXXXXXXXXXXXXXXX  X   ............",
"............   X  XXXXXXXXXXXXXXXXXX  XX  ............",
"............  XX   XXXXXXXXXXXXXXXX  XXXX  ...........",
"...........  XXXX  XXXXXXXXXXXXXXXX  XXXXX  ..........",
"...........  XXXX  XXXXXXXXXXXXXXXX  XXXXX  ..........",
"..........  XXXXXX  XXXXXXXXXXXXXX  XXXXXXX  .........",
"..........  XXXXXX   XXXXXXXXXXXX   XXXXXXX  .........",
"......  .  XXXXXXXX   XXXXXXXXXX   XXXXXXXXX    ......",
"....      XXXXXXXXXX     XXXX     XXXXXXXXXX      ....",
"...   XX   XXXXXXXXXXX          XXXXXXXXXXX   XX   ...",
"...  XXXX           XXXXX    XXXXX           XXXX  ...",
"...  XXXX            XXXXXXXXXXXX            XXXX  ...",
"...   XX   .........  XXXXXXXXXX  .........   XX   ...",
"....      ..........  XXXXXXXXX   ..........      ....",
"......  .............  XXXXXXX   .............  ......",
".....................   XXXXXX  ......................",
"......................  XXXXX   ......................",
"......................   X  X  .......................",
".......................       ........................",
".......................   XX   .......................",
".......................  XXXX  .......................",
".......................  XXXX  .......................",
".......................   XX   .......................",
"........................      ........................",
"..........................  ..........................",
"......................................................",
"......................................................"
};
