/* XPM */
static char *cld64[] = {
/* columns rows colors chars-per-pixel */
"64 64 3 1",
"  c black s dark_piece",
". c green s dark_square",
"X c white s light_piece",
/* pixels */
"................................................................",
"................................................................",
"................................................................",
"...............................  ...............................",
".............................      .............................",
"............................   XX   ............................",
"............................  XXXX  ............................",
"............................  XXXX  ............................",
"............................   XX   ............................",
".............................      .............................",
"..............................    ..............................",
".............................  XX  .............................",
"............................  XXXX  ............................",
"............................  XXXX  ............................",
"...........................  XXXXXX  ...........................",
".......  ..................  XXXXXX  ..................  .......",
".....      ...............  XXXXXXXX  ...............      .....",
"....   XX   .............  XXXXXXXXXX  .............   XX   ....",
"....  XXXX                 XXXXXXXXXX                 XXXX  ....",
"....  XXXX                XXXXXXXXXXXX                XXXX  ....",
"....   XX   XXXXXXXXXXXXXXXXXX    XXXXXXXXXXXXXXXXXX   XX   ....",
".....      XXXXXXXXXXXXXXX            XXXXXXXXXXXXXXX      .....",
"......    XXXXXXXXXXXXXXX     XXXX     XXXXXXXXXXXXXXX    ......",
".........  XXXXXXXXXXXX    XXXXXXXXXX    XXXXXXXXXXXX  .........",
"..........  XXXXXXXXXX   XXXXXXXXXXXXXX   XXXXXXXXXX  ..........",
"..........  XXXXXXXXXX  XXXXXXXXXXXXXXXX  XXXXXXXXXX  ..........",
"...........  XXXXXXXX  XXXXXXXXXXXXXXXXXX  XXXXXXXX  ...........",
"............  XXXXXX   XXXXXXXXXXXXXXXXXX   XXXXXX  ............",
"............  XXXXXX  XXXXXXXXXXXXXXXXXXXX  XXXXXX  ............",
".............  XXXXX  XXXXXXXXXXXXXXXXXXXX  XXXXX  .............",
".............  XXXXX XXXXXXXXXXXXXXXXXXXXXX XXXXX  .............",
"..............  XXX  XXXXXXXXXXXXXXXXXXXXXX  XXX  ..............",
"...............  XX  XXXXXXXXXXXXXXXXXXXXXX  XX  ...............",
"...............   X  XXXXXXXXXXXXXXXXXXXXXX  X   ...............",
"...............  XX  XXXXXXXXXXXXXXXXXXXXXX  XX  ...............",
"..............  XXXX XXXXXXXXXXXXXXXXXXXXXX XXXX  ..............",
"..............  XXXX  XXXXXXXXXXXXXXXXXXXX  XXXX  ..............",
".............  XXXXX  XXXXXXXXXXXXXXXXXXXX  XXXXX  .............",
"............  XXXXXX   XXXXXXXXXXXXXXXXXX   XXXXXX  ............",
"............  XXXXXXX  XXXXXXXXXXXXXXXXXX  XXXXXXX  ............",
"...........  XXXXXXXXX  XXXXXXXXXXXXXXXX  XXXXXXXXX  ...........",
"...........  XXXXXXXXX   XXXXXXXXXXXXXX   XXXXXXXXX  ...........",
".......  .  XXXXXXXXXXX    XXXXXXXXXX    XXXXXXXXXXX  .  .......",
".....      XXXXXXXXXXXXXX     XXXX     XXXXXXXXXXXXXX      .....",
"....   XX   XXXXXXXXXXXXXX            XXXXXXXXXXXXXX   XX   ....",
"....  XXXX               XXXXX    XXXXX               XXXX  ....",
"....  XXXX                XXXXXXXXXXXX                XXXX  ....",
"....   XX   ............  XXXXXXXXXXXX  ............   XX   ....",
".....      ..............  XXXXXXXXXX  ..............      .....",
"......    ...............  XXXXXXXXXX  ...............    ......",
"..........................  XXXXXXXX  ..........................",
"...........................  XXXXXX  ...........................",
"...........................  XXXXXX  ...........................",
"............................  X  X  ............................",
".............................      .............................",
"............................   XX   ............................",
"............................  XXXX  ............................",
"............................  XXXX  ............................",
"............................   XX   ............................",
".............................      .............................",
"..............................    ..............................",
"................................................................",
"................................................................",
"................................................................"
};
