/* XPM */
static char *cll37[] = {
/* columns rows colors chars-per-pixel */
"37 37 3 1",
"  c black s dark_piece",
". c gray s light_square",
"X c white s light_piece",
/* pixels */
".....................................",
".................   .................",
"................ XXX ................",
"................ XXX ................",
"................ XXX ................",
".................   .................",
"................ XXX ................",
"............... XXXXX ...............",
"...   ......... XXXXX .........   ...",
".. XXX ....... XXXXXXX ....... XXX ..",
".. XXX        XXXXXXXXX        XXX ..",
".. XXX XXXXXXXXX     XXXXXXXXX XXX ..",
"...   XXXXXXXX  XXXXX  XXXXXXXX   ...",
"...... XXXXXX XXXXXXXXX XXXXXX ......",
"....... XXXX XXXXXXXXXXX XXXX .......",
"....... XXXX XXXXXXXXXXX XXXX .......",
"........ XX XXXXXXXXXXXXX XX ........",
"........ XX XXXXXXXXXXXXX XX ........",
"......... X XXXXXXXXXXXXX X .........",
"........ XX XXXXXXXXXXXXX XX ........",
"........ XX XXXXXXXXXXXXX XX ........",
"....... XXXX XXXXXXXXXXX XXXX .......",
"....... XXXX XXXXXXXXXXX XXXX .......",
"...... XXXXXX XXXXXXXXX XXXXXX ......",
"...   XXXXXXXX  XXXXX  XXXXXXXX   ...",
".. XXX XXXXXXXXX     XXXXXXXXX XXX ..",
".. XXX        XXXXXXXXX        XXX ..",
".. XXX ....... XXXXXXX ....... XXX ..",
"...   ......... XXXXX .........   ...",
"............... XXXXX ...............",
"................ XXX ................",
".................   .................",
"................ XXX ................",
"................ XXX ................",
"................ XXX ................",
".................   .................",
"....................................."
};
