/* XPM */
static char *cll33[] = {
/* columns rows colors chars-per-pixel */
"33 33 3 1",
"  c black s dark_piece",
". c gray s light_square",
"X c white s light_piece",
/* pixels */
".................................",
".................................",
"...............  ................",
".............. XX ...............",
".............. XX ...............",
"...............  ................",
".............. XX ...............",
"............. XXXX ..............",
"....  ...... XXXXXX ......  .....",
"... XX      XXXXXXXX      XX ....",
"... XX XXXXXXX    XXXXXXX XX ....",
"....  XXXXXX  XXXX  XXXXXX  .....",
"...... XXXXX XXXXXX XXXXX .......",
"...... XXXX XXXXXXXX XXXX .......",
"....... XXX XXXXXXXX XXX ........",
"....... XX XXXXXXXXXX XX ........",
"........ X XXXXXXXXXX X .........",
"....... XX XXXXXXXXXX XX ........",
"....... XXX XXXXXXXX XXX ........",
"...... XXXX XXXXXXXX XXXX .......",
"...... XXXXX XXXXXX XXXXX .......",
"....  XXXXXX  XXXX  XXXXXX  .....",
"... XX XXXXXXX    XXXXXXX XX ....",
"... XX      XXXXXXXX      XX ....",
"....  ...... XXXXXX ......  .....",
"............. XXXX ..............",
".............. XX ...............",
"...............  ................",
".............. XX ...............",
".............. XX ...............",
"...............  ................",
".................................",
"................................."
};
