/* XPM */
static char *cll45[] = {
/* columns rows colors chars-per-pixel */
"45 45 3 1",
"  c black s dark_piece",
". c gray s light_square",
"X c white s light_piece",
/* pixels */
".............................................",
".............................................",
".....................   .....................",
".................... XXX ....................",
".................... XXX ....................",
".................... XXX ....................",
".....................   .....................",
".................... XXX ....................",
"................... XXXXX ...................",
"................... XXXXX ...................",
".................. XXXXXXX ..................",
"....   ........... XXXXXXX ...........   ....",
"... XXX ......... XXXXXXXXX ......... XXX ...",
"... XXX          XXXXXXXXXXX          XXX ...",
"... XXX XXXXXXXXXXXX     XXXXXXXXXXXX XXX ...",
"....   XXXXXXXXXXX  XXXXX  XXXXXXXXXXX   ....",
"....... XXXXXXXXX XXXXXXXXX XXXXXXXXX .......",
"........ XXXXXXX XXXXXXXXXXX XXXXXXX ........",
"........ XXXXXX XXXXXXXXXXXXX XXXXXX ........",
"......... XXXXX XXXXXXXXXXXXX XXXXX .........",
"......... XXXX XXXXXXXXXXXXXXX XXXX .........",
".......... XXX XXXXXXXXXXXXXXX XXX ..........",
"........... XX XXXXXXXXXXXXXXX XX ...........",
".......... XXX XXXXXXXXXXXXXXX XXX ..........",
"......... XXXX XXXXXXXXXXXXXXX XXXX .........",
"......... XXXXX XXXXXXXXXXXXX XXXXX .........",
"........ XXXXXX XXXXXXXXXXXXX XXXXXX ........",
"........ XXXXXXX XXXXXXXXXXX XXXXXXX ........",
"....... XXXXXXXXX XXXXXXXXX XXXXXXXXX .......",
"....   XXXXXXXXXXX  XXXXX  XXXXXXXXXXX   ....",
"... XXX XXXXXXXXXXXX     XXXXXXXXXXXX XXX ...",
"... XXX          XXXXXXXXXXX          XXX ...",
"... XXX ......... XXXXXXXXX ......... XXX ...",
"....   ........... XXXXXXX ...........   ....",
".................. XXXXXXX ..................",
"................... XXXXX ...................",
"................... XXXXX ...................",
".................... XXX ....................",
".....................   .....................",
".................... XXX ....................",
".................... XXX ....................",
".................... XXX ....................",
".....................   .....................",
".............................................",
"............................................."
};
