/* XPM */
static char *cll58[] = {
/* columns rows colors chars-per-pixel */
"58 58 3 1",
"  c black s dark_piece",
". c gray s light_square",
"X c white s light_piece",
/* pixels */
"..........................................................",
"..........................     ...........................",
".........................       ..........................",
".........................  XXX  ..........................",
".........................  XXX  ..........................",
".........................  XXX  ..........................",
".........................       ..........................",
"..........................     ...........................",
".........................  XXX  ..........................",
"........................  XXXXX  .........................",
"........................  XXXXX  .........................",
".......................  XXXXXXX  ........................",
".......................  XXXXXXX  ........................",
"....     .............  XXXXXXXXX  .............     .....",
"...       ............  XXXXXXXXX  ............       ....",
"...  XXX               XXXXXXXXXXX               XXX  ....",
"...  XXX              XXXXXXXXXXXXX              XXX  ....",
"...  XXX  XXXXXXXXXXXXXXXX     XXXXXXXXXXXXXXXX  XXX  ....",
"...       XXXXXXXXXXXXX           XXXXXXXXXXXXX       ....",
"....     XXXXXXXXXXXX     XXXXX     XXXXXXXXXXXX     .....",
"........  XXXXXXXXXX   XXXXXXXXXXX   XXXXXXXXXX  .........",
".........  XXXXXXXX   XXXXXXXXXXXXX   XXXXXXXX  ..........",
".........  XXXXXXX   XXXXXXXXXXXXXXX   XXXXXXX  ..........",
"..........  XXXXXX  XXXXXXXXXXXXXXXXX  XXXXXX  ...........",
"..........  XXXXX  XXXXXXXXXXXXXXXXXXX  XXXXX  ...........",
"...........  XXXX  XXXXXXXXXXXXXXXXXXX  XXXX  ............",
"............  XXX  XXXXXXXXXXXXXXXXXXX  XXX  .............",
"............  XX  XXXXXXXXXXXXXXXXXXXXX  XX  .............",
".............  X  XXXXXXXXXXXXXXXXXXXXX  X  ..............",
".............  X  XXXXXXXXXXXXXXXXXXXXX  X  ..............",
".............  X  XXXXXXXXXXXXXXXXXXXXX  X  ..............",
"............  XX  XXXXXXXXXXXXXXXXXXXXX  XX  .............",
"...........   XXX  XXXXXXXXXXXXXXXXXXX  XXX   ............",
"...........  XXXX  XXXXXXXXXXXXXXXXXXX  XXXX  ............",
"..........  XXXXX  XXXXXXXXXXXXXXXXXXX  XXXXX  ...........",
"..........  XXXXXX  XXXXXXXXXXXXXXXXX  XXXXXX  ...........",
".........  XXXXXXX   XXXXXXXXXXXXXXX   XXXXXXX  ..........",
".........  XXXXXXXX   XXXXXXXXXXXXX   XXXXXXXX  ..........",
"........  XXXXXXXXXX   XXXXXXXXXXX   XXXXXXXXXX  .........",
"....     XXXXXXXXXXXX     XXXXX     XXXXXXXXXXXX     .....",
"...       XXXXXXXXXXXXX           XXXXXXXXXXXXX       ....",
"...  XXX  XXXXXXXXXXXXXXXX     XXXXXXXXXXXXXXXX  XXX  ....",
"...  XXX              XXXXXXXXXXXXX              XXX  ....",
"...  XXX               XXXXXXXXXXX               XXX  ....",
"...       ............  XXXXXXXXX  ............       ....",
"....     ..............  XXXXXXX  ..............     .....",
".......................  XXXXXXX  ........................",
"........................  XXXXX  .........................",
"........................  XXXXX  .........................",
".........................  XXX  ..........................",
"..........................     ...........................",
".........................       ..........................",
".........................  XXX  ..........................",
".........................  XXX  ..........................",
".........................  XXX  ..........................",
".........................       ..........................",
"..........................     ...........................",
".........................................................."
};
