/* XPM */
static char *cll72[] = {
/* columns rows colors chars-per-pixel */
"72 72 3 1",
"  c black s dark_piece",
". c gray s light_square",
"X c white s light_piece",
/* pixels */
"........................................................................",
"........................................................................",
"........................................................................",
"..................................     .................................",
".................................       ................................",
"................................   XXX   ...............................",
"................................  XXXXX  ...............................",
"................................  XXXXX  ...............................",
"................................  XXXXX  ...............................",
"................................   XXX   ...............................",
".................................       ................................",
"..................................      ................................",
".................................   XX  ................................",
"................................   XXX   ...............................",
"................................  XXXXX  ...............................",
"...............................   XXXXX   ..............................",
".........     ................   XXXXXXX  ..............................",
"........       ...............  XXXXXXXXX  ...............     .........",
".......   XXX   .............   XXXXXXXXX  ..............       ........",
".......  XXXXX  ............   XXXXXXXXXXX  ............   XXX   .......",
".......  XXXXX                 XXXXXXXXXXX                XXXXX  .......",
".......  XXXXX                XXXXXXXXXXXXX               XXXXX  .......",
".......   XXX   XXXXXXXXXXXXXXXXXXXXXXXXXXXXXXXXXXXXXXXX  XXXXX  .......",
"........       XXXXXXXXXXXXXXXXXXXXXXXXXXXXXXXXXXXXXXXXX   XXX   .......",
".........       XXXXXXXXXXXXXXXXX       XXXXXXXXXXXXXXXXX       ........",
"..............  XXXXXXXXXXXXXXX           XXXXXXXXXXXXXX       .........",
"..............   XXXXXXXXXXXXX    XXXXX    XXXXXXXXXXXXX  ..............",
"...............  XXXXXXXXXXXX   XXXXXXXXX   XXXXXXXXXXX   ..............",
"...............   XXXXXXXXXX   XXXXXXXXXXX   XXXXXXXXXX  ...............",
"................  XXXXXXXXX   XXXXXXXXXXXXX   XXXXXXXX   ...............",
"................   XXXXXXXX   XXXXXXXXXXXXXX   XXXXXXX  ................",
".................  XXXXXXX   XXXXXXXXXXXXXXXX  XXXXXX   ................",
".................   XXXXXX  XXXXXXXXXXXXXXXXX   XXXXX  .................",
"..................  XXXXX   XXXXXXXXXXXXXXXXXX  XXXX   .................",
"..................   XXXX  XXXXXXXXXXXXXXXXXXX  XXXX  ..................",
"...................   XXX  XXXXXXXXXXXXXXXXXXX  XXX   ..................",
"...................   XXX  XXXXXXXXXXXXXXXXXXX  XXX  ...................",
"..................   XXXX  XXXXXXXXXXXXXXXXXXX  XXXX  ..................",
"..................  XXXXX   XXXXXXXXXXXXXXXXX   XXXX  ..................",
".................   XXXXXX  XXXXXXXXXXXXXXXXX  XXXXXX  .................",
".................  XXXXXXX  XXXXXXXXXXXXXXXXX  XXXXXX  .................",
"................   XXXXXXXX  XXXXXXXXXXXXXXX  XXXXXXXX  ................",
"...............   XXXXXXXXX   XXXXXXXXXXXXX   XXXXXXXX  ................",
"...............   XXXXXXXXXX   XXXXXXXXXXX   XXXXXXXXX   ...............",
"..............   XXXXXXXXXXXX   XXXXXXXXX   XXXXXXXXXXX  ...............",
".........        XXXXXXXXXXXXX    XXXXX   XXXXXXXXXXXXX      ...........",
"........        XXXXXXXXXXXXXXX           XXXXXXXXXXXXX       ..........",
".......   XXX   XXXXXXXXXXXXXXXXX       XXXXXXXXXXXXXX   XXX   .........",
".......  XXXXX  XXXXXXXXXXXXXXXXXXXXXXXXXXXXXXXXXXXXXX  XXXXX  .........",
".......  XXXXX               XXXXXXXXXXXXXX             XXXXX  .........",
".......  XXXXX               XXXXXXXXXXXXX              XXXXX  .........",
".......   XXX   ...........   XXXXXXXXXXXX  ..........   XXX   .........",
"........       .............  XXXXXXXXXXX   ...........       ..........",
".........     ..............   XXXXXXXXXX  .............     ...........",
".............................  XXXXXXXXX   .............................",
".............................   XXXXXXXX  ..............................",
"..............................  XXXXXXX   ..............................",
"..............................   XXXXXX  ...............................",
"...............................  XXXXX   ...............................",
"...............................   XXXX  ................................",
"................................       .................................",
"................................       .................................",
"...............................   XXX   ................................",
"...............................  XXXXX  ................................",
"...............................  XXXXX  ................................",
"...............................  XXXXX  ................................",
"...............................   XXX   ................................",
"................................       .................................",
".................................     ..................................",
"........................................................................",
"........................................................................",
"........................................................................"
};
