/* XPM */
static char *cross[] = {
/* columns rows colors chars-per-pixel */
"32 32 4 1",
"  c #000000",
". c #FF0000",
"X c #0000FF",
"o c #FFFFFF",
/* pixels */
"XXXXXXXXXXXXXXXXXXXXXXXXXXXXXXXX",
"X     oooooooooooooooooooooooooX",
"X     oo.ooooooooooooooooooooooX",
"X     o...ooooooo...oooooooooooX",
"X     oo.ooooooooooooooooooooooX",
"X     oooooooooooooooooooooooooX",
"Xooooo     ooooooooooooooooooooX",
"Xooooo     oooooooooooo.oooooooX",
"Xo...o     ooooooooooo...ooooooX",
"Xooooo     oooooooooooo.oooooooX",
"Xooooo     ooooooooooooooooooooX",
"Xoooooooooo     oooooooooooooooX",
"Xoooooooooo     o...oooooooooooX",
"Xoooooooooo     oooooooooooo.ooX",
"Xoooooooooo     o...ooooooo...oX",
"Xoooooooooo     oooooooooooo.ooX",
"Xooooooooooooooo     ooooooooooX",
"Xoo.oooooooo...o     ooooooooooX",
"Xo...ooooooooooo     ooooooooooX",
"Xoo.oooooooo...o     ooooooooooX",
"Xooooooooooooooo     ooooooooooX",
"Xoooooooooooooooooooo     oooooX",
"Xoooooooooooooooooooo     oo.ooX",
"Xoooooo...ooooooooooo     o...oX",
"Xoooooooooooooooooooo     oo.ooX",
"Xoooooooooooooooooooo     oooooX",
"Xooooooooooooooooooooooooo     X",
"Xooooooooooo...ooooooooooo     X",
"Xooooooooooooooooooooo...o     X",
"Xooooooooooooooooooooooooo     X",
"Xooooooooooooooooooooooooo     X",
"XXXXXXXXXXXXXXXXXXXXXXXXXXXXXXXX"
};
