/* XPM */
static char *cross[] = {
/* columns rows colors chars-per-pixel */
"48 48 4 1",
"  c #000000",
". c #FF0000",
"X c #0000FF",
"o c #FFFFFF",
/* pixels */
"XXXXXXXXXXXXXXXXXXXXXXXXXXXXXXXXXXXXXXXXXXXXXXXX",
"XXXXXXXXXXXXXXXXXXXXXXXXXXXXXXXXXXXXXXXXXXXXXXXX",
"XXooooooooooooooooooooooooooooooooooooooooooooXX",
"XXo       ooooooooooooooooooooooooooooooooooooXX",
"XXo       ooo.ooooooooooooooooooooooooooooooooXX",
"XXo       ooo.ooooooooooooooooooooooooooooooooXX",
"XXo       o.....ooooooooo.....ooooooooooooooooXX",
"XXo       ooo.ooooooooooooooooooooooooooooooooXX",
"XXo       ooo.ooooooooooooooooooooooooooooooooXX",
"XXo       ooooooooooooooooooooooooooooooooooooXX",
"XXoooooooo       oooooooooooooooooooooooooooooXX",
"XXoooooooo       ooooooooooooooooo.oooooooooooXX",
"XXoooooooo       ooooooooooooooooo.oooooooooooXX",
"XXoo.....o       ooooooooooooooo.....oooooooooXX",
"XXoooooooo       ooooooooooooooooo.oooooooooooXX",
"XXoooooooo       ooooooooooooooooo.oooooooooooXX",
"XXoooooooo       oooooooooooooooooooooooooooooXX",
"XXooooooooooooooo       ooooooooooooooooooooooXX",
"XXooooooooooooooo       ooooooooooooooooo.ooooXX",
"XXooooooooooooooo       o.....ooooooooooo.ooooXX",
"XXooooooooooooooo       ooooooooooooooo.....ooXX",
"XXooooooooooooooo       o.....ooooooooooo.ooooXX",
"XXooooooooooooooo       ooooooooooooooooo.ooooXX",
"XXooooooooooooooo       ooooooooooooooooooooooXX",
"XXoooooooooooooooooooooo       oooooooooooooooXX",
"XXoooo.ooooooooooooooooo       oooooooooooooooXX",
"XXoooo.ooooooooooo.....o       oooooooooooooooXX",
"XXoo.....ooooooooooooooo       oooooooooooooooXX",
"XXoooo.ooooooooooo.....o       oooooooooooooooXX",
"XXoooo.ooooooooooooooooo       oooooooooooooooXX",
"XXoooooooooooooooooooooo       oooooooooooooooXX",
"XXooooooooooooooooooooooooooooo       ooooooooXX",
"XXooooooooooooooooooooooooooooo       ooo.ooooXX",
"XXooooooooooooooooooooooooooooo       ooo.ooooXX",
"XXooooooooo.....ooooooooooooooo       o.....ooXX",
"XXooooooooooooooooooooooooooooo       ooo.ooooXX",
"XXooooooooooooooooooooooooooooo       ooo.ooooXX",
"XXooooooooooooooooooooooooooooo       ooooooooXX",
"XXoooooooooooooooooooooooooooooooooooo       oXX",
"XXoooooooooooooooooooooooooooooooooooo       oXX",
"XXoooooooooooooooooooooooooooooooooooo       oXX",
"XXoooooooooooooooo.....ooooooooo.....o       oXX",
"XXoooooooooooooooooooooooooooooooooooo       oXX",
"XXoooooooooooooooooooooooooooooooooooo       oXX",
"XXoooooooooooooooooooooooooooooooooooo       oXX",
"XXooooooooooooooooooooooooooooooooooooooooooooXX",
"XXXXXXXXXXXXXXXXXXXXXXXXXXXXXXXXXXXXXXXXXXXXXXXX",
"XXXXXXXXXXXXXXXXXXXXXXXXXXXXXXXXXXXXXXXXXXXXXXXX"
};
