/* XPM */
static char *cvdd58[] = {
/* columns rows colors chars-per-pixel */
"58 58 3 1",
"  c black s dark_piece",
". c green s dark_square",
"X c white s light_piece",
/* pixels */
"..........................................................",
"................................. ........ ...............",
"................................   .....   ...............",
"...............................    ....    ...............",
"...............................     ..     ...............",
"...........................                ...............",
"........................    XXX     XXX   ................",
".......................  XXXXX      XXXX   ...............",
"......................  XXX                 ..............",
".....................  XX                    .............",
"....................  X                      .............",
"...................  X                 X      ............",
"..................  XX                 XXX    ............",
".................. XX                   XX    ............",
"................. XXX                    XX   ............",
"................  XX                           ...........",
"................ XXX                           ...........",
"...............  XX         X                  ...........",
"............... XXX         XX                  ..........",
"............... XX           X                  ..........",
"..............  XX                               .........",
".............. XX                                 ........",
".............. XX             .                   ........",
".............  XX             ..                   .......",
".............  XX             ....                 .......",
"............. XX               .....           XX   ......",
"............  XX               .......         XX   ......",
"............  XX                .......             ......",
"............  XX                 .......            ......",
"............  XX                 ........    XX     ......",
"............  XX                  ........    XX   .......",
"............  XX                   ........       ........",
"...........  XXX                    .......  .............",
"...........  XX                      .....................",
"...........  XX                       ....................",
"...........  XX                        ...................",
"...........  XX                        ...................",
"...........  XX                        ...................",
"...........  XX                         ..................",
"...........                             ..................",
"...........                             ..................",
"...........    XXXXXXXXXXXXXXXXXXXXXXXX  .................",
"............   XXXXXXXXXXXXXXXXXXXXXXXX  .................",
"...........                               ................",
".........                                  ...............",
"........                                    ..............",
".......   XXXXXXXXXXXXXXXXXXXXXXXXXXXXXXXX   .............",
".......   XXXXXXXXXXXXXXXXXXXXXXXXXXXXXXXX   .............",
".......                                      .............",
".......                                      .............",
".......                                      .............",
".......        ......          ......        .............",
".......        ......          ......        .............",
".......        ......          ......        .............",
".......        ......          ......        .............",
"..........................................................",
"..........................................................",
".........................................................."
};
