/* XPM */
static char *cvdd72[] = {
/* columns rows colors chars-per-pixel */
"72 72 3 1",
"  c black s dark_piece",
". c green s dark_square",
"X c white s light_piece",
/* pixels */
"........................................................................",
"........................................................................",
"........................................................................",
"........................................  ......... ....................",
".......................................    .......   ...................",
".......................................    .....     ...................",
"......................................      ...     ....................",
"......................................      ..      ....................",
"..................................                  ....................",
"...............................                     ....................",
".............................      XXXX     XX      ....................",
"...........................      XXXXX      XXXXX    ...................",
"..........................     XXXXX          XXX     ..................",
".........................     XXXX                     .................",
"........................    XXXX                       .................",
".......................    XXXX                XXXX     ................",
"......................    XXXX                  XXXX    ................",
"......................   XXXX                   XXXX    ................",
".....................    XXX                     XXX    ................",
".....................   XXXX                       X     ...............",
"....................   XXXX                              ...............",
"....................   XXXX                              ...............",
"...................   XXXX          X                     ..............",
"...................   XXXX          X                     ..............",
"...................  XXXX           XX                     .............",
"..................   XXXX            X                      ............",
"..................   XXXX                                    ...........",
"..................  XXXX                                     ...........",
".................   XXXX              .                       ..........",
".................   XXXX              ...                     ..........",
".................  XXXX               .....              XX    .........",
".................  XXXX                .....             XXX   .........",
"................   XXXX                .......           XXX   .........",
"................   XXXX                 .......           XX   .........",
"................  XXXXX                 ........     XX        .........",
"................  XXXX                   ........     X        .........",
"................  XXXX                    ........    XX       .........",
"................  XXXX                     ........           ..........",
"................  XXXX                      .......         ............",
"...............   XXXX                       .......   .................",
"...............   XXXX                        ..........................",
"...............   XXXX                         .........................",
"...............   XXXX                         .........................",
"...............   XXXX                          ........................",
"...............  XXXXX                           .......................",
"...............  XXXXX                           .......................",
"...............  XXXX                             ......................",
"...............  XXXX                             ......................",
"...............                                   ......................",
"...............                                   ......................",
"...............  XXXXXXXXXXXXXXXXXXXXXXXXXXXXXX   ......................",
"..............   XXXXXXXXXXXXXXXXXXXXXXXXXXXXXX   ......................",
".............                                      .....................",
"...........                                          ...................",
"..........                                            ..................",
".........   XXXXXXXXXXXXXXXXXXXXXXXXXXXXXXXXXXXXXXXX   .................",
".........   XXXXXXXXXXXXXXXXXXXXXXXXXXXXXXXXXXXXXXXX   .................",
".........                                              .................",
".........                                              .................",
".........                                              .................",
".........                                              .................",
".........                                              .................",
".........           .......          .......           .................",
".........           .......          .......           .................",
".........           .......          .......           .................",
".........           .......          .......           .................",
".........           .......          .......           .................",
"........................................................................",
"........................................................................",
"........................................................................",
"........................................................................",
"........................................................................"
};
