/* XPM */
static char *cvdd33[] = {
/* columns rows colors chars-per-pixel */
"33 33 3 1",
"  c black s dark_piece",
". c green s dark_square",
"X c white s light_piece",
/* pixels */
".................................",
".................................",
"................... ... .........",
"..................   .  .........",
"...............         .........",
".............  XXX   XX  ........",
"...........  XX       XX ........",
"........... XX        X X .......",
".......... XX          XX .......",
".........  X               ......",
".........  X     X         ......",
"......... XX                .....",
"........  X                 .....",
"........  X       ..      XX ....",
"........ XX       ....     X ....",
"........ XX        ....      ....",
".......  X          ....    .....",
".......  X           ...  .......",
"....... XX            ...........",
"....... XX            ...........",
"....... XX             ..........",
".......                ..........",
".......                ..........",
"........ XXXXXXXXXXXXX ..........",
".......                 .........",
"......                   ........",
".....  XXXXXXXXXXXXXXXXX  .......",
".....                     .......",
".....                     .......",
".....     ...     ...     .......",
".....     ...     ...     .......",
".................................",
"................................."
};
