/* XPM */
static char *cvdl37[] = {
/* columns rows colors chars-per-pixel */
"37 37 3 1",
"  c black s dark_piece",
". c gray s light_square",
"X c white s light_piece",
/* pixels */
".....................................",
"..................... .... ..........",
"....................   ..  ..........",
"....................   .   ..........",
"................           ..........",
"...............  XXX   XX  ..........",
"..............  X           .........",
".............  X        XX  .........",
"............  .           X  ........",
"............ ..           X  ........",
"...........  .                .......",
"........... ..     X          .......",
"........... .                  ......",
".......... ..                  ......",
".......... ..       ..          .....",
".......... .        ....     XX .....",
"............         ....     X .....",
"......... ..          ....  X   .....",
"......... ..          .....    ......",
"......... ..           ..............",
"......... ..            .............",
"......... ..             ............",
"......... ..              ...........",
"......... .               ...........",
".........                 ...........",
".......... XXXXXXXXXXXXXX ...........",
".........                  ..........",
"........                    .........",
".....................................",
"......                        .......",
"......                        .......",
"......                        .......",
"......     ....      ....     .......",
"......     ....      ....     .......",
"......     ....      ....     .......",
".....................................",
"....................................."
};
