/* XPM */
static char *cvdl64[] = {
/* columns rows colors chars-per-pixel */
"64 64 3 1",
"  c black s dark_piece",
". c gray s light_square",
"X c white s light_piece",
/* pixels */
"................................................................",
"................................................................",
"................................................................",
"................................... ........ ...................",
"..................................   .....   ...................",
".................................    ....    ...................",
".................................     ..     ...................",
".............................                ...................",
"..........................    XXX     XXX   ....................",
".........................  XXXXX      XXXX   ...................",
"........................  XXX                 ..................",
".......................  XX                    .................",
"......................  X                      .................",
".....................  X                 X      ................",
"....................  XX                 XXX    ................",
".................... XX                   XX    ................",
"................... XXX                    XX   ................",
"..................  XX                           ...............",
".................. XXX                           ...............",
".................  XX         X                  ...............",
"................. XXX         XX                  ..............",
"................. XX           X                  ..............",
"................  XX                               .............",
"................ XX                                 ............",
"................ XX             .                   ............",
"...............  XX             ..                   ...........",
"...............  XX             ....                 ...........",
"...............  X              ......           XX   ..........",
"............... XX               .......         XX   ..........",
"..............  XX               ........             ..........",
"..............  XX                ........            ..........",
"..............  XX                 ........    XX     ..........",
"..............  XX                 .........    XX   ...........",
"..............  XX                  .........       ............",
"..............  XX                   ........  .................",
".............  XXX                    ..........................",
".............  XX                      .........................",
".............  XX                       ........................",
".............  XX                        .......................",
".............  XX                        .......................",
".............  XX                        .......................",
".............  XX                         ......................",
".............                             ......................",
"..............                            ......................",
"..............   XXXXXXXXXXXXXXXXXXXXXX   ......................",
".............   XXXXXXXXXXXXXXXXXXXXXXXX   .....................",
"............                                ....................",
"..........                                    ..................",
".........                                      .................",
"........   XXXXXXXXXXXXXXXXXXXXXXXXXXXXXXXXXX   ................",
"........  XXXXXXXXXXXXXXXXXXXXXXXXXXXXXXXXXXXX  ................",
"........                                        ................",
"........                                        ................",
"........                                        ................",
"........                                        ................",
"........                                        ................",
"........         .......        .......         ................",
"........         .......        .......         ................",
"........         .......        .......         ................",
"........         .......        .......         ................",
"........         .......        .......         ................",
"................................................................",
"................................................................",
"................................................................"
};
