/* XPM */
static char *cvdl54[] = {
/* columns rows colors chars-per-pixel */
"54 54 3 1",
"  c black s dark_piece",
". c gray s light_square",
"X c white s light_piece",
/* pixels */
"......................................................",
"......................................................",
"..............................  ...... ...............",
"..............................  ....   ...............",
".............................    ..    ...............",
".............................    .     ...............",
"........................              ................",
"......................   XXX     XXX   ...............",
"....................   XXXX             ..............",
"...................  XXX                ..............",
"..................  XXX            XX    .............",
".................  XXX              XX   .............",
".................  XX                XX  .............",
"................  XXX                 X  .............",
"................  XX                      ............",
"................ XXX                      ............",
"...............  XX        XX              ...........",
"...............  XX         X               ..........",
"............... XX                          ..........",
"..............  XX           .               .........",
"..............  XX           ..              .........",
".............. XX            ....         XX  ........",
".............  XX             .....       XX  ........",
".............  XX             ......       X  ........",
".............  XX              ......   X     ........",
".............  XX              .......  XX   .........",
".............  X                .......     ..........",
"............. XX                 ....... .............",
"............  XX                  ....................",
"............  XX                   ...................",
"............  XX                   ...................",
"............  XX                    ..................",
"............  XX                    ..................",
"............  XX                     .................",
"............  XX                     .................",
"............                         .................",
"............                         .................",
".............  XXXXXXXXXXXXXXXXXXXX  .................",
"............   XXXXXXXXXXXXXXXXXXXX   ................",
"...........                            ...............",
"..........                              ..............",
".........                                .............",
"........   XXXXXXXXXXXXXXXXXXXXXXXXXXXX   ............",
"........   XXXXXXXXXXXXXXXXXXXXXXXXXXXX   ............",
"........                                  ............",
"........                                  ............",
"........                                  ............",
"........        .....        .....        ............",
"........        .....        .....        ............",
"........        .....        .....        ............",
"........        .....        .....        ............",
"......................................................",
"......................................................",
"......................................................"
};
