/* XPM */
static char *cvdl40[] = {
/* columns rows colors chars-per-pixel */
"40 40 3 1",
"  c black s dark_piece",
". c gray s light_square",
"X c white s light_piece",
/* pixels */
"........................................",
"........................................",
"...................... .... ............",
".....................   ..  ............",
".....................   .   ............",
"..................          ............",
"................  XXX   XX  ............",
"............... XX           ...........",
".............  XX        XX  ...........",
"............  XX           X  ..........",
"............ XX            X  ..........",
"...........  X                 .........",
"........... XX      X          .........",
"........... X                   ........",
".......... XX                   ........",
".......... XX        ..          .......",
".......... X         ....     XX .......",
".......... X          ....     X .......",
"......... XX           ....  X   .......",
"......... XX            ....    ........",
"......... XX             ...............",
"......... XX              ..............",
"......... XX               .............",
"......... XX               .............",
"......... XX                ............",
"......... XX                ............",
"......... XX                ............",
".........                  .............",
"..........  XXXXXXXXXXXXXX  ............",
".........                    ...........",
"........                      ..........",
"....... XXXXXXXXXXXXXXXXXXXXXX .........",
"......                          ........",
"......                          ........",
"......                          ........",
"......      ....      ....      ........",
"......      ....      ....      ........",
"......      ....      ....      ........",
"........................................",
"........................................"
};
