/* XPM */
static char *cvdl49[] = {
/* columns rows colors chars-per-pixel */
"49 49 3 1",
"  c black s dark_piece",
". c gray s light_square",
"X c white s light_piece",
/* pixels */
".................................................",
"...........................  ...... .............",
"...........................  ....   .............",
"..........................    ..    .............",
"..........................    .     .............",
".....................              ..............",
"...................   XXX     XXX   .............",
"..................  XX               ............",
".................  X                 ............",
"................  X             XX    ...........",
"...............  X               XX   ...........",
"............... XX                XX  ...........",
".............. XX                  X  ...........",
".............. XX                      ..........",
"............. XX                       ..........",
"............. XX                        .........",
"............  X          X               ........",
"............ XX                          ........",
"............ XX           .               .......",
"............ X            ..              .......",
"........... XX            ....         XX  ......",
"........... XX             .....       XX  ......",
"........... XX             ......       X  ......",
"........... X               ......   X     ......",
"........... X               .......       .......",
"...........XX                .......     ........",
".......... XX                 ....... ...........",
".......... XX                  ..................",
".......... XX                   .................",
".......... XX                   .................",
".......... XX                    ................",
".......... XX                    ................",
".......... XXX                    ...............",
"........... XXXXXXXXXXXXXXXXXXXXX ...............",
"...........                       ...............",
"...........                       ...............",
"........... XXXXXXXXXXXXXXXXXXXXX ...............",
"..........                         ..............",
".........                           .............",
"........                             ............",
"....... XXXXXXXXXXXXXXXXXXXXXXXXXXXXX ...........",
".......                               ...........",
".......                               ...........",
".......                               ...........",
".......       .....       .....       ...........",
".......       .....       .....       ...........",
".......       .....       .....       ...........",
".......       .....       .....       ...........",
"................................................."
};
