/* XPM */
static char *cvld58[] = {
/* columns rows colors chars-per-pixel */
"58 58 3 1",
"  c black s dark_piece",
". c green s dark_square",
"X c white s light_piece",
/* pixels */
"..........................................................",
"..........................................................",
"................................ ........ ................",
"...............................   .....   ................",
"..............................  X ....    ................",
".............................  XX  ..  X  ................",
"..........................     XXX    XX  ................",
"........................       XXX    XX  ................",
"......................    XXX XXXX XX  XX ................",
"....................    XXXXXXXXXXXXXXXXX  ...............",
"...................   XXXXXXXXXXXXXXXXXXXX  ..............",
"..................   XXXXXXXXXXXXXXXXXXXXX  ..............",
".................   XXXXXXXXXXXXXXXXXX XXXX  .............",
"................   XXXXXXXXXXXXXXXXXXX   XX  .............",
"................  XXXXXXXXXXXXXXXXXXXXX  XX  .............",
"...............   XXXXXXXXXXXXXXXXXXXXXX  XX .............",
"..............   XXXXXXXXXX XXXXXXXXXXXXXXXX  ............",
"..............   XXXXXXXXXX  XXXXXXXXXXXXXXX  ............",
".............   XXXXXXXXXXX  XXXXXXXXXXXXXXXX ............",
".............   XXXXXXXXXXX  XXXXXXXXXXXXXXXX  ...........",
".............   XXXXXXXXXXXX  XXXXXXXXXXXXXXXX ...........",
"............   XXXXXXXXXXXXX   XXXXXXXXXXXXXXX  ..........",
"............   XXXXXXXXXXXX  .  XXXXXXXXXXXXXXX  .........",
"............   XXXXXXXXXXXX  ..  XXXXXXXXXXXXXXX .........",
"...........    XXXXXXXXXXXX  ...   XXXXXXXXXXXXX  ........",
"...........   XXXXXXXXXXXXX  .....  XXXXXXXXXXXXX ........",
"...........   XXXXXXXXXXXXXX  .....   XXXXXXXX  X  .......",
"..........    XXXXXXXXXXXXXX  .......  XXXXXXX  X  .......",
"..........    XXXXXXXXXXXXXXX  .......  XXXXXXXXX  .......",
"..........   XXXXXXXXXXXXXXXXX  .......  XX  XXXX  .......",
"..........   XXXXXXXXXXXXXXXXXX  .......  XX  XXX  .......",
"..........   XXXXXXXXXXXXXXXXXXX  .......  X  XX  ........",
"..........   XXXXXXXXXXXXXXXXXXXX  .......       .........",
".........    XXXXXXXXXXXXXXXXXXXXX  ......................",
".........    XXXXXXXXXXXXXXXXXXXXX  ......................",
".........   XXXXXXXXXXXXXXXXXXXXXXX  .....................",
".........   XXXXXXXXXXXXXXXXXXXXXXXX  ....................",
".........   XXXXXXXXXXXXXXXXXXXXXXXXX  ...................",
".........   XXXXXXXXXXXXXXXXXXXXXXXXX  ...................",
".........   XXXXXXXXXXXXXXXXXXXXXXXXXX  ..................",
".........                               ..................",
"..........                              ..................",
".........   XXXXXXXXXXXXXXXXXXXXXXXXXXX  .................",
"........   XXXXXXXXXXXXXXXXXXXXXXXXXXXX   ................",
".......   XXXXXXXXXXXXXXXXXXXXXXXXXXXXXX   ...............",
"......                                      ..............",
"......                                      ..............",
"......  XXXXXXXXXXXXXXXXXXXXXXXXXXXXXXXXXX  ..............",
"......  XXXXXXXXXXXXXXXXXXXXXXXXXXXXXXXXXX  ..............",
"......  XXXXX         XXXXXX         XXXXX  ..............",
"......  XXXXX         XXXXXX         XXXXX  ..............",
"......  XXXXX  .....  XXXXXX  .....  XXXXX  ..............",
"......  XXXXX  .....  XXXXXX  .....  XXXXX  ..............",
"......         .....          .....         ..............",
"......         .....          .....         ..............",
"..........................................................",
"..........................................................",
".........................................................."
};
