/* XPM */
static char *cvld33[] = {
/* columns rows colors chars-per-pixel */
"33 33 3 1",
"  c black s dark_piece",
". c green s dark_square",
"X c white s light_piece",
/* pixels */
".................................",
".................. ... ..........",
"................. X .  ..........",
"..............    X  X ..........",
"............  XXX XXX X .........",
"...........  XXXXXXXX   .........",
"..........  XXXXXXXXX X  ........",
".........  XXXXXXXXXXX   ........",
"......... XXXXXX XXXXXXXX .......",
"........  XXXXXX XXXXXXXX .......",
"........ XXXXXXX XXXXXXXXX ......",
".......  XXXXXXX  XXXXXXXX ......",
".......  XXXXXXX .   XXXX   .....",
".......  XXXXXXX .... XXXX  .....",
"....... XXXXXXXXX .... X XX .....",
"......  XXXXXXXXXX ....    ......",
"......  XXXXXXXXXXX ...  ........",
"......  XXXXXXXXXXXX ............",
"......  XXXXXXXXXXXX ............",
"......  XXXXXXXXXXXXX ...........",
"......  XXXXXXXXXXXXX ...........",
"......  XXXXXXXXXXXXX ...........",
".......               ...........",
"...... XXXXXXXXXXXXXXX ..........",
"..... XXXXXXXXXXXXXXXXX .........",
"....                     ........",
".... XXXXXXXXXXXXXXXXXXX ........",
".... XXXXXXXXXXXXXXXXXXX ........",
".... XXX     XXX     XXX ........",
".... XXX ... XXX ... XXX ........",
"....     ...     ...     ........",
".................................",
"................................."
};
