/* XPM */
static char *cvld72[] = {
/* columns rows colors chars-per-pixel */
"72 72 3 1",
"  c black s dark_piece",
". c green s dark_square",
"X c white s light_piece",
/* pixels */
"........................................................................",
"........................................................................",
"........................................................................",
"........................................................................",
"........................................................................",
"........................................  ......... ....................",
".......................................    .......   ...................",
".......................................    .....     ...................",
"......................................      ...     ....................",
"......................................  XX   .   X  ....................",
"..................................      XXX     XX  ....................",
"...............................         XXX    XXX  ....................",
".............................      XXX  XXX     XX  ....................",
"...........................      XXXXX XXXXXXX   X   ...................",
"..........................     XXXXXXXXXXXXXXXXX XX   ..................",
".........................    XXXXXXXXXXXXXXXXXXXXXXX   .................",
"........................    XXXXXXXXXXXXXXXXXXXXXXXXX  .................",
".......................    XXXXXXXXXXXXXXXXXXXX    XX   ................",
"......................    XXXXXXXXXXXXXXXXXXXXXX    XX  ................",
".....................     XXXXXXXXXXXXXXXXXXXXXX    XX  ................",
".....................    XXXXXXXXXXXXXXXXXXXXXXXX   XX  ................",
"....................    XXXXXXXXXXX  XXXXXXXXXXXXXX XX   ...............",
"....................    XXXXXXXXXXX  XXXXXXXXXXXXXXXXXX  ...............",
"...................    XXXXXXXXXXXX  XXXXXXXXXXXXXXXXXX  ...............",
"...................    XXXXXXXXXXXX  XXXXXXXXXXXXXXXXXX   ..............",
"..................    XXXXXXXXXXXXX  XXXXXXXXXXXXXXXXXXX  ..............",
"..................    XXXXXXXXXXXXX   XXXXXXXXXXXXXXXXXX   .............",
"..................    XXXXXXXXXXXXXX   XXXXXXXXXXXXXXXXXX   ............",
".................    XXXXXXXXXXXXXXX   XXXXXXXXXXXXXXXXXXX   ...........",
".................    XXXXXXXXXXXXXXX    XXXXXXXXXXXXXXXXXXX  ...........",
".................    XXXXXXXXXXXXXXX      XXXXXXXXXXXXXXXXX   ..........",
"................    XXXXXXXXXXXXXXXX  ..    XXXXXXXXXXXXXXXX  ..........",
"................    XXXXXXXXXXXXXXXX  ....    XXXXXXXXXXX  X   .........",
"................    XXXXXXXXXXXXXXXX   .....    XXXXXXXXX   X  .........",
"................    XXXXXXXXXXXXXXXXX  .......   XXXXXXXX   X  .........",
"...............     XXXXXXXXXXXXXXXXX   .......   XXXXXXXX  X  .........",
"...............    XXXXXXXXXXXXXXXXXXX  ........   XX  XXXXXX  .........",
"...............    XXXXXXXXXXXXXXXXXXX   ........   X   XXXXX  .........",
"...............    XXXXXXXXXXXXXXXXXXXX   ........       XXX   .........",
"...............    XXXXXXXXXXXXXXXXXXXXX   ........  X        ..........",
"...............    XXXXXXXXXXXXXXXXXXXXXX   .......         ............",
"..............     XXXXXXXXXXXXXXXXXXXXXXX   .......   .................",
"..............     XXXXXXXXXXXXXXXXXXXXXXXX   ..........................",
"..............    XXXXXXXXXXXXXXXXXXXXXXXXXX   .........................",
"..............    XXXXXXXXXXXXXXXXXXXXXXXXXXX  .........................",
"..............    XXXXXXXXXXXXXXXXXXXXXXXXXXX   ........................",
"..............    XXXXXXXXXXXXXXXXXXXXXXXXXXXX   .......................",
"..............    XXXXXXXXXXXXXXXXXXXXXXXXXXXXX  .......................",
"..............    XXXXXXXXXXXXXXXXXXXXXXXXXXXXX   ......................",
"..............    XXXXXXXXXXXXXXXXXXXXXXXXXXXXXX  ......................",
"..............    XXXXXXXXXXXXXXXXXXXXXXXXXXXXXX  ......................",
"..............                                    ......................",
"..............                                    ......................",
".............   XXXXXXXXXXXXXXXXXXXXXXXXXXXXXXXX   .....................",
"...........    XXXXXXXXXXXXXXXXXXXXXXXXXXXXXXXXXX    ...................",
"..........   XXXXXXXXXXXXXXXXXXXXXXXXXXXXXXXXXXXXXX   ..................",
".........                                              .................",
".........                                              .................",
".........  XXXXXXXXXXXXXXXXXXXXXXXXXXXXXXXXXXXXXXXXXX  .................",
".........  XXXXXXXXXXXXXXXXXXXXXXXXXXXXXXXXXXXXXXXXXX  .................",
".........  XXXXXXXXXXXXXXXXXXXXXXXXXXXXXXXXXXXXXXXXXX  .................",
".........  XXXXXXX           XXXXXX           XXXXXXX  .................",
".........  XXXXXXX           XXXXXX           XXXXXXX  .................",
".........  XXXXXXX  .......  XXXXXX  .......  XXXXXXX  .................",
".........  XXXXXXX  .......  XXXXXX  .......  XXXXXXX  .................",
".........  XXXXXXX  .......  XXXXXX  .......  XXXXXXX  .................",
".........           .......          .......           .................",
".........           .......          .......           .................",
"........................................................................",
"........................................................................",
"........................................................................",
"........................................................................"
};
