/* XPM */
static char *cvld37[] = {
/* columns rows colors chars-per-pixel */
"37 37 3 1",
"  c black s dark_piece",
". c green s dark_square",
"X c white s light_piece",
/* pixels */
".....................................",
".....................................",
".................... .... ...........",
"...................  ...  ...........",
"................... X . X ...........",
"...............     X  XX ...........",
".............  XXXXXXXX   ...........",
"............  XXXXXXXXXXXX ..........",
"...........  XXXXXXXXXX  X ..........",
"........... XXXXXXXXXXXXX X .........",
"..........  XXXXXX XXXXXX X .........",
".........  XXXXXXX XXXXXXXXX ........",
".........  XXXXXXX XXXXXXXXX ........",
".........  XXXXXXX  XXXXXXXXX .......",
"........  XXXXXXXX .  XXXXXXX .......",
"........  XXXXXXXX ... XXXXXXX ......",
"........  XXXXXXXX .... XXXX   ......",
"........  XXXXXXXXX .... XXXX  ......",
"........ XXXXXXXXXXX .... X XX ......",
".......  XXXXXXXXXXX .....    .......",
".......  XXXXXXXXXXXX ...............",
".......  XXXXXXXXXXXXX ..............",
".......  XXXXXXXXXXXXXX .............",
".......  XXXXXXXXXXXXXXX ............",
".......  XXXXXXXXXXXXXXX ............",
"........                 ............",
"........ XXXXXXXXXXXXXXXX ...........",
"....... XXXXXXXXXXXXXXXXXX ..........",
".....                        ........",
"..... XXXXXXXXXXXXXXXXXXXXXX ........",
"..... XXXXXXXXXXXXXXXXXXXXXX ........",
"..... XXX      XXXX      XXX ........",
"..... XXX .... XXXX .... XXX ........",
"..... XXX .... XXXX .... XXX ........",
".....     ....      ....     ........",
".....................................",
"....................................."
};
