/* XPM */
static char *cvld45[] = {
/* columns rows colors chars-per-pixel */
"45 45 3 1",
"  c black s dark_piece",
". c green s dark_square",
"X c white s light_piece",
/* pixels */
".............................................",
".............................................",
"......................... ...... ............",
"........................ X ...   ............",
"........................ XX . XX ............",
".....................    XX  XXX ............",
"...................  XXX XX X XX ............",
".................  XXXXXXXXXXX XX ...........",
"................  XXXXXXXXXXXXXXX ...........",
"...............  XXXXXXXXXXXXX XXX ..........",
"..............  XXXXXXXXXXXXXX  XX ..........",
".............. XXXXXXXXXXXXXXXX  X ..........",
".............  XXXXXXX XXXXXXXXXXXX .........",
"............. XXXXXXXX XXXXXXXXXXXX .........",
"............  XXXXXXXX XXXXXXXXXXXX .........",
"............ XXXXXXXXX XXXXXXXXXXXXX ........",
"...........  XXXXXXXXXX XXXXXXXXXXXX ........",
"...........  XXXXXXXXXX  XXXXXXXXXXXX .......",
"........... XXXXXXXXXXX .  XXXXXXXXXXX ......",
"..........  XXXXXXXXXXX ...  XXXXXXX   ......",
"..........  XXXXXXXXXXXX .... XXXXXXX  ......",
"..........  XXXXXXXXXXXX ..... XXXXXXX ......",
"..........  XXXXXXXXXXXXX ..... XX XXX ......",
".......... XXXXXXXXXXXXXXX ..... X    .......",
".........  XXXXXXXXXXXXXXX ...... ...........",
".........  XXXXXXXXXXXXXXXX .................",
".........  XXXXXXXXXXXXXXXXX ................",
".........  XXXXXXXXXXXXXXXXXX ...............",
".........  XXXXXXXXXXXXXXXXXX ...............",
".........  XXXXXXXXXXXXXXXXXXX ..............",
".........  XXXXXXXXXXXXXXXXXXX ..............",
".........                      ..............",
"......... XXXXXXXXXXXXXXXXXXXXX .............",
"........ XXXXXXXXXXXXXXXXXXXXXXX ............",
"....... XXXXXXXXXXXXXXXXXXXXXXXXX ...........",
"......                             ..........",
"...... XXXXXXXXXXXXXXXXXXXXXXXXXXX ..........",
"...... XXXXXXXXXXXXXXXXXXXXXXXXXXX ..........",
"...... XXXXX       XXXX       XXXX ..........",
"...... XXXXX ..... XXXX ..... XXXX ..........",
"...... XXXXX ..... XXXX ..... XXXX ..........",
"......       .....      .....      ..........",
".............................................",
".............................................",
"............................................."
};
