/* XPM */
static char *cvld64[] = {
/* columns rows colors chars-per-pixel */
"64 64 3 1",
"  c black s dark_piece",
". c green s dark_square",
"X c white s light_piece",
/* pixels */
"................................................................",
"................................................................",
"................................................................",
".................................... ........ ..................",
"...................................   .....   ..................",
"..................................  X ....    ..................",
".................................  XX  ..  X  ..................",
"..............................     XXX    XX  ..................",
"............................       XXX    XX  ..................",
"..........................    XXX XXXX XX  XX ..................",
"........................    XXXXXXXXXXXXXXXXX  .................",
".......................   XXXXXXXXXXXXXXXXXXXX  ................",
"......................   XXXXXXXXXXXXXXXXXXXXX  ................",
".....................   XXXXXXXXXXXXXXXXXX XXXX  ...............",
"....................   XXXXXXXXXXXXXXXXXXX   XX  ...............",
"....................  XXXXXXXXXXXXXXXXXXXXX  XX  ...............",
"...................   XXXXXXXXXXXXXXXXXXXXXX  XX ...............",
"..................   XXXXXXXXXX XXXXXXXXXXXXXXXX  ..............",
"..................   XXXXXXXXXX  XXXXXXXXXXXXXXX  ..............",
".................   XXXXXXXXXXX  XXXXXXXXXXXXXXXX ..............",
".................   XXXXXXXXXXX  XXXXXXXXXXXXXXXX  .............",
".................   XXXXXXXXXXXX  XXXXXXXXXXXXXXXX .............",
"................   XXXXXXXXXXXXX   XXXXXXXXXXXXXXX  ............",
"................   XXXXXXXXXXXX  .  XXXXXXXXXXXXXXX  ...........",
"................   XXXXXXXXXXXX  ..  XXXXXXXXXXXXXXX ...........",
"...............    XXXXXXXXXXXX  ...   XXXXXXXXXXXXX  ..........",
"...............    XXXXXXXXXXXX  .....  XXXXXXXXXXXXX ..........",
"...............   XXXXXXXXXXXXX  ......   XXXXXXXX  X  .........",
"...............   XXXXXXXXXXXXXX  .......  XXXXXXX  X  .........",
"..............    XXXXXXXXXXXXXX  ........  XXXXXXXXX  .........",
"..............    XXXXXXXXXXXXXXX  ........  XX  XXXX  .........",
"..............   XXXXXXXXXXXXXXXXX  ........  XX  XXX  .........",
"..............   XXXXXXXXXXXXXXXXXX  ........  X  XX  ..........",
"..............   XXXXXXXXXXXXXXXXXXX  ........       ...........",
"..............   XXXXXXXXXXXXXXXXXXXX  .......  ................",
".............    XXXXXXXXXXXXXXXXXXXXX  ........................",
".............    XXXXXXXXXXXXXXXXXXXXX  ........................",
".............   XXXXXXXXXXXXXXXXXXXXXXX  .......................",
".............   XXXXXXXXXXXXXXXXXXXXXXXX  ......................",
".............   XXXXXXXXXXXXXXXXXXXXXXXXX  .....................",
".............   XXXXXXXXXXXXXXXXXXXXXXXXX  .....................",
".............   XXXXXXXXXXXXXXXXXXXXXXXXXX  ....................",
".............   XXXXXXXXXXXXXXXXXXXXXXXXXX  ....................",
".............                               ....................",
"..............                              ....................",
".............   XXXXXXXXXXXXXXXXXXXXXXXXXX   ...................",
"............   XXXXXXXXXXXXXXXXXXXXXXXXXXXX   ..................",
"...........   XXXXXXXXXXXXXXXXXXXXXXXXXXXXXX   .................",
"..........   XXXXXXXXXXXXXXXXXXXXXXXXXXXXXXXX   ................",
".........                                        ...............",
".........                                        ...............",
".........  XXXXXXXXXXXXXXXXXXXXXXXXXXXXXXXXXXXX  ...............",
".........  XXXXXXXXXXXXXXXXXXXXXXXXXXXXXXXXXXXX  ...............",
".........  XXXXXXXXXXXXXXXXXXXXXXXXXXXXXXXXXXXX  ...............",
".........  XXXXX          XXXXXX          XXXXX  ...............",
".........  XXXXX          XXXXXX          XXXXX  ...............",
".........  XXXXX  ......  XXXXXX  ......  XXXXX  ...............",
".........  XXXXX  ......  XXXXXX  ......  XXXXX  ...............",
".........  XXXXX  ......  XXXXXX  ......  XXXXX  ...............",
".........         ......          ......         ...............",
".........         ......          ......         ...............",
"................................................................",
"................................................................",
"................................................................"
};
