/* XPM */
static char *cvll40[] = {
/* columns rows colors chars-per-pixel */
"40 40 3 1",
"  c black s dark_piece",
". c gray s light_square",
"X c white s light_piece",
/* pixels */
"........................................",
"........................................",
"........................................",
"...................... .... ............",
".....................  ...  ............",
"..................... X . X ............",
".................     X  XX ............",
"...............  XXXXXXXX   ............",
"..............  XXXXXXXXXXXX ...........",
".............  XXXXXXXXXX  X ...........",
"............  XXXXXXXXXXXXX X ..........",
"............  XXXXXX XXXXXX X ..........",
"...........  XXXXXXX XXXXXXXXX .........",
"...........  XXXXXXX XXXXXXXXX .........",
"..........   XXXXXXX  XXXXXXXXX ........",
"..........  XXXXXXXX .  XXXXXXX ........",
"..........  XXXXXXXX ... XXXXXXX .......",
".........   XXXXXXXX .... XXXX   .......",
".........   XXXXXXXXX .... XXXX  .......",
".........  XXXXXXXXXXX .... X XX .......",
"........   XXXXXXXXXXX .....    ........",
"........   XXXXXXXXXXXX ................",
"........   XXXXXXXXXXXXX ...............",
"........   XXXXXXXXXXXXXX ..............",
"........   XXXXXXXXXXXXXX ..............",
"........   XXXXXXXXXXXXXXX .............",
"........   XXXXXXXXXXXXXXXX ............",
"........   XXXXXXXXXXXXXXXX ............",
".........                   ............",
"......... XXXXXXXXXXXXXXXXXX ...........",
"........ XXXXXXXXXXXXXXXXXXXX ..........",
"......                          ........",
"...... XXXXXXXXXXXXXXXXXXXXXXXX ........",
"...... XXXXXXXXXXXXXXXXXXXXXXXX ........",
"...... XXXX      XXXX      XXXX ........",
"...... XXXX .... XXXX .... XXXX ........",
"...... XXXX .... XXXX .... XXXX ........",
"......      ....      ....      ........",
"........................................",
"........................................"
};
