/* XPM */
static char *cvll49[] = {
/* columns rows colors chars-per-pixel */
"49 49 3 1",
"  c black s dark_piece",
". c gray s light_square",
"X c white s light_piece",
/* pixels */
".................................................",
"...........................  ...... .............",
"...........................  ....   .............",
".......................... XX .. XX .............",
".......................... XX   XXX .............",
".....................      XX X XX ..............",
"...................  XXXXXXXXXXX XX .............",
".................  XXXXXXXXXXXXXXXXX ............",
"................  XXXXXXXXXXXXXXXXXX ............",
"...............  XXXXXXXXXXXXXXX  XXX ...........",
"..............  XXXXXXXXXXXXXXXXX  XX ...........",
"..............  XXXXXXXXXXXXXXXXXX  X ...........",
".............  XXXXXXXXX XXXXXXXXXX X ...........",
".............  XXXXXXXXX XXXXXXXXXXXXX ..........",
"............  XXXXXXXXXX XXXXXXXXXXXXX ..........",
"............  XXXXXXXXXX XXXXXXXXXXXXXX .........",
"...........  XXXXXXXXXXXX XXXXXXXXXXXXXX ........",
"...........  XXXXXXXXXXXX XXXXXXXXXXXXXX ........",
"...........  XXXXXXXXXXXX   XXXXXXXXXXXXX .......",
"........... XXXXXXXXXXXXX .. XXXXXXXXXXXX .......",
"..........  XXXXXXXXXXXXX ...  XXXXXXXX  X ......",
"..........  XXXXXXXXXXXXX .....  XXXXXX  X ......",
"..........  XXXXXXXXXXXXXX ...... XXXXXX X ......",
"..........  XXXXXXXXXXXXXX ....... XX XXXX ......",
"..........  XXXXXXXXXXXXXXX ....... X XXX .......",
".......... XXXXXXXXXXXXXXXXX ....... .   ........",
".........  XXXXXXXXXXXXXXXXXX ....... ...........",
".........  XXXXXXXXXXXXXXXXXXX ..................",
".........  XXXXXXXXXXXXXXXXXXXX .................",
".........  XXXXXXXXXXXXXXXXXXXX .................",
".........  XXXXXXXXXXXXXXXXXXXXX ................",
".........  XXXXXXXXXXXXXXXXXXXXX ................",
".......... XXXXXXXXXXXXXXXXXXXXX ................",
"..........                       ................",
".......... XXXXXXXXXXXXXXXXXXXXX ................",
".......... XXXXXXXXXXXXXXXXXXXXX ................",
"..........                       ................",
"......... XXXXXXXXXXXXXXXXXXXXXXX ...............",
"........ XXXXXXXXXXXXXXXXXXXXXXXXX ..............",
"....... XXXXXXXXXXXXXXXXXXXXXXXXXXX .............",
"......                               ............",
"...... XXXXXXXXXXXXXXXXXXXXXXXXXXXXX ............",
"...... XXXXXXXXXXXXXXXXXXXXXXXXXXXXX ............",
"...... XXXXX       XXXXX       XXXXX ............",
"...... XXXXX ..... XXXXX ..... XXXXX ............",
"...... XXXXX ..... XXXXX ..... XXXXX ............",
"...... XXXXX ..... XXXXX ..... XXXXX ............",
"......       .....       .....       ............",
"................................................."
};
