/* XPM */
static char *cvll54[] = {
/* columns rows colors chars-per-pixel */
"54 54 3 1",
"  c black s dark_piece",
". c gray s light_square",
"X c white s light_piece",
/* pixels */
"..... ................................................",
"......................................................",
"......................................................",
".............................  ...... ................",
".............................  ....   ................",
"............................  X ..  X ................",
"............................ XX    XX ................",
"........................     XX   XX .................",
".....................      XXXXXX  X  ................",
"...................    XXXXXXXXXXXXXX  ...............",
"..................    XXXXXXXXXXXXXXX  ...............",
".................   XXXXXXXXXXXXXX  XX  ..............",
"................   XXXXXXXXXXXXXXXX  X  ..............",
"...............    XXXXXXXXXXXXXXXXX  X ..............",
"..............    XXXXXXXX XXXXXXXXXX X  .............",
"..............    XXXXXXX  XXXXXXXXXXXX  .............",
".............     XXXXXXX  XXXXXXXXXXXXX .............",
".............    XXXXXXXX  XXXXXXXXXXXXX  ............",
".............    XXXXXXXXX  XXXXXXXXXXXXX  ...........",
"............    XXXXXXXXXXX   XXXXXXXXXXXX ...........",
"............    XXXXXXXXXX     XXXXXXXXXXX  ..........",
"............    XXXXXXXXXX  ..   XXXXXXXXXX ..........",
"............   XXXXXXXXXXX  ...    XXXXXX    .........",
"...........    XXXXXXXXXXXX .....   XXXXX  X .........",
"...........    XXXXXXXXXXXX  ......  XX XX X .........",
"...........    XXXXXXXXXXXXX .......  X  XX  .........",
"...........    XXXXXXXXXXXXX  .......  X    ..........",
"...........    XXXXXXXXXXXXXX  .......     ...........",
"..........    XXXXXXXXXXXXXXXX  ....... ..............",
"..........    XXXXXXXXXXXXXXXXX  .....................",
"..........    XXXXXXXXXXXXXXXXXX  ....................",
"..........    XXXXXXXXXXXXXXXXXXX ....................",
"..........    XXXXXXXXXXXXXXXXXXX  ...................",
"..........    XXXXXXXXXXXXXXXXXXXX ...................",
"..........    XXXXXXXXXXXXXXXXXXXX  ..................",
"..........    XXXXXXXXXXXXXXXXXXXXX ..................",
"..........    XXXXXXXXXXXXXXXXXXXXX ..................",
"...........                         ..................",
"...........                          .................",
"..........   XXXXXXXXXXXXXXXXXXXXXX   ........ .......",
".........   XXXXXXXXXXXXXXXXXXXXXXXX   ...............",
"........   XXXXXXXXXXXXXXXXXXXXXXXXXX   ..............",
".......                                  .............",
".......                                  .............",
".......  XXXXXXXXXXXXXXXXXXXXXXXXXXXXXX  .............",
".......  XXXXXXXXXXXXXXXXXXXXXXXXXXXXXX  .............",
".......  XXXX         XXXX        XXXXX  .............",
".......  XXXX         XXXX        XXXXX  .............",
".......  XXXX  .....  XXXX  ....  XXXXX  .............",
".......  XXXX  .....  XXXX  ....  XXXXX  .............",
".......        .....        ....         .............",
".......        .....        ....         .............",
"......................................................",
"......................................................"
};
