/* XPM */
static char *dkdd72[] = {
/* columns rows colors chars-per-pixel */
"72 72 3 1",
"  c black s dark_piece",
". c green s dark_square",
"X c white s light_piece",
/* pixels */
"........................................................................",
"........................................................................",
"........................................................................",
"........................................................................",
"..................................    ..................................",
"................................        ................................",
"..............................            ..............................",
"............................                ............................",
"..........................                    ..........................",
"........................                        ........................",
"......................                            ......................",
"....................                                ....................",
"...................   XXXX   XXXXXXXXXXXXXX   XXXX   ...................",
".............        XXXXX   XXXXXXXXXXXXXX   XXXXX        .............",
".............           XX   XX          XX   XX           .............",
".............           XX   XX          XX   XX           .............",
".............           XX   XX          XX   XX           .............",
".............           XXXXXXX          XXXXXXX           .............",
".............           XXXXXXX          XXXXXXX           .............",
".............                                              .............",
".............                                              .............",
".............                                              .............",
".............                                              .............",
".............   XXXXXXXXXXXXXXXXXXXXXXXXXXXXXXXXXXXXXXXX   .............",
".............   XXXXXXXXXXXXXXXXXXXXXXXXXXXXXXXXXXXXXXXX   .............",
"..............                                            ..............",
"...............                                          ...............",
".................                                      .................",
"..................   XXXXXXXXXXXXXXXXXXXXXXXXXXXXXX   ..................",
"...................  XXXXXXXXXXXXXXXXXXXXXXXXXXXXXX  ...................",
"...................                                  ...................",
"...................                                  ...................",
"...................                                  ...................",
"...................                                  ...................",
"...................                                  ...................",
"...................                                  ...................",
"...................                                  ...................",
"...................                                  ...................",
"...................                                  ...................",
"...................                                  ...................",
"...................                                  ...................",
"...................                                  ...................",
"...................                                  ...................",
"...................                                  ...................",
"...................                                  ...................",
"...................                                  ...................",
"...................                                  ...................",
"...................  XXXXXXXXXXXXXXXXXXXXXXXXXXXXXX  ...................",
"..................   XXXXXXXXXXXXXXXXXXXXXXXXXXXXXX   ..................",
".................                                      .................",
"................                                        ................",
"...............                                          ...............",
"..............   XXXXXXXXXXXXXXXXXXXXXXXXXXXXXXXXXXXXXX   ..............",
"..............   XXXXXXXXXXXXXXXXXXXXXXXXXXXXXXXXXXXXXX   ..............",
"..............                                            ..............",
"..............                                            ..............",
"..............                                            ..............",
"..............                                            ..............",
"..............                                            ..............",
".........       XXXXXXXXXXXXXXXXXXXXXXXXXXXXXXXXXXXXXXXX       .........",
".........       XXXXXXXXXXXXXXXXXXXXXXXXXXXXXXXXXXXXXXXX       .........",
".........                                                      .........",
".........                                                      .........",
".........                                                      .........",
".........                                                      .........",
".........                                                      .........",
"........................................................................",
"........................................................................",
"........................................................................",
"........................................................................",
"........................................................................",
"........................................................................"
};
