/* XPM */
static char *dkdd33[] = {
/* columns rows colors chars-per-pixel */
"33 33 3 1",
"  c black s dark_piece",
". c green s dark_square",
"X c white s light_piece",
/* pixels */
".................................",
"................ ................",
"...............   ...............",
"..............     ..............",
".............       .............",
"............         ............",
"...........           ...........",
".......... X XXXXXXX X ..........",
"......     X X     X X     ......",
"......     XXX     XXX     ......",
"......                     ......",
"......                     ......",
"......  XXXXXXXXXXXXXXXXX  ......",
".......                   .......",
"........  XXXXXXXXXXXXX  ........",
".........               .........",
".........               .........",
".........               .........",
".........               .........",
".........               .........",
".........               .........",
"......... XXXXXXXXXXXXX .........",
"........                 ........",
"....... XXXXXXXXXXXXXXXXX .......",
".......                   .......",
".......                   .......",
".....   XXXXXXXXXXXXXXXXX   .....",
".....                       .....",
".....                       .....",
".................................",
".................................",
".................................",
"................................."
};
