/* XPM */
static char *dkdd49[] = {
/* columns rows colors chars-per-pixel */
"49 49 3 1",
"  c black s dark_piece",
". c green s dark_square",
"X c white s light_piece",
/* pixels */
".................................................",
".................................................",
"........................ ........................",
"......................     ......................",
"....................         ....................",
"...................           ...................",
".................               .................",
"...............                   ...............",
"..............                     ..............",
".........      XX   XXXXXXXXX   XX      .........",
".........       X   X       X   X       .........",
".........       X   X       X   X       .........",
".........       X   X       X   X       .........",
".........       XXXXX       XXXXX       .........",
".........                               .........",
".........                               .........",
".........  XXXXXXXXXXXXXXXXXXXXXXXXXXX  .........",
"..........                             ..........",
"...........                           ...........",
"............                         ............",
"............. XXXXXXXXXXXXXXXXXXXXX .............",
".............                       .............",
".............                       .............",
".............                       .............",
".............                       .............",
".............                       .............",
".............                       .............",
".............                       .............",
".............                       .............",
".............                       .............",
".............                       .............",
"............. XXXXXXXXXXXXXXXXXXXXX .............",
"............                         ............",
"............                          ...........",
"...........                           ...........",
"..........  XXXXXXXXXXXXXXXXXXXXXXXXX  ..........",
"..........                             ..........",
"..........                             ..........",
"..........                             ..........",
"..........                             ..........",
".......    XXXXXXXXXXXXXXXXXXXXXXXXXXX    .......",
".......                                   .......",
".......                                   .......",
".......                                   .......",
".......                                   .......",
".................................................",
".................................................",
".................................................",
"................................................."
};
