/* XPM */
static char *dkld72[] = {
/* columns rows colors chars-per-pixel */
"72 72 3 1",
"  c black s dark_piece",
". c green s dark_square",
"X c white s light_piece",
/* pixels */
"........................................................................",
"........................................................................",
"........................................................................",
"...................................  ...................................",
".................................      .................................",
"...............................    XX    ...............................",
".............................    XXXXXX    .............................",
"............................   XXXXXXXXXX   ............................",
"..........................   XXXXXXXXXXXXXX   ..........................",
"........................    XXXXXXXXXXXXXXXX    ........................",
"......................    XXXXXXXXXXXXXXXXXXXX    ......................",
"....................    XXXXXXXXXXXXXXXXXXXXXXXX    ....................",
"...................   XXXXXXXXXXXXXXXXXXXXXXXXXXXX   ...................",
".............           XXXXXXX          XXXXXXX           .............",
".............           XXXXXXX          XXXXXXX           .............",
".............  XXXXXXX  XXXXXXX  XXXXXX  XXXXXXX  XXXXXXX  .............",
".............  XXXXXXX  XXXXXXX  XXXXXX  XXXXXXX  XXXXXXX  .............",
".............  XXXXXXX  XXXXXXX  XXXXXX  XXXXXXX  XXXXXXX  .............",
".............  XXXXXXX           XXXXXX           XXXXXXX  .............",
".............  XXXXXXX           XXXXXX           XXXXXXX  .............",
".............  XXXXXXXXXXXXXXXXXXXXXXXXXXXXXXXXXXXXXXXXXX  .............",
".............  XXXXXXXXXXXXXXXXXXXXXXXXXXXXXXXXXXXXXXXXXX  .............",
".............  XXXXXXXXXXXXXXXXXXXXXXXXXXXXXXXXXXXXXXXXXX  .............",
".............                                              .............",
".............                                              .............",
"..............   XXXXXXXXXXXXXXXXXXXXXXXXXXXXXXXXXXXXXX   ..............",
"...............    XXXXXXXXXXXXXXXXXXXXXXXXXXXXXXXXXX    ...............",
".................   XXXXXXXXXXXXXXXXXXXXXXXXXXXXXXXX   .................",
"..................                                    ..................",
"...................                                  ...................",
"...................  XXXXXXXXXXXXXXXXXXXXXXXXXXXXXX  ...................",
"...................  XXXXXXXXXXXXXXXXXXXXXXXXXXXXXX  ...................",
"...................  XXXXXXXXXXXXXXXXXXXXXXXXXXXXXX  ...................",
"...................  XXXXXXXXXXXXXXXXXXXXXXXXXXXXXX  ...................",
"...................  XXXXXXXXXXXXXXXXXXXXXXXXXXXXXX  ...................",
"...................  XXXXXXXXXXXXXXXXXXXXXXXXXXXXXX  ...................",
"...................  XXXXXXXXXXXXXXXXXXXXXXXXXXXXXX  ...................",
"...................  XXXXXXXXXXXXXXXXXXXXXXXXXXXXXX  ...................",
"...................  XXXXXXXXXXXXXXXXXXXXXXXXXXXXXX  ...................",
"...................  XXXXXXXXXXXXXXXXXXXXXXXXXXXXXX  ...................",
"...................  XXXXXXXXXXXXXXXXXXXXXXXXXXXXXX  ...................",
"...................  XXXXXXXXXXXXXXXXXXXXXXXXXXXXXX  ...................",
"...................  XXXXXXXXXXXXXXXXXXXXXXXXXXXXXX  ...................",
"...................  XXXXXXXXXXXXXXXXXXXXXXXXXXXXXX  ...................",
"...................  XXXXXXXXXXXXXXXXXXXXXXXXXXXXXX  ...................",
"...................  XXXXXXXXXXXXXXXXXXXXXXXXXXXXXX  ...................",
"...................  XXXXXXXXXXXXXXXXXXXXXXXXXXXXXX  ...................",
"...................                                  ...................",
"..................                                    ..................",
".................   XXXXXXXXXXXXXXXXXXXXXXXXXXXXXXXX   .................",
"................   XXXXXXXXXXXXXXXXXXXXXXXXXXXXXXXXXX   ................",
"...............   XXXXXXXXXXXXXXXXXXXXXXXXXXXXXXXXXXXX   ...............",
"..............                                            ..............",
"..............                                            ..............",
"..............  XXXXXXXXXXXXXXXXXXXXXXXXXXXXXXXXXXXXXXXX  ..............",
"..............  XXXXXXXXXXXXXXXXXXXXXXXXXXXXXXXXXXXXXXXX  ..............",
"..............  XXXXXXXXXXXXXXXXXXXXXXXXXXXXXXXXXXXXXXXX  ..............",
"..............  XXXXXXXXXXXXXXXXXXXXXXXXXXXXXXXXXXXXXXXX  ..............",
"..............  XXXXXXXXXXXXXXXXXXXXXXXXXXXXXXXXXXXXXXXX  ..............",
".........                                                      .........",
".........                                                      .........",
".........  XXXXXXXXXXXXXXXXXXXXXXXXXXXXXXXXXXXXXXXXXXXXXXXXXX  .........",
".........  XXXXXXXXXXXXXXXXXXXXXXXXXXXXXXXXXXXXXXXXXXXXXXXXXX  .........",
".........  XXXXXXXXXXXXXXXXXXXXXXXXXXXXXXXXXXXXXXXXXXXXXXXXXX  .........",
".........                                                      .........",
".........                                                      .........",
"........................................................................",
"........................................................................",
"........................................................................",
"........................................................................",
"........................................................................",
"........................................................................"
};
