/* XPM */
static char *edd49[] = {
/* columns rows colors chars-per-pixel */
"49 49 3 1",
"  c black s dark_piece",
". c green s dark_square",
"X c white s light_piece",
/* pixels */
".................................................",
".................................................",
"..........................        ...............",
"....................                  ...........",
"..................   XX                  ........",
".................   X                     .......",
"................   X                      .......",
"................  X                      X    ...",
"................  X                   XXX     ...",
"................  X                 XX        ...",
"................  X                 X          ..",
"................  X                            ..",
"................  X                            ..",
"................  X                            ..",
"................  X                            ..",
"................                               ..",
"................                               ..",
"................                               ..",
"...............                               ...",
"...............        XX                     ...",
"..............         XX                     ...",
".............. XXX                            ...",
".....   ......                                ...",
"....     .....                       .       ....",
"....     ..... XXX                   ..      ....",
"....    ......                      ...      ....",
"....    ......                    .....      ....",
"...    ........ XX  X            .......     ....",
"...    .......     X           .........     ....",
"...    ...... X    X  X      ...........     ....",
"...    ...... X     XX    ...............    ....",
"...    ..... XX    X     ................    ....",
"...    ..... XX    XX   ..................   ....",
"...    .... XX X  XX   ...................   ....",
"...    ... XX XX XXX   ....................  ....",
"...     . XX XXX XX    ..........................",
"....     XX XXX XX     ..........................",
"....     X XXX XX      ..........................",
"... X     XX  XX       ..........................",
".         X XXX X      ..........................",
"......   X XX  XX      ..........................",
"...... XXXXX XXX       ..........................",
".......               ...........................",
"........             ............................",
".........           .............................",
"...........        ..............................",
".............    ................................",
".................................................",
"................................................."
};
