/* XPM */
static char *edd72[] = {
/* columns rows colors chars-per-pixel */
"72 72 3 1",
"  c black s dark_piece",
". c green s dark_square",
"X c white s light_piece",
/* pixels */
"........................................................................",
"........................................................................",
"......................................            ......................",
"..............................                       ...................",
"...........................                             ................",
"..........................    XX                          ..............",
".........................    XX                              ...........",
"........................    XXX                               ..........",
".......................    XXX                                 .........",
"......................     XX                                      .....",
"......................    XXX                              XXXXX    ....",
"......................    XX                              XXXXXX     ...",
"......................    XX                           XXXXX         ...",
"......................    XX                         XXXXX           ...",
"......................    XX                         XXX             ...",
"......................    XX                                          ..",
"......................    XX                                          ..",
"......................    XX                                          ..",
"......................    XX                                          ..",
"......................    XX                                          ..",
"......................    XX                                          ..",
"......................    XX                                          ..",
"......................                                                ..",
"......................                                                ..",
"......................                                                ..",
"......................                                                ..",
".....................                                                 ..",
"....................             XXX                                 ...",
"....................             XXX                                 ...",
"....................             XXX                   XX            ...",
"....................                                   XXX           ...",
"....................  XXXX                              XX           ...",
"....................  XXXX                              XX          ....",
".....   ............                                    X           ....",
".....     ..........                                                ....",
"....       .........  XXXX                              .           ....",
"....        ........  XXXX                             ..           ....",
"....       .........                                  ...           ....",
"...       ..........                                 .....          ....",
"...      ...........  XXX                          .......         .....",
"...      ...........  XXX                        .........         .....",
"...      ............                           ...........        .....",
"...      ...........        XX                .............        .....",
"..       ..........        XX              ................        .....",
"..       .........  X     XX             ...................       .....",
"..       ......... XX      XXX   XX     ....................       .....",
"..       ........  XX        XX XX    ......................       .....",
"..       ........ XXXX     X  XXX   .........................      .....",
"..       .......  XXX      XX  X   ...........................     .....",
"..       ......  XXX  X   XXXX     ............................    .....",
"..       .....  XXX  XX   XXX     ..............................   .....",
"..       ....  XXX  XXX  XXX      ............................... ......",
"..        ..  XXX  XXX  XXX       ......................................",
"..        .  XXX  XXX  XXX       .......................................",
"...         XXX  XXX  XXX        .......................................",
"...        XXX  XXX  XXX         .......................................",
"...        XX  XXX  XXX          .......................................",
"...           XXX  XXX           .......................................",
"....          XX  XXX            .......................................",
"...              XXX  X          .......................................",
".              XXX   XX          .......................................",
"......     XXXXX   XXX           .......................................",
".......  XXX                    ........................................",
".....                           ........................................",
".........                      .........................................",
"..........                     .........................................",
"...........                   ..........................................",
"............                 ...........................................",
".............               ............................................",
"...............           ..............................................",
"........................................................................",
"........................................................................"
};
