/* XPM */
static char *edl33[] = {
/* columns rows colors chars-per-pixel */
"33 33 3 1",
"  c black s dark_piece",
". c gray s light_square",
"X c white s light_piece",
/* pixels */
".................................",
"................      ...........",
".............            ........",
"............ X             ......",
"...........  X              .....",
"..........  X                 ...",
"..........  X            XXX   ..",
"..........  X           X       .",
"..........  X                   .",
"..........  X                   .",
"..........  X                   .",
"..........                      .",
"..........                     ..",
".........      XX       X      ..",
"......... XX            X      ..",
"..    ...               X      ..",
"..    ... XX                  ...",
"..   ....               .     ...",
".   ..... XX X         ...    ...",
".   .....    X  X   .......   ...",
".   .... X     X   ........   ...",
".   .... X   XX  ..........   ...",
".   ... XX   XX ............  ...",
".   .  XX   XX  ............ ....",
".    XXX X XX   .................",
".     X   XX    .................",
"       XXXX     .................",
"..  XXXX       ..................",
".       XX     ..................",
"....           ..................",
".....         ...................",
"......       ....................",
"........   ......................"
};
