/* XPM */
static char *eld72[] = {
/* columns rows colors chars-per-pixel */
"72 72 3 1",
"  c black s dark_piece",
". c green s dark_square",
"X c white s light_piece",
/* pixels */
"........................................................................",
"........................................................................",
"......................................            ......................",
"..............................                       ...................",
"...........................             XXXXXXXX        ................",
"..........................      XXXXXXXXXXXXXXXXXXXX      ..............",
".........................   X  XXXXXXXXXXXXXXXXXXXXXXXX      ...........",
"........................   X   XXXXXXXXXXXXXXXXXXXXXXXXXX     ..........",
".......................   X   XXXXXXXXXXXXXXXXXXXXXXXXXXXXXX   .........",
"......................   XX  XXXXXXXXXXXXXXXXXXXXXXXXXXXXXXXX      .....",
"......................  XX   XXXXXXXXXXXXXXXXXXXXXXXXXXXXXX         ....",
"......................  XX  XXXXXXXXXXXXXXXXXXXXXXXXXXXXXX      XX   ...",
"......................  XX  XXXXXXXXXXXXXXXXXXXXXXXXXXX     XXXXXXX  ...",
"......................  XX  XXXXXXXXXXXXXXXXXXXXXXXXX     XXXXXXXXX  ...",
"......................  XX  XXXXXXXXXXXXXXXXXXXXXXXXX   XXXXXXXXXXX  ...",
"......................  XX  XXXXXXXXXXXXXXXXXXXXXXXXXXXXXXXXXXXXXXX   ..",
"......................  XX  XXXXXXXXXXXXXXXXXXXXXXXXXXXXXXXXXXXXXXX   ..",
"......................  XX  XXXXXXXXXXXXXXXXXXXXXXXXXXXXXXXXXXXXXXXX  ..",
"......................  XX  XXXXXXXXXXXXXXXXXXXXXXXXXXXXXXXXXXXXXXXX  ..",
"......................  XX  XXXXXXXXXXXXXXXXXXXXXXXXXXXXXXXXXXXXXXXX  ..",
"......................  XX  XXXXXXXXXXXXXXXXXXXXXXXXXXXXXXXXXXXXXXXX  ..",
"......................  XX  XXXXXXXXXXXXXXXXXXXXXXXXXXXXXXXXXXXXXXXX  ..",
"......................  XXXXXXXXXXXXXXXXXXXXXXXXXXXXXXXXXXXXXXXXXXXX  ..",
"......................  XXXXXXXXXXXXXXXXXXXXXXXXXXXXXXXXXXXXXXXXXXXX  ..",
"......................  XXXXXXXXXXXXXXXXXXXXXXXXXXXXXXXXXXXXXXXXXXXX  ..",
"......................  XXXXXXXXXXXXXXXXXXXXXXXXXXXXXXXXXXXXXXXXXXX   ..",
".....................   XXXXXXXXXXXXXXXXXXXXXXXXXXXXXXXXXXXXXXXXXXX   ..",
"....................   XXXXXXXXXX   XXXXXXXXXXXXXXXXXXXXXXXXXXXXXXX  ...",
"....................  XXXXXXXXXXX   XXXXXXXXXXXXXXXXXXXXXXXXXXXXXXX  ...",
"....................  XXXXXXXXXXX   XXXXXXXXXXXXXXXXXXX  XXXXXXXXX   ...",
"....................  XXXXXXXXXXXXXXXXXXXXXXXXXXXXXXXXX   XXXXXXXX   ...",
"....................      XXXXXXXXXXXXXXXXXXXXXXXXXXXXXX  XXXXXXXX   ...",
"....................      XXXXXXXXXXXXXXXXXXXXXXXXXXXXXX  XXXXXXXX  ....",
".....   ............  XXXXXXXXXXXXXXXXXXXXXXXXXXXXXXXXXX  XXXXXXXX  ....",
".....     ..........  XXXXXXXXXXXXXXXXXXXXXXXXXXXXXXXXX    XXXXXXX  ....",
"....  XX   .........      XXXXXXXXXXXXXXXXXXXXXXXXXXX   .  XXXXXXX  ....",
"....  XXX   ........      XXXXXXXXXXXXXXXXXXXXXXXXXX   ..  XXXXXXX  ....",
"....  XX   .........  XXXXXXXXXXXXXXXXXXXXXXXXXXXX    ...  XXXXXXX  ....",
"...   XX  ..........  XXXXXXXXXXXXXXXXXXXXXXXXXX     .....  XXXXX   ....",
"...  XX  ...........     XXXXXXXXXXXXXXXXXXXXXX    .......  XXXXX  .....",
"...  XX  ...........     XXXXXXXXXXXXXXXXXXXX    .........  XXXXX  .....",
"...  XX  ............  XXXXX XXXXXXXXXXXXX      ...........  XXXX  .....",
"...  XX  ...........   XXXX  XXXXXXXXXXX      .............  XXXX  .....",
"..   XX  ..........    XXXX  XXXXXXXXXX    ................  XXXX  .....",
"..  XXX  .........  X  XXX  XXXX  XXX    ...................  XXX  .....",
"..  XXX  ......... XX   XX    X  XX     ....................  XXX  .....",
"..  XXX  ........  XX   XX       X    ......................   XX  .....",
"..  XXX  ........ XXXX  XX XX   XX  .........................   X  .....",
"..  XXX  .......  XXX   X  XXX XX  ...........................     .....",
"..  XXX  ......  XXX  .   XXX  X   ............................    .....",
"..  XXX  .....  XXX  ..   XXX XX  ..............................   .....",
"..  XXX  ....  XXX  ...  XXX  XX  ............................... ......",
"..  XXX   ..  XXX  ...  XXX  XXX  ......................................",
"..   XXX  .  XXX  ...  XXX  XXX  .......................................",
"...  XXX    XXX  ...  XXX  XXXX  .......................................",
"...  XXX   XXX  ...  XXX  XXXXX  .......................................",
"...  XXXX  XX  ...  XXX   XXXXX  .......................................",
"...   XXXX    ...  XXX    XXXXX  .......................................",
"....  XXXXX   ..  XXX    XXXXXX  .......................................",
"...    XXXXX     XXX  .  XXXXXX  .......................................",
".       XX     XXX   ..  XXXXXX  .......................................",
"......     XXXXX   ...   XXXXX   .......................................",
".......  XXX            XXXXXX  ........................................",
".....        XXXX      XXXXXX   ........................................",
".........   XXXXXXXXXXXXXXXXX  .........................................",
"..........   XXXXXXXXXXXXXXX   .........................................",
"...........   XXXXXXXXXXXXX   ..........................................",
"............     XXXXXXXX    ...........................................",
".............               ............................................",
"...............           ..............................................",
"........................................................................",
"........................................................................"
};
