/* XPM */
static char *ell33[] = {
/* columns rows colors chars-per-pixel */
"33 33 3 1",
"  c black s dark_piece",
". c gray s light_square",
"X c white s light_piece",
/* pixels */
".................................",
"................      ...........",
".............   XXXXXX   ........",
"............   XXXXXXXXXX  ......",
"........... X XXXXXXXXXXXXX .....",
".......... X XXXXXXXXXXXXXXX  ...",
".......... X XXXXXXXXXXXX   XX ..",
".......... X XXXXXXXXXXX XXXXXX .",
".......... X XXXXXXXXXXXXXXXXXX .",
".......... X XXXXXXXXXXXXXXXXXX .",
".......... X XXXXXXXXXXXXXXXXXX .",
".......... XXXXXXXXXXXXXXXXXXXX .",
".......... XXXXXXXXXXXXXXXXXXX ..",
"......... XXXXX  XXXXXXX XXXXX ..",
".........   XXXXXXXXXXXX XXXXX ..",
"..    ... XXXXXXXXXXXXXX XXXXX ..",
".. XX ...   XXXXXXXXXXXX XXXX ...",
".. X .... XXXXXXXXXXXXX . XXX ...",
". X .....   X XXXXXX   ... XX ...",
". X .....  XX XXXXX ....... X ...",
". X .... X XX   X  ........ X ...",
". X .... X X XX  .......... X ...",
". X ... XX X XX ............  ...",
". X .  XX   XX  ............ ....",
". XX XXX . XX X .................",
". XXX X   XX XX .................",
"   X   XXXX XXX .................",
"..  XXXX   XXX ..................",
".       .. XXX ..................",
".... XXX  XXXX ..................",
"..... XXXXXXX ...................",
"......  XXX  ....................",
"........   ......................"
};
