/* XPM */
static char *ell49[] = {
/* columns rows colors chars-per-pixel */
"49 49 3 1",
"  c black s dark_piece",
". c gray s light_square",
"X c white s light_piece",
/* pixels */
".................................................",
".................................................",
"..........................        ...............",
"....................      XXXXXXXX    ...........",
"..................  X  XXXXXXXXXXXXXXX   ........",
"................. XX XXXXXXXXXXXXXXXXXXXX .......",
"................ XX XXXXXXXXXXXXXXXXXXXXX .......",
"................ X XXXXXXXXXXXXXXXXXXXXXX     ...",
"................ X XXXXXXXXXXXXXXXXXXX   XXXX ...",
"................ X XXXXXXXXXXXXXXXXX  XXXXXXX ...",
"................ X XXXXXXXXXXXXXXXXX XXXXXXXXX ..",
"................ X XXXXXXXXXXXXXXXXXXXXXXXXXXX ..",
"................ X XXXXXXXXXXXXXXXXXXXXXXXXXXX ..",
"................ X XXXXXXXXXXXXXXXXXXXXXXXXXXX ..",
"................ X XXXXXXXXXXXXXXXXXXXXXXXXXXX ..",
"................ XXXXXXXXXXXXXXXXXXXXXXXXXXXXX ..",
"................ XXXXXXXXXXXXXXXXXXXXXXXXXXXXX ..",
"................ XXXXXXXXXXXXXXXXXXXXXXXXXXXXX ..",
"............... XXXXXXXXXXXXXXXXXXXXXXXXXXXXX ...",
"............... XXXXXXX  XXXXXXXXXXXXXXXXXXXX ...",
".............. XXXXXXXX  XXXXXXXXXXXX XXXXXXX ...",
"..............    XXXXXXXXXXXXXXXXXXX XXXXXXX ...",
".....   ...... XXXXXXXXXXXXXXXXXXXXXX XXXXXXX ...",
"....  XX ..... XXXXXXXXXXXXXXXXXXXXX . XXXXX ....",
".... XXX .....    XXXXXXXXXXXXXXXXXX .. XXXX ....",
".... XX ...... XXXXXXXXXXXXXXXXXXX  ... XXXX ....",
".... X  ......  XXXXXXXXXXXXXXXXX ..... XXXX ....",
"... XX ........   XX XXXXXXXXXX  ....... XXX ....",
"... XX .......  XXX XXXXXXXXX  ......... XXX ....",
"... XX ...... X XXX XX XXX   ........... XXX ....",
"... XX ...... X XXX    XX ............... XX ....",
"... XX ..... XX XX XX  X ................ XX ....",
"... XX ..... XX  X XX X .................. X ....",
"... XX .... XX .  XX X ...................   ....",
"... XX ... XX .. XXX X ....................  ....",
"... XXX . XX ... XX XX ..........................",
".... XX  XX ... XX XXX ..........................",
".... XXX X ... XX XXXX ..........................",
"...  XXX  ..  XX  XXXX ..........................",
".     XXX . XXX . XXXX ..........................",
"...... X   XX  .. XXXX ..........................",
"......       ... XXXXX ..........................",
"....... XXXXX   XXXXX ...........................",
"........ XXXXXXXXXXX ............................",
".........  XXXXXXXX .............................",
"...........  XXXX  ..............................",
".............    ................................",
".................................................",
"................................................."
};
