/* XPM */
static char *fdd49[] = {
/* columns rows colors chars-per-pixel */
"49 49 3 1",
"  c black s dark_piece",
". c green s dark_square",
"X c white s light_piece",
/* pixels */
".................................................",
".................................................",
".................................................",
".................................................",
".................................................",
".................................................",
".................................................",
"........................  .......................",
"......................      .....................",
".....................        ....................",
".....................        ....................",
"....................          ...................",
"....................          ...................",
".....................        ....................",
".....................        ....................",
"...................... XXXX .....................",
"......................  X   .....................",
".....................  X     ....................",
"....................   X      ...................",
"...................   X        ..................",
".................     X         .................",
"................     X           ................",
"..............      X              ..............",
".............      X                .............",
"...........       X                   ...........",
"..........      XXXXXXXXXXXXXXXXX      ..........",
"........  XXXXXX                 XXXXXX  ........",
".......  X                             X  .......",
"......                                     ......",
".....                                       .....",
".....                                       .....",
"......            XXXXXXXXXXXXX            ......",
"......       XXXX               XXX        ......",
".......   XX                        XX    .......",
".......                                   .......",
".......                                   .......",
"......          XXXXXXXXXXXXXXXXX          ......",
"......    XXXXXX                 XXXXXX    ......",
"...... XXX                             XXX ......",
"..... X                                   X .....",
".....                                       .....",
"......                                     ......",
".......                                   .......",
"..........                             ..........",
"................                 ................",
".................................................",
".................................................",
".................................................",
"................................................."
};
