/* XPM */
static char *fdl33[] = {
/* columns rows colors chars-per-pixel */
"33 33 3 1",
"  c black s dark_piece",
". c gray s light_square",
"X c white s light_piece",
/* pixels */
".................................",
".................................",
"...............   ...............",
"..............     ..............",
".............       .............",
".............       .............",
".............       .............",
"..............     ..............",
".............. XXX ..............",
".............  X    .............",
"............   X     ............",
"...........   X       ...........",
"..........    X        ..........",
"........     X           ........",
"......    XXXXXXXXXXXXX    ......",
"....  XXXX             XXXX  ....",
"... XX                     XX ...",
".. X       XXXXXXXXXX        X ..",
".      XXX            XXX      ..",
"..   X                    X   ...",
"..                           ....",
"...       XXXXXXXXXXXXX      ....",
"...   XXXX             XXXX   ...",
"..  XX                    XXX ...",
".. X                         X ..",
"..                             ..",
"..                             ..",
"...                           ...",
"....                         ....",
"......                     ......",
"..........             ..........",
".................................",
"................................."
};
