/* XPM */
static char *fdl72[] = {
/* columns rows colors chars-per-pixel */
"72 72 3 1",
"  c black s dark_piece",
". c gray s light_square",
"X c white s light_piece",
/* pixels */
"........................................................................",
"........................................................................",
"........................................................................",
"........................................................................",
"........................................................................",
"........................................................................",
"........................................................................",
"........................................................................",
"........................................................................",
"........................................................................",
"........................................................................",
"........................................................................",
"........................................................................",
"........................................................................",
"........................................................................",
"........................................................................",
"........................................................................",
"..................................     .................................",
".................................       ................................",
"................................         ...............................",
"...............................           ..............................",
"...............................           ..............................",
"..............................             .............................",
"..............................             .............................",
"..............................             .............................",
"...............................           ..............................",
"...............................           ..............................",
"................................         ...............................",
"................................. XXXX  ................................",
"................................. XXXX .................................",
"................................        ................................",
"...............................          ...............................",
"..............................            ..............................",
".............................              .............................",
"............................                 ...........................",
"..........................                    ..........................",
"........................                        ........................",
".......................                           ......................",
".....................                              .....................",
"...................                                  ...................",
"..................        XXXXXXXXXXXXXXXXXXXX        ..................",
"................    XXXXXXXXXXXXXXXXXXXXXXXXXXXXXXXX    ................",
"..............    XXXXXXXX                    XXXXXXXX    ..............",
".............    XXX                                XXX     ............",
"...........                                                  ...........",
"..........                                                    ..........",
".........                                                      .........",
".........                   XXXXXXXXXXXXXXXXX                  .........",
".........                XXXXXXXXXXXXXXXXXXXXXXXXXX           ..........",
"..........         XXXXXXXXX                 XXXXXXXXXX       ..........",
"..........     XXXXXXXXXX                          XXXXXX    ...........",
"...........    XXXXX                                  XXX    ...........",
"...........                                                 ............",
"............                                                ............",
"...........               XXXXXXXXXXXXXXXXXXXX               ...........",
"...........         XXXXXXXXXXXXXXXXXXXXXXXXXXXXXXXX         ...........",
"..........      XXXXXXXXXX                    XXXXXXXXXX      ..........",
"..........   XXXXXXXXX                             XXXXXXXXX  ..........",
".........   XXXXX                                      XXXXX   .........",
".........  XXX                                            XXX  .........",
".........                                                      .........",
".........                                                      .........",
"..........                                                    ..........",
"...........                                                  ...........",
".............                                              .............",
"................                                        ................",
"....................                                ....................",
"..........................                    ..........................",
"........................................................................",
"........................................................................",
"........................................................................",
"........................................................................"
};
