/* XPM */
static char *fll33[] = {
/* columns rows colors chars-per-pixel */
"33 33 3 1",
"  c black s dark_piece",
". c gray s light_square",
"X c white s light_piece",
/* pixels */
".................................",
".................................",
"...............   ...............",
".............. XXX ..............",
"............. XXXXX .............",
"............. XXXXX .............",
"............. XXXXX .............",
".............. XXX ..............",
"..............     ..............",
"............. X XXX .............",
"............ XX XXXX ............",
"........... XX XXXXXX ...........",
".......... XXX XXXXXXX ..........",
"........  XXX XXXXXXXXX  ........",
"......  XX             XX  ......",
"....      XXXXXXXXXXXXX      ....",
"...   XXXXXXXXXXXXXXXXXXXXX   ...",
"... XXXXXXX          XXXXXXXX ...",
".  XXXX   XXXXXXXXXXXX   XXXXX ..",
".. XX XXXXXXXXXXXXXXXXXXXX XX ...",
".. XXXXXXXXXXXXXXXXXXXXXXXXX ....",
"... XXXXXX             XXXXX ....",
"... XX    XXXXXXXXXXXXX    XX ...",
".. X  XXXXXXXXXXXXXXXXXXXXX   ...",
"..  XXXXXXXXXXXXXXXXXXXXXXXXX  ..",
".. XXXXXXXXXXXXXXXXXXXXXXXXXXX ..",
".. XXXXXXXXXXXXXXXXXXXXXXXXXXX ..",
"... XXXXXXXXXXXXXXXXXXXXXXXXX ...",
"....  XXXXXXXXXXXXXXXXXXXXX  ....",
"......    XXXXXXXXXXXXX    ......",
"..........             ..........",
".................................",
"................................."
};
