/* XPM */
static char *fll49[] = {
/* columns rows colors chars-per-pixel */
"49 49 3 1",
"  c black s dark_piece",
". c gray s light_square",
"X c white s light_piece",
/* pixels */
".................................................",
".................................................",
".................................................",
".................................................",
".................................................",
".................................................",
".................................................",
"........................  .......................",
"......................  XX  .....................",
"..................... XXXXXX ....................",
"..................... XXXXXX ....................",
".................... XXXXXXXX ...................",
".................... XXXXXXXX ...................",
"..................... XXXXXX ....................",
"..................... XXXXXX ....................",
"......................      .....................",
"...................... X XX .....................",
"..................... X XXXX ....................",
".................... XX XXXXX ...................",
"................... XX XXXXXXX ..................",
".................  XXX XXXXXXXX .................",
"................ XXXX XXXXXXXXXX ................",
"..............  XXXX XXXXXXXXXXXX  ..............",
"............. XXXXX XXXXXXXXXXXXXXX .............",
"...........  XXXXX XXXXXXXXXXXXXXXXX  ...........",
".......... XXXXX                 XXXXX ..........",
"........        XXXXXXXXXXXXXXXXX        ........",
".......   XXXXXXXXXXXXXXXXXXXXXXXXXXXXX   .......",
"...... XXXXXXXXXXXXXXXXXXXXXXXXXXXXXXXXXXX ......",
"..... XXXXXXXXXXXXXXXXXXXXXXXXXXXXXXXXXXXXX .....",
"..... XXXXXXXXXXXXXXXXXXXXXXXXXXXXXXXXXXXXX .....",
"...... XXXXXXXXXXX             XXXXXXXXXXX ......",
"...... XXXXXX    XXXXXXXXXXXXXXX   XXXXXXX ......",
"....... XX  XXXXXXXXXXXXXXXXXXXXXXXX  XXX .......",
"....... XXXXXXXXXXXXXXXXXXXXXXXXXXXXXXXXX .......",
"....... XXXXXXXXXXXXXXXXXXXXXXXXXXXXXXXXX .......",
"...... XXXXXXXXX                 XXXXXXXXX ......",
"...... XXX      XXXXXXXXXXXXXXXXX      XXX ......",
"......    XXXXXXXXXXXXXXXXXXXXXXXXXXXXX    ......",
".....  XXXXXXXXXXXXXXXXXXXXXXXXXXXXXXXXXXX  .....",
"..... XXXXXXXXXXXXXXXXXXXXXXXXXXXXXXXXXXXXX .....",
"...... XXXXXXXXXXXXXXXXXXXXXXXXXXXXXXXXXXX ......",
".......   XXXXXXXXXXXXXXXXXXXXXXXXXXXXX   .......",
"..........      XXXXXXXXXXXXXXXXX      ..........",
"................                 ................",
".................................................",
".................................................",
".................................................",
"................................................."
};
