/* XPM */
static char *gdd49[] = {
/* columns rows colors chars-per-pixel */
"49 49 3 1",
"  c black s dark_piece",
". c green s dark_square",
"X c white s light_piece",
/* pixels */
".................................................",
".................................................",
".................................................",
".................................................",
".................    .......    .................",
"................      .....      ................",
"................      .....      ................",
"................      .....      ................",
".......    ......    .......    ......    .......",
"......      ....... ......... .......      ......",
"......      ....... ......... .......      ......",
"......      .......  .......  .......      ......",
".......    ........  .......  ........    .......",
"........  .........  .......  .........  ........",
".........  ........   .....   ........  .........",
"..........  .......   .....   .......  ..........",
"..........  .......   .....   .......  ..........",
"..........   .....     ...     .....   ..........",
"..........   .....     ...     .....   ..........",
"..........    ....     ...     ....    ..........",
"..........     ...      .      ...     ..........",
"...........    ...      .      ...    ...........",
"...........     ..      .      ..     ...........",
"...........     ..             ..     ...........",
"...........      .             .      ...........",
"...........                           ...........",
"............                         ............",
"............                         ............",
"............                         ............",
"............                         ............",
".............                       .............",
"..............                     ..............",
"..............       XXXXXXX       ..............",
"............... XXXXXX     XXXXXX ...............",
"...............                   ...............",
"................                 ................",
"................                 ................",
"................   XXXXXXXXXXX   ................",
"................ XXX         XXX ................",
"...............                   ...............",
"...............                   ...............",
"..............                     ..............",
".............                       .............",
".............                       .............",
"...............                   ...............",
".....................       .....................",
".................................................",
".................................................",
"................................................."
};
