/* XPM */
static char *gdd72[] = {
/* columns rows colors chars-per-pixel */
"72 72 3 1",
"  c black s dark_piece",
". c green s dark_square",
"X c white s light_piece",
/* pixels */
".....  .................................................................",
"........................................................................",
"........................................................................",
"........................................................................",
"........................................................................",
".........................   ...............   ..........................",
".......................       ...........       ........................",
"......................         .........         .......................",
"......................         .........         .......................",
"......................         .........         .......................",
"......................         .........         .......................",
".........   ..........         .........         ..........   ..........",
".......       .........       ...........       .........       ........",
"......         .........     .............     .........         .......",
"......         ...........   .............   ...........         .......",
"......         ...........   .............   ...........         .......",
"......         ...........    ............   ...........         .......",
"......         ...........    ...........    ...........         .......",
".......       ...........     ...........     ...........       ........",
"........      ...........      ..........     ...........      .........",
"...........   ...........      ..........     ...........   ............",
"...........    ..........      .........      ..........    ............",
"...........    ..........       ........      ..........    ............",
"...........     .........       ........      .........     ............",
"............     ........       .......       ........     .............",
"............     ........        ......       ........     .............",
"............      .......        ......       .......      .............",
"............      ......         .....         ......      .............",
"............       .....          ....         .....       .............",
"............       .....          ....         .....       .............",
".............       ....          ...          ....       ..............",
".............        ...          ...          ...        ..............",
".............        ...           .           ...        ..............",
".............         ..           .           ..         ..............",
".............         ..           .           ..         ..............",
".............          .                       .          ..............",
"..............         .                       .         ...............",
"..............                                           ...............",
"..............                                           ...............",
"..............                                           ...............",
"..............                                           ...............",
"..............                                           ...............",
"...............                                         ................",
"...............                                         ................",
"...............                                         ................",
"................                                       .................",
".................                                     ..................",
"..................            XXXXXXXXXXX            ...................",
"...................    XXXXXXXXXXXXXXXXXXXXXXXXX    ....................",
"....................  XXXXXXXXXX       XXXXXXXXXX  .....................",
"....................   X                       X   .....................",
".....................                             ......................",
".....................                             ......................",
".....................                             ......................",
".....................         XXXXXXXXXXX         ......................",
".....................   XXXXXXXXXXXXXXXXXXXXXXX   ......................",
"......................  XXXXXXXX       XXXXXXXX  .......................",
".....................                             ......................",
".....................                             ......................",
"....................                               .....................",
"...................                                 ....................",
"................... XX                              ....................",
"..................                                   ...................",
"..................                                   ...................",
"..................                                   ...................",
"..................                                   ...................",
"....................                               .....................",
".........................                     ..........................",
"................................       .................................",
"........................................................................",
"........................................................................",
"........................................................................"
};
