/* XPM */
static char *gdl33[] = {
/* columns rows colors chars-per-pixel */
"33 33 3 1",
"  c black s dark_piece",
". c gray s light_square",
"X c white s light_piece",
/* pixels */
".................................",
".................................",
".................................",
".................................",
"............  .....  ............",
"...........    ...    ...........",
".....  ....    ...    ....  .....",
"....    ....  .....  ....    ....",
"....    ..... ..... .....    ....",
".....  .....  .....  .....  .....",
"......  ....   ...   ....  ......",
"......  ....   ...   ....  ......",
".......  ...   ...   ...  .......",
".......   ..    .    ..   .......",
".......   ..    .    ..   .......",
".......    .    .    .    .......",
".......    .         .    .......",
"........                 ........",
"........                 ........",
"........                 ........",
"........                 ........",
".........    XXXXXXX    .........",
".........  XX       XX  .........",
"..........             ..........",
"..........   XXXXXXX   ..........",
"........... XX     XX ...........",
"..........             ..........",
"..........             ..........",
".........               .........",
".........               .........",
".............       .............",
".................................",
"................................."
};
