/* XPM */
static char *gld33[] = {
/* columns rows colors chars-per-pixel */
"33 33 3 1",
"  c black s dark_piece",
". c green s dark_square",
"X c white s light_piece",
/* pixels */
".................................",
".................................",
".................................",
".................................",
"...........  .....  .............",
".......... XX ... XX ............",
"....  .... XX ... XX ....  ......",
"... XX ....  .....  .... XX .....",
"... XX ..... ..... ..... XX .....",
"....  ...... ..... ......  ......",
".....  .... X ... X ....  .......",
".....  .... X ... X ....  .......",
"......  ... X ... X ...  ........",
"...... X .. XX . XX .. X ........",
"...... X .. XX . XX .. X ........",
"...... XX . XX . XX . XX ........",
"...... XX . XX   XX . XX ........",
"....... XX  X X X X  XX .........",
"....... X X  X   X  X X .........",
".......  X  XXXXXXXX X  .........",
"....... XXXXXXXXXXXXXXX .........",
"........ XXX       XXX ..........",
"........    XXXXXXX    ..........",
"......... XXXXXXXXXXX ...........",
"......... XX       XX ...........",
"..........  XXXXXXX  ............",
"......... XX       XX ...........",
"........    XXXXXXX    ..........",
"........ XXXXXXXXXXXXX ..........",
"........    XXXXXXX    ..........",
"............       ..............",
".................................",
"................................."
};
