/* XPM */
static char *gld72[] = {
/* columns rows colors chars-per-pixel */
"72 72 3 1",
"  c black s dark_piece",
". c green s dark_square",
"X c white s light_piece",
/* pixels */
"........................................................................",
"........................................................................",
"........................................................................",
"........................................................................",
"........................................................................",
".........................   ................   .........................",
".......................       ............       .......................",
"......................   XXX   ..........   XXX   ......................",
"......................  XXXXX  ..........  XXXXX  ......................",
"......................  XXXXX  ..........  XXXXX  ......................",
"......................  XXXXX  ..........  XXXXX  ......................",
".........   ..........   XXX   ..........    XX   ..........   .........",
".......       .........       ............       .........       .......",
"......   XXX   ..........   X..............    ..........   XXX   ......",
"......  XXXXX  ...........   ..............   ...........  XXXXX  ......",
"......  XXXXX  ...........   ..............   ...........  XXXXX  ......",
"......  XXXXX  ...........   ..............   ...........  XXXXX  ......",
"......   XXX   ...........    ............    ...........   XXX   ......",
".......       ............    ............    ............       .......",
".........     ............    ............    ............     .........",
"...........   ............  X  ..........  X  ............   ...........",
"...........    ...........  X  ..........  X  ...........    ...........",
"...........    ...........  X  ..........  X  ...........    ...........",
"...........     ..........  XX  .........  X  ..........     ...........",
"............     .........  XX  ........  XX  .........     ............",
"............  X  ........  XXX  ........  XXX  ........  X  ............",
"............  X   .......  XXXX  .......  XXX  .......   X  ............",
"............  XX  .......  XXXX  ......  XXXX  .......  XX  ............",
"............  XX   ......  XXXX  ......  XXXX  ......   XX  ............",
"............   XX  ......  XXXXX  .....  XXXX  ......  XX   ............",
".............  XX   .....  XXXXX  .....  XXXX  .....   XX  .............",
".............  XXX  .....  XXXXX  ....  XXXXX  .....  XXX  .............",
".............  XXX   ....  XXXXXX  ...  XXXXX  ....   XXX  .............",
".............  XXXX   ...  XXXXXX  ...  XXXXX  ...   XXXX  .............",
".............  XXXXX  ...  XXXXXX  ..  XXXXXX  ...  XXXXX  .............",
".............   XXXX   ..  XXXXXXX  .  XXXXXX  ..   XXXX   .............",
"..............  XXXXX  .   XXXXXXX     XXXXXX  ..  XXXXX  ..............",
"..............  XXXXX     XXXXXXXX    XXXXXXX      XXXXX  ..............",
"..............  XXXXXX    XXXX XXX    XXX XXXX    XXXXXX  ..............",
"..............  XXXXXX    XX                XX    XXXXXX  ..............",
"..............  XXXX XX   X   X          X   X   XX XXXX  ..............",
"..............   X           XXXXXXXXXXXXXX           X   ..............",
"...............     X      XXXXXXXXXXXXXXXXXX      X     ...............",
"...............   XXXXXXXXXXXXXXXXXXXXXXXXXXXXXXXXXXXX   ...............",
"...............   XXXXXXXXXXXXXXXXXXXXXXXXXXXXXXXXXXXX   ...............",
"................   XXXXXXXXXXXXXXXXXXXXXXXXXXXXXXXXXX   ................",
".................   XXXXXXXXXXXXXXXXXXXXXXXXXXXXXXXX   .................",
"..................   XXXXXXXXXX          XXXXXXXXXX   ..................",
"...................   XX                        XX   ...................",
"....................           XXXXXXXXXX           ....................",
"....................    XXXXXXXXXXXXXXXXXXXXXXXX    ....................",
".....................  XXXXXXXXXXXXXXXXXXXXXXXXXX  .....................",
".....................  XXXXXXXXXXXXXXXXXXXXXXXXXX  .....................",
".....................  XXXXXXXXXXXXXXXXXXXXXXXXXX  .....................",
".....................  XXXXXXXXX        XXXXXXXXX  .....................",
".....................                              .....................",
"......................          XXXXXXXX          ......................",
".....................   XXXXXXXXXXXXXXXXXXXXXXXX   .....................",
".....................  XXXXXXXXXX      XXXXXXXXXX  .....................",
"....................   XXXX                  XXXX   ....................",
"....................             XXXXXX             ....................",
"...................        XXXXXXXXXXXXXXXXXX        ...................",
"..................   XXXXXXXXXXXXXXXXXXXXXXXXXXXXXX   ..................",
"..................  XXXXXXXXXXXXXXXXXXXXXXXXXXXXXXXX  ..................",
"..................  XXXXXXXXXXXXXXXXXXXXXXXXXXXXXXXX  ..................",
"..................       XXXXXXXXXXXXXXXXXXXXXX       ..................",
"...................             XXXXXXXX             ...................",
".........................                      .........................",
"................................        ................................",
"........................................................................",
"........................................................................",
"........................................................................"
};
