/* XPM */
static char *rll129[] = {
/* columns rows colors chars-per-pixel */
"129 129 2 1",
"X c black s dark_piece",
". c white s light_piece",
/* pixels */
"...X...X...X...X...X...X...X...X...X...X...X...X...X...X...X...X...X...X...X...X...X...X...X...X...X...X...X...X...X...X...X...X.",
"..X...X...X...X...X...X...X...X...X...X...X...X...X...X...X...X...X...X...X...X...X...X...X...X...X...X...X...X...X...X...X...X..",
".X...X...X...X...X...X...X...X...X...X...X...X...X...X...X...X...X...X...X...X...X...X...X...X...X...X...X...X...X...X...X...X...",
"X...X...X...X...X...X...X...X...X...X...X...X...X...X...X...X...X...X...X...X...X...X...X...X...X...X...X...X...X...X...X...X...X",
"...X...X...X...X...X...X...X...X...X...X...X...X...X...X...X...X...X...X...X...X...X...X...X...X...X...X...X...X...X...X...X...X.",
"..X...X...X...X...X...X...X...X...X...X...X...X...X...X...X...X...X...X...X...X...X...X...X...X...X...X...X...X...X...X...X...X..",
".X...X...X...X...X...X...X...X...X...X...X...X...X...X...X...X...X...X...X...X...X...X...X...X...X...X...X...X...X...X...X...X...",
"X...X...X...X...X...X...X...X...X...X...X...X...X...X...X...X...X...X...X...X...X...X...X...X...X...X...X...X...X...X...X...X...X",
"...X...X...X...X...X...X...X...X...X...X...X...X...X...X...X...X...X...X...X...X...X...X...X...X...X...X...X...X...X...X...X...X.",
"..X...X...X...X...X...X...X...X...X...X...X...X...X...X...X...X...X...X...X...X...X...X...X...X...X...X...X...X...X...X...X...X..",
".X...X...X...X...X...X...X...X...X...X...X...X...X...X...X...X...X...X...X...X...X...X...X...X...X...X...X...X...X...X...X...X...",
"X...X...X...X...X...X...X...X...X...X...X...X...X...X...X...X...X...X...X...X...X...X...X...X...X...X...X...X...X...X...X...X...X",
"...X...X...X...X...X...X...X...X...X...X...X...X...X...X...X...X...X...X...X...X...X...X...X...X...X...X...X...X...X...X...X...X.",
"..X...X...X...X...X...X...X...X...X...X...X...X...X...X...X...X...X...X...X...X...X...X...X...X...X...X...X...X...X...X...X...X..",
".X...X...X...X...X...X...X...X...X...X...X...X...X...X...X...X...X...X...X...X...X...X...X...X...X...X...X...X...X...X...X...X...",
"X...X...X...X...X...X...X...X...X...X...X...X...X...X...X...X...X...X...X...X...X...X...X...X...X...X...X...X...X...X...X...X...X",
"...X...X...X...X...X...X...X...X...X...X...X...X...X...X...X...X...X...X...X...X...X...X...X...X...X...X...X...X...X...X...X...X.",
"..X...X...X...X...X...X...X...X...X...X...X...X...X...X...X...X...X...X...X...X...X...X...X...X...X...X...X...X...X...X...X...X..",
".X...X...X...X...X...X...X...X...X...X...X...X...X...X...X...X...X...X...X...X...X...X...X...X...X...X...X...X...X...X...X...X...",
"X...X...X...X...X...X...X...X...X...X...X...X...X...X...X...X...X...X...X...X...X...X...X...X...X...X...X...X...X...X...X...X...X",
"...X...X...X...X...X...X...X...X...X...X...X...X...X...X...X...X...X...X...X...X...X...X...X...X...X...X...X...X...X...X...X...X.",
"..X...X...X...X...X...X...X...X...X...X...X...X...X...X...X...X...X...X...X...X...X...X...X...X...X...X...X...X...X...X...X...X..",
".X...X...X...X...X...X...X...X...X...X...X...X...X...X...X...X...X...X...X...X...X...X...X...X...X...X...X...X...X...X...X...X...",
"X...X...X...X...X...X...X...X...X...X...X...X...X...X...X...X...X...X...X...X...X...X...X...X...X...X...X...X...X...X...X...X...X",
"...X...X...X...X...X...X...X...X...X...X...X...X...X...X...X...X...X...X...X...X...X...X...X...X...X...X...X...X...X...X...X...X.",
"..X...X...X...X...X...X...X...X...X...X...X...X...X...X...X...X...X...X...X...X...X...X...X...X...X...X...X...X...X...X...X...X..",
".X...X...X...X...X...X...X...X...X...X...X...X...X...X...X...X...X...X...X...X...X...X...X...X...X...X...X...X...X...X...X...X...",
"X...X...X...X...X...X...X...X...X...X...X...X...X...X...X...X...X...X...X...X...X...X...X...X...X...X...X...X...X...X...X...X...X",
"...X...X...X...X...X...X...X...X...X...X...X...X...X...X...X...X...X...X...X...X...X...X...X...X...X...X...X...X...X...X...X...X.",
"..X...X...X...X...X...X...X...X...X...X...X...X...X...X...X...X...X...X...X...X...X...X...X...X...X...X...X...X...X...X...X...X..",
".X...X...X...X...X...X...X...X...X...X...X...X...X...X...X...X...X...X...X...X...X...X...X...X...X...X...X...X...X...X...X...X...",
"X...X...X...X...X...X...X...X...X...X...X...X...X...X...X...X...X...X...X...X...X...X...X...X...X...X...X...X...X...X...X...X...X",
"...X...X...X...X...X...X...X...X...X...X...X...X...X...X...X...X...X...X...X...X...X...X...X...X...X...X...X...X...X...X...X...X.",
"..X...X...X...X...X...X...X...X...X...X...X...X...X...X...X...X...X...X...X...X...X...X...X...X...X...X...X...X...X...X...X...X..",
".X...X...X...X...X...X...X...X...X...X...X...X...X...X...X...X...X...X...X...X...X...X...X...X...X...X...X...X...X...X...X...X...",
"X...X...X...X...X...X...X...X...X...X...X...X...X...X...X...X...X...X...X...X...X...X...X...X...X...X...X...X...X...X...X...X...X",
"...X...X...X...X...X...X...X...X...X...X...X...X...X...X...X...X...X...X...X...X...X...X...X...X...X...X...X...X...X...X...X...X.",
"..X...X...X...X...X...X...X...X...X...X...X...X...X...X...X...X...X...X...X...X...X...X...X...X...X...X...X...X...X...X...X...X..",
".X...X...X...X...X...X...X...X...X...X...X...X...X...X...X...X...X...X...X...X...X...X...X...X...X...X...X...X...X...X...X...X...",
"X...X...X...X...X...X...X...X...X...X...X...X...X...X...X...X...X...X...X...X...X...X...X...X...X...X...X...X...X...X...X...X...X",
"...X...X...X...X...X...X...X...X...X...X...X...X...X...X...X...X...X...X...X...X...X...X...X...X...X...X...X...X...X...X...X...X.",
"..X...X...X...X...X...X...X...X...X...X...X...X...X...X...X...X...X...X...X...X...X...X...X...X...X...X...X...X...X...X...X...X..",
".X...X...X...X...X...X...X...X...X...X...X...X...X...X...X...X...X...X...X...X...X...X...X...X...X...X...X...X...X...X...X...X...",
"X...X...X...X...X...X...X...X...X...X...X...X...X...X...X...X...X...X...X...X...X...X...X...X...X...X...X...X...X...X...X...X...X",
"...X...X...X...X...X...X...X...X...X...X...X...X...X...X...X...X...X...X...X...X...X...X...X...X...X...X...X...X...X...X...X...X.",
"..X...X...X...X...X...X...X...X...X...X...X...X...X...X...X...X...X...X...X...X...X...X...X...X...X...X...X...X...X...X...X...X..",
".X...X...X...X...X...X...X...X...X...X...X...X...X...X...X...X...X...X...X...X...X...X...X...X...X...X...X...X...X...X...X...X...",
"X...X...X...X...X...X...X...X...X...X...X...X...X...X...X...X...X...X...X...X...X...X...X...X...X...X...X...X...X...X...X...X...X",
"...X...X...X...X...X...X...X...X...X...X...X...X...X...X...X...X...X...X...X...X...X...X...X...X...X...X...X...X...X...X...X...X.",
"..X...X...X...X...X...X...X...X...X...X...X...X...X...X...X...X...X...X...X...X...X...X...X...X...X...X...X...X...X...X...X...X..",
".X...X...X...X...X...X...X...X...X...X...X...X...X...X...X...X...X...X...X...X...X...X...X...X...X...X...X...X...X...X...X...X...",
"X...X...X...X...X...X...X...X...X...X...X...X...X...X...X...X...X...X...X...X...X...X...X...X...X...X...X...X...X...X...X...X...X",
"...X...X...X...X...X...X...X...X...X...X...X...X...X...X...X...X...X...X...X...X...X...X...X...X...X...X...X...X...X...X...X...X.",
"..X...X...X...X...X...X...X...X...X...X...X...X...X...X...X...X...X...X...X...X...X...X...X...X...X...X...X...X...X...X...X...X..",
".X...X...X...X...X...X...X...X...X...X...X...X...X...X...X...X...X...X...X...X...X...X...X...X...X...X...X...X...X...X...X...X...",
"X...X...X...X...X...X...X...X...X...X...X...X...X...X...X...X...X...X...X...X...X...X...X...X...X...X...X...X...X...X...X...X...X",
"...X...X...X...X...X...X...X...X...X...X...X...X...X...X...X...X...X...X...X...X...X...X...X...X...X...X...X...X...X...X...X...X.",
"..X...X...X...X...X...X...X...X...X...X...X...X...X...X...X...X...X...X...X...X...X...X...X...X...X...X...X...X...X...X...X...X..",
".X...X...X...X...X...X...X...X...X...X...X...X...X...X...X...X...X...X...X...X...X...X...X...X...X...X...X...X...X...X...X...X...",
"X...X...X...X...X...X...X...X...X...X...X...X...X...X...X...X...X...X...X...X...X...X...X...X...X...X...X...X...X...X...X...X...X",
"...X...X...X...X...X...X...X...X...X...X...X...X...X...X...X...X...X...X...X...X...X...X...X...X...X...X...X...X...X...X...X...X.",
"..X...X...X...X...X...X...X...X...X...X...X...X...X...X...X...X...X...X...X...X...X...X...X...X...X...X...X...X...X...X...X...X..",
".X...X...X...X...X...X...X...X...X...X...X...X...X...X...X...X...X...X...X...X...X...X...X...X...X...X...X...X...X...X...X...X...",
"X...X...X...X...X...X...X...X...X...X...X...X...X...X...X...X...X...X...X...X...X...X...X...X...X...X...X...X...X...X...X...X...X",
"...X...X...X...X...X...X...X...X...X...X...X...X...X...X...X...X...X...X...X...X...X...X...X...X...X...X...X...X...X...X...X...X.",
"..X...X...X...X...X...X...X...X...X...X...X...X...X...X...X...X...X...X...X...X...X...X...X...X...X...X...X...X...X...X...X...X..",
".X...X...X...X...X...X...X...X...X...X...X...X...X...X...X...X...X...X...X...X...X...X...X...X...X...X...X...X...X...X...X...X...",
"X...X...X...X...X...X...X...X...X...X...X...X...X...X...X...X...X...X...X...X...X...X...X...X...X...X...X...X...X...X...X...X...X",
"...X...X...X...X...X...X...X...X...X...X...X...X...X...X...X...X...X...X...X...X...X...X...X...X...X...X...X...X...X...X...X...X.",
"..X...X...X...X...X...X...X...X...X...X...X...X...X...X...X...X...X...X...X...X...X...X...X...X...X...X...X...X...X...X...X...X..",
".X...X...X...X...X...X...X...X...X...X...X...X...X...X...X...X...X...X...X...X...X...X...X...X...X...X...X...X...X...X...X...X...",
"X...X...X...X...X...X...X...X...X...X...X...X...X...X...X...X...X...X...X...X...X...X...X...X...X...X...X...X...X...X...X...X...X",
"...X...X...X...X...X...X...X...X...X...X...X...X...X...X...X...X...X...X...X...X...X...X...X...X...X...X...X...X...X...X...X...X.",
"..X...X...X...X...X...X...X...X...X...X...X...X...X...X...X...X...X...X...X...X...X...X...X...X...X...X...X...X...X...X...X...X..",
".X...X...X...X...X...X...X...X...X...X...X...X...X...X...X...X...X...X...X...X...X...X...X...X...X...X...X...X...X...X...X...X...",
"X...X...X...X...X...X...X...X...X...X...X...X...X...X...X...X...X...X...X...X...X...X...X...X...X...X...X...X...X...X...X...X...X",
"...X...X...X...X...X...X...X...X...X...X...X...X...X...X...X...X...X...X...X...X...X...X...X...X...X...X...X...X...X...X...X...X.",
"..X...X...X...X...X...X...X...X...X...X...X...X...X...X...X...X...X...X...X...X...X...X...X...X...X...X...X...X...X...X...X...X..",
".X...X...X...X...X...X...X...X...X...X...X...X...X...X...X...X...X...X...X...X...X...X...X...X...X...X...X...X...X...X...X...X...",
"X...X...X...X...X...X...X...X...X...X...X...X...X...X...X...X...X...X...X...X...X...X...X...X...X...X...X...X...X...X...X...X...X",
"...X...X...X...X...X...X...X...X...X...X...X...X...X...X...X...X...X...X...X...X...X...X...X...X...X...X...X...X...X...X...X...X.",
"..X...X...X...X...X...X...X...X...X...X...X...X...X...X...X...X...X...X...X...X...X...X...X...X...X...X...X...X...X...X...X...X..",
".X...X...X...X...X...X...X...X...X...X...X...X...X...X...X...X...X...X...X...X...X...X...X...X...X...X...X...X...X...X...X...X...",
"X...X...X...X...X...X...X...X...X...X...X...X...X...X...X...X...X...X...X...X...X...X...X...X...X...X...X...X...X...X...X...X...X",
"...X...X...X...X...X...X...X...X...X...X...X...X...X...X...X...X...X...X...X...X...X...X...X...X...X...X...X...X...X...X...X...X.",
"..X...X...X...X...X...X...X...X...X...X...X...X...X...X...X...X...X...X...X...X...X...X...X...X...X...X...X...X...X...X...X...X..",
".X...X...X...X...X...X...X...X...X...X...X...X...X...X...X...X...X...X...X...X...X...X...X...X...X...X...X...X...X...X...X...X...",
"X...X...X...X...X...X...X...X...X...X...X...X...X...X...X...X...X...X...X...X...X...X...X...X...X...X...X...X...X...X...X...X...X",
"...X...X...X...X...X...X...X...X...X...X...X...X...X...X...X...X...X...X...X...X...X...X...X...X...X...X...X...X...X...X...X...X.",
"..X...X...X...X...X...X...X...X...X...X...X...X...X...X...X...X...X...X...X...X...X...X...X...X...X...X...X...X...X...X...X...X..",
".X...X...X...X...X...X...X...X...X...X...X...X...X...X...X...X...X...X...X...X...X...X...X...X...X...X...X...X...X...X...X...X...",
"X...X...X...X...X...X...X...X...X...X...X...X...X...X...X...X...X...X...X...X...X...X...X...X...X...X...X...X...X...X...X...X...X",
"...X...X...X...X...X...X...X...X...X...X...X...X...X...X...X...X...X...X...X...X...X...X...X...X...X...X...X...X...X...X...X...X.",
"..X...X...X...X...X...X...X...X...X...X...X...X...X...X...X...X...X...X...X...X...X...X...X...X...X...X...X...X...X...X...X...X..",
".X...X...X...X...X...X...X...X...X...X...X...X...X...X...X...X...X...X...X...X...X...X...X...X...X...X...X...X...X...X...X...X...",
"X...X...X...X...X...X...X...X...X...X...X...X...X...X...X...X...X...X...X...X...X...X...X...X...X...X...X...X...X...X...X...X...X",
"...X...X...X...X...X...X...X...X...X...X...X...X...X...X...X...X...X...X...X...X...X...X...X...X...X...X...X...X...X...X...X...X.",
"..X...X...X...X...X...X...X...X...X...X...X...X...X...X...X...X...X...X...X...X...X...X...X...X...X...X...X...X...X...X...X...X..",
".X...X...X...X...X...X...X...X...X...X...X...X...X...X...X...X...X...X...X...X...X...X...X...X...X...X...X...X...X...X...X...X...",
"X...X...X...X...X...X...X...X...X...X...X...X...X...X...X...X...X...X...X...X...X...X...X...X...X...X...X...X...X...X...X...X...X",
"...X...X...X...X...X...X...X...X...X...X...X...X...X...X...X...X...X...X...X...X...X...X...X...X...X...X...X...X...X...X...X...X.",
"..X...X...X...X...X...X...X...X...X...X...X...X...X...X...X...X...X...X...X...X...X...X...X...X...X...X...X...X...X...X...X...X..",
".X...X...X...X...X...X...X...X...X...X...X...X...X...X...X...X...X...X...X...X...X...X...X...X...X...X...X...X...X...X...X...X...",
"X...X...X...X...X...X...X...X...X...X...X...X...X...X...X...X...X...X...X...X...X...X...X...X...X...X...X...X...X...X...X...X...X",
"...X...X...X...X...X...X...X...X...X...X...X...X...X...X...X...X...X...X...X...X...X...X...X...X...X...X...X...X...X...X...X...X.",
"..X...X...X...X...X...X...X...X...X...X...X...X...X...X...X...X...X...X...X...X...X...X...X...X...X...X...X...X...X...X...X...X..",
".X...X...X...X...X...X...X...X...X...X...X...X...X...X...X...X...X...X...X...X...X...X...X...X...X...X...X...X...X...X...X...X...",
"X...X...X...X...X...X...X...X...X...X...X...X...X...X...X...X...X...X...X...X...X...X...X...X...X...X...X...X...X...X...X...X...X",
"...X...X...X...X...X...X...X...X...X...X...X...X...X...X...X...X...X...X...X...X...X...X...X...X...X...X...X...X...X...X...X...X.",
"..X...X...X...X...X...X...X...X...X...X...X...X...X...X...X...X...X...X...X...X...X...X...X...X...X...X...X...X...X...X...X...X..",
".X...X...X...X...X...X...X...X...X...X...X...X...X...X...X...X...X...X...X...X...X...X...X...X...X...X...X...X...X...X...X...X...",
"X...X...X...X...X...X...X...X...X...X...X...X...X...X...X...X...X...X...X...X...X...X...X...X...X...X...X...X...X...X...X...X...X",
"...X...X...X...X...X...X...X...X...X...X...X...X...X...X...X...X...X...X...X...X...X...X...X...X...X...X...X...X...X...X...X...X.",
"..X...X...X...X...X...X...X...X...X...X...X...X...X...X...X...X...X...X...X...X...X...X...X...X...X...X...X...X...X...X...X...X..",
".X...X...X...X...X...X...X...X...X...X...X...X...X...X...X...X...X...X...X...X...X...X...X...X...X...X...X...X...X...X...X...X...",
"X...X...X...X...X...X...X...X...X...X...X...X...X...X...X...X...X...X...X...X...X...X...X...X...X...X...X...X...X...X...X...X...X",
"...X...X...X...X...X...X...X...X...X...X...X...X...X...X...X...X...X...X...X...X...X...X...X...X...X...X...X...X...X...X...X...X.",
"..X...X...X...X...X...X...X...X...X...X...X...X...X...X...X...X...X...X...X...X...X...X...X...X...X...X...X...X...X...X...X...X..",
".X...X...X...X...X...X...X...X...X...X...X...X...X...X...X...X...X...X...X...X...X...X...X...X...X...X...X...X...X...X...X...X...",
"X...X...X...X...X...X...X...X...X...X...X...X...X...X...X...X...X...X...X...X...X...X...X...X...X...X...X...X...X...X...X...X...X",
"...X...X...X...X...X...X...X...X...X...X...X...X...X...X...X...X...X...X...X...X...X...X...X...X...X...X...X...X...X...X...X...X.",
"..X...X...X...X...X...X...X...X...X...X...X...X...X...X...X...X...X...X...X...X...X...X...X...X...X...X...X...X...X...X...X...X..",
".X...X...X...X...X...X...X...X...X...X...X...X...X...X...X...X...X...X...X...X...X...X...X...X...X...X...X...X...X...X...X...X...",
"X...X...X...X...X...X...X...X...X...X...X...X...X...X...X...X...X...X...X...X...X...X...X...X...X...X...X...X...X...X...X...X...X",
"...X...X...X...X...X...X...X...X...X...X...X...X...X...X...X...X...X...X...X...X...X...X...X...X...X...X...X...X...X...X...X...X.",
"..X...X...X...X...X...X...X...X...X...X...X...X...X...X...X...X...X...X...X...X...X...X...X...X...X...X...X...X...X...X...X...X..",
".X...X...X...X...X...X...X...X...X...X...X...X...X...X...X...X...X...X...X...X...X...X...X...X...X...X...X...X...X...X...X...X...",
"X...X...X...X...X...X...X...X...X...X...X...X...X...X...X...X...X...X...X...X...X...X...X...X...X...X...X...X...X...X...X...X...X",
"...X...X...X...X...X...X...X...X...X...X...X...X...X...X...X...X...X...X...X...X...X...X...X...X...X...X...X...X...X...X...X...X."
};
