/* XPM */
static char *hdd49[] = {
/* columns rows colors chars-per-pixel */
"49 49 3 1",
"  c black s dark_piece",
". c green s dark_square",
"X c white s light_piece",
/* pixels */
".................................................",
".................................................",
".................................................",
".................................................",
"............ ........ ...........................",
"............   .....   ..........................",
"............    ....    .........................",
"............     ..     .........................",
"............       X   X    .....................",
".............   XX X   X XXX  ...................",
"............   X            XXX .................",
"........... XX                XXX ...............",
".......... XXXX                 XX ..............",
".......... XXXXXX                 X .............",
"......... XXXXX XX                 X ............",
"......... XXX  XXXX                 X ...........",
"......... XXX XXXXXX                XX...........",
"......... XX XXXXXX                  X ..........",
"........  XXXXXXXX                   XX .........",
"........   XXXXXX                     X .........",
"........     XXX                      XX ........",
".......       X           X            X ........",
".......                   X            XX........",
"......                                 XX .......",
".....                   .               X .......",
".....                  ...              XX.......",
"....                  ....              XX ......",
"....                ......               X ......",
"...   XX           .......               X ......",
"...   X          .......                 XX......",
"...             ........                 XX .....",
"...       X    ........                  XX .....",
"...      .    ........                   XX .....",
"....     .   ........                     X .....",
".....    .  ........                      X .....",
"..........  .......                       XX.....",
"..................                        XX ....",
"..................                        XX ....",
".................                         XX ....",
"................                          XX ....",
"...............                           XX ....",
"...............                           XX ....",
"..............                            XX ....",
"..............                            XX ....",
"..............                               ....",
"..............                               ....",
".................................................",
".................................................",
"................................................."
};
