/* XPM */
static char *hdd49[] = {
/* columns rows colors chars-per-pixel */
"49 49 3 1",
"  c black s dark_piece",
". c green s dark_square",
"X c white s light_piece",
/* pixels */
".................................................",
".................................................",
".................................................",
".................................................",
"............ ........ ...........................",
"............   .....   ..........................",
"............    ....    .........................",
"............     ..     .........................",
"............       X   X    .....................",
".............   XX X   X XXX  ...................",
"............   X            ... .................",
"........... XX                ... ...............",
".......... XXXX                 .. ..............",
".......... XXXXXX                 X .............",
"......... XXXXX XX                 X ............",
"......... XXX  XXXX                 . ...........",
"......... XXX XXXXXX                .............",
"......... XX XXXXXX                  . ..........",
"........  XXXXXXXX                   .. .........",
"........   XXXXXX                     . .........",
"........     XXX                      .. ........",
".......       X           X            . ........",
".......                   X            ..........",
"......                                 .. .......",
".....                   .               . .......",
".....                  ...              .........",
"....                  ....              .. ......",
"....                ......               . ......",
"...   XX           .......               . ......",
"...   X          .......                 ........",
"...             ........                 .. .....",
"...       X    ........                  .. .....",
"...      .    ........                   .. .....",
"....     .   ........                     . .....",
".....    .  ........                      . .....",
"..........  .......                       .......",
"..................                        .. ....",
"..................                        .. ....",
".................                         .. ....",
"................                          .. ....",
"...............                           .. ....",
"...............                           .. ....",
"..............                            .. ....",
"..............                            .. ....",
"..............                               ....",
"..............                               ....",
".................................................",
".................................................",
"................................................."
};
