/* XPM */
static char *hdd72[] = {
/* columns rows colors chars-per-pixel */
"72 72 3 1",
"  c black s dark_piece",
". c green s dark_square",
"X c white s light_piece",
/* pixels */
"........................................................................",
"........................................................................",
"........................................................................",
"........................................................................",
"................................ .......................................",
".................   ...........   ......................................",
"..................   .........    ......................................",
"..................     ......      .....................................",
"..................      .....      .....................................",
"..................       ...        ....................................",
"..................        ..        ....................................",
"..................          X      XX     ..............................",
"..................       XX X      XX        ...........................",
"..................      XXXXX       XXXXX      .........................",
"..................     XXX          XXXXXXXX     .......................",
".................     XXX                XXXXX    ......................",
"................   XX X                     XXXX    ....................",
"...............   XXXX                        XXX    ...................",
"..............   XXXXXX                        XXXX   ..................",
"..............  XXXXXXXXX                       XXXX   .................",
".............  XXXXXXX  XX                       XXXX   ................",
".............  XXXXX   XXXX                       XXXX   ...............",
".............  XXXX    XXXXX                       XXXX  ...............",
".............  XXX     XXXXXX                       XXX   ..............",
".............  XXX    XXXXXXX                       XXXX   .............",
"............   XXX XXXXXXXXX                         XXXX  .............",
"............    XXXXXXXXXXX                          XXXX   ............",
"............     XXXXXXXXX                            XXXX  ............",
"...........       XXXXXXX                             XXXX   ...........",
"...........        XXXXX                               XXXX  ...........",
"..........          XXX                X               XXXX  ...........",
"..........           X                XX                XXXX  ..........",
".........                            XX                 XXXX  ..........",
"........                             XX                 XXXX  ..........",
"........                             X                   XXXX  .........",
".......                             XX                   XXXX  .........",
"......                                                   XXXX  .........",
"......                             .                      XXXX  ........",
".....                            ...                      XXXX  ........",
".....                          .....                      XXXX  ........",
".....    XX                  .......                      XXXX   .......",
"....    XXXX               ........                        XXXX  .......",
"....    XXXX             ..........                        XXXX  .......",
"....    XXX             ..........                         XXXX  .......",
"....    XXX            ...........                         XXXX  .......",
"....          ..      ...........                          XXXX  .......",
"....          ..     ...........                            XXXX  ......",
"....         ...    ............                            XXXX  ......",
".....        ..     ...........                             XXXX  ......",
"......      ...    ...........                              XXXX  ......",
"........    .     ...........                               XXXX  ......",
"..............   ...........                                XXXX  ......",
"...........................                                 XXXX  ......",
"...........................                                 XXXX  ......",
"..........................                                  XXXX   .....",
".........................                                   XXXXX  .....",
"........................                                     XXXX  .....",
"........................                                     XXXX  .....",
".......................                                      XXXX  .....",
"......................                                       XXXX  .....",
"......................                                       XXXX  .....",
"......................                                       XXXX  .....",
".....................                                        XXXX  .....",
".....................                                        XXXX  .....",
".....................                                         XXX  .....",
".....................                                              .....",
".....................                                              .....",
"........................................................................",
"........................................................................",
"........................................................................",
"........................................................................",
"........................................................................"
};
