/* XPM */
static char *hdd72[] = {
/* columns rows colors chars-per-pixel */
"72 72 3 1",
"  c black s dark_piece",
". c green s dark_square",
"X c white s light_piece",
/* pixels */
"........................................................................",
"........................................................................",
"........................................................................",
"........................................................................",
"................................ .......................................",
".................   ...........   ......................................",
"..................   .........    ......................................",
"..................     ......      .....................................",
"..................      .....      .....................................",
"..................       ...        ....................................",
"..................        ..        ....................................",
"..................          X      ..     ..............................",
"..................       XX X      ..        ...........................",
"..................      XXXXX       .....      .........................",
"..................     XXX          ........     .......................",
".................     XXX                .....    ......................",
"................   XX X                     ....    ....................",
"...............   XXXX                        ...    ...................",
"..............   XXXXXX                        ....   ..................",
"..............  XXXXXXXXX                       ....   .................",
".............  XXXXXXX  XX                       ....   ................",
".............  XXXXX   XXXX                       ....   ...............",
".............  XXXX    XXXXX                       ....  ...............",
".............  XXX     XXXXXX                       ...   ..............",
".............  XXX    XXXXXXX                       ....   .............",
"............   XXX XXXXXXXXX                         ....  .............",
"............    XXXXXXXXXXX                          ....   ............",
"............     XXXXXXXXX                            ....  ............",
"...........       XXXXXXX                             ....   ...........",
"...........        XXXXX                               ....  ...........",
"..........          XXX                X               ....  ...........",
"..........           X                XX                ....  ..........",
".........                            XX                 ....  ..........",
"........                             XX                 ....  ..........",
"........                             X                   ....  .........",
".......                             XX                   ....  .........",
"......                                                   ....  .........",
"......                             .                      ....  ........",
".....                            ...                      ....  ........",
".....                          .....                      ....  ........",
".....    XX                  .......                      ....   .......",
"....    XXXX               ........                        ....  .......",
"....    XXXX             ..........                        ....  .......",
"....    XXX             ..........                         ....  .......",
"....    XXX            ...........                         ....  .......",
"....          ..      ...........                          ....  .......",
"....          ..     ...........                            ....  ......",
"....         ...    ............                            ....  ......",
".....        ..     ...........                             ....  ......",
"......      ...    ...........                              ....  ......",
"........    .     ...........                               ....  ......",
"..............   ...........                                ....  ......",
"...........................                                 ....  ......",
"...........................                                 ....  ......",
"..........................                                  ....   .....",
".........................                                   .....  .....",
"........................                                     ....  .....",
"........................                                     ....  .....",
".......................                                      ....  .....",
"......................                                       ....  .....",
"......................                                       ....  .....",
"......................                                       ....  .....",
".....................                                        ....  .....",
".....................                                        ....  .....",
".....................                                         ...  .....",
".....................                                              .....",
".....................                                              .....",
"........................................................................",
"........................................................................",
"........................................................................",
"........................................................................",
"........................................................................"
};
