/* XPM */
static char *hdl33[] = {
/* columns rows colors chars-per-pixel */
"33 33 3 1",
"  c black s dark_piece",
". c gray s light_square",
"X c white s light_piece",
/* pixels */
".................................",
".................................",
".................................",
"............... .................",
".........  ...  .................",
".........   ..   ................",
".........          ..............",
".........   XX   XX  ............",
".......... X       XX  ..........",
"........  X          X  .........",
"........ XXXX         X  ........",
"....... X  XXX         X  .......",
"....... X  XXXX        XX .......",
"...... XXXXXXX          X  ......",
"......  XXXXX           XX ......",
".....    XXX     X       X  .....",
".....     X              XX .....",
"....                     XX .....",
"....           ..         X  ....",
"...  X       ....         XX ....",
"...  X      ....          XX ....",
"...        .....          XX ....",
"...       .....            X ....",
"....     .....             X  ...",
".............              XX ...",
"............               XX ...",
"...........                XX ...",
"...........                XX ...",
"..........                 XX ...",
"..........                    ...",
"..........                    ...",
".................................",
"................................."
};
