/* XPM */
static char *hld49[] = {
/* columns rows colors chars-per-pixel */
"49 49 3 1",
"  c black s dark_piece",
". c green s dark_square",
"X c white s light_piece",
/* pixels */
".................................................",
".................................................",
".................................................",
".................................................",
"............ ........ ...........................",
"............   ..... X ..........................",
"............ XX .... XX .........................",
"............ XXX .. XXX .........................",
"............ XXXX   XXX    ......................",
"............. XX  X XXX XXX   ...................",
"............ XX XXXXXXXXXXXXXX  .................",
"...........   XXXXXXXXXXXXXXXXXX ................",
"..........      XXXXXXXXXXXXXXXXX  ..............",
"..........       XXXXXXXXXXXXXXXXX  .............",
".........      X  XXXXXXXXXXXXXXXXX  ............",
".........    XX     XXXXXXXXXXXXXXXX  ...........",
".........    X       XXXXXXXXXXXXXXXX ...........",
".........   X       XXXXXXXXXXXXXXXXX  ..........",
"........ XX        XXXXXX XXXXXXXXXXXX  .........",
"........ XXXX      XXXXXX XXXXXXXXXXXX  .........",
"........ XXXXX    XXXXXXX XXXXXXXXXXXXX  ........",
"....... XXXXXXXX XXXXXXXX XXXXXXXXXXXXX  ........",
"....... XXXXXXXXXXXXXXXX XXXXXXXXXXXXXXX ........",
"...... XXXXXXXXXXXXXXXXX XXXXXXXXXXXXXXX  .......",
"..... XXXXXXXXXXXXXXXXX . XXXXXXXXXXXXXX  .......",
"..... XXXXXXXXXXXXXXXX .. XXXXXXXXXXXXXXX .......",
".... XXXXXXXXXXXXXXX  ... XXXXXXXXXXXXXXX  ......",
".... XXXXXXXXXXXXXX ..... XXXXXXXXXXXXXXX  ......",
"... XX  XXXXXXXXX  ...... XXXXXXXXXXXXXXX  ......",
"... XX XXXXXXXXX ....... XXXXXXXXXXXXXXXXX ......",
"... XXXXXXXXXXX ........ XXXXXXXXXXXXXXXXX  .....",
"... XXXXXX XXX ........ XXXXXXXXXXXXXXXXXX  .....",
"... XXXXX XXX ........ XXXXXXXXXXXXXXXXXXX  .....",
".... XXXX XX ........ XXXXXXXXXXXXXXXXXXXX  .....",
".....     X ........ XXXXXXXXXXXXXXXXXXXXX  .....",
"..........  ....... XXXXXXXXXXXXXXXXXXXXXXX .....",
".................. XXXXXXXXXXXXXXXXXXXXXXXX  ....",
".................. XXXXXXXXXXXXXXXXXXXXXXXX  ....",
"................. XXXXXXXXXXXXXXXXXXXXXXXXX  ....",
"................ XXXXXXXXXXXXXXXXXXXXXXXXXX  ....",
"............... XXXXXXXXXXXXXXXXXXXXXXXXXXX  ....",
"............... XXXXXXXXXXXXXXXXXXXXXXXXXXX  ....",
".............. XXXXXXXXXXXXXXXXXXXXXXXXXXXX  ....",
".............. XXXXXXXXXXXXXXXXXXXXXXXXXXXX  ....",
".............. XXXXXXXXXXXXXXXXXXXXXXXXXXXX  ....",
"..............                              .....",
".................................................",
".................................................",
"................................................."
};
