/* XPM */
static char *hll33[] = {
/* columns rows colors chars-per-pixel */
"33 33 3 1",
"  c black s dark_piece",
". c gray s light_square",
"X c white s light_piece",
/* pixels */
".................................",
".................................",
".................................",
".........  ...  .................",
"......... X . XX ................",
"......... XX  XX   ..............",
"......... X   XX XX  ............",
".........   XXXXXXXXX  ..........",
"........    XXXXXXXXXX  .........",
"........     XXXXXXXXXX  ........",
".......  XX   XXXXXXXXXX  .......",
".......  X     XXX XXXXX  .......",
"......        XXXX XXXXXX  ......",
"...... X     XXXXX XXXXXX  ......",
"..... XXX   XXXXXX XXXXXXX  .....",
"..... XXXX XXXXXX XXXXXXXX  .....",
".... XXXXXXXXXX   XXXXXXXX  .....",
".... XXXXXXXXX .. XXXXXXXXX  ....",
"... X XXXXXX  ... XXXXXXXXX  ....",
"... X XXXXX .... XXXXXXXXXX  ....",
"... XXX XX ..... XXXXXXXXXX  ....",
"... XXX X ..... XXXXXXXXXXXX ....",
"....     ..... XXXXXXXXXXXXX  ...",
"............. XXXXXXXXXXXXXX  ...",
"............ XXXXXXXXXXXXXXX  ...",
"........... XXXXXXXXXXXXXXXX  ...",
"........... XXXXXXXXXXXXXXXX  ...",
".......... XXXXXXXXXXXXXXXXX  ...",
".......... XXXXXXXXXXXXXXXXX  ...",
"..........                    ...",
".................................",
".................................",
"................................."
};
