/* XPM */
static char *hll72[] = {
/* columns rows colors chars-per-pixel */
"72 72 3 1",
"  c black s dark_piece",
". c gray s light_square",
"X c white s light_piece",
/* pixels */
"........................................................................",
"........................................................................",
"........................................................................",
"........................................................................",
"................................ .......................................",
".................   ...........   ......................................",
"..................   .........    ......................................",
"..................     ......      .....................................",
"..................  X   .....  XX  .....................................",
"..................  XX   ...   XX   ....................................",
"..................  XXX   ..  XXXX  ....................................",
"..................  XXXX      XXXX       ...............................",
"..................  XXXXX     XXXX          ............................",
"..................   XXX   X  XXXXX  XXXX      .........................",
"..................   XX   XXXXXXXXX  XXXXXXX     .......................",
".................   XX   XXXXXXXXXXXXXXXXXXXXX     .....................",
"................     X XXXXXXXXXXXXXXXXXXXXXXXX     ....................",
"...............       XXXXXXXXXXXXXXXXXXXXXXXXXXX    ...................",
"..............          XXXXXXXXXXXXXXXXXXXXXXXXXX    ..................",
"..............           XXXXXXXXXXXXXXXXXXXXXXXXXX    .................",
".............         XX  XXXXXXXXXXXXXXXXXXXXXXXXXX    ................",
".............       XXX    XXXXXXXXXXXXXXXXXXXXXXXXX     ...............",
".............      XXXX     XXXXXXXXXXXXXXXXXXXXXXXXX    ...............",
".............     XXXXX      XXXXXXXXXXXXXXXXXXXXXXXXX    ..............",
".............     XXXX      XXXXXXXXXXXXXXXXXXXXXXXXXX     .............",
"............      X        XXXXXXXXXXXXXXXXXXXXXXXXXXXX    .............",
"............  XX          XXXXXXXXXXX  XXXXXXXXXXXXXXXXX    ............",
"............  XXX        XXXXXXXXXXXX  XXXXXXXXXXXXXXXXX    ............",
"...........   XXX       XXXXXXXXXXXXX  XXXXXXXXXXXXXXXXXX    ...........",
"...........  XXXXXX    XXXXXXXXXXXXXX  XXXXXXXXXXXXXXXXXX    ...........",
"..........   XXXXXXX  XXXXXXXXXXXXXXX  XXXXXXXXXXXXXXXXXX     ..........",
"..........  XXXXXXXXXXXXXXXXXXXXXXXX   XXXXXXXXXXXXXXXXXXX    ..........",
".........   XXXXXXXXXXXXXXXXXXXXXXXX  XXXXXXXXXXXXXXXXXXXX    ..........",
"........   XXXXXXXXXXXXXXXXXXXXXXXXX  XXXXXXXXXXXXXXXXXXXX     .........",
"........  XXXXXXXXXXXXXXXXXXXXXXXXX   XXXXXXXXXXXXXXXXXXXXX    .........",
".......   XXXXXXXXXXXXXXXXXXXXXXXX    XXXXXXXXXXXXXXXXXXXXX    .........",
"......   XXXXXXXXXXXXXXXXXXXXXXXX     XXXXXXXXXXXXXXXXXXXXX     ........",
"......  XXXXXXXXXXXXXXXXXXXXXXX    .  XXXXXXXXXXXXXXXXXXXXXX    ........",
".....   XXXXXXXXXXXXXXXXXXXXX    ...  XXXXXXXXXXXXXXXXXXXXXX    ........",
".....  XXXXXXXXXXXXXXXXXXXX    .....  XXXXXXXXXXXXXXXXXXXXXX    ........",
".....  XX  XXXXXXXXXXXXXX    .......  XXXXXXXXXXXXXXXXXXXXXX     .......",
"....   X    XXXXXXXXXXX    ........   XXXXXXXXXXXXXXXXXXXXXXX    .......",
"....  XX    XXXXXXXXXX   ..........  XXXXXXXXXXXXXXXXXXXXXXXX    .......",
"....  XX   XXXXXXXXXX   ..........   XXXXXXXXXXXXXXXXXXXXXXXX    .......",
"....  XX   XXXXXXXXX   ...........  XXXXXXXXXXXXXXXXXXXXXXXXX    .......",
"....  XXXXXXXX  XXX   ...........   XXXXXXXXXXXXXXXXXXXXXXXXX     ......",
"....  XXXXXXXX  XX   ...........   XXXXXXXXXXXXXXXXXXXXXXXXXXX    ......",
"....   XXXXXX   XX  ............  XXXXXXXXXXXXXXXXXXXXXXXXXXXX    ......",
".....   XXXX   XX   ...........   XXXXXXXXXXXXXXXXXXXXXXXXXXXX    ......",
"......         X   ...........   XXXXXXXXXXXXXXXXXXXXXXXXXXXXX    ......",
"........    .     ...........   XXXXXXXXXXXXXXXXXXXXXXXXXXXXXX    ......",
"..............   ...........   XXXXXXXXXXXXXXXXXXXXXXXXXXXXXXX    ......",
"...........................   XXXXXXXXXXXXXXXXXXXXXXXXXXXXXXXX    ......",
"...........................  XXXXXXXXXXXXXXXXXXXXXXXXXXXXXXXXX     .....",
"..........................   XXXXXXXXXXXXXXXXXXXXXXXXXXXXXXXXX     .....",
".........................   XXXXXXXXXXXXXXXXXXXXXXXXXXXXXXXXXXX    .....",
"........................   XXXXXXXXXXXXXXXXXXXXXXXXXXXXXXXXXXXX    .....",
"........................  XXXXXXXXXXXXXXXXXXXXXXXXXXXXXXXXXXXXX    .....",
".......................   XXXXXXXXXXXXXXXXXXXXXXXXXXXXXXXXXXXXX    .....",
"......................   XXXXXXXXXXXXXXXXXXXXXXXXXXXXXXXXXXXXXX    .....",
"......................  XXXXXXXXXXXXXXXXXXXXXXXXXXXXXXXXXXXXXXX    .....",
"......................  XXXXXXXXXXXXXXXXXXXXXXXXXXXXXXXXXXXXXXX    .....",
".....................   XXXXXXXXXXXXXXXXXXXXXXXXXXXXXXXXXXXXXXX    .....",
".....................  XXXXXXXXXXXXXXXXXXXXXXXXXXXXXXXXXXXXXXXX    .....",
".....................  XXXXXXXXXXXXXXXXXXXXXXXXXXXXXXXXXXXXXXXX    .....",
".....................                                              .....",
".....................                                              .....",
"........................................................................",
"........................................................................",
"........................................................................",
"........................................................................",
"........................................................................"
};
