/* XPM */
static char * icon_xpm[] = {
"109 109 3 1",
".	c None",
"+	c #BEBEBE",
"@	c #000000",
".............................................................................................................",
"........................+......................+++...........................................................",
".......................++++...................+++++..........................................................",
".......................+++++..................+++++..........................................................",
".......................++++++................+++++++.........................................................",
".......................++++++++.............++++++++.........................................................",
".......................+++++++++............+++++++++........................................................",
".......................+++++++++++.........+++++@+++++.......................................................",
".......................++++@+++++++.......+++++@@@++++.......................................................",
".......................++++@@@++++++......++++@@@@+++++......................................................",
".......................++++@@@@++++++....+++++@@@@@++++......................................................",
".......................++++@@@@@@+++++...++++@@@@@@++++......................................................",
".......................++++@@@@@@@++++.++++++@@@@@@++++..+...................................................",
".......................+++++@@@@@@+++++++++++@@@@@@+++++++++++++.............................................",
"........................++++@@@@@@@+++++++++@@@@@@@@++++++++++++++++.........................................",
"........................++++@@@@@@@+++++++++@@@@@@@@++++++++++++++++++.......................................",
"........................+++++@@@@@++++++++++@@@@@@@@++++@@++++++++++++++.....................................",
"........................+++++@@@@+++++@@@+++@@@@@@@@++++@@@@@@@+++++++++++...................................",
".......................++++++@@@+++++@@@@@+@@@@@@@@@++++@@@@@@@@@@++++++++++.................................",
"......................++++++@@@+++++@@@@@@@@@@@@@@@@+++@@@@@@@@@@@@@@++++++++................................",
".....................+++++@@@@+++++@@@@@@@@@@@@@@@@@@@@@@@@@@@@@@@@@@@@++++++++..............................",
".....................++++@@@@@++++@@@@@@@@@@@@@@@@@@@@@@@@@@@@@@@@@@@@@@++++++++.............................",
"....................+++++@@@@@@++@@@@@@@@@@@@@@@@@@@@@@@@@@@@@@@@@@@@@@@@@+++++++............................",
"...................+++++@@@@@@@@@@@@@@@@@@@@@@@@@@@@@@@@@@@@@@@@@@@@@@@@@@@++++++++..........................",
"..................+++++@@@@@@@@@@@@@@@@@@@@@@@@@@@@@@@@@@@@@@@@@@@@@@@@@@@@@++++++++.........................",
"..................++++@@@@@@@@@@@@@@@@@@@@@@@@@@@@@@@@@@@@@@@@@@@@@@@@@@@@@@@++++++++........................",
".................+++++@@@@@@@@@@@@@@@@@@@@@@@@@@@@@@@@@@@@@@@@@@@@@@@@@@@@@@@@++++++++.......................",
".................++++@@@@@@@@@+++++@@@@@@@@@@@@@@@@@@@@@@@@@@@@@@@@@@@@@@@@@@@@++++++++......................",
"................+++++@@@@@@@+++++++@@@@@@@@@@@@@@@@@@@@@@@@@@@@@@@@@@@@@@@@@@@@@++++++++.....................",
"................++++@@@@@@@+++++@@@@@@@@@@@@@@@@@@@@@@@@@@@@@@@@@@@@@@@@@@@@@@@@@+++++++.....................",
"................++++@@@@@@++++++@@@@@@@@@@@@@@@@@@@@@@@@@@@@@@@@@@@@@@@@@@@@@@@@@@+++++++....................",
"................++++@@@@@+++++++@@@@@@@@@@@@@@@@@@@@@@@@@@@@@@@@@@@@@@@@@@@@@@@@@@++++++++...................",
"...............+++++@@@@++++++++@@@@@@@@@@@@@@@@@@@@@@@@@@@@@@@@@@@@@@@@@@@@@@@@@@@++++++++..................",
"...............++++@@@@@+++++++@@@@@@@@@@@@@@@@@@@@@@@@@@@@@@@@@@@@@@@@@@@@@@@@@@@@@+++++++..................",
"...............++++@@@@+++++++@@@@@@@@@@@@@@@@@@@@@@@@@@@@@@@@@@@@@@@@@@@@@@@@@@@@@@++++++++.................",
"...............++++@@@@++++++@@@@@@@@@@@@@@@@@@@@@@@@@@@@@@@@@@@@@@@@@@@@@@@@@@@@@@@@++++++++................",
"...............++++@@@@++@@@@@@@@@@@@@@@@@@@@@@@@@@@@@@@@@@@@@@@@@@@@@@@@@@@@@@@@@@@@@+++++++................",
"...............++++@@@@++@@@@@@@@@@@@@@@@@@@@@@@@@@@@@@@@@++@@@@@@@@@@@@@@@@@@@@@@@@@@++++++++...............",
"..............+++++@@@@++@@@@@@@@@@@@@@@@@@@@@@@@@@@@@@@@++++@@@@@@@@@@@@@@@@@@@@@@@@@@++++++++..............",
"..............++++@@@@@@@@@@@@@@@@@@@@@@@@@@@@@@@@@@@@@@@++++@@@@@@@@@@@@@@@@@@@@@@@@@@++++++++..............",
"..............++++@@@@@@@@@@@@@@@@@@@@@@@@@@@@@@@@@@@@@@@++++@@@@@@@@@@@@@@@@@@@@@@@@@@@++++++++.............",
".............+++++@@@@@@@@@@@@@@@@@@@@@@@@@@@@@@@@@@@@@@@++++@@@@@@@@@@@@@@@@@@@@@@@@@@@++++++++.............",
".............++++@@@@@@@@@@@@@@@@@@@@@@@@@@@@@@@@@@@@@@@@++++@@@@@@@@@@@@@@@@@@@@@@@@@@@@++++++++............",
"............+++++@@@@@@@@@@@@@@@@@@@@@@@@@@@@@@@@@@@@@@@@++++@@@@@@@@@@@@@@@@@@@@@@@@@@@@++++++++............",
"............++++@@@@@@@@@@@@@@@@@@@@@@@@@@@@@@@@@@@@@@@@@++++@@@@@@@@@@@@@@@@@@@@@@@@@@@@@+++++++............",
"...........+++++@@@@@@@@@@@@@@@@@@@@@@@@@@@@@@@@@@@@@@@@+++++@@@@@@@@@@@@@@@@@@@@@@@@@@@@@++++++++...........",
"..........+++++@@@@@@@@@@@@@@@@@@@@@@@@@@@@@@@@@@@@@@@@@++++@@@@@@@@@@@@@@@@@@@@@@@@@@@@@@++++++++...........",
"..........++++@@@@@@@@@@@@@@@@@@@@@@@@@@@@@@@@@@@@@@@@@@++++@@@@@@@@@@@@@@@@@@@@@@@@@@@@@@@++++++++..........",
".........+++++@@@@@@@@@@@@@@@@@@@@@@@@@@@@@@@@@@@@@@@@@@++++@@@@@@@@@@@@@@@@@@@@@@@@@@@@@@@++++++++..........",
"........+++++@@@@@@@@@@@@@@@@@@@@@@@@@@@@@@@@@@@@@@@@@@+++++@@@@@@@@@@@@@@@@@@@@@@@@@@@@@@@@++++++++.........",
"........++++@@@@@@@@@@@@@@@@@@@@@@@@@@@@@@@@@@@@@@@@@@@++++@@@@@@@@@@@@@@@@@@@@@@@@@@@@@@@@@++++++++.........",
".......+++++@@@@@@@@@@@@@@@@@@@@@@@@@@@@@@@@@@@@@@@@@@+++++@@@@@@@@@@@@@@@@@@@@@@@@@@@@@@@@@++++++++.........",
"......+++++@@@@@@@@@@@@@@@@@@@@@@@@@@@@@@@@@@@@@@@@@@@+++++@@@@@@@@@@@@@@@@@@@@@@@@@@@@@@@@@@++++++++........",
"......++++@@@@@@@@@@@@@@@@@@@@@@@@@@@@@@@@@@@@@@@@@@@++++++@@@@@@@@@@@@@@@@@@@@@@@@@@@@@@@@@@++++++++........",
".....+++++@@@@@@@@@@@@@@@@@@@@@@@@@@@@@@@@@@@@@@@@@@+++++++@@@@@@@@@@@@@@@@@@@@@@@@@@@@@@@@@@++++++++........",
"....+++++@@@@@@@@@@@@@@@@@@@@@@@@@@@@@@@@@@@@@@@@@+++++++++@@@@@@@@@@@@@@@@@@@@@@@@@@@@@@@@@@@++++++++.......",
"....++++@@@@@@@@@@@@@@@@@@@@@@@@@@@@@@@@@@@@@@@@+++++++++++@@@@@@@@@@@@@@@@@@@@@@@@@@@@@@@@@@@++++++++.......",
"...+++++@@@@@@@@@@@@@@@@@@@@@@@@@@@@@@@@@@@@@@++++++++.++++@@@@@@@@@@@@@@@@@@@@@@@@@@@@@@@@@@@++++++++.......",
"...++++@@@@@@@@@@@@@@@@@@@@@@@@@@@@@@@@@@@@@+++++++++..++++@@@@@@@@@@@@@@@@@@@@@@@@@@@@@@@@@@@++++++++.......",
"..+++++@@@@@@@@@@@@@@@@@@@@@@@@@@@@@@@@@@@+++++++++....++++@@@@@@@@@@@@@@@@@@@@@@@@@@@@@@@@@@@@++++++++......",
"..++++@@@@@@@@@@@@@@@@@@@@@@@@@@@@@@@@@@+++++++++......++++@@@@@@@@@@@@@@@@@@@@@@@@@@@@@@@@@@@@++++++++......",
".+++++@@@@@@@@@@@@@@@@@@@@@@@@@@@@@@@@+++++++++........++++@@@@@@@@@@@@@@@@@@@@@@@@@@@@@@@@@@@@++++++++......",
".++++@@@@++@@@@@@@@@@@@@@@@@@@@@@@@@+++++++++.........+++++@@@@@@@@@@@@@@@@@@@@@@@@@@@@@@@@@@@@++++++++......",
".++++@@@++++@@@@@@@@@@@@@@@@@@@@@@@++++++++...........++++@@@@@@@@@@@@@@@@@@@@@@@@@@@@@@@@@@@@@@++++++++.....",
".++++@@++++++@@@@@@@@@@@@@@@@@@@@++++++++.............++++@@@@@@@@@@@@@@@@@@@@@@@@@@@@@@@@@@@@@@++++++++.....",
"+++++@@++++++@@@@@@@@@@@@@@@@@@@+++++++..............+++++@@@@@@@@@@@@@@@@@@@@@@@@@@@@@@@@@@@@@@++++++++.....",
"++++@@@++++++@@@@@@@@@@@@@@@@@@++++++................++++@@@@@@@@@@@@@@@@@@@@@@@@@@@@@@@@@@@@@@@++++++++.....",
"++++@@@+++++@@@@@@@@@@@@@@@@@@++++++.................++++@@@@@@@@@@@@@@@@@@@@@@@@@@@@@@@@@@@@@@@@+++++++.....",
"++++@@@+++++@@@@@@@@@@@@@@@@@+++++..................+++++@@@@@@@@@@@@@@@@@@@@@@@@@@@@@@@@@@@@@@@@++++++++....",
"++++@@@@+++@@@@@@@@+@@@@@@@@+++++...................++++@@@@@@@@@@@@@@@@@@@@@@@@@@@@@@@@@@@@@@@@@++++++++....",
"++++@@@@@@@@@@@@@@+++@@@@@@+++++...................+++++@@@@@@@@@@@@@@@@@@@@@@@@@@@@@@@@@@@@@@@@@++++++++....",
"++++@@@@@@@@@@@@@++++@@@@@+++++...................+++++@@@@@@@@@@@@@@@@@@@@@@@@@@@@@@@@@@@@@@@@@@++++++++....",
"++++@@@@@@@@@@@@@++++@@@@+++++....................++++@@@@@@@@@@@@@@@@@@@@@@@@@@@@@@@@@@@@@@@@@@@++++++++....",
"+++++@@@@@@@@@@@+++++@@@+++++....................+++++@@@@@@@@@@@@@@@@@@@@@@@@@@@@@@@@@@@@@@@@@@@@++++++++...",
".++++@@@@@@@@@@@++++@@@@++++....................+++++@@@@@@@@@@@@@@@@@@@@@@@@@@@@@@@@@@@@@@@@@@@@@++++++++...",
".++++++@@@@@@@@+++++@@@+++++...................+++++@@@@@@@@@@@@@@@@@@@@@@@@@@@@@@@@@@@@@@@@@@@@@@++++++++...",
"..+++++++@@@@++++++@@@+++++....................++++@@@@@@@@@@@@@@@@@@@@@@@@@@@@@@@@@@@@@@@@@@@@@@@++++++++...",
"...++++++++++++++++@@+++++....................+++++@@@@@@@@@@@@@@@@@@@@@@@@@@@@@@@@@@@@@@@@@@@@@@@++++++++...",
"....++++++++++++++@@@++++....................+++++@@@@@@@@@@@@@@@@@@@@@@@@@@@@@@@@@@@@@@@@@@@@@@@@++++++++...",
"......++++++++++++@@+++++...................+++++@@@@@@@@@@@@@@@@@@@@@@@@@@@@@@@@@@@@@@@@@@@@@@@@@++++++++...",
"........++++++++++++++++...................+++++@@@@@@@@@@@@@@@@@@@@@@@@@@@@@@@@@@@@@@@@@@@@@@@@@@@++++++++..",
"...............++++++++...................+++++@@@@@@@@@@@@@@@@@@@@@@@@@@@@@@@@@@@@@@@@@@@@@@@@@@@@++++++++..",
"................++++++...................+++++@@@@@@@@@@@@@@@@@@@@@@@@@@@@@@@@@@@@@@@@@@@@@@@@@@@@@++++++++..",
".................++++...................+++++@@@@@@@@@@@@@@@@@@@@@@@@@@@@@@@@@@@@@@@@@@@@@@@@@@@@@@++++++++..",
"........................................++++@@@@@@@@@@@@@@@@@@@@@@@@@@@@@@@@@@@@@@@@@@@@@@@@@@@@@@@++++++++..",
".......................................+++++@@@@@@@@@@@@@@@@@@@@@@@@@@@@@@@@@@@@@@@@@@@@@@@@@@@@@@@++++++++..",
"......................................+++++@@@@@@@@@@@@@@@@@@@@@@@@@@@@@@@@@@@@@@@@@@@@@@@@@@@@@@@@++++++++..",
".....................................+++++@@@@@@@@@@@@@@@@@@@@@@@@@@@@@@@@@@@@@@@@@@@@@@@@@@@@@@@@@++++++++..",
"....................................+++++@@@@@@@@@@@@@@@@@@@@@@@@@@@@@@@@@@@@@@@@@@@@@@@@@@@@@@@@@@++++++++..",
"...................................+++++@@@@@@@@@@@@@@@@@@@@@@@@@@@@@@@@@@@@@@@@@@@@@@@@@@@@@@@@@@@++++++++..",
"...................................++++@@@@@@@@@@@@@@@@@@@@@@@@@@@@@@@@@@@@@@@@@@@@@@@@@@@@@@@@@@@@++++++++..",
"..................................+++++@@@@@@@@@@@@@@@@@@@@@@@@@@@@@@@@@@@@@@@@@@@@@@@@@@@@@@@@@@@@@++++++++.",
".................................+++++@@@@@@@@@@@@@@@@@@@@@@@@@@@@@@@@@@@@@@@@@@@@@@@@@@@@@@@@@@@@@@++++++++.",
".................................++++@@@@@@@@@@@@@@@@@@@@@@@@@@@@@@@@@@@@@@@@@@@@@@@@@@@@@@@@@@@@@@@++++++++.",
"................................+++++@@@@@@@@@@@@@@@@@@@@@@@@@@@@@@@@@@@@@@@@@@@@@@@@@@@@@@@@@@@@@@@++++++++.",
"................................++++@@@@@@@@@@@@@@@@@@@@@@@@@@@@@@@@@@@@@@@@@@@@@@@@@@@@@@@@@@@@@@@@++++++++.",
"...............................+++++@@@@@@@@@@@@@@@@@@@@@@@@@@@@@@@@@@@@@@@@@@@@@@@@@@@@@@@@@@@@@@@@++++++++.",
"...............................++++@@@@@@@@@@@@@@@@@@@@@@@@@@@@@@@@@@@@@@@@@@@@@@@@@@@@@@@@@@@@@@@@@++++++++.",
"..............................+++++@@@@@@@@@@@@@@@@@@@@@@@@@@@@@@@@@@@@@@@@@@@@@@@@@@@@@@@@@@@@@@@@@++++++++.",
"..............................++++@@@@@@@@@@@@@@@@@@@@@@@@@@@@@@@@@@@@@@@@@@@@@@@@@@@@@@@@@@@@@@@@@@++++++++.",
"..............................++++@@@@@@@@@@@@@@@@@@@@@@@@@@@@@@@@@@@@@@@@@@@@@@@@@@@@@@@@@@@@@@@@@@++++++++.",
".............................+++++@@@@@@@@@@@@@@@@@@@@@@@@@@@@@@@@@@@@@@@@@@@@@@@@@@@@@@@@@@@@@@@@@@++++++++.",
".............................++++@@@@@@@@@@@@@@@@@@@@@@@@@@@@@@@@@@@@@@@@@@@@@@@@@@@@@@@@@@@@@@@@@@@++++++++.",
".............................++++@@@@@@@@@@@@@@@@@@@@@@@@@@@@@@@@@@@@@@@@@@@@@@@@@@@@@@@@@@@@@@@@@@@++++++++.",
".............................++++@@@@@@@@@@@@@@@@@@@@@@@@@@@@@@@@@@@@@@@@@@@@@@@@@@@@@@@@@@@@@@@@@@@++++++++.",
".............................+++++++++++++++++++++++++++++++++++++++++++++++++++++++++++++++++++++++++++++++.",
".............................+++++++++++++++++++++++++++++++++++++++++++++++++++++++++++++++++++++++++++++++.",
".............................+++++++++++++++++++++++++++++++++++++++++++++++++++++++++++++++++++++++++++++++.",
"..............................+++++++++++++++++++++++++++++++++++++++++++++++++++++++++++++++++++++++++++...."};
