/* XPM */
static char * icon_ob_xpm[] = {
"32 32 3 1",
" 	c None",
".	c #FFFFFF",
"+	c #808080",
"                                ",
"               .                ",
"         .     ..               ",
"         ..    ..               ",
"         .+.   .+.              ",
"          .+. .+++....          ",
"         .+++.+.++.+++.         ",
"        .++..++++++++++..       ",
"        .+++++++++++++++..      ",
"       .++..+++++++++++++..     ",
"       .+..++++++++++++++..     ",
"      .++.+++++++.++++++++..    ",
"      .++++++++++.++++++++..    ",
"     .+++++++++++.+++++++++..   ",
"     .+++++++++++.+++++++++..   ",
"    .++++++++++++.++++++++++.   ",
"   .++++++++++++.+++++++++++..  ",
"  .++++++++++++..+++++++++++..  ",
"  .+.++++++++.. .+++++++++++..  ",
" .+..++++++..   .+++++++++++..  ",
" .+.+++++..    .++++++++++++..  ",
" .++++.+.      .+++++++++++++.. ",
"  .++.+.      .++++++++++++++.. ",
"   ..+.      .+++++++++++++++.. ",
"     .      .++++++++++++++++.. ",
"           .+++++++++++++++++.. ",
"          .++++++++++++++++++.. ",
"          .++++++++++++++++++.. ",
"         .+++++++++++++++++++.. ",
"         ...................... ",
"                                ",
"                                "};
