/* XPM */
static char *ini32[] = {
/* columns rows colors chars-per-pixel */
"32 32 3 1",
" 	c #000000",
".	c None",
"X	c #FFFFFF",
/* pixels */
"................................",
"....... ...... .................",
".......   ... X ................",
"....... XX . XX ................",
"....... XXX  XX    .............",
"....... XX X XX XXX  ...........",
"...... XX XXXXXXXXXXX  .........",
"...... XXXXXXXXXXXXXXX  ........",
"..... XXX XXXXXXXXXXXXX  .......",
"..... XX  XXXXXXXXXXXXXX  ......",
"..... X  XXXXXXXXXXXXXXXX ......",
".... XXXXXXXXXXXX XXXXXXX  .....",
".... XXXXXXXXXXXX XXXXXXXX .....",
".... XXXXXXXXXXXX XXXXXXXX  ....",
"... XXXXXXXXXXXXX XXXXXXXXX ....",
"... XXXXXXXXXXXX XXXXXXXXXX  ...",
".. XXXXXXXXXXXX  XXXXXXXXXX  ...",
". XXXXXXXXXXX  . XXXXXXXXXXX ...",
".   XXXXXXX  ... XXXXXXXXXXX  ..",
".  XXXXXXX .... XXXXXXXXXXXX  ..",
". XXXXXXX ..... XXXXXXXXXXXX  ..",
". XXX XX ..... XXXXXXXXXXXXX  ..",
"..    X ..... XXXXXXXXXXXXXXX ..",
"...... ...... XXXXXXXXXXXXXXX  .",
"............ XXXXXXXXXXXXXXXX  .",
"........... XXXXXXXXXXXXXXXXX  .",
".......... XXXXXXXXXXXXXXXXXX  .",
".......... XXXXXXXXXXXXXXXXXX  .",
"......... XXXXXXXXXXXXXXXXXXX  .",
"......... XXXXXXXXXXXXXXXXXXX  .",
".........                      .",
"................................"
};
