/* XPM */
static char *nld33[] = {
/* columns rows colors chars-per-pixel */
"32 32 3 1",
"  c black",
". c transparent",
"X c white",
/* pixels */
"................................",
"................................",
"................................",
".........  ...  ................",
"......... X . XX ...............",
"......... XX  XX   .............",
"......... X   XX XX  ...........",
"......... X XXXXXXXXX  .........",
"........ XXXXXXXXXXXXX  ........",
"........ X  XXXXXXXXXXX  .......",
"....... X XXXXXXXXXXXXXX  ......",
"....... X XXXXXXXX XXXXX  ......",
"...... XXXXXXXXXXX XXXXXX  .....",
"...... XXXXXXXXXXX XXXXXX  .....",
"..... XXXXXXXXXXXX XXXXXXX  ....",
"..... XXXXXXXXXXX XXXXXXXX  ....",
".... XXXXXXXXXX   XXXXXXXX  ....",
".... XXXXXXXXX .. XXXXXXXXX  ...",
"... X XXXXXX  ... XXXXXXXXX  ...",
"... X XXXXX .... XXXXXXXXXX  ...",
"... XXX XX ..... XXXXXXXXXX  ...",
"... XXX X ..... XXXXXXXXXXXX ...",
"....     ..... XXXXXXXXXXXXX  ..",
"............. XXXXXXXXXXXXXX  ..",
"............ XXXXXXXXXXXXXXX  ..",
"........... XXXXXXXXXXXXXXXX  ..",
"........... XXXXXXXXXXXXXXXX  ..",
".......... XXXXXXXXXXXXXXXXX  ..",
".......... XXXXXXXXXXXXXXXXX  ..",
"..........                    ..",
"................................",
"................................"
};
