/* XPM */
static char *nld49[] = {
/* columns rows colors chars-per-pixel */
"48 48 3 1",
"  c black",
". c transparent",
"X c whit",
/* pixels */
"................................................",
"................................................",
"................................................",
"............ ........ ..........................",
"............   ..... X .........................",
"............ XX .... XX ........................",
"............ XXX .. XXX ........................",
"............ XXXX   XXX    .....................",
"............. XX  X XXX XXX   ..................",
"............ XX XXXXXXXXXXXXXX  ................",
"........... XXXXXXXXXXXXXXXXXXXX ...............",
".......... XXXXXXXXXXXXXXXXXXXXXX  .............",
".......... XXXXXXXXXXXXXXXXXXXXXXX  ............",
"......... XXXXX XXXXXXXXXXXXXXXXXXX  ...........",
"......... XXX  XXXXXXXXXXXXXXXXXXXXX  ..........",
"......... XXX XXXXXXXXXXXXXXXXXXXXXXX ..........",
"......... XX XXXXXXXXXXXXXXXXXXXXXXXX  .........",
"........ XXXXXXXXXXXXXXXX XXXXXXXXXXXX  ........",
"........ XXXXXXXXXXXXXXXX XXXXXXXXXXXX  ........",
"........ XXXXXXXXXXXXXXXX XXXXXXXXXXXXX  .......",
"....... XXXXXXXXXXXXXXXXX XXXXXXXXXXXXX  .......",
"....... XXXXXXXXXXXXXXXX XXXXXXXXXXXXXXX .......",
"...... XXXXXXXXXXXXXXXXX XXXXXXXXXXXXXXX  ......",
"..... XXXXXXXXXXXXXXXXX . XXXXXXXXXXXXXX  ......",
"..... XXXXXXXXXXXXXXXX .. XXXXXXXXXXXXXXX ......",
".... XXXXXXXXXXXXXXX  ... XXXXXXXXXXXXXXX  .....",
".... XXXXXXXXXXXXXX ..... XXXXXXXXXXXXXXX  .....",
"... XX  XXXXXXXXX  ...... XXXXXXXXXXXXXXX  .....",
"... XX XXXXXXXXX ....... XXXXXXXXXXXXXXXXX .....",
"... XXXXXXXXXXX ........ XXXXXXXXXXXXXXXXX  ....",
"... XXXXXX XXX ........ XXXXXXXXXXXXXXXXXX  ....",
"... XXXXX XXX ........ XXXXXXXXXXXXXXXXXXX  ....",
".... XXXX XX ........ XXXXXXXXXXXXXXXXXXXX  ....",
".....     X ........ XXXXXXXXXXXXXXXXXXXXX  ....",
"..........  ....... XXXXXXXXXXXXXXXXXXXXXXX ....",
".................. XXXXXXXXXXXXXXXXXXXXXXXX  ...",
".................. XXXXXXXXXXXXXXXXXXXXXXXX  ...",
"................. XXXXXXXXXXXXXXXXXXXXXXXXX  ...",
"................ XXXXXXXXXXXXXXXXXXXXXXXXXX  ...",
"............... XXXXXXXXXXXXXXXXXXXXXXXXXXX  ...",
"............... XXXXXXXXXXXXXXXXXXXXXXXXXXX  ...",
".............. XXXXXXXXXXXXXXXXXXXXXXXXXXXX  ...",
".............. XXXXXXXXXXXXXXXXXXXXXXXXXXXX  ...",
".............. XXXXXXXXXXXXXXXXXXXXXXXXXXXX  ...",
"..............                              ....",
"................................................",
"................................................",
"................................................"
};
