/* XPM */
static char *ldd45[] = {
/* columns rows colors chars-per-pixel */
"45 45 3 1",
"  c black s dark_piece",
". c green s dark_square",
"X c white s light_piece",
/* pixels */
".............................................",
".............................................",
"...................... ......................",
"...................... ......................",
".....................   .....................",
".....................   .....................",
".....................   .....................",
"....................     ....................",
"....................     ....................",
"....................     ....................",
"...................       ...................",
"...................       ...................",
"...................       ...................",
"..................         ..................",
"..................         ..................",
"..................         ..................",
".................           .................",
".................           .................",
".................     X     .................",
"................      X      ................",
"................      X      ................",
"................      X      ................",
"...............       X       ...............",
"...............       X       ...............",
"...............    XXXXXXX    ...............",
"..............        X        ..............",
"..............        X        ..............",
"..............        X        ..............",
".............         X         .............",
".............         X         .............",
"..............                 ..............",
"...............               ...............",
"................             ................",
".................           .................",
"..................    X    ..................",
"...................  X X  ...................",
"....................     ....................",
".....................   .....................",
".....................   .....................",
".....................   .....................",
".....................   .....................",
".....................   .....................",
".....................   .....................",
".....................   .....................",
"............................................."
};
