/* XPM */
static char *ldd49[] = {
/* columns rows colors chars-per-pixel */
"49 49 3 1",
"  c black s dark_piece",
". c green s dark_square",
"X c white s light_piece",
/* pixels */
".................................................",
".................................................",
".................................................",
"........................ ........................",
"........................ ........................",
".......................   .......................",
".......................   .......................",
"......................     ......................",
"......................     ......................",
"......................     ......................",
".....................       .....................",
".....................       .....................",
".....................       .....................",
"....................         ....................",
"....................         ....................",
"...................           ...................",
"...................           ...................",
"...................           ...................",
"..................             ..................",
"..................             ..................",
".................               .................",
".................               .................",
".................       X       .................",
"................        X        ................",
"................        X        ................",
"................        X        ................",
"...............         X         ...............",
"...............      XXXXXXX      ...............",
"..............          X          ..............",
"..............          X          ..............",
".............           X           .............",
".............           X           .............",
"..............          X          ..............",
"...............                   ...............",
"................                 ................",
".................               .................",
"..................             ..................",
"...................           ...................",
"....................         ....................",
".....................       .....................",
"......................     ......................",
".......................   .......................",
".......................   .......................",
".......................   .......................",
".......................   .......................",
".......................   .......................",
".......................   .......................",
".................................................",
"................................................."
};
