/* XPM */
static char *ldd72[] = {
/* columns rows colors chars-per-pixel */
"72 72 3 1",
"  c black s dark_piece",
". c green s dark_square",
"X c white s light_piece",
/* pixels */
"........................................................................",
"........................................................................",
"........................................................................",
"........................................................................",
".................................... ...................................",
".................................... ...................................",
"...................................   ..................................",
"...................................   ..................................",
"..................................     .................................",
"..................................     .................................",
"..................................     .................................",
".................................       ................................",
".................................       ................................",
"................................         ...............................",
"................................         ...............................",
"................................         ...............................",
"...............................           ..............................",
"...............................           ..............................",
"..............................             .............................",
"..............................             .............................",
"..............................             .............................",
".............................               ............................",
".............................               ............................",
"............................                 ...........................",
"............................                 ...........................",
"............................                 ...........................",
"...........................                   ..........................",
"...........................                   ..........................",
"..........................                     .........................",
"..........................                     .........................",
"..........................                     .........................",
".........................                       ........................",
".........................          XXX          ........................",
"........................           XXX           .......................",
"........................           XXX           .......................",
"........................           XXX           .......................",
".......................            XXX            ......................",
".......................            XXX            ......................",
"......................             XXX             .....................",
"......................             XXX             .....................",
"......................        XXXXXXXXXXXXX        .....................",
".....................         XXXXXXXXXXXXX         ....................",
".....................         XXXXXXXXXXXXX         ....................",
"....................               XXX               ...................",
"....................               XXX               ...................",
"....................               XXX               ...................",
"...................                XXX                ..................",
"...................                XXX                ..................",
"...................                XXX                ..................",
"....................               XXX               ...................",
".....................              XXX              ....................",
"......................             XXX             .....................",
".......................            XXX            ......................",
"........................                         .......................",
".........................                       ........................",
"..........................                     .........................",
"...........................                   ..........................",
"............................                 ...........................",
".............................               ............................",
"..............................             .............................",
"...............................           ..............................",
"................................         ...............................",
".................................       ................................",
"..................................     .................................",
"..................................     .................................",
"..................................     .................................",
"..................................     .................................",
"..................................     .................................",
"..................................     .................................",
"........................................................................",
"........................................................................",
"........................................................................"
};
