/* XPM */
static char *ldl54[] = {
/* columns rows colors chars-per-pixel */
"54 54 3 1",
"  c black s dark_piece",
". c gray s light_square",
"X c white s light_piece",
/* pixels */
"......................................................",
"......................................................",
"..........................  ..........................",
"..........................  ..........................",
"..........................  ..........................",
".........................    .........................",
".........................    .........................",
"........................      ........................",
"........................      ........................",
"........................      ........................",
".......................        .......................",
".......................        .......................",
".......................        .......................",
"......................          ......................",
"......................          ......................",
"......................          ......................",
".....................            .....................",
".....................            .....................",
".....................            .....................",
"....................              ....................",
"....................              ....................",
"....................              ....................",
"...................                ...................",
"...................       XX       ...................",
"...................       XX       ...................",
"..................        XX        ..................",
"..................        XX        ..................",
"..................        XX        ..................",
".................         XX         .................",
".................         XX         .................",
".................      XXXXXXXX      .................",
"................       XXXXXXXX       ................",
"................          XX          ................",
"................          XX          ................",
"...............           XX           ...............",
"...............           XX           ...............",
"...............           XX           ...............",
"................          XX          ................",
".................                    .................",
"..................                  ..................",
"...................                ...................",
"....................              ....................",
".....................     XX     .....................",
"......................   XXXX   ......................",
".......................  X  X  .......................",
"........................      ........................",
".........................    .........................",
".........................    .........................",
".........................    .........................",
".........................    .........................",
".........................    .........................",
".........................    .........................",
"......................................................",
"......................................................"
};
