/* XPM */
static char *lld37[] = {
/* columns rows colors chars-per-pixel */
"37 37 3 1",
"  c black s dark_piece",
". c green s dark_square",
"X c white s light_piece",
/* pixels */
".....................................",
".....................................",
".................. ..................",
".................. ..................",
"................. X .................",
"................. X .................",
"................. X .................",
"................ XXX ................",
"................ XXX ................",
"................ XXX ................",
"............... XXXXX ...............",
"............... XXXXX ...............",
"............... XXXXX ...............",
".............. XXXXXXX ..............",
".............. XXXXXXX ..............",
".............. XXXXXXX ..............",
"............. XXXX XXXX .............",
"............. XXXX XXXX .............",
"............. XXXX XXXX .............",
"............ XXXXX XXXXX ............",
"............ XXXXX XXXXX ............",
"............ XXX     XXX ............",
"........... XXXXXX XXXXXX ...........",
"........... XXXXXX XXXXXX ...........",
"........... XXXXXX XXXXXX ...........",
"............ XXXXX XXXXX ............",
"............. XXXXXXXXX .............",
".............. XXXXXXX ..............",
"............... XXXXX ...............",
"................ X X ................",
".................   .................",
".................   .................",
".................   .................",
".................   .................",
".................   .................",
".................   .................",
"....................................."
};
