/* XPM */
static char *lld33[] = {
/* columns rows colors chars-per-pixel */
"33 33 3 1",
"  c black s dark_piece",
". c green s dark_square",
"X c white s light_piece",
/* pixels */
".................................",
".................................",
"................. ...............",
"................. ...............",
"................ X ..............",
"................ X ..............",
"................ X ..............",
"............... XXX .............",
"............... XXX .............",
"............... XXX .............",
".............. XXXXX ............",
".............. XXXXX ............",
".............. XXXXX ............",
"............. XXXXXXX ...........",
"............. XXX XXX ...........",
"............. XXX XXX ...........",
"............ XXXX XXXX ..........",
"............ XXXX XXXX ..........",
"............ XX     XX ..........",
"........... XXXXX XXXXX .........",
"........... XXXXX XXXXX .........",
"........... XXXXX XXXXX .........",
"............ XXXX XXXX ..........",
"............. XXXXXXX ...........",
".............. XXXXX ............",
"............... XXX .............",
"................ X ..............",
"................   ..............",
"................   ..............",
"................   ..............",
"................   ..............",
"................   ..............",
"................................."
};
