/* XPM */
static char *lld49[] = {
/* columns rows colors chars-per-pixel */
"49 49 3 1",
"  c black s dark_piece",
". c green s dark_square",
"X c white s light_piece",
/* pixels */
".................................................",
".................................................",
".................................................",
"........................ ........................",
"........................ ........................",
".......................   .......................",
"....................... X .......................",
"...................... XXX ......................",
"...................... XXX ......................",
"...................... XXX ......................",
"..................... XXXXX .....................",
"..................... XXXXX .....................",
"..................... XXXXX .....................",
".................... XXXXXXX ....................",
".................... XXXXXXX ....................",
"................... XXXXXXXXX ...................",
"................... XXXXXXXXX ...................",
"................... XXXXXXXXX ...................",
".................. XXXXXXXXXXX ..................",
".................. XXXXXXXXXXX ..................",
"................. XXXXXXXXXXXXX .................",
"................. XXXXXXXXXXXXX .................",
"................. XXXXXX XXXXXX .................",
"................ XXXXXXX XXXXXXX ................",
"................ XXXXXXX XXXXXXX ................",
"................ XXXXXXX XXXXXXX ................",
"............... XXXXXXXX XXXXXXXX ...............",
"............... XXXXX       XXXXX ...............",
".............. XXXXXXXXX XXXXXXXXX ..............",
".............. XXXXXXXXX XXXXXXXXX ..............",
"............. XXXXXXXXXX XXXXXXXXXX .............",
".............  XXXXXXXXX XXXXXXXXX  .............",
"..............  XXXXXXXX XXXXXXXX  ..............",
"...............  XXXXXXXXXXXXXXX  ...............",
"................  XXXXXXXXXXXXX  ................",
".................  XXXXXXXXXXX  .................",
"..................  XXXXXXXXX  ..................",
"...................  XXXXXXX  ...................",
"....................  XXXXX  ....................",
".....................  XXX  .....................",
"......................     ......................",
".......................   .......................",
".......................   .......................",
".......................   .......................",
".......................   .......................",
".......................   .......................",
".......................   .......................",
".................................................",
"................................................."
};
