/* XPM */
static char *lld45[] = {
/* columns rows colors chars-per-pixel */
"45 45 3 1",
"  c black s dark_piece",
". c green s dark_square",
"X c white s light_piece",
/* pixels */
".............................................",
".............................................",
"...................... ......................",
"...................... ......................",
"..................... X .....................",
"..................... X .....................",
"..................... X .....................",
".................... XXX ....................",
".................... XXX ....................",
".................... XXX ....................",
"................... XXXXX ...................",
"................... XXXXX ...................",
"................... XXXXX ...................",
".................. XXXXXXX ..................",
".................. XXXXXXX ..................",
".................. XXXXXXX ..................",
"................. XXXXXXXXX .................",
"................. XXXXXXXXX .................",
"................. XXXXXXXXX .................",
"................ XXXXX XXXXX ................",
"................ XXXXX XXXXX ................",
"................ XXXXX XXXXX ................",
"............... XXXXXX XXXXXX ...............",
"............... XXXXXX XXXXXX ...............",
"............... XXXXXX XXXXXX ...............",
".............. XXXX       XXXX ..............",
".............. XXXXXXX XXXXXXX ..............",
".............. XXXXXXX XXXXXXX ..............",
"............. XXXXXXXX XXXXXXXX .............",
"............. XXXXXXXX XXXXXXXX .............",
".............. XXXXXXX XXXXXXX ..............",
"............... XXXXXXXXXXXXX ...............",
"................ XXXXXXXXXXX ................",
"................. XXXXXXXXX .................",
".................. XXXXXXX ..................",
"................... XXXXX ...................",
".................... X X ....................",
".....................   .....................",
".....................   .....................",
".....................   .....................",
".....................   .....................",
".....................   .....................",
".....................   .....................",
".....................   .....................",
"............................................."
};
