/* XPM */
static char *lld40[] = {
/* columns rows colors chars-per-pixel */
"40 40 3 1",
"  c black s dark_piece",
". c green s dark_square",
"X c white s light_piece",
/* pixels */
"........................................",
"........................................",
"................... ....................",
"................... ....................",
".................. X ...................",
".................. X ...................",
"................. XXX ..................",
"................. XXX ..................",
"................ XXXXX .................",
"................ XXXXX .................",
"................ XXXXX .................",
"............... XXXXXXX ................",
"............... XXXXXXX ................",
"............... XXXXXXX ................",
".............. XXXXXXXXX ...............",
".............. XXXXXXXXX ...............",
"............. XXXXX XXXXX ..............",
"............. XXXXX XXXXX ..............",
"............. XXXXX XXXXX ..............",
"............ XXXXXX XXXXXX .............",
"............ XXXXXX XXXXXX .............",
"............ XXX       XXX .............",
"........... XXXXXXX XXXXXXX ............",
"........... XXXXXXX XXXXXXX ............",
".......... XXXXXXXX XXXXXXXX ...........",
".......... XXXXXXXX XXXXXXXX ...........",
"........... XXXXXXX XXXXXXX ............",
"............ XXXXXXXXXXXXX .............",
"............. XXXXXXXXXXX ..............",
".............. XXXXXXXXX ...............",
"............... XXX XXX ................",
"................ X   X .................",
".................     ..................",
"..................   ...................",
"..................   ...................",
"..................   ...................",
"..................   ...................",
"..................   ...................",
"..................   ...................",
"........................................"
};
