/* XPM */
static char *lld58[] = {
/* columns rows colors chars-per-pixel */
"58 58 3 1",
"  c black s dark_piece",
". c green s dark_square",
"X c white s light_piece",
/* pixels */
"..........................................................",
"..........................................................",
"............................  ............................",
"............................  ............................",
"............................  ............................",
"...........................    ...........................",
"...........................    ...........................",
"..........................  XX  ..........................",
"..........................  XX  ..........................",
"..........................  XX  ..........................",
".........................  XXXX  .........................",
".........................  XXXX  .........................",
".........................  XXXX  .........................",
"........................  XXXXXX  ........................",
"........................  XXXXXX  ........................",
"........................  XXXXXX  ........................",
".......................  XXXXXXXX  .......................",
".......................  XXXXXXXX  .......................",
".......................  XXXXXXXX  .......................",
"......................  XXXXXXXXXX  ......................",
"......................  XXXXXXXXXX  ......................",
"......................  XXXXXXXXXX  ......................",
".....................  XXXXXXXXXXXX  .....................",
".....................  XXXXXXXXXXXX  .....................",
".....................  XXXXXXXXXXXX  .....................",
"....................  XXXXXX  XXXXXX  ....................",
"....................  XXXXXX  XXXXXX  ....................",
"....................  XXXXXX  XXXXXX  ....................",
"...................  XXXXXXX  XXXXXXX  ...................",
"...................  XXXXXXX  XXXXXXX  ...................",
"...................  XXXXXXX  XXXXXXX  ...................",
"..................  XXXXXXXX  XXXXXXXX  ..................",
"..................  XXXX          XXXX  ..................",
"..................  XXXX          XXXX  ..................",
".................  XXXXXXXXX  XXXXXXXXX  .................",
".................  XXXXXXXXX  XXXXXXXXX  .................",
".................  XXXXXXXXX  XXXXXXXXX  .................",
"................  XXXXXXXXXX  XXXXXXXXXX  ................",
"................   XXXXXXXXX  XXXXXXXXX   ................",
".................   XXXXXXXX  XXXXXXXX   .................",
"..................   XXXXXXXXXXXXXXXX   ..................",
"...................   XXXXXXXXXXXXXX   ...................",
"....................   XXXXXXXXXXXX   ....................",
".....................   XXXXXXXXXX   .....................",
"......................   XXXXXXXX   ......................",
".......................   XX  XX   .......................",
"........................          ........................",
".........................        .........................",
"..........................      ..........................",
"...........................    ...........................",
"...........................    ...........................",
"...........................    ...........................",
"...........................    ...........................",
"...........................    ...........................",
"...........................    ...........................",
"...........................    ...........................",
"..........................................................",
".........................................................."
};
