/* XPM */
static char *lld54[] = {
/* columns rows colors chars-per-pixel */
"54 54 3 1",
"  c black s dark_piece",
". c green s dark_square",
"X c white s light_piece",
/* pixels */
"......................................................",
"......................................................",
"..........................  ..........................",
"..........................  ..........................",
"..........................  ..........................",
".........................    .........................",
".........................    .........................",
"........................  XX  ........................",
"........................  XX  ........................",
"........................  XX  ........................",
".......................  XXXX  .......................",
".......................  XXXX  .......................",
".......................  XXXX  .......................",
"......................  XXXXXX  ......................",
"......................  XXXXXX  ......................",
"......................  XXXXXX  ......................",
".....................  XXXXXXXX  .....................",
".....................  XXXXXXXX  .....................",
".....................  XXXXXXXX  .....................",
"....................  XXXXXXXXXX  ....................",
"....................  XXXXXXXXXX  ....................",
"....................  XXXXXXXXXX  ....................",
"...................  XXXXXXXXXXXX  ...................",
"...................  XXXXX  XXXXX  ...................",
"...................  XXXXX  XXXXX  ...................",
"..................  XXXXXX  XXXXXX  ..................",
"..................  XXXXXX  XXXXXX  ..................",
"..................  XXXXXX  XXXXXX  ..................",
".................  XXXXXXX  XXXXXXX  .................",
".................  XXXXXXX  XXXXXXX  .................",
".................  XXX          XXX  .................",
"................  XXXX          XXXX  ................",
"................  XXXXXXXX  XXXXXXXX  ................",
"................  XXXXXXXX  XXXXXXXX  ................",
"...............  XXXXXXXXX  XXXXXXXXX  ...............",
"...............  XXXXXXXXX  XXXXXXXXX  ...............",
"...............   XXXXXXXX  XXXXXXXX   ...............",
"................   XXXXXXXXXXXXXXXX   ................",
".................   XXXXXXXXXXXXXX   .................",
"..................   XXXXXXXXXXXX   ..................",
"...................   XXXXXXXXXX   ...................",
"....................   XXXXXXXX   ....................",
".....................   XX  XX   .....................",
"......................          ......................",
".......................        .......................",
"........................      ........................",
".........................    .........................",
".........................    .........................",
".........................    .........................",
".........................    .........................",
".........................    .........................",
".........................    .........................",
"......................................................",
"......................................................"
};
