/* XPM */
static char *lld72[] = {
/* columns rows colors chars-per-pixel */
"72 72 3 1",
"  c black s dark_piece",
". c green s dark_square",
"X c white s light_piece",
/* pixels */
"........................................................................",
"........................................................................",
"........................................................................",
"........................................................................",
".................................... ...................................",
".................................... ...................................",
"...................................   ..................................",
"...................................   ..................................",
"..................................  X  .................................",
"..................................  X  .................................",
".................................. XXX .................................",
".................................  XXX  ................................",
".................................  XXX  ................................",
"................................  XXXXX  ...............................",
"................................  XXXXX  ...............................",
"................................ XXXXXXX ...............................",
"...............................  XXXXXXX  ..............................",
"...............................  XXXXXXX  ..............................",
"..............................  XXXXXXXXX  .............................",
"..............................  XXXXXXXXX  .............................",
".............................. XXXXXXXXXXX .............................",
".............................  XXXXXXXXXXX  ............................",
".............................  XXXXXXXXXXX  ............................",
"............................  XXXXXXXXXXXXX  ...........................",
"............................  XXXXXXXXXXXXX  ...........................",
"............................ XXXXXXXXXXXXXXX ...........................",
"...........................  XXXXXXXXXXXXXXX  ..........................",
"...........................  XXXXXXXXXXXXXXX  ..........................",
"..........................  XXXXXXXXXXXXXXXXX  .........................",
"..........................  XXXXXXXXXXXXXXXXX  .........................",
".......................... XXXXXXXXXXXXXXXXXXX .........................",
".........................  XXXXXXXXXXXXXXXXXXX  ........................",
".........................  XXXXXXXX   XXXXXXXX  ........................",
"........................  XXXXXXXXX   XXXXXXXXX  .......................",
"........................  XXXXXXXXX   XXXXXXXXX  .......................",
"........................ XXXXXXXXXX   XXXXXXXXXX .......................",
".......................  XXXXXXXXXX   XXXXXXXXXX  ......................",
".......................  XXXXXXXXXX   XXXXXXXXXX  ......................",
"......................  XXXXXXXXXXX   XXXXXXXXXXX  .....................",
"......................  XXXXXXXXXXX   XXXXXXXXXXX  .....................",
"......................  XXXXXX             XXXXXX  .....................",
".....................  XXXXXXX             XXXXXXX  ....................",
".....................  XXXXXXX             XXXXXXX  ....................",
"....................  XXXXXXXXXXXXX   XXXXXXXXXXXXX  ...................",
"....................  XXXXXXXXXXXXX   XXXXXXXXXXXXX  ...................",
"....................  XXXXXXXXXXXXX   XXXXXXXXXXXXX  ...................",
"...................  XXXXXXXXXXXXXX   XXXXXXXXXXXXXX  ..................",
"...................  XXXXXXXXXXXXXX   XXXXXXXXXXXXXX  ..................",
"...................   XXXXXXXXXXXXX   XXXXXXXXXXXXX   ..................",
"....................   XXXXXXXXXXXX   XXXXXXXXXXXX   ...................",
".....................   XXXXXXXXXXX   XXXXXXXXXXX   ....................",
"......................   XXXXXXXXXX   XXXXXXXXXX   .....................",
".......................   XXXXXXXXX   XXXXXXXXX   ......................",
"........................   XXXXXXXXXXXXXXXXXXX   .......................",
".........................   XXXXXXXXXXXXXXXXX   ........................",
"..........................   XXXXXXXXXXXXXXX   .........................",
"...........................   XXXXXXXXXXXXX   ..........................",
"............................   XXXXX XXXXX   ...........................",
".............................   XXXX XXXX   ............................",
"..............................   XX   XX   .............................",
"...............................   X   X   ..............................",
"................................         ...............................",
".................................       ................................",
"..................................     .................................",
"..................................     .................................",
"..................................     .................................",
"..................................     .................................",
"..................................     .................................",
"..................................     .................................",
"........................................................................",
"........................................................................",
"........................................................................"
};
