/* XPM */
static char *mdl49[] = {
/* columns rows colors chars-per-pixel */
"49 49 3 1",
"  c black s dark_piece",
". c gray s light_square",
"X c white s light_piece",
/* pixels */
".................................................",
".................................................",
".................................................",
".................................................",
"........................ ........................",
".......................   .......................",
"......................     ......................",
".....................       .....................",
".....................       .....................",
".....................       .....................",
"......................     ......................",
"......................     ......................",
"......................     ......................",
"...................... XXX ......................",
".................                ................",
"...............                   ...............",
"............                         ............",
"..........                             ..........",
".........                               .........",
".........                               .........",
".........                               .........",
"........                                 ........",
"........                                 ........",
"........                                 ........",
"........                                 ........",
".......                                  ........",
".......                                   .......",
".......            XXXXXXXXXXX            .......",
".......      XXXX               XXXX      .......",
".......   XX                         XX   .......",
"......                                     ......",
"......                                     ......",
"......                                     ......",
".....          XXXXXXXXXXXXXXXXXXX          .....",
"....     XXXXXX                   XXXXXX     ....",
"...   XXX                               XXX   ...",
"..  XX  XX                            XX   XX  ..",
".  X      XXXXXX                 XXXXX       X  .",
".               XXXXXXXXXXXXXXXXX               .",
".                                               .",
"..                                             ..",
"...                                           ...",
"......                                     ......",
".........                               .........",
"...............                   ...............",
".................................................",
".................................................",
".................................................",
"................................................."
};
