/* XPM */
static char *mdl72[] = {
/* columns rows colors chars-per-pixel */
"72 72 3 1",
"  c black s dark_piece",
". c gray s light_square",
"X c white s light_piece",
/* pixels */
"........................................................................",
"........................................................................",
"........................................................................",
"........................................................................",
"........................................................................",
"........................................................................",
"........................................................................",
"........................................................................",
"........................................................................",
"........................................................................",
"........................................................................",
".................................... ...................................",
"...................................   ..................................",
"..................................     .................................",
".................................       ................................",
"................................         ...............................",
"...............................           ..............................",
"...............................           ..............................",
"...............................           ..............................",
"................................         ...............................",
"................................         ...............................",
"................................         ...............................",
"................................         ...............................",
".................................  XXX  ................................",
".................................  XXX  ................................",
"...........................                   ..........................",
"........................                          ......................",
".....................                               ....................",
"..................                                    ..................",
".................                                      .................",
"................                                        ................",
"...............                                          ...............",
"...............                                          ...............",
"...............                                          ...............",
"..............                                            ..............",
"..............                                            ..............",
"..............                                            ..............",
"..............                                            ..............",
".............                                              .............",
".............                                              .............",
".............                                              .............",
".............                                              .............",
".............                                              .............",
"............               XXXXXXXXXXXXXXXXXXXX             ............",
"............        XXXXXX XXXXXXXXXXXXXXXXXXXX XXXXX       ............",
"............    XXXXXXXXXX                      XXXXXXXX    ............",
"............    XXXX                                 XXX    ............",
"...........                                                  ...........",
"...........                                                  ...........",
"...........                                                  ...........",
"..........                                                    ..........",
".........                                                      .........",
"........               XXXXXXXXXXXXXXXXXXXXXXXXXX               ........",
".......         XXXXXXXXXXXXXXXXXXXXXXXXXXXXXXXXXXXXXXXX         .......",
"......     XXXXXXXXXXXX                           XXXXXXXXXXX     ......",
".....    XXXXXXX                                       XXXXXXXX    .....",
"....    XXX  XXXXXXXXXXXXX                    XXXXXXXXXXXXX  XXX    ....",
"...             XXXXXXXXXXXXXXXXXXXXXXXXXXXXXXXXXXXXXXXX             ...",
"...                       XXXXXXXXXXXXXXXXXXXXX                      ...",
"...                                                                  ...",
"....                                                                ....",
".....                                                              .....",
".......                                                          .......",
"...........                                                  ...........",
"................                                        ................",
".......................                          .......................",
"........................................................................",
"........................................................................",
"........................................................................",
"........................................................................",
"........................................................................",
"........................................................................"
};
