/* XPM */
static char *mld72[] = {
/* columns rows colors chars-per-pixel */
"72 72 3 1",
"  c black s dark_piece",
". c green s dark_square",
"X c white s light_piece",
/* pixels */
"........................................................................",
"........................................................................",
"........................................................................",
"........................................................................",
"........................................................................",
"........................................................................",
"........................................................................",
"........................................................................",
"........................................................................",
"........................................................................",
"........................................................................",
".................................... ...................................",
"...................................   ..................................",
"..................................     .................................",
".................................   X   ................................",
"................................   XXX   ...............................",
"...............................   XXXXX   ..............................",
"...............................  XXXXXXX  ..............................",
"...............................  XXXXXXX  ..............................",
"................................  XXXXX  ...............................",
"................................  XXXXX  ...............................",
"................................  XXXXX  ...............................",
"................................  XXXXX  ...............................",
".................................  XXX  ................................",
".................................  XXX  ................................",
"...........................                   ..........................",
"........................                          ......................",
".....................      XXXXXXXXXXXXXXXXXXX      ....................",
"..................      XXXXXXXXXXXXXXXXXXXXXXXXXX    ..................",
".................    XXXXXXXXXXXXXXXXXXXXXXXXXXXXXXX   .................",
"................   XXXXXXXXXXXXXXXXXXXXXXXXXXXXXXXXXX   ................",
"...............   XXXXXXXXXXXXXXXXXXXXXXXXXXXXXXXXXXXX   ...............",
"...............  XXXXXXXXXXXXXXXXXXXXXXXXXXXXXXXXXXXXXX  ...............",
"...............  XXXXXXXXXXXXXXXXXXXXXXXXXXXXXXXXXXXXXX  ...............",
"..............  XXXXXXXXXXXXXXXXXXXXXXXXXXXXXXXXXXXXXXXX  ..............",
"..............  XXXXXXXXXXXXXXXXXXXXXXXXXXXXXXXXXXXXXXXX  ..............",
"..............  XXXXXXXXXXXXXXXXXXXXXXXXXXXXXXXXXXXXXXXX  ..............",
"..............  XXXXXXXXXXXXXXXXXXXXXXXXXXXXXXXXXXXXXXXX  ..............",
".............  XXXXXXXXXXXXXXXXXXXXXXXXXXXXXXXXXXXXXXXXXX  .............",
".............  XXXXXXXXXXXXXXXXXXXXXXXXXXXXXXXXXXXXXXXXXX  .............",
".............  XXXXXXXXXXXXXXXXXXXXXXXXXXXXXXXXXXXXXXXXXX  .............",
".............  XXXXXXXXXXXXXXXXXXXXXXXXXXXXXXXXXXXXXXXXXX  .............",
"............. XXXXXXXXXXXXXXXXXXXXXXXXXXXXXXXXXXXXXXXXXXX  .............",
"............  XXXXXXXXXXXXX                    XXXXXXXXXXX  ............",
"............  XXXXXX      X                    X     XXXXX  ............",
"............  XX          XXXXXXXXXXXXXXXXXXXXXX        XX  ............",
"............  XX    XXXXXXXXXXXXXXXXXXXXXXXXXXXXXXXXX   XX  ............",
"...........  XXXXXXXXXXXXXXXXXXXXXXXXXXXXXXXXXXXXXXXXXXXXXX  ...........",
"...........  XXXXXXXXXXXXXXXXXXXXXXXXXXXXXXXXXXXXXXXXXXXXXX  ...........",
"...........  XXXXXXXXXXXXXXXXXXXXXXXXXXXXXXXXXXXXXXXXXXXXXX  ...........",
"..........   XXXXXXXXXXXXXXXXXXXXXXXXXXXXXXXXXXXXXXXXXXXXXX   ..........",
".........   XXXXXXXXXXXXXXXXXXXXXXXXXXXXXXXXXXXXXXXXXXXXXXXX   .........",
"........   XXXXXXXXXXXX                          XXXXXXXXXXXX   ........",
".......   XXXXXX                                        XXXXXX   .......",
"......   XX            XXXXXXXXXXXXXXXXXXXXXXXXXXX           XX   ......",
".....           XXXXXXXXXXXXXXXXXXXXXXXXXXXXXXXXXXXXXXX            .....",
"....      XXX             XXXXXXXXXXXXXXXXXXXX             XX       ....",
"...    XXXXXXXXX                                        XXXXXXXXX    ...",
"...   XXXXXXXXXXXXXXXXXXXX                     XXXXXXXXXXXXXXXXXXX   ...",
"...   XXXXXXXXXXXXXXXXXXXXXXXXXXXXXXXXXXXXXXXXXXXXXXXXXXXXXXXXXXXX   ...",
"....     XXXXXXXXXXXXXXXXXXXXXXXXXXXXXXXXXXXXXXXXXXXXXXXXXXXXXXX    ....",
".....       XXXXXXXXXXXXXXXXXXXXXXXXXXXXXXXXXXXXXXXXXXXXXXX        .....",
".......         XXXXXXXXXXXXXXXXXXXXXXXXXXXXXXXXXXXXXX           .......",
"...........              XXXXXXXXXXXXXXXXXXXXX               ...........",
"................                                        ................",
".......................                          .......................",
"........................................................................",
"........................................................................",
"........................................................................",
"........................................................................",
"........................................................................",
"........................................................................"
};
