/* XPM */
static char *mll33[] = {
/* columns rows colors chars-per-pixel */
"33 33 3 1",
"  c black s dark_piece",
". c gray s light_square",
"X c white s light_piece",
/* pixels */
".................................",
".................................",
".................................",
".................................",
".................................",
"................ ................",
"............... X ...............",
".............. XXX ..............",
".............. XXX ..............",
"............... X ...............",
"............... X ...............",
"...........           ...........",
"........   XXXXXXXXXXX   ........",
"....... XXXXXXXXXXXXXXXXX .......",
"...... XXXXXXXXXXXXXXXXXXX ......",
"...... XXXXXXXXXXXXXXXXXXX ......",
"..... XXXXXXXXXXXXXXXXXXXXX .....",
"..... XXXXXXXXXXXXXXXXXXXXX .....",
"..... XXXXXXXXXXXXXXXXXXXXX .....",
"..... XXXXXXXXXXXXXXXXXXXXX .....",
".... XXXXXXXXXXXXXXXXXXXXXXX ....",
".... XXXXXXXXXXXXXXXXXXXXXXX ....",
".... XXXXX             XXXXX ....",
"... X     XXXXXXXXXXXXX     X ...",
"...  XXXXXXXXXXXXXXXXXXXXXXX  ...",
".. XXXXXXXXXXXXXXXXXXXXXXXXXXX ..",
".. XXXXXXXXXXXXXXXXXXXXXXXXXXX ..",
"...  XXXXXXXXXXXXXXXXXXXXXXX  ...",
".....     XXXXXXXXXXXXX     .....",
"..........             ..........",
".................................",
".................................",
"................................."
};
