/* XPM */
static char *mll49[] = {
/* columns rows colors chars-per-pixel */
"49 49 3 1",
"  c black s dark_piece",
". c gray s light_square",
"X c white s light_piece",
/* pixels */
".................................................",
".................................................",
".................................................",
".................................................",
"........................ ........................",
"....................... X .......................",
"...................... XXX ......................",
"..................... XXXXX .....................",
"..................... XXXXX .....................",
"..................... XXXXX .....................",
"...................... XXX ......................",
"...................... XXX ......................",
"...................... XXX ......................",
"....................... X .......................",
".................                ................",
"...............  XXXXXXXXXXXXXXX  ...............",
"............   XXXXXXXXXXXXXXXXXXX   ............",
"..........  XXXXXXXXXXXXXXXXXXXXXXXXX  ..........",
"......... XXXXXXXXXXXXXXXXXXXXXXXXXXXXX .........",
"......... XXXXXXXXXXXXXXXXXXXXXXXXXXXXX .........",
"......... XXXXXXXXXXXXXXXXXXXXXXXXXXXXX .........",
"........ XXXXXXXXXXXXXXXXXXXXXXXXXXXXXXX ........",
"........ XXXXXXXXXXXXXXXXXXXXXXXXXXXXXXX ........",
"........ XXXXXXXXXXXXXXXXXXXXXXXXXXXXXXX ........",
"........ XXXXXXXXXXXXXXXXXXXXXXXXXXXXXXX ........",
"....... XXXXXXXXXXXXXXXXXXXXXXXXXXXXXXXX ........",
"....... XXXXXXXXXXXXXXXXXXXXXXXXXXXXXXXXX .......",
"....... XXXXXXXXXXX           XXXXXXXXXXX .......",
"....... XXXXX    XXXXXXXXXXXXXXX    XXXXX .......",
"....... XX  XXXXXXXXXXXXXXXXXXXXXXXXX  XX .......",
"...... XXXXXXXXXXXXXXXXXXXXXXXXXXXXXXXXXXX ......",
"...... XXXXXXXXXXXXXXXXXXXXXXXXXXXXXXXXXXX ......",
"...... XXXXXXXXXXXXXXXXXXXXXXXXXXXXXXXXXXX ......",
"..... XXXXXXXXX                   XXXXXXXXX .....",
".... XXXX      XXXXXXXXXXXXXXXXXXX      XXXX ....",
"... XX   XXXXXXXXXXXXXXXXXXXXXXXXXXXXXXX   XX ...",
"..    XX  XXXXXXXXXXXXXXXXXXXXXXXXXXXXX  XX    ..",
".  XXXXXXX      XXXXXXXXXXXXXXXXX      XXXXXXX  .",
". XXXXXXXXXXXXXX                 XXXXXXXXXXXXXX .",
". XXXXXXXXXXXXXXXXXXXXXXXXXXXXXXXXXXXXXXXXXXXXX .",
".. XXXXXXXXXXXXXXXXXXXXXXXXXXXXXXXXXXXXXXXXXXX ..",
"...   XXXXXXXXXXXXXXXXXXXXXXXXXXXXXXXXXXXXX   ...",
"......   XXXXXXXXXXXXXXXXXXXXXXXXXXXXXXX   ......",
".........      XXXXXXXXXXXXXXXXXXX      .........",
"...............                   ...............",
".................................................",
".................................................",
".................................................",
"................................................."
};
