/* XPM */
static char *odl49[] = {
/* columns rows colors chars-per-pixel */
"49 49 3 1",
"  c black s dark_piece",
". c gray s light_square",
"X c white s light_piece",
/* pixels */
".................................................",
".................................................",
".................................................",
".................................................",
".................................................",
".................................................",
".................................................",
".................................................",
".................................................",
"...... ..........................................",
"......   ........................................",
".....       .....................................",
".....           .................................",
".....              ..............................",
"....                  ...........................",
"....                      .......................",
"....                         ....................",
".......                         .................",
".........                          ..............",
"...........                            ..........",
".............                             .......",
"...............                             .....",
"................. XXXXXXXXXXXXXXXX           ....",
".................                X           ....",
".................                X           ....",
"......                           XXXXXXXXXX .....",
"......                                    X  ....",
"......                                    X  ....",
"......                                    X  ....",
"......                                     ......",
"......                                     ......",
"......                                     ......",
"......                                     ......",
"......                                     ......",
"......                                     ......",
"......                                     ......",
"......                                     ......",
"......                                     ......",
"......      XX                     XX      ......",
"......     XXXX                   XXXX     ......",
"......    XXXXXX                 XXXXXX    ......",
"......    XXXXXX                 XXXXXX    ......",
"......... XXXXXX ............... XXXXXX .........",
".......... XXXX ................. XXXX ..........",
"..........  XX  .................  XX  ..........",
"............  .....................  ............",
".................................................",
".................................................",
"................................................."
};
