/* XPM */
static char *odl72[] = {
/* columns rows colors chars-per-pixel */
"72 72 3 1",
"  c black s dark_piece",
". c gray s light_square",
"X c white s light_piece",
/* pixels */
"........................................................................",
"........................................................................",
"........................................................................",
"........................................................................",
"........................................................................",
"........................................................................",
"........................................................................",
"........................................................................",
"........................................................................",
"........................................................................",
"........................................................................",
"........................................................................",
"........................................................................",
"........................................................................",
"........  ..............................................................",
"........  ..............................................................",
".......      ...........................................................",
".......         ........................................................",
"......              ....................................................",
"......                 .................................................",
"......                    ..............................................",
".....                        ...........................................",
".....                           ........................................",
"....                               .....................................",
"....                                   .................................",
"....  ..                                  ..............................",
"..........                                   ...........................",
"............                                    ........................",
"...............                                    .....................",
".................                                      .................",
"...................                                       ..............",
".....................                                        ...........",
".....................  XXXXXXXXXXXXXXXXXXXXXXXXXXX               .......",
".....................  XXXXXXXXXXXXXXXXXXXXXXXXXXX                 .....",
".....................                           XX                 .....",
".....................                           XX                 .....",
"........                                        XXXXXXXXXXXXXXX    .....",
"........                                        XXXXXXXXXXXXXXX   ......",
"........                                                     XX   ......",
"........                                                     XX    .....",
"........                                                     XX     ....",
"........                                                     XX     ....",
"........                                                     XX     ....",
"........                                                     XX    .....",
"........                                                          ......",
"........                                                       .........",
"........                                                       .........",
"........                                                       .........",
"........                                                       .........",
"........                                                       .........",
"........                                                       .........",
"........                                                       .........",
"........                                                       .........",
"........                                                       .........",
"........                                                       .........",
"........                                                       .........",
"........           XXXX                         XXXX           .........",
"........          XXXXXX                       XXXXXX          .........",
"........         XXXXXXXX                     XXXXXXXX         .........",
"........         XXXXXXXX                     XXXXXXXX         .........",
"........         XXXXXXXX                     XXXXXXXX         .........",
"...............  XXXXXXXX  .................  XXXXXXXX  ................",
"...............  XXXXXXXX  .................  XXXXXXXX  ................",
"................  XXXXXX   ..................  XXXXXX   ................",
"................   XXXX   ...................   XXXX   .................",
".................        .....................        ..................",
"..................      .......................      ...................",
"........................................................................",
"........................................................................",
"........................................................................",
"........................................................................",
"........................................................................"
};
