/* XPM */
static char *old72[] = {
/* columns rows colors chars-per-pixel */
"72 72 3 1",
"  c black s dark_piece",
". c green s dark_square",
"X c white s light_piece",
/* pixels */
"........................................................................",
"........................................................................",
"........................................................................",
"........................................................................",
"........................................................................",
"........................................................................",
"........................................................................",
"........................................................................",
"........................................................................",
"........................................................................",
"........................................................................",
"........................................................................",
"........................................................................",
"........................................................................",
"........  ..............................................................",
"........  ..............................................................",
".......      ...........................................................",
".......         ........................................................",
"......   XXX        ....................................................",
"......   XXXXXXX       .................................................",
"......  XXXXXXXXXXX       ..............................................",
".....   XXXXXXXXXXXXXX       ...........................................",
".....   XXXXXXXXXXXXXXXXX       ........................................",
"....     XXXXXXXXXXXXXXXXXXX       .....................................",
"....       XXXXXXXXXXXXXXXXXXXXX       .................................",
"....  ..     XXXXXXXXXXXXXXXXXXXXXX       ..............................",
"..........      XXXXXXXXXXXXXXXXXXXXXX       ...........................",
"............      XXXXXXXXXXXXXXXXXXXXXXX       ........................",
"...............     XXXXXXXXXXXXXXXXXXXXXXXXX      .....................",
".................      XXXXXXXXXXXXXXXXXXXXXXXXX       .................",
"...................      XXXXXXXXXXXXXXXXXXXXXXXXXX       ..............",
".....................      XXXXXXXXXXXXXXXXXXXXXXXXXXX       ...........",
".....................                             XXXXXXX        .......",
".....................                             XXXXXXXXXXX      .....",
".....................  XXXXXXXXXXXXXXXXXXXXXXXXX  XXXXXXXXXXXXXX   .....",
".....................  XXXXXXXXXXXXXXXXXXXXXXXXX  XXXXXXXXXXXXXXX  .....",
"........               XXXXXXXXXXXXXXXXXXXXXXXXX               XX  .....",
"........               XXXXXXXXXXXXXXXXXXXXXXXXX               X  ......",
"........  XXXXXXXXXXXXXXXXXXXXXXXXXXXXXXXXXXXXXXXXXXXXXXXXXXX  X  ......",
"........  XXXXXXXXXXXXXXXXXXXXXXXXXXXXXXXXXXXXXXXXXXXXXXXXXXX  X   .....",
"........  XXXXXXXXXXXXXXXXXXXXXXXXXXXXXXXXXXXXXXXXXXXXXXXXXXX       ....",
"........  XXXXXXXXXXXXXXXXXXXXXXXXXXXXXXXXXXXXXXXXXXXXXXXXXXX   XX  ....",
"........  XXXXXXXXXXXXXXXXXXXXXXXXXXXXXXXXXXXXXXXXXXXXXXXXXXX   XX  ....",
"........  XXXXXXXXXXXXXXXXXXXXXXXXXXXXXXXXXXXXXXXXXXXXXXXXXXX      .....",
"........  XXXXXXXXXXXXXXXXXXXXXXXXXXXXXXXXXXXXXXXXXXXXXXXXXXX     ......",
"........  XXXXXXXXXXXXXXXXXXXXXXXXXXXXXXXXXXXXXXXXXXXXXXXXXXX  .........",
"........  XXXXXXXXXXXXXXXXXXXXXXXXXXXXXXXXXXXXXXXXXXXXXXXXXXX  .........",
"........  XXXXXXXXXXXXXXXXXXXXXXXXXXXXXXXXXXXXXXXXXXXXXXXXXXX  .........",
"........  XXXXXXXXXXXXXXXXXXXXXXXXXXXXXXXXXXXXXXXXXXXXXXXXXXX  .........",
"........  XXXXXXXXXXXXXXXXXXXXXXXXXXXXXXXXXXXXXXXXXXXXXXXXXXX  .........",
"........  XXXXXXXXXXXXXXXXXXXXXXXXXXXXXXXXXXXXXXXXXXXXXXXXXXX  .........",
"........  XXXXXXXXXXXXXXXXXXXXXXXXXXXXXXXXXXXXXXXXXXXXXXXXXXX  .........",
"........  XXXXXXXXXXXXXXXXXXXXXXXXXXXXXXXXXXXXXXXXXXXXXXXXXXX  .........",
"........  XXXXXXXXXXXXXXXXXXXXXXXXXXXXXXXXXXXXXXXXXXXXXXXXXXX  .........",
"........  XXXXXXXXXXXXXXXXXXXXXXXXXXXXXXXXXXXXXXXXXXXXXXXXXXX  .........",
"........  XXXXXXXX      XXXXXXXXXXXXXXXXXXXXXX      XXXXXXXXX  .........",
"........  XXXXXXX        XXXXXXXXXXXXXXXXXXXX        XXXXXXXX  .........",
"........  XXXXXX   XXXX   XXXXXXXXXXXXXXXXXX   XXXX   XXXXXXX  .........",
"........  XXXXX   XXXXXX   XXXXXXXXXXXXXXXX   XXXXXX   XXXXXX  .........",
"........         XXXXXXXX                    XXXXXXXX          .........",
"........         XXXXXXXX                    XXXXXXXX          .........",
"...............  XXXXXXXX  ................  XXXXXXXX  .................",
"...............  XXXXXXXX  ................  XXXXXXXX  .................",
"................  XXXXXX   .................  XXXXXX   .................",
"................   XXXX   ..................   XXXX   ..................",
".................        ....................        ...................",
"..................      ......................      ....................",
"........................................................................",
"........................................................................",
"........................................................................",
"........................................................................",
"........................................................................"
};
