/* XPM */
static char *oll33[] = {
/* columns rows colors chars-per-pixel */
"33 33 3 1",
"  c black s dark_piece",
". c gray s light_square",
"X c white s light_piece",
/* pixels */
".................................",
".................................",
".................................",
"..... ...........................",
"..... ...........................",
"....   ..........................",
".... XX    ......................",
".... XXXXXX   ...................",
"... XXXXXXXXXX    ...............",
"..   XXXXXXXXXXXXX    ...........",
".. ..  XXXXXXXXXXXXXXX   ........",
".......  XXXXXXXXXXXXXXXX    ....",
".........  XXXXXXXXXXXXXXXXXX  ..",
"...........           XXXXXXXX ..",
"............ XXXXXXXX XXXXXXXX ..",
"............ XXXXXXXX XXXXXXX X .",
"....         XXXXXXXX         X .",
".... XXXXXXXXXXXXXXXXXXXXXXX   ..",
".... XXXXXXXXXXXXXXXXXXXXXXX ....",
".... XXXXXXXXXXXXXXXXXXXXXXX ....",
".... XXXXXXXXXXXXXXXXXXXXXXX ....",
".... XXXXXXXXXXXXXXXXXXXXXXX ....",
".... XXXXXXXXXXXXXXXXXXXXXXX ....",
".... XXXXXXXXXXXXXXXXXXXXXXX ....",
".... XXX   XXXXXXXXXX   XXXX ....",
".... XX XXX XXXXXXXX XXX XXX ....",
"....    XXX          XXX     ....",
"....... XXX ........ XXX ........",
"........   ..........   .........",
".................................",
".................................",
".................................",
"................................."
};
