/* XPM */
static char *oll49[] = {
/* columns rows colors chars-per-pixel */
"49 49 3 1",
"  c black s dark_piece",
". c gray s light_square",
"X c white s light_piece",
/* pixels */
".................................................",
".................................................",
".................................................",
".................................................",
".................................................",
".................................................",
".................................................",
".................................................",
".................................................",
"...... ..........................................",
"......   ........................................",
"..... XXX   .....................................",
"..... XXXXXX    .................................",
"..... XXXXXXXXXX   ..............................",
".... XXXXXXXXXXXXXX   ...........................",
".... XXXXXXXXXXXXXXXXX    .......................",
"....   XXXXXXXXXXXXXXXXXXX   ....................",
".......  XXXXXXXXXXXXXXXXXXXX   .................",
".........  XXXXXXXXXXXXXXXXXXXXX   ..............",
"...........  XXXXXXXXXXXXXXXXXXXXXX    ..........",
".............  XXXXXXXXXXXXXXXXXXXXXXXX   .......",
"...............  XXXXXXXXXXXXXXXXXXXXXXXXX  .....",
".................                 XXXXXXXXXX ....",
"................. XXXXXXXXXXXXXXX XXXXXXXXXX ....",
"................. XXXXXXXXXXXXXXX XXXXXXXXX  ....",
"......            XXXXXXXXXXXXXXX           .....",
"...... XXXXXXXXXXXXXXXXXXXXXXXXXXXXXXXXXXX   ....",
"...... XXXXXXXXXXXXXXXXXXXXXXXXXXXXXXXXXXX X ....",
"...... XXXXXXXXXXXXXXXXXXXXXXXXXXXXXXXXXXX   ....",
"...... XXXXXXXXXXXXXXXXXXXXXXXXXXXXXXXXXXX ......",
"...... XXXXXXXXXXXXXXXXXXXXXXXXXXXXXXXXXXX ......",
"...... XXXXXXXXXXXXXXXXXXXXXXXXXXXXXXXXXXX ......",
"...... XXXXXXXXXXXXXXXXXXXXXXXXXXXXXXXXXXX ......",
"...... XXXXXXXXXXXXXXXXXXXXXXXXXXXXXXXXXXX ......",
"...... XXXXXXXXXXXXXXXXXXXXXXXXXXXXXXXXXXX ......",
"...... XXXXXXXXXXXXXXXXXXXXXXXXXXXXXXXXXXX ......",
"...... XXXXXXXXXXXXXXXXXXXXXXXXXXXXXXXXXXX ......",
"...... XXXXXXXXXXXXXXXXXXXXXXXXXXXXXXXXXXX ......",
"...... XXXXX  XXXXXXXXXXXXXXXXXXXXX  XXXXX ......",
"...... XXX  XX  XXXXXXXXXXXXXXXXX  XX  XXX ......",
"...... XXX XXXX XXXXXXXXXXXXXXXXX XXXX XXX ......",
"......    XXXXXX                  XXXXX    ......",
"......... XXXXXX ............... XXXXXX .........",
".......... XXXX ................. XXXX ..........",
"..........  XX  .................  XX  ..........",
"............  .....................  ............",
".................................................",
".................................................",
"................................................."
};
