/* XPM */
static char *sdl49[] = {
/* columns rows colors chars-per-pixel */
"49 49 3 1",
"  c black s dark_piece",
". c gray s light_square",
"X c white s light_piece",
/* pixels */
".................................................",
".................................................",
".................................................",
".................................................",
".................................................",
".................................................",
".................................................",
".........................     ...................",
"....................           ..................",
"................                .................",
".............                    ................",
"...........                      ................",
"..........                        ...............",
"......... XXXXXX                XX  .............",
"........        XXX                   ...........",
"........           XXX                 ..........",
".......               XX              X .........",
".......                 XX            XX ........",
"......                    X      XX      ........",
"......                     X     XX       .......",
"......                      X             .......",
"......                       .            .......",
"......                      ....          .......",
"......                      .......     . .......",
".......                    ...............  .....",
".......                    .................   ..",
".......                   .................. ....",
".......                   ................... ...",
".......                  ........................",
".......                  ........................",
"........                .........................",
"........                .........................",
".........               .........................",
".........              ..........................",
"..........             ..........................",
"...........            ..........................",
"...........            ..........................",
"............           ..........................",
"............           ..........................",
".............          ..........................",
".............          ..........................",
".............          ..........................",
".............          ..........................",
"..............          .........................",
"..............          .........................",
"..............          .........................",
"..............          .........................",
".................................................",
"................................................."
};
