/* XPM */
static char *sdl72[] = {
/* columns rows colors chars-per-pixel */
"72 72 3 1",
"  c black s dark_piece",
". c gray s light_square",
"X c white s light_piece",
/* pixels */
"........................................................................",
"........................................................................",
"........................................................................",
"........................................................................",
"........................................................................",
"........................................................................",
"........................................................................",
"........................................................................",
"........................................................................",
"........................................................................",
".....................................     ..............................",
"................................            ............................",
".............................                 ..........................",
"........................                       .........................",
"......................                         .........................",
"...................                             ........................",
".................                                .......................",
"................                                  ......................",
"...............                               XXX  .....................",
".............   XXXXXXXXX                    XXXXX   ...................",
".............  XXXXXXXXXXXX                            .................",
"............            XXXXXX                          ................",
"...........                XXXXXX                        ...............",
"...........                   XXXXXX                  XXX ..............",
"..........                       XXXXX                 XXX .............",
"..........                         XXXX                 XX  ............",
".........                            XXX       XXXX          ...........",
".........                             XXX       XXX          ...........",
".........                              XXX      XXXX          ..........",
".........                               X                     ..........",
".........                                                     ..........",
".........                                 ..                  ..........",
".........                                 ...                 ..........",
".........                                ......               ..........",
".........                                .........         .   .........",
".........                                ....................    .......",
".........                               ......................       ...",
"..........                              ........................      ..",
"..........                             .........................  ......",
"..........                            ..........................   .....",
"..........                            ...........................   ....",
"..........                           ...................................",
"..........                           ...................................",
"...........                          ...................................",
"...........                         ....................................",
"...........                         ....................................",
"............                       .....................................",
"............                       .....................................",
".............                      .....................................",
".............                      .....................................",
"..............                    ......................................",
"...............                   ......................................",
"................                  ......................................",
"................                  ......................................",
".................                 ......................................",
"..................                ......................................",
"..................                ......................................",
"...................               ......................................",
"...................               ......................................",
"...................               ......................................",
"...................               ......................................",
"...................               ......................................",
"...................               ......................................",
"....................               .....................................",
"....................               .....................................",
"....................               .....................................",
"....................               .....................................",
"....................               .....................................",
"....................               .....................................",
"........................................................................",
"........................................................................",
"........................................................................"
};
