/* XPM */
static char *sld72[] = {
/* columns rows colors chars-per-pixel */
"72 72 3 1",
"  c black s dark_piece",
". c green s dark_square",
"X c white s light_piece",
/* pixels */
"........................................................................",
"........................................................................",
"........................................................................",
"........................................................................",
"........................................................................",
"........................................................................",
"........................................................................",
"........................................................................",
"........................................................................",
"........................................................................",
".....................................      .............................",
"................................             ...........................",
".............................        XXXXXX   ..........................",
"........................        XXXXXXXXXXXX   .........................",
"......................       XXXXXXXXXXXXXXXX  .........................",
"...................     XXXXXXXXXXXXXXXXXXXXXX  ........................",
".................     XXXXXXXXXXXXXXXXXXXXXXXX   .......................",
"................   XXXXXXXXXXXXXXXXXXXXXXXXXXXX   ......................",
"...............  XXXXXXXXXXXXXXXXXXXXXXXXXXXXXXX   .....................",
".............           XXXXXXXXXXXXXXXXXXXXXXX      ...................",
".............              XXXXXXXXXXXXXXXXXXX         .................",
"............   XXXXXXXXX      XXXXXXXXXXXXXXXXXXXXXXX   ................",
"...........  XXXXXXXXXXXXXX     XXXXXXXXXXXXXXXXXXXXXXX  ...............",
"...........  XXXXXXXXXXXXXXXX      XXXXXXXXXXXXXXXXXXX    ..............",
"..........  XXXXXXXXXXXXXXXXXXXX     XXXXXXXXXXXXXXXXXX    .............",
"..........  XXXXXXXXXXXXXXXXXXXXXXX   XXXXXXXXXXXXXXXXXX    ............",
".........  XXXXXXXXXXXXXXXXXXXXXXXXXX   XXXXXXX    XXXXXXXX  ...........",
".........  XXXXXXXXXXXXXXXXXXXXXXXXXXX   XXXXXXX   XXXXXXXX  ...........",
".........  XXXXXXXXXXXXXXXXXXXXXXXXXXXXX  XXXXXX    XXXXXXXX  ..........",
".........  XXXXXXXXXXXXXXXXXXXXXXXXXXXXXX   XXXXXXXXXXXXXXXX  ..........",
".........  XXXXXXXXXXXXXXXXXXXXXXXXXXXXX     XXXXXXXXXXXXXXX  ..........",
".........  XXXXXXXXXXXXXXXXXXXXXXXXXXXXX  ..   XXXXXXXXXXXXX  ..........",
".........  XXXXXXXXXXXXXXXXXXXXXXXXXXXXX  ...      XXXXXXXX   ..........",
".........  XXXXXXXXXXXXXXXXXXXXXXXXXXXX  ......               ..........",
".........  XXXXXXXXXXXXXXXXXXXXXXXXXXXX  ..........        .   .........",
".........  XXXXXXXXXXXXXXXXXXXXXXXXXXX   ....................    .......",
".........  XXXXXXXXXXXXXXXXXXXXXXXXXXX  ......................       ...",
"..........  XXXXXXXXXXXXXXXXXXXXXXXXX   ........................      ..",
"..........  XXXXXXXXXXXXXXXXXXXXXXXXX  .........................  ......",
"..........  XXXXXXXXXXXXXXXXXXXXXXXX  ..........................   .....",
"..........  XXXXXXXXXXXXXXXXXXXXXXXX  ...........................   ....",
"..........  XXXXXXXXXXXXXXXXXXXXXXX  ...................................",
"..........  XXXXXXXXXXXXXXXXXXXXXXX  ...................................",
"...........  XXXXXXXXXXXXXXXXXXXXXX  ...................................",
"...........  XXXXXXXXXXXXXXXXXXXXX  ....................................",
"...........  XXXXXXXXXXXXXXXXXXXXX  ....................................",
"............  XXXXXXXXXXXXXXXXXXX  .....................................",
"............   XXXXXXXXXXXXXXXXXX  .....................................",
".............  XXXXXXXXXXXXXXXXXX  .....................................",
".............   XXXXXXXXXXXXXXXXX  .....................................",
"..............   XXXXXXXXXXXXXXX  ......................................",
"...............   XXXXXXXXXXXXXX  ......................................",
"................  XXXXXXXXXXXXXX  ......................................",
"................   XXXXXXXXXXXXX  ......................................",
".................  XXXXXXXXXXXXX  ......................................",
"..................  XXXXXXXXXXXX  ......................................",
"..................  XXXXXXXXXXXX  ......................................",
"...................  XXXXXXXXXXX  ......................................",
"...................  XXXXXXXXXXX  ......................................",
"...................  XXXXXXXXXXX  ......................................",
"...................  XXXXXXXXXXX  ......................................",
"...................  XXXXXXXXXXX  ......................................",
"...................  XXXXXXXXXXX  ......................................",
"....................  XXXXXXXXXXX  .....................................",
"....................  XXXXXXXXXXX  .....................................",
"....................  XXXXXXXXXXX  .....................................",
"....................  XXXXXXXXXXX  .....................................",
"....................               .....................................",
"....................               .....................................",
"........................................................................",
"........................................................................",
"........................................................................"
};
