/* XPM */
static char *sll49[] = {
/* columns rows colors chars-per-pixel */
"49 49 3 1",
"  c black s dark_piece",
". c gray s light_square",
"X c white s light_piece",
/* pixels */
".................................................",
".................................................",
".................................................",
".................................................",
".................................................",
".................................................",
".................................................",
".........................     ...................",
"....................     XXXXX ..................",
"................    XXXXXXXXXXX .................",
".............   XXXXXXXXXXXXXXXX ................",
"...........  XXXXXXXXXXXXXXXXXXX ................",
".......... XXXXXXXXXXXXXXXXXXXXXX ...............",
".........       XXXXXXXXXXXXXXXX    .............",
"........  XXXXXX   XXXXXXXXXXXXXXXXX  ...........",
"........ XXXXXXXXXX   XXXXXXXXXXXXXXXX ..........",
"....... XXXXXXXXXXXXXX  XXXXXXXXXXXXXX  .........",
"....... XXXXXXXXXXXXXXXX  XXXXXXXXXXXX   ........",
"...... XXXXXXXXXXXXXXXXXXX XXXXXX  XXXXX ........",
"...... XXXXXXXXXXXXXXXXXXXX XXXXX  XXXXXX .......",
"...... XXXXXXXXXXXXXXXXXXXXX  XXXXXXXXXXX .......",
"...... XXXXXXXXXXXXXXXXXXXXX .  XXXXXXXXX .......",
"...... XXXXXXXXXXXXXXXXXXXX ....   XXXXX  .......",
"...... XXXXXXXXXXXXXXXXXXXX .......     . .......",
"....... XXXXXXXXXXXXXXXXXX ...............  .....",
"....... XXXXXXXXXXXXXXXXXX .................   ..",
"....... XXXXXXXXXXXXXXXXX .................. ....",
"....... XXXXXXXXXXXXXXXXX ................... ...",
"....... XXXXXXXXXXXXXXXX ........................",
"....... XXXXXXXXXXXXXXXX ........................",
"........ XXXXXXXXXXXXXX .........................",
"........ XXXXXXXXXXXXXX .........................",
"......... XXXXXXXXXXXXX .........................",
"......... XXXXXXXXXXXX ..........................",
".......... XXXXXXXXXXX ..........................",
"........... XXXXXXXXXX ..........................",
"........... XXXXXXXXXX ..........................",
"............ XXXXXXXXX ..........................",
"............ XXXXXXXXX ..........................",
"............. XXXXXXXX ..........................",
"............. XXXXXXXX ..........................",
"............. XXXXXXXX ..........................",
"............. XXXXXXXX ..........................",
".............. XXXXXXXX .........................",
".............. XXXXXXXX .........................",
".............. XXXXXXXX .........................",
"..............          .........................",
".................................................",
"................................................."
};
