/* XPM */
static char *udl72[] = {
/* columns rows colors chars-per-pixel */
"72 72 3 1",
"  c black s dark_piece",
". c gray s light_square",
"X c white s light_piece",
/* pixels */
"........................................................................",
"........................................................................",
"........................................................................",
".  .....................................................................",
".   ............................ .......................................",
"..    ...........   ...........   ......................................",
"..     ...........   .........    ......................................",
"...  X  ..........     ......      .....................................",
"....  X   ........      .....      .....................................",
".....  XX  .......       ...        ....................................",
"......  XX  ......        ..        ....................................",
".......  XX   ....          X      X     ...............................",
"........  XX   ...       X XX      XX       ............................",
".........  XXX  ..      XX X       XX          .........................",
"..........  XXX  .     XXX          X            .......................",
"...........  XXX      XXX                          .....................",
"............  XXX     X                             ....................",
".............  XXX                                   ...................",
"..............  X                                     ..................",
"..............                                         .................",
".............         XX                                ................",
".............       XXX                                  ...............",
".............      XXXX                                  ...............",
".............     XXXXX                                   ..............",
".............     XXXX                                     .............",
"............      X                                        .............",
"............                                                ............",
"............                                                ............",
"...........                                                  ...........",
"...........                                                  ...........",
"..........                                                    ..........",
"..........                                                    ..........",
".........                                                     ..........",
"........                                                       .........",
"........                                                       .........",
".......                                                        .........",
"......                                                          ........",
"......                             .                            ........",
".....                            ...                            ........",
".....                          .....                            ........",
".....    XX                  .......                             .......",
"....    XXXX               ........                              .......",
"....    XXXX             ..........                              .......",
"....    XXX             ..........                               .......",
"....    XXX            ...........                               .......",
"....                  ...........                                 ......",
"....                   .........                                  ......",
"....                X    .......                                  ......",
".....               XXX  ......                                   ......",
"......             XX   ......                                    ......",
"........    .       XX  .....                                     ......",
"..............   .   X .....                                      ......",
"...................     ...                                       ......",
"....................    ...                                        .....",
"..........................                                         .....",
".........................                                          .....",
"........................                                           .....",
"........................                                           .....",
".......................                                            .....",
"......................                                             .....",
"......................                                             .....",
"......................                                             .....",
".....................                                              .....",
".....................                                              .....",
".....................                                              .....",
".....................                                              .....",
".....................                                              .....",
"........................................................................",
"........................................................................",
"........................................................................",
"........................................................................",
"........................................................................"
};
