/* XPM */
static char *uld49[] = {
/* columns rows colors chars-per-pixel */
"49 49 3 1",
"  c black s dark_piece",
". c green s dark_square",
"X c white s light_piece",
/* pixels */
".................................................",
".  ..............................................",
"..  .............................................",
"..   ............................................",
"... X ...... ........ ...........................",
".... X .....   ..... X ..........................",
".... XX .... XX .... XX .........................",
"..... XX ... XXX .. XXX .........................",
"...... XX .. XXXX   XXX    ......................",
"....... XX .. XX  X XXX XXX   ...................",
"....... XXX  XX XXXXXXXXXXXXXX  .................",
"........ XXX XXXXXXXXXXXXXXXXXXX ................",
"......... XX XXXXXXXXXXXXXXXXXXXX  ..............",
"..........  XXXXXXXXXXXXXXXXXXXXXX  .............",
".........  XXXX XXXXXXXXXXXXXXXXXXX  ............",
"......... XXX  XXXXXXXXXXXXXXXXXXXXX  ...........",
"......... XXX XXXXXXXXXXXXXXXXXXXXXXX ...........",
"......... XX XXXXXXXXXXXXXXXXXXXXXXXX  ..........",
"........ XXXXXXXXXXXXXXXX XXXXXXXXXXXX  .........",
"........ XXXXXXXXXXXXXXXX XXXXXXXXXXXX  .........",
"........ XXXXXXXXXXXXXXXX XXXXXXXXXXXXX  ........",
"....... XXXXXXXXXXXXXXXXX XXXXXXXXXXXXX  ........",
"....... XXXXXXXXXXXXXXXX XXXXXXXXXXXXXXX ........",
"...... XXXXXXXXXXXXXXXXX XXXXXXXXXXXXXXX  .......",
"..... XXXXXXXXXXXXXXXXX . XXXXXXXXXXXXXX  .......",
"..... XXXXXXXXXXXXXXXX .. XXXXXXXXXXXXXXX .......",
".... XXXXXXXXXXXXXXX  ... XXXXXXXXXXXXXXX  ......",
".... XXXXXXXXXXXXXX ..... XXXXXXXXXXXXXXX  ......",
"... XX  XXXXXXXXX  ...... XXXXXXXXXXXXXXX  ......",
"... XX XXXXXXXXX ....... XXXXXXXXXXXXXXXXX ......",
"... XXXXXXXXXXX ........ XXXXXXXXXXXXXXXXX  .....",
"... XXXXXX XXX  ....... XXXXXXXXXXXXXXXXXX  .....",
"... XXXXX XXX XX ..... XXXXXXXXXXXXXXXXXXX  .....",
".... XXXX XX XXX .... XXXXXXXXXXXXXXXXXXXX  .....",
".....     X  XX . .. XXXXXXXXXXXXXXXXXXXXX  .....",
"..........  . X ... XXXXXXXXXXXXXXXXXXXXXXX .....",
".............. ... XXXXXXXXXXXXXXXXXXXXXXXX  ....",
"............... .. XXXXXXXXXXXXXXXXXXXXXXXX  ....",
"................. XXXXXXXXXXXXXXXXXXXXXXXXX  ....",
"................ XXXXXXXXXXXXXXXXXXXXXXXXXX  ....",
"............... XXXXXXXXXXXXXXXXXXXXXXXXXXX  ....",
"............... XXXXXXXXXXXXXXXXXXXXXXXXXXX  ....",
".............. XXXXXXXXXXXXXXXXXXXXXXXXXXXX  ....",
".............. XXXXXXXXXXXXXXXXXXXXXXXXXXXX  ....",
".............. XXXXXXXXXXXXXXXXXXXXXXXXXXXX  ....",
"..............                              .....",
".................................................",
".................................................",
"................................................."
};
