/* XPM */
static char *ull72[] = {
/* columns rows colors chars-per-pixel */
"72 72 3 1",
"  c black s dark_piece",
". c gray s light_square",
"X c white s light_piece",
/* pixels */
"........................................................................",
"........................................................................",
"........................................................................",
".  .....................................................................",
".   ............................ .......................................",
"..    ...........   ...........   ......................................",
"..     ...........   .........    ......................................",
"...  X  ..........     ......      .....................................",
"....  X   ........  X   .....  XX  .....................................",
".....  XX  .......  XX   ...   XX   ....................................",
"......  XX  ......  XXX   ..  XXXX  ....................................",
".......  XX   ....  XXXX      XXXX       ...............................",
"........  XX   ...  XXXXX     XXXX          ............................",
".........  XXX  ..   XXX   X  XXXXX  XXXX      .........................",
"..........  XXX  .   XX   XXXXXXXXX  XXXXXXX     .......................",
"...........  XXX    XX   XXXXXXXXXXXXXXXXXXXXX     .....................",
"............  XXX   XX XXXXXXXXXXXXXXXXXXXXXXXX     ....................",
".............  XXX  XXXXXXXXXXXXXXXXXXXXXXXXXXXXX    ...................",
"..............  X   XXXXXXXXXXXXXXXXXXXXXXXXXXXXXX    ..................",
"..............     XXXXXXXXXXXXXXXXXXXXXXXXXXXXXXXX    .................",
".............     XXXX  XXXXXXXXXXXXXXXXXXXXXXXXXXXX    ................",
".............  XXXXX   XXXXXXXXXXXXXXXXXXXXXXXXXXXXX     ...............",
".............  XXXX    XXXXXXXXXXXXXXXXXXXXXXXXXXXXXX    ...............",
".............  XXX     XXXXXXXXXXXXXXXXXXXXXXXXXXXXXXX    ..............",
".............  XXX    XXXXXXXXXXXXXXXXXXXXXXXXXXXXXXXX     .............",
"............   XXX XXXXXXXXXXXXXXXXXXXXXXXXXXXXXXXXXXXX    .............",
"............  XXXXXXXXXXXXXXXXXXXXXXX  XXXXXXXXXXXXXXXXX    ............",
"............  XXXXXXXXXXXXXXXXXXXXXXX  XXXXXXXXXXXXXXXXX    ............",
"...........   XXXXXXXXXXXXXXXXXXXXXXX  XXXXXXXXXXXXXXXXXX    ...........",
"...........  XXXXXXXXXXXXXXXXXXXXXXXX  XXXXXXXXXXXXXXXXXX    ...........",
"..........   XXXXXXXXXXXXXXXXXXXXXXXX  XXXXXXXXXXXXXXXXXX     ..........",
"..........  XXXXXXXXXXXXXXXXXXXXXXXX   XXXXXXXXXXXXXXXXXXX    ..........",
".........   XXXXXXXXXXXXXXXXXXXXXXXX  XXXXXXXXXXXXXXXXXXXX    ..........",
"........   XXXXXXXXXXXXXXXXXXXXXXXXX  XXXXXXXXXXXXXXXXXXXX     .........",
"........  XXXXXXXXXXXXXXXXXXXXXXXXX   XXXXXXXXXXXXXXXXXXXXX    .........",
".......   XXXXXXXXXXXXXXXXXXXXXXXX    XXXXXXXXXXXXXXXXXXXXX    .........",
"......   XXXXXXXXXXXXXXXXXXXXXXXX     XXXXXXXXXXXXXXXXXXXXX     ........",
"......  XXXXXXXXXXXXXXXXXXXXXXX    .  XXXXXXXXXXXXXXXXXXXXXX    ........",
".....   XXXXXXXXXXXXXXXXXXXXX    ...  XXXXXXXXXXXXXXXXXXXXXX    ........",
".....  XXXXXXXXXXXXXXXXXXXX    .....  XXXXXXXXXXXXXXXXXXXXXX    ........",
".....  XX  XXXXXXXXXXXXXX    .......  XXXXXXXXXXXXXXXXXXXXXX     .......",
"....   X    XXXXXXXXXXX    ........   XXXXXXXXXXXXXXXXXXXXXXX    .......",
"....  XX    XXXXXXXXXX   ..........  XXXXXXXXXXXXXXXXXXXXXXXX    .......",
"....  XX   XXXXXXXXXX   ..........   XXXXXXXXXXXXXXXXXXXXXXXX    .......",
"....  XX   XXXXXXXXX   ...........  XXXXXXXXXXXXXXXXXXXXXXXXX    .......",
"....  XXXXXXXX  XXX   ...........   XXXXXXXXXXXXXXXXXXXXXXXXX     ......",
"....  XXXXXXXX  XX     .........   XXXXXXXXXXXXXXXXXXXXXXXXXXX    ......",
"....   XXXXXX   XX  X    .......  XXXXXXXXXXXXXXXXXXXXXXXXXXXX    ......",
".....   XXXX   XX   XXX  ......   XXXXXXXXXXXXXXXXXXXXXXXXXXXX    ......",
"......         X   XX   ......   XXXXXXXXXXXXXXXXXXXXXXXXXXXXX    ......",
"........    .       XX  .....   XXXXXXXXXXXXXXXXXXXXXXXXXXXXXX    ......",
"..............   .   X .....   XXXXXXXXXXXXXXXXXXXXXXXXXXXXXXX    ......",
"...................     ...   XXXXXXXXXXXXXXXXXXXXXXXXXXXXXXXX    ......",
"....................    ...  XXXXXXXXXXXXXXXXXXXXXXXXXXXXXXXXX     .....",
"..........................   XXXXXXXXXXXXXXXXXXXXXXXXXXXXXXXXX     .....",
".........................   XXXXXXXXXXXXXXXXXXXXXXXXXXXXXXXXXXX    .....",
"........................   XXXXXXXXXXXXXXXXXXXXXXXXXXXXXXXXXXXX    .....",
"........................  XXXXXXXXXXXXXXXXXXXXXXXXXXXXXXXXXXXXX    .....",
".......................   XXXXXXXXXXXXXXXXXXXXXXXXXXXXXXXXXXXXX    .....",
"......................   XXXXXXXXXXXXXXXXXXXXXXXXXXXXXXXXXXXXXX    .....",
"......................  XXXXXXXXXXXXXXXXXXXXXXXXXXXXXXXXXXXXXXX    .....",
"......................  XXXXXXXXXXXXXXXXXXXXXXXXXXXXXXXXXXXXXXX    .....",
".....................   XXXXXXXXXXXXXXXXXXXXXXXXXXXXXXXXXXXXXXX    .....",
".....................  XXXXXXXXXXXXXXXXXXXXXXXXXXXXXXXXXXXXXXXX    .....",
".....................  XXXXXXXXXXXXXXXXXXXXXXXXXXXXXXXXXXXXXXXX    .....",
".....................                                              .....",
".....................                                              .....",
"........................................................................",
"........................................................................",
"........................................................................",
"........................................................................",
"........................................................................"
};
