/* XPM */
static char *spinUp[] = {
/* columns rows colors chars-per-pixel */
"20 8 2 1",
"* c white",
". c black",
/* pixels */
"********************",
"*********..*********",
"*******......*******",
"*****..........*****",
"***..............***",
"*..................*",
"....................",
"********************"
};
