/* XPM */
static char *vdd33[] = {
/* columns rows colors chars-per-pixel */
"33 33 3 1",
"  c black s dark_piece",
". c green s dark_square",
"X c white s light_piece",
/* pixels */
".................................",
".................................",
".................................",
".................................",
".................................",
"..............      .............",
"............          ...........",
"..........              .........",
".........                ........",
"........        XXX      ........",
"........      XX   X      .......",
"........     XXX   X    X .......",
".......         XXX    XXX  .....",
".......                X     ....",
".......               X       ...",
".......             XXXXXXX   ...",
"......              X      .  ...",
"......                   .... ...",
"......                ...........",
"......             XX ...........",
"......           XX    ..........",
"......          X       .........",
"......                   ........",
"......              XXXX  .......",
"......             X    XX ......",
".....             X       X .....",
"....  X          X           ....",
"...    X         X            ...",
"...    X         X             ..",
"...     X         X            ..",
"....     .         .           ..",
".................................",
"................................."
};
