/* XPM */
static char *vdd49[] = {
/* columns rows colors chars-per-pixel */
"49 49 3 1",
"  c black s dark_piece",
". c green s dark_square",
"X c white s light_piece",
/* pixels */
".................................................",
".................................................",
".................................................",
".................................................",
".................................................",
".................................................",
".....................      ......................",
".................             ...................",
"...............                  ................",
"..............                    ...............",
".............                      ..............",
"............                        .............",
"...........             XXXX         ............",
"...........           XX    X        ............",
"..........          XX   XX  X        ...........",
"..........        XXX    XX  X     XX   .........",
"..........           XX     X      XX X   .......",
".........              XXXXX         X      .....",
".........                         XXX        ....",
".........                        X           ....",
"........                        X             ...",
"........                     XXXXXXXX         ...",
"........                    XX       XXXX     ...",
"........                      X          .    ...",
"........                               ....  ....",
"........                         ..........  ....",
"........                        ........... .....",
"........                       ..................",
".......                        ..................",
".......                       X .................",
".......                     XX    ...............",
".......                  XX        ..............",
".......                             .............",
".......                              ............",
".......                         XXX   ...........",
".......                       XX   X   ..........",
".......                      X      XX  .........",
".......                     X         X  ........",
".....  X                   X           XX .......",
"....   X                   X             X ......",
"...    X                  X                 .....",
"...     X                  X                 ....",
"...     X                  X                  ...",
"...     X                   X                 ...",
"....     X                  X                 ...",
"....     X                   X                ...",
".....                                         ...",
".................................................",
"................................................."
};
