/* XPM */
static char *vld49[] = {
/* columns rows colors chars-per-pixel */
"49 49 3 1",
"  c black s dark_piece",
". c green s dark_square",
"X c white s light_piece",
/* pixels */
".................................................",
".................................................",
".................................................",
".................................................",
".................................................",
".................................................",
".....................      ......................",
".................    XXXXXX   ...................",
"...............  XXXXXXXXXXXXX   ................",
".............. XXXXXXXXXXXXXXXXXX ...............",
"............. XXXXXXXXXXXXXXXXXXXX ..............",
"............ XXXXXXXXXXXXXXXXXXXXXX .............",
"........... XXXXXXXXXXXX    XXXXXXXX ............",
"........... XXXXXXXXXX  XXXX XXXXXXX ............",
".......... XXXXXXXXX  XXX  XX XXXXXXX ...........",
".......... XXXXXXX   XXXX  XX XXXXX  X  .........",
".......... XXXXXXXXXX  XXXXX XXXXXX  X X  .......",
"......... XXXXXXXXXXXXX     XXXXXXXXX XXXX  .....",
"......... XXXXXXXXXXXXXXXXXXXXXXXX   XXXXXXX ....",
"......... XXXXXXXXXXXXXXXXXXXXXXX XXXXXXXXXX ....",
"........ XXXXXXXXXXXXXXXXXXXXXXX XXXXXXXXXXXX ...",
"........ XXXXXXXXXXXXXXXXXXXX        XXXXXXXX ...",
"........ XXXXXXXXXXXXXXXXXXX  XXXXXXX     XXX ...",
"........ XXXXXXXXXXXXXXXXXXXXX XXXXXXX   . XX ...",
"........ XXXXXXXXXXXXXXXXXXXXXX        ....  ....",
"........ XXXXXXXXXXXXXXXXXXXXXXX ..........  ....",
"........ XXXXXXXXXXXXXXXXXXXXXX ........... .....",
"........ XXXXXXXXXXXXXXXXXXXXX ..................",
"....... XXXXXXXXXXXXXXXXXXXXXX ..................",
"....... XXXXXXXXXXXXXXXXXXXXXX  .................",
"....... XXXXXXXXXXXXXXXXXXXX  XX  ...............",
"....... XXXXXXXXXXXXXXXXX  XXXXXXX ..............",
"....... XXXXXXXXXXXXXXXXXXXXXXXXXXX .............",
"....... XXXXXXXXXXXXXXXXXXXXXXXXXXXX ............",
"....... XXXXXXXXXXXXXXXXXXXXXXXX   XX ...........",
"....... XXXXXXXXXXXXXXXXXXXXXX  XXX XX ..........",
"....... XXXXXXXXXXXXXXXXXXXXX XXXXXX  X .........",
"....... XXXXXXXXXXXXXXXXXXXX XXXXXXXXX X ........",
".....   XXXXXXXXXXXXXXXXXXX XXXXXXXXXXX   .......",
".... XX XXXXXXXXXXXXXXXXXXX XXXXXXXXXXXXX  ......",
"... XXX XXXXXXXXXXXXXXXXXX XXXXXXXXXXXXXXXX .....",
"... XXXX XXXXXXXXXXXXXXXXXX XXXXXXXXXXXXXXXX ....",
"... XXXX XXXXXXXXXXXXXXXXXX XXXXXXXXXXXXXXXXX ...",
"... XXXX XXXXXXXXXXXXXXXXXXX XXXXXXXXXXXXXXXX ...",
".... XXXX XXXXXXXXXXXXXXXXXX XXXXXXXXXXXXXXXX ...",
".... XXXX XXXXXXXXXXXXXXXXXXX XXXXXXXXXXXXXXX ...",
".....                                         ...",
".................................................",
"................................................."
};
