/* XPM */
static char *vld72[] = {
/* columns rows colors chars-per-pixel */
"72 72 3 1",
"  c black s dark_piece",
". c green s dark_square",
"X c white s light_piece",
/* pixels */
"........................................................................",
"........................................................................",
"........................................................................",
"........................................................................",
"........................................................................",
"........................................................................",
"........................................................................",
"........................................................................",
"........................................................................",
"........................................................................",
"........................................................................",
"........................................................................",
"........................................................................",
"..............................        ..................................",
"..........................                 .............................",
".......................       XXXXXXXXX      ...........................",
"......................    XXXXXXXXXXXXXXXXX    .........................",
".....................   XXXXXXXXXXXXXXXXXXXXXX  ........................",
"....................   XXXXXXXXXXXXXXXXXXXXXXXX  .......................",
"...................   XXXXXXXXXXXXXXXXXXXXXXXXXX  ......................",
"..................   XXXXXXXXXXXXXXXXXXXXXXXXXXXX  .....................",
"..................  XXXXXXXXXXXXXX      XXXXXXXXXX  ....................",
".................  XXXXXXXXXXXXX    XXX  XXXXXXXXX  ....................",
".................  XXXXXXXXXXXX   XX  XX  XXXXXXXXX  ...................",
"................  XXXXXXXXXXX    XX    XX  XXXXXX  X  ..................",
"................  XXXXXXXXX    XXXX    XX  XXXXX    X ..................",
"................  XXXXXXXXXXX    XXX  XX  XXXXXX    X   ................",
"...............  XXXXXXXXXXXXXX    XXXX  XXXXXXXX  X       .............",
"...............  XXXXXXXXXXXXXXXX       XXXXXXXXXXX  XXX     ...........",
"...............  XXXXXXXXXXXXXXXXXXXXXXXXXXXXXXX    XXXXXXX   ..........",
"..............  XXXXXXXXXXXXXXXXXXXXXXXXXXXXXXX   XXXXXXXXXX  ..........",
"..............  XXXXXXXXXXXXXXXXXXXXXXXXXXXXXX  XXXXXXXXXXXX  ..........",
"..............  XXXXXXXXXXXXXXXXXXXXXXXXXXX    XXXXXXXXXXXXXX  .........",
"..............  XXXXXXXXXXXXXXXXXXXXXXXXX           XXXXXXXXX  .........",
"..............  XXXXXXXXXXXXXXXXXXXXXXXX   XXXX            XX  .........",
".............  XXXXXXXXXXXXXXXXXXXXXXXXXX  XXXXXXXXX        X  .........",
".............  XXXXXXXXXXXXXXXXXXXXXXXXXXX               ..    .........",
".............  XXXXXXXXXXXXXXXXXXXXXXXXXXXX         ........   .........",
".............  XXXXXXXXXXXXXXXXXXXXXXXXXXXXX ................ ..........",
".............  XXXXXXXXXXXXXXXXXXXXXXXXXXXX  ................ ..........",
".............  XXXXXXXXXXXXXXXXXXXXXXXXXXXX  ...........................",
".............  XXXXXXXXXXXXXXXXXXXXXXXXXXX  ............................",
"............  XXXXXXXXXXXXXXXXXXXXXXXXXXXX  ............................",
"............  XXXXXXXXXXXXXXXXXXXXXXXXXX     ...........................",
"............  XXXXXXXXXXXXXXXXXXXXXXXXX   X  ...........................",
"............  XXXXXXXXXXXXXXXXXXXX   XXXXXX     ........................",
"............  XXXXXXXXXXXXXXXXXXX   XXXXXXXXX    .......................",
"............  XXXXXXXXXXXXXXXXXXXXXXXXXXXXXXXXXX  ......................",
"............  XXXXXXXXXXXXXXXXXXXXXXXXXXXXXXXXXXX  .....................",
"............  XXXXXXXXXXXXXXXXXXXXXXXXXXXXXXXXXXXX  ....................",
"............  XXXXXXXXXXXXXXXXXXXXXXXXXXXXXXX    XX  ...................",
"............  XXXXXXXXXXXXXXXXXXXXXXXXXXXX         X  ..................",
"............  XXXXXXXXXXXXXXXXXXXXXXXXXXX    XXXX   X  .................",
"............  XXXXXXXXXXXXXXXXXXXXXXXXXX   XXXXXXXX  X  ................",
"............  XXXXXXXXXXXXXXXXXXXXXXXXX   XXXXXXXXXX     ...............",
"..........    XXXXXXXXXXXXXXXXXXXXXXXXX  XXXXXXXXXXXX     ..............",
".........     XXXXXXXXXXXXXXXXXXXXXXXX  XXXXXXXXXXXXXXX    .............",
"........   X  XXXXXXXXXXXXXXXXXXXXXXXX  XXXXXXXXXXXXXXXXX   ............",
".......   XXX  XXXXXXXXXXXXXXXXXXXXXX  XXXXXXXXXXXXXXXXXXXX  ...........",
".......  XXXX  XXXXXXXXXXXXXXXXXXXXXX  XXXXXXXXXXXXXXXXXXXXX   .........",
".......  XXXX  XXXXXXXXXXXXXXXXXXXXXX  XXXXXXXXXXXXXXXXXXXXX   .........",
".......  XXXX   XXXXXXXXXXXXXXXXXXXXX  XXXXXXXXXXXXXXXXXXXXXXX  ........",
".......  XXXXX  XXXXXXXXXXXXXXXXXXXXX   XXXXXXXXXXXXXXXXXXXXXX  ........",
"........  XXXX  XXXXXXXXXXXXXXXXXXXXXX  XXXXXXXXXXXXXXXXXXXXXX  ........",
"........  XXXXX  XXXXXXXXXXXXXXXXXXXXX  XXXXXXXXXXXXXXXXXXXXXX  ........",
"........                                                        ........",
"..........                                                      ........",
"........................................................................",
"........................................................................",
"........................................................................",
"........................................................................",
"........................................................................"
};
