/* XPM */
static char *vll33[] = {
/* columns rows colors chars-per-pixel */
"33 33 3 1",
"  c black s dark_piece",
". c gray s light_square",
"X c white s light_piece",
/* pixels */
".................................",
".................................",
".................................",
".................................",
".................................",
"..............      .............",
"............  XXXXXX  ...........",
"..........  XXXXXXXXXX  .........",
"......... XXXXXXXXXXXXX  ........",
"........ XXXXXXX   XXXXX ........",
"........ XXXXX  X X XXXXX .......",
"........ XXXX   X X XXXX  .......",
"....... XXXXXXXX   XXXX     .....",
"....... XXXXXXXXXXXXXXX XXXX ....",
"....... XXXXXXXXXXXXXX XXXXXX ...",
"....... XXXXXXXXXXXX        X ...",
"...... XXXXXXXXXXXXX XXXX ..  ...",
"...... XXXXXXXXXXXXXX    .... ...",
"...... XXXXXXXXXXXXXX ...........",
"...... XXXXXXXXXXXX   ...........",
"...... XXXXXXXXXX  XXX ..........",
"...... XXXXXXXXX XXXXXX .........",
"...... XXXXXXXXXXXXXXXXX ........",
"...... XXXXXXXXXXXXX    X .......",
"...... XXXXXXXXXXXX XXXX   ......",
".....  XXXXXXXXXXX XXXXXXX  .....",
".... X XXXXXXXXXX XXXXXXXXXX ....",
"... XXX XXXXXXXXX XXXXXXXXXXX ...",
"... XXX XXXXXXXXX XXXXXXXXXXXX ..",
".... XXX XXXXXXXXX XXXXXXXXXXX ..",
".....                          ..",
".................................",
"................................."
};
