/* XPM */
static char *vll54[] = {
/* columns rows colors chars-per-pixel */
"54 54 3 1",
"  c black s dark_piece",
". c gray s light_square",
"X c white s light_piece",
/* pixels */
"......................................................",
"......................................................",
"......................................................",
"......................................................",
"......................................................",
"......................................................",
"......................................................",
"......................................................",
"......................XXXXXX..........................",
"..................XXXXXXXXXXXXX.......................",
".................XXXXXX      XXXXX....................",
"...............XXXX    XXXXXX   XXXX..................",
"..............XXXX XXXXXXXXXXXXX   XX.................",
".............XXX  XXXXXXXXXXXXXXXXX  X................",
"............XXX XXXXXXXXXXXXXXXXXXXXX X...............",
"...........XXX XXXXXXXXXX      XXXXXXX ...............",
"...........XX XXXXXXXXXX  X  X  XXXXXXX ..............",
"..........XX XXXXXXXXXX  X XX X  XXXXXX XX............",
"..........XX XXXXXXXX   X X  X X XXXXXXX XXX..........",
".........XX XXXXXXX    XX X  X X XXXXX  X  XXX........",
".........XX XXXXXXXXXXX  X XX X XXXXXX  X X  XX.......",
".........X XXX  XXXXXXXXX      XXXXXXXXX XXXX  X......",
"........XX XXXXXXX  XXXXXXXXXXXXXXXXX   XXXXXXX ......",
"........XX XXXXXXXXXXXX  XXXXXXXXXXX XXXXXXXXXXX .....",
"........X XXXXXX  XXXXXXXXXXXXXXXXX XXXXXXXXXXXX .....",
"........X XXXXXXXXXX  XXXXXXXXXX        XXX.XXXX .....",
"........X XXXX  XXXXXXXXXXXXXXX  XXXXXXX     XX. .....",
"........X XXXXXXXXXXXXXXXXXXX  XX X......   . X. .....",
"........X XXXXXXXXXXXXXXXXX  XXXXX        ...X  ......",
"........X XXXXXXXXXXXXXXXX XXXXXX.. ..........  ......",
".......XX XXXXXXXXXXXXXX  XXXXXXX. ........... .......",
".......XX XXXXXXXXXX    XXXXXXXXX ....................",
".......X XXXXXXX    XXXXXXXXXXXXX XX..................",
".......X XXXXXXXXXXXXXXXXXXXXXXXX  XX.................",
".......X XXXXXXXXXXXXXXXXXXXXXX  XX  X................",
".......X XXXXXXXXXXXXXXXXXXX  XXXXXXX X...............",
".......X XXXXXXXXXXXXXXXXXXXXXXXXXXXXX X..............",
".......X XXXXXXXXXXXXXXXX  XXXXXXXXXXXX X.............",
".......X XXXXXXXXXXXXXXXXXXXXXXXXXX   XX X............",
".......X XXXXXXXXXXXXXXXXXXXXXXXX  XXX XX X...........",
".....XXX XXXXXXXXXXXXXXXXXXXXXXX XXXXXX  X X..........",
"....XXXX XXXXXXXXXXXXXXXXXXXXXX XXXXXXXXX X X.........",
"...XXX   XXXXXXXXXXXXXXXXXXXXX XXXXXXXXXXX   X........",
"...XX XX XXXXXXXXXXXXXXXXXXXXX XXXXXXXXXXXXX  X.......",
"...X XXX XXXXXXXXXXXXXXXXXXXX XXXXXXXXXXXXXXXX X......",
"...X XXXX XXXXXXXXXXXXXXXXXXXX XXXXXXXXXXXXXXXX X.....",
".... XXXX XXXXXXXXXXXXXXXXXXXX XXXXXXXXXXXXXXXXX X....",
".... XXXX XXXXXXXXXXXXXXXXXXXXX XXXXXXXXXXXXXXXXX X...",
"..... XXXX XXXXXXXXXXXXXXXXXXXX XXXXXXXXXXXXXXXXXX ...",
"..... .... ..................... ................. ...",
"......                                             ...",
"......................................................",
"......................................................",
"......................................................"
};
