/* XPM */
static char *wdl33[] = {
/* columns rows colors chars-per-pixel */
"33 33 3 1",
"  c black s dark_piece",
". c gray s light_square",
"X c white s light_piece",
/* pixels */
".................................",
".................................",
".................................",
".................................",
".................................",
"..............     ..............",
"...........            ..........",
"..........               ........",
"........  XX              .......",
".......     XXXX           ......",
"......          XXXX        .....",
".....               XX       ....",
".....                 XX     ....",
".....           XXX     XX    ...",
"....           XXXXX     X    ...",
"....           XXXXX      XX  ...",
"....            XXX          ....",
"..... XXX       XXX          ....",
"....     XXXXX   X            ...",
"....          XX              ...",
"....            XXX           ...",
"....          XXX  XXX        ...",
"....      XXXX        XX      ...",
"....   XXX              XXX  ....",
"....  X                   X  ....",
".....                      X ....",
".....                       .....",
"......                     ......",
"........                  .......",
"...........            ..........",
".................................",
".................................",
"................................."
};
