/* XPM */
static char *wldd49[] = {
/* columns rows colors chars-per-pixel */
"49 49 3 1",
"  c black s dark_piece",
". c green s dark_square",
"X c white s light_piece",
/* pixels */
".................................................",
".................................................",
".................................................",
".................................................",
".................................................",
".................................................",
".................................................",
".................................................",
".................................................",
".................................................",
".................................................",
".................................................",
"....................            .................",
"..................                ...............",
"................                     ............",
"...............                       ...........",
".............                          ..........",
"............                            .........",
"........... XXXXXXXXXXX                  ........",
"..........             XXXXX              .......",
".........                   XXXX          .......",
".........                       XXXX       ......",
"........                 XXX        XX     ......",
".......                XX   XX        XX   ......",
".......               X       X         X  ......",
".......               X       X          X ......",
".......              X         X           ......",
".......              X         X            .....",
".......               X       X             .....",
".......               X       X              ....",
".......                XX   XX               ....",
".......                  XXX                 ....",
"........ XXXXXXXXX                           ....",
".......           XXXXX                      ....",
".......                XXXXXX                ....",
".......        XXXXXXXX      XXXXX           ....",
".......      XX                   XXX        ....",
".......    XX                        XXX    .....",
".......   X                             X   .....",
".......  X                               X ......",
"....... X                                  ......",
"........                                  .......",
".........                               .........",
"..........                            ...........",
".............                       .............",
"..................               ................",
".................................................",
".................................................",
"................................................."
};
