/* XPM */
static char *wll33[] = {
/* columns rows colors chars-per-pixel */
"33 33 3 1",
"  c black s dark_piece",
". c gray s light_square",
"X c white s light_piece",
/* pixels */
".................................",
".................................",
".................................",
".................................",
".................................",
"..............     ..............",
"...........   XXXXX    ..........",
".......... XXXXXXXXXXXX  ........",
"........    XXXXXXXXXXXXX .......",
"....... XXXX    XXXXXXXXXX ......",
"...... XXXXXXXXX    XXXXXXX .....",
"..... XXXXXXXXXXXXXX  XXXXXX ....",
"..... XXXXXXXXXXXXXXXX  XXXX ....",
"..... XXXXXXXXXX   XXXXX  XXX ...",
".... XXXXXXXXXX     XXXXX XXX ...",
".... XXXXXXXXXX     XXXXXX  X ...",
".... XXXXXXXXXXX   XXXXXXXXX ....",
".....    XXXXXXX   XXXXXXXXX ....",
".... XXXX     XXX XXXXXXXXXXX ...",
".... XXXXXXXXX  XXXXXXXXXXXXX ...",
".... XXXXXXXXXXX   XXXXXXXXXX ...",
".... XXXXXXXXX   XX   XXXXXXX ...",
".... XXXXX    XXXXXXXX  XXXXX ...",
".... XX   XXXXXXXXXXXXXX   X ....",
".... X XXXXXXXXXXXXXXXXXXX X ....",
"..... XXXXXXXXXXXXXXXXXXXXX  ....",
"..... XXXXXXXXXXXXXXXXXXXXX .....",
"......  XXXXXXXXXXXXXXXXXX ......",
"........   XXXXXXXXXXXX   .......",
"...........            ..........",
".................................",
".................................",
"................................."
};
