/* XPM */
static char *wll54[] = {
/* columns rows colors chars-per-pixel */
"54 54 3 1",
"  c black s dark_piece",
". c gray s light_square",
"X c white s light_piece",
/* pixels */
"......................................................",
"..........................  ..........................",
"........................      ........................",
".......................   XX   .......................",
".......................  XXXX  .......................",
".................................................     ",
".................................................     ",
".................................................     ",
".................................................     ",
".................................................     ",
".....................       .....................     ",
"...............      XXXXXXX    .................     ",
".............. XXXXXXXXXXXXXXXXX   ..............     ",
"............  XXXXXXXXXXXXXXXXXXXXX  ............     ",
"........... XXXXXXXXXXXXXXXXXXXXXXXXX ...........     ",
".......... XXXXXXXXXXXXXXXXXXXXXXXXXXX ..........     ",
"........        XXXXXXXXXXXXXXXXXXXXXX ..........     ",
"....... XXXXXXXX         XXXXXXXXXXXXXX .........     ",
"....... XXXXXXXXXXXXXXXXX   XXXXXXXXXXXX ........     ",
"...... XXXXXXXXXXXXXXXXXXXXX   XXXXXXXXXX .......     ",
"...... XXXXXXXXXXXXXXXXXXXXXXXX   XXXXXXX .......     ",
"..... XXXXXXXXXXXXXXXXXXXXXXXXXXXX   XXXX .......     ",
"..... XXXXXXXXXXXXXXXXXX  XXXXXXXXXXX   XX ......     ",
".... XXXXXXXXXXXXXXXXX      XXXXXXXXXXXX   ......     ",
".... XXXXXXXXXXXXXXXX        XXXXXXXXXXXXX ......     ",
"... XXXXXXXXXXXXXXXXX        XXXXXXXXXXXXXX .....     ",
"... XXXXXXXXXXXXXXXXXX      XXXXXXXXXXXXXXXX ....     ",
"... XXXXXXXXXXXXXXXXXX      XXXXXXXXXXXXXXXX ....     ",
"... XXXXXXXXXXXXXXXXXXX    XXXXXXXXXXXXXXXXX ....     ",
"... XXXXXXXXXXXXXXXXXXX    XXXXXXXXXXXXXXXXXX ...     ",
"... XXXXXXXXXXXXXXXXXXXX  XXXXXXXXXXXXXXXXXXX ...     ",
"... XXXXXXXXXXXXXXXXXXXX  XXXXXXXXXXXXXXXXXXX ...     ",
"....    XXXXXXXXXXXXXXXXXXXXXXXXXXXXXXXXXXXXX ...     ",
"... XXXX      XXXXXXXXXXXXXXXXXXXXXXXXXXXXXXX ...     ",
"... XXXXXXXXXX     XXXXXXXXXXXXXXXXXXXXXXXXXXX ..     ",
".. XXXXXXXXXXXXXXXX    XXXXXXXXXXXXXXXXXXXXXXX ..     ",
".. XXXXXXXXXXXXXXXXXXXX    XXXXXXXXXXXXXXXXXXX ..     ",
".. XXXXXXXXXXXXXXXXXXX   XX    XXXXXXXXXXXXXXX ..     ",
".. XXXXXXXXXXXXXXX    XXXXXXXXX   XXXXXXXXXXX ...     ",
".. XXXXXXXXXXX    XXXXXXXXXXXXXXXX    XXXXXXX ...     ",
"... XXXXX     XXXXXXXXXXXXXXXXXXXXXXXX  XXXXX ...     ",
"... XXX  XXXXXXXXXXXXXXXXXXXXXXXXXXXXXXX  XXX ...     ",
".... X XXXXXXXXXXXXXXXXXXXXXXXXXXXXXXXXXXX X ....     ",
".... X XXXXXXXXXXXXXXXXXXXXXXXXXXXXXXXXXXXX  ....     ",
"..... XXXXXXXXXXXXXXXXXXXXXXXXXXXXXXXXXXXXX .....     ",
"..... XXXXXXXXXXXXXXXXXXXXXXXXXXXXXXXXXXXXX .....     ",
"...... XXXXXXXXXXXXXXXXXXXXXXXXXXXXXXXXXXX ......     ",
"....... XXXXXXXXXXXXXXXXXXXXXXXXXXXXXXXXX .......     ",
"........   XXXXXXXXXXXXXXXXXXXXXXXXXXXX  ........     ",
"...........      XXXXXXXXXXXXXXXX      ..........     ",
".................                ................     ",
".................................................     ",
".................................................     ",
".................................................     "
};
