/* XPM */
static char *wlll49[] = {
/* columns rows colors chars-per-pixel */
"49 49 3 1",
"  c black s dark_piece",
". c gray s light_square",
"X c white s light_piece",
/* pixels */
".................................................",
".................................................",
".................................................",
".................................................",
".................................................",
".................................................",
".................................................",
".................................................",
".................................................",
".................................................",
".................................................",
".................................................",
"....................            .................",
"..................  XXXXXXXXXXXX  ...............",
"................  XXXXXXXXXXXXXXXX   ............",
"............... XXXXXXXXXXXXXXXXXXXXX ...........",
".............  XXXXXXXXXXXXXXXXXXXXXXX ..........",
"............ XXXXXXXXXXXXXXXXXXXXXXXXXX .........",
"...........            XXXXXXXXXXXXXXXXX ........",
".......... XXXXXXXXXXXX     XXXXXXXXXXXXX .......",
"......... XXXXXXXXXXXXXXXXXX    XXXXXXXXX .......",
"......... XXXXXXXXXXXXXXXXXXXXXX    XXXXXX ......",
"........ XXXXXXXXXXXXXXXX   XXXXXXXX  XXXX ......",
"....... XXXXXXXXXXXXXXX  XXX  XXXXXXXX  XX ......",
"....... XXXXXXXXXXXXXX XXXXXXX XXXXXXXXX X ......",
"....... XXXXXXXXXXXXXX XXXXXXX XXXXXXXXXX  ......",
"....... XXXXXXXXXXXXX XXXXXXXXX XXXXXXXXXX ......",
"....... XXXXXXXXXXXXX XXXXXXXXX XXXXXXXXXXX .....",
"....... XXXXXXXXXXXXXX XXXXXXX XXXXXXXXXXXX .....",
"....... XXXXXXXXXXXXXX XXXXXXX XXXXXXXXXXXXX ....",
"....... XXXXXXXXXXXXXXX  XXX  XXXXXXXXXXXXXX ....",
"....... XXXXXXXXXXXXXXXXX   XXXXXXXXXXXXXXXX ....",
"........          XXXXXXXXXXXXXXXXXXXXXXXXXX ....",
"....... XXXXXXXXXX     XXXXXXXXXXXXXXXXXXXXX ....",
"....... XXXXXXXXXXXXXXX      XXXXXXXXXXXXXXX ....",
"....... XXXXXXX        XXXXXX     XXXXXXXXXX ....",
"....... XXXXX  XXXXXXXXXXXXXXXXXXX   XXXXXXX ....",
"....... XXX  XXXXXXXXXXXXXXXXXXXXXXXX   XXX .....",
"....... XX XXXXXXXXXXXXXXXXXXXXXXXXXXXXX XX .....",
"....... X XXXXXXXXXXXXXXXXXXXXXXXXXXXXXXX  ......",
".......  XXXXXXXXXXXXXXXXXXXXXXXXXXXXXXXXX ......",
"........ XXXXXXXXXXXXXXXXXXXXXXXXXXXXXX    ......",
"......... XXXXXXXXXXXXXXXXXXXXXXXXXXX   .........",
"..........   XXXXXXXXXXXXXXXXXXXXXX   ...........",
".............     XXXXXXXXXXXXXXX   .............",
"..................               ................",
".................................................",
".................................................",
"................................................."
};
