/* XPM */
static char *wndd49[] = {
/* columns rows colors chars-per-pixel */
"49 49 2 1",
"  c black s dark_piece",
". c green s dark_square",
/* pixels */
".................................................",
".................................................",
".................................................",
".................................................",
".................................................",
".................................................",
".................................................",
".................................................",
".................................................",
".................................................",
".................................................",
".................................................",
"....................            .................",
"..................                ...............",
"................                     ............",
"...............                       ...........",
".............                          ..........",
"............                            .........",
"........... ...........                  ........",
"..........             .....              .......",
".........                   ....          .......",
".........                       ....       ......",
"........                  ....      ..     ......",
".......                 .......       ..   ......",
".......                ......           .  ......",
".......                .....             . ......",
".......               .....                ......",
".......               .....                 .....",
".......               .....                 .....",
".......                .....                 ....",
".......                ......                ....",
".......                 .......              ....",
"........ .........        ....               ....",
".......           .....                      ....",
".......                ......                ....",
".......        ........      .....           ....",
".......      ..                   ...        ....",
".......    ..                        ...    .....",
".......   .                             .   .....",
".......  .                               . ......",
".......                                    ......",
"........                                  .......",
".........                               .........",
"..........                            ...........",
".............                       .............",
"..................               ................",
".................................................",
".................................................",
"................................................."
};
