/* XPM */
static char *wood_l[] = {
/* columns rows colors chars-per-pixel */
"129 129 57 1",
"  c #CAA87A",
". c #D1AF7F",
"X c #D3B183",
"o c #D7BC8D",
"O c #DDBE8B",
"+ c #DCBC91",
"@ c #E1BE8E",
"# c #E2BE92",
"$ c #DFC091",
"% c #E1C18D",
"& c #E8C88F",
"* c #E4C495",
"= c #EAC695",
"- c #E4C896",
"; c #EBCA96",
": c #E5C59A",
"> c #E9C69B",
", c #E5C99B",
"< c #ECCC9D",
"1 c #F1CE9D",
"2 c #E7D09E",
"3 c #EED19C",
"4 c #F2D29E",
"5 c #F8D39F",
"6 c #F6D99F",
"7 c #E7C7A0",
"8 c #E6CCA2",
"9 c #EDCDA3",
"0 c #EFCFA8",
"q c #F1CEA3",
"w c #F2CFA9",
"e c #EED1A4",
"r c #EED2A9",
"t c #EFD8AB",
"y c #F3D3A5",
"u c #F9D6A4",
"i c #F6D9A6",
"p c #FADAA5",
"a c #F4D5AA",
"s c #F8D7AB",
"d c #F6D9AC",
"f c #FADBAD",
"g c #F6D7B0",
"h c #F9D6B0",
"j c #F6DBB1",
"k c #FBDDB2",
"l c #FEDFB8",
"z c #F6E0AE",
"x c #FDE1AE",
"c c #F6E1B3",
"v c #FDE2B4",
"b c #FFE9B6",
"n c #FEE4BA",
"m c #FFE9BB",
"M c #FFE6C0",
"N c #FFEBC1",
"B c #FFF1C4",
/* pixels */
"99awww7yh099909979aaw>>>>>1<1;%511==11qq1#q#>yswok#7707777ee<<a9aaw:99ga9999aaa0w9yy-fyeiy9fky8:88889ea9yeye9e9asaaawhhhshhsf3fed",
"aaa9999rg77awwa9>9009>99qq111;=;==11111wwquq1ssq+k77wwwwr99<8e98awa7r9a779<wahhgae9q*u<<aiisseyayaee788*,;<<eyyasawwwhhhhhhsd3d3d",
"wa07999wa::a00w079w09qqwqiq1y;;;111qqqqws11#>yq9+w7#77wgw7:,,rayaaaeaase779easssaa<1*<<;aiyyy<eaaaaereessyye<<<>:q999whshhhsd2def",
"90970909a::a9a9979aaywyasuy114111151#q1qw>#>=qq9#w007700a8$,,ekayay9iasaaaiwyryayyy9<<<:iqy7<8eseereaaaay9e3yiyaww999wwswwqadedia",
"90970990a>7w9y0079wawwaysiy111111111w#1qw##=>qq>#w07770007::,rksayeeaaseaaaeeyryay9y<4><y9q<<89a8eaajgrayeeeyiiaww999qawaaraieiif",
"9909wa99s79r9w9w90aaawyyuiy3y4455111q11>1====qwq0gwg7000g07eeafsye<eayaesaiaayayyeyyya<<a<y9<aea8eaeat<e8e<eahshsyqw99qwww9id2iii",
"w9w0aa09gw0w900a99aaa9qqyyyuy5uu1uq#11qq1>>1=11>w9ww00wwaaaaiaafasaaaaeeaaasksssy9<yisiia<fisi<aeeneaa8saiaeeee99ayawqwwww9at3eai",
"gha9gaw9g99a90wa09awaqyyyyyuuuyiuuqq111qq11=#<<<w7700wgg09atarykgsrksfaariiaklcaae<4ssyus3vaaa,a9emrjjaeereeee9aayaywwwyshaiitefa",
"lkswaaawa979799aweshsfuiyyyuy4<ffuuy1=1qu41;O<<<s>ww9ghl08aadervaaeafaavaafiadatee8<sayya<fyyn8ae8n,jjceeaee8e8ya9yyywwahkksaeexi",
"lla9aaa9h97w<89aragassauiyuiy41fpfs111=qy;3;@=<<s>9w0hlh07asseecda8iaddvfjsaaaairr<3si4ya<fyev9a8ev,ajleeryreeeya7aaywyaskkafyeza",
"sayae9faseya<aaa9aaik3pi=us4yvy1ffy*<=1<uup1Ou6=f<<9r7aa9vaasrcidi,etivvteecikcii$<<xissf,x<<a8ejflssaj9rrrjesa8<<iyyhywkssyefiic",
"aa9y9eaaa7<a<aaayaaav<xf<fxsuvy1suq>qquuf11;Oup;fqqwaasg9hagjevfdd<itedeffzvkkkcfe;<yusfv<fsaeeeasjfhlcajaacafcar9aa9a<<sasaicfak",
"skayaasky89fesdiyskfv;fx5fxfsvyysuw1uuipp;5;;xx1fywyaskh9agclavfzdeczddejxzxxddxceei4fkxv9isfyafdasfjjgccaacjnnskysdea39fiakcnlsk",
"fsaessssy99sessa9askv;zpifvffvyysuy1suu5p14;&px1fyqwshhk9gskkrcaddezddz3xjxcjddcfeyy1fffv3yssysdddafjjsccarljvvsjaafya9efailvncfj",
"kffekvsvayykesfaiskkv;xpiifffvqassuyuuy1;;;61xfufiawahss9rkllrfifzevzdzefddxddddx3ssyvxkvyyssesvjfakclakkrtljnnkcejdakiavayvnckfk",
"aai<fkikyyaa9aafavffx3xzfpffkvsyyasfyi556&&&16p;usyu9hggwallkazxbvizeidtzdzbivbive41yvisxdafs,skjfcnnvgjjrrncnncnraayfssviykvfasj",
"aiyyfadaussi3ssfsffffeitziiffxksasvvfpupf5466661yyqqalaagavjkadzvbzziizdzizbzxzzb4<<ifuasyfyeekvvklvklttgjjMnnncbakkifiavxfvvsjvl",
"saysffxeavvfeffkfvaui646iifasakvssfvfipppp66x6pp5a<<ahawhavljjtixvivdzvzdvzdve3zzt4yfsssk<fyykvnvvclggrajjjNvvvjmlnvvvsavxxnnkvnl",
"fsiafsfysvvfyffxsvsai644iiisaskvssknpipx666pxxpuyuqqakaahavhfjtivxdxzdxxdxxzxtebzieyfifik;fyykvvkvvljfrjjjjNncclmkvnvvfsvxxnnkvvj",
"xfixfafeivvvaffkfsiiezi4zzxsfsvfqwikusff6666pxpiffywaa7<a9vjhvxxbbzvfzzefbbem$-miz3euyfxv<bvvssfkkvvvvljnccMklklnsvvcbfsvssvvkvna",
"sajavveaavvbebvxdfxx<jrrkjMjsljaeet9jlhnviavevlsvfii<v==wu*fpxhgllghvnsaufvubeybxpi6;3iibxxddianvvbkvvvcccmncgdcccnccnnncncggvlll",
"rejjjfassfsyabbazddaxnjsjrljsccrrrhavnsvffskelkisssa1f**<u1pfxngnManbnnkskfvvpdvxziiyizzbizfzaivafvfkvsnMMmncnccnnmmcncnjccgscljv",
"rrkffjrfddfrabnixfiifvsgfrcsaclarrhavcgcfafcekvafsua<f*=1y<pfxlgnnavMnnfaffxvssvxxii4ixxbdfxfitcffnflkgcnmnmncncnnmmlnccjmjgglljn",
"77avaafvnssefvv<xsyyvcjfkeaaafsassnlvvsckkcvackiysfvvf1q1uuuyfvavn7nvvbsikfbxvvxvvxxzzxxfieffciieevfccimnnnccnnncmMmccvncnnjjjnrM",
"ayhvaavvnfskaas*ffyuaesajyaasaejfjcgjkfvnkkkavvs;avvbsffyuf11ufalh<skffi<ssvfvvcvbxvvzbviieiiciittccvvsvcmncncvcnnnmcnnnnmnjllM0N",
"llhvsskafssb3fi:3isfy8fsjsakca8fdsyiaikjjffksvvxefvvf3xvusfq1s1yaia<ffss,kxvkffvxvkfvdbbfceidfediibfvxvcmMMbcncnccmnnmmMcnnjjjn8M",
"hkasaasyafkf<vvy:<xvdykvffacvaekjksvjfvaafffsvkvyxffi<fxfus1qy<u1yi*kvyx<bvckccnscsfddvvvbvcxdyziavixxvdbmmnjccnncMmcmnmnnctgjlrn",
"kkasasseakss<vvy,<vvsikfdjinviejkksvkjvaafksskkvyvkfy;fkfyuq1y<wyea*vkyvevvvkvvndcdafavvvbvkxdydiivizxvdnNMnjccnnnmmnmmncnjjgjl0M",
"wwaaai9aakkyyvviyysfkkvvaksvva8fvvkvksvsskkssiyvskyyfwfffyyyyy1u1y4*ssikevvvtmmjtjgtagggvvvvvvidyizeffxavnmcjnnvjnmMcnnvlnnrrjljn",
"yalkff,syayqsvvevfe4fkkkyvsvl9:sfvakyyksvvvfy99kikqqfyfsvaukffffui*-iisf3dfv<NBadtagtgrrcsvkknfdeizedzxcnnnnvmnbcnmnlcvcjnnaallcc",
"99lykk:vsffsvqqvvffxyyffvfkffi<ysffaaiffssayfvv1kq>7sykknafnvvufuuyuqy<xveef$BNvtr80hljjlnvbnfcvvvdiiixajcnvngjjlvnnlanvncvnljvrk",
"99lsfk:lsffskyynxxffiyffvfffky:yfffaiaffsaiyfvvqkq<>savkvssvnkixuu4i4<<fbetf$BBnt988lnjjkvnnnfvvvxdeiixrjjlvcjkjjcnnvgcvnnvckslak",
"99haskqksllff<<siyfffusffdfvvfysasiafkvf9vvykvnsfssskfvlkasvvlspffpxyyyyf8ek,vvasgrrnnjljakbmvvbxvaieyijcvljjjjcnjcvchnvnvnlkjcak",
"shksffasskkvfuywiykffssssusxkfiaiyyikfvi:vv1sfffsskkkklnkallvabipp4z44faa<;f;aayvkvnjaaavnfjhbvnvvvfxzfkjggsaiajlejhjagjjgcssfcsf",
"kksksskwsssfsfsyf1sussaay9issie9yyyyyyai<si<s1qfsskfwkvvkklkvab3pf<d4icav3;ieyyyvinna8rrMnsaavkvxcbvmmbalkkljsjssrkjkajaaraksklfk",
"hhqsssvwsswq<usqs=<<4iiyyqiiai4yyyyqyqiisyyqs><shsss>svlhglhjdc2vxibzdb3viyuy<1<s<eraakfvjavvjrlaanlmnncvnnnnnljjlvvcllljscvccflk",
"hwqswslwsssw<ssqu><<1yyyy4iisiyuyyy4yqusuwuqf=>ssksa8hllkkjjlgz2xxdbfdb3bi4i41<1f<yyrackvjavvjalaanjnMvlvnnnvllllgnnnlvljallvlfkf",
"wwqwqqhqwqqq=qq1q><>syyyyisssuufis9qiiffs11sk<=wkyqqahhgaatggjctbbdbzzvtfffpp1<*5<eeidfjvsrsgvgvrangvvgnnvnlvvcvvcnnvlnnvlnvvvkvc",
"sswqq>wuwqqu<uus<q>*fyaisffusssfiayussfsiqqss>>qkqyyhhwgrggr0ljnzztddzxvyxxppp5154ayietyvcieevgnrrM0lllncllllllklvnvllcnckvvvvsvf",
"shwq7qwhkskuwssk1y##uissffsuiyi<yuffusy4uqqsqq<qlqlvkh00aMl00j8nzztzdfif4xv;pxxfuu3<fdeeifaggaev80j0nllglvvnnvvksnnnlkvnkglvvnsva",
"ttte8earwvvahlkss5==uagggMlMMlnrjhcfjsgt9pp36ipfa9sgatrrakvkcfidteifadidnaaacckfhsffibii*<vyyui>:*hvmm<ahvnkllklhngaBskllavvvnbsv",
"tttee8jervvahvkuu1==uaggrMlMMnn0kkvkffji9fp36pffa9hsgr0aaklckdefeiizddddniaakvchcaffavyy:<vyqia;**xvmb,akvlllvlvhnaaBakklavvvvbfv",
"cbcdttlravlklfffu<;=ygggglljjjlgsasjckkffpp3yuiisrhhjgjjjgjkfkxcidizdfzxkeaavvvnnnnb<yayiuv<<34*+@yyvx;hvvnkgssa9kaanghjhihvvvnkv",
"cxctttvgrhgnlyuk5@111kggggjggjjnajakvvjjvfpiaiiasaaaglgjaayaiddjditddaiakjskkkvvvammyyvvaiuiassa39iyvvfalklhsfsa9aaasksfkaaasafif",
"cxzddcccsjjnk19k<.117lrgggMganjnjjiskkfffxxxvpfskaweajsgjtatiieidfiddz33vlvvjfskl8vviymmfiivxffxiyf3aaaeasfskkfsawssyvhfvayssikfv",
"xcztjfcvjlhvk<1k;.119lggjglgjljnjlijkcfdfxxfvfffhaywgjaaaaayei8izdiddd<evvvvjaavkevviymmfayfvvsfias<ifaeakfffkvfaafsevfkvsesfivkv",
"vbzfvvnvvllla>>s# 14yhrgggMgjlggljatsscfyvkfnkfkla9akgffffxafieyxxadxx8dcvvvfiavnacxievvxvfssxikaikyyeiisffffffayeia;vfsfaeiayxkv",
"bcdcvvclcrasa<>q*X<<slgrrgjrare0taaraavfessivffcvaaavkffxvxiieyyvc3ecxtvdssjrrycnjeeaikxscxxvcivsfbcxffffaisasaiyyyayassxsye<<suf",
"xvdxcxyisreagyyq<*<4flsh9aaag99yayssfffsakhaghflksllfsuiiuu544aixv;9fkivaiaaiweaha8efbcffedmbjybtixvddafsaiifffsafyefysaxafiyasav",
"xvivvvrajarghaaqss4<vvklegahhaasyaakckaahnvahkklkavvsiyyy44i6xyivv<exvqvyq9aaaaslavvcvdabiaisbcmidvvdzdvxfsffisiif,<x:uyfukyyys<i",
"cbicvcaigerhhaswis14klkk9gahhaaaaaakkhaahnlahlhkksvvaiuu53566piyvv3yvveva9easaisksbvxvdibdtdabcmiivvzfabvfsfisssax<;f<iifyxyyya<s",
"iibixk9tl0y0svkvviy<syiaaysvvvahskkfya<ivlMjaMMcvfsfus1;up1up;y4fs9yvvay7yyaiyaskavvfjcxecfczfvcatvcvbyvfvbmxiifvvvviskxyxviixvaf",
"yif<aaykl79alsskvfiifayyyaaaaassyayy999yvnMhwllsvvffii115u;u51e;ii<ekfyysasfksscvhlcsjffrcdddjksrecjmmcfifffiyefvxvbifvvuvxiaffff",
"yid3fxyfhaanvhaaks9e4syyyfi<<<ikaa99yraaljjgavvfvfuyfu555p;uu1yqiy<qffyqfaaaaaakkakkaciaakfaacvktavkNNvfffffayysbfvvfvvvsfffsfyff",
"4ipyffyflyaMvggakse3esyyyay<8<ykya890wwalgjgavvfbfyypp551p=uu1q1yy9yxfiyfaaasaaflavkrvaaakfaikckaivkNNvfssffiyyfbkvvfvvvfffsafesf",
"33ffvx<eakhhh99afkisdyyyaay<<<<kaay9awaahrrjlnnkvx1;p45p1f;555wwiayisfaykyryy9yas9kcrnaacfvaarkvjfnsbvsfvvxvvffsvsvvffvvkfxffs<fs",
"y5pxxx*<9hhllshskkaisuisiuyyy<#sasyaaawaalkkvckisxuu5&551u111quuyyyuywy<hyy9ywqya9hsyvaafkvaayahaskwkkaakkkvvkfacasksaskvsvfff<ff",
"zxpzff;iaasallvhkaeeyiffvffffs<waassssahhhkjnkkfifu45;51uuu=1uqusuffyysqsyqwy99wywaa9hawaksaaassees9vvvsvhssvklsvsssfysavsvfkfiff",
"px6fxf9fakh,raaakvcfvfpfxffffffysuskkkkhkkfrvxxvip33p115u1u#>kyfyufkyykisyywa99<w9wy9aaawksaasksaaa9nnvhnhhavllhvhsgleahlalsskssv",
"fp6fxf3fehh7ratskvkkffxffpfffkfisskshkhksjfavxvvi6;3p111uqs#=f4syifkausihy9aaqq9yqwq9aaaqlhshasha0a9lvvhvhgavvlanhgshraavaksfxsff",
";;;fxx<y9hkhllcgfkreeiyyuiu<yyvaysaaashsambaaeyx4xu4p3==u#u##u<uq<ffyysyfyaasww1awww9wss9lshfassyaa<hsasvhhavllyshhkvyaavykyyafsv",
"if4visesrlhwhvvkfxievyaiifakk9cahaalvcsnvnnxv3<s;f%*ui*=s1f;=u<yyyxfxxidbddfyyyaqyyyaiyyiyyfffykss<3ialgMhhjvkksyifixi43;4x33<ves",
"fisfsiq9hkk9svnkxxiixyyaysikkekskjacljaccfvfyeyiif;;4i;=p1p=1u1euyfxzizivddzyaiayyuyiq19yiyiuvivsfuaspshlgghlkkfiiiidp644ix;;<x4i",
"fffsss99kkk9snvkfcyixyiaysakkekshkdcljacvkffiyyyif=*yi;;p1p1<u51iipxiidzxdffaiisqsyyiyqqyyquifsxffyffsshlgahkklfaifipp4436x,<<f9i",
"iyfqfs9<las7alcffxeixaaiyasvveljlchccjacvfpxyii5ip;;4p33p16;;ui3yievdicdxddvdiaaysauyq<<iayyyfusiiufsi;law9ssiavissiisppiip<3afia",
"<1isffaykwa7avvszxieffsaysfnnycskjsckjrjvxxxifiiip-;4p34p55;;5i<333xfxvzzdaviyyiysyyuy<<iy1yyfyuq<yvff<va9ysaryfyksfipxpi6iyyfisf",
"qq<fssavhaa9alvkzceiffasyfknnavesgajgjrlnvxfz43z;f-=ip4354p;;;y1,,yibvxccddxiyyaykeqssywyiyssvsfy9<vkvsviyyvfyifyvffaffvsiyasfeaf",
"ff1kayynkllaavvjfvyifiiayasvvel9aaicjjtlvxzei3;x;x;3pp45456;;;3q*-yenbxxvfzxiaaksk<9fkiiyiasfsikyyefvfkiy99ffaas<faisffffsfffviff",
"ff5kiyyvlllwgvvsxvyifaiiysfvvrl9attlkginnxfez3<x;x;3pp44366;;&44*-eebbcxvdfvaaihsk<<ffaiyaaffxifyyeffxviy9<sfsifesdaifvffsfffviff",
"ffifiialvssyallafviifyiaifsvvek8jaanlctvnxzii32i3zi44p6646613;4y<<eikxzdcfscjfhvsf9<ffyyiaaffsyvfsyssss;i<<ifiaa3saasfhhsslssxfks",
"iufuffhsv990alcafvadveaiakkvv9v9jajncvsnnxxfedzeixxi4p6616413;4<ai<siifediijskcvaa8efseyafssafivvvffyiauviyyxfsayassfkagaakyisvve",
";;fuvv+hnaalatasckfckyiisvsmmy8leelcnvjmcbbxziiiiiii6xxx34x6p4<<iyykcvyfemmksaylak<<kfaeyhbsfvsnffkskvefixfiyiiiykayvhnnghkkkvssk",
"%%4yvb-fvwaksgglvkffdyyyavfbneycrrllccsncxvfzffxxxfxixppipp546<<yaeafzedecvkaaahahaivhsssfvaavsvsfcsvliiyxfpyfiassayhglMhnvkkkkfk",
"%O;yvb>vlawlgsslvkffftyisvfvnerlrrccvlgmcvxxdzxxxvzxixfpipp546><iayiddedenvlraakagaavkfsskvssvkvsscsvvaiyfxfyfsifayylhllhvlkkkkff",
";343bbyfk9ehhjkvnvlffksifvfkv9svaanjvcanjfjsdxzvbvxxxffixvi33f<9ayeidi8ticcvallhlasskakjvvnckvscssksnvayuvxfsffavkfklalkllhkkkkfk",
"pp6;vvsflhagkkjcvvlvjbkkvvkasejjaanjvngclcjjdzkcvxfdvxffvvi43xiyiy3tddeajfkv0vvkvsghsejfvcvkkkaldacsvvayyfxffkfavkkklagahlghsffsf",
"654%pisfvvvhjlljhlcljnffvvfaa9crganlnmgcjMnlclclvcnjvnvvkvfasfsyyy9avfeajrag9hlglglvkykkvksrrkiviajiclayakkskssavahhgaaaklkkkaiaf",
"i64%ppsxvvvhljlhlvvvkbffvvkiyykejsncnnsljnnnvclnvnjlvvkksvfiskfyyreskceiattg9jhglwvvkyvcvhfaacacaasavkaaavvskfsenakhhwawklksfayag",
"655;fpxfvkkgllvjgcvlsxayvasayrj8jfmjnndjjMnnvlnjlcvvlnvvgvvffxfiye<ifjeejrra0agglavckrjkvhcarsavtaarkjyrsfkasaa8nashasawkkkksawyf",
"ppxpxxvishaglnvlknvnjvaavesyyaaejlmanntjnjjjnjjggjnvgvvvhvvkvkssaaerat8rarrrt99hlhyraejskkcaaaekttarkka9asawsee>ngskykyyfakhkawaf",
"i6xpppfyfkv9hnnlcNMMjnvfbysayaernnmacvtgljMMMMMjtjlcjljjMMlljngsvkee997ra987r:#ghge9gearask9er9h0aaalha7war9a90:naaa9laalsnggsagh",
"ffvfBm<dynnrnvvvllnMjMhlnabyip3yiivvkh9anrrjjccMMcjjMMrrjcBjjtgjaarjatrs9aga00whga<qiw99kqayyyqyaayyyie0g808gtgrvgjggrtrsggtrrctc",
"ffvfmB3dibnrnvnlljnMjnlhvabayf3iiikvhl9alrrjcMMMjjjjMMrrccBjngsgrrrataaa0aaa9w9aswq<yyq<kysqwyqyssyyai90r080ggarlggjggrtjgatrtjtj",
"vxf4vvevsjjgvgllljnlthaavcbsfs3aiifvlvagnjcjjrrjjjMMcMcMlgjgttlkaaeaagaa9aaawaahawywaq<<fquyysqyyyqyssy0t000jgjrjrarrtgagjjtttcrf",
"bmvevvevarelvagjllllgjljlsvxfxfxy3ivbnjsljltMjgjngljnllcrlgjjrnvtiedgfra9aisysasy9yisy<<s9sqyyqqyyqyssuagatglsgtjarrrgsjaacjjtctj",
"nbbvbbefaiavlatlvjjngMMMcldvvvbxyeexbviajlj0MgjjNrggnjlk8MllMjvkrredsgya9aaasasaw<wqsq1<s1syy<<ysiqwsaqagjjhvgjsjjatalkktgvjjjjte",
"bbcvmbifaaavcaalnjllgMMMvlsvvbbxe4ebnnftljj8McjjMrjgnglgrMjMlrnjreeajaaaqaasasasw<wysq9<fqsau><wauyyaiygjjjlcljshlraavllagvjdjcta",
"fdcbBmccccchlaahlglljnMMnncmbccxitzzvzteaMl7g000veeeraklrrwlljlseeedffiyyaiiywyyq1<>qw>9s<syw9>yssqwaayjasjkjfgjljsjacgjrjbtdjrf<",
"vczcmmmbvatfcshkkhlkklMcnjccbbczzzzbzz6ttnv<sssava<>asfkysfkliaiee3idftiayayy<yyq9#*9>>>a7awwsqwwy9wsfkheaajaaakjsaasjfgrgvjcvsce",
"bmbbcbcmveeacaaaskkkwMcjc8cjcbbzbzbzbzzzzssqknbkff*:vkyywsmkk9tie3eaaiyayyyyy<<<<y#+>7>>a>yyasyayq>qssks9iahasavkassckasaskkvfvis",
"mcmmbcbcmjkflyaihkkh>njjN8mctb8zbzbzbzbbzvfisvvyqf9<skusi9vfsiyieiediiyiyee4<yy1<<::<>::y>aauaaaas>9saasyasviksnfakfnvffssiii<v,v",
"mmcmcbccbkjfkayaskhf>lccN8mtcbezbbbzzbbbzxkufvvqqk<9iksya1vfsyeiitedaiyay3yeyy<<<<:*9>>:w>aaaswaya9qasas9aavagfvkykkvvhsfaatiec-v",
"ccmcmnmjvccmjkkskvwwjctcNtnNmczcbbzcbbbzzvvvyffy4s;>yffiyqusffiieeeieee3y<<yy3<y:<9>7wyassasahaswywayykkfffffsfaa<yyvfaiaivasasff",
"ccmtnmmcnbncscvsvvyavtccc8mBBtcczbztbczzdyyifvvxfviiuffvyyfffisaeieetiyey<3a<eq9<y97>9wwasahsaasywwsawhsaissfaiifvaasisifis9eeiia",
"ccccmcNnvbbjsvvvbvitvdbbt$mBB8ccbcbtvctzz3y,vkfbvvkfikvfyyxkfyvkiietiiaae<,f<yy1yywy99wqhhahgawhaaahawsiyaiffiaffxyyy<yyfiy;;yiii",
"ccmtccmcbncfkvvkvcyivtbbt$mBB8jbccc2vxtzxee;vkvmvvffyvfv<yvfxevftieiiiiay<<s,ya9yyww97wwshsaswwhasahwasyiisfsiisfvyuyqyyfye;<4usi",
"tccjccMMccvvnnvbbvyyzzbbi2vbm88mcnnemmezvvx<baanfvxfikkfaavvvybvdfdsffaya<<f*ssqsyhha9aashssahskhhhkshsaiffxfuyaf4e<siyyy3i<<yusi",
"tccjjjcMjccbmvbbmcet3zz6zzdxcf:nhlMgNmrlcmm8meevsfaaccvkvnbvvkvcfkcvccsav9yk*ssasyklaaashsgsslslhsskaassfxxfsiuyi<y4xsuyuyx;1;4u4",
"cjcMnjMMjccnbdtcmzzi6634xxzyrn7njjngNNthccvecjjmfcflnvkcvnvvcksjvvvnvvkskyys:aaasqhhaahshhhkkvshaahkwaasiffsuy33yi41u3y4iysyy41y5",
"ttjMjjcmjbnvmdtcmcccz6646;x3eN9llhgjnnggvjatjbnntmcccckcccnccfajvvnvlkksaaal7wwsaashahshsahkklshaahlsasuuuuuu3y1yi<<y<;<y;4u54y5y",
"tajMljnMjmccbttvbbcbxi63x;veeNrlhkglMnhglsjtjmcntmncvccccnccccahvvnncvhkaaak909swaassggshahkklshasklaawsuuyiu4y1yu1<y<<1i<154uy45",
"rrgncgccabmcbzznmzmmb66z4%v;;nallhahlnlhvtactmmj8nnmcnnnjcmMmcgvnnnljjhgaaala77awsassghkaaahskashhklssasy43yuyyyu;;<iu1qy;y1;1411",
"9ey+fv:NfayavmMmbbnnndddb2bttxaxe3l9Mnglgvnjcvvjjjajvnnncajnmlcvvvagfsavcshaitaaarkfifffeuvffussffkuwusfy;;iu**1fy11y=yu**fuyu4s<",
"kvi-vc<l9yesvnvvvbnmmvvvbibiefiieesallhhgagjnjnjttatlvvvcalnnvsfklaajsekfjkhjaatasffixdaisvffsfusskuuwup4;;uu*=1fuqyy*qy<>yq4q4u;",
"ffi1vxysyiy9y9y9askkkvbvbtbeeiididavvvlkl9ecnjlcarjjjnvnjljccvkkcvfcvvakdckvkaaiijidexeefivyyffyuusu<qy45;;uy;1uuyqqy#uwuqq143u<q",
"xki9kkyayyyyeweyiskkkbnbbevtiieddiavlllklr9nvkkcjrlcjnvvlclvcnkklvslvkakskkcvasyijddexrifsviikfwwussq1q5y;;uq<<usu1qu*qysqyqq<u<1",
"yisfiiivvaayyryaklklhvvvbeciizziadavvvhnn88ncgancanbjnvvlvkaanvvvvfvnnfcfkkvvfksgjaayfeefsvaiffuyysu<1y1u43yy11uyu<1q<syfss13;y;4",
"iavbsisxvsaay9yakvlvlvnbvivxzvxiyeiyvl7nlrenjeeclannjvnvjnctrkvkkvskvnsvkkkckkkcjfckkceykfvfssfpuyy11;u<y4<11<1y<s1<wuuufuf19ea;q",
"sfxvffvsivffy<<8aslhkvnvftxxxzfitey3nl#nljjnkrrjjjlljcjccvkatjkkklifvkiccfkffkkvjfggcsaysvsxfuffuuu333p1u1q51<1y1f11ykwqy9f1<4a<<",
"ffvxffvssfvfy7<7iskklcnncizvxfceeeyell:vlgjnjrejcjnllckclvjaajvkkcajkkavkkfgkkkccfggvayasfsffufpiiu341f1uy1yq11y<s1<ukqyw1f<eys<<",
"yesifsxfikvnsryafklvvlvnirfxxdfeirysvv:vljfnvggakvvnkajgljjjjgjcvvfjkkakfjjffjjkkkawnahkavyfffffuii53ei;yy1uiqqsqs9>yf<>u1yq9uii<",
"<<vfuyyviqyksyeasfhhkjncdacvvxc;iy<vhh,gs98acfgesnvvheajlasccsafnvfjsjesakfcfaaisvaaNhnnan4vvkxiiafp34i;1;1yy1quqq>>qs*=sw<1yfau<",
"yiffiaysie9lffk9aalvlnnlajbvxfxie4zxya9avga0rcvlt0tgaltaavltajlrvlaikkiscvvv<sfcnyvvnsnnkvkvvxvzdivf3yi<yqyfquyquq>=>s>qsqu=:ayy<",
"iiifyyayayuaasa8eykkvnnnvcvccfvieeaxey9alataallkgjaaajggaclaahcavvkafjrrasaj8khvnjkkkvbnvvsffxvzzfxxxxv1q11squw11q><qq>7hqwfafyy:",
"auasyyaiaiayaai89wkklcnnvvvvcxbieiafyy8slraaschlhgatgjgaavlaajvivvjagfeaedak8fjvnfkkkkbnvvfffvvzpzxxxxv<111squw=<1<<qu#qhwwusfyy:",
"kfif3es<iyyyaiar<akhljlnncvaafvcaiffaayflaaglshhklsgshaaalvgskjakvcsvcfssadcakfakauaifvvvvxvxbvvvvxvvcsiq<<sauu<>>9qsw7>kswssayy<",
"vviv3ef*99qikays9shglajlcczadsvbiddfsasksaaaghhshkghaawaaaggsgirksjsvvnkvckvfcvaitaiufiivsxzxmkvbmvvvcyvsq1sfsfq>>9>ww#7kssee<<ay",
"fvyvyef*9<<aseys9kasggljksvkcxvxieiiiyisaaaaalkkasvvhaaw0aahkhaaasjisjcfvjskjbnskfii4f33i3e,<iycbbccnbjvsyqufssuqq>>qu>qsskaa<efa",
"fvyxyyf*<<9afayseksaggllkskccfvxiiyayyyaiahaakkkasllhawa0aahhkaadfdrjgvavhfcknmgcspiip34i;e<,zrcnbcvmnfvsqyyfusyq><>ws77hslat<efy",
"iyufyyf,yqeafaaaafkkkajjarfcvxxxeyyiyyiiwshaallkaavlkaaaaaahhartrririavacfskkbncvf44uzppf43,$tidkjajcnckuwuqsqwyq9#>>sq7hwkkjerr9",
"qyyfyyyeyyyasvkaaylllrggtrijcfxfyyiaiyasyaaahvcgaakkhagklyahha9aatjgaanrkfhvscvsks446xxxzxiye2sjccjjjtMgisfyfq9is>>>qs7qkwwss8a8<",
"y3ssye<eway9avnr9:aahtjlgrrlkcbyeeyiyyyi9eralshaaaaasaklvawaa7tnljnjjal8rsgvafjavkzxxxxx6vfff$eccvMnjjMsavkskqyss>99qw77kw>ar,a99",
"gjgjr0a8rrrrall9r7hjhsffkfaraakagh90yaafeeeff,,fhfeekekk98rlhejgjjrjtjnrlajvyeeanslkxkkkfvvbm<yynvhnkhlff3<cf33x=ysiwq99wkw><y9ie",
"gjtg0rj8grr0glh009hjhfffksaaaglahg90yaaay8efx,,xsfeekekc88agkrjtjnttgtMgkitva9eanslkkkkkfkvcm<yenvknkjljc<3cx;3f;qsuuq99sk7><y9i<",
"rr0tr8j80r0aglkwa7ggafsffasshhlra0a9aafsi9<if<-eifyisavv00rer7MtnjcjrrljnkcnayeavylkllsakskfxisyvvkMllvnc;<ii33xyeyyysyw9swsifiy<",
"008a0rj8w79gakkwa9awasaieaglhhaa9whaiiv<9iaya938<aaiyehk70rw08MtMjcc8rjjnhkvyaaakyllahawkifsasaysshvllvafaimciix;33eyksa7wwfsvi9<",
"rr9terg9099wwsa9w9saaayyeysgha9h79layyf<eff3yia3<faaaaay+wgggjjgMMjj80jjsrraessakagh0h79vqvuafa9yeavlllvxiivxiivi4yiikaswawyifiyy",
"ra9rr0j9099awhh9swahyieyeyshga9h7<l9yqf:3ff9yyy<8faiaaya+0grglcgjMjg08jjsrrsekssvahgah99kyvaasy99ysllllvvaicxiivi3yyakhawhwyyfia<",
"aa9aeehyaaaswws1sqwusuyyyysaawwy::a9yqf;fas;<iieakasvfiy+asaaferljr088j9grra9kkafsgg9h98l9fiasy9yehvvnlvvkfvffixiifxiiiask9<9sysy"
};
