/* XPM */
static char *wsdl72[] = {
/* columns rows colors chars-per-pixel */
"72 72 3 1",
"  c black s dark_piece",
". c gray s light_square",
"X c white s light_piece",
/* pixels */
"........................................................................",
"........................................................................",
"........................................................................",
"........................................................................",
"........................................................................",
"........................................................................",
"........................................................................",
"........................................................................",
"........................................................................",
"........................................................................",
"........................................................................",
"........................................................................",
"........................................................................",
"........................................................................",
"........................................................................",
"........................................................................",
"........................................................................",
"..................................        ..............................",
"............................                  ..........................",
"..........................                        ......................",
".........................                            ...................",
"........................                               .................",
"......................                                  ................",
".....................                                    ...............",
"...................                                       ..............",
"..................                                        ..............",
"................   XX                                      .............",
"...............   XXXXXXXXXXXXX                             ............",
"..............      XXXXXXXXXXXXXXXXXX                       ...........",
"..............               XXXXXXXXXXXXX                   ...........",
".............                        XXXXXXXXXX               ..........",
".............                            XXXXXXXXXX           ..........",
"............                                  XXXXXXXX        ..........",
"............                         X            XXXXXX      ..........",
"...........                          X               XXXX      .........",
"...........                         XXX                XXXX    .........",
"..........                          XXX                 XXXXX  .........",
"..........                         XXXXX                  XXX   ........",
"..........                    XXXXXXXXXXXXXXX               XX   .......",
"..........                     XXXXXXXXXXXX                      .......",
"..........                       XXXXXXXXX                       .......",
"..........                        XXXXXXX                        .......",
"..........                        XXXXXXX                        .......",
"..........                       XXXXXXXXX                       .......",
"..........                       XXX   XXX                       .......",
"...........                     XXX     XXX                      .......",
"...........                     X         X                       ......",
"...........      XXXXXXXXX                                        ......",
"...........  XXXXXXXXXXXXXXXXXXX                                  ......",
"...........  XXXXX       XXXXXXXXXXXXX                            ......",
"..........                       XXXXXXXXXXX                      ......",
"..........                 XXXXXXXXXXXXXXXXXXXXX                  ......",
"..........            XXXXXXXXXXXX         XXXXXXXX               ......",
"..........         XXXXXXXXX                   XXXXXXX           .......",
"..........       XXXXXX                           XXXXXXX        .......",
"..........      XXXX                                 XXXXXXX    ........",
"...........   XXXX                                       XXXXX  ........",
"...........  XXXX                                          XXX  ........",
"...........  XX                                             X  .........",
"...........                                                    .........",
"............                                                   .........",
"............                                                  ..........",
"............                                                ............",
"..............                                            ..............",
"................                                       .................",
"....................                                ....................",
"........................                          ......................",
"............................                   .........................",
"........................................................................",
"........................................................................",
"........................................................................",
"........................................................................"
};
