/* XPM */
static char *wsld72[] = {
/* columns rows colors chars-per-pixel */
"72 72 3 1",
"  c black s dark_piece",
". c green s dark_square",
"X c white s light_piece",
/* pixels */
"........................................................................",
"........................................................................",
"........................................................................",
"........................................................................",
"........................................................................",
"........................................................................",
"........................................................................",
"........................................................................",
"........................................................................",
"........................................................................",
"........................................................................",
"........................................................................",
"........................................................................",
"........................................................................",
"........................................................................",
"........................................................................",
"........................................................................",
"..................................        ..............................",
"............................                  ..........................",
"..........................        XXXXXXXX        ......................",
".........................     XXXXXXXXXXXXXXXX       ...................",
"........................   XXXXXXXXXXXXXXXXXXXXXX      .................",
"......................    XXXXXXXXXXXXXXXXXXXXXXXXXXX   ................",
".....................    XXXXXXXXXXXXXXXXXXXXXXXXXXXXX   ...............",
"...................    XXXXXXXXXXXXXXXXXXXXXXXXXXXXXXXX   ..............",
"..................    XXXXXXXXXXXXXXXXXXXXXXXXXXXXXXXXXX  ..............",
"................     XXXXXXXXXXXXXXXXXXXXXXXXXXXXXXXXXXX   .............",
"...............                XXXXXXXXXXXXXXXXXXXXXXXXXX   ............",
"..............   XXX                  XXXXXXXXXXXXXXXXXXXX   ...........",
"..............  XXXXXXXXXXXXX             XXXXXXXXXXXXXXXXX  ...........",
".............   XXXXXXXXXXXXXXXXXXXXX          XXXXXXXXXXXX   ..........",
".............  XXXXXXXXXXXXXXXXXXXXXXXXXX          XXXXXXXXX  ..........",
"............   XXXXXXXXXXXXXXXXXXXXXXXXXXXXXXX        XXXXXX  ..........",
"............  XXXXXXXXXXXXXXXXXXXXXXX XXXXXXXXXXXX      XXXX  ..........",
"...........   XXXXXXXXXXXXXXXXXXXXXXX XXXXXXXXXXXXXXX    XXXX  .........",
"...........  XXXXXXXXXXXXXXXXXXXXXXX   XXXXXXXXXXXXXXXX    XX  .........",
"..........   XXXXXXXXXXXXXXXXXXXXXXX   XXXXXXXXXXXXXXXXX       .........",
"..........  XXXXXXXXXXXXXXXXXXXXXXX     XXXXXXXXXXXXXXXXXX      ........",
"..........  XXXXXXXXXXXXXXXXXX               XXXXXXXXXXXXXXX     .......",
"..........  XXXXXXXXXXXXXXXXXXX            XXXXXXXXXXXXXXXXXXXX  .......",
"..........  XXXXXXXXXXXXXXXXXXXXX         XXXXXXXXXXXXXXXXXXXXX  .......",
"..........  XXXXXXXXXXXXXXXXXXXXXX       XXXXXXXXXXXXXXXXXXXXXX  .......",
"..........  XXXXXXXXXXXXXXXXXXXXXX       XXXXXXXXXXXXXXXXXXXXXX  .......",
"..........  XXXXXXXXXXXXXXXXXXXXX         XXXXXXXXXXXXXXXXXXXXX  .......",
"..........  XXXXXXXXXXXXXXXXXXXXX   XXX   XXXXXXXXXXXXXXXXXXXXX  .......",
"...........  XXXXXXXXXXXXXXXXXXX   XXXXX   XXXXXXXXXXXXXXXXXXXX  .......",
"...........  XXXXXXXXXXXXXXXXXXX XXXXXXXXX XXXXXXXXXXXXXXXXXXXX   ......",
"...........  XXXX         XXXXXXXXXXXXXXXXXXXXXXXXXXXXXXXXXXXXXX  ......",
"...........                     XXXXXXXXXXXXXXXXXXXXXXXXXXXXXXXX  ......",
"...........       XXXXXXX             XXXXXXXXXXXXXXXXXXXXXXXXXX  ......",
"..........   XXXXXXXXXXXXXXXXXXXX           XXXXXXXXXXXXXXXXXXXX  ......",
"..........  XXXXXXXXXXXXXXX                     XXXXXXXXXXXXXXX   ......",
"..........  XXXXXXXXXX            XXXXXXXXX        XXXXXXXXXXXX   ......",
"..........  XXXXXXX         XXXXXXXXXXXXXXXXXXX       XXXXXXXXX  .......",
"..........  XXXXX      XXXXXXXXXXXXXXXXXXXXXXXXXXX       XXXXX   .......",
"..........   XXX    XXXXXXXXXXXXXXXXXXXXXXXXXXXXXXXXX       XX  ........",
"...........  X    XXXXXXXXXXXXXXXXXXXXXXXXXXXXXXXXXXXXXXX       ........",
"...........      XXXXXXXXXXXXXXXXXXXXXXXXXXXXXXXXXXXXXXXXXX     ........",
"...........    XXXXXXXXXXXXXXXXXXXXXXXXXXXXXXXXXXXXXXXXXXXXX   .........",
"...........   XXXXXXXXXXXXXXXXXXXXXXXXXXXXXXXXXXXXXXXXXXXXXXX  .........",
"............  XXXXXXXXXXXXXXXXXXXXXXXXXXXXXXXXXXXXXXXXXXXX     .........",
"............  XXXXXXXXXXXXXXXXXXXXXXXXXXXXXXXXXXXXXXXXXXX     ..........",
"............    XXXXXXXXXXXXXXXXXXXXXXXXXXXXXXXXXXXXXX      ............",
"..............      XXXXXXXXXXXXXXXXXXXXXXXXXXXXXXX       ..............",
"................        XXXXXXXXXXXXXXXXXXXXXXXXX      .................",
"....................        XXXXXXXXXXXXXXXXXX      ....................",
"........................                          ......................",
"............................                   .........................",
"........................................................................",
"........................................................................",
"........................................................................",
"........................................................................"
};
