#define a37o_width 37
#define a37o_height 37
static unsigned char a37o_bits[] = {
0x00,0x00,0x00,0x00,0x00,0x00,0x00,0x00,0x00,0x00,0x00,0x00,0x00,0x00,0x00
,0x00,0x00,0x00,0x00,0x00,0x00,0x00,0x00,0x00,0x00,0x00,0x00,0x0e,0x00,0x00
,0x00,0x80,0x31,0x00,0x00,0x00,0x70,0xc0,0x01,0x00,0x00,0x0e,0x00,0x0e,0x00
,0x80,0x01,0x00,0x30,0x00,0x20,0x00,0x00,0xc0,0x00,0x10,0x00,0x00,0x00,0x01
,0x08,0x00,0x00,0x00,0x02,0x08,0x00,0x04,0x00,0x02,0x08,0x00,0x04,0x00,0x02
,0x10,0x80,0x3f,0x00,0x01,0x10,0x00,0x04,0x00,0x01,0x60,0x00,0x04,0xc0,0x00
,0x80,0x01,0x04,0x30,0x00,0x00,0x06,0x00,0x0c,0x00,0x00,0x08,0x00,0x02,0x00
,0x00,0x10,0x00,0x01,0x00,0x00,0xf0,0xff,0x01,0x00,0x00,0x10,0x00,0x01,0x00
,0x00,0x10,0x00,0x01,0x00,0x00,0xf0,0xff,0x01,0x00,0x00,0x18,0x00,0x03,0x00
,0x00,0x18,0x00,0x03,0x00,0x00,0xe0,0xff,0x00,0x00,0x00,0x00,0x0b,0x00,0x00
,0x00,0xc3,0x60,0x18,0x00,0xf0,0x3c,0x84,0xe7,0x01,0x08,0x00,0x1b,0x00,0x02
,0xd0,0xff,0xe0,0x7f,0x01,0x30,0x00,0x00,0x80,0x01,0x00,0x00,0x00,0x00,0x00
,0x00,0x00,0x00,0x00,0x00
};
