#define a40o_width 40
#define a40o_height 40
static unsigned char a40o_bits[] = {
0x00,0x00,0x00,0x00,0x00,0x00,0x00,0x00,0x00,0x00,0x00,0x00,0x00,0x00,0x00
,0x00,0x00,0x00,0x00,0x00,0x00,0x00,0x00,0x00,0x00,0x00,0x00,0x00,0x00,0x00
,0x00,0x00,0x7c,0x00,0x00,0x00,0x00,0x83,0x01,0x00,0x00,0x80,0x00,0x02,0x00
,0x00,0x60,0x00,0x0c,0x00,0x00,0x18,0x00,0x30,0x00,0x00,0x06,0x00,0xc0,0x00
,0x80,0x01,0x10,0x00,0x03,0x40,0x00,0x10,0x00,0x04,0x20,0x00,0x10,0x00,0x08
,0x20,0x00,0xfe,0x00,0x08,0x40,0x00,0x10,0x00,0x04,0x80,0x00,0x10,0x00,0x02
,0x00,0x03,0x10,0x80,0x01,0x00,0x04,0x00,0x40,0x00,0x00,0x08,0x00,0x20,0x00
,0x00,0x10,0x00,0x10,0x00,0x00,0x20,0xff,0x09,0x00,0x00,0xc0,0x00,0x06,0x00
,0x00,0x40,0x00,0x04,0x00,0x00,0x20,0x00,0x08,0x00,0x00,0xe0,0xff,0x0f,0x00
,0x00,0x30,0x00,0x18,0x00,0x00,0x70,0x00,0x1c,0x00,0x00,0x80,0xff,0x03,0x00
,0x00,0x00,0x28,0x00,0x00,0x00,0x00,0xc6,0x00,0x00,0xc0,0xff,0x01,0xff,0x07
,0x30,0x00,0x10,0x00,0x18,0x08,0x00,0x6c,0x00,0x20,0xd0,0xff,0x83,0xff,0x17
,0x20,0x00,0x00,0x00,0x08,0x00,0x00,0x00,0x00,0x00,0x00,0x00,0x00,0x00,0x00
,0x00,0x00,0x00,0x00,0x00
};
