#define a49o_width 49
#define a49o_height 49
static unsigned char a49o_bits[] = {
0x00,0x00,0x00,0x00,0x00,0x00,0x00,0x00,0x00,0x00,0x00,0x00,0x00,0x00,0x00
,0x00,0x00,0x00,0x00,0x00,0x00,0x00,0x00,0x00,0x00,0x00,0x00,0x00,0x00,0x00
,0x00,0x00,0x00,0x00,0x00,0x80,0x7f,0x00,0x00,0xfc,0x03,0x00,0x80,0x80,0x00
,0x00,0x02,0x02,0x00,0x80,0x00,0x01,0x00,0x01,0x02,0x00,0x80,0x00,0x02,0x80
,0x00,0x02,0x00,0x80,0x00,0x04,0x40,0x20,0x02,0x00,0x80,0x10,0x08,0x20,0x10
,0x02,0x00,0x80,0x20,0x10,0x10,0x08,0x02,0x00,0x80,0x40,0x20,0x08,0x04,0x02
,0x00,0x00,0x81,0x40,0x04,0x02,0x01,0x00,0x00,0x02,0x81,0x02,0x81,0x00,0x00
,0x00,0x04,0x02,0x81,0x40,0x00,0x00,0x00,0x08,0x04,0x42,0x20,0x00,0x00,0x00
,0x10,0x08,0x24,0x10,0x00,0x00,0x00,0x20,0x10,0x08,0x08,0x00,0x00,0x00,0x40
,0x20,0x10,0x04,0x00,0x00,0x00,0x80,0x40,0x20,0x02,0x00,0x00,0x00,0x00,0x81
,0x40,0x01,0x00,0x00,0x00,0x00,0x02,0x81,0x00,0x00,0x00,0x00,0x00,0x05,0x02
,0x01,0x00,0x00,0x00,0x80,0x08,0x04,0x02,0x00,0x00,0x00,0x40,0x10,0x08,0x04
,0x03,0x00,0xc0,0x20,0x20,0x10,0x88,0x04,0x00,0x20,0x11,0x48,0x20,0x50,0x08
,0x00,0x10,0x0a,0x84,0x40,0x20,0x08,0x00,0x10,0x04,0x02,0x81,0x10,0x04,0x00
,0x20,0x08,0x81,0x02,0x09,0x03,0x00,0xc0,0x90,0x40,0x04,0x84,0x00,0x00,0x00
,0x21,0x20,0x08,0x42,0x00,0x00,0x00,0x42,0x10,0x10,0xa1,0x00,0x00,0x00,0x85
,0x08,0xa0,0x10,0x01,0x00,0x80,0x08,0x05,0x40,0x08,0x02,0x00,0x40,0x10,0x02
,0x20,0x04,0x04,0x00,0x20,0x20,0x04,0x10,0x0a,0x08,0x00,0x10,0x50,0x08,0x08
,0x11,0x10,0x00,0x08,0x88,0x10,0x08,0x21,0x10,0x00,0x08,0x84,0x10,0x90,0x40
,0x10,0x00,0x08,0x02,0x09,0x60,0x80,0x08,0x00,0x10,0x01,0x06,0x00,0x00,0x07
,0x00,0xe0,0x00,0x00,0x00,0x00,0x00,0x00,0x00,0x00,0x00,0x00,0x00,0x00,0x00
,0x00,0x00,0x00,0x00,0x00,0x00,0x00,0x00,0x00,0x00,0x00,0x00,0x00,0x00,0x00
,0x00,0x00,0x00,0x00,0x00,0x00,0x00,0x00,0x00,0x00,0x00,0x00,0x00
};
