#define a54o_width 54
#define a54o_height 54
static unsigned char a54o_bits[] = {
0x00,0x00,0x00,0x00,0x00,0x00,0x00,0x00,0x00,0x00,0x00,0x00,0x00,0x00,0x00
,0x00,0x00,0x00,0x00,0x00,0x00,0x00,0x00,0x00,0x00,0x00,0x00,0x00,0x00,0x00
,0x00,0x00,0x00,0x00,0x00,0x00,0x00,0x00,0x00,0x00,0x00,0x00,0x00,0x00,0x00
,0x00,0x00,0x00,0x00,0x00,0x00,0x00,0x00,0x00,0x00,0x00,0x00,0x00,0x00,0x00
,0x00,0x00,0x00,0x00,0x00,0xc0,0xff,0x00,0x00,0x00,0x00,0x00,0xf0,0xff,0x03
,0x00,0x00,0x00,0x00,0x38,0x00,0x07,0x00,0x00,0x00,0x00,0x1c,0x00,0x0e,0x00
,0x00,0x00,0x00,0x0e,0x00,0x1c,0x00,0x00,0x00,0xc0,0x07,0x00,0xf8,0x00,0x00
,0x00,0xf8,0x01,0x00,0xe0,0x07,0x00,0x00,0x3e,0x00,0x00,0x00,0x1f,0x00,0x00
,0x07,0x00,0x0c,0x00,0x38,0x00,0x80,0x03,0x00,0x0c,0x00,0x70,0x00,0xc0,0x01
,0x00,0x0c,0x00,0xe0,0x00,0xe0,0x00,0x00,0x0c,0x00,0xc0,0x01,0x60,0x00,0xc0
,0xff,0x00,0x80,0x01,0xe0,0x00,0xc0,0xff,0x00,0xc0,0x01,0xc0,0x00,0x00,0x0c
,0x00,0xc0,0x00,0xc0,0x01,0x00,0x0c,0x00,0xe0,0x00,0x80,0x07,0x00,0x0c,0x00
,0x78,0x00,0x00,0x1e,0x00,0x0c,0x00,0x1e,0x00,0x00,0x78,0x00,0x00,0x80,0x07
,0x00,0x00,0xe0,0x01,0x00,0xe0,0x01,0x00,0x00,0x80,0x03,0x00,0x70,0x00,0x00
,0x00,0x00,0xe7,0xff,0x39,0x00,0x00,0x00,0x00,0xfe,0xff,0x1f,0x00,0x00,0x00
,0x00,0x1c,0x00,0x0e,0x00,0x00,0x00,0x00,0x0c,0x00,0x0c,0x00,0x00,0x00,0x00
,0x0e,0x00,0x1c,0x00,0x00,0x00,0x00,0xf6,0xff,0x1b,0x00,0x00,0x00,0x00,0xff
,0xff,0x3f,0x00,0x00,0x00,0x00,0x0f,0x00,0x3c,0x00,0x00,0x00,0x00,0x03,0x00
,0x30,0x00,0x00,0x00,0x80,0x0f,0x00,0x7c,0x00,0x00,0x00,0x00,0xff,0xff,0x3f
,0x00,0x00,0x00,0x00,0xf0,0xff,0x03,0x00,0x00,0x00,0x00,0xc0,0xf3,0x00,0x00
,0x00,0x80,0xff,0xff,0xc0,0xff,0x7f,0x00,0xe0,0xff,0x3f,0x00,0xff,0xff,0x01
,0x78,0x00,0x00,0x00,0x00,0x80,0x07,0x30,0x00,0x00,0x0c,0x00,0x00,0x03,0x70
,0x00,0x80,0x7f,0x00,0x80,0x03,0xe0,0xff,0xff,0xf3,0xff,0xff,0x01,0xc0,0xff
,0x7f,0x80,0xff,0xff,0x00,0x80,0x00,0x00,0x00,0x00,0x40,0x00,0x00,0x00,0x00
,0x00,0x00,0x00,0x00,0x00,0x00,0x00,0x00,0x00,0x00,0x00,0x00,0x00,0x00,0x00
,0x00,0x00,0x00
};
