#define as45o_width 45
#define as45o_height 45
static unsigned char as45o_bits[] = {
0x00,0x00,0x00,0x00,0x00,0x00,0x00,0x00,0x00,0x00,0x00,0x00,0x00,0x00,0x00
,0x00,0x00,0x00,0x00,0x00,0x00,0x00,0x00,0x00,0x00,0x00,0x00,0x00,0x00,0x00
,0xc0,0x3f,0x00,0x80,0x7f,0x00,0x40,0x40,0x00,0x40,0x40,0x00,0x40,0x80,0x00
,0x20,0x40,0x00,0x40,0x00,0x01,0x10,0x40,0x00,0x40,0x00,0x02,0x08,0x44,0x00
,0x40,0x08,0x04,0x04,0x42,0x00,0x40,0x10,0x08,0x02,0x41,0x00,0x40,0x20,0x10
,0x81,0x40,0x00,0x80,0x40,0xa0,0x40,0x20,0x00,0x00,0x81,0x40,0x20,0x10,0x00
,0x00,0x02,0x81,0x10,0x08,0x00,0x00,0x04,0x02,0x09,0x04,0x00,0x00,0x08,0x04
,0x02,0x02,0x00,0x00,0x10,0x08,0x04,0x01,0x00,0x00,0x20,0x10,0x88,0x00,0x00
,0x00,0x40,0x20,0x50,0x00,0x00,0x00,0x80,0x40,0x20,0x00,0x00,0x00,0x40,0x81
,0x40,0x00,0x00,0x00,0x20,0x02,0x81,0x00,0x00,0x60,0x10,0x04,0x02,0xc1,0x00
,0x90,0x08,0x08,0x04,0x22,0x01,0x08,0x05,0x12,0x08,0x14,0x02,0x08,0x02,0x21
,0x10,0x08,0x02,0x10,0x84,0x40,0x20,0x04,0x01,0x60,0x48,0xa0,0x40,0xc2,0x00
,0x80,0x10,0x10,0x01,0x21,0x00,0x00,0x21,0x08,0x82,0x10,0x00,0x80,0x42,0x04
,0x44,0x28,0x00,0x40,0x84,0x02,0x28,0x44,0x00,0x20,0x08,0x01,0x10,0x82,0x00
,0x10,0x10,0x02,0x08,0x01,0x01,0x08,0x28,0x04,0x84,0x02,0x02,0x04,0x44,0x08
,0x42,0x04,0x04,0x04,0x42,0x08,0x42,0x08,0x04,0x04,0x81,0x04,0x24,0x10,0x04
,0x88,0x00,0x03,0x18,0x20,0x02,0x70,0x00,0x00,0x00,0xc0,0x01,0x00,0x00,0x00
,0x00,0x00,0x00,0x00,0x00,0x00,0x00,0x00,0x00,0x00,0x00,0x00,0x00,0x00,0x00

};
