#define b21o_width 21
#define b21o_height 21
static unsigned char b21o_bits[] = {
0x00,0x00,0x00,0x00,0x0e,0x00,0x00,0x0a,0x00,0x00,0x1b,0x00,0x80,0x31,0x00
,0xc0,0x60,0x00,0x60,0xc4,0x00,0x20,0x84,0x00,0x20,0x9f,0x00,0x20,0x84,0x00
,0x60,0xc4,0x00,0xc0,0x60,0x00,0x80,0x3f,0x00,0xc0,0x60,0x00,0xc0,0x7f,0x00
,0x40,0x40,0x00,0x9c,0x3f,0x07,0xe6,0xf1,0x0c,0x06,0x0e,0x0c,0xfc,0xfb,0x07
,0x00,0x00,0x00
};
