#define b21s_width 21
#define b21s_height 21
static unsigned char b21s_bits[] = {
0x00,0x00,0x00,0x00,0x0e,0x00,0x00,0x0e,0x00,0x00,0x1f,0x00,0x80,0x3f,0x00
,0xc0,0x7f,0x00,0xe0,0xfb,0x00,0xe0,0xfb,0x00,0xe0,0xe0,0x00,0xe0,0xfb,0x00
,0xe0,0xfb,0x00,0xc0,0x7f,0x00,0x80,0x20,0x00,0xc0,0x7f,0x00,0x40,0x40,0x00
,0xc0,0x7f,0x00,0x1c,0x1f,0x07,0xbe,0xbf,0x0f,0xfe,0xfb,0x0f,0xfc,0xf1,0x07
,0x00,0x00,0x00
};
