#define b25o_width 25
#define b25o_height 25
static unsigned char b25o_bits[] = {
0x00,0x00,0x00,0x00,0x00,0x10,0x00,0x00,0x00,0x28,0x00,0x00,0x00,0x28,0x00
,0x00,0x00,0x10,0x00,0x00,0x00,0x6c,0x00,0x00,0x00,0x83,0x01,0x00,0x80,0x00
,0x02,0x00,0x40,0x10,0x04,0x00,0x40,0x10,0x04,0x00,0x40,0x7c,0x04,0x00,0x40
,0x10,0x04,0x00,0x40,0x10,0x04,0x00,0x80,0x00,0x02,0x00,0x00,0xff,0x01,0x00
,0x00,0x01,0x01,0x00,0x00,0xff,0x01,0x00,0x80,0x00,0x02,0x00,0x00,0xff,0x01
,0x00,0x00,0x28,0x00,0x00,0xfc,0xc7,0x7f,0x00,0x04,0x10,0x40,0x00,0xf8,0x6c
,0x3e,0x00,0x08,0x83,0x21,0x00,0x00,0x00,0x00,0x00
};
