#define b45o_width 45
#define b45o_height 45
static unsigned char b45o_bits[] = {
0x00,0x00,0x00,0x00,0x00,0x00,0x00,0x00,0x00,0x00,0x00,0x00,0x00,0x00,0x00
,0x00,0x00,0x00,0x00,0x00,0xe0,0x00,0x00,0x00,0x00,0x00,0x10,0x01,0x00,0x00
,0x00,0x00,0x10,0x01,0x00,0x00,0x00,0x00,0x10,0x01,0x00,0x00,0x00,0x00,0xe0
,0x00,0x00,0x00,0x00,0x00,0xa0,0x00,0x00,0x00,0x00,0x00,0x18,0x03,0x00,0x00
,0x00,0x00,0x04,0x04,0x00,0x00,0x00,0x00,0x03,0x18,0x00,0x00,0x00,0x80,0x00
,0x20,0x00,0x00,0x00,0x40,0x00,0x40,0x00,0x00,0x00,0x20,0x00,0x80,0x00,0x00
,0x00,0x10,0x40,0x00,0x01,0x00,0x00,0x10,0x40,0x00,0x01,0x00,0x00,0x08,0x40
,0x00,0x02,0x00,0x00,0x08,0xfc,0x07,0x02,0x00,0x00,0x08,0x40,0x00,0x02,0x00
,0x00,0x08,0x40,0x00,0x02,0x00,0x00,0x08,0x40,0x00,0x02,0x00,0x00,0x08,0x40
,0x00,0x02,0x00,0x00,0x10,0x00,0x00,0x01,0x00,0x00,0x10,0x00,0x00,0x01,0x00
,0x00,0x20,0x00,0x80,0x00,0x00,0x00,0x40,0x00,0x40,0x00,0x00,0x00,0xc0,0xff
,0x7f,0x00,0x00,0x00,0x80,0x00,0x20,0x00,0x00,0x00,0x80,0x00,0x20,0x00,0x00
,0x00,0x40,0x00,0x40,0x00,0x00,0x00,0x40,0xff,0x5f,0x00,0x00,0x00,0xc0,0x00
,0x60,0x00,0x00,0x00,0x20,0x00,0x80,0x00,0x00,0x00,0xe0,0x00,0xe0,0x00,0x00
,0x00,0x00,0xff,0x1f,0x00,0x00,0x00,0x00,0xb0,0x01,0x00,0x00,0x00,0x00,0x0c
,0x06,0x00,0x00,0x80,0xff,0x43,0xf8,0x3f,0x00,0x70,0x00,0xb0,0x01,0xc0,0x01
,0x08,0x00,0x08,0x02,0x00,0x02,0xc8,0xff,0x07,0xfc,0x7f,0x02,0x30,0x00,0x00
,0x00,0x80,0x01,0x00,0x00,0x00,0x00,0x00,0x00,0x00,0x00,0x00,0x00,0x00,0x00

};
