#define b49o_width 49
#define b49o_height 49
static unsigned char b49o_bits[] = {
0x00,0x00,0x00,0x00,0x00,0x00,0x00,0x00,0x00,0x00,0x00,0x00,0x00,0x00,0x00
,0x00,0x00,0x00,0x00,0x00,0x00,0x00,0x00,0x80,0x03,0x00,0x00,0x00,0x00,0x00
,0x40,0x04,0x00,0x00,0x00,0x00,0x00,0x20,0x08,0x00,0x00,0x00,0x00,0x00,0x20
,0x08,0x00,0x00,0x00,0x00,0x00,0x40,0x04,0x00,0x00,0x00,0x00,0x00,0x80,0x03
,0x00,0x00,0x00,0x00,0x00,0xc0,0x06,0x00,0x00,0x00,0x00,0x00,0x20,0x08,0x00
,0x00,0x00,0x00,0x00,0x18,0x30,0x00,0x00,0x00,0x00,0x00,0x04,0x40,0x00,0x00
,0x00,0x00,0x00,0x02,0x80,0x00,0x00,0x00,0x00,0x00,0x01,0x00,0x01,0x00,0x00
,0x00,0x80,0x00,0x00,0x02,0x00,0x00,0x00,0x40,0x00,0x01,0x04,0x00,0x00,0x00
,0x40,0x00,0x01,0x04,0x00,0x00,0x00,0x20,0x00,0x01,0x08,0x00,0x00,0x00,0x20
,0x00,0x01,0x08,0x00,0x00,0x00,0x20,0xf0,0x1f,0x08,0x00,0x00,0x00,0x20,0x00
,0x01,0x08,0x00,0x00,0x00,0x20,0x00,0x01,0x08,0x00,0x00,0x00,0x20,0x00,0x01
,0x08,0x00,0x00,0x00,0x20,0x00,0x01,0x08,0x00,0x00,0x00,0x40,0x00,0x00,0x04
,0x00,0x00,0x00,0x40,0x00,0x00,0x04,0x00,0x00,0x00,0x80,0x00,0x00,0x02,0x00
,0x00,0x00,0x80,0x00,0x00,0x02,0x00,0x00,0x00,0x00,0xf9,0x3f,0x01,0x00,0x00
,0x00,0x00,0x07,0xc0,0x01,0x00,0x00,0x00,0x00,0x01,0x00,0x01,0x00,0x00,0x00
,0x00,0x01,0x00,0x01,0x00,0x00,0x00,0x00,0x01,0x00,0x01,0x00,0x00,0x00,0x80
,0xff,0xff,0x03,0x00,0x00,0x00,0x80,0x00,0x00,0x02,0x00,0x00,0x00,0x40,0x00
,0x00,0x04,0x00,0x00,0x00,0xc0,0x03,0x80,0x07,0x00,0x00,0x00,0x00,0xfc,0x7f
,0x00,0x00,0x00,0x00,0x00,0xc0,0x06,0x00,0x00,0x00,0x00,0x00,0x30,0x18,0x00
,0x00,0x00,0x00,0xff,0x0f,0xe1,0xff,0x01,0x00,0xe0,0x00,0xc0,0x06,0x00,0x0e
,0x00,0x10,0x00,0x30,0x18,0x00,0x10,0x00,0x10,0xff,0x0f,0xe0,0xff,0x11,0x00
,0xf0,0x00,0x00,0x00,0x00,0x1e,0x00,0x00,0x00,0x00,0x00,0x00,0x00,0x00,0x00
,0x00,0x00,0x00,0x00,0x00,0x00,0x00,0x00,0x00,0x00,0x00,0x00,0x00
};
