#define b64o_width 64
#define b64o_height 64
static unsigned char b64o_bits[] = {
0x00,0x00,0x00,0x00,0x00,0x00,0x00,0x00,0x00,0x00,0x00,0x00,0x00,0x00,0x00
,0x00,0x00,0x00,0x00,0x00,0x00,0x00,0x00,0x00,0x00,0x00,0x00,0x00,0x00,0x00
,0x00,0x00,0x00,0x00,0x00,0x80,0x01,0x00,0x00,0x00,0x00,0x00,0x00,0xe0,0x07
,0x00,0x00,0x00,0x00,0x00,0x00,0x70,0x0e,0x00,0x00,0x00,0x00,0x00,0x00,0x30
,0x0c,0x00,0x00,0x00,0x00,0x00,0x00,0x30,0x0c,0x00,0x00,0x00,0x00,0x00,0x00
,0x70,0x0e,0x00,0x00,0x00,0x00,0x00,0x00,0xe0,0x07,0x00,0x00,0x00,0x00,0x00
,0x00,0xc0,0x03,0x00,0x00,0x00,0x00,0x00,0x00,0xf0,0x0f,0x00,0x00,0x00,0x00
,0x00,0x00,0x38,0x1c,0x00,0x00,0x00,0x00,0x00,0x00,0x1e,0x78,0x00,0x00,0x00
,0x00,0x00,0x00,0x07,0xe0,0x00,0x00,0x00,0x00,0x00,0xc0,0x03,0xc0,0x03,0x00
,0x00,0x00,0x00,0xe0,0x00,0x00,0x07,0x00,0x00,0x00,0x00,0x70,0x00,0x00,0x0e
,0x00,0x00,0x00,0x00,0x38,0x00,0x00,0x1c,0x00,0x00,0x00,0x00,0x18,0x80,0x01
,0x18,0x00,0x00,0x00,0x00,0x1c,0x80,0x01,0x38,0x00,0x00,0x00,0x00,0x0c,0x80
,0x01,0x30,0x00,0x00,0x00,0x00,0x0e,0x80,0x01,0x70,0x00,0x00,0x00,0x00,0x06
,0x80,0x01,0x60,0x00,0x00,0x00,0x00,0x06,0xfc,0x3f,0x60,0x00,0x00,0x00,0x00
,0x06,0xfc,0x3f,0x60,0x00,0x00,0x00,0x00,0x06,0x80,0x01,0x60,0x00,0x00,0x00
,0x00,0x06,0x80,0x01,0x60,0x00,0x00,0x00,0x00,0x06,0x80,0x01,0x60,0x00,0x00
,0x00,0x00,0x0e,0x80,0x01,0x70,0x00,0x00,0x00,0x00,0x0c,0x00,0x00,0x30,0x00
,0x00,0x00,0x00,0x0c,0x00,0x00,0x30,0x00,0x00,0x00,0x00,0x1c,0x00,0x00,0x38
,0x00,0x00,0x00,0x00,0x18,0x00,0x00,0x18,0x00,0x00,0x00,0x00,0x38,0x00,0x00
,0x1c,0x00,0x00,0x00,0x00,0x70,0xfe,0x7f,0x0e,0x00,0x00,0x00,0x00,0xe0,0xff
,0xff,0x07,0x00,0x00,0x00,0x00,0xe0,0x01,0x80,0x07,0x00,0x00,0x00,0x00,0x60
,0x00,0x00,0x06,0x00,0x00,0x00,0x00,0x60,0x00,0x00,0x06,0x00,0x00,0x00,0x00
,0x70,0x00,0x00,0x0e,0x00,0x00,0x00,0x00,0xb0,0xff,0xff,0x0d,0x00,0x00,0x00
,0x00,0xf0,0xff,0xff,0x0f,0x00,0x00,0x00,0x00,0x78,0x00,0x00,0x1e,0x00,0x00
,0x00,0x00,0x18,0x00,0x00,0x18,0x00,0x00,0x00,0x00,0xf8,0x01,0x80,0x1f,0x00
,0x00,0x00,0x00,0xf0,0xff,0xff,0x0f,0x00,0x00,0x00,0x00,0x00,0xfe,0x7f,0x00
,0x00,0x00,0x00,0x00,0x00,0xf0,0x0f,0x00,0x00,0x00,0x00,0x00,0x00,0x3c,0x3c
,0x00,0x00,0x00,0x00,0xfe,0xff,0x0f,0xf0,0xff,0x7f,0x00,0x80,0xff,0xff,0x03
,0xc0,0xff,0xff,0x01,0xe0,0x01,0x00,0x00,0x00,0x00,0x80,0x07,0x70,0x00,0x00
,0x80,0x01,0x00,0x00,0x0e,0xe0,0x00,0x00,0xe0,0x07,0x00,0x00,0x07,0xc0,0xf8
,0x07,0x78,0x1e,0xe0,0x1f,0x03,0xc0,0xff,0xff,0x1f,0xf8,0xff,0xff,0x03,0x80
,0x07,0xf8,0x07,0xe0,0x1f,0xe0,0x01,0x00,0x01,0x00,0x00,0x00,0x00,0x80,0x00
,0x00,0x00,0x00,0x00,0x00,0x00,0x00,0x00,0x00,0x00,0x00,0x00,0x00,0x00,0x00
,0x00,0x00,0x00,0x00,0x00,0x00,0x00,0x00,0x00,0x00,0x00,0x00,0x00,0x00,0x00
,0x00,0x00
};
