#define b72o_width 72
#define b72o_height 72
static unsigned char b72o_bits[] = {
0x00,0x00,0x00,0x00,0x00,0x00,0x00,0x00,0x00,0x00,0x00,0x00,0x00,0x00,0x00
,0x00,0x00,0x00,0x00,0x00,0x00,0x00,0x00,0x00,0x00,0x00,0x00,0x00,0x00,0x00
,0x00,0x3c,0x00,0x00,0x00,0x00,0x00,0x00,0x00,0x00,0xff,0x00,0x00,0x00,0x00
,0x00,0x00,0x00,0x80,0xc3,0x01,0x00,0x00,0x00,0x00,0x00,0x00,0x80,0x81,0x01
,0x00,0x00,0x00,0x00,0x00,0x00,0x80,0x81,0x01,0x00,0x00,0x00,0x00,0x00,0x00
,0x80,0x81,0x01,0x00,0x00,0x00,0x00,0x00,0x00,0x80,0x81,0x01,0x00,0x00,0x00
,0x00,0x00,0x00,0x80,0xc3,0x01,0x00,0x00,0x00,0x00,0x00,0x00,0x00,0xff,0x00
,0x00,0x00,0x00,0x00,0x00,0x00,0x00,0x3c,0x00,0x00,0x00,0x00,0x00,0x00,0x00
,0x00,0xff,0x00,0x00,0x00,0x00,0x00,0x00,0x00,0x80,0xc3,0x01,0x00,0x00,0x00
,0x00,0x00,0x00,0xe0,0x81,0x07,0x00,0x00,0x00,0x00,0x00,0x00,0x70,0x00,0x0e
,0x00,0x00,0x00,0x00,0x00,0x00,0x38,0x00,0x1c,0x00,0x00,0x00,0x00,0x00,0x00
,0x1e,0x00,0x78,0x00,0x00,0x00,0x00,0x00,0x00,0x07,0x00,0xe0,0x00,0x00,0x00
,0x00,0x00,0x80,0x03,0x00,0xc0,0x01,0x00,0x00,0x00,0x00,0xc0,0x01,0x00,0x80
,0x03,0x00,0x00,0x00,0x00,0xe0,0x00,0x00,0x00,0x07,0x00,0x00,0x00,0x00,0x70
,0x00,0x18,0x00,0x0e,0x00,0x00,0x00,0x00,0x30,0x00,0x18,0x00,0x0c,0x00,0x00
,0x00,0x00,0x38,0x00,0x18,0x00,0x1c,0x00,0x00,0x00,0x00,0x18,0x00,0x18,0x00
,0x18,0x00,0x00,0x00,0x00,0x1c,0x00,0x18,0x00,0x38,0x00,0x00,0x00,0x00,0x0c
,0x00,0x18,0x00,0x30,0x00,0x00,0x00,0x00,0x0c,0xe0,0xff,0x07,0x30,0x00,0x00
,0x00,0x00,0x0c,0xe0,0xff,0x07,0x30,0x00,0x00,0x00,0x00,0x0c,0x00,0x18,0x00
,0x30,0x00,0x00,0x00,0x00,0x0c,0x00,0x18,0x00,0x30,0x00,0x00,0x00,0x00,0x0c
,0x00,0x18,0x00,0x30,0x00,0x00,0x00,0x00,0x0c,0x00,0x18,0x00,0x30,0x00,0x00
,0x00,0x00,0x1c,0x00,0x18,0x00,0x38,0x00,0x00,0x00,0x00,0x18,0x00,0x00,0x00
,0x18,0x00,0x00,0x00,0x00,0x18,0x00,0x00,0x00,0x18,0x00,0x00,0x00,0x00,0x38
,0x00,0x00,0x00,0x1c,0x00,0x00,0x00,0x00,0x70,0x00,0x00,0x00,0x0e,0x00,0x00
,0x00,0x00,0x60,0x00,0x00,0x00,0x06,0x00,0x00,0x00,0x00,0xe0,0x00,0x00,0x00
,0x07,0x00,0x00,0x00,0x00,0xc0,0xf1,0xff,0x8f,0x03,0x00,0x00,0x00,0x00,0x80
,0xff,0xff,0xff,0x01,0x00,0x00,0x00,0x00,0x00,0x0f,0x00,0xf0,0x00,0x00,0x00
,0x00,0x00,0x80,0x03,0x00,0xc0,0x01,0x00,0x00,0x00,0x00,0x80,0x01,0x00,0x80
,0x01,0x00,0x00,0x00,0x00,0x80,0x01,0x00,0x80,0x01,0x00,0x00,0x00,0x00,0xc0
,0x01,0x00,0x80,0x03,0x00,0x00,0x00,0x00,0xc0,0xf8,0xff,0x1f,0x03,0x00,0x00
,0x00,0x00,0xe0,0xff,0xff,0xff,0x07,0x00,0x00,0x00,0x00,0xe0,0x07,0x00,0xe0
,0x07,0x00,0x00,0x00,0x00,0x60,0x00,0x00,0x00,0x06,0x00,0x00,0x00,0x00,0x70
,0x00,0x00,0x00,0x0e,0x00,0x00,0x00,0x00,0xf0,0x0f,0x00,0xf0,0x0f,0x00,0x00
,0x00,0x00,0xc0,0xff,0xff,0xff,0x03,0x00,0x00,0x00,0x00,0x00,0xf0,0xff,0x0f
,0x00,0x00,0x00,0x00,0x00,0x00,0x00,0xff,0x00,0x00,0x00,0x00,0x00,0x00,0x00
,0x80,0xc3,0x01,0x00,0x00,0x00,0x00,0x00,0x00,0xe0,0x81,0x07,0x00,0x00,0x00
,0x00,0xf8,0xff,0x7f,0x00,0xfe,0xff,0x1f,0x00,0x80,0xff,0xff,0x1f,0x00,0xf8
,0xff,0xff,0x01,0xe0,0x07,0x00,0x00,0x18,0x00,0x00,0xe0,0x07,0x70,0x00,0x00
,0x00,0x7e,0x00,0x00,0x00,0x0e,0x30,0x00,0x00,0xc0,0xe7,0x03,0x00,0x00,0x0c
,0x70,0xf0,0xff,0xff,0x81,0xff,0xff,0x0f,0x0e,0xe0,0xfe,0xff,0x3f,0x00,0xfc
,0xff,0x7f,0x07,0xc0,0x0f,0x00,0x00,0x00,0x00,0x00,0xf0,0x03,0x80,0x01,0x00
,0x00,0x00,0x00,0x00,0x80,0x01,0x00,0x00,0x00,0x00,0x00,0x00,0x00,0x00,0x00
,0x00,0x00,0x00,0x00,0x00,0x00,0x00,0x00,0x00,0x00,0x00,0x00,0x00,0x00,0x00
,0x00,0x00,0x00
};
