#define b80o_width 80
#define b80o_height 80
static unsigned char b80o_bits[] = {
0x00,0x00,0x00,0x00,0x00,0x00,0x00,0x00,0x00,0x00,0x00,0x00,0x00,0x00,0x00
,0x00,0x00,0x00,0x00,0x00,0x00,0x00,0x00,0x00,0x00,0x00,0x00,0x00,0x00,0x00
,0x00,0x00,0x00,0x00,0x00,0x00,0x00,0x00,0x00,0x00,0x00,0x00,0x00,0x00,0x00
,0x00,0x00,0x00,0x00,0x00,0x00,0x00,0x00,0x00,0xc0,0x03,0x00,0x00,0x00,0x00
,0x00,0x00,0x00,0x00,0xf0,0x0f,0x00,0x00,0x00,0x00,0x00,0x00,0x00,0x00,0x38
,0x1c,0x00,0x00,0x00,0x00,0x00,0x00,0x00,0x00,0x18,0x18,0x00,0x00,0x00,0x00
,0x00,0x00,0x00,0x00,0x18,0x18,0x00,0x00,0x00,0x00,0x00,0x00,0x00,0x00,0x18
,0x18,0x00,0x00,0x00,0x00,0x00,0x00,0x00,0x00,0x18,0x18,0x00,0x00,0x00,0x00
,0x00,0x00,0x00,0x00,0x38,0x1c,0x00,0x00,0x00,0x00,0x00,0x00,0x00,0x00,0xf0
,0x0f,0x00,0x00,0x00,0x00,0x00,0x00,0x00,0x00,0xe0,0x07,0x00,0x00,0x00,0x00
,0x00,0x00,0x00,0x00,0x70,0x0e,0x00,0x00,0x00,0x00,0x00,0x00,0x00,0x00,0x3c
,0x3c,0x00,0x00,0x00,0x00,0x00,0x00,0x00,0x00,0x0e,0x70,0x00,0x00,0x00,0x00
,0x00,0x00,0x00,0x80,0x07,0xe0,0x01,0x00,0x00,0x00,0x00,0x00,0x00,0xc0,0x01
,0x80,0x03,0x00,0x00,0x00,0x00,0x00,0x00,0xf0,0x00,0x00,0x0f,0x00,0x00,0x00
,0x00,0x00,0x00,0x38,0x00,0x00,0x1c,0x00,0x00,0x00,0x00,0x00,0x00,0x1c,0x00
,0x00,0x38,0x00,0x00,0x00,0x00,0x00,0x00,0x0e,0x00,0x00,0x70,0x00,0x00,0x00
,0x00,0x00,0x00,0x07,0x00,0x00,0xe0,0x00,0x00,0x00,0x00,0x00,0x80,0x03,0x80
,0x01,0xc0,0x01,0x00,0x00,0x00,0x00,0x80,0x01,0x80,0x01,0x80,0x01,0x00,0x00
,0x00,0x00,0xc0,0x01,0x80,0x01,0x80,0x03,0x00,0x00,0x00,0x00,0xc0,0x00,0x80
,0x01,0x00,0x03,0x00,0x00,0x00,0x00,0xe0,0x00,0x80,0x01,0x00,0x07,0x00,0x00
,0x00,0x00,0x60,0x00,0x80,0x01,0x00,0x06,0x00,0x00,0x00,0x00,0x60,0x00,0xfe
,0x7f,0x00,0x06,0x00,0x00,0x00,0x00,0x60,0x00,0xfe,0x7f,0x00,0x06,0x00,0x00
,0x00,0x00,0x60,0x00,0x80,0x01,0x00,0x06,0x00,0x00,0x00,0x00,0x60,0x00,0x80
,0x01,0x00,0x06,0x00,0x00,0x00,0x00,0x60,0x00,0x80,0x01,0x00,0x06,0x00,0x00
,0x00,0x00,0x60,0x00,0x80,0x01,0x00,0x06,0x00,0x00,0x00,0x00,0xe0,0x00,0x80
,0x01,0x00,0x07,0x00,0x00,0x00,0x00,0xc0,0x00,0x80,0x01,0x00,0x03,0x00,0x00
,0x00,0x00,0xc0,0x00,0x00,0x00,0x00,0x03,0x00,0x00,0x00,0x00,0xc0,0x01,0x00
,0x00,0x80,0x03,0x00,0x00,0x00,0x00,0x80,0x01,0x00,0x00,0x80,0x01,0x00,0x00
,0x00,0x00,0x80,0x03,0x00,0x00,0xc0,0x01,0x00,0x00,0x00,0x00,0x00,0x03,0x00
,0x00,0xc0,0x00,0x00,0x00,0x00,0x00,0x00,0x07,0x00,0x00,0xe0,0x00,0x00,0x00
,0x00,0x00,0x00,0x0e,0xfe,0x7f,0x70,0x00,0x00,0x00,0x00,0x00,0x00,0xfc,0xff
,0xff,0x3f,0x00,0x00,0x00,0x00,0x00,0x00,0xf8,0x01,0x80,0x1f,0x00,0x00,0x00
,0x00,0x00,0x00,0x18,0x00,0x00,0x18,0x00,0x00,0x00,0x00,0x00,0x00,0x1c,0x00
,0x00,0x38,0x00,0x00,0x00,0x00,0x00,0x00,0x0c,0x00,0x00,0x30,0x00,0x00,0x00
,0x00,0x00,0x00,0x0c,0x00,0x00,0x30,0x00,0x00,0x00,0x00,0x00,0x00,0x0e,0xff
,0xff,0x70,0x00,0x00,0x00,0x00,0x00,0x00,0xfe,0xff,0xff,0x7f,0x00,0x00,0x00
,0x00,0x00,0x00,0xfe,0x00,0x00,0x7f,0x00,0x00,0x00,0x00,0x00,0x00,0x07,0x00
,0x00,0xe0,0x00,0x00,0x00,0x00,0x00,0x00,0x03,0x00,0x00,0xc0,0x00,0x00,0x00
,0x00,0x00,0x80,0x03,0x00,0x00,0xc0,0x01,0x00,0x00,0x00,0x00,0x80,0xff,0x00
,0x00,0xff,0x01,0x00,0x00,0x00,0x00,0x00,0xfc,0xff,0xff,0x3f,0x00,0x00,0x00
,0x00,0x00,0x00,0x00,0xff,0xff,0x00,0x00,0x00,0x00,0x00,0x00,0x00,0x00,0xf0
,0x0f,0x00,0x00,0x00,0x00,0x00,0x00,0x00,0x00,0x3c,0x3c,0x00,0x00,0x00,0x00
,0x00,0x00,0x00,0x00,0x0f,0xf0,0x00,0x00,0x00,0x00,0x00,0xc0,0xff,0xff,0x03
,0xc0,0xff,0xff,0x03,0x00,0x00,0xfc,0xff,0xff,0x00,0x00,0xff,0xff,0x3f,0x00
,0x00,0x3f,0x00,0x00,0x80,0x01,0x00,0x00,0xfc,0x00,0x80,0x03,0x00,0x00,0xe0
,0x07,0x00,0x00,0xc0,0x01,0xc0,0x01,0x00,0x00,0x7c,0x3e,0x00,0x00,0x80,0x03
,0x80,0x01,0xff,0x81,0x1f,0xf8,0x81,0xff,0x80,0x01,0x80,0xf3,0xff,0xff,0x03
,0xc0,0xff,0xff,0xcf,0x01,0x00,0xff,0x00,0x7e,0x00,0x00,0x7e,0x00,0xff,0x00
,0x00,0x0e,0x00,0x00,0x00,0x00,0x00,0x00,0x70,0x00,0x00,0x04,0x00,0x00,0x00
,0x00,0x00,0x00,0x20,0x00,0x00,0x00,0x00,0x00,0x00,0x00,0x00,0x00,0x00,0x00
,0x00,0x00,0x00,0x00,0x00,0x00,0x00,0x00,0x00,0x00,0x00,0x00,0x00,0x00,0x00
,0x00,0x00,0x00,0x00,0x00,0x00,0x00,0x00,0x00,0x00,0x00,0x00,0x00,0x00,0x00
,0x00,0x00,0x00,0x00,0x00,0x00,0x00,0x00,0x00,0x00,0x00,0x00,0x00,0x00,0x00
,0x00,0x00,0x00,0x00,0x00
};
