#define b95o_width 95
#define b95o_height 95
static unsigned char b95o_bits[] = {
0x00,0x00,0x00,0x00,0x00,0x00,0x00,0x00,0x00,0x00,0x00,0x00,0x00,0x00,0x00
,0x00,0x00,0x00,0x00,0x00,0x00,0x00,0x00,0x00,0x00,0x00,0x00,0x00,0x00,0x00
,0x00,0x00,0x00,0x00,0x00,0x00,0x00,0x00,0x00,0x00,0x00,0x00,0x00,0x00,0x00
,0x00,0x00,0x00,0x00,0x00,0x00,0x00,0x00,0x00,0x00,0x00,0x00,0x00,0x00,0x00
,0x00,0x00,0x00,0x00,0x00,0x00,0x00,0x00,0x00,0x00,0x00,0x00,0x00,0x00,0x00
,0x00,0x00,0x00,0x00,0x00,0x00,0x00,0x00,0x00,0x00,0x00,0x00,0x00,0x00,0xe0
,0x03,0x00,0x00,0x00,0x00,0x00,0x00,0x00,0x00,0x00,0x00,0xf8,0x0f,0x00,0x00
,0x00,0x00,0x00,0x00,0x00,0x00,0x00,0x00,0xfc,0x1f,0x00,0x00,0x00,0x00,0x00
,0x00,0x00,0x00,0x00,0x00,0x1c,0x1c,0x00,0x00,0x00,0x00,0x00,0x00,0x00,0x00
,0x00,0x00,0x0e,0x38,0x00,0x00,0x00,0x00,0x00,0x00,0x00,0x00,0x00,0x00,0x0e
,0x38,0x00,0x00,0x00,0x00,0x00,0x00,0x00,0x00,0x00,0x00,0x0e,0x38,0x00,0x00
,0x00,0x00,0x00,0x00,0x00,0x00,0x00,0x00,0x0e,0x38,0x00,0x00,0x00,0x00,0x00
,0x00,0x00,0x00,0x00,0x00,0x1c,0x1c,0x00,0x00,0x00,0x00,0x00,0x00,0x00,0x00
,0x00,0x00,0xfc,0x1f,0x00,0x00,0x00,0x00,0x00,0x00,0x00,0x00,0x00,0x00,0xf8
,0x0f,0x00,0x00,0x00,0x00,0x00,0x00,0x00,0x00,0x00,0x00,0xf0,0x07,0x00,0x00
,0x00,0x00,0x00,0x00,0x00,0x00,0x00,0x00,0x78,0x0f,0x00,0x00,0x00,0x00,0x00
,0x00,0x00,0x00,0x00,0x00,0x3e,0x3e,0x00,0x00,0x00,0x00,0x00,0x00,0x00,0x00
,0x00,0x00,0x1f,0x7c,0x00,0x00,0x00,0x00,0x00,0x00,0x00,0x00,0x00,0xc0,0x07
,0xf0,0x01,0x00,0x00,0x00,0x00,0x00,0x00,0x00,0x00,0xe0,0x03,0xe0,0x03,0x00
,0x00,0x00,0x00,0x00,0x00,0x00,0x00,0xf0,0x00,0x80,0x07,0x00,0x00,0x00,0x00
,0x00,0x00,0x00,0x00,0x7c,0x00,0x00,0x1f,0x00,0x00,0x00,0x00,0x00,0x00,0x00
,0x00,0x3e,0x00,0x00,0x3e,0x00,0x00,0x00,0x00,0x00,0x00,0x00,0x00,0x0f,0x00
,0x00,0x78,0x00,0x00,0x00,0x00,0x00,0x00,0x00,0x80,0x07,0x00,0x00,0xf0,0x00
,0x00,0x00,0x00,0x00,0x00,0x00,0xc0,0x03,0x00,0x00,0xe0,0x01,0x00,0x00,0x00
,0x00,0x00,0x00,0xe0,0x01,0x00,0x00,0xc0,0x03,0x00,0x00,0x00,0x00,0x00,0x00
,0xf0,0x00,0xc0,0x01,0x80,0x07,0x00,0x00,0x00,0x00,0x00,0x00,0x70,0x00,0xc0
,0x01,0x00,0x07,0x00,0x00,0x00,0x00,0x00,0x00,0x38,0x00,0xc0,0x01,0x00,0x0e
,0x00,0x00,0x00,0x00,0x00,0x00,0x38,0x00,0xc0,0x01,0x00,0x0e,0x00,0x00,0x00
,0x00,0x00,0x00,0x1c,0x00,0xc0,0x01,0x00,0x1c,0x00,0x00,0x00,0x00,0x00,0x00
,0x1c,0x00,0xc0,0x01,0x00,0x1c,0x00,0x00,0x00,0x00,0x00,0x00,0x0e,0x00,0xc0
,0x01,0x00,0x38,0x00,0x00,0x00,0x00,0x00,0x00,0x0e,0x80,0xff,0xff,0x00,0x38
,0x00,0x00,0x00,0x00,0x00,0x00,0x0e,0x80,0xff,0xff,0x00,0x38,0x00,0x00,0x00
,0x00,0x00,0x00,0x0e,0x80,0xff,0xff,0x00,0x38,0x00,0x00,0x00,0x00,0x00,0x00
,0x0e,0x00,0xc0,0x01,0x00,0x38,0x00,0x00,0x00,0x00,0x00,0x00,0x0e,0x00,0xc0
,0x01,0x00,0x38,0x00,0x00,0x00,0x00,0x00,0x00,0x0e,0x00,0xc0,0x01,0x00,0x38
,0x00,0x00,0x00,0x00,0x00,0x00,0x0e,0x00,0xc0,0x01,0x00,0x38,0x00,0x00,0x00
,0x00,0x00,0x00,0x0e,0x00,0xc0,0x01,0x00,0x38,0x00,0x00,0x00,0x00,0x00,0x00
,0x1c,0x00,0xc0,0x01,0x00,0x1c,0x00,0x00,0x00,0x00,0x00,0x00,0x1c,0x00,0x80
,0x00,0x00,0x1c,0x00,0x00,0x00,0x00,0x00,0x00,0x1c,0x00,0x00,0x00,0x00,0x1c
,0x00,0x00,0x00,0x00,0x00,0x00,0x38,0x00,0x00,0x00,0x00,0x0e,0x00,0x00,0x00
,0x00,0x00,0x00,0x38,0x00,0x00,0x00,0x00,0x0e,0x00,0x00,0x00,0x00,0x00,0x00
,0x70,0x00,0x00,0x00,0x00,0x07,0x00,0x00,0x00,0x00,0x00,0x00,0x70,0x00,0x00
,0x00,0x00,0x07,0x00,0x00,0x00,0x00,0x00,0x00,0xe0,0x00,0x00,0x00,0x80,0x03
,0x00,0x00,0x00,0x00,0x00,0x00,0xe0,0x01,0x00,0x00,0xc0,0x03,0x00,0x00,0x00
,0x00,0x00,0x00,0xc0,0xfb,0xff,0xff,0xef,0x01,0x00,0x00,0x00,0x00,0x00,0x00
,0x80,0xff,0xff,0xff,0xff,0x00,0x00,0x00,0x00,0x00,0x00,0x00,0x00,0xff,0xff
,0xff,0x7f,0x00,0x00,0x00,0x00,0x00,0x00,0x00,0x00,0x07,0x00,0x00,0x70,0x00
,0x00,0x00,0x00,0x00,0x00,0x00,0x80,0x03,0x00,0x00,0xe0,0x00,0x00,0x00,0x00
,0x00,0x00,0x00,0x80,0x03,0x00,0x00,0xe0,0x00,0x00,0x00,0x00,0x00,0x00,0x00
,0x80,0x03,0x00,0x00,0xe0,0x00,0x00,0x00,0x00,0x00,0x00,0x00,0xc0,0x01,0x00
,0x00,0xc0,0x01,0x00,0x00,0x00,0x00,0x00,0x00,0xc0,0xe1,0xff,0xff,0xc3,0x01
,0x00,0x00,0x00,0x00,0x00,0x00,0xc0,0xff,0xff,0xff,0xff,0x01,0x00,0x00,0x00
,0x00,0x00,0x00,0xe0,0xff,0xff,0xff,0xff,0x03,0x00,0x00,0x00,0x00,0x00,0x00
,0xe0,0x1f,0x00,0x00,0xfc,0x03,0x00,0x00,0x00,0x00,0x00,0x00,0xe0,0x00,0x00
,0x00,0x80,0x03,0x00,0x00,0x00,0x00,0x00,0x00,0x70,0x00,0x00,0x00,0x00,0x07
,0x00,0x00,0x00,0x00,0x00,0x00,0xf0,0x00,0x00,0x00,0x80,0x07,0x00,0x00,0x00
,0x00,0x00,0x00,0xf0,0x7f,0x00,0x00,0xff,0x07,0x00,0x00,0x00,0x00,0x00,0x00
,0xf0,0xff,0xff,0xff,0xff,0x07,0x00,0x00,0x00,0x00,0x00,0x00,0x00,0xff,0xff
,0xff,0x7f,0x00,0x00,0x00,0x00,0x00,0x00,0x00,0x00,0x80,0xff,0xff,0x00,0x00
,0x00,0x00,0x00,0x00,0x00,0x00,0x00,0x00,0x7c,0x1f,0x00,0x00,0x00,0x00,0x00
,0x00,0x00,0x00,0x00,0x00,0x3f,0x7e,0x00,0x00,0x00,0x00,0x00,0x00,0x80,0xff
,0x0f,0xc0,0x0f,0xf8,0x01,0xf8,0xff,0x00,0x00,0x00,0xf0,0xff,0xff,0xff,0x03
,0xe0,0xff,0xff,0xff,0x07,0x00,0x00,0xfc,0xff,0xff,0xff,0x00,0x80,0xff,0xff
,0xff,0x1f,0x00,0x00,0x7f,0x00,0xf0,0x3f,0x00,0x00,0xfe,0x07,0x00,0x7f,0x00
,0x80,0x0f,0x00,0x00,0x00,0x80,0x01,0x00,0x00,0x00,0xf8,0x00,0x80,0x03,0x00
,0x00,0x00,0xe0,0x03,0x00,0x00,0x00,0xe0,0x00,0x00,0x07,0x00,0x00,0x00,0xf8
,0x0f,0x00,0x00,0x00,0x70,0x00,0x00,0x0f,0x00,0x00,0x00,0x7e,0x3f,0x00,0x00
,0x00,0x78,0x00,0x00,0x0e,0xfe,0x0f,0xc0,0x1f,0xfc,0x01,0xf8,0x3f,0x38,0x00
,0x00,0xdc,0xff,0xff,0xff,0x07,0xf0,0xff,0xff,0xff,0x1d,0x00,0x00,0xfc,0xff
,0xff,0xff,0x01,0xc0,0xff,0xff,0xff,0x1f,0x00,0x00,0xf8,0x01,0xf0,0x3f,0x00
,0x00,0xfe,0x07,0xc0,0x0f,0x00,0x00,0x30,0x00,0x00,0x00,0x00,0x00,0x00,0x00
,0x00,0x06,0x00,0x00,0x00,0x00,0x00,0x00,0x00,0x00,0x00,0x00,0x00,0x00,0x00
,0x00,0x00,0x00,0x00,0x00,0x00,0x00,0x00,0x00,0x00,0x00,0x00,0x00,0x00,0x00
,0x00,0x00,0x00,0x00,0x00,0x00,0x00,0x00,0x00,0x00,0x00,0x00,0x00,0x00,0x00
,0x00,0x00,0x00,0x00,0x00,0x00,0x00,0x00,0x00,0x00,0x00,0x00,0x00,0x00,0x00
,0x00,0x00,0x00,0x00,0x00,0x00,0x00,0x00,0x00,0x00,0x00,0x00,0x00,0x00,0x00

};
