#define c33o_width 33
#define c33o_height 33
static unsigned char c33o_bits[] = {
0x00,0x00,0x00,0x00,0x00,0x00,0x00,0x00,0x00,0x00,0x00,0x80,0x01,0x00,0x00
,0x00,0x40,0x02,0x00,0x00,0x00,0x40,0x02,0x00,0x00,0x00,0x80,0x01,0x00,0x00
,0x00,0x40,0x02,0x00,0x00,0x00,0x20,0x04,0x00,0x00,0x30,0x10,0x08,0x0c,0x00
,0xc8,0x0f,0xf0,0x13,0x00,0x48,0xc0,0x03,0x12,0x00,0x30,0x30,0x0c,0x0c,0x00
,0x40,0x10,0x08,0x02,0x00,0x40,0x08,0x10,0x02,0x00,0x80,0x08,0x10,0x01,0x00
,0x80,0x04,0x20,0x01,0x00,0x00,0x05,0xa0,0x00,0x00,0x80,0x04,0x20,0x01,0x00
,0x80,0x08,0x10,0x01,0x00,0x40,0x08,0x10,0x02,0x00,0x40,0x10,0x08,0x02,0x00
,0x30,0x30,0x0c,0x0c,0x00,0x48,0xc0,0x03,0x12,0x00,0xc8,0x0f,0xf0,0x13,0x00
,0x30,0x10,0x08,0x0c,0x00,0x00,0x20,0x04,0x00,0x00,0x00,0x40,0x02,0x00,0x00
,0x00,0x80,0x01,0x00,0x00,0x00,0x40,0x02,0x00,0x00,0x00,0x40,0x02,0x00,0x00
,0x00,0x80,0x01,0x00,0x00,0x00,0x00,0x00,0x00,0x00,0x00,0x00,0x00,0x00,0x00

};
