#define c37o_width 37
#define c37o_height 37
static unsigned char c37o_bits[] = {
0x00,0x00,0x00,0x00,0x00,0x00,0x00,0x0e,0x00,0x00,0x00,0x00,0x11,0x00,0x00
,0x00,0x00,0x11,0x00,0x00,0x00,0x00,0x11,0x00,0x00,0x00,0x00,0x0e,0x00,0x00
,0x00,0x00,0x11,0x00,0x00,0x00,0x80,0x20,0x00,0x00,0x38,0x80,0x20,0x80,0x03
,0x44,0x40,0x40,0x40,0x04,0xc4,0x3f,0x80,0x7f,0x04,0x44,0x00,0x1f,0x40,0x04
,0x38,0xc0,0x60,0x80,0x03,0x40,0x20,0x80,0x40,0x00,0x80,0x10,0x00,0x21,0x00
,0x80,0x10,0x00,0x21,0x00,0x00,0x09,0x00,0x12,0x00,0x00,0x09,0x00,0x12,0x00
,0x00,0x0a,0x00,0x0a,0x00,0x00,0x09,0x00,0x12,0x00,0x00,0x09,0x00,0x12,0x00
,0x80,0x10,0x00,0x21,0x00,0x80,0x10,0x00,0x21,0x00,0x40,0x20,0x80,0x40,0x00
,0x38,0xc0,0x60,0x80,0x03,0x44,0x00,0x1f,0x40,0x04,0xc4,0x3f,0x80,0x7f,0x04
,0x44,0x40,0x40,0x40,0x04,0x38,0x80,0x20,0x80,0x03,0x00,0x80,0x20,0x00,0x00
,0x00,0x00,0x11,0x00,0x00,0x00,0x00,0x0e,0x00,0x00,0x00,0x00,0x11,0x00,0x00
,0x00,0x00,0x11,0x00,0x00,0x00,0x00,0x11,0x00,0x00,0x00,0x00,0x0e,0x00,0x00
,0x00,0x00,0x00,0x00,0x00
};
