#define c45o_width 45
#define c45o_height 45
static unsigned char c45o_bits[] = {
0x00,0x00,0x00,0x00,0x00,0x00,0x00,0x00,0x00,0x00,0x00,0x00,0x00,0x00,0xe0
,0x00,0x00,0x00,0x00,0x00,0x10,0x01,0x00,0x00,0x00,0x00,0x10,0x01,0x00,0x00
,0x00,0x00,0x10,0x01,0x00,0x00,0x00,0x00,0xe0,0x00,0x00,0x00,0x00,0x00,0x10
,0x01,0x00,0x00,0x00,0x00,0x08,0x02,0x00,0x00,0x00,0x00,0x08,0x02,0x00,0x00
,0x00,0x00,0x04,0x04,0x00,0x00,0x70,0x00,0x04,0x04,0xc0,0x01,0x88,0x00,0x02
,0x08,0x20,0x02,0x88,0xff,0x01,0xf0,0x3f,0x02,0x88,0x00,0xf0,0x01,0x20,0x02
,0x70,0x00,0x0c,0x06,0xc0,0x01,0x80,0x00,0x02,0x08,0x20,0x00,0x00,0x01,0x01
,0x10,0x10,0x00,0x00,0x81,0x00,0x20,0x10,0x00,0x00,0x82,0x00,0x20,0x08,0x00
,0x00,0x42,0x00,0x40,0x08,0x00,0x00,0x44,0x00,0x40,0x04,0x00,0x00,0x48,0x00
,0x40,0x02,0x00,0x00,0x44,0x00,0x40,0x04,0x00,0x00,0x42,0x00,0x40,0x08,0x00
,0x00,0x82,0x00,0x20,0x08,0x00,0x00,0x81,0x00,0x20,0x10,0x00,0x00,0x01,0x01
,0x10,0x10,0x00,0x80,0x00,0x02,0x08,0x20,0x00,0x70,0x00,0x0c,0x06,0xc0,0x01
,0x88,0x00,0xf0,0x01,0x20,0x02,0x88,0xff,0x01,0xf0,0x3f,0x02,0x88,0x00,0x02
,0x08,0x20,0x02,0x70,0x00,0x04,0x04,0xc0,0x01,0x00,0x00,0x04,0x04,0x00,0x00
,0x00,0x00,0x08,0x02,0x00,0x00,0x00,0x00,0x08,0x02,0x00,0x00,0x00,0x00,0x10
,0x01,0x00,0x00,0x00,0x00,0xe0,0x00,0x00,0x00,0x00,0x00,0x10,0x01,0x00,0x00
,0x00,0x00,0x10,0x01,0x00,0x00,0x00,0x00,0x10,0x01,0x00,0x00,0x00,0x00,0xe0
,0x00,0x00,0x00,0x00,0x00,0x00,0x00,0x00,0x00,0x00,0x00,0x00,0x00,0x00,0x00

};
