#define c49o_width 49
#define c49o_height 49
static unsigned char c49o_bits[] = {
0x00,0x00,0x00,0x00,0x00,0x00,0x00,0x00,0x00,0x00,0x00,0x00,0x00,0x00,0x00
,0x00,0x80,0x03,0x00,0x00,0x00,0x00,0x00,0x40,0x04,0x00,0x00,0x00,0x00,0x00
,0x40,0x04,0x00,0x00,0x00,0x00,0x00,0x40,0x04,0x00,0x00,0x00,0x00,0x00,0x80
,0x03,0x00,0x00,0x00,0x00,0x00,0x40,0x04,0x00,0x00,0x00,0x00,0x00,0x20,0x08
,0x00,0x00,0x00,0x00,0x00,0x20,0x08,0x00,0x00,0x00,0x00,0x00,0x10,0x10,0x00
,0x00,0x00,0x00,0x00,0x10,0x10,0x00,0x00,0x00,0xc0,0x01,0x08,0x20,0x80,0x03
,0x00,0x20,0xfe,0x07,0xc0,0x7f,0x04,0x00,0x20,0x02,0x00,0x00,0x40,0x04,0x00
,0x20,0x02,0xc0,0x03,0x40,0x04,0x00,0xc0,0x01,0x38,0x1c,0x80,0x03,0x00,0x00
,0x02,0x04,0x20,0x40,0x00,0x00,0x00,0x04,0x02,0x40,0x20,0x00,0x00,0x00,0x04
,0x01,0x80,0x20,0x00,0x00,0x00,0x08,0x01,0x80,0x10,0x00,0x00,0x00,0x08,0x01
,0x80,0x08,0x00,0x00,0x00,0x90,0x00,0x00,0x09,0x00,0x00,0x00,0x90,0x00,0x00
,0x05,0x00,0x00,0x00,0xa0,0x00,0x00,0x05,0x00,0x00,0x00,0xa0,0x00,0x00,0x09
,0x00,0x00,0x00,0x10,0x01,0x80,0x08,0x00,0x00,0x00,0x10,0x01,0x80,0x10,0x00
,0x00,0x00,0x08,0x01,0x80,0x20,0x00,0x00,0x00,0x04,0x02,0x40,0x20,0x00,0x00
,0x00,0x04,0x04,0x20,0x40,0x00,0x00,0x00,0x02,0x38,0x1c,0x40,0x00,0x00,0xc0
,0x01,0xc0,0x03,0xc0,0x03,0x00,0x20,0x02,0x00,0x00,0x40,0x04,0x00,0x20,0xfe
,0x07,0xc0,0x7f,0x04,0x00,0x20,0x02,0x08,0x20,0x40,0x04,0x00,0xc0,0x01,0x10
,0x10,0x80,0x03,0x00,0x00,0x00,0x10,0x10,0x00,0x00,0x00,0x00,0x00,0x20,0x08
,0x00,0x00,0x00,0x00,0x00,0x20,0x08,0x00,0x00,0x00,0x00,0x00,0x40,0x04,0x00
,0x00,0x00,0x00,0x00,0x80,0x03,0x00,0x00,0x00,0x00,0x00,0x40,0x04,0x00,0x00
,0x00,0x00,0x00,0x40,0x04,0x00,0x00,0x00,0x00,0x00,0x40,0x04,0x00,0x00,0x00
,0x00,0x00,0x80,0x03,0x00,0x00,0x00,0x00,0x00,0x00,0x00,0x00,0x00,0x00,0x00
,0x00,0x00,0x00,0x00,0x00,0x00,0x00,0x00,0x00,0x00,0x00,0x00,0x00
};
