#define c54o_width 54
#define c54o_height 54
static unsigned char c54o_bits[] = {
0x00,0x00,0x00,0x00,0x00,0x00,0x00,0x00,0x00,0x00,0x0c,0x00,0x00,0x00,0x00
,0x00,0x00,0x3f,0x00,0x00,0x00,0x00,0x00,0x80,0x73,0x00,0x00,0x00,0x00,0x00
,0x80,0x61,0x00,0x00,0x00,0x00,0x00,0x80,0x61,0x00,0x00,0x00,0x00,0x00,0x80
,0x73,0x00,0x00,0x00,0x00,0x00,0x00,0x3f,0x00,0x00,0x00,0x00,0x00,0x80,0x6d
,0x00,0x00,0x00,0x00,0x00,0xc0,0x60,0x00,0x00,0x00,0x00,0x00,0xc0,0xc0,0x00
,0x00,0x00,0x00,0x00,0x60,0xc0,0x00,0x00,0x00,0xc0,0x00,0x60,0x80,0x01,0xc0
,0x00,0xf0,0x03,0x30,0x80,0x01,0xf0,0x03,0x38,0x07,0x30,0x00,0x03,0x38,0x07
,0x18,0xfe,0x3f,0x00,0xfe,0x1f,0x06,0x18,0xfe,0x1f,0x3f,0xfe,0x1f,0x06,0x38
,0x07,0xc0,0xff,0x00,0x38,0x07,0xf0,0x03,0xf0,0xe1,0x03,0xf0,0x03,0xc0,0x03
,0x38,0x00,0x07,0xd8,0x00,0x00,0x06,0x1c,0x00,0x0e,0x0c,0x00,0x00,0x06,0x0c
,0x00,0x0c,0x0c,0x00,0x00,0x0c,0x06,0x00,0x18,0x06,0x00,0x00,0x0c,0x06,0x00
,0x18,0x06,0x00,0x00,0x18,0x07,0x00,0x18,0x03,0x00,0x00,0x38,0x03,0x00,0xb0
,0x03,0x00,0x00,0x70,0x03,0x00,0xb0,0x01,0x00,0x00,0x60,0x03,0x00,0xb0,0x03
,0x00,0x00,0x70,0x03,0x00,0x30,0x03,0x00,0x00,0x30,0x07,0x00,0x18,0x06,0x00
,0x00,0x18,0x06,0x00,0x18,0x0c,0x00,0x00,0x18,0x06,0x00,0x18,0x0c,0x00,0x00
,0x0c,0x0c,0x00,0x0c,0x18,0x00,0x00,0x0c,0x1c,0x00,0x0e,0x18,0x00,0xc0,0x06
,0x38,0x00,0x07,0xf0,0x00,0xf0,0x03,0xf0,0xe1,0x03,0xf0,0x03,0x38,0x07,0xc0
,0xff,0x00,0x38,0x07,0x18,0xfe,0x0f,0x1e,0xfc,0x1f,0x06,0x18,0xfe,0x1f,0x00
,0xfe,0x1f,0x06,0x38,0x07,0x30,0x00,0x03,0x38,0x07,0xf0,0x03,0x30,0x80,0x03
,0xf0,0x03,0xc0,0x00,0x60,0xc0,0x01,0xc0,0x00,0x00,0x00,0xe0,0xc0,0x00,0x00
,0x00,0x00,0x00,0xc0,0xe0,0x00,0x00,0x00,0x00,0x00,0xc0,0x6d,0x00,0x00,0x00
,0x00,0x00,0x80,0x3f,0x00,0x00,0x00,0x00,0x00,0x80,0x73,0x00,0x00,0x00,0x00
,0x00,0x80,0x61,0x00,0x00,0x00,0x00,0x00,0x80,0x61,0x00,0x00,0x00,0x00,0x00
,0x80,0x73,0x00,0x00,0x00,0x00,0x00,0x00,0x3f,0x00,0x00,0x00,0x00,0x00,0x00
,0x0c,0x00,0x00,0x00,0x00,0x00,0x00,0x00,0x00,0x00,0x00,0x00,0x00,0x00,0x00
,0x00,0x00,0x00
};
