#define c58o_width 58
#define c58o_height 58
static unsigned char c58o_bits[] = {
0x00,0x00,0x00,0x00,0x00,0x00,0x00,0x00,0x00,0x00,0x00,0x7c,0x00,0x00,0x00
,0x00,0x00,0x00,0x00,0xfe,0x00,0x00,0x00,0x00,0x00,0x00,0x00,0xc6,0x00,0x00
,0x00,0x00,0x00,0x00,0x00,0xc6,0x00,0x00,0x00,0x00,0x00,0x00,0x00,0xc6,0x00
,0x00,0x00,0x00,0x00,0x00,0x00,0xfe,0x00,0x00,0x00,0x00,0x00,0x00,0x00,0x7c
,0x00,0x00,0x00,0x00,0x00,0x00,0x00,0xc6,0x00,0x00,0x00,0x00,0x00,0x00,0x00
,0x83,0x01,0x00,0x00,0x00,0x00,0x00,0x00,0x83,0x01,0x00,0x00,0x00,0x00,0x00
,0x80,0x01,0x03,0x00,0x00,0x00,0x00,0x00,0x80,0x01,0x03,0x00,0x00,0x00,0xf0
,0x01,0xc0,0x00,0x06,0x00,0x1f,0x00,0xf8,0x03,0xc0,0x00,0x06,0x80,0x3f,0x00
,0x18,0xff,0x7f,0x00,0xfc,0xff,0x31,0x00,0x18,0xff,0x3f,0x00,0xf8,0xff,0x31
,0x00,0x18,0x03,0x00,0x7c,0x00,0x80,0x31,0x00,0xf8,0x03,0x80,0xff,0x03,0x80
,0x3f,0x00,0xf0,0x01,0xe0,0x83,0x0f,0x00,0x1f,0x00,0x00,0x03,0x70,0x00,0x1c
,0x80,0x01,0x00,0x00,0x06,0x38,0x00,0x38,0xc0,0x00,0x00,0x00,0x06,0x1c,0x00
,0x70,0xc0,0x00,0x00,0x00,0x0c,0x0c,0x00,0x60,0x60,0x00,0x00,0x00,0x0c,0x06
,0x00,0xc0,0x60,0x00,0x00,0x00,0x18,0x06,0x00,0xc0,0x30,0x00,0x00,0x00,0x30
,0x06,0x00,0xc0,0x18,0x00,0x00,0x00,0x30,0x03,0x00,0x80,0x19,0x00,0x00,0x00
,0x60,0x03,0x00,0x80,0x0d,0x00,0x00,0x00,0x60,0x03,0x00,0x80,0x0d,0x00,0x00
,0x00,0x60,0x03,0x00,0x80,0x0d,0x00,0x00,0x00,0x30,0x03,0x00,0x80,0x19,0x00
,0x00,0x00,0x38,0x06,0x00,0xc0,0x38,0x00,0x00,0x00,0x18,0x06,0x00,0xc0,0x30
,0x00,0x00,0x00,0x0c,0x06,0x00,0xc0,0x60,0x00,0x00,0x00,0x0c,0x0c,0x00,0x60
,0x60,0x00,0x00,0x00,0x06,0x1c,0x00,0x70,0xc0,0x00,0x00,0x00,0x06,0x38,0x00
,0x38,0xc0,0x00,0x00,0x00,0x03,0x70,0x00,0x1c,0x80,0x01,0x00,0xf0,0x01,0xe0
,0x83,0x0f,0x00,0x1f,0x00,0xf8,0x03,0x80,0xff,0x03,0x80,0x3f,0x00,0x18,0x03
,0x00,0x7c,0x00,0x80,0x31,0x00,0x18,0xff,0x3f,0x00,0xf8,0xff,0x31,0x00,0x18
,0xff,0x7f,0x00,0xfc,0xff,0x31,0x00,0xf8,0x03,0xc0,0x00,0x06,0x80,0x3f,0x00
,0xf0,0x01,0x80,0x01,0x03,0x00,0x1f,0x00,0x00,0x00,0x80,0x01,0x03,0x00,0x00
,0x00,0x00,0x00,0x00,0x83,0x01,0x00,0x00,0x00,0x00,0x00,0x00,0x83,0x01,0x00
,0x00,0x00,0x00,0x00,0x00,0xc6,0x00,0x00,0x00,0x00,0x00,0x00,0x00,0x7c,0x00
,0x00,0x00,0x00,0x00,0x00,0x00,0xfe,0x00,0x00,0x00,0x00,0x00,0x00,0x00,0xc6
,0x00,0x00,0x00,0x00,0x00,0x00,0x00,0xc6,0x00,0x00,0x00,0x00,0x00,0x00,0x00
,0xc6,0x00,0x00,0x00,0x00,0x00,0x00,0x00,0xfe,0x00,0x00,0x00,0x00,0x00,0x00
,0x00,0x7c,0x00,0x00,0x00,0x00,0x00,0x00,0x00,0x00,0x00,0x00,0x00,0x00
};
