#define c64o_width 64
#define c64o_height 64
static unsigned char c64o_bits[] = {
0x00,0x00,0x00,0x00,0x00,0x00,0x00,0x00,0x00,0x00,0x00,0x00,0x00,0x00,0x00
,0x00,0x00,0x00,0x00,0x00,0x00,0x00,0x00,0x00,0x00,0x00,0x00,0x80,0x01,0x00
,0x00,0x00,0x00,0x00,0x00,0xe0,0x07,0x00,0x00,0x00,0x00,0x00,0x00,0x70,0x0e
,0x00,0x00,0x00,0x00,0x00,0x00,0x30,0x0c,0x00,0x00,0x00,0x00,0x00,0x00,0x30
,0x0c,0x00,0x00,0x00,0x00,0x00,0x00,0x70,0x0e,0x00,0x00,0x00,0x00,0x00,0x00
,0xe0,0x07,0x00,0x00,0x00,0x00,0x00,0x00,0xc0,0x03,0x00,0x00,0x00,0x00,0x00
,0x00,0x60,0x06,0x00,0x00,0x00,0x00,0x00,0x00,0x30,0x0c,0x00,0x00,0x00,0x00
,0x00,0x00,0x30,0x0c,0x00,0x00,0x00,0x00,0x00,0x00,0x18,0x18,0x00,0x00,0x00
,0x80,0x01,0x00,0x18,0x18,0x00,0x80,0x01,0xe0,0x07,0x00,0x0c,0x30,0x00,0xe0
,0x07,0x70,0x0e,0x00,0x06,0x60,0x00,0x70,0x0e,0x30,0xfc,0xff,0x07,0xe0,0xff
,0x3f,0x0c,0x30,0xfc,0xff,0x03,0xc0,0xff,0x3f,0x0c,0x70,0x0e,0x00,0xc0,0x03
,0x00,0x70,0x0e,0xe0,0x07,0x00,0xfc,0x3f,0x00,0xe0,0x07,0xc0,0x03,0x00,0x3e
,0x7c,0x00,0xc0,0x03,0x00,0x06,0x80,0x07,0xe0,0x01,0x60,0x00,0x00,0x0c,0xc0
,0x01,0x80,0x03,0x30,0x00,0x00,0x0c,0xc0,0x00,0x00,0x03,0x30,0x00,0x00,0x18
,0x60,0x00,0x00,0x06,0x18,0x00,0x00,0x30,0x70,0x00,0x00,0x0e,0x0c,0x00,0x00
,0x30,0x30,0x00,0x00,0x0c,0x0c,0x00,0x00,0x60,0x30,0x00,0x00,0x0c,0x06,0x00
,0x00,0x60,0x10,0x00,0x00,0x08,0x06,0x00,0x00,0xc0,0x18,0x00,0x00,0x18,0x03
,0x00,0x00,0x80,0x19,0x00,0x00,0x98,0x01,0x00,0x00,0x80,0x1b,0x00,0x00,0xd8
,0x01,0x00,0x00,0x80,0x19,0x00,0x00,0x98,0x01,0x00,0x00,0xc0,0x10,0x00,0x00
,0x08,0x03,0x00,0x00,0xc0,0x30,0x00,0x00,0x0c,0x03,0x00,0x00,0x60,0x30,0x00
,0x00,0x0c,0x06,0x00,0x00,0x30,0x70,0x00,0x00,0x0e,0x0c,0x00,0x00,0x30,0x60
,0x00,0x00,0x06,0x0c,0x00,0x00,0x18,0xc0,0x00,0x00,0x03,0x18,0x00,0x00,0x18
,0xc0,0x01,0x80,0x03,0x18,0x00,0x80,0x0d,0x80,0x07,0xe0,0x01,0xb0,0x01,0xe0
,0x07,0x00,0x3e,0x7c,0x00,0xe0,0x07,0x70,0x0e,0x00,0xfc,0x3f,0x00,0x70,0x0e
,0x30,0xfc,0xff,0xc1,0x83,0xff,0x3f,0x0c,0x30,0xfc,0xff,0x03,0xc0,0xff,0x3f
,0x0c,0x70,0x0e,0x00,0x03,0xc0,0x00,0x70,0x0e,0xe0,0x07,0x00,0x06,0x60,0x00
,0xe0,0x07,0xc0,0x03,0x00,0x06,0x60,0x00,0xc0,0x03,0x00,0x00,0x00,0x0c,0x30
,0x00,0x00,0x00,0x00,0x00,0x00,0x18,0x18,0x00,0x00,0x00,0x00,0x00,0x00,0x18
,0x18,0x00,0x00,0x00,0x00,0x00,0x00,0xb0,0x0d,0x00,0x00,0x00,0x00,0x00,0x00
,0xe0,0x07,0x00,0x00,0x00,0x00,0x00,0x00,0x70,0x0e,0x00,0x00,0x00,0x00,0x00
,0x00,0x30,0x0c,0x00,0x00,0x00,0x00,0x00,0x00,0x30,0x0c,0x00,0x00,0x00,0x00
,0x00,0x00,0x70,0x0e,0x00,0x00,0x00,0x00,0x00,0x00,0xe0,0x07,0x00,0x00,0x00
,0x00,0x00,0x00,0xc0,0x03,0x00,0x00,0x00,0x00,0x00,0x00,0x00,0x00,0x00,0x00
,0x00,0x00,0x00,0x00,0x00,0x00,0x00,0x00,0x00,0x00,0x00,0x00,0x00,0x00,0x00
,0x00,0x00
};
