#define c72o_width 72
#define c72o_height 72
static unsigned char c72o_bits[] = {
0x00,0x00,0x00,0x00,0x00,0x00,0x00,0x00,0x00,0x00,0x00,0x00,0x00,0x00,0x00
,0x00,0x00,0x00,0x00,0x00,0x00,0x00,0x00,0x00,0x00,0x00,0x00,0x00,0x00,0x00
,0x00,0x7c,0x00,0x00,0x00,0x00,0x00,0x00,0x00,0x00,0xfe,0x00,0x00,0x00,0x00
,0x00,0x00,0x00,0x00,0xc7,0x01,0x00,0x00,0x00,0x00,0x00,0x00,0x00,0x83,0x01
,0x00,0x00,0x00,0x00,0x00,0x00,0x00,0x83,0x01,0x00,0x00,0x00,0x00,0x00,0x00
,0x00,0x83,0x01,0x00,0x00,0x00,0x00,0x00,0x00,0x00,0xc7,0x01,0x00,0x00,0x00
,0x00,0x00,0x00,0x00,0xfe,0x00,0x00,0x00,0x00,0x00,0x00,0x00,0x00,0xfc,0x00
,0x00,0x00,0x00,0x00,0x00,0x00,0x00,0xce,0x00,0x00,0x00,0x00,0x00,0x00,0x00
,0x00,0xc7,0x01,0x00,0x00,0x00,0x00,0x00,0x00,0x00,0x83,0x01,0x00,0x00,0x00
,0x00,0x00,0x00,0x80,0x83,0x03,0x00,0x00,0x00,0x00,0x3e,0x00,0xc0,0x01,0x03
,0x00,0x00,0x00,0x00,0x7f,0x00,0xc0,0x00,0x06,0x00,0x7c,0x00,0x80,0xe3,0x00
,0xe0,0x00,0x06,0x00,0xfe,0x00,0x80,0xc1,0x00,0x70,0x00,0x0c,0x00,0xc7,0x01
,0x80,0xc1,0xff,0x7f,0x00,0xfc,0xff,0x83,0x01,0x80,0xc1,0xff,0x3f,0x00,0xf8
,0xff,0x83,0x01,0x80,0xe3,0x00,0x00,0x00,0x00,0x00,0x83,0x01,0x00,0x7f,0x00
,0x00,0x00,0x00,0x00,0xc7,0x01,0x00,0xfe,0x00,0x00,0xfe,0x00,0x00,0xfe,0x00
,0x00,0xc0,0x00,0x80,0xff,0x03,0x00,0x7f,0x00,0x00,0xc0,0x01,0xc0,0x83,0x07
,0x00,0x03,0x00,0x00,0x80,0x01,0xe0,0x00,0x0e,0x80,0x03,0x00,0x00,0x80,0x03
,0x70,0x00,0x1c,0x80,0x01,0x00,0x00,0x00,0x03,0x38,0x00,0x38,0xc0,0x01,0x00
,0x00,0x00,0x07,0x38,0x00,0x70,0xc0,0x00,0x00,0x00,0x00,0x06,0x1c,0x00,0x60
,0xe0,0x00,0x00,0x00,0x00,0x0e,0x0c,0x00,0xe0,0x60,0x00,0x00,0x00,0x00,0x0c
,0x0e,0x00,0xc0,0x70,0x00,0x00,0x00,0x00,0x1c,0x06,0x00,0xc0,0x30,0x00,0x00
,0x00,0x00,0x38,0x06,0x00,0xc0,0x38,0x00,0x00,0x00,0x00,0x38,0x06,0x00,0xc0
,0x18,0x00,0x00,0x00,0x00,0x1c,0x06,0x00,0xc0,0x30,0x00,0x00,0x00,0x00,0x0c
,0x0e,0x00,0xe0,0x30,0x00,0x00,0x00,0x00,0x0e,0x0c,0x00,0x60,0x60,0x00,0x00
,0x00,0x00,0x06,0x0c,0x00,0x60,0x60,0x00,0x00,0x00,0x00,0x07,0x18,0x00,0x30
,0xc0,0x00,0x00,0x00,0x80,0x03,0x38,0x00,0x38,0xc0,0x00,0x00,0x00,0x80,0x03
,0x70,0x00,0x1c,0xc0,0x01,0x00,0x00,0xc0,0x01,0xe0,0x00,0x0e,0x80,0x01,0x00
,0x00,0xfe,0x01,0xc0,0x83,0x03,0x80,0x1f,0x00,0x00,0xff,0x00,0x80,0xff,0x03
,0x80,0x3f,0x00,0x80,0xe3,0x00,0x00,0xfe,0x00,0xc0,0x71,0x00,0x80,0xc1,0x00
,0x00,0x00,0x00,0xc0,0x60,0x00,0x80,0xc1,0xff,0x1f,0x00,0xf8,0xff,0x60,0x00
,0x80,0xc1,0xff,0x1f,0x00,0xfc,0xff,0x60,0x00,0x80,0xe3,0x00,0x38,0x00,0x0c
,0xc0,0x71,0x00,0x00,0x7f,0x00,0x30,0x00,0x0e,0x80,0x3f,0x00,0x00,0x3e,0x00
,0x70,0x00,0x06,0x00,0x1f,0x00,0x00,0x00,0x00,0x60,0x00,0x07,0x00,0x00,0x00
,0x00,0x00,0x00,0xe0,0x00,0x03,0x00,0x00,0x00,0x00,0x00,0x00,0xc0,0x80,0x03
,0x00,0x00,0x00,0x00,0x00,0x00,0xc0,0x81,0x01,0x00,0x00,0x00,0x00,0x00,0x00
,0x80,0xc1,0x01,0x00,0x00,0x00,0x00,0x00,0x00,0x80,0xc3,0x00,0x00,0x00,0x00
,0x00,0x00,0x00,0x00,0x7f,0x00,0x00,0x00,0x00,0x00,0x00,0x00,0x00,0x7f,0x00
,0x00,0x00,0x00,0x00,0x00,0x00,0x80,0xe3,0x00,0x00,0x00,0x00,0x00,0x00,0x00
,0x80,0xc1,0x00,0x00,0x00,0x00,0x00,0x00,0x00,0x80,0xc1,0x00,0x00,0x00,0x00
,0x00,0x00,0x00,0x80,0xc1,0x00,0x00,0x00,0x00,0x00,0x00,0x00,0x80,0xe3,0x00
,0x00,0x00,0x00,0x00,0x00,0x00,0x00,0x7f,0x00,0x00,0x00,0x00,0x00,0x00,0x00
,0x00,0x3e,0x00,0x00,0x00,0x00,0x00,0x00,0x00,0x00,0x00,0x00,0x00,0x00,0x00
,0x00,0x00,0x00,0x00,0x00,0x00,0x00,0x00,0x00,0x00,0x00,0x00,0x00,0x00,0x00
,0x00,0x00,0x00
};
