#define d33o_width 33
#define d33o_height 33
static unsigned char d33o_bits[] = {
0x00,0x00,0x00,0x00,0x00,0x00,0x00,0x44,0x00,0x00,0x00,0x00,0x6a,0x00,0x00
,0x00,0xc0,0x5b,0x00,0x00,0x00,0x30,0xa2,0x00,0x00,0x00,0x18,0xe0,0x00,0x00
,0x00,0x0c,0xa0,0x01,0x00,0x00,0x06,0xc0,0x01,0x00,0x00,0x02,0x01,0x02,0x00
,0x00,0x03,0x01,0x02,0x00,0x00,0x01,0x01,0x04,0x00,0x80,0x01,0x03,0x04,0x00
,0x80,0x01,0x1d,0x0e,0x00,0x80,0x01,0x21,0x0c,0x00,0x80,0x00,0x42,0x09,0x00
,0xc0,0x00,0x84,0x07,0x00,0xc0,0x00,0x88,0x01,0x00,0xc0,0x00,0x10,0x00,0x00
,0xc0,0x00,0x10,0x00,0x00,0xc0,0x00,0x20,0x00,0x00,0xc0,0x00,0x20,0x00,0x00
,0xc0,0x00,0x20,0x00,0x00,0x80,0xff,0x3f,0x00,0x00,0x40,0x00,0x40,0x00,0x00
,0x20,0x00,0x80,0x00,0x00,0xf0,0xff,0xff,0x01,0x00,0x10,0x00,0x00,0x01,0x00
,0x10,0x00,0x00,0x01,0x00,0x10,0x1f,0x1f,0x01,0x00,0x10,0x11,0x11,0x01,0x00
,0xf0,0xf1,0xf1,0x01,0x00,0x00,0x00,0x00,0x00,0x00,0x00,0x00,0x00,0x00,0x00

};
