#define d37o_width 37
#define d37o_height 37
static unsigned char d37o_bits[] = {
0x00,0x00,0x00,0x00,0x00,0x00,0x00,0x00,0x00,0x00,0x00,0x00,0x10,0x02,0x00
,0x00,0x00,0x18,0x03,0x00,0x00,0x00,0xa8,0x02,0x00,0x00,0x80,0x6f,0x02,0x00
,0x00,0x60,0x80,0x03,0x00,0x00,0x30,0x00,0x04,0x00,0x00,0x18,0x80,0x05,0x00
,0x00,0x08,0x00,0x0a,0x00,0x00,0x0c,0x04,0x0a,0x00,0x00,0x06,0x04,0x10,0x00
,0x00,0x06,0x04,0x10,0x00,0x00,0x06,0x0c,0x20,0x00,0x00,0x03,0x34,0x20,0x00
,0x00,0x03,0x44,0x40,0x00,0x00,0x03,0x84,0x70,0x00,0x00,0x03,0x08,0x61,0x00
,0x00,0x01,0x10,0x4a,0x00,0x80,0x01,0x10,0x3c,0x00,0x80,0x01,0x20,0x00,0x00
,0x80,0x01,0x40,0x00,0x00,0x80,0x01,0x80,0x00,0x00,0x80,0x01,0x00,0x01,0x00
,0x80,0x01,0x00,0x01,0x00,0x00,0xff,0xff,0x01,0x00,0x00,0x01,0x00,0x02,0x00
,0x80,0x00,0x00,0x04,0x00,0xe0,0xff,0xff,0x1f,0x00,0x20,0x00,0x00,0x10,0x00
,0x20,0x00,0x00,0x10,0x00,0x20,0x7e,0xf8,0x11,0x00,0x20,0x42,0x08,0x11,0x00
,0x20,0x42,0x08,0x11,0x00,0xe0,0xc3,0x0f,0x1f,0x00,0x00,0x00,0x00,0x00,0x00
,0x00,0x00,0x00,0x00,0x00
};
