#define d45o_width 45
#define d45o_height 45
static unsigned char d45o_bits[] = {
0x00,0x00,0x00,0x00,0x00,0x00,0x00,0x00,0x00,0x00,0x00,0x00,0x00,0x00,0x00
,0x02,0x01,0x00,0x00,0x00,0x00,0xc5,0x01,0x00,0x00,0x00,0x00,0x29,0x01,0x00
,0x00,0x00,0xe0,0x19,0x01,0x00,0x00,0x00,0x18,0x29,0x01,0x00,0x00,0x00,0x06
,0x40,0x02,0x00,0x00,0x00,0x03,0x00,0x02,0x00,0x00,0x80,0x01,0x40,0x04,0x00
,0x00,0xc0,0x00,0xc0,0x04,0x00,0x00,0x40,0x00,0x80,0x05,0x00,0x00,0x60,0x40
,0x00,0x08,0x00,0x00,0x20,0x40,0x00,0x08,0x00,0x00,0x30,0x40,0x00,0x08,0x00
,0x00,0x10,0x40,0x00,0x10,0x00,0x00,0x18,0x80,0x00,0x10,0x00,0x00,0x18,0x80
,0x01,0x20,0x00,0x00,0x08,0x80,0x06,0x40,0x00,0x00,0x0c,0x80,0x18,0x70,0x00
,0x00,0x0c,0x00,0x21,0x60,0x00,0x00,0x0c,0x00,0x41,0x40,0x00,0x00,0x0c,0x00
,0x82,0x44,0x00,0x00,0x04,0x00,0x04,0x3d,0x00,0x00,0x06,0x00,0x04,0x02,0x00
,0x00,0x06,0x00,0x08,0x00,0x00,0x00,0x06,0x00,0x10,0x00,0x00,0x00,0x06,0x00
,0x20,0x00,0x00,0x00,0x06,0x00,0x20,0x00,0x00,0x00,0x06,0x00,0x40,0x00,0x00
,0x00,0x06,0x00,0x40,0x00,0x00,0x00,0xfe,0xff,0x7f,0x00,0x00,0x00,0x02,0x00
,0x80,0x00,0x00,0x00,0x01,0x00,0x00,0x01,0x00,0x80,0x00,0x00,0x00,0x02,0x00
,0xc0,0xff,0xff,0xff,0x07,0x00,0x40,0x00,0x00,0x00,0x04,0x00,0x40,0x00,0x00
,0x00,0x04,0x00,0x40,0xf0,0x87,0x3f,0x04,0x00,0x40,0x10,0x84,0x20,0x04,0x00
,0x40,0x10,0x84,0x20,0x04,0x00,0xc0,0x1f,0xfc,0xe0,0x07,0x00,0x00,0x00,0x00
,0x00,0x00,0x00,0x00,0x00,0x00,0x00,0x00,0x00,0x00,0x00,0x00,0x00,0x00,0x00

};
