#define d49o_width 49
#define d49o_height 49
static unsigned char d49o_bits[] = {
0x00,0x00,0x00,0x00,0x00,0x00,0x00,0x00,0x00,0x00,0x18,0x08,0x00,0x00,0x00
,0x00,0x00,0x18,0x0e,0x00,0x00,0x00,0x00,0x00,0x24,0x09,0x00,0x00,0x00,0x00
,0x00,0xe4,0x08,0x00,0x00,0x00,0x00,0xe0,0xa7,0x04,0x00,0x00,0x00,0x00,0x18
,0x00,0x09,0x00,0x00,0x00,0x00,0x06,0x00,0x10,0x00,0x00,0x00,0x00,0x03,0x00
,0x10,0x00,0x00,0x00,0x80,0x01,0x00,0x23,0x00,0x00,0x00,0xc0,0x00,0x00,0x26
,0x00,0x00,0x00,0xc0,0x00,0x00,0x2c,0x00,0x00,0x00,0x60,0x00,0x01,0x28,0x00
,0x00,0x00,0x60,0x00,0x01,0x40,0x00,0x00,0x00,0x30,0x00,0x01,0x40,0x00,0x00
,0x00,0x30,0x00,0x01,0x80,0x00,0x00,0x00,0x18,0x00,0x02,0x00,0x01,0x00,0x00
,0x18,0x00,0x02,0x00,0x01,0x00,0x00,0x18,0x00,0x0e,0x00,0x02,0x00,0x00,0x08
,0x00,0x12,0x00,0x02,0x00,0x00,0x0c,0x00,0x62,0x80,0x05,0x00,0x00,0x0c,0x00
,0x82,0x81,0x05,0x00,0x00,0x0c,0x00,0x04,0x02,0x05,0x00,0x00,0x0c,0x00,0x04
,0x24,0x04,0x00,0x00,0x0c,0x00,0x08,0x28,0x02,0x00,0x00,0x04,0x00,0x10,0xd0
,0x01,0x00,0x00,0x06,0x00,0x20,0x20,0x00,0x00,0x00,0x06,0x00,0x40,0x00,0x00
,0x00,0x00,0x06,0x00,0x80,0x00,0x00,0x00,0x00,0x06,0x00,0x80,0x00,0x00,0x00
,0x00,0x06,0x00,0x00,0x01,0x00,0x00,0x00,0x06,0x00,0x00,0x01,0x00,0x00,0x00
,0x04,0x00,0x00,0x01,0x00,0x00,0x00,0xfc,0xff,0xff,0x01,0x00,0x00,0x00,0x04
,0x00,0x00,0x01,0x00,0x00,0x00,0x04,0x00,0x00,0x01,0x00,0x00,0x00,0xfc,0xff
,0xff,0x01,0x00,0x00,0x00,0x02,0x00,0x00,0x02,0x00,0x00,0x00,0x01,0x00,0x00
,0x04,0x00,0x00,0x80,0x00,0x00,0x00,0x08,0x00,0x00,0xc0,0xff,0xff,0xff,0x1f
,0x00,0x00,0x40,0x00,0x00,0x00,0x10,0x00,0x00,0x40,0x00,0x00,0x00,0x10,0x00
,0x00,0x40,0xf0,0x07,0x7f,0x10,0x00,0x00,0x40,0x10,0x04,0x41,0x10,0x00,0x00
,0x40,0x10,0x04,0x41,0x10,0x00,0x00,0x40,0x10,0x04,0x41,0x10,0x00,0x00,0xc0
,0x1f,0xfc,0xc1,0x1f,0x00,0x00,0x00,0x00,0x00,0x00,0x00,0x00,0x00
};
