#define d54o_width 54
#define d54o_height 54
static unsigned char d54o_bits[] = {
0x20,0x00,0x00,0x00,0x00,0x00,0x00,0x00,0x00,0x00,0x00,0x00,0x00,0x00,0x00
,0x00,0x00,0x00,0x00,0x00,0x00,0x00,0x00,0x00,0x60,0x20,0x00,0x00,0x00,0x00
,0x00,0x60,0x38,0x00,0x00,0x00,0x00,0x00,0xb0,0x2c,0x00,0x00,0x00,0x00,0x00
,0x90,0x27,0x00,0x00,0x00,0x00,0x00,0x9f,0x13,0x00,0x00,0x00,0x00,0xe0,0x07
,0x36,0x00,0x00,0x00,0x00,0x78,0x00,0x60,0x00,0x00,0x00,0x00,0x3c,0x00,0x60
,0x00,0x00,0x00,0x00,0x0e,0x00,0xcc,0x00,0x00,0x00,0x00,0x07,0x00,0xd8,0x00
,0x00,0x00,0x80,0x07,0x00,0xb0,0x00,0x00,0x00,0xc0,0x03,0x04,0xa0,0x01,0x00
,0x00,0xc0,0x03,0x06,0x80,0x01,0x00,0x00,0xe0,0x03,0x06,0x00,0x01,0x00,0x00
,0xe0,0x01,0x06,0x00,0x03,0x00,0x00,0xe0,0x01,0x0c,0x00,0x06,0x00,0x00,0xf0
,0x00,0x38,0x00,0x04,0x00,0x00,0xf0,0x00,0x7c,0x00,0x0c,0x00,0x00,0xf0,0x00
,0xcc,0x01,0x08,0x00,0x00,0x70,0x00,0x8c,0x07,0x1e,0x00,0x00,0x78,0x00,0x08
,0x0e,0x16,0x00,0x00,0x78,0x00,0x18,0x98,0x14,0x00,0x00,0x78,0x00,0x10,0xb0
,0x19,0x00,0x00,0x78,0x00,0x30,0x60,0x0f,0x00,0x00,0x78,0x00,0x60,0xc0,0x07
,0x00,0x00,0x3c,0x00,0xc0,0x80,0x00,0x00,0x00,0x3c,0x00,0x80,0x01,0x00,0x00
,0x00,0x3c,0x00,0x00,0x03,0x00,0x00,0x00,0x3c,0x00,0x00,0x02,0x00,0x00,0x00
,0x3c,0x00,0x00,0x06,0x00,0x00,0x00,0x3c,0x00,0x00,0x04,0x00,0x00,0x00,0x3c
,0x00,0x00,0x0c,0x00,0x00,0x00,0x3c,0x00,0x00,0x08,0x00,0x00,0x00,0x3c,0x00
,0x00,0x08,0x00,0x00,0x00,0xf8,0xff,0xff,0x0f,0x00,0x00,0x00,0xf8,0xff,0xff
,0x1f,0x00,0x00,0x00,0x1c,0x00,0x00,0x38,0x40,0x00,0x00,0x0e,0x00,0x00,0x70
,0x00,0x00,0x00,0x07,0x00,0x00,0xe0,0x00,0x00,0x80,0xff,0xff,0xff,0xff,0x01
,0x00,0x80,0xff,0xff,0xff,0xff,0x01,0x00,0x80,0x01,0x00,0x00,0x80,0x01,0x00
,0x80,0x01,0x00,0x00,0x80,0x01,0x00,0x80,0xe1,0x3f,0xfc,0x83,0x01,0x00,0x80
,0xe1,0x3f,0xfc,0x83,0x01,0x00,0x80,0x61,0x30,0x0c,0x83,0x01,0x00,0x80,0x61
,0x30,0x0c,0x83,0x01,0x00,0x80,0x7f,0xf0,0x0f,0xff,0x01,0x00,0x80,0x7f,0xf0
,0x0f,0xff,0x01,0x00,0x00,0x00,0x00,0x00,0x00,0x00,0x00,0x00,0x00,0x00,0x00
,0x00,0x00,0x00
};
