#define d58o_width 58
#define d58o_height 58
static unsigned char d58o_bits[] = {
0x00,0x00,0x00,0x00,0x00,0x00,0x00,0x00,0x00,0x00,0x00,0x00,0x00,0x00,0x00
,0x00,0x00,0x00,0x00,0x00,0x01,0x02,0x00,0x00,0x00,0x00,0x00,0x80,0x83,0x03
,0x00,0x00,0x00,0x00,0x00,0xc0,0xc2,0x03,0x00,0x00,0x00,0x00,0x00,0x60,0x66
,0x03,0x00,0x00,0x00,0x00,0x00,0x7c,0x3c,0x03,0x00,0x00,0x00,0x00,0x00,0x7f
,0x3c,0x03,0x00,0x00,0x00,0x00,0xc0,0x23,0x64,0x02,0x00,0x00,0x00,0x00,0xf0
,0x00,0x00,0x06,0x00,0x00,0x00,0x00,0x38,0x00,0x00,0x0c,0x00,0x00,0x00,0x00
,0x1c,0x00,0x00,0x0c,0x00,0x00,0x00,0x00,0x0e,0x00,0x40,0x18,0x00,0x00,0x00
,0x00,0x07,0x00,0xc0,0x19,0x00,0x00,0x00,0x00,0x03,0x00,0x80,0x19,0x00,0x00
,0x00,0x80,0x03,0x00,0x00,0x13,0x00,0x00,0x00,0xc0,0x01,0x08,0x00,0x30,0x00
,0x00,0x00,0xc0,0x01,0x18,0x00,0x30,0x00,0x00,0x00,0xe0,0x00,0x18,0x00,0x20
,0x00,0x00,0x00,0xe0,0x00,0x18,0x00,0x60,0x00,0x00,0x00,0xe0,0x00,0x30,0x00
,0x40,0x00,0x00,0x00,0x70,0x00,0x70,0x00,0xc0,0x00,0x00,0x00,0x70,0x00,0xd8
,0x00,0x80,0x01,0x00,0x00,0x70,0x00,0x98,0x01,0x00,0x01,0x00,0x00,0x78,0x00
,0x18,0x07,0x00,0x03,0x00,0x00,0x38,0x00,0x18,0x0c,0x00,0x02,0x00,0x00,0x38
,0x00,0x30,0x38,0xc0,0x06,0x00,0x00,0x3c,0x00,0x30,0x60,0xc0,0x06,0x00,0x00
,0x3c,0x00,0x60,0xc0,0x00,0x06,0x00,0x00,0x1c,0x00,0xc0,0x80,0x19,0x06,0x00
,0x00,0x1c,0x00,0x80,0x01,0x33,0x06,0x00,0x00,0x1c,0x00,0x00,0x03,0x36,0x03
,0x00,0x00,0x1c,0x00,0x00,0x06,0xfc,0x01,0x00,0x00,0x1e,0x00,0x00,0x0c,0x00
,0x00,0x00,0x00,0x1e,0x00,0x00,0x0c,0x00,0x00,0x00,0x00,0x0e,0x00,0x00,0x18
,0x00,0x00,0x00,0x00,0x0e,0x00,0x00,0x30,0x00,0x00,0x00,0x00,0x0e,0x00,0x00
,0x60,0x00,0x00,0x00,0x00,0x0e,0x00,0x00,0x60,0x00,0x00,0x00,0x00,0x0e,0x00
,0x00,0xc0,0x00,0x00,0x00,0x00,0xfe,0xff,0xff,0xff,0x00,0x00,0x00,0x00,0xfc
,0xff,0xff,0xff,0x00,0x00,0x00,0x00,0x0e,0x00,0x00,0x80,0x01,0x00,0x00,0x00
,0x07,0x00,0x00,0x80,0x03,0x00,0x00,0x80,0x03,0x00,0x00,0x00,0x07,0x00,0x00
,0xc0,0xff,0xff,0xff,0xff,0x0f,0x00,0x00,0xc0,0xff,0xff,0xff,0xff,0x0f,0x00
,0x00,0xc0,0x00,0x00,0x00,0x00,0x0c,0x00,0x00,0xc0,0x00,0x00,0x00,0x00,0x0c
,0x00,0x00,0xc0,0xe0,0x3f,0xf0,0x1f,0x0c,0x00,0x00,0xc0,0xe0,0x3f,0xf0,0x1f
,0x0c,0x00,0x00,0xc0,0x60,0x30,0x30,0x18,0x0c,0x00,0x00,0xc0,0x60,0x30,0x30
,0x18,0x0c,0x00,0x00,0xc0,0x7f,0xf0,0x3f,0xf8,0x0f,0x00,0x00,0xc0,0x7f,0xf0
,0x3f,0xf8,0x0f,0x00,0x00,0x00,0x00,0x00,0x00,0x00,0x00,0x00,0x00,0x00,0x00
,0x00,0x00,0x00,0x00,0x00,0x00,0x00,0x00,0x00,0x00,0x00,0x00,0x00,0x00
};
