#define d64o_width 64
#define d64o_height 64
static unsigned char d64o_bits[] = {
0x00,0x00,0x00,0x00,0x00,0x00,0x00,0x00,0x00,0x00,0x00,0x00,0x00,0x00,0x00
,0x00,0x00,0x00,0x00,0x00,0x00,0x00,0x00,0x00,0x00,0x00,0x00,0x00,0x10,0x20
,0x00,0x00,0x00,0x00,0x00,0x00,0x38,0x38,0x00,0x00,0x00,0x00,0x00,0x00,0x2c
,0x3c,0x00,0x00,0x00,0x00,0x00,0x00,0x66,0x36,0x00,0x00,0x00,0x00,0x00,0xc0
,0xc7,0x33,0x00,0x00,0x00,0x00,0x00,0xf0,0xc7,0x33,0x00,0x00,0x00,0x00,0x00
,0x3c,0x42,0x26,0x00,0x00,0x00,0x00,0x00,0x0f,0x00,0x60,0x00,0x00,0x00,0x00
,0x80,0x03,0x00,0xc0,0x00,0x00,0x00,0x00,0xc0,0x01,0x00,0xc0,0x00,0x00,0x00
,0x00,0xe0,0x00,0x00,0x84,0x01,0x00,0x00,0x00,0x70,0x00,0x00,0x9c,0x01,0x00
,0x00,0x00,0x30,0x00,0x00,0x98,0x01,0x00,0x00,0x00,0x38,0x00,0x00,0x30,0x01
,0x00,0x00,0x00,0x1c,0x80,0x00,0x00,0x03,0x00,0x00,0x00,0x1c,0x80,0x01,0x00
,0x03,0x00,0x00,0x00,0x0e,0x80,0x01,0x00,0x02,0x00,0x00,0x00,0x0e,0x80,0x01
,0x00,0x06,0x00,0x00,0x00,0x0e,0x00,0x03,0x00,0x04,0x00,0x00,0x00,0x07,0x00
,0x07,0x00,0x0c,0x00,0x00,0x00,0x07,0x80,0x0d,0x00,0x18,0x00,0x00,0x00,0x07
,0x80,0x19,0x00,0x10,0x00,0x00,0x80,0x07,0x80,0x71,0x00,0x30,0x00,0x00,0x80
,0x07,0x80,0xc1,0x00,0x20,0x00,0x00,0x80,0x03,0x80,0x81,0x03,0x6c,0x00,0x00
,0x80,0x03,0x00,0x03,0x06,0x6c,0x00,0x00,0xc0,0x03,0x00,0x03,0x0c,0x60,0x00
,0x00,0xc0,0x03,0x00,0x06,0x98,0x61,0x00,0x00,0xc0,0x01,0x00,0x0c,0x30,0x63
,0x00,0x00,0xc0,0x01,0x00,0x18,0x60,0x33,0x00,0x00,0xc0,0x01,0x00,0x30,0xc0
,0x1f,0x00,0x00,0xc0,0x01,0x00,0x60,0xc0,0x00,0x00,0x00,0xe0,0x01,0x00,0xc0
,0x00,0x00,0x00,0x00,0xe0,0x01,0x00,0xc0,0x00,0x00,0x00,0x00,0xe0,0x00,0x00
,0x80,0x01,0x00,0x00,0x00,0xe0,0x00,0x00,0x00,0x03,0x00,0x00,0x00,0xe0,0x00
,0x00,0x00,0x06,0x00,0x00,0x00,0xe0,0x00,0x00,0x00,0x06,0x00,0x00,0x00,0xe0
,0x00,0x00,0x00,0x0c,0x00,0x00,0x00,0xe0,0x00,0x00,0x00,0x0c,0x00,0x00,0x00
,0xe0,0xff,0xff,0xff,0x0f,0x00,0x00,0x00,0xc0,0xff,0xff,0xff,0x0f,0x00,0x00
,0x00,0xe0,0x00,0x00,0x00,0x1c,0x00,0x00,0x00,0x70,0x00,0x00,0x00,0x38,0x00
,0x00,0x00,0x38,0x00,0x00,0x00,0x70,0x00,0x00,0x00,0x1c,0x00,0x00,0x00,0xe0
,0x00,0x00,0x00,0xfe,0xff,0xff,0xff,0xff,0x01,0x00,0x00,0xfe,0xff,0xff,0xff
,0xff,0x01,0x00,0x00,0x06,0x00,0x00,0x00,0x80,0x01,0x00,0x00,0x06,0x00,0x00
,0x00,0x80,0x01,0x00,0x00,0x06,0x00,0x00,0x00,0x80,0x01,0x00,0x00,0x06,0xff
,0x03,0xff,0x83,0x01,0x00,0x00,0x06,0xff,0x03,0xff,0x83,0x01,0x00,0x00,0x06
,0x03,0x03,0x03,0x83,0x01,0x00,0x00,0x06,0x03,0x03,0x03,0x83,0x01,0x00,0x00
,0x06,0x03,0x03,0x03,0x83,0x01,0x00,0x00,0xfe,0x03,0xff,0x03,0xff,0x01,0x00
,0x00,0xfe,0x03,0xff,0x03,0xff,0x01,0x00,0x00,0x00,0x00,0x00,0x00,0x00,0x00
,0x00,0x00,0x00,0x00,0x00,0x00,0x00,0x00,0x00,0x00,0x00,0x00,0x00,0x00,0x00
,0x00,0x00
};
