#define down_width 20
#define down_height 6

static unsigned char down_bits[] = {
 0x00, 0x00, 0x00,
 0x01, 0x00, 0x08,
 0x07, 0x00, 0x0E,
 0x1F, 0x80, 0x0F,
 0x7F, 0xE0, 0x0F,
 0xFF, 0xF9, 0x0F
};
