#define e72o_width 72
#define e72o_height 72
static unsigned char e72o_bits[] = {
0x00,0x00,0x00,0x00,0x00,0x00,0x00,0x00,0x00,0x00,0x00,0x00,0x00,0x00,0x00
,0x00,0x00,0x00,0x00,0x00,0x00,0x00,0xc0,0xff,0x03,0x00,0x00,0x00,0x00,0x00
,0xc0,0xff,0xff,0x1f,0x00,0x00,0x00,0x00,0x00,0xf8,0xff,0x00,0xff,0x00,0x00
,0x00,0x00,0x00,0xfc,0x00,0x00,0xf0,0x03,0x00,0x00,0x00,0x00,0x6e,0x00,0x00
,0x80,0x1f,0x00,0x00,0x00,0x00,0x77,0x00,0x00,0x00,0x3e,0x00,0x00,0x00,0x80
,0x3b,0x00,0x00,0x00,0x70,0x00,0x00,0x00,0xc0,0x19,0x00,0x00,0x00,0xe0,0x07
,0x00,0x00,0xc0,0x1c,0x00,0x00,0x00,0xf8,0x0f,0x00,0x00,0xc0,0x0c,0x00,0x00
,0x00,0xfc,0x1c,0x00,0x00,0xc0,0x0c,0x00,0x00,0x80,0x0f,0x18,0x00,0x00,0xc0
,0x0c,0x00,0x00,0xe0,0x03,0x18,0x00,0x00,0xc0,0x0c,0x00,0x00,0xe0,0x00,0x18
,0x00,0x00,0xc0,0x0c,0x00,0x00,0x00,0x00,0x38,0x00,0x00,0xc0,0x0c,0x00,0x00
,0x00,0x00,0x38,0x00,0x00,0xc0,0x0c,0x00,0x00,0x00,0x00,0x30,0x00,0x00,0xc0
,0x0c,0x00,0x00,0x00,0x00,0x30,0x00,0x00,0xc0,0x0c,0x00,0x00,0x00,0x00,0x30
,0x00,0x00,0xc0,0x0c,0x00,0x00,0x00,0x00,0x30,0x00,0x00,0xc0,0x0c,0x00,0x00
,0x00,0x00,0x30,0x00,0x00,0xc0,0x00,0x00,0x00,0x00,0x00,0x30,0x00,0x00,0xc0
,0x00,0x00,0x00,0x00,0x00,0x30,0x00,0x00,0xc0,0x00,0x00,0x00,0x00,0x00,0x30
,0x00,0x00,0xc0,0x00,0x00,0x00,0x00,0x00,0x38,0x00,0x00,0xe0,0x00,0x00,0x00
,0x00,0x00,0x38,0x00,0x00,0x70,0x00,0x0e,0x00,0x00,0x00,0x18,0x00,0x00,0x30
,0x00,0x0e,0x00,0x00,0x00,0x18,0x00,0x00,0x30,0x00,0x0e,0x00,0x80,0x01,0x1c
,0x00,0x00,0x30,0x00,0x00,0x00,0x80,0x03,0x1c,0x00,0x00,0xf0,0x03,0x00,0x00
,0x00,0x03,0x1c,0x00,0x00,0xf0,0x03,0x00,0x00,0x00,0x03,0x0c,0xe0,0x00,0x30
,0x00,0x00,0x00,0x00,0x03,0x0c,0xe0,0x03,0x30,0x00,0x00,0x00,0x80,0x07,0x0c
,0x30,0x07,0xf0,0x03,0x00,0x00,0xe0,0x06,0x0c,0x30,0x0e,0xf0,0x03,0x00,0x00
,0x70,0x06,0x0c,0x30,0x07,0x30,0x00,0x00,0x00,0x3c,0x06,0x0c,0x38,0x03,0x30
,0x00,0x00,0x00,0x1f,0x0c,0x0e,0x98,0x01,0xf0,0x01,0x00,0x80,0x07,0x0c,0x06
,0x98,0x01,0xf0,0x01,0x00,0xe0,0x01,0x0c,0x06,0x98,0x01,0x60,0x10,0x00,0xfc
,0x00,0x18,0x06,0x98,0x01,0x70,0x18,0x00,0x3f,0x00,0x18,0x06,0x9c,0x01,0x78
,0x18,0x80,0x07,0x00,0x18,0x06,0x8c,0x01,0x6c,0x0c,0xe3,0x01,0x00,0x30,0x06
,0x8c,0x01,0xe4,0xbc,0xf9,0x00,0x00,0x30,0x06,0x8c,0x01,0xe6,0xfc,0x3d,0x00
,0x00,0x70,0x06,0x8c,0x01,0xc2,0xe4,0x0c,0x00,0x00,0xe0,0x06,0x8c,0x01,0xe3
,0x46,0x06,0x00,0x00,0xc0,0x07,0x8c,0x81,0xb1,0x63,0x07,0x00,0x00,0x80,0x07
,0x8c,0xc1,0x98,0x23,0x03,0x00,0x00,0x00,0x07,0x8c,0x61,0x8c,0x31,0x03,0x00
,0x00,0x00,0x02,0x8c,0x33,0xc6,0x18,0x03,0x00,0x00,0x00,0x00,0x1c,0x1b,0x63
,0x8c,0x01,0x00,0x00,0x00,0x00,0x18,0x8f,0x31,0x86,0x01,0x00,0x00,0x00,0x00
,0x18,0xc7,0x18,0x83,0x01,0x00,0x00,0x00,0x00,0x18,0x66,0x8c,0x83,0x01,0x00
,0x00,0x00,0x00,0x38,0x3c,0xc6,0x83,0x01,0x00,0x00,0x00,0x00,0x30,0x38,0xe3
,0x81,0x01,0x00,0x00,0x00,0x00,0x78,0xf0,0xb1,0x81,0x01,0x00,0x00,0x00,0x00
,0xfe,0x7c,0x9c,0x81,0x01,0x00,0x00,0x00,0x00,0xc0,0x07,0xc7,0xc1,0x01,0x00
,0x00,0x00,0x00,0x80,0xf1,0xff,0xc0,0x00,0x00,0x00,0x00,0x00,0xe0,0x1f,0x7e
,0xe0,0x00,0x00,0x00,0x00,0x00,0x00,0x0e,0x00,0x60,0x00,0x00,0x00,0x00,0x00
,0x00,0x1c,0x00,0x70,0x00,0x00,0x00,0x00,0x00,0x00,0x38,0x00,0x38,0x00,0x00
,0x00,0x00,0x00,0x00,0xf0,0x01,0x1e,0x00,0x00,0x00,0x00,0x00,0x00,0xe0,0xff
,0x0f,0x00,0x00,0x00,0x00,0x00,0x00,0x80,0xff,0x03,0x00,0x00,0x00,0x00,0x00
,0x00,0x00,0x00,0x00,0x00,0x00,0x00,0x00,0x00,0x00,0x00,0x00,0x00,0x00,0x00
,0x00,0x00,0x00
};
