#define f33o_width 33
#define f33o_height 33
static unsigned char f33o_bits[] = {
0x00,0x00,0x00,0x00,0x00,0x00,0x00,0x00,0x00,0x00,0x00,0x80,0x03,0x00,0x00
,0x00,0x40,0x04,0x00,0x00,0x00,0x20,0x08,0x00,0x00,0x00,0x20,0x08,0x00,0x00
,0x00,0x20,0x08,0x00,0x00,0x00,0x40,0x04,0x00,0x00,0x00,0xc0,0x07,0x00,0x00
,0x00,0xa0,0x08,0x00,0x00,0x00,0x90,0x10,0x00,0x00,0x00,0x48,0x20,0x00,0x00
,0x00,0x44,0x40,0x00,0x00,0x00,0x23,0x80,0x01,0x00,0xc0,0xfc,0x7f,0x06,0x00
,0xf0,0x03,0x80,0x1f,0x00,0x38,0x00,0x00,0x38,0x00,0x08,0xf8,0x1f,0x20,0x00
,0x86,0x03,0xc0,0x41,0x00,0x24,0x00,0x00,0x24,0x00,0x04,0x00,0x00,0x10,0x00
,0x08,0xfc,0x7f,0x10,0x00,0xc8,0x03,0x80,0x27,0x00,0x34,0x00,0x00,0x38,0x00
,0x0c,0x00,0x00,0x60,0x00,0x04,0x00,0x00,0x40,0x00,0x04,0x00,0x00,0x40,0x00
,0x08,0x00,0x00,0x20,0x00,0x30,0x00,0x00,0x18,0x00,0xc0,0x03,0x80,0x07,0x00
,0x00,0xfc,0x7f,0x00,0x00,0x00,0x00,0x00,0x00,0x00,0x00,0x00,0x00,0x00,0x00

};
