#define g49o_width 49
#define g49o_height 49
static unsigned char g49o_bits[] = {
0x00,0x00,0x00,0x00,0x00,0x00,0x00,0x00,0x00,0x00,0x00,0x00,0x00,0x00,0x00
,0x00,0x00,0x00,0x00,0x00,0x00,0x00,0x00,0x00,0x00,0x00,0x00,0x00,0x00,0x00
,0x0e,0xe0,0x00,0x00,0x00,0x00,0x00,0x11,0x10,0x01,0x00,0x00,0x00,0x00,0x11
,0x10,0x01,0x00,0x00,0x00,0x00,0x11,0x10,0x01,0x00,0x00,0xc0,0x01,0x0e,0xa0
,0x00,0x07,0x00,0x20,0x02,0x04,0x40,0x80,0x08,0x00,0x20,0x02,0x0c,0x60,0x80
,0x08,0x00,0x20,0x02,0x0c,0x60,0x80,0x08,0x00,0x40,0x01,0x0c,0x60,0x00,0x05
,0x00,0x80,0x01,0x0c,0x60,0x00,0x03,0x00,0x00,0x03,0x14,0x50,0x80,0x01,0x00
,0x00,0x06,0x14,0x50,0xc0,0x00,0x00,0x00,0x06,0x14,0x50,0xc0,0x00,0x00,0x00
,0x0a,0x22,0x88,0xa0,0x00,0x00,0x00,0x0a,0x22,0x88,0xa0,0x00,0x00,0x00,0x12
,0x22,0x88,0x90,0x00,0x00,0x00,0x22,0x42,0x84,0x88,0x00,0x00,0x00,0x24,0x42
,0x84,0x48,0x00,0x00,0x00,0x44,0x42,0x84,0x44,0x00,0x00,0x00,0x44,0x42,0x84
,0x44,0x00,0x00,0x00,0x84,0x82,0x82,0x42,0x00,0x00,0x00,0x04,0x83,0x83,0x41
,0x00,0x00,0x00,0x08,0x33,0x99,0x21,0x00,0x00,0x00,0x48,0xca,0xa7,0x24,0x00
,0x00,0x00,0xb8,0x07,0xc0,0x3b,0x00,0x00,0x00,0x08,0x00,0x00,0x20,0x00,0x00
,0x00,0x10,0x00,0x00,0x10,0x00,0x00,0x00,0x20,0x00,0x00,0x08,0x00,0x00,0x00
,0x20,0xf0,0x1f,0x08,0x00,0x00,0x00,0xc0,0x0f,0xe0,0x07,0x00,0x00,0x00,0x40
,0x00,0x00,0x04,0x00,0x00,0x00,0x80,0x00,0x00,0x02,0x00,0x00,0x00,0x80,0x00
,0x00,0x02,0x00,0x00,0x00,0x80,0xf8,0x3f,0x02,0x00,0x00,0x00,0x80,0x07,0xc0
,0x03,0x00,0x00,0x00,0x40,0x00,0x00,0x04,0x00,0x00,0x00,0x40,0xf0,0x1f,0x04
,0x00,0x00,0x00,0xe0,0x0f,0xe0,0x0f,0x00,0x00,0x00,0x30,0x00,0x00,0x18,0x00
,0x00,0x00,0x30,0x00,0x00,0x18,0x00,0x00,0x00,0xe0,0x0f,0xe0,0x0f,0x00,0x00
,0x00,0x00,0xf0,0x1f,0x00,0x00,0x00,0x00,0x00,0x00,0x00,0x00,0x00,0x00,0x00
,0x00,0x00,0x00,0x00,0x00,0x00,0x00,0x00,0x00,0x00,0x00,0x00,0x00
};
