#define g72o_width 72
#define g72o_height 72
static unsigned char g72o_bits[] = {
0x00,0x00,0x00,0x00,0x00,0x00,0x00,0x00,0x00,0x00,0x00,0x00,0x00,0x00,0x00
,0x00,0x00,0x00,0x00,0x00,0x00,0x00,0x00,0x00,0x00,0x00,0x00,0x00,0x00,0x00
,0x00,0x00,0x00,0x00,0x00,0x00,0x00,0x00,0x00,0x00,0x00,0x00,0x00,0x00,0x00
,0x00,0x00,0x00,0x0e,0x00,0x70,0x00,0x00,0x00,0x00,0x00,0x80,0x3f,0x00,0xfc
,0x01,0x00,0x00,0x00,0x00,0xc0,0x71,0x00,0x8e,0x03,0x00,0x00,0x00,0x00,0xc0
,0x60,0x00,0x06,0x03,0x00,0x00,0x00,0x00,0xc0,0x60,0x00,0x06,0x03,0x00,0x00
,0x00,0x00,0xc0,0x60,0x00,0x06,0x03,0x00,0x00,0x00,0x0e,0xc0,0x71,0x00,0x9e
,0x03,0x70,0x00,0x80,0x3f,0x80,0x3f,0x00,0xfc,0x01,0xfc,0x01,0xc0,0x71,0x00
,0x0e,0x00,0x78,0x00,0x8e,0x03,0xc0,0x60,0x00,0x1c,0x00,0x38,0x00,0x06,0x03
,0xc0,0x60,0x00,0x1c,0x00,0x38,0x00,0x06,0x03,0xc0,0x60,0x00,0x1c,0x00,0x38
,0x00,0x06,0x03,0xc0,0x71,0x00,0x3c,0x00,0x3c,0x00,0x8e,0x03,0x80,0x3f,0x00
,0x3c,0x00,0x3c,0x00,0xfc,0x01,0x00,0x3e,0x00,0x3c,0x00,0x3c,0x00,0x7c,0x00
,0x00,0x38,0x00,0x6c,0x00,0x36,0x00,0x1c,0x00,0x00,0x78,0x00,0x6c,0x00,0x36
,0x00,0x1e,0x00,0x00,0x78,0x00,0x6c,0x00,0x36,0x00,0x1e,0x00,0x00,0xf8,0x00
,0xcc,0x00,0x36,0x00,0x1f,0x00,0x00,0xf0,0x01,0xcc,0x00,0x33,0x80,0x0f,0x00
,0x00,0xb0,0x01,0xc6,0x00,0x63,0x80,0x0d,0x00,0x00,0xb0,0x03,0x86,0x01,0x63
,0xc0,0x0d,0x00,0x00,0x30,0x03,0x86,0x81,0x61,0xc0,0x0c,0x00,0x00,0x30,0x07
,0x86,0x81,0x61,0xe0,0x0c,0x00,0x00,0x70,0x06,0x06,0x83,0x61,0x60,0x0e,0x00
,0x00,0x60,0x0e,0x06,0x83,0x61,0x70,0x06,0x00,0x00,0x60,0x0c,0x06,0xc3,0x60
,0x30,0x06,0x00,0x00,0x60,0x1c,0x06,0xc6,0x60,0x38,0x06,0x00,0x00,0x60,0x38
,0x06,0xc6,0x60,0x1c,0x06,0x00,0x00,0x60,0x30,0x06,0x66,0x60,0x0c,0x06,0x00
,0x00,0xe0,0x70,0x06,0x6c,0x60,0x0e,0x07,0x00,0x00,0xc0,0x60,0x07,0x7c,0x60
,0x06,0x03,0x00,0x00,0xc0,0xe0,0x03,0x3c,0xe0,0x07,0x03,0x00,0x00,0xc0,0xc0
,0x43,0x3c,0xc2,0x03,0x03,0x00,0x00,0xc0,0xc0,0xf3,0xff,0xcf,0x03,0x03,0x00
,0x00,0xc0,0x90,0xbb,0xff,0xdd,0x09,0x03,0x00,0x00,0xc0,0xfd,0x1f,0x00,0xf8
,0xbf,0x03,0x00,0x00,0x80,0xef,0x07,0x00,0xe0,0xf7,0x01,0x00,0x00,0x80,0x03
,0x00,0x00,0x00,0xc0,0x01,0x00,0x00,0x80,0x03,0x00,0x00,0x00,0xc0,0x01,0x00
,0x00,0x00,0x07,0x00,0x00,0x00,0xe0,0x00,0x00,0x00,0x00,0x0e,0x00,0x00,0x00
,0x70,0x00,0x00,0x00,0x00,0x1c,0x80,0xff,0x01,0x38,0x00,0x00,0x00,0x00,0x38
,0xff,0xff,0xff,0x1c,0x00,0x00,0x00,0x00,0xf0,0x7f,0x00,0xfe,0x0f,0x00,0x00
,0x00,0x00,0xf0,0x00,0x00,0x00,0x0f,0x00,0x00,0x00,0x00,0x60,0x00,0x00,0x00
,0x06,0x00,0x00,0x00,0x00,0x60,0x00,0x00,0x00,0x06,0x00,0x00,0x00,0x00,0x60
,0x00,0x00,0x00,0x06,0x00,0x00,0x00,0x00,0x60,0x00,0xff,0x00,0x06,0x00,0x00
,0x00,0x00,0xe0,0xff,0xff,0xff,0x07,0x00,0x00,0x00,0x00,0xc0,0xff,0x00,0xff
,0x03,0x00,0x00,0x00,0x00,0xe0,0x00,0x00,0x00,0x07,0x00,0x00,0x00,0x00,0x60
,0x00,0x7e,0x00,0x06,0x00,0x00,0x00,0x00,0x70,0xf8,0xff,0x1f,0x0e,0x00,0x00
,0x00,0x00,0xf0,0xff,0x81,0xff,0x0f,0x00,0x00,0x00,0x00,0xf8,0x07,0x00,0xe0
,0x1f,0x00,0x00,0x00,0x00,0x1c,0x00,0x00,0x00,0x38,0x00,0x00,0x00,0x00,0x0c
,0x00,0x00,0x00,0x30,0x00,0x00,0x00,0x00,0x0c,0x00,0x00,0x00,0x30,0x00,0x00
,0x00,0x00,0xfc,0x01,0x00,0x80,0x3f,0x00,0x00,0x00,0x00,0xf8,0xff,0x00,0xff
,0x1f,0x00,0x00,0x00,0x00,0x00,0xfe,0xff,0x7f,0x00,0x00,0x00,0x00,0x00,0x00
,0x00,0xff,0x00,0x00,0x00,0x00,0x00,0x00,0x00,0x00,0x00,0x00,0x00,0x00,0x00
,0x00,0x00,0x00,0x00,0x00,0x00,0x00,0x00,0x00,0x00,0x00,0x00,0x00,0x00,0x00
,0x00,0x00,0x00
};
