#define i33o_width 33
#define i33o_height 33
static unsigned char i33o_bits[] = {
0x00,0x00,0x00,0x00,0x00,0x00,0x00,0x00,0x00,0x00,0x00,0x00,0x00,0x00,0x00
,0x00,0x00,0x00,0x00,0x00,0x00,0x00,0x00,0x00,0x00,0x00,0xc0,0x07,0x00,0x00
,0x00,0x20,0x08,0x00,0x00,0x00,0x10,0x10,0x00,0x00,0x00,0x0c,0x60,0x00,0x00
,0x00,0x03,0x80,0x01,0x00,0xc0,0x00,0x01,0x06,0x00,0x30,0x00,0x01,0x18,0x00
,0x08,0x00,0x01,0x20,0x00,0x08,0xc0,0x07,0x20,0x00,0x30,0x00,0x01,0x18,0x00
,0xc0,0x00,0x01,0x06,0x00,0x00,0x01,0x00,0x01,0x00,0x00,0x02,0x80,0x00,0x00
,0x00,0x04,0x40,0x00,0x00,0x00,0xf8,0x3f,0x00,0x00,0x00,0x08,0x20,0x00,0x00
,0x00,0xf4,0x5f,0x00,0x00,0x00,0x0c,0x60,0x00,0x00,0x00,0x04,0x40,0x00,0x00
,0x00,0xf8,0x3f,0x00,0x00,0x00,0xc0,0x06,0x00,0x00,0xf0,0x3f,0xf8,0x1f,0x00
,0x08,0x00,0x01,0x20,0x00,0x08,0xc0,0x06,0x20,0x00,0xf0,0x3f,0xf8,0x1f,0x00
,0x10,0x00,0x00,0x10,0x00,0x00,0x00,0x00,0x00,0x00,0x00,0x00,0x00,0x00,0x00

};
