#define icon_outline_width 32
#define icon_outline_height 32
static char icon_outline_bits[] = {
   0x00, 0x00, 0x00, 0x00, 0x00, 0x80, 0x00, 0x00, 0x00, 0x82, 0x01, 0x00,
   0x00, 0x86, 0x01, 0x00, 0x00, 0x8a, 0x02, 0x00, 0x00, 0x54, 0x3c, 0x00,
   0x00, 0xa2, 0x44, 0x00, 0x00, 0x19, 0x80, 0x01, 0x00, 0x01, 0x00, 0x03,
   0x80, 0x0c, 0x00, 0x06, 0x80, 0x06, 0x00, 0x06, 0x40, 0x02, 0x02, 0x0c,
   0x40, 0x00, 0x02, 0x0c, 0x20, 0x00, 0x02, 0x18, 0x20, 0x00, 0x02, 0x18,
   0x10, 0x00, 0x02, 0x10, 0x08, 0x00, 0x01, 0x30, 0x04, 0x80, 0x01, 0x30,
   0x14, 0x60, 0x01, 0x30, 0x1a, 0x18, 0x01, 0x30, 0x0a, 0x86, 0x00, 0x30,
   0x42, 0x81, 0x00, 0x60, 0xa4, 0x40, 0x00, 0x60, 0x58, 0x20, 0x00, 0x60,
   0x20, 0x10, 0x00, 0x60, 0x00, 0x08, 0x00, 0x60, 0x00, 0x04, 0x00, 0x60,
   0x00, 0x04, 0x00, 0x60, 0x00, 0x02, 0x00, 0x60, 0x00, 0xfe, 0xff, 0x7f,
   0x00, 0x00, 0x00, 0x00, 0x00, 0x00, 0x00, 0x00};
