#define j33o_width 33
#define j33o_height 33
static unsigned char j33o_bits[] = {
0x00,0x00,0x00,0x00,0x00,0x00,0x00,0x01,0x00,0x00,0x00,0x80,0x02,0x00,0x00
,0x00,0x40,0x04,0x00,0x00,0x00,0x20,0x08,0x00,0x00,0x00,0x10,0x10,0x00,0x00
,0x00,0x08,0x20,0x00,0x00,0x00,0x04,0x40,0x00,0x00,0xc0,0xc7,0xc7,0x07,0x00
,0x40,0x44,0x44,0x04,0x00,0x40,0x7c,0x7c,0x04,0x00,0x40,0x00,0x00,0x04,0x00
,0xc0,0xff,0xff,0x07,0x00,0x80,0x00,0x00,0x02,0x00,0x00,0xff,0xff,0x01,0x00
,0x00,0x02,0x80,0x00,0x00,0x00,0x02,0x80,0x00,0x00,0x00,0x02,0x80,0x00,0x00
,0x00,0x02,0x80,0x00,0x00,0x00,0x02,0x80,0x00,0x00,0x00,0x02,0x80,0x00,0x00
,0x00,0xfe,0xff,0x00,0x00,0x00,0x01,0x00,0x01,0x00,0x80,0xff,0xff,0x03,0x00
,0x80,0x00,0x00,0x02,0x00,0x80,0x00,0x00,0x02,0x00,0xe0,0xff,0xff,0x0f,0x00
,0x20,0x00,0x00,0x08,0x00,0xe0,0xff,0xff,0x0f,0x00,0x00,0x00,0x00,0x00,0x00
,0x00,0x00,0x00,0x00,0x00,0x00,0x00,0x00,0x00,0x00,0x00,0x00,0x00,0x00,0x00

};
