#define k108o_width 108
#define k108o_height 108
static unsigned char k108o_bits[] = {
0x00,0x00,0x00,0x00,0x00,0x00,0x00,0x00,0x00,0x00,0x00,0x00,0x00,0x00,0x00
,0x00,0x00,0x00,0x00,0x00,0x00,0x00,0x00,0x00,0x00,0x00,0x00,0x00,0x00,0x00
,0x00,0x00,0x00,0x00,0x00,0x00,0x00,0x00,0x00,0x00,0x00,0x00,0x00,0x00,0x00
,0x00,0x00,0x00,0x00,0x00,0x00,0x00,0x00,0x00,0x00,0x00,0x00,0x00,0x00,0x00
,0x00,0x00,0x00,0x00,0x00,0x00,0x00,0x00,0x00,0x00,0x00,0x00,0x00,0x00,0x00
,0x00,0x00,0x00,0x00,0x00,0x00,0x00,0x00,0x00,0x00,0x00,0x00,0x00,0x00,0x00
,0x00,0x00,0x00,0x00,0x00,0x00,0x00,0x00,0x00,0x00,0x00,0x00,0x00,0x00,0x00
,0x00,0x00,0x00,0x00,0x00,0x00,0x00,0x00,0x00,0x00,0x00,0x00,0x00,0x70,0x00
,0x00,0x00,0x00,0x00,0x00,0x00,0x00,0x00,0x00,0x00,0x00,0x00,0x70,0x00,0x00
,0x00,0x00,0x00,0x00,0x00,0x00,0x00,0x00,0x00,0x00,0x00,0x70,0x00,0x00,0x00
,0x00,0x00,0x00,0x00,0x00,0x00,0x00,0x00,0x00,0x00,0x70,0x00,0x00,0x00,0x00
,0x00,0x00,0x00,0x00,0x00,0x00,0x00,0x00,0x00,0x70,0x00,0x00,0x00,0x00,0x00
,0x00,0x00,0x00,0x00,0x00,0x00,0x00,0x80,0xff,0x0f,0x00,0x00,0x00,0x00,0x00
,0x00,0x00,0x00,0x00,0x00,0x00,0xc0,0xff,0x1f,0x00,0x00,0x00,0x00,0x00,0x00
,0x00,0x00,0x00,0x00,0x00,0x80,0xff,0x0f,0x00,0x00,0x00,0x00,0x00,0x00,0x00
,0x00,0x00,0x00,0x00,0x00,0x70,0x00,0x00,0x00,0x00,0x00,0x00,0x00,0x00,0x00
,0x00,0x00,0x00,0x00,0x70,0x00,0x00,0x00,0x00,0x00,0x00,0x00,0x00,0x00,0x00
,0x00,0x00,0x00,0x70,0x00,0x00,0x00,0x00,0x00,0x00,0x00,0x00,0x00,0x00,0x00
,0x00,0x00,0x70,0x00,0x00,0x00,0x00,0x00,0x00,0x00,0x00,0x00,0x00,0x00,0x00
,0x00,0x70,0x00,0x00,0x00,0x00,0x00,0x00,0x00,0x00,0x00,0x00,0x00,0x00,0x00
,0x70,0x00,0x00,0x00,0x00,0x00,0x00,0x00,0x00,0x00,0x00,0x00,0x00,0x00,0x70
,0x00,0x00,0x00,0x00,0x00,0x00,0x00,0x00,0x00,0x00,0x00,0x00,0x00,0x70,0x00
,0x00,0x00,0x00,0x00,0x00,0x00,0x00,0x00,0x00,0x00,0x00,0x00,0x70,0x00,0x00
,0x00,0x00,0x00,0x00,0x00,0x00,0x00,0x00,0x00,0x00,0x00,0xf8,0x00,0x00,0x00
,0x00,0x00,0x00,0x00,0x00,0x00,0x00,0x00,0x00,0x00,0xfe,0x03,0x00,0x00,0x00
,0x00,0x00,0x00,0x00,0x00,0x00,0x00,0x00,0x00,0xff,0x07,0x00,0x00,0x00,0x00
,0x00,0x00,0x00,0x00,0x00,0x00,0x00,0x80,0x07,0x0f,0x00,0x00,0x00,0x00,0x00
,0x00,0x00,0x00,0x00,0x00,0x00,0xc0,0x03,0x1e,0x00,0x00,0x00,0x00,0x00,0x00
,0x00,0x00,0x00,0x00,0x00,0xc0,0x01,0x1c,0x00,0x00,0x00,0x00,0x00,0x00,0x00
,0x00,0x00,0x00,0x00,0xe0,0x00,0x38,0x00,0x00,0x00,0x00,0x00,0x00,0x00,0x00
,0x00,0x00,0x00,0xe0,0x00,0x38,0x00,0x00,0x00,0x00,0x00,0x00,0x00,0x00,0x00
,0x00,0x00,0xe0,0x00,0x38,0x00,0x00,0x00,0x00,0x00,0x00,0x00,0x00,0x00,0x00
,0x00,0x70,0x00,0x70,0x00,0x00,0x00,0x00,0x00,0x00,0x00,0x00,0xc0,0xff,0x00
,0x70,0x00,0x70,0x00,0xf8,0x1f,0x00,0x00,0x00,0x00,0x00,0xfc,0xff,0x07,0x70
,0x00,0x70,0x00,0xff,0xff,0x01,0x00,0x00,0x00,0x00,0xff,0xff,0x1f,0x70,0x00
,0x70,0xc0,0xff,0xff,0x07,0x00,0x00,0x00,0x80,0x3f,0x00,0x7f,0x70,0x00,0x70
,0xf0,0x07,0xe0,0x0f,0x00,0x00,0x00,0xe0,0x03,0x00,0xf8,0x71,0x00,0x70,0xfc
,0x00,0x00,0x3e,0x00,0x00,0x00,0xf0,0x01,0x00,0xe0,0x77,0x00,0x70,0x3f,0x00
,0x00,0x7c,0x00,0x00,0x00,0x78,0x00,0x00,0x80,0x7f,0x00,0xf0,0x0f,0x00,0x00
,0xf0,0x00,0x00,0x00,0x3c,0x00,0x00,0x00,0xfe,0x00,0xf8,0x03,0x00,0x00,0xe0
,0x01,0x00,0x00,0x1c,0x00,0x00,0x00,0xfc,0x00,0xf8,0x01,0x00,0x00,0xc0,0x01
,0x00,0x00,0x0e,0x00,0x00,0x00,0xf8,0x00,0xf8,0x00,0x00,0x00,0x80,0x03,0x00
,0x00,0x0e,0x00,0x00,0x00,0xf0,0x01,0x7c,0x00,0x00,0x00,0x80,0x03,0x00,0x00
,0x07,0x00,0x00,0x00,0xe0,0x01,0x3c,0x00,0x00,0x00,0x00,0x07,0x00,0x00,0x07
,0x00,0x00,0x00,0xc0,0x03,0x1e,0x00,0x00,0x00,0x00,0x07,0x00,0x00,0x07,0x00
,0x00,0x00,0xc0,0x03,0x1e,0x00,0x00,0x00,0x00,0x07,0x00,0x80,0x03,0x00,0x00
,0x00,0x80,0x07,0x0f,0x00,0x00,0x00,0x00,0x0e,0x00,0x80,0x03,0x00,0x00,0x00
,0x00,0x07,0x07,0x00,0x00,0x00,0x00,0x0e,0x00,0x80,0x03,0x00,0x00,0x00,0x00
,0x8f,0x07,0x00,0x00,0x00,0x00,0x0e,0x00,0x80,0x03,0x00,0x00,0x00,0x00,0x8e
,0x03,0x00,0x00,0x00,0x00,0x0e,0x00,0x80,0x03,0x00,0x00,0x00,0x00,0xde,0x03
,0x00,0x00,0x00,0x00,0x0e,0x00,0x80,0x03,0x00,0x00,0x00,0x00,0xdc,0x01,0x00
,0x00,0x00,0x00,0x0e,0x00,0x80,0x03,0x00,0x00,0x00,0x00,0xdc,0x01,0x00,0x00
,0x00,0x00,0x0e,0x00,0x00,0x07,0x00,0x00,0x00,0x00,0xfc,0x01,0x00,0x00,0x00
,0x00,0x07,0x00,0x00,0x07,0x00,0x00,0x00,0x00,0xf8,0x00,0x00,0x00,0x00,0x00
,0x07,0x00,0x00,0x07,0x00,0x00,0x00,0x00,0xf8,0x00,0x00,0x00,0x00,0x00,0x07
,0x00,0x00,0x0e,0x00,0x00,0x00,0x00,0xf8,0x00,0x00,0x00,0x00,0x80,0x03,0x00
,0x00,0x1e,0x00,0x00,0x00,0x00,0xf8,0x00,0x00,0x00,0x00,0xc0,0x03,0x00,0x00
,0x1c,0x00,0x00,0x00,0x00,0x70,0x00,0x00,0x00,0x00,0xc0,0x01,0x00,0x00,0x38
,0x00,0x00,0x00,0x00,0x70,0x00,0x00,0x00,0x00,0xe0,0x00,0x00,0x00,0x78,0x00
,0x00,0x00,0x00,0x70,0x00,0x00,0x00,0x00,0xf0,0x00,0x00,0x00,0xf0,0x00,0x00
,0x00,0x00,0x70,0x00,0x00,0x00,0x00,0x78,0x00,0x00,0x00,0xe0,0x01,0x00,0x00
,0x00,0x70,0x00,0x00,0x00,0x00,0x3c,0x00,0x00,0x00,0xc0,0x03,0x00,0x00,0x00
,0x70,0x00,0x00,0x00,0x00,0x1e,0x00,0x00,0x00,0x80,0x07,0x00,0x00,0xf8,0xff
,0xff,0x00,0x00,0x00,0x0f,0x00,0x00,0x00,0x00,0x0f,0x00,0xf0,0xff,0xff,0xff
,0x7f,0x00,0x80,0x07,0x00,0x00,0x00,0x00,0x1e,0x80,0xff,0xff,0xff,0xff,0xff
,0x0f,0xc0,0x03,0x00,0x00,0x00,0x00,0x7c,0xf8,0xff,0x07,0x00,0x00,0xff,0xff
,0xf0,0x01,0x00,0x00,0x00,0x00,0xf8,0xff,0x0f,0x00,0x00,0x00,0x80,0xff,0xff
,0x00,0x00,0x00,0x00,0x00,0xe0,0x7f,0x00,0x00,0x00,0x00,0x00,0xf0,0x3f,0x00
,0x00,0x00,0x00,0x00,0xc0,0x07,0x00,0x00,0x00,0x00,0x00,0x00,0x1f,0x00,0x00
,0x00,0x00,0x00,0xc0,0x01,0x00,0x00,0x00,0x00,0x00,0x00,0x1c,0x00,0x00,0x00
,0x00,0x00,0xc0,0x01,0x00,0x00,0x00,0x00,0x00,0x00,0x1c,0x00,0x00,0x00,0x00
,0x00,0xc0,0x01,0x00,0x00,0x00,0x00,0x00,0x00,0x1c,0x00,0x00,0x00,0x00,0x00
,0xc0,0x01,0x00,0xe0,0xff,0x3f,0x00,0x00,0x1c,0x00,0x00,0x00,0x00,0x00,0xc0
,0x01,0xc0,0xff,0xff,0xff,0x1f,0x00,0x0e,0x00,0x00,0x00,0x00,0x00,0xc0,0x01
,0xfc,0xff,0xff,0xff,0xff,0x01,0x0e,0x00,0x00,0x00,0x00,0x00,0xc0,0xc1,0xff
,0x1f,0x00,0xc0,0xff,0x1f,0x0e,0x00,0x00,0x00,0x00,0x00,0xc0,0xf9,0x3f,0x00
,0x00,0x00,0xe0,0xff,0x0e,0x00,0x00,0x00,0x00,0x00,0xc0,0xff,0x03,0x00,0x00
,0x00,0x00,0xfe,0x0f,0x00,0x00,0x00,0x00,0x00,0x80,0x3f,0x00,0x00,0x00,0x00
,0x00,0xe0,0x0f,0x00,0x00,0x00,0x00,0x00,0x80,0x07,0x00,0x00,0x00,0x00,0x00
,0x00,0x0f,0x00,0x00,0x00,0x00,0x00,0x80,0x03,0x00,0xe0,0xff,0x3f,0x00,0x00
,0x0e,0x00,0x00,0x00,0x00,0x00,0x80,0x03,0x80,0xff,0xff,0xff,0x0f,0x00,0x0e
,0x00,0x00,0x00,0x00,0x00,0x80,0x03,0xf8,0xff,0xff,0xff,0xff,0x00,0x0e,0x00
,0x00,0x00,0x00,0x00,0x80,0x83,0xff,0x1f,0x00,0xc0,0xff,0x0f,0x0e,0x00,0x00
,0x00,0x00,0x00,0x80,0xf3,0x7f,0x00,0x00,0x00,0xf0,0x7f,0x0e,0x00,0x00,0x00
,0x00,0x00,0x80,0xff,0x07,0x00,0x00,0x00,0x00,0xff,0x0f,0x00,0x00,0x00,0x00
,0x00,0x80,0x7f,0x00,0x00,0x00,0x00,0x00,0xf0,0x0f,0x00,0x00,0x00,0x00,0x00
,0x80,0x0f,0x00,0x00,0x00,0x00,0x00,0x80,0x0f,0x00,0x00,0x00,0x00,0x00,0x80
,0x3f,0x00,0x00,0x00,0x00,0x00,0xf0,0x0f,0x00,0x00,0x00,0x00,0x00,0x00,0xfe
,0x03,0x00,0x00,0x00,0x00,0xfe,0x03,0x00,0x00,0x00,0x00,0x00,0x00,0xf8,0x3f
,0x00,0x00,0x00,0xe0,0x7f,0x00,0x00,0x00,0x00,0x00,0x00,0x00,0xc0,0xff,0x1f
,0x00,0xc0,0xff,0x0f,0x00,0x00,0x00,0x00,0x00,0x00,0x00,0x00,0xfc,0xff,0xff
,0xff,0xff,0x01,0x00,0x00,0x00,0x00,0x00,0x00,0x00,0x00,0xc0,0xff,0xff,0xff
,0x1f,0x00,0x00,0x00,0x00,0x00,0x00,0x00,0x00,0x00,0x00,0xe0,0xff,0x3f,0x00
,0x00,0x00,0x00,0x00,0x00,0x00,0x00,0x00,0x00,0x00,0x00,0x00,0x00,0x00,0x00
,0x00,0x00,0x00,0x00,0x00,0x00,0x00,0x00,0x00,0x00,0x00,0x00,0x00,0x00,0x00
,0x00,0x00,0x00,0x00,0x00,0x00,0x00,0x00,0x00,0x00,0x00,0x00,0x00,0x00,0x00
,0x00,0x00,0x00,0x00,0x00,0x00,0x00,0x00,0x00,0x00,0x00,0x00,0x00,0x00,0x00
,0x00,0x00,0x00,0x00,0x00,0x00,0x00,0x00,0x00,0x00,0x00,0x00,0x00,0x00,0x00
,0x00,0x00,0x00,0x00,0x00,0x00,0x00,0x00,0x00,0x00,0x00,0x00,0x00,0x00,0x00
,0x00,0x00,0x00,0x00,0x00,0x00,0x00,0x00,0x00,0x00,0x00,0x00,0x00,0x00,0x00
,0x00,0x00,0x00,0x00,0x00,0x00,0x00,0x00,0x00,0x00,0x00,0x00
};
