#define k29o_width 29
#define k29o_height 29
static unsigned char k29o_bits[] = {
0x00,0x00,0x00,0x00,0x00,0x40,0x00,0x00,0x00,0x40,0x00,0x00,0x00,0xf0,0x01
,0x00,0x00,0x40,0x00,0x00,0x00,0x40,0x00,0x00,0x00,0xe0,0x00,0x00,0x00,0x10
,0x01,0x00,0x00,0x10,0x01,0x00,0xe0,0x13,0xf9,0x00,0x10,0x1c,0x07,0x01,0x08
,0x10,0x01,0x02,0x04,0xa0,0x00,0x04,0x04,0xa0,0x00,0x04,0x04,0x40,0x00,0x04
,0x04,0x40,0x00,0x04,0x08,0x40,0x00,0x02,0x10,0xfc,0x07,0x01,0xe0,0x03,0xf8
,0x00,0x40,0x00,0x40,0x00,0x40,0xfc,0x47,0x00,0xc0,0x03,0x78,0x00,0x40,0xfc
,0x47,0x00,0xc0,0x03,0x78,0x00,0x80,0x03,0x70,0x00,0x00,0xfc,0x0f,0x00,0x00
,0x00,0x00,0x00,0x00,0x00,0x00,0x00,0x00,0x00,0x00,0x00
};
