#define k33o_width 33
#define k33o_height 33
static unsigned char k33o_bits[] = {
0x00,0x00,0x00,0x00,0x00,0x00,0x00,0x00,0x00,0x00,0x00,0x00,0x01,0x00,0x00
,0x00,0x00,0x01,0x00,0x00,0x00,0xc0,0x07,0x00,0x00,0x00,0x00,0x01,0x00,0x00
,0x00,0x00,0x01,0x00,0x00,0x00,0x00,0x01,0x00,0x00,0x00,0x80,0x03,0x00,0x00
,0x00,0x40,0x04,0x00,0x00,0x00,0x20,0x08,0x00,0x00,0xc0,0x27,0xc8,0x07,0x00
,0x20,0x38,0x38,0x08,0x00,0x10,0x20,0x08,0x10,0x00,0x08,0x40,0x04,0x20,0x00
,0x08,0xc0,0x06,0x20,0x00,0x08,0x80,0x02,0x20,0x00,0x08,0x80,0x03,0x20,0x00
,0x08,0x00,0x01,0x20,0x00,0x10,0x00,0x01,0x10,0x00,0x20,0xf0,0x1f,0x08,0x00
,0x40,0x0f,0xe0,0x05,0x00,0x80,0x00,0x00,0x02,0x00,0x80,0x00,0x00,0x02,0x00
,0x80,0xf8,0x3f,0x02,0x00,0x80,0x07,0xc0,0x03,0x00,0x80,0xf0,0x1f,0x02,0x00
,0x80,0x0e,0xe0,0x02,0x00,0x80,0x01,0x00,0x03,0x00,0x00,0x07,0xc0,0x01,0x00
,0x00,0xf8,0x3f,0x00,0x00,0x00,0x00,0x00,0x00,0x00,0x00,0x00,0x00,0x00,0x00

};
