#define k37o_width 37
#define k37o_height 37
static unsigned char k37o_bits[] = {
0x00,0x00,0x00,0x00,0x00,0x00,0x00,0x00,0x00,0x00,0x00,0x00,0x00,0x00,0x00
,0x00,0x00,0x04,0x00,0x00,0x00,0x00,0x04,0x00,0x00,0x00,0x00,0x1f,0x00,0x00
,0x00,0x00,0x04,0x00,0x00,0x00,0x00,0x04,0x00,0x00,0x00,0x00,0x04,0x00,0x00
,0x00,0x00,0x0e,0x00,0x00,0x00,0x00,0x11,0x00,0x00,0x00,0x80,0x20,0x00,0x00
,0x80,0x8f,0x20,0x3e,0x00,0x60,0xb0,0xa0,0xc1,0x00,0x10,0xc0,0x60,0x00,0x01
,0x08,0x80,0x20,0x00,0x02,0x08,0x00,0x11,0x00,0x02,0x08,0x00,0x11,0x00,0x02
,0x08,0x00,0x0a,0x00,0x02,0x08,0x00,0x0a,0x00,0x02,0x10,0x00,0x04,0x00,0x01
,0x10,0x00,0x04,0x00,0x01,0x20,0x00,0x04,0x80,0x00,0x40,0xe0,0xff,0x40,0x00
,0x80,0x1f,0x00,0x3f,0x00,0x00,0x01,0x00,0x10,0x00,0x00,0x01,0x00,0x10,0x00
,0x00,0xf1,0xff,0x11,0x00,0x00,0x0f,0x00,0x1e,0x00,0x00,0xc1,0x7f,0x10,0x00
,0x00,0x3d,0x80,0x17,0x00,0x00,0x03,0x00,0x18,0x00,0x00,0x1c,0x80,0x07,0x00
,0x00,0xe0,0x7f,0x00,0x00,0x00,0x00,0x00,0x00,0x00,0x00,0x00,0x00,0x00,0x00
,0x00,0x00,0x00,0x00,0x00
};
