#define k40o_width 40
#define k40o_height 40
static unsigned char k40o_bits[] = {
0x00,0x00,0x00,0x00,0x00,0x00,0x00,0x10,0x00,0x00,0x00,0x00,0x10,0x00,0x00
,0x00,0x00,0x7c,0x00,0x00,0x00,0x00,0x10,0x00,0x00,0x00,0x00,0x10,0x00,0x00
,0x00,0x00,0x10,0x00,0x00,0x00,0x00,0x10,0x00,0x00,0x00,0x00,0x38,0x00,0x00
,0x00,0x00,0x44,0x00,0x00,0x00,0x00,0x82,0x00,0x00,0x00,0x00,0x82,0x00,0x00
,0x00,0x1f,0x82,0xf0,0x01,0xc0,0x60,0x82,0x0c,0x06,0x20,0x00,0x83,0x01,0x08
,0x10,0x00,0xc6,0x00,0x10,0x10,0x00,0x44,0x00,0x10,0x08,0x00,0x6c,0x00,0x20
,0x08,0x00,0x28,0x00,0x20,0x08,0x00,0x28,0x00,0x20,0x10,0x00,0x10,0x00,0x10
,0x10,0x00,0x10,0x00,0x10,0x20,0x00,0x10,0x00,0x08,0x40,0x80,0xff,0x03,0x04
,0x80,0x78,0x00,0x3c,0x02,0x00,0x07,0x00,0xc0,0x01,0x00,0x02,0x00,0x80,0x00
,0x00,0x02,0x00,0x80,0x00,0x00,0xc2,0xff,0x87,0x00,0x00,0x3e,0x00,0xf8,0x00
,0x00,0x02,0xff,0x81,0x00,0x00,0xf2,0x00,0x9e,0x00,0x00,0x0e,0x00,0xe0,0x00
,0x00,0x06,0x00,0xc0,0x00,0x00,0x78,0x00,0x3c,0x00,0x00,0x80,0xff,0x03,0x00
,0x00,0x00,0x00,0x00,0x00,0x00,0x00,0x00,0x00,0x00,0x00,0x00,0x00,0x00,0x00
,0x00,0x00,0x00,0x00,0x00
};
