#define k49o_width 49
#define k49o_height 49
static unsigned char k49o_bits[] = {
0x00,0x00,0x00,0x00,0x00,0x00,0x00,0x00,0x00,0x00,0x00,0x00,0x00,0x00,0x00
,0x00,0x00,0x00,0x00,0x00,0x00,0x00,0x00,0x00,0x01,0x00,0x00,0x00,0x00,0x00
,0x00,0x01,0x00,0x00,0x00,0x00,0x00,0x00,0x01,0x00,0x00,0x00,0x00,0x00,0xe0
,0x0f,0x00,0x00,0x00,0x00,0x00,0x00,0x01,0x00,0x00,0x00,0x00,0x00,0x00,0x01
,0x00,0x00,0x00,0x00,0x00,0x00,0x01,0x00,0x00,0x00,0x00,0x00,0x00,0x01,0x00
,0x00,0x00,0x00,0x00,0xc0,0x07,0x00,0x00,0x00,0x00,0x00,0x20,0x08,0x00,0x00
,0x00,0x00,0x00,0x10,0x10,0x00,0x00,0x00,0x00,0x00,0x10,0x10,0x00,0x00,0x00
,0x00,0x00,0x10,0x10,0x00,0x00,0x00,0x00,0xfe,0x10,0x10,0xfe,0x00,0x00,0x80
,0x01,0x13,0x90,0x01,0x03,0x00,0x40,0x00,0x1c,0x70,0x00,0x04,0x00,0x20,0x00
,0x10,0x10,0x00,0x08,0x00,0x10,0x00,0x20,0x08,0x00,0x10,0x00,0x10,0x00,0x60
,0x0c,0x00,0x10,0x00,0x08,0x00,0x40,0x04,0x00,0x20,0x00,0x08,0x00,0xc0,0x06
,0x00,0x20,0x00,0x08,0x00,0x80,0x02,0x00,0x20,0x00,0x08,0x00,0x80,0x02,0x00
,0x20,0x00,0x08,0x00,0x00,0x01,0x00,0x20,0x00,0x10,0x00,0x00,0x01,0x00,0x10
,0x00,0x10,0x00,0x00,0x01,0x00,0x10,0x00,0x20,0x00,0x00,0x01,0x00,0x08,0x00
,0x40,0x00,0xfc,0x7f,0x00,0x04,0x00,0x80,0xc0,0x03,0x80,0x07,0x02,0x00,0x00
,0x3b,0x00,0x00,0x38,0x01,0x00,0x00,0x04,0x00,0x00,0xc0,0x00,0x00,0x00,0x04
,0x00,0x00,0x40,0x00,0x00,0x00,0x04,0x00,0x00,0x40,0x00,0x00,0x00,0x04,0xfc
,0x7f,0x40,0x00,0x00,0x00,0xe4,0x03,0x80,0x4f,0x00,0x00,0x00,0x1c,0x00,0x00
,0x70,0x00,0x00,0x00,0x04,0xf8,0x3f,0x40,0x00,0x00,0x00,0x84,0x07,0xc0,0x43
,0x00,0x00,0x00,0x74,0x00,0x00,0x5c,0x00,0x00,0x00,0x0c,0x00,0x00,0x60,0x00
,0x00,0x00,0x38,0x00,0x00,0x38,0x00,0x00,0x00,0xc0,0x07,0x80,0x07,0x00,0x00
,0x00,0x00,0xf8,0x7f,0x00,0x00,0x00,0x00,0x00,0x00,0x00,0x00,0x00,0x00,0x00
,0x00,0x00,0x00,0x00,0x00,0x00,0x00,0x00,0x00,0x00,0x00,0x00,0x00
};
