#define k54o_width 54
#define k54o_height 54
static unsigned char k54o_bits[] = {
0x00,0x00,0x00,0x00,0x00,0x00,0x00,0x00,0x00,0x00,0x00,0x00,0x00,0x00,0x00
,0x00,0x00,0x00,0x00,0x00,0x00,0x00,0x00,0x00,0x0c,0x00,0x00,0x00,0x00,0x00
,0x00,0x0c,0x00,0x00,0x00,0x00,0x00,0x00,0x0c,0x00,0x00,0x00,0x00,0x00,0x80
,0x7f,0x00,0x00,0x00,0x00,0x00,0x80,0x7f,0x00,0x00,0x00,0x00,0x00,0x00,0x0c
,0x00,0x00,0x00,0x00,0x00,0x00,0x0c,0x00,0x00,0x00,0x00,0x00,0x00,0x0c,0x00
,0x00,0x00,0x00,0x00,0x00,0x0c,0x00,0x00,0x00,0x00,0x00,0x00,0x0c,0x00,0x00
,0x00,0x00,0x00,0x00,0x3f,0x00,0x00,0x00,0x00,0x00,0x80,0x73,0x00,0x00,0x00
,0x00,0x00,0x80,0x61,0x00,0x00,0x00,0x00,0x00,0xc0,0xe1,0x00,0x00,0x00,0x00
,0xf8,0xc1,0xc0,0xe0,0x07,0x00,0x00,0xfe,0xcf,0xc0,0xfc,0x1f,0x00,0x80,0x07
,0xfe,0xc0,0x1f,0x78,0x00,0xc0,0x01,0xf0,0xc0,0x03,0xe0,0x00,0xe0,0x00,0xe0
,0xe1,0x01,0xc0,0x01,0x60,0x00,0xc0,0xe1,0x00,0x80,0x01,0x70,0x00,0x80,0x73
,0x00,0x80,0x03,0x30,0x00,0x00,0x33,0x00,0x00,0x03,0x30,0x00,0x00,0x3f,0x00
,0x00,0x03,0x30,0x00,0x00,0x1e,0x00,0x00,0x03,0x30,0x00,0x00,0x1e,0x00,0x00
,0x03,0x70,0x00,0x00,0x1e,0x00,0x80,0x03,0x60,0x00,0x00,0x0c,0x00,0x80,0x01
,0xe0,0x00,0x00,0x0c,0x00,0xc0,0x01,0xc0,0x01,0x00,0x0c,0x00,0xe0,0x00,0x80
,0x03,0x00,0x0c,0x00,0x70,0x00,0x00,0x07,0xf0,0xff,0x03,0x38,0x00,0x00,0xce
,0xff,0xff,0xff,0x1c,0x00,0x00,0xfc,0x0f,0x00,0xfc,0x0f,0x00,0x00,0x38,0x00
,0x00,0x00,0x07,0x00,0x00,0x18,0x00,0x00,0x00,0x06,0x00,0x00,0x18,0xe0,0xff
,0x01,0x06,0x00,0x00,0x18,0xff,0xff,0x3f,0x06,0x00,0x00,0xf8,0x1f,0x00,0xfe
,0x07,0x00,0x00,0xf0,0x00,0x00,0xc0,0x03,0x00,0x00,0x30,0xe0,0xff,0x01,0x03
,0x00,0x00,0x30,0xff,0xff,0x3f,0x03,0x00,0x00,0xf0,0x1f,0x00,0xfe,0x03,0x00
,0x00,0xf0,0x00,0x00,0xc0,0x03,0x00,0x00,0xf0,0x00,0x00,0xc0,0x03,0x00,0x00
,0xc0,0x1f,0x00,0xfe,0x00,0x00,0x00,0x00,0xff,0xff,0x3f,0x00,0x00,0x00,0x00
,0xe0,0xff,0x01,0x00,0x00,0x00,0x00,0x00,0x00,0x00,0x00,0x00,0x00,0x00,0x00
,0x00,0x00,0x00,0x00,0x00,0x00,0x00,0x00,0x00,0x00,0x00,0x00,0x00,0x00,0x00
,0x00,0x00,0x00
};
