#define k58s_width 58
#define k58s_height 58
static unsigned char k58s_bits[] = {
0x00,0x00,0x00,0x00,0x00,0x00,0x00,0x00,0x00,0x00,0x00,0x00,0x00,0x00,0x00
,0x00,0x00,0x00,0x00,0x00,0x00,0x00,0x00,0x00,0x00,0x00,0x00,0x00,0x00,0x00
,0x00,0x00,0x00,0x00,0x00,0x00,0x00,0x00,0x00,0x00,0x00,0x00,0x00,0x30,0x00
,0x00,0x00,0x00,0x00,0x00,0x00,0x30,0x00,0x00,0x00,0x00,0x00,0x00,0x00,0x30
,0x00,0x00,0x00,0x00,0x00,0x00,0x00,0xfe,0x01,0x00,0x00,0x00,0x00,0x00,0x00
,0xfe,0x01,0x00,0x00,0x00,0x00,0x00,0x00,0x30,0x00,0x00,0x00,0x00,0x00,0x00
,0x00,0x30,0x00,0x00,0x00,0x00,0x00,0x00,0x00,0x30,0x00,0x00,0x00,0x00,0x00
,0x00,0x00,0x30,0x00,0x00,0x00,0x00,0x00,0x00,0x00,0x30,0x00,0x00,0x00,0x00
,0x00,0x00,0x00,0xfc,0x00,0x00,0x00,0x00,0x00,0x00,0x00,0x86,0x01,0x00,0x00
,0x00,0x00,0x00,0x00,0x02,0x01,0x00,0x00,0x00,0x00,0x00,0x00,0x33,0x03,0x00
,0x00,0x00,0x00,0xf8,0x03,0x33,0x03,0x7f,0x00,0x00,0x00,0xfe,0x0f,0x33,0xc3
,0xff,0x01,0x00,0x80,0x07,0x3c,0x33,0xf3,0x80,0x07,0x00,0xc0,0x01,0xf0,0x33
,0x3f,0x00,0x0e,0x00,0xe0,0xf0,0xc1,0x03,0x0f,0x3e,0x1c,0x00,0x60,0xfc,0x87
,0x87,0x87,0xff,0x18,0x00,0x30,0xfe,0x1f,0x87,0xe3,0xff,0x31,0x00,0x30,0xfe
,0x3f,0x86,0xf1,0xff,0x31,0x00,0x30,0xff,0x7f,0xcc,0xf8,0xff,0x33,0x00,0x30
,0xff,0x7f,0xcc,0xf8,0xff,0x33,0x00,0x30,0xff,0xff,0x78,0xfc,0xff,0x33,0x00
,0x30,0xfe,0xff,0x78,0xfc,0xff,0x31,0x00,0x70,0xfe,0xff,0x79,0xfe,0xff,0x39
,0x00,0x60,0xfc,0xff,0x31,0xfe,0xff,0x18,0x00,0xe0,0xf8,0xff,0x33,0xff,0x7f
,0x0c,0x00,0xc0,0xf1,0xff,0x33,0xff,0x3f,0x0e,0x00,0x80,0xe3,0xff,0x33,0xff
,0x1f,0x07,0x00,0x00,0x87,0x1f,0x00,0xe0,0x87,0x03,0x00,0x00,0x0e,0x01,0x00
,0x00,0xc2,0x01,0x00,0x00,0x1c,0x80,0xff,0x07,0xe0,0x00,0x00,0x00,0x38,0xfe
,0xff,0xff,0x71,0x00,0x00,0x00,0xf0,0xff,0xff,0xff,0x3f,0x00,0x00,0x00,0xf0
,0xff,0xff,0xff,0x3f,0x00,0x00,0x00,0xf0,0x1f,0x00,0xe0,0x3f,0x00,0x00,0x00
,0xf0,0x01,0x00,0x00,0x3e,0x00,0x00,0x00,0x70,0x80,0xff,0x07,0x38,0x00,0x00
,0x00,0xf0,0xfe,0xff,0xff,0x3d,0x00,0x00,0x00,0xf0,0x3f,0x00,0xf0,0x3f,0x00
,0x00,0x00,0xf0,0x03,0x00,0x00,0x3f,0x00,0x00,0x00,0x70,0x80,0xff,0x07,0x38
,0x00,0x00,0x00,0x70,0xfc,0xff,0xff,0x38,0x00,0x00,0x00,0xf0,0xff,0xff,0xff
,0x3f,0x00,0x00,0x00,0x80,0xff,0xff,0xff,0x07,0x00,0x00,0x00,0x00,0xfc,0xff
,0xff,0x00,0x00,0x00,0x00,0x00,0x80,0xff,0x07,0x00,0x00,0x00,0x00,0x00,0x00
,0x00,0x00,0x00,0x00,0x00,0x00,0x00,0x00,0x00,0x00,0x00,0x00,0x00,0x00,0x00
,0x00,0x00,0x00,0x00,0x00,0x00,0x00,0x00,0x00,0x00,0x00,0x00,0x00,0x00
};
