#define l33o_width 33
#define l33o_height 33
static unsigned char l33o_bits[] = {
0x00,0x00,0x00,0x00,0x00,0x00,0x00,0x00,0x00,0x00,0x00,0x00,0x02,0x00,0x00
,0x00,0x00,0x02,0x00,0x00,0x00,0x00,0x05,0x00,0x00,0x00,0x00,0x05,0x00,0x00
,0x00,0x00,0x05,0x00,0x00,0x00,0x80,0x08,0x00,0x00,0x00,0x80,0x08,0x00,0x00
,0x00,0x80,0x08,0x00,0x00,0x00,0x40,0x10,0x00,0x00,0x00,0x40,0x10,0x00,0x00
,0x00,0x40,0x10,0x00,0x00,0x00,0x20,0x20,0x00,0x00,0x00,0x20,0x22,0x00,0x00
,0x00,0x20,0x22,0x00,0x00,0x00,0x10,0x42,0x00,0x00,0x00,0x10,0x42,0x00,0x00
,0x00,0x90,0x4f,0x00,0x00,0x00,0x08,0x82,0x00,0x00,0x00,0x08,0x82,0x00,0x00
,0x00,0x08,0x82,0x00,0x00,0x00,0x10,0x42,0x00,0x00,0x00,0x20,0x20,0x00,0x00
,0x00,0x40,0x10,0x00,0x00,0x00,0x80,0x08,0x00,0x00,0x00,0x00,0x05,0x00,0x00
,0x00,0x00,0x07,0x00,0x00,0x00,0x00,0x07,0x00,0x00,0x00,0x00,0x07,0x00,0x00
,0x00,0x00,0x07,0x00,0x00,0x00,0x00,0x07,0x00,0x00,0x00,0x00,0x00,0x00,0x00

};
