#define l33s_width 33
#define l33s_height 33
static unsigned char l33s_bits[] = {
0x00,0x00,0x00,0x00,0x00,0x00,0x00,0x00,0x00,0x00,0x00,0x00,0x02,0x00,0x00
,0x00,0x00,0x02,0x00,0x00,0x00,0x00,0x07,0x00,0x00,0x00,0x00,0x07,0x00,0x00
,0x00,0x00,0x07,0x00,0x00,0x00,0x80,0x0f,0x00,0x00,0x00,0x80,0x0f,0x00,0x00
,0x00,0x80,0x0f,0x00,0x00,0x00,0xc0,0x1f,0x00,0x00,0x00,0xc0,0x1f,0x00,0x00
,0x00,0xc0,0x1f,0x00,0x00,0x00,0xe0,0x3f,0x00,0x00,0x00,0xe0,0x3d,0x00,0x00
,0x00,0xe0,0x3d,0x00,0x00,0x00,0xf0,0x7d,0x00,0x00,0x00,0xf0,0x7d,0x00,0x00
,0x00,0x70,0x70,0x00,0x00,0x00,0xf8,0xfd,0x00,0x00,0x00,0xf8,0xfd,0x00,0x00
,0x00,0xf8,0xfd,0x00,0x00,0x00,0xf0,0x7f,0x00,0x00,0x00,0xe0,0x3f,0x00,0x00
,0x00,0xc0,0x1d,0x00,0x00,0x00,0x80,0x0a,0x00,0x00,0x00,0x00,0x07,0x00,0x00
,0x00,0x00,0x07,0x00,0x00,0x00,0x00,0x07,0x00,0x00,0x00,0x00,0x07,0x00,0x00
,0x00,0x00,0x07,0x00,0x00,0x00,0x00,0x07,0x00,0x00,0x00,0x00,0x00,0x00,0x00

};
