#define l37o_width 37
#define l37o_height 37
static unsigned char l37o_bits[] = {
0x00,0x00,0x00,0x00,0x00,0x00,0x00,0x00,0x00,0x00,0x00,0x00,0x04,0x00,0x00
,0x00,0x00,0x04,0x00,0x00,0x00,0x00,0x0a,0x00,0x00,0x00,0x00,0x0a,0x00,0x00
,0x00,0x00,0x0a,0x00,0x00,0x00,0x00,0x11,0x00,0x00,0x00,0x00,0x11,0x00,0x00
,0x00,0x00,0x11,0x00,0x00,0x00,0x80,0x20,0x00,0x00,0x00,0x80,0x20,0x00,0x00
,0x00,0x80,0x20,0x00,0x00,0x00,0x40,0x40,0x00,0x00,0x00,0x40,0x40,0x00,0x00
,0x00,0x40,0x40,0x00,0x00,0x00,0x20,0x84,0x00,0x00,0x00,0x20,0x84,0x00,0x00
,0x00,0x20,0x84,0x00,0x00,0x00,0x10,0x04,0x01,0x00,0x00,0x10,0x04,0x01,0x00
,0x00,0x10,0x1f,0x01,0x00,0x00,0x08,0x04,0x02,0x00,0x00,0x08,0x04,0x02,0x00
,0x00,0x08,0x04,0x02,0x00,0x00,0x10,0x04,0x01,0x00,0x00,0x20,0x80,0x00,0x00
,0x00,0x40,0x40,0x00,0x00,0x00,0x80,0x20,0x00,0x00,0x00,0x00,0x15,0x00,0x00
,0x00,0x00,0x0e,0x00,0x00,0x00,0x00,0x0e,0x00,0x00,0x00,0x00,0x0e,0x00,0x00
,0x00,0x00,0x0e,0x00,0x00,0x00,0x00,0x0e,0x00,0x00,0x00,0x00,0x0e,0x00,0x00
,0x00,0x00,0x00,0x00,0x00
};
