#define l40o_width 40
#define l40o_height 40
static unsigned char l40o_bits[] = {
0x00,0x00,0x00,0x00,0x00,0x00,0x00,0x00,0x00,0x00,0x00,0x00,0x08,0x00,0x00
,0x00,0x00,0x08,0x00,0x00,0x00,0x00,0x14,0x00,0x00,0x00,0x00,0x14,0x00,0x00
,0x00,0x00,0x22,0x00,0x00,0x00,0x00,0x22,0x00,0x00,0x00,0x00,0x41,0x00,0x00
,0x00,0x00,0x41,0x00,0x00,0x00,0x00,0x41,0x00,0x00,0x00,0x80,0x80,0x00,0x00
,0x00,0x80,0x80,0x00,0x00,0x00,0x80,0x80,0x00,0x00,0x00,0x40,0x00,0x01,0x00
,0x00,0x40,0x00,0x01,0x00,0x00,0x20,0x08,0x02,0x00,0x00,0x20,0x08,0x02,0x00
,0x00,0x20,0x08,0x02,0x00,0x00,0x10,0x08,0x04,0x00,0x00,0x10,0x08,0x04,0x00
,0x00,0x10,0x7f,0x04,0x00,0x00,0x08,0x08,0x08,0x00,0x00,0x08,0x08,0x08,0x00
,0x00,0x04,0x08,0x10,0x00,0x00,0x04,0x08,0x10,0x00,0x00,0x08,0x08,0x08,0x00
,0x00,0x10,0x00,0x04,0x00,0x00,0x20,0x00,0x02,0x00,0x00,0x40,0x00,0x01,0x00
,0x00,0x80,0x88,0x00,0x00,0x00,0x00,0x5d,0x00,0x00,0x00,0x00,0x3e,0x00,0x00
,0x00,0x00,0x1c,0x00,0x00,0x00,0x00,0x1c,0x00,0x00,0x00,0x00,0x1c,0x00,0x00
,0x00,0x00,0x1c,0x00,0x00,0x00,0x00,0x1c,0x00,0x00,0x00,0x00,0x1c,0x00,0x00
,0x00,0x00,0x00,0x00,0x00
};
