#define l40s_width 40
#define l40s_height 40
static unsigned char l40s_bits[] = {
0x00,0x00,0x00,0x00,0x00,0x00,0x00,0x00,0x00,0x00,0x00,0x00,0x08,0x00,0x00
,0x00,0x00,0x08,0x00,0x00,0x00,0x00,0x1c,0x00,0x00,0x00,0x00,0x1c,0x00,0x00
,0x00,0x00,0x3e,0x00,0x00,0x00,0x00,0x3e,0x00,0x00,0x00,0x00,0x7f,0x00,0x00
,0x00,0x00,0x7f,0x00,0x00,0x00,0x00,0x7f,0x00,0x00,0x00,0x80,0xff,0x00,0x00
,0x00,0x80,0xff,0x00,0x00,0x00,0x80,0xff,0x00,0x00,0x00,0xc0,0xff,0x01,0x00
,0x00,0xc0,0xff,0x01,0x00,0x00,0xe0,0xf7,0x03,0x00,0x00,0xe0,0xf7,0x03,0x00
,0x00,0xe0,0xf7,0x03,0x00,0x00,0xf0,0xf7,0x07,0x00,0x00,0xf0,0xf7,0x07,0x00
,0x00,0xf0,0x80,0x07,0x00,0x00,0xf8,0xf7,0x0f,0x00,0x00,0xf8,0xf7,0x0f,0x00
,0x00,0xfc,0xf7,0x1f,0x00,0x00,0xfc,0xf7,0x1f,0x00,0x00,0xf8,0xf7,0x0f,0x00
,0x00,0xf0,0xff,0x07,0x00,0x00,0xe0,0xff,0x03,0x00,0x00,0xc0,0xff,0x01,0x00
,0x00,0x80,0xf7,0x00,0x00,0x00,0x00,0x6b,0x00,0x00,0x00,0x00,0x3e,0x00,0x00
,0x00,0x00,0x1c,0x00,0x00,0x00,0x00,0x1c,0x00,0x00,0x00,0x00,0x1c,0x00,0x00
,0x00,0x00,0x1c,0x00,0x00,0x00,0x00,0x1c,0x00,0x00,0x00,0x00,0x1c,0x00,0x00
,0x00,0x00,0x00,0x00,0x00
};
