#define l45o_width 45
#define l45o_height 45
static unsigned char l45o_bits[] = {
0x00,0x00,0x00,0x00,0x00,0x00,0x00,0x00,0x00,0x00,0x00,0x00,0x00,0x00,0x40
,0x00,0x00,0x00,0x00,0x00,0x40,0x00,0x00,0x00,0x00,0x00,0xa0,0x00,0x00,0x00
,0x00,0x00,0xa0,0x00,0x00,0x00,0x00,0x00,0xa0,0x00,0x00,0x00,0x00,0x00,0x10
,0x01,0x00,0x00,0x00,0x00,0x10,0x01,0x00,0x00,0x00,0x00,0x10,0x01,0x00,0x00
,0x00,0x00,0x08,0x02,0x00,0x00,0x00,0x00,0x08,0x02,0x00,0x00,0x00,0x00,0x08
,0x02,0x00,0x00,0x00,0x00,0x04,0x04,0x00,0x00,0x00,0x00,0x04,0x04,0x00,0x00
,0x00,0x00,0x04,0x04,0x00,0x00,0x00,0x00,0x02,0x08,0x00,0x00,0x00,0x00,0x02
,0x08,0x00,0x00,0x00,0x00,0x02,0x08,0x00,0x00,0x00,0x00,0x41,0x10,0x00,0x00
,0x00,0x00,0x41,0x10,0x00,0x00,0x00,0x00,0x41,0x10,0x00,0x00,0x00,0x80,0x40
,0x20,0x00,0x00,0x00,0x80,0x40,0x20,0x00,0x00,0x00,0x80,0x40,0x20,0x00,0x00
,0x00,0x40,0xf8,0x43,0x00,0x00,0x00,0x40,0x40,0x40,0x00,0x00,0x00,0x40,0x40
,0x40,0x00,0x00,0x00,0x20,0x40,0x80,0x00,0x00,0x00,0x20,0x40,0x80,0x00,0x00
,0x00,0x40,0x40,0x40,0x00,0x00,0x00,0x80,0x00,0x20,0x00,0x00,0x00,0x00,0x01
,0x10,0x00,0x00,0x00,0x00,0x02,0x08,0x00,0x00,0x00,0x00,0x04,0x04,0x00,0x00
,0x00,0x00,0x08,0x02,0x00,0x00,0x00,0x00,0x50,0x01,0x00,0x00,0x00,0x00,0xe0
,0x00,0x00,0x00,0x00,0x00,0xe0,0x00,0x00,0x00,0x00,0x00,0xe0,0x00,0x00,0x00
,0x00,0x00,0xe0,0x00,0x00,0x00,0x00,0x00,0xe0,0x00,0x00,0x00,0x00,0x00,0xe0
,0x00,0x00,0x00,0x00,0x00,0xe0,0x00,0x00,0x00,0x00,0x00,0x00,0x00,0x00,0x00

};
