#define l45s_width 45
#define l45s_height 45
static unsigned char l45s_bits[] = {
0x00,0x00,0x00,0x00,0x00,0x00,0x00,0x00,0x00,0x00,0x00,0x00,0x00,0x00,0x40
,0x00,0x00,0x00,0x00,0x00,0x40,0x00,0x00,0x00,0x00,0x00,0xe0,0x00,0x00,0x00
,0x00,0x00,0xe0,0x00,0x00,0x00,0x00,0x00,0xe0,0x00,0x00,0x00,0x00,0x00,0xf0
,0x01,0x00,0x00,0x00,0x00,0xf0,0x01,0x00,0x00,0x00,0x00,0xf0,0x01,0x00,0x00
,0x00,0x00,0xf8,0x03,0x00,0x00,0x00,0x00,0xf8,0x03,0x00,0x00,0x00,0x00,0xf8
,0x03,0x00,0x00,0x00,0x00,0xfc,0x07,0x00,0x00,0x00,0x00,0xfc,0x07,0x00,0x00
,0x00,0x00,0xfc,0x07,0x00,0x00,0x00,0x00,0xfe,0x0f,0x00,0x00,0x00,0x00,0xfe
,0x0f,0x00,0x00,0x00,0x00,0xbe,0x0f,0x00,0x00,0x00,0x00,0xbf,0x1f,0x00,0x00
,0x00,0x00,0xbf,0x1f,0x00,0x00,0x00,0x00,0xbf,0x1f,0x00,0x00,0x00,0x80,0xbf
,0x3f,0x00,0x00,0x00,0x80,0xbf,0x3f,0x00,0x00,0x00,0x80,0x07,0x3c,0x00,0x00
,0x00,0xc0,0xbf,0x7f,0x00,0x00,0x00,0xc0,0xbf,0x7f,0x00,0x00,0x00,0xc0,0xbf
,0x7f,0x00,0x00,0x00,0xe0,0xbf,0xff,0x00,0x00,0x00,0xe0,0xbf,0xff,0x00,0x00
,0x00,0xc0,0xff,0x7f,0x00,0x00,0x00,0x80,0xff,0x3f,0x00,0x00,0x00,0x00,0xff
,0x1f,0x00,0x00,0x00,0x00,0xfe,0x0f,0x00,0x00,0x00,0x00,0xbc,0x07,0x00,0x00
,0x00,0x00,0x58,0x03,0x00,0x00,0x00,0x00,0xf0,0x01,0x00,0x00,0x00,0x00,0xe0
,0x00,0x00,0x00,0x00,0x00,0xe0,0x00,0x00,0x00,0x00,0x00,0xe0,0x00,0x00,0x00
,0x00,0x00,0xe0,0x00,0x00,0x00,0x00,0x00,0xe0,0x00,0x00,0x00,0x00,0x00,0xe0
,0x00,0x00,0x00,0x00,0x00,0xe0,0x00,0x00,0x00,0x00,0x00,0x00,0x00,0x00,0x00

};
