#define l49o_width 49
#define l49o_height 49
static unsigned char l49o_bits[] = {
0x00,0x00,0x00,0x00,0x00,0x00,0x00,0x00,0x00,0x00,0x00,0x00,0x00,0x00,0x00
,0x00,0x00,0x00,0x00,0x00,0x00,0x00,0x00,0x00,0x01,0x00,0x00,0x00,0x00,0x00
,0x00,0x01,0x00,0x00,0x00,0x00,0x00,0x80,0x03,0x00,0x00,0x00,0x00,0x00,0x80
,0x02,0x00,0x00,0x00,0x00,0x00,0x40,0x04,0x00,0x00,0x00,0x00,0x00,0x40,0x04
,0x00,0x00,0x00,0x00,0x00,0x40,0x04,0x00,0x00,0x00,0x00,0x00,0x20,0x08,0x00
,0x00,0x00,0x00,0x00,0x20,0x08,0x00,0x00,0x00,0x00,0x00,0x20,0x08,0x00,0x00
,0x00,0x00,0x00,0x10,0x10,0x00,0x00,0x00,0x00,0x00,0x10,0x10,0x00,0x00,0x00
,0x00,0x00,0x08,0x20,0x00,0x00,0x00,0x00,0x00,0x08,0x20,0x00,0x00,0x00,0x00
,0x00,0x08,0x20,0x00,0x00,0x00,0x00,0x00,0x04,0x40,0x00,0x00,0x00,0x00,0x00
,0x04,0x40,0x00,0x00,0x00,0x00,0x00,0x02,0x80,0x00,0x00,0x00,0x00,0x00,0x02
,0x80,0x00,0x00,0x00,0x00,0x00,0x02,0x81,0x00,0x00,0x00,0x00,0x00,0x01,0x01
,0x01,0x00,0x00,0x00,0x00,0x01,0x01,0x01,0x00,0x00,0x00,0x00,0x01,0x01,0x01
,0x00,0x00,0x00,0x80,0x00,0x01,0x02,0x00,0x00,0x00,0x80,0xe0,0x0f,0x02,0x00
,0x00,0x00,0x40,0x00,0x01,0x04,0x00,0x00,0x00,0x40,0x00,0x01,0x04,0x00,0x00
,0x00,0x20,0x00,0x01,0x08,0x00,0x00,0x00,0x60,0x00,0x01,0x0c,0x00,0x00,0x00
,0xc0,0x00,0x01,0x06,0x00,0x00,0x00,0x80,0x01,0x00,0x03,0x00,0x00,0x00,0x00
,0x03,0x80,0x01,0x00,0x00,0x00,0x00,0x06,0xc0,0x00,0x00,0x00,0x00,0x00,0x0c
,0x60,0x00,0x00,0x00,0x00,0x00,0x18,0x30,0x00,0x00,0x00,0x00,0x00,0x30,0x18
,0x00,0x00,0x00,0x00,0x00,0x60,0x0c,0x00,0x00,0x00,0x00,0x00,0xc0,0x07,0x00
,0x00,0x00,0x00,0x00,0x80,0x03,0x00,0x00,0x00,0x00,0x00,0x80,0x03,0x00,0x00
,0x00,0x00,0x00,0x80,0x03,0x00,0x00,0x00,0x00,0x00,0x80,0x03,0x00,0x00,0x00
,0x00,0x00,0x80,0x03,0x00,0x00,0x00,0x00,0x00,0x80,0x03,0x00,0x00,0x00,0x00
,0x00,0x00,0x00,0x00,0x00,0x00,0x00,0x00,0x00,0x00,0x00,0x00,0x00
};
