#define l54o_width 54
#define l54o_height 54
static unsigned char l54o_bits[] = {
0x00,0x00,0x00,0x00,0x00,0x00,0x00,0x00,0x00,0x00,0x00,0x00,0x00,0x00,0x00
,0x00,0x00,0x0c,0x00,0x00,0x00,0x00,0x00,0x00,0x0c,0x00,0x00,0x00,0x00,0x00
,0x00,0x0c,0x00,0x00,0x00,0x00,0x00,0x00,0x1e,0x00,0x00,0x00,0x00,0x00,0x00
,0x1e,0x00,0x00,0x00,0x00,0x00,0x00,0x33,0x00,0x00,0x00,0x00,0x00,0x00,0x33
,0x00,0x00,0x00,0x00,0x00,0x00,0x33,0x00,0x00,0x00,0x00,0x00,0x80,0x61,0x00
,0x00,0x00,0x00,0x00,0x80,0x61,0x00,0x00,0x00,0x00,0x00,0x80,0x61,0x00,0x00
,0x00,0x00,0x00,0xc0,0xc0,0x00,0x00,0x00,0x00,0x00,0xc0,0xc0,0x00,0x00,0x00
,0x00,0x00,0xc0,0xc0,0x00,0x00,0x00,0x00,0x00,0x60,0x80,0x01,0x00,0x00,0x00
,0x00,0x60,0x80,0x01,0x00,0x00,0x00,0x00,0x60,0x80,0x01,0x00,0x00,0x00,0x00
,0x30,0x00,0x03,0x00,0x00,0x00,0x00,0x30,0x00,0x03,0x00,0x00,0x00,0x00,0x30
,0x00,0x03,0x00,0x00,0x00,0x00,0x18,0x00,0x06,0x00,0x00,0x00,0x00,0x18,0x0c
,0x06,0x00,0x00,0x00,0x00,0x18,0x0c,0x06,0x00,0x00,0x00,0x00,0x0c,0x0c,0x0c
,0x00,0x00,0x00,0x00,0x0c,0x0c,0x0c,0x00,0x00,0x00,0x00,0x0c,0x0c,0x0c,0x00
,0x00,0x00,0x00,0x06,0x0c,0x18,0x00,0x00,0x00,0x00,0x06,0x0c,0x18,0x00,0x00
,0x00,0x00,0xc6,0xff,0x18,0x00,0x00,0x00,0x00,0xc3,0xff,0x30,0x00,0x00,0x00
,0x00,0x03,0x0c,0x30,0x00,0x00,0x00,0x00,0x03,0x0c,0x30,0x00,0x00,0x00,0x80
,0x01,0x0c,0x60,0x00,0x00,0x00,0x80,0x01,0x0c,0x60,0x00,0x00,0x00,0x80,0x03
,0x0c,0x70,0x00,0x00,0x00,0x00,0x07,0x00,0x38,0x00,0x00,0x00,0x00,0x0e,0x00
,0x1c,0x00,0x00,0x00,0x00,0x1c,0x00,0x0e,0x00,0x00,0x00,0x00,0x38,0x00,0x07
,0x00,0x00,0x00,0x00,0x70,0x80,0x03,0x00,0x00,0x00,0x00,0xe0,0xcc,0x01,0x00
,0x00,0x00,0x00,0xc0,0xff,0x00,0x00,0x00,0x00,0x00,0x80,0x7f,0x00,0x00,0x00
,0x00,0x00,0x00,0x3f,0x00,0x00,0x00,0x00,0x00,0x00,0x1e,0x00,0x00,0x00,0x00
,0x00,0x00,0x1e,0x00,0x00,0x00,0x00,0x00,0x00,0x1e,0x00,0x00,0x00,0x00,0x00
,0x00,0x1e,0x00,0x00,0x00,0x00,0x00,0x00,0x1e,0x00,0x00,0x00,0x00,0x00,0x00
,0x1e,0x00,0x00,0x00,0x00,0x00,0x00,0x00,0x00,0x00,0x00,0x00,0x00,0x00,0x00
,0x00,0x00,0x00
};
