#define l58o_width 58
#define l58o_height 58
static unsigned char l58o_bits[] = {
0x00,0x00,0x00,0x00,0x00,0x00,0x00,0x00,0x00,0x00,0x00,0x00,0x00,0x00,0x00
,0x00,0x00,0x00,0x00,0x30,0x00,0x00,0x00,0x00,0x00,0x00,0x00,0x30,0x00,0x00
,0x00,0x00,0x00,0x00,0x00,0x30,0x00,0x00,0x00,0x00,0x00,0x00,0x00,0x78,0x00
,0x00,0x00,0x00,0x00,0x00,0x00,0x78,0x00,0x00,0x00,0x00,0x00,0x00,0x00,0xcc
,0x00,0x00,0x00,0x00,0x00,0x00,0x00,0xcc,0x00,0x00,0x00,0x00,0x00,0x00,0x00
,0xcc,0x00,0x00,0x00,0x00,0x00,0x00,0x00,0x86,0x01,0x00,0x00,0x00,0x00,0x00
,0x00,0x86,0x01,0x00,0x00,0x00,0x00,0x00,0x00,0x86,0x01,0x00,0x00,0x00,0x00
,0x00,0x00,0x03,0x03,0x00,0x00,0x00,0x00,0x00,0x00,0x03,0x03,0x00,0x00,0x00
,0x00,0x00,0x00,0x03,0x03,0x00,0x00,0x00,0x00,0x00,0x80,0x01,0x06,0x00,0x00
,0x00,0x00,0x00,0x80,0x01,0x06,0x00,0x00,0x00,0x00,0x00,0x80,0x01,0x06,0x00
,0x00,0x00,0x00,0x00,0xc0,0x00,0x0c,0x00,0x00,0x00,0x00,0x00,0xc0,0x00,0x0c
,0x00,0x00,0x00,0x00,0x00,0xc0,0x00,0x0c,0x00,0x00,0x00,0x00,0x00,0x60,0x00
,0x18,0x00,0x00,0x00,0x00,0x00,0x60,0x00,0x18,0x00,0x00,0x00,0x00,0x00,0x60
,0x00,0x18,0x00,0x00,0x00,0x00,0x00,0x30,0x30,0x30,0x00,0x00,0x00,0x00,0x00
,0x30,0x30,0x30,0x00,0x00,0x00,0x00,0x00,0x30,0x30,0x30,0x00,0x00,0x00,0x00
,0x00,0x18,0x30,0x60,0x00,0x00,0x00,0x00,0x00,0x18,0x30,0x60,0x00,0x00,0x00
,0x00,0x00,0x18,0x30,0x60,0x00,0x00,0x00,0x00,0x00,0x0c,0x30,0xc0,0x00,0x00
,0x00,0x00,0x00,0x0c,0xff,0xc3,0x00,0x00,0x00,0x00,0x00,0x0c,0xff,0xc3,0x00
,0x00,0x00,0x00,0x00,0x06,0x30,0x80,0x01,0x00,0x00,0x00,0x00,0x06,0x30,0x80
,0x01,0x00,0x00,0x00,0x00,0x06,0x30,0x80,0x01,0x00,0x00,0x00,0x00,0x03,0x30
,0x00,0x03,0x00,0x00,0x00,0x00,0x07,0x30,0x80,0x03,0x00,0x00,0x00,0x00,0x0e
,0x30,0xc0,0x01,0x00,0x00,0x00,0x00,0x1c,0x00,0xe0,0x00,0x00,0x00,0x00,0x00
,0x38,0x00,0x70,0x00,0x00,0x00,0x00,0x00,0x70,0x00,0x38,0x00,0x00,0x00,0x00
,0x00,0xe0,0x00,0x1c,0x00,0x00,0x00,0x00,0x00,0xc0,0x01,0x0e,0x00,0x00,0x00
,0x00,0x00,0x80,0x33,0x07,0x00,0x00,0x00,0x00,0x00,0x00,0xff,0x03,0x00,0x00
,0x00,0x00,0x00,0x00,0xfe,0x01,0x00,0x00,0x00,0x00,0x00,0x00,0xfc,0x00,0x00
,0x00,0x00,0x00,0x00,0x00,0x78,0x00,0x00,0x00,0x00,0x00,0x00,0x00,0x78,0x00
,0x00,0x00,0x00,0x00,0x00,0x00,0x78,0x00,0x00,0x00,0x00,0x00,0x00,0x00,0x78
,0x00,0x00,0x00,0x00,0x00,0x00,0x00,0x78,0x00,0x00,0x00,0x00,0x00,0x00,0x00
,0x78,0x00,0x00,0x00,0x00,0x00,0x00,0x00,0x78,0x00,0x00,0x00,0x00,0x00,0x00
,0x00,0x00,0x00,0x00,0x00,0x00,0x00,0x00,0x00,0x00,0x00,0x00,0x00,0x00
};
