#define l72o_width 72
#define l72o_height 72
static unsigned char l72o_bits[] = {
0x00,0x00,0x00,0x00,0x00,0x00,0x00,0x00,0x00,0x00,0x00,0x00,0x00,0x00,0x00
,0x00,0x00,0x00,0x00,0x00,0x00,0x00,0x00,0x00,0x00,0x00,0x00,0x00,0x00,0x00
,0x00,0x00,0x00,0x00,0x00,0x00,0x00,0x00,0x00,0x00,0x10,0x00,0x00,0x00,0x00
,0x00,0x00,0x00,0x00,0x10,0x00,0x00,0x00,0x00,0x00,0x00,0x00,0x00,0x38,0x00
,0x00,0x00,0x00,0x00,0x00,0x00,0x00,0x38,0x00,0x00,0x00,0x00,0x00,0x00,0x00
,0x00,0x6c,0x00,0x00,0x00,0x00,0x00,0x00,0x00,0x00,0x6c,0x00,0x00,0x00,0x00
,0x00,0x00,0x00,0x00,0x44,0x00,0x00,0x00,0x00,0x00,0x00,0x00,0x00,0xc6,0x00
,0x00,0x00,0x00,0x00,0x00,0x00,0x00,0xc6,0x00,0x00,0x00,0x00,0x00,0x00,0x00
,0x00,0x83,0x01,0x00,0x00,0x00,0x00,0x00,0x00,0x00,0x83,0x01,0x00,0x00,0x00
,0x00,0x00,0x00,0x00,0x01,0x01,0x00,0x00,0x00,0x00,0x00,0x00,0x80,0x01,0x03
,0x00,0x00,0x00,0x00,0x00,0x00,0x80,0x01,0x03,0x00,0x00,0x00,0x00,0x00,0x00
,0xc0,0x00,0x06,0x00,0x00,0x00,0x00,0x00,0x00,0xc0,0x00,0x06,0x00,0x00,0x00
,0x00,0x00,0x00,0x40,0x00,0x04,0x00,0x00,0x00,0x00,0x00,0x00,0x60,0x00,0x0c
,0x00,0x00,0x00,0x00,0x00,0x00,0x60,0x00,0x0c,0x00,0x00,0x00,0x00,0x00,0x00
,0x30,0x00,0x18,0x00,0x00,0x00,0x00,0x00,0x00,0x30,0x00,0x18,0x00,0x00,0x00
,0x00,0x00,0x00,0x10,0x00,0x10,0x00,0x00,0x00,0x00,0x00,0x00,0x18,0x00,0x30
,0x00,0x00,0x00,0x00,0x00,0x00,0x18,0x00,0x30,0x00,0x00,0x00,0x00,0x00,0x00
,0x0c,0x00,0x60,0x00,0x00,0x00,0x00,0x00,0x00,0x0c,0x00,0x60,0x00,0x00,0x00
,0x00,0x00,0x00,0x04,0x00,0x40,0x00,0x00,0x00,0x00,0x00,0x00,0x06,0x00,0xc0
,0x00,0x00,0x00,0x00,0x00,0x00,0x06,0x38,0xc0,0x00,0x00,0x00,0x00,0x00,0x00
,0x03,0x38,0x80,0x01,0x00,0x00,0x00,0x00,0x00,0x03,0x38,0x80,0x01,0x00,0x00
,0x00,0x00,0x00,0x01,0x38,0x00,0x01,0x00,0x00,0x00,0x00,0x80,0x01,0x38,0x00
,0x03,0x00,0x00,0x00,0x00,0x80,0x01,0x38,0x00,0x03,0x00,0x00,0x00,0x00,0xc0
,0x00,0x38,0x00,0x06,0x00,0x00,0x00,0x00,0xc0,0x00,0x38,0x00,0x06,0x00,0x00
,0x00,0x00,0xc0,0xc0,0xff,0x07,0x06,0x00,0x00,0x00,0x00,0x60,0xc0,0xff,0x07
,0x0c,0x00,0x00,0x00,0x00,0x60,0xc0,0xff,0x07,0x0c,0x00,0x00,0x00,0x00,0x30
,0x00,0x38,0x00,0x18,0x00,0x00,0x00,0x00,0x30,0x00,0x38,0x00,0x18,0x00,0x00
,0x00,0x00,0x30,0x00,0x38,0x00,0x18,0x00,0x00,0x00,0x00,0x18,0x00,0x38,0x00
,0x30,0x00,0x00,0x00,0x00,0x18,0x00,0x38,0x00,0x30,0x00,0x00,0x00,0x00,0x38
,0x00,0x38,0x00,0x38,0x00,0x00,0x00,0x00,0x70,0x00,0x38,0x00,0x1c,0x00,0x00
,0x00,0x00,0xe0,0x00,0x38,0x00,0x0e,0x00,0x00,0x00,0x00,0xc0,0x01,0x38,0x00
,0x07,0x00,0x00,0x00,0x00,0x80,0x03,0x38,0x80,0x03,0x00,0x00,0x00,0x00,0x00
,0x07,0x00,0xc0,0x01,0x00,0x00,0x00,0x00,0x00,0x0e,0x00,0xe0,0x00,0x00,0x00
,0x00,0x00,0x00,0x1c,0x00,0x70,0x00,0x00,0x00,0x00,0x00,0x00,0x38,0x00,0x38
,0x00,0x00,0x00,0x00,0x00,0x00,0x70,0x10,0x1c,0x00,0x00,0x00,0x00,0x00,0x00
,0xe0,0x10,0x0e,0x00,0x00,0x00,0x00,0x00,0x00,0xc0,0x39,0x07,0x00,0x00,0x00
,0x00,0x00,0x00,0x80,0xbb,0x03,0x00,0x00,0x00,0x00,0x00,0x00,0x00,0xff,0x01
,0x00,0x00,0x00,0x00,0x00,0x00,0x00,0xfe,0x00,0x00,0x00,0x00,0x00,0x00,0x00
,0x00,0x7c,0x00,0x00,0x00,0x00,0x00,0x00,0x00,0x00,0x7c,0x00,0x00,0x00,0x00
,0x00,0x00,0x00,0x00,0x7c,0x00,0x00,0x00,0x00,0x00,0x00,0x00,0x00,0x7c,0x00
,0x00,0x00,0x00,0x00,0x00,0x00,0x00,0x7c,0x00,0x00,0x00,0x00,0x00,0x00,0x00
,0x00,0x7c,0x00,0x00,0x00,0x00,0x00,0x00,0x00,0x00,0x00,0x00,0x00,0x00,0x00
,0x00,0x00,0x00,0x00,0x00,0x00,0x00,0x00,0x00,0x00,0x00,0x00,0x00,0x00,0x00
,0x00,0x00,0x00
};
