#define m49o_width 49
#define m49o_height 49
static unsigned char m49o_bits[] = {
0x00,0x00,0x00,0x00,0x00,0x00,0x00,0x00,0x00,0x00,0x00,0x00,0x00,0x00,0x00
,0x00,0x00,0x00,0x00,0x00,0x00,0x00,0x00,0x00,0x00,0x00,0x00,0x00,0x00,0x00
,0x00,0x01,0x00,0x00,0x00,0x00,0x00,0x80,0x02,0x00,0x00,0x00,0x00,0x00,0x40
,0x04,0x00,0x00,0x00,0x00,0x00,0x20,0x08,0x00,0x00,0x00,0x00,0x00,0x20,0x08
,0x00,0x00,0x00,0x00,0x00,0x20,0x08,0x00,0x00,0x00,0x00,0x00,0x40,0x04,0x00
,0x00,0x00,0x00,0x00,0x40,0x04,0x00,0x00,0x00,0x00,0x00,0x40,0x04,0x00,0x00
,0x00,0x00,0x00,0x80,0x02,0x00,0x00,0x00,0x00,0x00,0xfe,0xff,0x01,0x00,0x00
,0x00,0x80,0x01,0x00,0x03,0x00,0x00,0x00,0x70,0x00,0x00,0x1c,0x00,0x00,0x00
,0x0c,0x00,0x00,0x60,0x00,0x00,0x00,0x02,0x00,0x00,0x80,0x00,0x00,0x00,0x02
,0x00,0x00,0x80,0x00,0x00,0x00,0x02,0x00,0x00,0x80,0x00,0x00,0x00,0x01,0x00
,0x00,0x00,0x01,0x00,0x00,0x01,0x00,0x00,0x00,0x01,0x00,0x00,0x01,0x00,0x00
,0x00,0x01,0x00,0x00,0x01,0x00,0x00,0x00,0x01,0x00,0x80,0x00,0x00,0x00,0x00
,0x01,0x00,0x80,0x00,0x00,0x00,0x00,0x02,0x00,0x80,0x00,0xf8,0x3f,0x00,0x02
,0x00,0x80,0xe0,0x01,0x00,0x0f,0x02,0x00,0x80,0x0c,0x00,0x00,0x60,0x02,0x00
,0x40,0x00,0x00,0x00,0x00,0x04,0x00,0x40,0x00,0x00,0x00,0x00,0x04,0x00,0x40
,0x00,0x00,0x00,0x00,0x04,0x00,0x20,0x80,0xff,0xff,0x03,0x08,0x00,0x10,0x7e
,0x00,0x00,0xfc,0x10,0x00,0xc8,0x01,0x00,0x00,0x00,0x27,0x00,0x3c,0x03,0x00
,0x00,0x80,0x79,0x00,0x06,0xfc,0x00,0x00,0x7e,0xc0,0x00,0x02,0x00,0xff,0xff
,0x01,0x80,0x00,0x02,0x00,0x00,0x00,0x00,0x80,0x00,0x04,0x00,0x00,0x00,0x00
,0x40,0x00,0x38,0x00,0x00,0x00,0x00,0x38,0x00,0xc0,0x01,0x00,0x00,0x00,0x07
,0x00,0x00,0x7e,0x00,0x00,0xfc,0x00,0x00,0x00,0x80,0xff,0xff,0x03,0x00,0x00
,0x00,0x00,0x00,0x00,0x00,0x00,0x00,0x00,0x00,0x00,0x00,0x00,0x00,0x00,0x00
,0x00,0x00,0x00,0x00,0x00,0x00,0x00,0x00,0x00,0x00,0x00,0x00,0x00
};
