#define m72o_width 72
#define m72o_height 72
static unsigned char m72o_bits[] = {
0x00,0x00,0x00,0x00,0x00,0x00,0x00,0x00,0x00,0x00,0x00,0x00,0x00,0x00,0x00
,0x00,0x00,0x00,0x00,0x00,0x00,0x00,0x00,0x00,0x00,0x00,0x00,0x00,0x00,0x00
,0x00,0x00,0x00,0x00,0x00,0x00,0x00,0x00,0x00,0x00,0x00,0x00,0x00,0x00,0x00
,0x00,0x00,0x00,0x00,0x00,0x00,0x00,0x00,0x00,0x00,0x00,0x00,0x00,0x00,0x00
,0x00,0x00,0x00,0x00,0x00,0x00,0x00,0x00,0x00,0x00,0x00,0x00,0x00,0x00,0x00
,0x00,0x00,0x00,0x00,0x00,0x00,0x00,0x00,0x00,0x00,0x00,0x00,0x00,0x00,0x00
,0x00,0x00,0x00,0x00,0x00,0x00,0x00,0x00,0x00,0x00,0x00,0x00,0x00,0x10,0x00
,0x00,0x00,0x00,0x00,0x00,0x00,0x00,0x38,0x00,0x00,0x00,0x00,0x00,0x00,0x00
,0x00,0x7c,0x00,0x00,0x00,0x00,0x00,0x00,0x00,0x00,0xee,0x00,0x00,0x00,0x00
,0x00,0x00,0x00,0x00,0xc7,0x01,0x00,0x00,0x00,0x00,0x00,0x00,0x80,0x83,0x03
,0x00,0x00,0x00,0x00,0x00,0x00,0x80,0x01,0x03,0x00,0x00,0x00,0x00,0x00,0x00
,0x80,0x01,0x03,0x00,0x00,0x00,0x00,0x00,0x00,0x00,0x83,0x01,0x00,0x00,0x00
,0x00,0x00,0x00,0x00,0x83,0x01,0x00,0x00,0x00,0x00,0x00,0x00,0x00,0x83,0x01
,0x00,0x00,0x00,0x00,0x00,0x00,0x00,0x83,0x01,0x00,0x00,0x00,0x00,0x00,0x00
,0x00,0xc6,0x00,0x00,0x00,0x00,0x00,0x00,0x00,0x00,0xc6,0x00,0x00,0x00,0x00
,0x00,0x00,0x00,0xf8,0xff,0x3f,0x00,0x00,0x00,0x00,0x00,0x00,0xff,0xff,0xff
,0x03,0x00,0x00,0x00,0x00,0xe0,0x07,0x00,0xc0,0x0f,0x00,0x00,0x00,0x00,0xfc
,0x00,0x00,0x00,0x3c,0x00,0x00,0x00,0x00,0x1e,0x00,0x00,0x00,0x70,0x00,0x00
,0x00,0x00,0x07,0x00,0x00,0x00,0xe0,0x00,0x00,0x00,0x80,0x03,0x00,0x00,0x00
,0xc0,0x01,0x00,0x00,0x80,0x01,0x00,0x00,0x00,0x80,0x01,0x00,0x00,0x80,0x01
,0x00,0x00,0x00,0x80,0x01,0x00,0x00,0xc0,0x00,0x00,0x00,0x00,0x00,0x03,0x00
,0x00,0xc0,0x00,0x00,0x00,0x00,0x00,0x03,0x00,0x00,0xc0,0x00,0x00,0x00,0x00
,0x00,0x03,0x00,0x00,0xc0,0x00,0x00,0x00,0x00,0x00,0x03,0x00,0x00,0x60,0x00
,0x00,0x00,0x00,0x00,0x06,0x00,0x00,0x60,0x00,0x00,0x00,0x00,0x00,0x06,0x00
,0x00,0x60,0x00,0x00,0x00,0x00,0x00,0x06,0x00,0x00,0x60,0x00,0x00,0x00,0x00
,0x00,0x06,0x00,0x00,0x20,0x00,0x00,0x00,0x00,0x00,0x06,0x00,0x00,0x30,0x00
,0xf8,0xff,0x7f,0x00,0x0c,0x00,0x00,0x30,0xf0,0xfb,0xff,0x7f,0x1f,0x0c,0x00
,0x00,0x30,0xff,0x03,0x00,0x00,0xff,0x0c,0x00,0x00,0x30,0x0f,0x00,0x00,0x00
,0xe0,0x0c,0x00,0x00,0x18,0x00,0x00,0x00,0x00,0x00,0x18,0x00,0x00,0x18,0x00
,0x00,0x00,0x00,0x00,0x18,0x00,0x00,0x18,0x00,0x00,0x00,0x00,0x00,0x18,0x00
,0x00,0x1c,0x00,0x00,0x00,0x00,0x00,0x38,0x00,0x00,0x0e,0x00,0x00,0x00,0x00
,0x00,0x70,0x00,0x00,0x07,0x80,0xff,0xff,0xff,0x01,0xe0,0x00,0x80,0x03,0xff
,0xff,0xff,0xff,0xff,0xc0,0x01,0xc0,0xf9,0x7f,0x00,0x00,0x00,0xfc,0x9f,0x03
,0xe0,0xff,0x00,0x00,0x00,0x00,0x80,0xff,0x07,0xf0,0xe3,0xff,0x03,0x00,0xc0
,0xff,0xe7,0x0f,0x78,0x00,0xff,0xff,0xff,0xff,0xff,0x00,0x1e,0x38,0x00,0x00
,0xfc,0xff,0x7f,0x00,0x00,0x1c,0x38,0x00,0x00,0x00,0x00,0x00,0x00,0x00,0x1c
,0xf0,0x01,0x00,0x00,0x00,0x00,0x00,0x00,0x0f,0xe0,0x0f,0x00,0x00,0x00,0x00
,0x00,0xf8,0x07,0x80,0xff,0x00,0x00,0x00,0x00,0xc0,0xff,0x01,0x00,0xf8,0xff
,0x01,0x00,0xc0,0xff,0x1f,0x00,0x00,0x00,0xff,0xff,0xff,0xff,0xff,0x00,0x00
,0x00,0x00,0x80,0xff,0xff,0xff,0x01,0x00,0x00,0x00,0x00,0x00,0x00,0x00,0x00
,0x00,0x00,0x00,0x00,0x00,0x00,0x00,0x00,0x00,0x00,0x00,0x00,0x00,0x00,0x00
,0x00,0x00,0x00,0x00,0x00,0x00,0x00,0x00,0x00,0x00,0x00,0x00,0x00,0x00,0x00
,0x00,0x00,0x00,0x00,0x00,0x00,0x00,0x00,0x00,0x00,0x00,0x00,0x00,0x00,0x00
,0x00,0x00,0x00
};
