#define n108o_width 108
#define n108o_height 108
static unsigned char n108o_bits[] = {
0x00,0x00,0x00,0x00,0x00,0x00,0x00,0x00,0x00,0x00,0x00,0x00,0x00,0x00,0x00
,0x00,0x00,0x00,0x00,0x00,0x00,0x00,0x00,0x00,0x00,0x00,0x00,0x00,0x00,0x00
,0x00,0x00,0x00,0x00,0x00,0x00,0x00,0x00,0x00,0x00,0x00,0x00,0x00,0x00,0x00
,0x00,0x00,0x00,0x00,0x00,0x00,0x00,0x00,0x00,0x00,0x00,0x00,0x00,0x00,0x00
,0x00,0x00,0x00,0x00,0x00,0x00,0x00,0x00,0x00,0x00,0x00,0x00,0x00,0x00,0x00
,0x00,0x00,0x00,0x00,0x00,0x00,0x00,0x00,0x00,0x00,0x00,0x00,0x00,0x00,0x00
,0x00,0x00,0x00,0x00,0x00,0x00,0x00,0x00,0x00,0x00,0x00,0x00,0x00,0x00,0x00
,0x00,0x00,0x00,0x00,0x00,0x00,0x00,0x00,0x00,0x00,0x00,0x00,0x00,0x00,0x00
,0x00,0x00,0x00,0x00,0x00,0x00,0x00,0x00,0x00,0x00,0x00,0x00,0x00,0x00,0x00
,0x00,0x00,0x00,0x00,0x00,0x00,0x00,0x00,0x60,0x00,0x00,0x07,0x00,0x00,0x00
,0x00,0x00,0x00,0x00,0x00,0x00,0x00,0xf0,0x00,0x00,0x0f,0x00,0x00,0x00,0x00
,0x00,0x00,0x00,0x00,0x00,0x00,0xf0,0x01,0x80,0x0f,0x00,0x00,0x00,0x00,0x00
,0x00,0x00,0x00,0x00,0x00,0xf0,0x07,0xc0,0x1f,0x00,0x00,0x00,0x00,0x00,0x00
,0x00,0x00,0x00,0x00,0xf0,0x0f,0xc0,0x1d,0x00,0x00,0x00,0x00,0x00,0x00,0x00
,0x00,0x00,0x00,0xe0,0x3e,0xe0,0x38,0x00,0x00,0x00,0x00,0x00,0x00,0x00,0x00
,0x00,0x00,0xe0,0x7c,0xe0,0x38,0x00,0x00,0x00,0x00,0x00,0x00,0x00,0x00,0x00
,0x00,0xe0,0xf0,0x70,0x70,0x00,0x00,0x00,0x00,0x00,0x00,0x00,0x00,0x00,0x00
,0xe0,0xe0,0x71,0x70,0x00,0x00,0x00,0x00,0x00,0x00,0x00,0x00,0x00,0x00,0xe0
,0xc0,0x3d,0xf0,0x07,0x00,0x00,0x00,0x00,0x00,0x00,0x00,0x00,0x00,0xe0,0x80
,0x3f,0xe0,0xff,0x00,0x00,0x00,0x00,0x00,0x00,0x00,0x00,0x00,0xe0,0x80,0x3f
,0xe0,0xff,0x07,0x00,0x00,0x00,0x00,0x00,0x00,0x00,0x00,0xc0,0xc1,0x3b,0xe0
,0xf8,0x1f,0x00,0x00,0x00,0x00,0x00,0x00,0x00,0x00,0xe0,0xe1,0x19,0xe0,0x00
,0x7f,0x00,0x00,0x00,0x00,0x00,0x00,0x00,0x00,0xf0,0xf9,0x00,0xe0,0x00,0xf8
,0x01,0x00,0x00,0x00,0x00,0x00,0x00,0x00,0x78,0x78,0x00,0x40,0x00,0xe0,0x07
,0x00,0x00,0x00,0x00,0x00,0x00,0x00,0x3c,0x1c,0x00,0x00,0x00,0xc0,0x0f,0x00
,0x00,0x00,0x00,0x00,0x00,0x00,0x1c,0x00,0x00,0x00,0x00,0x00,0x3f,0x00,0x00
,0x00,0x00,0x00,0x00,0x00,0x0e,0x00,0x00,0x00,0x00,0x00,0x7e,0x00,0x00,0x00
,0x00,0x00,0x00,0x00,0x0f,0x00,0x00,0x00,0x00,0x00,0xfc,0x00,0x00,0x00,0x00
,0x00,0x00,0x00,0x07,0x00,0x00,0x00,0x00,0x00,0xf8,0x01,0x00,0x00,0x00,0x00
,0x00,0x80,0x03,0x38,0x00,0x00,0x00,0x00,0xf0,0x03,0x00,0x00,0x00,0x00,0x00
,0x80,0x03,0x3f,0x00,0x00,0x00,0x00,0xe0,0x03,0x00,0x00,0x00,0x00,0x00,0x80
,0x83,0x0f,0x00,0x00,0x00,0x00,0xc0,0x07,0x00,0x00,0x00,0x00,0x00,0xc0,0xc1
,0x0f,0x00,0x00,0x00,0x00,0x80,0x0f,0x00,0x00,0x00,0x00,0x00,0xc0,0xe1,0x0f
,0x00,0x00,0x00,0x00,0x80,0x1f,0x00,0x00,0x00,0x00,0x00,0xc0,0xe1,0x07,0x00
,0x00,0x00,0x00,0x00,0x1f,0x00,0x00,0x00,0x00,0x00,0xc0,0xf1,0x07,0x00,0x00
,0x00,0x00,0x00,0x3e,0x00,0x00,0x00,0x00,0x00,0xc0,0xb1,0x01,0x00,0x00,0x00
,0x00,0x00,0x7e,0x00,0x00,0x00,0x00,0x00,0xc0,0x31,0x00,0x00,0x00,0x00,0x00
,0x00,0x7c,0x00,0x00,0x00,0x00,0x00,0xe0,0x30,0x00,0x00,0x00,0x0e,0x00,0x00
,0xfc,0x00,0x00,0x00,0x00,0x00,0xe0,0x00,0x00,0x00,0x00,0x0e,0x00,0x00,0xf8
,0x00,0x00,0x00,0x00,0x00,0xe0,0x00,0x00,0x00,0x00,0x0e,0x00,0x00,0xf8,0x01
,0x00,0x00,0x00,0x00,0x70,0x00,0x00,0x00,0x00,0x0e,0x00,0x00,0xf0,0x01,0x00
,0x00,0x00,0x00,0x70,0x00,0x00,0x00,0x00,0x0e,0x00,0x00,0xf0,0x03,0x00,0x00
,0x00,0x00,0x38,0x00,0x00,0x00,0x00,0x0e,0x00,0x00,0xe0,0x03,0x00,0x00,0x00
,0x00,0x38,0x00,0x00,0x00,0x00,0x0e,0x00,0x00,0xe0,0x07,0x00,0x00,0x00,0x00
,0x1c,0x00,0x00,0x00,0x00,0x07,0x00,0x00,0xc0,0x07,0x00,0x00,0x00,0x00,0x1e
,0x00,0x00,0x00,0x00,0x07,0x00,0x00,0xc0,0x07,0x00,0x00,0x00,0x00,0x0e,0x00
,0x00,0x00,0x00,0x07,0x00,0x00,0xc0,0x0f,0x00,0x00,0x00,0x00,0x07,0x00,0x00
,0x00,0x80,0x03,0x00,0x00,0x80,0x0f,0x00,0x00,0x00,0x80,0x07,0x00,0x00,0x00
,0x80,0x03,0x00,0x00,0x80,0x0f,0x00,0x00,0x00,0xc0,0x03,0x00,0x00,0x00,0xc0
,0x03,0x00,0x00,0x80,0x1f,0x00,0x00,0x00,0xc0,0x01,0x00,0x00,0x00,0xe0,0x03
,0x00,0x00,0x00,0x1f,0x00,0x00,0x00,0xe0,0x00,0x00,0x00,0x00,0xf0,0x07,0x00
,0x00,0x00,0x1f,0x00,0x00,0x00,0xe0,0x00,0x00,0x00,0x00,0x78,0x07,0x00,0x00
,0x00,0x3f,0x00,0x00,0x00,0x70,0x00,0x00,0x00,0x00,0x3e,0x07,0x00,0x00,0x00
,0x3f,0x00,0x00,0x00,0x70,0x00,0x00,0x00,0x80,0x1f,0x07,0x00,0x00,0x00,0x3e
,0x00,0x00,0x00,0x38,0x00,0x00,0x00,0xe0,0x07,0x07,0x00,0x00,0x00,0x7e,0x00
,0x00,0x00,0x38,0x00,0x00,0x00,0xf0,0x01,0x07,0x00,0x00,0x00,0x7e,0x00,0x00
,0x00,0x1c,0x00,0x00,0x00,0x7c,0x00,0x07,0x00,0x00,0x00,0x7e,0x00,0x00,0x00
,0x1c,0x06,0x00,0x00,0x3f,0x80,0x03,0x00,0x00,0x00,0x7c,0x00,0x00,0x00,0x1c
,0x0f,0x00,0x80,0x0f,0x80,0x03,0x00,0x00,0x00,0xfc,0x00,0x00,0x00,0x8e,0x0f
,0x00,0xe0,0x03,0x80,0x03,0x00,0x00,0x00,0xfc,0x00,0x00,0x00,0x8e,0x0f,0x00
,0xf0,0x01,0xc0,0x01,0x00,0x00,0x00,0xfc,0x00,0x00,0x00,0x8e,0x07,0x00,0x78
,0x00,0xc0,0x01,0x00,0x00,0x00,0xfc,0x00,0x00,0x00,0x0e,0x03,0x00,0x3c,0x00
,0xe0,0x00,0x00,0x00,0x00,0xf8,0x00,0x00,0x00,0x0e,0x00,0x03,0x1e,0x00,0xe0
,0x00,0x00,0x00,0x00,0xf8,0x00,0x00,0x00,0x0e,0x00,0x07,0x0f,0x00,0x70,0x00
,0x00,0x00,0x00,0xf8,0x01,0x00,0x00,0x0e,0x80,0x83,0x07,0x00,0x78,0x00,0x00
,0x00,0x00,0xf8,0x01,0x00,0x00,0x1c,0x80,0xc3,0x03,0x00,0x38,0x00,0x00,0x00
,0x00,0xf8,0x01,0x00,0x00,0x3c,0xc0,0xe1,0x01,0x00,0x1c,0x00,0x00,0x00,0x00
,0xf8,0x01,0x00,0x00,0xf8,0xe0,0xf1,0x00,0x00,0x1e,0x00,0x00,0x00,0x00,0xf8
,0x01,0x00,0x00,0xf0,0xff,0x71,0x00,0x00,0x0f,0x00,0x00,0x00,0x00,0xf0,0x01
,0x00,0x00,0xc0,0xff,0x38,0x00,0x80,0x07,0x00,0x00,0x00,0x00,0xf0,0x03,0x00
,0x00,0x00,0xff,0x3c,0x00,0xc0,0x03,0x00,0x00,0x00,0x00,0xf0,0x03,0x00,0x00
,0x00,0xc0,0x1f,0x00,0xe0,0x01,0x00,0x00,0x00,0x00,0xf0,0x03,0x00,0x00,0x00
,0xc0,0x0f,0x00,0xf0,0x00,0x00,0x00,0x00,0x00,0xf0,0x03,0x00,0x00,0x00,0x80
,0x07,0x00,0x78,0x00,0x00,0x00,0x00,0x00,0xf0,0x03,0x00,0x00,0x00,0x00,0x00
,0x00,0x3c,0x00,0x00,0x00,0x00,0x00,0xf0,0x03,0x00,0x00,0x00,0x00,0x00,0x00
,0x1e,0x00,0x00,0x00,0x00,0x00,0xf0,0x03,0x00,0x00,0x00,0x00,0x00,0x00,0x0e
,0x00,0x00,0x00,0x00,0x00,0xf0,0x03,0x00,0x00,0x00,0x00,0x00,0x00,0x07,0x00
,0x00,0x00,0x00,0x00,0xe0,0x03,0x00,0x00,0x00,0x00,0x00,0x80,0x07,0x00,0x00
,0x00,0x00,0x00,0xe0,0x03,0x00,0x00,0x00,0x00,0x00,0xc0,0x03,0x00,0x00,0x00
,0x00,0x00,0xe0,0x03,0x00,0x00,0x00,0x00,0x00,0xe0,0x01,0x00,0x00,0x00,0x00
,0x00,0xe0,0x07,0x00,0x00,0x00,0x00,0x00,0xe0,0x00,0x00,0x00,0x00,0x00,0x00
,0xe0,0x07,0x00,0x00,0x00,0x00,0x00,0x70,0x00,0x00,0x00,0x00,0x00,0x00,0xe0
,0x07,0x00,0x00,0x00,0x00,0x00,0x70,0x00,0x00,0x00,0x00,0x00,0x00,0xe0,0x07
,0x00,0x00,0x00,0x00,0x00,0x38,0x00,0x00,0x00,0x00,0x00,0x00,0xe0,0x07,0x00
,0x00,0x00,0x00,0x00,0x38,0x00,0x00,0x00,0x00,0x00,0x00,0xe0,0x07,0x00,0x00
,0x00,0x00,0x00,0x1c,0x00,0x00,0x00,0x00,0x00,0x00,0xe0,0x07,0x00,0x00,0x00
,0x00,0x00,0x1c,0x00,0x00,0x00,0x00,0x00,0x00,0xe0,0x07,0x00,0x00,0x00,0x00
,0x00,0x1c,0x00,0x00,0x00,0x00,0x00,0x00,0xe0,0x07,0x00,0x00,0x00,0x00,0x00
,0x0e,0x00,0x00,0x00,0x00,0x00,0x00,0xe0,0x07,0x00,0x00,0x00,0x00,0x00,0x0e
,0x00,0x00,0x00,0x00,0x00,0x00,0xe0,0x07,0x00,0x00,0x00,0x00,0x00,0x0e,0x00
,0x00,0x00,0x00,0x00,0x00,0xe0,0x07,0x00,0x00,0x00,0x00,0x00,0xfe,0xff,0xff
,0xff,0xff,0xff,0xff,0xff,0x07,0x00,0x00,0x00,0x00,0x00,0xfe,0xff,0xff,0xff
,0xff,0xff,0xff,0xff,0x07,0x00,0x00,0x00,0x00,0x00,0xfc,0xff,0xff,0xff,0xff
,0xff,0xff,0xff,0x01,0x00,0x00,0x00,0x00,0x00,0x00,0x00,0x00,0x00,0x00,0x00
,0x00,0x00,0x00,0x00,0x00,0x00,0x00,0x00,0x00,0x00,0x00,0x00,0x00,0x00,0x00
,0x00,0x00,0x00,0x00,0x00,0x00,0x00,0x00,0x00,0x00,0x00,0x00,0x00,0x00,0x00
,0x00,0x00,0x00,0x00,0x00,0x00,0x00,0x00,0x00,0x00,0x00,0x00,0x00,0x00,0x00
,0x00,0x00,0x00,0x00,0x00,0x00,0x00,0x00,0x00,0x00,0x00,0x00,0x00,0x00,0x00
,0x00,0x00,0x00,0x00,0x00,0x00,0x00,0x00,0x00,0x00,0x00,0x00,0x00,0x00,0x00
,0x00,0x00,0x00,0x00,0x00,0x00,0x00,0x00,0x00,0x00,0x00,0x00,0x00,0x00,0x00
,0x00,0x00,0x00,0x00,0x00,0x00,0x00,0x00,0x00,0x00,0x00,0x00
};
