#define n21o_width 21
#define n21o_height 21
static unsigned char n21o_bits[] = {
0x00,0x00,0x00,0x60,0x02,0x00,0xe0,0x07,0x00,0x60,0x3d,0x00,0xa0,0xe4,0x00
,0xe0,0xc0,0x01,0xb0,0x80,0x03,0x30,0x08,0x03,0x18,0x08,0x06,0x08,0x0c,0x06
,0x0c,0x0a,0x06,0x84,0x0d,0x04,0xec,0x04,0x0c,0x74,0x06,0x0c,0x3c,0x03,0x0c
,0x80,0x01,0x0c,0xc0,0x00,0x0c,0x40,0x00,0x0c,0xc0,0xff,0x0f,0x00,0x00,0x00
,0x00,0x00,0x00
};
