#define n21s_width 21
#define n21s_height 21
static unsigned char n21s_bits[] = {
0x00,0x00,0x00,0x60,0x02,0x00,0xe0,0x07,0x00,0xe0,0x1f,0x00,0x60,0x76,0x00
,0x20,0xcf,0x00,0xd0,0x9f,0x01,0xd0,0x3f,0x01,0xf8,0x37,0x02,0xf8,0x77,0x02
,0xfc,0x7f,0x02,0xf4,0x7b,0x06,0xf4,0xfc,0x04,0x6c,0xfe,0x04,0x3c,0xff,0x04
,0x80,0xff,0x04,0xc0,0xff,0x04,0xc0,0xff,0x04,0xc0,0xff,0x07,0x00,0x00,0x00
,0x00,0x00,0x00
};
