#define n25o_width 25
#define n25o_height 25
static unsigned char n25o_bits[] = {
0x00,0x00,0x00,0x00,0x00,0x00,0x00,0x00,0x80,0x08,0x00,0x00,0x80,0x15,0x00
,0x00,0x80,0xf6,0x00,0x00,0x40,0x11,0x03,0x00,0xc0,0x01,0x06,0x00,0x60,0x01
,0x0c,0x00,0xe0,0x00,0x08,0x00,0x10,0x20,0x18,0x00,0x10,0x20,0x18,0x00,0x08
,0x20,0x30,0x00,0x08,0x30,0x30,0x00,0x1c,0x2e,0x30,0x00,0x0c,0x21,0x30,0x00
,0xa4,0x10,0x60,0x00,0x78,0x08,0x60,0x00,0x60,0x04,0x60,0x00,0x00,0x02,0x60
,0x00,0x00,0x02,0x60,0x00,0x00,0x01,0x60,0x00,0x00,0x01,0x60,0x00,0x00,0xff
,0x7f,0x00,0x00,0x00,0x00,0x00,0x00,0x00,0x00,0x00
};
