#define n29o_width 29
#define n29o_height 29
static unsigned char n29o_bits[] = {
0x00,0x00,0x00,0x00,0x00,0x00,0x00,0x00,0x80,0x10,0x00,0x00,0x80,0x31,0x00
,0x00,0x80,0x2a,0x00,0x00,0x80,0xec,0x03,0x00,0x80,0x03,0x0c,0x00,0x40,0x00
,0x18,0x00,0x40,0x03,0x30,0x00,0xa0,0x00,0x20,0x00,0xa0,0x40,0x60,0x00,0x10
,0x40,0xc0,0x00,0x10,0x40,0xc0,0x00,0x08,0x60,0xc0,0x00,0x08,0x58,0x80,0x01
,0x04,0x44,0x80,0x01,0x1c,0x42,0x80,0x01,0x0c,0x21,0x80,0x01,0xa4,0x10,0x00
,0x01,0x78,0x10,0x00,0x03,0x00,0x08,0x00,0x03,0x00,0x04,0x00,0x03,0x00,0x02
,0x00,0x03,0x00,0x01,0x00,0x03,0x00,0x01,0x00,0x03,0x00,0xff,0xff,0x03,0x00
,0x00,0x00,0x00,0x00,0x00,0x00,0x00,0x00,0x00,0x00,0x00
};
