#define n33o_width 33
#define n33o_height 33
static unsigned char n33o_bits[] = {
0x00,0x00,0x00,0x00,0x00,0x00,0x00,0x00,0x00,0x00,0x00,0x00,0x00,0x00,0x00
,0x00,0xc6,0x00,0x00,0x00,0x00,0x2a,0x01,0x00,0x00,0x00,0x32,0x07,0x00,0x00
,0x00,0x3a,0x19,0x00,0x00,0x00,0x0a,0x60,0x00,0x00,0x00,0x01,0xc0,0x00,0x00
,0x00,0x0d,0x80,0x01,0x00,0x80,0x02,0x00,0x03,0x00,0x80,0x02,0x04,0x03,0x00
,0x40,0x00,0x04,0x06,0x00,0x40,0x00,0x04,0x06,0x00,0x20,0x00,0x04,0x0c,0x00
,0x20,0x00,0x02,0x0c,0x00,0x10,0x80,0x03,0x0c,0x00,0x10,0x40,0x02,0x18,0x00
,0x28,0x30,0x02,0x18,0x00,0x28,0x08,0x01,0x18,0x00,0x88,0x04,0x01,0x18,0x00
,0x88,0x82,0x00,0x10,0x00,0xf0,0x41,0x00,0x30,0x00,0x00,0x20,0x00,0x30,0x00
,0x00,0x10,0x00,0x30,0x00,0x00,0x08,0x00,0x30,0x00,0x00,0x08,0x00,0x30,0x00
,0x00,0x04,0x00,0x30,0x00,0x00,0x04,0x00,0x30,0x00,0x00,0xfc,0xff,0x3f,0x00
,0x00,0x00,0x00,0x00,0x00,0x00,0x00,0x00,0x00,0x00,0x00,0x00,0x00,0x00,0x00

};
