#define n40o_width 40
#define n40o_height 40
static unsigned char n40o_bits[] = {
0x00,0x00,0x00,0x00,0x00,0x00,0x00,0x00,0x00,0x00,0x00,0x08,0x0c,0x00,0x00
,0x00,0x38,0x0c,0x00,0x00,0x00,0x48,0x12,0x00,0x00,0x00,0x88,0x13,0x00,0x00
,0x00,0x90,0xd2,0x01,0x00,0x00,0x48,0x00,0x0c,0x00,0x00,0x04,0x00,0x30,0x00
,0x00,0x04,0x00,0x60,0x00,0x00,0x62,0x00,0xc0,0x00,0x00,0x32,0x00,0x80,0x01
,0x00,0x1a,0x00,0x80,0x01,0x00,0x0a,0x40,0x00,0x03,0x00,0x01,0x40,0x00,0x03
,0x00,0x01,0x40,0x00,0x06,0x80,0x00,0x40,0x00,0x06,0x40,0x00,0x20,0x00,0x0c
,0x40,0x00,0x20,0x00,0x0c,0x20,0x00,0x30,0x00,0x0c,0x20,0x00,0x24,0x00,0x08
,0xd0,0x00,0x23,0x00,0x18,0xd0,0xc0,0x20,0x00,0x18,0x50,0x20,0x10,0x00,0x18
,0x10,0x12,0x10,0x00,0x18,0x20,0x0a,0x08,0x00,0x18,0xc0,0x05,0x04,0x00,0x10
,0x00,0x02,0x02,0x00,0x30,0x00,0x00,0x01,0x00,0x30,0x00,0x80,0x00,0x00,0x30
,0x00,0x80,0x00,0x00,0x30,0x00,0x40,0x00,0x00,0x30,0x00,0x40,0x00,0x00,0x30
,0x00,0x20,0x00,0x00,0x30,0x00,0x20,0x00,0x00,0x30,0x00,0xe0,0xff,0xff,0x3f
,0x00,0x00,0x00,0x00,0x00,0x00,0x00,0x00,0x00,0x00,0x00,0x00,0x00,0x00,0x00
,0x00,0x00,0x00,0x00,0x00
};
