#define n45o_width 45
#define n45o_height 45
static unsigned char n45o_bits[] = {
0x00,0x00,0x00,0x00,0x00,0x00,0x00,0x00,0x00,0x00,0x00,0x00,0x00,0x00,0x00
,0x00,0x00,0x00,0x00,0x00,0x00,0x00,0x00,0x00,0x00,0x10,0x30,0x00,0x00,0x00
,0x00,0x70,0x28,0x00,0x00,0x00,0x00,0x90,0x48,0x00,0x00,0x00,0x00,0x10,0x47
,0x00,0x00,0x00,0x00,0x10,0x45,0x0f,0x00,0x00,0x00,0x90,0x40,0x30,0x00,0x00
,0x00,0x08,0x00,0x40,0x00,0x00,0x00,0x04,0x00,0x80,0x01,0x00,0x00,0xc4,0x00
,0x00,0x03,0x00,0x00,0x22,0x00,0x00,0x06,0x00,0x00,0x42,0x00,0x00,0x0c,0x00
,0x00,0x32,0x00,0x00,0x0c,0x00,0x00,0x12,0x00,0x01,0x18,0x00,0x00,0x01,0x00
,0x01,0x18,0x00,0x00,0x01,0x00,0x01,0x30,0x00,0x80,0x00,0x00,0x01,0x30,0x00
,0x40,0x00,0x80,0x00,0x60,0x00,0x40,0x00,0x80,0x00,0x60,0x00,0x20,0x00,0xc0
,0x00,0x40,0x00,0x10,0x00,0x20,0x01,0xc0,0x00,0x10,0x00,0x18,0x01,0xc0,0x00
,0xc8,0x00,0x86,0x00,0xc0,0x00,0xc8,0x00,0x81,0x00,0x80,0x00,0x48,0x80,0x40
,0x00,0x80,0x01,0x08,0x44,0x40,0x00,0x80,0x01,0x08,0x22,0x20,0x00,0x80,0x01
,0x10,0x12,0x20,0x00,0x80,0x01,0xe0,0x0b,0x10,0x00,0x80,0x01,0x00,0x0c,0x08
,0x00,0x00,0x01,0x00,0x00,0x04,0x00,0x00,0x03,0x00,0x00,0x02,0x00,0x00,0x03
,0x00,0x00,0x01,0x00,0x00,0x03,0x00,0x00,0x01,0x00,0x00,0x03,0x00,0x80,0x00
,0x00,0x00,0x03,0x00,0x80,0x00,0x00,0x00,0x03,0x00,0x40,0x00,0x00,0x00,0x03
,0x00,0x40,0x00,0x00,0x00,0x03,0x00,0xc0,0xff,0xff,0xff,0x03,0x00,0x00,0x00
,0x00,0x00,0x00,0x00,0x00,0x00,0x00,0x00,0x00,0x00,0x00,0x00,0x00,0x00,0x00

};
