#define n49o_width 49
#define n49o_height 49
static unsigned char n49o_bits[] = {
0x00,0x00,0x00,0x00,0x00,0x00,0x00,0x00,0x00,0x00,0x00,0x00,0x00,0x00,0x00
,0x00,0x00,0x00,0x00,0x00,0x00,0x00,0x00,0x00,0x00,0x00,0x00,0x00,0x00,0x10
,0x20,0x00,0x00,0x00,0x00,0x00,0x70,0x50,0x00,0x00,0x00,0x00,0x00,0x90,0x90
,0x00,0x00,0x00,0x00,0x00,0x10,0x89,0x00,0x00,0x00,0x00,0x00,0x10,0x8e,0x07
,0x00,0x00,0x00,0x00,0x20,0x8b,0x38,0x00,0x00,0x00,0x00,0x90,0x00,0xc0,0x00
,0x00,0x00,0x00,0x08,0x00,0x00,0x01,0x00,0x00,0x00,0x04,0x00,0x00,0x06,0x00
,0x00,0x00,0x04,0x00,0x00,0x0c,0x00,0x00,0x00,0x82,0x00,0x00,0x18,0x00,0x00
,0x00,0x62,0x00,0x00,0x30,0x00,0x00,0x00,0x22,0x00,0x00,0x20,0x00,0x00,0x00
,0x12,0x00,0x00,0x60,0x00,0x00,0x00,0x01,0x00,0x02,0xc0,0x00,0x00,0x00,0x01
,0x00,0x02,0xc0,0x00,0x00,0x00,0x01,0x00,0x02,0x80,0x01,0x00,0x80,0x00,0x00
,0x02,0x80,0x01,0x00,0x80,0x00,0x00,0x01,0x00,0x01,0x00,0x40,0x00,0x00,0x01
,0x00,0x03,0x00,0x20,0x00,0x80,0x02,0x00,0x03,0x00,0x20,0x00,0x40,0x02,0x00
,0x02,0x00,0x10,0x00,0x30,0x02,0x00,0x06,0x00,0x10,0x00,0x08,0x02,0x00,0x06
,0x00,0xc8,0x00,0x06,0x02,0x00,0x06,0x00,0x48,0x00,0x01,0x01,0x00,0x04,0x00
,0x08,0x80,0x00,0x01,0x00,0x0c,0x00,0x08,0x44,0x80,0x00,0x00,0x0c,0x00,0x08
,0x22,0x40,0x00,0x00,0x0c,0x00,0x10,0x12,0x20,0x00,0x00,0x0c,0x00,0xe0,0x0b
,0x10,0x00,0x00,0x0c,0x00,0x00,0x0c,0x08,0x00,0x00,0x08,0x00,0x00,0x00,0x04
,0x00,0x00,0x18,0x00,0x00,0x00,0x04,0x00,0x00,0x18,0x00,0x00,0x00,0x02,0x00
,0x00,0x18,0x00,0x00,0x00,0x01,0x00,0x00,0x18,0x00,0x00,0x80,0x00,0x00,0x00
,0x18,0x00,0x00,0x80,0x00,0x00,0x00,0x18,0x00,0x00,0x40,0x00,0x00,0x00,0x18
,0x00,0x00,0x40,0x00,0x00,0x00,0x18,0x00,0x00,0x40,0x00,0x00,0x00,0x18,0x00
,0x00,0xc0,0xff,0xff,0xff,0x0f,0x00,0x00,0x00,0x00,0x00,0x00,0x00,0x00,0x00
,0x00,0x00,0x00,0x00,0x00,0x00,0x00,0x00,0x00,0x00,0x00,0x00,0x00
};
