#define n64o_width 64
#define n64o_height 64
static unsigned char n64o_bits[] = {
0x00,0x00,0x00,0x00,0x00,0x00,0x00,0x00,0x00,0x00,0x00,0x00,0x00,0x00,0x00
,0x00,0x00,0x00,0x00,0x00,0x00,0x00,0x00,0x00,0x00,0x00,0x00,0x00,0x00,0x00
,0x00,0x00,0x00,0x00,0x00,0x00,0x00,0x00,0x00,0x00,0x00,0x00,0x0e,0x70,0x00
,0x00,0x00,0x00,0x00,0x00,0x1e,0xf0,0x00,0x00,0x00,0x00,0x00,0x00,0x7e,0xf8
,0x00,0x00,0x00,0x00,0x00,0x00,0xe6,0xdc,0x01,0x00,0x00,0x00,0x00,0x00,0xc6
,0x8d,0x01,0x00,0x00,0x00,0x00,0x00,0x8e,0x8f,0x1f,0x00,0x00,0x00,0x00,0x00
,0x8c,0x8f,0xff,0x00,0x00,0x00,0x00,0x00,0xcc,0x8d,0xe1,0x03,0x00,0x00,0x00
,0x00,0xee,0x80,0x01,0x0f,0x00,0x00,0x00,0x00,0x67,0x00,0x00,0x3e,0x00,0x00
,0x00,0x80,0x03,0x00,0x00,0x78,0x00,0x00,0x00,0x80,0x01,0x00,0x00,0xf0,0x00
,0x00,0x00,0xc0,0x61,0x00,0x00,0xe0,0x01,0x00,0x00,0xc0,0x38,0x00,0x00,0xc0
,0x03,0x00,0x00,0xc0,0x3c,0x00,0x00,0xc0,0x07,0x00,0x00,0xe0,0x3e,0x00,0x00
,0x80,0x07,0x00,0x00,0x60,0x1e,0x00,0x00,0x00,0x0f,0x00,0x00,0x60,0x02,0x00
,0x0c,0x00,0x1f,0x00,0x00,0x70,0x00,0x00,0x0c,0x00,0x1e,0x00,0x00,0x30,0x00
,0x00,0x0c,0x00,0x3e,0x00,0x00,0x30,0x00,0x00,0x0c,0x00,0x3c,0x00,0x00,0x38
,0x00,0x00,0x0c,0x00,0x3c,0x00,0x00,0x18,0x00,0x00,0x0e,0x00,0x78,0x00,0x00
,0x1c,0x00,0x00,0x06,0x00,0x78,0x00,0x00,0x0e,0x00,0x00,0x07,0x00,0x78,0x00
,0x00,0x06,0x00,0x80,0x07,0x00,0xf0,0x00,0x00,0x07,0x00,0xc0,0x07,0x00,0xf0
,0x00,0x80,0x03,0x00,0xf0,0x06,0x00,0xf0,0x00,0x80,0x03,0x00,0x3c,0x06,0x00
,0xf0,0x01,0x80,0x0d,0x00,0x0f,0x06,0x00,0xe0,0x01,0xc0,0x1f,0xc0,0x03,0x07
,0x00,0xe0,0x01,0xc0,0x1e,0xe0,0x00,0x03,0x00,0xe0,0x01,0xc0,0x0e,0x70,0x80
,0x03,0x00,0xe0,0x01,0xc0,0x8e,0x38,0x80,0x01,0x00,0xc0,0x03,0xc0,0xc0,0x1c
,0xc0,0x01,0x00,0xc0,0x03,0xc0,0xc1,0x0e,0xe0,0x00,0x00,0xc0,0x03,0x80,0xe3
,0x06,0x60,0x00,0x00,0xc0,0x03,0x00,0x7f,0x07,0x70,0x00,0x00,0xc0,0x03,0x00
,0xfc,0x03,0x38,0x00,0x00,0xc0,0x03,0x00,0xc0,0x01,0x1c,0x00,0x00,0xc0,0x03
,0x00,0x00,0x00,0x0e,0x00,0x00,0xc0,0x07,0x00,0x00,0x00,0x07,0x00,0x00,0x80
,0x07,0x00,0x00,0x80,0x03,0x00,0x00,0x80,0x07,0x00,0x00,0x80,0x01,0x00,0x00
,0x80,0x07,0x00,0x00,0xc0,0x01,0x00,0x00,0x80,0x07,0x00,0x00,0xe0,0x00,0x00
,0x00,0x80,0x07,0x00,0x00,0xe0,0x00,0x00,0x00,0x80,0x07,0x00,0x00,0x60,0x00
,0x00,0x00,0x80,0x07,0x00,0x00,0x70,0x00,0x00,0x00,0x80,0x07,0x00,0x00,0x30
,0x00,0x00,0x00,0x80,0x07,0x00,0x00,0xf0,0xff,0xff,0xff,0xff,0x07,0x00,0x00
,0xf0,0xff,0xff,0xff,0xff,0x07,0x00,0x00,0x00,0x00,0x00,0x00,0x00,0x00,0x00
,0x00,0x00,0x00,0x00,0x00,0x00,0x00,0x00,0x00,0x00,0x00,0x00,0x00,0x00,0x00
,0x00,0x00,0x00,0x00,0x00,0x00,0x00,0x00,0x00,0x00,0x00,0x00,0x00,0x00,0x00
,0x00,0x00,0x00,0x00,0x00,0x00,0x00,0x00,0x00,0x00,0x00,0x00,0x00,0x00,0x00
,0x00,0x00
};
