#define n80o_width 80
#define n80o_height 80
static unsigned char n80o_bits[] = {
0x00,0x00,0x00,0x00,0x00,0x00,0x00,0x00,0x00,0x00,0x00,0x00,0x00,0x00,0x00
,0x00,0x00,0x00,0x00,0x00,0x00,0x00,0x00,0x00,0x00,0x00,0x00,0x00,0x00,0x00
,0x00,0x00,0x00,0x00,0x00,0x00,0x00,0x00,0x00,0x00,0x00,0x00,0x00,0x00,0x00
,0x00,0x00,0x00,0x00,0x00,0x00,0x00,0x00,0x00,0x00,0x00,0x00,0x00,0x00,0x00
,0x00,0x00,0xc0,0x00,0x30,0x00,0x00,0x00,0x00,0x00,0x00,0x00,0xc0,0x01,0x78
,0x00,0x00,0x00,0x00,0x00,0x00,0x00,0xc0,0x03,0xf8,0x00,0x00,0x00,0x00,0x00
,0x00,0x00,0xc0,0x0f,0xdc,0x00,0x00,0x00,0x00,0x00,0x00,0x00,0xc0,0x1c,0xcc
,0x01,0x00,0x00,0x00,0x00,0x00,0x00,0xc0,0x38,0x8e,0x01,0x00,0x00,0x00,0x00
,0x00,0x00,0xc0,0x70,0x86,0x01,0x00,0x00,0x00,0x00,0x00,0x00,0xc0,0xe0,0x87
,0x7f,0x00,0x00,0x00,0x00,0x00,0x00,0xc0,0xe1,0x83,0xff,0x03,0x00,0x00,0x00
,0x00,0x00,0x80,0x71,0x03,0xc3,0x0f,0x00,0x00,0x00,0x00,0x00,0xc0,0x39,0x00
,0x03,0x3e,0x00,0x00,0x00,0x00,0x00,0xe0,0x1c,0x00,0x00,0xf8,0x00,0x00,0x00
,0x00,0x00,0x70,0x0c,0x00,0x00,0xf0,0x01,0x00,0x00,0x00,0x00,0x38,0x00,0x00
,0x00,0xc0,0x03,0x00,0x00,0x00,0x00,0x18,0x00,0x00,0x00,0x80,0x07,0x00,0x00
,0x00,0x00,0x1c,0x00,0x00,0x00,0x00,0x0f,0x00,0x00,0x00,0x00,0x0c,0x1c,0x00
,0x00,0x00,0x1e,0x00,0x00,0x00,0x00,0x0c,0x07,0x00,0x00,0x00,0x3e,0x00,0x00
,0x00,0x00,0x8e,0x07,0x00,0x00,0x00,0x7c,0x00,0x00,0x00,0x00,0x86,0x07,0x00
,0x00,0x00,0x78,0x00,0x00,0x00,0x00,0xc6,0x03,0x00,0x00,0x00,0xf0,0x00,0x00
,0x00,0x00,0x46,0x00,0x00,0x00,0x00,0xf0,0x00,0x00,0x00,0x00,0x47,0x00,0x00
,0x18,0x00,0xe0,0x01,0x00,0x00,0x00,0x03,0x00,0x00,0x18,0x00,0xe0,0x01,0x00
,0x00,0x00,0x03,0x00,0x00,0x18,0x00,0xc0,0x03,0x00,0x00,0x80,0x03,0x00,0x00
,0x18,0x00,0xc0,0x03,0x00,0x00,0x80,0x01,0x00,0x00,0x18,0x00,0x80,0x07,0x00
,0x00,0xc0,0x01,0x00,0x00,0x1c,0x00,0x80,0x07,0x00,0x00,0xc0,0x00,0x00,0x00
,0x0c,0x00,0x80,0x0f,0x00,0x00,0xe0,0x00,0x00,0x00,0x0c,0x00,0x00,0x0f,0x00
,0x00,0x70,0x00,0x00,0x00,0x0e,0x00,0x00,0x0f,0x00,0x00,0x30,0x00,0x00,0x00
,0x0f,0x00,0x00,0x1f,0x00,0x00,0x38,0x00,0x00,0x80,0x0f,0x00,0x00,0x1e,0x00
,0x00,0x18,0x00,0x00,0xc0,0x0d,0x00,0x00,0x1e,0x00,0x00,0x1c,0x00,0x00,0xf0
,0x0c,0x00,0x00,0x3e,0x00,0x00,0x0e,0x00,0x00,0x3c,0x0c,0x00,0x00,0x3c,0x00
,0x00,0x06,0x00,0x00,0x0f,0x0c,0x00,0x00,0x3c,0x00,0x00,0x66,0x00,0xc0,0x03
,0x0c,0x00,0x00,0x3c,0x00,0x00,0x77,0x00,0xe0,0x00,0x0e,0x00,0x00,0x7c,0x00
,0x00,0x73,0x00,0x78,0x00,0x06,0x00,0x00,0x78,0x00,0x00,0x73,0x00,0x1c,0x00
,0x07,0x00,0x00,0x78,0x00,0x00,0x33,0x00,0x0e,0x00,0x03,0x00,0x00,0x78,0x00
,0x00,0x03,0x0c,0x07,0x80,0x03,0x00,0x00,0x78,0x00,0x00,0x03,0x8c,0x03,0xc0
,0x01,0x00,0x00,0xf8,0x00,0x00,0x03,0xce,0x01,0xc0,0x00,0x00,0x00,0xf0,0x00
,0x00,0x07,0xe6,0x00,0xe0,0x00,0x00,0x00,0xf0,0x00,0x00,0x0e,0x77,0x00,0x70
,0x00,0x00,0x00,0xf0,0x00,0x00,0xfc,0x33,0x00,0x38,0x00,0x00,0x00,0xf0,0x00
,0x00,0xf0,0x3f,0x00,0x1c,0x00,0x00,0x00,0xf0,0x00,0x00,0x00,0x0e,0x00,0x0e
,0x00,0x00,0x00,0xf0,0x00,0x00,0x00,0x00,0x00,0x07,0x00,0x00,0x00,0xf0,0x00
,0x00,0x00,0x00,0x80,0x03,0x00,0x00,0x00,0xf0,0x01,0x00,0x00,0x00,0xc0,0x01
,0x00,0x00,0x00,0xf0,0x01,0x00,0x00,0x00,0xe0,0x00,0x00,0x00,0x00,0xe0,0x01
,0x00,0x00,0x00,0x60,0x00,0x00,0x00,0x00,0xe0,0x01,0x00,0x00,0x00,0x70,0x00
,0x00,0x00,0x00,0xe0,0x01,0x00,0x00,0x00,0x38,0x00,0x00,0x00,0x00,0xe0,0x01
,0x00,0x00,0x00,0x18,0x00,0x00,0x00,0x00,0xe0,0x01,0x00,0x00,0x00,0x1c,0x00
,0x00,0x00,0x00,0xe0,0x01,0x00,0x00,0x00,0x0c,0x00,0x00,0x00,0x00,0xe0,0x01
,0x00,0x00,0x00,0x0e,0x00,0x00,0x00,0x00,0xe0,0x01,0x00,0x00,0x00,0x06,0x00
,0x00,0x00,0x00,0xe0,0x01,0x00,0x00,0x00,0x06,0x00,0x00,0x00,0x00,0xe0,0x01
,0x00,0x00,0x00,0xfe,0xff,0xff,0xff,0xff,0xff,0x01,0x00,0x00,0x00,0xfe,0xff
,0xff,0xff,0xff,0xff,0x01,0x00,0x00,0x00,0x00,0x00,0x00,0x00,0x00,0x00,0x00
,0x00,0x00,0x00,0x00,0x00,0x00,0x00,0x00,0x00,0x00,0x00,0x00,0x00,0x00,0x00
,0x00,0x00,0x00,0x00,0x00,0x00,0x00,0x00,0x00,0x00,0x00,0x00,0x00,0x00,0x00
,0x00,0x00,0x00,0x00,0x00,0x00,0x00,0x00,0x00,0x00,0x00,0x00,0x00,0x00,0x00
,0x00,0x00,0x00,0x00,0x00,0x00,0x00,0x00,0x00,0x00,0x00,0x00,0x00,0x00,0x00
,0x00,0x00,0x00,0x00,0x00,0x00,0x00,0x00,0x00,0x00,0x00,0x00,0x00,0x00,0x00
,0x00,0x00,0x00,0x00,0x00
};
