#define n87o_width 87
#define n87o_height 87
static unsigned char n87o_bits[] = {
0x00,0x00,0x00,0x00,0x00,0x00,0x00,0x00,0x00,0x00,0x00,0x00,0x00,0x00,0x00
,0x00,0x00,0x00,0x00,0x00,0x00,0x00,0x00,0x00,0x00,0x00,0x00,0x00,0x00,0x00
,0x00,0x00,0x00,0x00,0x00,0x00,0x00,0x00,0x00,0x00,0x00,0x00,0x00,0x00,0x00
,0x00,0x00,0x00,0x00,0x00,0x00,0x00,0x00,0x00,0x00,0x00,0x00,0x00,0x00,0x00
,0x00,0x00,0x00,0x00,0x00,0x00,0x00,0x00,0x00,0x00,0x00,0x00,0x00,0x00,0x00
,0x00,0x00,0x00,0x00,0x80,0x00,0xc0,0x01,0x00,0x00,0x00,0x00,0x00,0x00,0x00
,0xc0,0x03,0xc0,0x01,0x00,0x00,0x00,0x00,0x00,0x00,0x00,0xc0,0x07,0xe0,0x03
,0x00,0x00,0x00,0x00,0x00,0x00,0x00,0xc0,0x0f,0xf0,0x03,0x00,0x00,0x00,0x00
,0x00,0x00,0x00,0xc0,0x3f,0x70,0x07,0x00,0x00,0x00,0x00,0x00,0x00,0x00,0xc0
,0x7d,0x38,0x07,0x00,0x00,0x00,0x00,0x00,0x00,0x00,0xc0,0xf1,0x38,0x0e,0x00
,0x00,0x00,0x00,0x00,0x00,0x00,0xc0,0xe1,0x1d,0x0e,0x00,0x00,0x00,0x00,0x00
,0x00,0x00,0x80,0xc3,0x1f,0xfe,0x03,0x00,0x00,0x00,0x00,0x00,0x00,0x80,0x83
,0x1f,0xfc,0x1f,0x00,0x00,0x00,0x00,0x00,0x00,0x80,0xc3,0x1f,0xfc,0x7f,0x00
,0x00,0x00,0x00,0x00,0x00,0x80,0xf7,0x0d,0x1c,0xfc,0x01,0x00,0x00,0x00,0x00
,0x00,0xc0,0xfb,0x00,0x0c,0xe0,0x07,0x00,0x00,0x00,0x00,0x00,0xe0,0x39,0x00
,0x00,0xc0,0x0f,0x00,0x00,0x00,0x00,0x00,0xf0,0x10,0x00,0x00,0x00,0x3f,0x00
,0x00,0x00,0x00,0x00,0x78,0x00,0x00,0x00,0x00,0x7e,0x00,0x00,0x00,0x00,0x00
,0x38,0x00,0x00,0x00,0x00,0xfc,0x00,0x00,0x00,0x00,0x00,0x1c,0x38,0x00,0x00
,0x00,0xf8,0x01,0x00,0x00,0x00,0x00,0x1c,0x3e,0x00,0x00,0x00,0xf0,0x01,0x00
,0x00,0x00,0x00,0x1c,0x1f,0x00,0x00,0x00,0xe0,0x03,0x00,0x00,0x00,0x00,0x8e
,0x1f,0x00,0x00,0x00,0xc0,0x07,0x00,0x00,0x00,0x00,0x8e,0x1f,0x00,0x00,0x00
,0xc0,0x0f,0x00,0x00,0x00,0x00,0xce,0x0f,0x00,0x00,0x00,0x80,0x0f,0x00,0x00
,0x00,0x00,0xce,0x06,0x00,0x00,0x00,0x00,0x1f,0x00,0x00,0x00,0x00,0xce,0x00
,0x00,0xe0,0x00,0x00,0x3f,0x00,0x00,0x00,0x00,0x07,0x00,0x00,0xe0,0x00,0x00
,0x3e,0x00,0x00,0x00,0x00,0x07,0x00,0x00,0xe0,0x00,0x00,0x7e,0x00,0x00,0x00
,0x00,0x07,0x00,0x00,0xe0,0x00,0x00,0x7c,0x00,0x00,0x00,0x80,0x03,0x00,0x00
,0xe0,0x00,0x00,0xfc,0x00,0x00,0x00,0x80,0x03,0x00,0x00,0xe0,0x00,0x00,0xf8
,0x00,0x00,0x00,0xc0,0x01,0x00,0x00,0x70,0x00,0x00,0xf8,0x00,0x00,0x00,0xe0
,0x01,0x00,0x00,0x70,0x00,0x00,0xf8,0x01,0x00,0x00,0xe0,0x00,0x00,0x00,0x70
,0x00,0x00,0xf0,0x01,0x00,0x00,0x70,0x00,0x00,0x00,0x38,0x00,0x00,0xf0,0x03
,0x00,0x00,0x78,0x00,0x00,0x00,0x3c,0x00,0x00,0xf0,0x03,0x00,0x00,0x38,0x00
,0x00,0x00,0x7e,0x00,0x00,0xe0,0x03,0x00,0x00,0x1c,0x00,0x00,0x80,0x7f,0x00
,0x00,0xe0,0x07,0x00,0x00,0x1c,0x00,0x00,0xe0,0x77,0x00,0x00,0xe0,0x07,0x00
,0x00,0x0e,0x00,0x00,0xf8,0x71,0x00,0x00,0xe0,0x07,0x00,0x00,0x0e,0x00,0x00
,0x7e,0x70,0x00,0x00,0xc0,0x07,0x00,0x00,0x07,0x00,0x80,0x1f,0x70,0x00,0x00
,0xc0,0x0f,0x00,0x00,0x67,0x00,0xc0,0x07,0x70,0x00,0x00,0xc0,0x0f,0x00,0x00
,0xf7,0x00,0xf0,0x01,0x38,0x00,0x00,0xc0,0x0f,0x00,0x80,0xfb,0x00,0xf8,0x00
,0x38,0x00,0x00,0x80,0x0f,0x00,0x80,0xfb,0x00,0x3c,0x00,0x1c,0x00,0x00,0x80
,0x1f,0x00,0x80,0x7b,0x00,0x1e,0x00,0x1c,0x00,0x00,0x80,0x1f,0x00,0x80,0x33
,0x18,0x0f,0x00,0x0e,0x00,0x00,0x80,0x1f,0x00,0x80,0x03,0x9c,0x07,0x00,0x0e
,0x00,0x00,0x80,0x1f,0x00,0x80,0x03,0xdc,0x03,0x00,0x07,0x00,0x00,0x00,0x1f
,0x00,0x00,0x07,0xce,0x01,0x80,0x07,0x00,0x00,0x00,0x1f,0x00,0x00,0x0f,0xef
,0x00,0xc0,0x03,0x00,0x00,0x00,0x3f,0x00,0x00,0xfe,0xf7,0x00,0xe0,0x01,0x00
,0x00,0x00,0x3f,0x00,0x00,0xfc,0x7f,0x00,0xf0,0x00,0x00,0x00,0x00,0x3f,0x00
,0x00,0xf0,0x3e,0x00,0x78,0x00,0x00,0x00,0x00,0x3f,0x00,0x00,0x00,0x1c,0x00
,0x3c,0x00,0x00,0x00,0x00,0x3f,0x00,0x00,0x00,0x00,0x00,0x1e,0x00,0x00,0x00
,0x00,0x3f,0x00,0x00,0x00,0x00,0x00,0x0e,0x00,0x00,0x00,0x00,0x3f,0x00,0x00
,0x00,0x00,0x00,0x07,0x00,0x00,0x00,0x00,0x3e,0x00,0x00,0x00,0x00,0x80,0x07
,0x00,0x00,0x00,0x00,0x3e,0x00,0x00,0x00,0x00,0xc0,0x03,0x00,0x00,0x00,0x00
,0x7e,0x00,0x00,0x00,0x00,0xe0,0x01,0x00,0x00,0x00,0x00,0x7e,0x00,0x00,0x00
,0x00,0xe0,0x00,0x00,0x00,0x00,0x00,0x7e,0x00,0x00,0x00,0x00,0x70,0x00,0x00
,0x00,0x00,0x00,0x7e,0x00,0x00,0x00,0x00,0x70,0x00,0x00,0x00,0x00,0x00,0x7e
,0x00,0x00,0x00,0x00,0x38,0x00,0x00,0x00,0x00,0x00,0x7e,0x00,0x00,0x00,0x00
,0x38,0x00,0x00,0x00,0x00,0x00,0x7e,0x00,0x00,0x00,0x00,0x38,0x00,0x00,0x00
,0x00,0x00,0x7e,0x00,0x00,0x00,0x00,0x1c,0x00,0x00,0x00,0x00,0x00,0x7e,0x00
,0x00,0x00,0x00,0x1c,0x00,0x00,0x00,0x00,0x00,0x7e,0x00,0x00,0x00,0x00,0xfc
,0xff,0xff,0xff,0xff,0xff,0x7f,0x00,0x00,0x00,0x00,0xfc,0xff,0xff,0xff,0xff
,0xff,0x7f,0x00,0x00,0x00,0x00,0xfc,0xff,0xff,0xff,0xff,0xff,0x3f,0x00,0x00
,0x00,0x00,0x00,0x00,0x00,0x00,0x00,0x00,0x00,0x00,0x00,0x00,0x00,0x00,0x00
,0x00,0x00,0x00,0x00,0x00,0x00,0x00,0x00,0x00,0x00,0x00,0x00,0x00,0x00,0x00
,0x00,0x00,0x00,0x00,0x00,0x00,0x00,0x00,0x00,0x00,0x00,0x00,0x00,0x00,0x00
,0x00,0x00,0x00,0x00,0x00,0x00,0x00,0x00,0x00,0x00,0x00,0x00,0x00,0x00,0x00
,0x00,0x00,0x00,0x00,0x00,0x00,0x00,0x00,0x00,0x00,0x00,0x00,0x00,0x00,0x00
,0x00,0x00,0x00,0x00,0x00,0x00,0x00,0x00,0x00,0x00,0x00,0x00
};
