#define o49o_width 49
#define o49o_height 49
static unsigned char o49o_bits[] = {
0x00,0x00,0x00,0x00,0x00,0x00,0x00,0x00,0x00,0x00,0x00,0x00,0x00,0x00,0x00
,0x00,0x00,0x00,0x00,0x00,0x00,0x00,0x00,0x00,0x00,0x00,0x00,0x00,0x00,0x00
,0x00,0x00,0x00,0x00,0x00,0x00,0x00,0x00,0x00,0x00,0x00,0x00,0x00,0x00,0x00
,0x00,0x00,0x00,0x00,0x00,0x00,0x00,0x00,0x00,0x00,0x00,0x00,0x00,0x00,0x00
,0x00,0x00,0x00,0x40,0x00,0x00,0x00,0x00,0x00,0x00,0xc0,0x01,0x00,0x00,0x00
,0x00,0x00,0x20,0x0e,0x00,0x00,0x00,0x00,0x00,0x20,0xf0,0x00,0x00,0x00,0x00
,0x00,0x20,0x00,0x07,0x00,0x00,0x00,0x00,0x10,0x00,0x38,0x00,0x00,0x00,0x00
,0x10,0x00,0xc0,0x03,0x00,0x00,0x00,0x70,0x00,0x00,0x1c,0x00,0x00,0x00,0x80
,0x01,0x00,0xe0,0x00,0x00,0x00,0x00,0x06,0x00,0x00,0x07,0x00,0x00,0x00,0x18
,0x00,0x00,0x78,0x00,0x00,0x00,0x60,0x00,0x00,0x80,0x03,0x00,0x00,0x80,0x01
,0x00,0x00,0x0c,0x00,0x00,0x00,0xfe,0xff,0x03,0x10,0x00,0x00,0x00,0x02,0x00
,0x02,0x10,0x00,0x00,0x00,0x02,0x00,0x02,0x18,0x00,0xc0,0xff,0x03,0x00,0xfe
,0x0f,0x00,0x40,0x00,0x00,0x00,0x00,0x1c,0x00,0x40,0x00,0x00,0x00,0x00,0x14
,0x00,0x40,0x00,0x00,0x00,0x00,0x1c,0x00,0x40,0x00,0x00,0x00,0x00,0x04,0x00
,0x40,0x00,0x00,0x00,0x00,0x04,0x00,0x40,0x00,0x00,0x00,0x00,0x04,0x00,0x40
,0x00,0x00,0x00,0x00,0x04,0x00,0x40,0x00,0x00,0x00,0x00,0x04,0x00,0x40,0x00
,0x00,0x00,0x00,0x04,0x00,0x40,0x00,0x00,0x00,0x00,0x04,0x00,0x40,0x00,0x00
,0x00,0x00,0x04,0x00,0x40,0x00,0x00,0x00,0x00,0x04,0x00,0x40,0x30,0x00,0x00
,0x18,0x04,0x00,0x40,0xcc,0x00,0x00,0x66,0x04,0x00,0x40,0x84,0x00,0x00,0x42
,0x04,0x00,0xc0,0x03,0xff,0xff,0x83,0x07,0x00,0x00,0x02,0x01,0x00,0x81,0x00
,0x00,0x00,0x84,0x00,0x00,0x42,0x00,0x00,0x00,0xcc,0x00,0x00,0x66,0x00,0x00
,0x00,0x30,0x00,0x00,0x18,0x00,0x00,0x00,0x00,0x00,0x00,0x00,0x00,0x00,0x00
,0x00,0x00,0x00,0x00,0x00,0x00,0x00,0x00,0x00,0x00,0x00,0x00,0x00
};
