#define o72o_width 72
#define o72o_height 72
static unsigned char o72o_bits[] = {
0x00,0x00,0x00,0x00,0x00,0x00,0x00,0x00,0x00,0x00,0x00,0x00,0x00,0x00,0x00
,0x00,0x00,0x00,0x00,0x00,0x00,0x00,0x00,0x00,0x00,0x00,0x00,0x00,0x00,0x00
,0x00,0x00,0x00,0x00,0x00,0x00,0x00,0x00,0x00,0x00,0x00,0x00,0x00,0x00,0x00
,0x00,0x00,0x00,0x00,0x00,0x00,0x00,0x00,0x00,0x00,0x00,0x00,0x00,0x00,0x00
,0x00,0x00,0x00,0x00,0x00,0x00,0x00,0x00,0x00,0x00,0x00,0x00,0x00,0x00,0x00
,0x00,0x00,0x00,0x00,0x00,0x00,0x00,0x00,0x00,0x00,0x00,0x00,0x00,0x00,0x00
,0x00,0x00,0x00,0x00,0x00,0x00,0x00,0x00,0x00,0x00,0x00,0x00,0x00,0x00,0x00
,0x00,0x00,0x00,0x00,0x00,0x00,0x00,0x00,0x00,0x00,0x00,0x00,0x00,0x00,0x00
,0x00,0x00,0x00,0x00,0x00,0x00,0x00,0x03,0x00,0x00,0x00,0x00,0x00,0x00,0x00
,0x00,0x03,0x00,0x00,0x00,0x00,0x00,0x00,0x00,0x80,0x1f,0x00,0x00,0x00,0x00
,0x00,0x00,0x00,0x80,0xff,0x00,0x00,0x00,0x00,0x00,0x00,0x00,0xc0,0xf1,0x0f
,0x00,0x00,0x00,0x00,0x00,0x00,0xc0,0x01,0x7f,0x00,0x00,0x00,0x00,0x00,0x00
,0xc0,0x00,0xf8,0x03,0x00,0x00,0x00,0x00,0x00,0xe0,0x00,0xc0,0x1f,0x00,0x00
,0x00,0x00,0x00,0xe0,0x00,0x00,0xfe,0x00,0x00,0x00,0x00,0x00,0xf0,0x01,0x00
,0xf0,0x07,0x00,0x00,0x00,0x00,0xf0,0x07,0x00,0x00,0x7f,0x00,0x00,0x00,0x00
,0x30,0x1f,0x00,0x00,0xf8,0x03,0x00,0x00,0x00,0x00,0xfc,0x00,0x00,0xc0,0x1f
,0x00,0x00,0x00,0x00,0xf0,0x03,0x00,0x00,0xfe,0x00,0x00,0x00,0x00,0x80,0x0f
,0x00,0x00,0xe0,0x07,0x00,0x00,0x00,0x00,0x7e,0x00,0x00,0x00,0x7f,0x00,0x00
,0x00,0x00,0xf8,0x01,0x00,0x00,0xf8,0x03,0x00,0x00,0x00,0xe0,0x07,0x00,0x00
,0xc0,0x1f,0x00,0x00,0x00,0xe0,0xff,0xff,0xff,0x03,0xfe,0x01,0x00,0x00,0xe0
,0xff,0xff,0xff,0x03,0xe0,0x07,0x00,0x00,0x60,0x00,0x00,0x00,0x03,0x00,0x07
,0x00,0x00,0x60,0x00,0x00,0x00,0x03,0x00,0x06,0x00,0xff,0x7f,0x00,0x00,0x00
,0xff,0x7f,0x06,0x00,0xff,0x7f,0x00,0x00,0x00,0xff,0x7f,0x03,0x00,0x03,0x00
,0x00,0x00,0x00,0x00,0x60,0x03,0x00,0x03,0x00,0x00,0x00,0x00,0x00,0x60,0x07
,0x00,0x03,0x00,0x00,0x00,0x00,0x00,0xe0,0x0f,0x00,0x03,0x00,0x00,0x00,0x00
,0x00,0xe0,0x0c,0x00,0x03,0x00,0x00,0x00,0x00,0x00,0xe0,0x0c,0x00,0x03,0x00
,0x00,0x00,0x00,0x00,0xe0,0x07,0x00,0x03,0x00,0x00,0x00,0x00,0x00,0xe0,0x03
,0x00,0x03,0x00,0x00,0x00,0x00,0x00,0x60,0x00,0x00,0x03,0x00,0x00,0x00,0x00
,0x00,0x60,0x00,0x00,0x03,0x00,0x00,0x00,0x00,0x00,0x60,0x00,0x00,0x03,0x00
,0x00,0x00,0x00,0x00,0x60,0x00,0x00,0x03,0x00,0x00,0x00,0x00,0x00,0x60,0x00
,0x00,0x03,0x00,0x00,0x00,0x00,0x00,0x60,0x00,0x00,0x03,0x00,0x00,0x00,0x00
,0x00,0x60,0x00,0x00,0x03,0x00,0x00,0x00,0x00,0x00,0x60,0x00,0x00,0x03,0x00
,0x00,0x00,0x00,0x00,0x60,0x00,0x00,0x03,0x00,0x00,0x00,0x00,0x00,0x60,0x00
,0x00,0x03,0xfc,0x00,0x00,0xc0,0x0f,0x60,0x00,0x00,0x03,0xfe,0x01,0x00,0xe0
,0x1f,0x60,0x00,0x00,0x03,0x87,0x03,0x00,0x70,0x38,0x60,0x00,0x00,0x83,0x03
,0x07,0x00,0x38,0x70,0x60,0x00,0x00,0xff,0x01,0xfe,0xff,0x1f,0xe0,0x7f,0x00
,0x00,0xff,0x01,0xfe,0xff,0x1f,0xe0,0x7f,0x00,0x00,0x80,0x01,0x06,0x00,0x18
,0x60,0x00,0x00,0x00,0x80,0x01,0x06,0x00,0x18,0x60,0x00,0x00,0x00,0x00,0x03
,0x07,0x00,0x30,0x70,0x00,0x00,0x00,0x00,0x87,0x03,0x00,0x70,0x38,0x00,0x00
,0x00,0x00,0xfe,0x01,0x00,0xe0,0x1f,0x00,0x00,0x00,0x00,0xfc,0x00,0x00,0xc0
,0x0f,0x00,0x00,0x00,0x00,0x00,0x00,0x00,0x00,0x00,0x00,0x00,0x00,0x00,0x00
,0x00,0x00,0x00,0x00,0x00,0x00,0x00,0x00,0x00,0x00,0x00,0x00,0x00,0x00,0x00
,0x00,0x00,0x00,0x00,0x00,0x00,0x00,0x00,0x00,0x00,0x00,0x00,0x00,0x00,0x00
,0x00,0x00,0x00
};
