#define p29o_width 29
#define p29o_height 29
static unsigned char p29o_bits[] = {
0x00,0x00,0x00,0x00,0x00,0x00,0x00,0x00,0x00,0x00,0x00,0x00,0x00,0xe0,0x00
,0x00,0x00,0x10,0x01,0x00,0x00,0x08,0x02,0x00,0x00,0x08,0x02,0x00,0x00,0x08
,0x02,0x00,0x00,0xb8,0x03,0x00,0x00,0x04,0x04,0x00,0x00,0x02,0x08,0x00,0x00
,0x02,0x08,0x00,0x00,0x02,0x08,0x00,0x00,0x02,0x08,0x00,0x00,0x04,0x04,0x00
,0x00,0x0c,0x06,0x00,0x00,0x02,0x08,0x00,0x00,0x01,0x10,0x00,0x80,0x00,0x20
,0x00,0x80,0x00,0x20,0x00,0x80,0x00,0x20,0x00,0x40,0x00,0x40,0x00,0x40,0x00
,0x40,0x00,0x40,0x00,0x40,0x00,0x40,0x00,0x40,0x00,0xc0,0xff,0x7f,0x00,0x00
,0x00,0x00,0x00,0x00,0x00,0x00,0x00,0x00,0x00,0x00,0x00
};
