#define p33o_width 33
#define p33o_height 33
static unsigned char p33o_bits[] = {
0x00,0x00,0x00,0x00,0x00,0x00,0x00,0x00,0x00,0x00,0x00,0x00,0x00,0x00,0x00
,0x00,0x00,0x00,0x00,0x00,0x00,0x80,0x03,0x00,0x00,0x00,0x40,0x04,0x00,0x00
,0x00,0x20,0x08,0x00,0x00,0x00,0x20,0x08,0x00,0x00,0x00,0x20,0x08,0x00,0x00
,0x00,0x40,0x04,0x00,0x00,0x00,0x20,0x08,0x00,0x00,0x00,0x10,0x10,0x00,0x00
,0x00,0x08,0x20,0x00,0x00,0x00,0x08,0x20,0x00,0x00,0x00,0x08,0x20,0x00,0x00
,0x00,0x08,0x20,0x00,0x00,0x00,0x08,0x20,0x00,0x00,0x00,0x10,0x10,0x00,0x00
,0x00,0x30,0x18,0x00,0x00,0x00,0x08,0x20,0x00,0x00,0x00,0x04,0x40,0x00,0x00
,0x00,0x02,0x80,0x00,0x00,0x00,0x02,0x80,0x00,0x00,0x00,0x01,0x00,0x01,0x00
,0x00,0x01,0x00,0x01,0x00,0x80,0x00,0x00,0x02,0x00,0x80,0x00,0x00,0x02,0x00
,0x80,0x00,0x00,0x02,0x00,0x80,0x00,0x00,0x02,0x00,0x80,0xff,0xff,0x03,0x00
,0x00,0x00,0x00,0x00,0x00,0x00,0x00,0x00,0x00,0x00,0x00,0x00,0x00,0x00,0x00

};
