#define p45o_width 45
#define p45o_height 45
static unsigned char p45o_bits[] = {
0x00,0x00,0x00,0x00,0x00,0x00,0x00,0x00,0x00,0x00,0x00,0x00,0x00,0x00,0x00
,0x00,0x00,0x00,0x00,0x00,0x00,0x00,0x00,0x00,0x00,0x00,0xf0,0x01,0x00,0x00
,0x00,0x00,0x08,0x02,0x00,0x00,0x00,0x00,0x04,0x04,0x00,0x00,0x00,0x00,0x04
,0x04,0x00,0x00,0x00,0x00,0x04,0x04,0x00,0x00,0x00,0x00,0x04,0x04,0x00,0x00
,0x00,0x00,0x04,0x04,0x00,0x00,0x00,0x00,0x08,0x02,0x00,0x00,0x00,0x00,0x1c
,0x07,0x00,0x00,0x00,0x00,0x03,0x18,0x00,0x00,0x00,0x80,0x00,0x20,0x00,0x00
,0x00,0x80,0x00,0x20,0x00,0x00,0x00,0x40,0x00,0x40,0x00,0x00,0x00,0x40,0x00
,0x40,0x00,0x00,0x00,0x40,0x00,0x40,0x00,0x00,0x00,0x40,0x00,0x40,0x00,0x00
,0x00,0x40,0x00,0x40,0x00,0x00,0x00,0x40,0x00,0x40,0x00,0x00,0x00,0x80,0x00
,0x20,0x00,0x00,0x00,0x00,0x03,0x18,0x00,0x00,0x00,0x00,0x0c,0x06,0x00,0x00
,0x00,0x00,0x03,0x18,0x00,0x00,0x00,0x80,0x00,0x20,0x00,0x00,0x00,0x40,0x00
,0x40,0x00,0x00,0x00,0x20,0x00,0x80,0x00,0x00,0x00,0x10,0x00,0x00,0x01,0x00
,0x00,0x10,0x00,0x00,0x01,0x00,0x00,0x08,0x00,0x00,0x02,0x00,0x00,0x08,0x00
,0x00,0x02,0x00,0x00,0x04,0x00,0x00,0x04,0x00,0x00,0x04,0x00,0x00,0x04,0x00
,0x00,0x04,0x00,0x00,0x04,0x00,0x00,0x02,0x00,0x00,0x08,0x00,0x00,0x02,0x00
,0x00,0x08,0x00,0x00,0x02,0x00,0x00,0x08,0x00,0x00,0x02,0x00,0x00,0x08,0x00
,0x00,0xfe,0xff,0xff,0x0f,0x00,0x00,0x00,0x00,0x00,0x00,0x00,0x00,0x00,0x00
,0x00,0x00,0x00,0x00,0x00,0x00,0x00,0x00,0x00,0x00,0x00,0x00,0x00,0x00,0x00

};
