#define p64o_width 64
#define p64o_height 64
static unsigned char p64o_bits[] = {
0x00,0x00,0x00,0x00,0x00,0x00,0x00,0x00,0x00,0x00,0x00,0x00,0x00,0x00,0x00
,0x00,0x00,0x00,0x00,0x00,0x00,0x00,0x00,0x00,0x00,0x00,0x00,0x00,0x00,0x00
,0x00,0x00,0x00,0x00,0x00,0x00,0x00,0x00,0x00,0x00,0x00,0x00,0x00,0x00,0x00
,0x00,0x00,0x00,0x00,0x00,0x00,0x00,0x00,0x00,0x00,0x00,0x00,0x00,0x00,0xe0
,0x07,0x00,0x00,0x00,0x00,0x00,0x00,0xf8,0x1f,0x00,0x00,0x00,0x00,0x00,0x00
,0x1c,0x38,0x00,0x00,0x00,0x00,0x00,0x00,0x0e,0x70,0x00,0x00,0x00,0x00,0x00
,0x00,0x06,0x60,0x00,0x00,0x00,0x00,0x00,0x00,0x06,0x60,0x00,0x00,0x00,0x00
,0x00,0x00,0x06,0x60,0x00,0x00,0x00,0x00,0x00,0x00,0x06,0x60,0x00,0x00,0x00
,0x00,0x00,0x00,0x06,0x60,0x00,0x00,0x00,0x00,0x00,0x00,0x0e,0x70,0x00,0x00
,0x00,0x00,0x00,0x00,0x3c,0x38,0x00,0x00,0x00,0x00,0x00,0x00,0x3f,0x3c,0x00
,0x00,0x00,0x00,0x00,0x80,0x07,0xf0,0x00,0x00,0x00,0x00,0x00,0xc0,0x01,0xc0
,0x01,0x00,0x00,0x00,0x00,0xc0,0x00,0x80,0x03,0x00,0x00,0x00,0x00,0xe0,0x00
,0x00,0x03,0x00,0x00,0x00,0x00,0x60,0x00,0x00,0x07,0x00,0x00,0x00,0x00,0x60
,0x00,0x00,0x06,0x00,0x00,0x00,0x00,0x60,0x00,0x00,0x06,0x00,0x00,0x00,0x00
,0x60,0x00,0x00,0x06,0x00,0x00,0x00,0x00,0x60,0x00,0x00,0x06,0x00,0x00,0x00
,0x00,0x60,0x00,0x00,0x06,0x00,0x00,0x00,0x00,0x60,0x00,0x00,0x06,0x00,0x00
,0x00,0x00,0xe0,0x00,0x00,0x07,0x00,0x00,0x00,0x00,0xc0,0x00,0x00,0x03,0x00
,0x00,0x00,0x00,0xc0,0x01,0x80,0x03,0x00,0x00,0x00,0x00,0x80,0x03,0xc0,0x01
,0x00,0x00,0x00,0x00,0x00,0x0f,0xf0,0x00,0x00,0x00,0x00,0x00,0x00,0x0f,0xf0
,0x00,0x00,0x00,0x00,0x00,0xc0,0x03,0xc0,0x03,0x00,0x00,0x00,0x00,0xf0,0x00
,0x00,0x0f,0x00,0x00,0x00,0x00,0x38,0x00,0x00,0x1c,0x00,0x00,0x00,0x00,0x1c
,0x00,0x00,0x38,0x00,0x00,0x00,0x00,0x0e,0x00,0x00,0x70,0x00,0x00,0x00,0x00
,0x07,0x00,0x00,0xe0,0x00,0x00,0x00,0x00,0x03,0x00,0x00,0xc0,0x00,0x00,0x00
,0x80,0x03,0x00,0x00,0xc0,0x01,0x00,0x00,0x80,0x01,0x00,0x00,0x80,0x01,0x00
,0x00,0xc0,0x01,0x00,0x00,0x80,0x03,0x00,0x00,0xc0,0x00,0x00,0x00,0x00,0x03
,0x00,0x00,0xc0,0x00,0x00,0x00,0x00,0x03,0x00,0x00,0xc0,0x00,0x00,0x00,0x00
,0x03,0x00,0x00,0xe0,0x00,0x00,0x00,0x00,0x07,0x00,0x00,0x60,0x00,0x00,0x00
,0x00,0x06,0x00,0x00,0x60,0x00,0x00,0x00,0x00,0x06,0x00,0x00,0x60,0x00,0x00
,0x00,0x00,0x06,0x00,0x00,0x60,0x00,0x00,0x00,0x00,0x06,0x00,0x00,0xe0,0xff
,0xff,0xff,0xff,0x07,0x00,0x00,0xe0,0xff,0xff,0xff,0xff,0x07,0x00,0x00,0x00
,0x00,0x00,0x00,0x00,0x00,0x00,0x00,0x00,0x00,0x00,0x00,0x00,0x00,0x00,0x00
,0x00,0x00,0x00,0x00,0x00,0x00,0x00,0x00,0x00,0x00,0x00,0x00,0x00,0x00,0x00
,0x00,0x00,0x00,0x00,0x00,0x00,0x00,0x00,0x00,0x00,0x00,0x00,0x00,0x00,0x00
,0x00,0x00,0x00,0x00,0x00,0x00,0x00,0x00,0x00,0x00,0x00,0x00,0x00,0x00,0x00
,0x00,0x00
};
