#define p72o_width 72
#define p72o_height 72
static unsigned char p72o_bits[] = {
0x00,0x00,0x00,0x00,0x00,0x00,0x00,0x00,0x00,0x00,0x00,0x00,0x00,0x00,0x00
,0x00,0x00,0x00,0x00,0x00,0x00,0x00,0x00,0x00,0x00,0x00,0x00,0x00,0x00,0x00
,0x00,0x00,0x00,0x00,0x00,0x00,0x00,0x00,0x00,0x00,0x00,0x00,0x00,0x00,0x00
,0x00,0x00,0x00,0x00,0x00,0x00,0x00,0x00,0x00,0x00,0x00,0x00,0x00,0x00,0x00
,0x00,0x00,0x00,0x00,0x00,0x00,0x00,0x00,0x00,0x00,0x00,0x00,0x00,0x00,0x00
,0x00,0x7e,0x00,0x00,0x00,0x00,0x00,0x00,0x00,0x80,0xff,0x01,0x00,0x00,0x00
,0x00,0x00,0x00,0xc0,0x81,0x03,0x00,0x00,0x00,0x00,0x00,0x00,0xe0,0x00,0x07
,0x00,0x00,0x00,0x00,0x00,0x00,0x60,0x00,0x06,0x00,0x00,0x00,0x00,0x00,0x00
,0x70,0x00,0x0e,0x00,0x00,0x00,0x00,0x00,0x00,0x30,0x00,0x0c,0x00,0x00,0x00
,0x00,0x00,0x00,0x30,0x00,0x0c,0x00,0x00,0x00,0x00,0x00,0x00,0x30,0x00,0x0c
,0x00,0x00,0x00,0x00,0x00,0x00,0x70,0x00,0x0e,0x00,0x00,0x00,0x00,0x00,0x00
,0x60,0x00,0x06,0x00,0x00,0x00,0x00,0x00,0x00,0xe0,0x00,0x07,0x00,0x00,0x00
,0x00,0x00,0x00,0xc0,0xc3,0x03,0x00,0x00,0x00,0x00,0x00,0x00,0xf0,0xc3,0x0f
,0x00,0x00,0x00,0x00,0x00,0x00,0x3c,0x00,0x3c,0x00,0x00,0x00,0x00,0x00,0x00
,0x0e,0x00,0x70,0x00,0x00,0x00,0x00,0x00,0x00,0x07,0x00,0xe0,0x00,0x00,0x00
,0x00,0x00,0x00,0x03,0x00,0xc0,0x00,0x00,0x00,0x00,0x00,0x80,0x03,0x00,0xc0
,0x01,0x00,0x00,0x00,0x00,0x80,0x01,0x00,0x80,0x01,0x00,0x00,0x00,0x00,0x80
,0x01,0x00,0x80,0x01,0x00,0x00,0x00,0x00,0x80,0x01,0x00,0x80,0x01,0x00,0x00
,0x00,0x00,0x80,0x01,0x00,0x80,0x01,0x00,0x00,0x00,0x00,0x80,0x01,0x00,0x80
,0x01,0x00,0x00,0x00,0x00,0x80,0x01,0x00,0x80,0x01,0x00,0x00,0x00,0x00,0x80
,0x01,0x00,0x80,0x01,0x00,0x00,0x00,0x00,0x80,0x03,0x00,0xc0,0x01,0x00,0x00
,0x00,0x00,0x00,0x03,0x00,0xc0,0x00,0x00,0x00,0x00,0x00,0x00,0x07,0x00,0xe0
,0x00,0x00,0x00,0x00,0x00,0x00,0x0e,0x00,0x70,0x00,0x00,0x00,0x00,0x00,0x00
,0x1c,0x00,0x38,0x00,0x00,0x00,0x00,0x00,0x00,0x78,0x00,0x1e,0x00,0x00,0x00
,0x00,0x00,0x00,0x78,0x00,0x1e,0x00,0x00,0x00,0x00,0x00,0x00,0x1e,0x00,0x78
,0x00,0x00,0x00,0x00,0x00,0x80,0x07,0x00,0xe0,0x01,0x00,0x00,0x00,0x00,0xc0
,0x01,0x00,0x80,0x03,0x00,0x00,0x00,0x00,0xe0,0x00,0x00,0x00,0x07,0x00,0x00
,0x00,0x00,0x70,0x00,0x00,0x00,0x0e,0x00,0x00,0x00,0x00,0x38,0x00,0x00,0x00
,0x1c,0x00,0x00,0x00,0x00,0x18,0x00,0x00,0x00,0x18,0x00,0x00,0x00,0x00,0x1c
,0x00,0x00,0x00,0x38,0x00,0x00,0x00,0x00,0x0e,0x00,0x00,0x00,0x70,0x00,0x00
,0x00,0x00,0x06,0x00,0x00,0x00,0x60,0x00,0x00,0x00,0x00,0x07,0x00,0x00,0x00
,0xe0,0x00,0x00,0x00,0x00,0x03,0x00,0x00,0x00,0xc0,0x00,0x00,0x00,0x00,0x03
,0x00,0x00,0x00,0xc0,0x00,0x00,0x00,0x80,0x03,0x00,0x00,0x00,0xc0,0x01,0x00
,0x00,0x80,0x01,0x00,0x00,0x00,0x80,0x01,0x00,0x00,0x80,0x01,0x00,0x00,0x00
,0x80,0x01,0x00,0x00,0x80,0x01,0x00,0x00,0x00,0x80,0x01,0x00,0x00,0xc0,0x01
,0x00,0x00,0x00,0x80,0x03,0x00,0x00,0xc0,0x00,0x00,0x00,0x00,0x00,0x03,0x00
,0x00,0xc0,0x00,0x00,0x00,0x00,0x00,0x03,0x00,0x00,0xc0,0x00,0x00,0x00,0x00
,0x00,0x03,0x00,0x00,0xc0,0x00,0x00,0x00,0x00,0x00,0x03,0x00,0x00,0xc0,0x00
,0x00,0x00,0x00,0x00,0x03,0x00,0x00,0xc0,0xff,0xff,0xff,0xff,0xff,0x03,0x00
,0x00,0xc0,0xff,0xff,0xff,0xff,0xff,0x03,0x00,0x00,0x00,0x00,0x00,0x00,0x00
,0x00,0x00,0x00,0x00,0x00,0x00,0x00,0x00,0x00,0x00,0x00,0x00,0x00,0x00,0x00
,0x00,0x00,0x00,0x00,0x00,0x00,0x00,0x00,0x00,0x00,0x00,0x00,0x00,0x00,0x00
,0x00,0x00,0x00,0x00,0x00,0x00,0x00,0x00,0x00,0x00,0x00,0x00,0x00,0x00,0x00
,0x00,0x00,0x00
};
