#define p95o_width 95
#define p95o_height 95
static unsigned char p95o_bits[] = {
0x00,0x00,0x00,0x00,0x00,0x00,0x00,0x00,0x00,0x00,0x00,0x00,0x00,0x00,0x00
,0x00,0x00,0x00,0x00,0x00,0x00,0x00,0x00,0x00,0x00,0x00,0x00,0x00,0x00,0x00
,0x00,0x00,0x00,0x00,0x00,0x00,0x00,0x00,0x00,0x00,0x00,0x00,0x00,0x00,0x00
,0x00,0x00,0x00,0x00,0x00,0x00,0x00,0x00,0x00,0x00,0x00,0x00,0x00,0x00,0x00
,0x00,0x00,0x00,0x00,0x00,0x00,0x00,0x00,0x00,0x00,0x00,0x00,0x00,0x00,0x00
,0x00,0x00,0x00,0x00,0x00,0x00,0x00,0x00,0x00,0x00,0x00,0x00,0x00,0x00,0x00
,0x00,0x00,0x00,0x00,0x00,0x00,0x00,0x00,0x00,0x00,0x00,0x00,0x00,0x00,0x00
,0x00,0x00,0x00,0x00,0x00,0x00,0x00,0x00,0x00,0x00,0x00,0x00,0x00,0x00,0x00
,0x00,0x00,0x00,0x00,0x00,0x00,0x00,0x00,0x00,0x00,0x00,0x00,0x00,0x00,0x00
,0x00,0x00,0x00,0x00,0x00,0x00,0x00,0x00,0x00,0x00,0x00,0x00,0x00,0x00,0x00
,0x00,0x00,0x00,0x00,0x00,0x00,0x00,0x00,0x00,0x00,0x00,0xf0,0x07,0x00,0x00
,0x00,0x00,0x00,0x00,0x00,0x00,0x00,0x00,0xfc,0x1f,0x00,0x00,0x00,0x00,0x00
,0x00,0x00,0x00,0x00,0x00,0xff,0x7f,0x00,0x00,0x00,0x00,0x00,0x00,0x00,0x00
,0x00,0x80,0x0f,0xf8,0x00,0x00,0x00,0x00,0x00,0x00,0x00,0x00,0x00,0xc0,0x03
,0xe0,0x01,0x00,0x00,0x00,0x00,0x00,0x00,0x00,0x00,0xc0,0x01,0xc0,0x01,0x00
,0x00,0x00,0x00,0x00,0x00,0x00,0x00,0xe0,0x00,0x80,0x03,0x00,0x00,0x00,0x00
,0x00,0x00,0x00,0x00,0xe0,0x00,0x80,0x03,0x00,0x00,0x00,0x00,0x00,0x00,0x00
,0x00,0xe0,0x00,0x80,0x03,0x00,0x00,0x00,0x00,0x00,0x00,0x00,0x00,0xe0,0x00
,0x80,0x03,0x00,0x00,0x00,0x00,0x00,0x00,0x00,0x00,0xe0,0x00,0x80,0x03,0x00
,0x00,0x00,0x00,0x00,0x00,0x00,0x00,0xe0,0x00,0x80,0x03,0x00,0x00,0x00,0x00
,0x00,0x00,0x00,0x00,0xe0,0x00,0x80,0x03,0x00,0x00,0x00,0x00,0x00,0x00,0x00
,0x00,0xc0,0x01,0xc0,0x01,0x00,0x00,0x00,0x00,0x00,0x00,0x00,0x00,0xc0,0x03
,0xe0,0x01,0x00,0x00,0x00,0x00,0x00,0x00,0x00,0x00,0x80,0x1f,0xf8,0x00,0x00
,0x00,0x00,0x00,0x00,0x00,0x00,0x00,0x80,0x1f,0xfc,0x00,0x00,0x00,0x00,0x00
,0x00,0x00,0x00,0x00,0xe0,0x1f,0xf8,0x03,0x00,0x00,0x00,0x00,0x00,0x00,0x00
,0x00,0xf8,0x01,0xc0,0x0f,0x00,0x00,0x00,0x00,0x00,0x00,0x00,0x00,0x7c,0x00
,0x00,0x1f,0x00,0x00,0x00,0x00,0x00,0x00,0x00,0x00,0x1e,0x00,0x00,0x3c,0x00
,0x00,0x00,0x00,0x00,0x00,0x00,0x00,0x0f,0x00,0x00,0x78,0x00,0x00,0x00,0x00
,0x00,0x00,0x00,0x00,0x07,0x00,0x00,0x70,0x00,0x00,0x00,0x00,0x00,0x00,0x00
,0x80,0x03,0x00,0x00,0xe0,0x00,0x00,0x00,0x00,0x00,0x00,0x00,0x80,0x03,0x00
,0x00,0xe0,0x00,0x00,0x00,0x00,0x00,0x00,0x00,0x80,0x03,0x00,0x00,0xe0,0x00
,0x00,0x00,0x00,0x00,0x00,0x00,0xc0,0x01,0x00,0x00,0xc0,0x01,0x00,0x00,0x00
,0x00,0x00,0x00,0xc0,0x01,0x00,0x00,0xc0,0x01,0x00,0x00,0x00,0x00,0x00,0x00
,0xc0,0x01,0x00,0x00,0xc0,0x01,0x00,0x00,0x00,0x00,0x00,0x00,0xc0,0x01,0x00
,0x00,0xc0,0x01,0x00,0x00,0x00,0x00,0x00,0x00,0xc0,0x01,0x00,0x00,0xc0,0x01
,0x00,0x00,0x00,0x00,0x00,0x00,0xc0,0x01,0x00,0x00,0xc0,0x01,0x00,0x00,0x00
,0x00,0x00,0x00,0xc0,0x01,0x00,0x00,0xc0,0x01,0x00,0x00,0x00,0x00,0x00,0x00
,0x80,0x03,0x00,0x00,0xe0,0x00,0x00,0x00,0x00,0x00,0x00,0x00,0x80,0x03,0x00
,0x00,0xe0,0x00,0x00,0x00,0x00,0x00,0x00,0x00,0x80,0x03,0x00,0x00,0xe0,0x00
,0x00,0x00,0x00,0x00,0x00,0x00,0x00,0x07,0x00,0x00,0x70,0x00,0x00,0x00,0x00
,0x00,0x00,0x00,0x00,0x0f,0x00,0x00,0x78,0x00,0x00,0x00,0x00,0x00,0x00,0x00
,0x00,0x1e,0x00,0x00,0x3c,0x00,0x00,0x00,0x00,0x00,0x00,0x00,0x00,0x7c,0x00
,0x00,0x1f,0x00,0x00,0x00,0x00,0x00,0x00,0x00,0x00,0xf8,0x01,0x80,0x0f,0x00
,0x00,0x00,0x00,0x00,0x00,0x00,0x00,0xf8,0x01,0xc0,0x0f,0x00,0x00,0x00,0x00
,0x00,0x00,0x00,0x00,0xfe,0x01,0x80,0x3f,0x00,0x00,0x00,0x00,0x00,0x00,0x00
,0x00,0x3f,0x00,0x00,0x7e,0x00,0x00,0x00,0x00,0x00,0x00,0x00,0xc0,0x0f,0x00
,0x00,0xf8,0x01,0x00,0x00,0x00,0x00,0x00,0x00,0xe0,0x03,0x00,0x00,0xe0,0x03
,0x00,0x00,0x00,0x00,0x00,0x00,0xf0,0x00,0x00,0x00,0x80,0x07,0x00,0x00,0x00
,0x00,0x00,0x00,0x78,0x00,0x00,0x00,0x00,0x0f,0x00,0x00,0x00,0x00,0x00,0x00
,0x3c,0x00,0x00,0x00,0x00,0x1e,0x00,0x00,0x00,0x00,0x00,0x00,0x1e,0x00,0x00
,0x00,0x00,0x3c,0x00,0x00,0x00,0x00,0x00,0x00,0x0e,0x00,0x00,0x00,0x00,0x38
,0x00,0x00,0x00,0x00,0x00,0x00,0x07,0x00,0x00,0x00,0x00,0x70,0x00,0x00,0x00
,0x00,0x00,0x00,0x07,0x00,0x00,0x00,0x00,0x70,0x00,0x00,0x00,0x00,0x00,0x80
,0x03,0x00,0x00,0x00,0x00,0xe0,0x00,0x00,0x00,0x00,0x00,0x80,0x03,0x00,0x00
,0x00,0x00,0xe0,0x00,0x00,0x00,0x00,0x00,0xc0,0x01,0x00,0x00,0x00,0x00,0xc0
,0x01,0x00,0x00,0x00,0x00,0xc0,0x01,0x00,0x00,0x00,0x00,0xc0,0x01,0x00,0x00
,0x00,0x00,0xe0,0x00,0x00,0x00,0x00,0x00,0x80,0x03,0x00,0x00,0x00,0x00,0xe0
,0x00,0x00,0x00,0x00,0x00,0x80,0x03,0x00,0x00,0x00,0x00,0xe0,0x00,0x00,0x00
,0x00,0x00,0x80,0x03,0x00,0x00,0x00,0x00,0x70,0x00,0x00,0x00,0x00,0x00,0x00
,0x07,0x00,0x00,0x00,0x00,0x70,0x00,0x00,0x00,0x00,0x00,0x00,0x07,0x00,0x00
,0x00,0x00,0x70,0x00,0x00,0x00,0x00,0x00,0x00,0x07,0x00,0x00,0x00,0x00,0x70
,0x00,0x00,0x00,0x00,0x00,0x00,0x07,0x00,0x00,0x00,0x00,0x70,0x00,0x00,0x00
,0x00,0x00,0x00,0x07,0x00,0x00,0x00,0x00,0x38,0x00,0x00,0x00,0x00,0x00,0x00
,0x0e,0x00,0x00,0x00,0x00,0x38,0x00,0x00,0x00,0x00,0x00,0x00,0x0e,0x00,0x00
,0x00,0x00,0x38,0x00,0x00,0x00,0x00,0x00,0x00,0x0e,0x00,0x00,0x00,0x00,0x38
,0x00,0x00,0x00,0x00,0x00,0x00,0x0e,0x00,0x00,0x00,0x00,0x38,0x00,0x00,0x00
,0x00,0x00,0x00,0x0e,0x00,0x00,0x00,0x00,0x38,0x00,0x00,0x00,0x00,0x00,0x00
,0x0e,0x00,0x00,0x00,0x00,0xf8,0xff,0xff,0xff,0xff,0xff,0xff,0x0f,0x00,0x00
,0x00,0x00,0xf8,0xff,0xff,0xff,0xff,0xff,0xff,0x0f,0x00,0x00,0x00,0x00,0xf0
,0xff,0xff,0xff,0xff,0xff,0xff,0x0f,0x00,0x00,0x00,0x00,0x00,0x00,0x00,0x00
,0x00,0x00,0x00,0x00,0x00,0x00,0x00,0x00,0x00,0x00,0x00,0x00,0x00,0x00,0x00
,0x00,0x00,0x00,0x00,0x00,0x00,0x00,0x00,0x00,0x00,0x00,0x00,0x00,0x00,0x00
,0x00,0x00,0x00,0x00,0x00,0x00,0x00,0x00,0x00,0x00,0x00,0x00,0x00,0x00,0x00
,0x00,0x00,0x00,0x00,0x00,0x00,0x00,0x00,0x00,0x00,0x00,0x00,0x00,0x00,0x00
,0x00,0x00,0x00,0x00,0x00,0x00,0x00,0x00,0x00,0x00,0x00,0x00,0x00,0x00,0x00
,0x00,0x00,0x00,0x00,0x00,0x00,0x00,0x00,0x00,0x00,0x00,0x00,0x00,0x00,0x00

};
