#define q129o_width 129
#define q129o_height 129
static unsigned char q129o_bits[] = {
   0x00, 0x00, 0x00, 0x00, 0x00, 0x00, 0x00, 0x00, 0x00, 0x00, 0x00, 0x00,
   0x00, 0x00, 0x00, 0x00, 0x00, 0x00, 0x00, 0x00, 0x00, 0x00, 0x00, 0x00,
   0x00, 0x00, 0x00, 0x00, 0x00, 0x00, 0x00, 0x00, 0x00, 0x00, 0x00, 0x00,
   0x00, 0x00, 0x00, 0x00, 0x00, 0x00, 0x00, 0x00, 0x00, 0x00, 0x00, 0x00,
   0x00, 0x00, 0x00, 0x00, 0x00, 0x00, 0x00, 0x00, 0x00, 0x00, 0x00, 0x00,
   0x00, 0x00, 0x00, 0x00, 0x00, 0x00, 0x00, 0x00, 0x00, 0x00, 0x00, 0x00,
   0x00, 0x00, 0x00, 0x00, 0x00, 0x00, 0x00, 0x00, 0x00, 0x00, 0x00, 0x00,
   0x00, 0x00, 0x00, 0x00, 0x00, 0x00, 0x00, 0x00, 0x00, 0x00, 0x00, 0x00,
   0x00, 0x00, 0x00, 0x00, 0x00, 0x00, 0x00, 0x00, 0x00, 0x00, 0x00, 0x00,
   0x00, 0x00, 0x00, 0x00, 0x00, 0x00, 0x00, 0x00, 0x00, 0x00, 0x00, 0x00,
   0x00, 0x00, 0x00, 0x00, 0x00, 0x00, 0x00, 0x00, 0x00, 0x00, 0x00, 0x00,
   0x00, 0x00, 0x00, 0x00, 0x00, 0x00, 0x00, 0x00, 0x00, 0x00, 0x00, 0xe0,
   0x07, 0x00, 0x00, 0x00, 0x00, 0x00, 0x00, 0x00, 0x00, 0x00, 0x00, 0x00,
   0x00, 0x00, 0x00, 0x00, 0xf8, 0x1f, 0x00, 0x00, 0x00, 0x00, 0x00, 0x00,
   0x00, 0x00, 0x00, 0x00, 0x00, 0x00, 0x00, 0x00, 0x00, 0xfc, 0x3f, 0x00,
   0x00, 0x00, 0x00, 0x00, 0x00, 0x00, 0x00, 0x00, 0x00, 0x00, 0x00, 0x00,
   0x00, 0x00, 0xfe, 0x7f, 0x00, 0x00, 0x00, 0x00, 0x00, 0x00, 0x00, 0x00,
   0x00, 0x00, 0x00, 0x00, 0x7c, 0x00, 0x00, 0x3e, 0x7c, 0x00, 0x00, 0x3e,
   0x00, 0x00, 0x00, 0x00, 0x00, 0x00, 0x00, 0x00, 0x00, 0xff, 0x01, 0x00,
   0x1f, 0xf8, 0x00, 0x80, 0xff, 0x00, 0x00, 0x00, 0x00, 0x00, 0x00, 0x00,
   0x00, 0x80, 0xff, 0x03, 0x00, 0x0f, 0xf0, 0x00, 0xc0, 0xff, 0x01, 0x00,
   0x00, 0x00, 0x00, 0x00, 0x00, 0x00, 0xc0, 0xff, 0x07, 0x00, 0x0f, 0xf0,
   0x00, 0xe0, 0xff, 0x03, 0x00, 0x00, 0x00, 0x00, 0x00, 0x00, 0x00, 0xe0,
   0xc7, 0x07, 0x00, 0x0f, 0xf0, 0x00, 0xe0, 0xe3, 0x07, 0x00, 0x00, 0x00,
   0x00, 0x00, 0x00, 0x00, 0xe0, 0x81, 0x0f, 0x00, 0x1f, 0xf8, 0x00, 0xf0,
   0x81, 0x07, 0x00, 0x00, 0x00, 0x00, 0x00, 0x00, 0x00, 0xf0, 0x01, 0x0f,
   0x00, 0x1e, 0x78, 0x00, 0xf0, 0x80, 0x0f, 0x00, 0x00, 0x00, 0x00, 0x00,
   0x00, 0x00, 0xf0, 0x00, 0x0f, 0x00, 0x7e, 0x7e, 0x00, 0xf0, 0x00, 0x0f,
   0x00, 0x00, 0x00, 0x00, 0x00, 0x00, 0x00, 0xf0, 0x00, 0x0f, 0x00, 0xfc,
   0x3f, 0x00, 0xf0, 0x00, 0x0f, 0x00, 0x00, 0x00, 0x00, 0x00, 0x00, 0x00,
   0xf0, 0x81, 0x0f, 0x00, 0xf8, 0x1f, 0x00, 0xf0, 0x81, 0x0f, 0x00, 0x00,
   0x00, 0x00, 0x00, 0x00, 0x00, 0xe0, 0x81, 0x07, 0x00, 0xf0, 0x0f, 0x00,
   0xe0, 0x81, 0x07, 0x00, 0x00, 0x00, 0x00, 0x00, 0x3f, 0x00, 0xe0, 0xe7,
   0x07, 0x00, 0xc0, 0x03, 0x00, 0xe0, 0xe7, 0x07, 0x00, 0xfc, 0x00, 0x00,
   0xc0, 0xff, 0x00, 0xc0, 0xff, 0x03, 0x00, 0xe0, 0x07, 0x00, 0xc0, 0xff,
   0x03, 0x00, 0xff, 0x03, 0x00, 0xe0, 0xff, 0x01, 0x80, 0xff, 0x01, 0x00,
   0xe0, 0x07, 0x00, 0x80, 0xff, 0x01, 0x80, 0xff, 0x07, 0x00, 0xf0, 0xff,
   0x03, 0x00, 0xff, 0x00, 0x00, 0xe0, 0x07, 0x00, 0x00, 0xff, 0x00, 0xc0,
   0xff, 0x0f, 0x00, 0xf8, 0xe1, 0x03, 0x00, 0xfc, 0x00, 0x00, 0xe0, 0x07,
   0x00, 0x00, 0x3f, 0x00, 0xc0, 0x87, 0x1f, 0x00, 0x78, 0xc0, 0x07, 0x00,
   0xf8, 0x00, 0x00, 0xf0, 0x0f, 0x00, 0x00, 0x1f, 0x00, 0xe0, 0x03, 0x1e,
   0x00, 0x78, 0x80, 0x07, 0x00, 0xf8, 0x00, 0x00, 0xf0, 0x0f, 0x00, 0x00,
   0x1f, 0x00, 0xe0, 0x01, 0x1e, 0x00, 0x78, 0x80, 0x07, 0x00, 0xf8, 0x01,
   0x00, 0xf0, 0x0f, 0x00, 0x80, 0x1f, 0x00, 0xe0, 0x01, 0x1e, 0x00, 0x78,
   0x80, 0x07, 0x00, 0xf8, 0x01, 0x00, 0xf0, 0x0f, 0x00, 0x80, 0x1f, 0x00,
   0xe0, 0x01, 0x1e, 0x00, 0x78, 0xc0, 0x07, 0x00, 0xf8, 0x01, 0x00, 0xf0,
   0x0f, 0x00, 0x80, 0x1f, 0x00, 0xe0, 0x03, 0x1e, 0x00, 0xf8, 0xc1, 0x03,
   0x00, 0xf8, 0x03, 0x00, 0xf8, 0x1f, 0x00, 0xc0, 0x1f, 0x00, 0xc0, 0x83,
   0x1f, 0x00, 0xf0, 0xff, 0x03, 0x00, 0xf8, 0x03, 0x00, 0x78, 0x1e, 0x00,
   0xc0, 0x1f, 0x00, 0xc0, 0xff, 0x0f, 0x00, 0xe0, 0xff, 0x01, 0x00, 0xf8,
   0x03, 0x00, 0x78, 0x1e, 0x00, 0xc0, 0x1f, 0x00, 0x80, 0xff, 0x07, 0x00,
   0xc0, 0xff, 0x00, 0x00, 0xf8, 0x07, 0x00, 0x78, 0x1e, 0x00, 0xe0, 0x1f,
   0x00, 0x00, 0xff, 0x03, 0x00, 0x00, 0xff, 0x00, 0x00, 0xfc, 0x07, 0x00,
   0x78, 0x1e, 0x00, 0xe0, 0x1f, 0x00, 0x00, 0xff, 0x00, 0x00, 0x00, 0xf8,
   0x01, 0x00, 0xbc, 0x07, 0x00, 0x7c, 0x3e, 0x00, 0xe0, 0x3f, 0x00, 0x80,
   0x1f, 0x00, 0x00, 0x00, 0xf8, 0x01, 0x00, 0xbc, 0x0f, 0x00, 0x3c, 0x3c,
   0x00, 0xf0, 0x3d, 0x00, 0x80, 0x1f, 0x00, 0x00, 0x00, 0xf0, 0x03, 0x00,
   0x3c, 0x0f, 0x00, 0x3c, 0x3c, 0x00, 0xf0, 0x3c, 0x00, 0xc0, 0x0f, 0x00,
   0x00, 0x00, 0xf0, 0x03, 0x00, 0x3c, 0x1f, 0x00, 0x3c, 0x3c, 0x00, 0xf8,
   0x3c, 0x00, 0xc0, 0x0f, 0x00, 0x00, 0x00, 0xf0, 0x07, 0x00, 0x3c, 0x1e,
   0x00, 0x3e, 0x7c, 0x00, 0x78, 0x3c, 0x00, 0xe0, 0x0f, 0x00, 0x00, 0x00,
   0xf0, 0x0f, 0x00, 0x3c, 0x1e, 0x00, 0x1e, 0x78, 0x00, 0x78, 0x3c, 0x00,
   0xf0, 0x0f, 0x00, 0x00, 0x00, 0xf0, 0x0f, 0x00, 0x3c, 0x3e, 0x00, 0x1e,
   0x78, 0x00, 0x7c, 0x3c, 0x00, 0xf0, 0x0f, 0x00, 0x00, 0x00, 0xf0, 0x1f,
   0x00, 0x3c, 0x3c, 0x00, 0x1e, 0x78, 0x00, 0x3c, 0x3c, 0x00, 0xf8, 0x0f,
   0x00, 0x00, 0x00, 0xe0, 0x1f, 0x00, 0x3c, 0x3c, 0x00, 0x1e, 0x78, 0x00,
   0x3c, 0x3c, 0x00, 0xf8, 0x07, 0x00, 0x00, 0x00, 0xe0, 0x3f, 0x00, 0x3c,
   0x7c, 0x00, 0x1f, 0xf8, 0x00, 0x3e, 0x3c, 0x00, 0xfc, 0x07, 0x00, 0x00,
   0x00, 0xe0, 0x3d, 0x00, 0x3c, 0x78, 0x00, 0x0f, 0xf0, 0x00, 0x1e, 0x3c,
   0x00, 0xbc, 0x07, 0x00, 0x00, 0x00, 0xe0, 0x7d, 0x00, 0x3c, 0x78, 0x00,
   0x0f, 0xf0, 0x00, 0x1e, 0x3c, 0x00, 0xbe, 0x07, 0x00, 0x00, 0x00, 0xe0,
   0xf9, 0x00, 0x3c, 0xf8, 0x00, 0x0f, 0xf0, 0x00, 0x1f, 0x3c, 0x00, 0x9f,
   0x07, 0x00, 0x00, 0x00, 0xe0, 0xf3, 0x00, 0x3c, 0xf0, 0x00, 0x0f, 0xf0,
   0x00, 0x0f, 0x3c, 0x00, 0xcf, 0x07, 0x00, 0x00, 0x00, 0xc0, 0xf3, 0x01,
   0x3c, 0xf0, 0x80, 0x0f, 0xf0, 0x01, 0x0f, 0x3c, 0x80, 0xcf, 0x03, 0x00,
   0x00, 0x00, 0xc0, 0xe3, 0x01, 0x3c, 0xf0, 0x81, 0x07, 0xe0, 0x81, 0x0f,
   0x3c, 0x80, 0xc7, 0x03, 0x00, 0x00, 0x00, 0xc0, 0xe3, 0x03, 0x3c, 0xe0,
   0x81, 0x07, 0xe0, 0x81, 0x07, 0x3c, 0xc0, 0xc7, 0x03, 0x00, 0x00, 0x00,
   0xc0, 0xc3, 0x07, 0x3c, 0xe0, 0x81, 0x07, 0xe0, 0x81, 0x07, 0x3c, 0xe0,
   0xc3, 0x03, 0x00, 0x00, 0x00, 0xc0, 0x87, 0x07, 0x3c, 0xe0, 0xc3, 0x07,
   0xe0, 0xc3, 0x07, 0x3c, 0xe0, 0xe1, 0x03, 0x00, 0x00, 0x00, 0x80, 0x87,
   0x0f, 0x3c, 0xc0, 0xc3, 0x03, 0xc0, 0xc3, 0x03, 0x3c, 0xf0, 0xe1, 0x01,
   0x00, 0x00, 0x00, 0x80, 0x07, 0x0f, 0x3c, 0xc0, 0xc3, 0x03, 0xc0, 0xc3,
   0x03, 0x3c, 0xf0, 0xe0, 0x01, 0x00, 0x00, 0x00, 0x80, 0x07, 0x1f, 0x3c,
   0xc0, 0xc7, 0x03, 0xc0, 0xe3, 0x03, 0x3c, 0xf8, 0xe0, 0x01, 0x00, 0x00,
   0x00, 0x80, 0x07, 0x1e, 0x3c, 0x80, 0xc7, 0x03, 0xc0, 0xe3, 0x01, 0x3c,
   0x78, 0xe0, 0x01, 0x00, 0x00, 0x00, 0x80, 0x07, 0x3e, 0x3e, 0x80, 0xe7,
   0x03, 0xc0, 0xe7, 0x01, 0x3c, 0x7c, 0xe0, 0x01, 0x00, 0x00, 0x00, 0x80,
   0x0f, 0x7c, 0x1e, 0x80, 0xef, 0x01, 0x80, 0xf7, 0x01, 0x7c, 0x3e, 0xf0,
   0x01, 0x00, 0x00, 0x00, 0x00, 0x0f, 0x78, 0x1e, 0x00, 0xef, 0x01, 0x80,
   0xf7, 0x00, 0x78, 0x1e, 0xf0, 0x00, 0x00, 0x00, 0x00, 0x00, 0x0f, 0xf8,
   0x1e, 0x00, 0xef, 0x01, 0x80, 0xf7, 0x00, 0x78, 0x1f, 0xf0, 0x00, 0x00,
   0x00, 0x00, 0x00, 0x0f, 0xf0, 0x1e, 0x00, 0xff, 0x01, 0x80, 0xff, 0x00,
   0x78, 0x0f, 0xf0, 0x00, 0x00, 0x00, 0x00, 0x00, 0x0f, 0xf0, 0x1f, 0x00,
   0xfe, 0x01, 0x80, 0x7f, 0x00, 0xf8, 0x0f, 0xf0, 0x00, 0x00, 0x00, 0x00,
   0x00, 0x0f, 0xe0, 0x1f, 0x00, 0xfe, 0x00, 0x00, 0x7f, 0x00, 0xf8, 0x07,
   0xf0, 0x00, 0x00, 0x00, 0x00, 0x00, 0x1f, 0xc0, 0x1f, 0x00, 0xfe, 0xc0,
   0x03, 0x7f, 0x00, 0xf8, 0x03, 0xf8, 0x00, 0x00, 0x00, 0x00, 0x00, 0x1e,
   0xc0, 0x1f, 0x3c, 0xfc, 0xf0, 0x0f, 0x3f, 0x3c, 0xf8, 0x03, 0x78, 0x00,
   0x00, 0x00, 0x00, 0x00, 0x1e, 0x80, 0x1f, 0xff, 0xfc, 0xff, 0xff, 0x3f,
   0xff, 0xf8, 0x01, 0x78, 0x00, 0x00, 0x00, 0x00, 0x00, 0x1e, 0x8c, 0xff,
   0xff, 0xff, 0xff, 0xff, 0xff, 0xff, 0xff, 0x31, 0x78, 0x00, 0x00, 0x00,
   0x00, 0x00, 0x1e, 0xfe, 0xff, 0xff, 0xff, 0x7f, 0xfe, 0xff, 0xff, 0xff,
   0x7f, 0x78, 0x00, 0x00, 0x00, 0x00, 0x00, 0x9e, 0xff, 0xff, 0xe7, 0xff,
   0x1f, 0xf8, 0xff, 0xe7, 0xff, 0xff, 0x79, 0x00, 0x00, 0x00, 0x00, 0x00,
   0xfe, 0xff, 0xff, 0x81, 0xff, 0x01, 0x80, 0xff, 0x01, 0xff, 0xff, 0x7f,
   0x00, 0x00, 0x00, 0x00, 0x00, 0xfc, 0xff, 0x1f, 0x00, 0x00, 0x00, 0x00,
   0x00, 0x00, 0xf8, 0xff, 0x3f, 0x00, 0x00, 0x00, 0x00, 0x00, 0xfc, 0x03,
   0x00, 0x00, 0x00, 0x00, 0x00, 0x00, 0x00, 0x00, 0xc0, 0x3f, 0x00, 0x00,
   0x00, 0x00, 0x00, 0xfc, 0x00, 0x00, 0x00, 0x00, 0x00, 0x00, 0x00, 0x00,
   0x00, 0x00, 0x3f, 0x00, 0x00, 0x00, 0x00, 0x00, 0x78, 0x00, 0x00, 0x00,
   0x00, 0x00, 0x00, 0x00, 0x00, 0x00, 0x00, 0x1e, 0x00, 0x00, 0x00, 0x00,
   0x00, 0xf8, 0x00, 0x00, 0x00, 0x00, 0x00, 0x00, 0x00, 0x00, 0x00, 0x00,
   0x1f, 0x00, 0x00, 0x00, 0x00, 0x00, 0xf0, 0x01, 0x00, 0x00, 0x00, 0x00,
   0x00, 0x00, 0x00, 0x00, 0x80, 0x0f, 0x00, 0x00, 0x00, 0x00, 0x00, 0xe0,
   0x03, 0x00, 0x00, 0x00, 0x00, 0x00, 0x00, 0x00, 0x00, 0xc0, 0x07, 0x00,
   0x00, 0x00, 0x00, 0x00, 0xc0, 0x07, 0x00, 0x00, 0x00, 0x00, 0x00, 0x00,
   0x00, 0x00, 0xe0, 0x03, 0x00, 0x00, 0x00, 0x00, 0x00, 0x80, 0x07, 0x00,
   0x00, 0xfc, 0xff, 0xff, 0x3f, 0x00, 0x00, 0xe0, 0x01, 0x00, 0x00, 0x00,
   0x00, 0x00, 0x80, 0x0f, 0x00, 0xfe, 0xff, 0xff, 0xff, 0xff, 0x7f, 0x00,
   0xf0, 0x01, 0x00, 0x00, 0x00, 0x00, 0x00, 0x00, 0x1f, 0xfc, 0xff, 0xff,
   0xff, 0xff, 0xff, 0xff, 0x3f, 0xf8, 0x00, 0x00, 0x00, 0x00, 0x00, 0x00,
   0x00, 0xfe, 0xff, 0xff, 0xff, 0xff, 0xff, 0xff, 0xff, 0xff, 0x7f, 0x00,
   0x00, 0x00, 0x00, 0x00, 0x00, 0x00, 0xfc, 0xff, 0xff, 0x07, 0x00, 0x00,
   0xe0, 0xff, 0xff, 0x3f, 0x00, 0x00, 0x00, 0x00, 0x00, 0x00, 0x00, 0xfc,
   0xff, 0x03, 0x00, 0x00, 0x00, 0x00, 0xc0, 0xff, 0x3f, 0x00, 0x00, 0x00,
   0x00, 0x00, 0x00, 0x00, 0xf8, 0x07, 0x00, 0x00, 0x00, 0x00, 0x00, 0x00,
   0xe0, 0x1f, 0x00, 0x00, 0x00, 0x00, 0x00, 0x00, 0x00, 0x78, 0x00, 0x00,
   0x00, 0x00, 0x00, 0x00, 0x00, 0x00, 0x1e, 0x00, 0x00, 0x00, 0x00, 0x00,
   0x00, 0x00, 0xf8, 0x00, 0x00, 0x00, 0x00, 0x00, 0x00, 0x00, 0x00, 0x1f,
   0x00, 0x00, 0x00, 0x00, 0x00, 0x00, 0x00, 0xf0, 0x00, 0x00, 0x00, 0x00,
   0x00, 0x00, 0x00, 0x00, 0x0f, 0x00, 0x00, 0x00, 0x00, 0x00, 0x00, 0x00,
   0xf0, 0x00, 0x00, 0x00, 0x00, 0x00, 0x00, 0x00, 0x00, 0x0f, 0x00, 0x00,
   0x00, 0x00, 0x00, 0x00, 0x00, 0xf0, 0x00, 0x00, 0x00, 0x00, 0x00, 0x00,
   0x00, 0x00, 0x0f, 0x00, 0x00, 0x00, 0x00, 0x00, 0x00, 0x00, 0xf0, 0x00,
   0x00, 0xf8, 0xff, 0xff, 0x1f, 0x00, 0x00, 0x0f, 0x00, 0x00, 0x00, 0x00,
   0x00, 0x00, 0x00, 0xf0, 0x01, 0xfe, 0xff, 0xff, 0xff, 0xff, 0x7f, 0x80,
   0x0f, 0x00, 0x00, 0x00, 0x00, 0x00, 0x00, 0x00, 0xe0, 0xf9, 0xff, 0xff,
   0xff, 0xff, 0xff, 0xff, 0x9f, 0x07, 0x00, 0x00, 0x00, 0x00, 0x00, 0x00,
   0x00, 0xe0, 0xff, 0xff, 0xff, 0xff, 0xff, 0xff, 0xff, 0xff, 0x07, 0x00,
   0x00, 0x00, 0x00, 0x00, 0x00, 0x00, 0xe0, 0xff, 0xff, 0x0f, 0x00, 0x00,
   0xf0, 0xff, 0xff, 0x07, 0x00, 0x00, 0x00, 0x00, 0x00, 0x00, 0x00, 0xe0,
   0xff, 0x03, 0x00, 0x00, 0x00, 0x00, 0xc0, 0xff, 0x07, 0x00, 0x00, 0x00,
   0x00, 0x00, 0x00, 0x00, 0xf0, 0x0f, 0x00, 0x00, 0x00, 0x00, 0x00, 0x00,
   0xf0, 0x0f, 0x00, 0x00, 0x00, 0x00, 0x00, 0x00, 0x00, 0xf0, 0x00, 0x00,
   0x00, 0x00, 0x00, 0x00, 0x00, 0x00, 0x0f, 0x00, 0x00, 0x00, 0x00, 0x00,
   0x00, 0x00, 0xf8, 0x00, 0x00, 0xfc, 0xff, 0xff, 0x3f, 0x00, 0x00, 0x1f,
   0x00, 0x00, 0x00, 0x00, 0x00, 0x00, 0x00, 0x78, 0x00, 0xfe, 0xff, 0xff,
   0xff, 0xff, 0x7f, 0x00, 0x1e, 0x00, 0x00, 0x00, 0x00, 0x00, 0x00, 0x00,
   0x7c, 0xfe, 0xff, 0xff, 0xff, 0xff, 0xff, 0xff, 0x7f, 0x3e, 0x00, 0x00,
   0x00, 0x00, 0x00, 0x00, 0x00, 0xfc, 0xff, 0xff, 0xff, 0xff, 0xff, 0xff,
   0xff, 0xff, 0x3f, 0x00, 0x00, 0x00, 0x00, 0x00, 0x00, 0x00, 0xfe, 0xff,
   0xff, 0x07, 0x00, 0x00, 0xe0, 0xff, 0xff, 0x7f, 0x00, 0x00, 0x00, 0x00,
   0x00, 0x00, 0x00, 0xff, 0xff, 0x03, 0x00, 0x00, 0x00, 0x00, 0xc0, 0xff,
   0xff, 0x00, 0x00, 0x00, 0x00, 0x00, 0x00, 0x80, 0xff, 0x03, 0x00, 0x00,
   0x00, 0x00, 0x00, 0x00, 0xc0, 0xff, 0x01, 0x00, 0x00, 0x00, 0x00, 0x00,
   0x80, 0x0f, 0x00, 0x00, 0x00, 0x00, 0x00, 0x00, 0x00, 0x00, 0xf0, 0x01,
   0x00, 0x00, 0x00, 0x00, 0x00, 0x80, 0x0f, 0x00, 0x00, 0x00, 0x00, 0x00,
   0x00, 0x00, 0x00, 0xf0, 0x01, 0x00, 0x00, 0x00, 0x00, 0x00, 0x80, 0x07,
   0x00, 0x00, 0x00, 0x00, 0x00, 0x00, 0x00, 0x00, 0xe0, 0x01, 0x00, 0x00,
   0x00, 0x00, 0x00, 0x80, 0x07, 0x00, 0x00, 0x00, 0x00, 0x00, 0x00, 0x00,
   0x00, 0xe0, 0x01, 0x00, 0x00, 0x00, 0x00, 0x00, 0x80, 0xff, 0x07, 0x00,
   0x00, 0x00, 0x00, 0x00, 0x00, 0xe0, 0xff, 0x01, 0x00, 0x00, 0x00, 0x00,
   0x00, 0x00, 0xff, 0xff, 0x03, 0x00, 0x00, 0x00, 0x00, 0xc0, 0xff, 0xff,
   0x00, 0x00, 0x00, 0x00, 0x00, 0x00, 0x00, 0xfe, 0xff, 0xff, 0x07, 0x00,
   0x00, 0xe0, 0xff, 0xff, 0x7f, 0x00, 0x00, 0x00, 0x00, 0x00, 0x00, 0x00,
   0xfc, 0xff, 0xff, 0xff, 0xff, 0xff, 0xff, 0xff, 0xff, 0x3f, 0x00, 0x00,
   0x00, 0x00, 0x00, 0x00, 0x00, 0x00, 0xfc, 0xff, 0xff, 0xff, 0xff, 0xff,
   0xff, 0x3f, 0x00, 0x00, 0x00, 0x00, 0x00, 0x00, 0x00, 0x00, 0x00, 0x00,
   0xfe, 0xff, 0xff, 0xff, 0xff, 0x7f, 0x00, 0x00, 0x00, 0x00, 0x00, 0x00,
   0x00, 0x00, 0x00, 0x00, 0x00, 0x00, 0xfc, 0xff, 0xff, 0x3f, 0x00, 0x00,
   0x00, 0x00, 0x00, 0x00, 0x00, 0x00, 0x00, 0x00, 0x00, 0x00, 0x00, 0x00,
   0x00, 0x00, 0x00, 0x00, 0x00, 0x00, 0x00, 0x00, 0x00, 0x00, 0x00, 0x00,
   0x00, 0x00, 0x00, 0x00, 0x00, 0x00, 0x00, 0x00, 0x00, 0x00, 0x00, 0x00,
   0x00, 0x00, 0x00, 0x00, 0x00, 0x00, 0x00, 0x00, 0x00, 0x00, 0x00, 0x00,
   0x00, 0x00, 0x00, 0x00, 0x00, 0x00, 0x00, 0x00, 0x00, 0x00, 0x00, 0x00,
   0x00, 0x00, 0x00, 0x00, 0x00, 0x00, 0x00, 0x00, 0x00, 0x00, 0x00, 0x00,
   0x00, 0x00, 0x00, 0x00, 0x00, 0x00, 0x00, 0x00, 0x00, 0x00, 0x00, 0x00,
   0x00, 0x00, 0x00, 0x00, 0x00, 0x00, 0x00, 0x00, 0x00, 0x00, 0x00, 0x00,
   0x00, 0x00, 0x00, 0x00, 0x00, 0x00, 0x00, 0x00, 0x00, 0x00, 0x00, 0x00,
   0x00, 0x00, 0x00, 0x00, 0x00, 0x00, 0x00, 0x00, 0x00, 0x00, 0x00, 0x00,
   0x00, 0x00, 0x00, 0x00, 0x00, 0x00, 0x00, 0x00, 0x00, 0x00, 0x00, 0x00,
   0x00, 0x00, 0x00, 0x00, 0x00, 0x00, 0x00, 0x00, 0x00};
