#define q21s_width 21
#define q21s_height 21
static unsigned char q21s_bits[] = {
0x00,0x00,0x00,0x00,0x0e,0x00,0xe0,0xee,0x00,0xe0,0xee,0x00,0xce,0x64,0x0e
,0x4e,0x4e,0x0e,0xce,0x6e,0x0e,0xec,0xee,0x06,0xec,0xee,0x06,0xf8,0xff,0x03
,0xf8,0xff,0x03,0xf8,0xff,0x03,0xf8,0xff,0x03,0x30,0x80,0x01,0x90,0x3f,0x01
,0x70,0xc0,0x01,0xa0,0xbf,0x00,0xf0,0xff,0x01,0xf0,0xff,0x01,0xe0,0xff,0x00
,0x00,0x00,0x00
};
