#define q33o_width 33
#define q33o_height 33
static unsigned char q33o_bits[] = {
0x00,0x00,0x00,0x00,0x00,0x00,0x00,0x00,0x00,0x00,0x00,0x00,0x01,0x00,0x00
,0x00,0x80,0x02,0x00,0x00,0x00,0x83,0x82,0x01,0x00,0x80,0x04,0x41,0x02,0x00
,0x8c,0x05,0x41,0x63,0x00,0x12,0x02,0x81,0x90,0x00,0x12,0x82,0x82,0x90,0x00
,0x0c,0x86,0xc2,0x60,0x00,0x18,0x86,0xc2,0x30,0x00,0x18,0x8a,0xa2,0x30,0x00
,0x30,0x4a,0xa4,0x18,0x00,0x50,0x4a,0xa4,0x14,0x00,0x50,0x52,0x94,0x14,0x00
,0x90,0x52,0x94,0x12,0x00,0x90,0x32,0x98,0x12,0x00,0x20,0xeb,0xaf,0x09,0x00
,0xa0,0x36,0xd0,0x0a,0x00,0x60,0x03,0x00,0x0d,0x00,0x20,0x00,0x00,0x08,0x00
,0x40,0xfc,0x7f,0x04,0x00,0xc0,0x03,0x80,0x07,0x00,0x80,0x00,0x00,0x02,0x00
,0x80,0xfc,0x7f,0x02,0x00,0x00,0x03,0x80,0x01,0x00,0x80,0xfc,0x7f,0x02,0x00
,0xc0,0x03,0x80,0x07,0x00,0x40,0x00,0x00,0x04,0x00,0xc0,0x03,0x80,0x07,0x00
,0x00,0xfc,0x7f,0x00,0x00,0x00,0x00,0x00,0x00,0x00,0x00,0x00,0x00,0x00,0x00

};
