#define q37o_width 37
#define q37o_height 37
static unsigned char q37o_bits[] = {
0x00,0x00,0x00,0x00,0x00,0x00,0x00,0x00,0x00,0x00,0x00,0x00,0x0e,0x00,0x00
,0x00,0x1c,0x11,0x07,0x00,0x00,0x22,0x91,0x08,0x00,0x00,0x22,0x8e,0x08,0x00
,0x18,0x1c,0x04,0x07,0x03,0x24,0x08,0x04,0x82,0x04,0x24,0x08,0x0a,0x82,0x04
,0x34,0x18,0x0a,0x83,0x05,0x18,0x14,0x0a,0x03,0x03,0x30,0x14,0x0a,0x85,0x01
,0x30,0x24,0x8a,0x84,0x01,0x50,0x24,0x91,0x44,0x01,0x50,0x24,0x91,0x44,0x01
,0xa0,0x24,0x91,0xa4,0x00,0xa0,0x44,0x51,0xa4,0x00,0xa0,0x42,0x51,0xa4,0x00
,0x20,0xc3,0x60,0x98,0x00,0x20,0x83,0x20,0x98,0x00,0xa0,0xbe,0xae,0xaf,0x00
,0x40,0xc3,0x71,0xd0,0x00,0x40,0x00,0x00,0x40,0x00,0x80,0x00,0x00,0x20,0x00
,0x80,0xfc,0xff,0x27,0x00,0x00,0x03,0x00,0x18,0x00,0x00,0x01,0x00,0x10,0x00
,0x00,0xf2,0xff,0x09,0x00,0x00,0x0e,0x00,0x0e,0x00,0x00,0xe1,0xff,0x10,0x00
,0x00,0x1f,0x00,0x1f,0x00,0x80,0x00,0x00,0x20,0x00,0x00,0x0f,0x00,0x1e,0x00
,0x00,0xf0,0xff,0x01,0x00,0x00,0x00,0x00,0x00,0x00,0x00,0x00,0x00,0x00,0x00
,0x00,0x00,0x00,0x00,0x00
};
