#define q40o_width 40
#define q40o_height 40
static unsigned char q40o_bits[] = {
0x00,0x00,0x00,0x00,0x00,0x00,0x00,0x00,0x00,0x00,0x00,0x00,0x38,0x00,0x00
,0x00,0x38,0x44,0x38,0x00,0x00,0x44,0x44,0x44,0x00,0x00,0x44,0x44,0x44,0x00
,0x18,0x28,0x38,0x28,0x30,0x24,0x10,0x10,0x10,0x48,0x24,0x10,0x10,0x10,0x48
,0x24,0x30,0x28,0x18,0x48,0x18,0x30,0x28,0x18,0x30,0x20,0x30,0x28,0x18,0x08
,0x20,0x50,0x28,0x14,0x08,0x60,0x50,0x28,0x14,0x0c,0xa0,0x48,0x44,0x14,0x0a
,0xa0,0x88,0x44,0x22,0x0a,0x20,0x89,0x44,0x22,0x09,0x20,0x89,0x44,0x22,0x09
,0x40,0x0a,0x45,0xa1,0x04,0x40,0x0c,0x83,0x61,0x04,0x40,0x0c,0x83,0x61,0x04
,0x40,0xfa,0xba,0xbe,0x04,0xc0,0x0d,0xc7,0x41,0x07,0x80,0x00,0x00,0x00,0x02
,0x80,0x00,0x00,0x00,0x02,0x00,0xc1,0xff,0x07,0x01,0x00,0x3d,0x00,0x78,0x01
,0x00,0x02,0x00,0x80,0x00,0x00,0x02,0x00,0x80,0x00,0x00,0xc2,0xff,0x87,0x00
,0x00,0x3c,0x00,0x78,0x00,0x00,0x02,0x00,0x80,0x00,0x00,0xe1,0xff,0x0f,0x01
,0x00,0x1f,0x00,0xf0,0x01,0x80,0x00,0x00,0x00,0x02,0x00,0x3f,0x00,0xf8,0x01
,0x00,0xc0,0xff,0x07,0x00,0x00,0x00,0x00,0x00,0x00,0x00,0x00,0x00,0x00,0x00
,0x00,0x00,0x00,0x00,0x00
};
