#define q45o_width 45
#define q45o_height 45
static unsigned char q45o_bits[] = {
0x00,0x00,0x00,0x00,0x00,0x00,0x00,0x00,0x00,0x00,0x00,0x00,0x00,0x00,0xe0
,0x00,0x00,0x00,0x00,0x38,0x10,0x81,0x03,0x00,0x00,0x44,0x10,0x41,0x04,0x00
,0x00,0x44,0x10,0x41,0x04,0x00,0x00,0x44,0xe0,0x40,0x04,0x00,0x1c,0x38,0x40
,0x80,0x03,0x07,0x22,0x10,0x40,0x00,0x81,0x08,0x22,0x30,0xa0,0x80,0x81,0x08
,0x22,0x30,0xa0,0x80,0x81,0x08,0x14,0x30,0xa0,0x80,0x01,0x05,0x18,0x50,0xa0
,0x40,0x01,0x03,0x30,0x50,0xa0,0x40,0x81,0x01,0x30,0x50,0x10,0x41,0x81,0x01
,0x50,0x90,0x10,0x21,0x41,0x01,0x50,0x90,0x10,0x21,0x41,0x01,0xa0,0x88,0x10
,0x21,0xa2,0x00,0xa0,0x08,0x09,0x12,0xa2,0x00,0x20,0x09,0x09,0x12,0x92,0x00
,0x20,0x09,0x09,0x12,0x92,0x00,0x20,0x0a,0x0a,0x0a,0x8a,0x00,0x20,0x0a,0x0a
,0x0a,0x8a,0x00,0x20,0x0c,0x46,0x0c,0x86,0x00,0x40,0xcc,0xa4,0x64,0x46,0x00
,0x40,0x3a,0x1f,0x9f,0x4b,0x00,0xc0,0x0d,0x00,0x00,0x74,0x00,0x40,0x00,0x00
,0x00,0x40,0x00,0x80,0x00,0x00,0x00,0x20,0x00,0x00,0x01,0xff,0x1f,0x10,0x00
,0x00,0xfe,0x00,0xe0,0x0f,0x00,0x00,0x02,0x00,0x00,0x08,0x00,0x00,0x04,0x00
,0x00,0x04,0x00,0x00,0x04,0x00,0x00,0x04,0x00,0x00,0xe4,0xff,0xff,0x04,0x00
,0x00,0x1c,0x00,0x00,0x07,0x00,0x00,0x04,0x00,0x00,0x04,0x00,0x00,0xc2,0xff
,0x7f,0x08,0x00,0x00,0x3f,0x00,0x80,0x1f,0x00,0x80,0x00,0x00,0x00,0x20,0x00
,0x80,0x00,0x00,0x00,0x20,0x00,0x00,0x7f,0x00,0xc0,0x1f,0x00,0x00,0x80,0xff
,0x3f,0x00,0x00,0x00,0x00,0x00,0x00,0x00,0x00,0x00,0x00,0x00,0x00,0x00,0x00

};
