#define q49o_width 49
#define q49o_height 49
static unsigned char q49o_bits[] = {
0x00,0x00,0x00,0x00,0x00,0x00,0x00,0x00,0x00,0x00,0x00,0x00,0x00,0x00,0x00
,0x00,0x00,0x00,0x00,0x00,0x00,0x00,0x00,0x80,0x03,0x00,0x00,0x00,0x00,0x70
,0x40,0x04,0x1c,0x00,0x00,0x00,0x88,0x40,0x04,0x22,0x00,0x00,0x00,0x88,0x40
,0x04,0x22,0x00,0x00,0x00,0x88,0x80,0x02,0x22,0x00,0x00,0x1c,0x50,0x00,0x01
,0x14,0x70,0x00,0x22,0x20,0x00,0x01,0x08,0x88,0x00,0x22,0x60,0x80,0x02,0x0c
,0x88,0x00,0x22,0x60,0x80,0x02,0x0c,0x88,0x00,0x14,0x60,0x80,0x02,0x0c,0x50
,0x00,0x18,0xa0,0x80,0x02,0x0a,0x30,0x00,0x30,0xa0,0x80,0x02,0x0a,0x18,0x00
,0x60,0x20,0x41,0x04,0x09,0x0c,0x00,0x60,0x20,0x41,0x04,0x09,0x0c,0x00,0xa0
,0x20,0x41,0x04,0x09,0x0a,0x00,0xa0,0x20,0x42,0x84,0x08,0x0a,0x00,0x20,0x21
,0x42,0x84,0x08,0x09,0x00,0x20,0x22,0x22,0x88,0x88,0x08,0x00,0x40,0x22,0x24
,0x48,0x88,0x04,0x00,0x40,0x24,0x24,0x48,0x48,0x04,0x00,0x40,0x24,0x28,0x28
,0x48,0x04,0x00,0x40,0x28,0x28,0x28,0x28,0x04,0x00,0x40,0x30,0x18,0x31,0x18
,0x04,0x00,0x80,0x30,0x93,0x92,0x19,0x02,0x00,0x80,0xa4,0x7c,0x7c,0x4a,0x02
,0x00,0x80,0x7b,0x00,0x00,0xbc,0x03,0x00,0x80,0x00,0x00,0x00,0x00,0x02,0x00
,0x00,0x01,0x00,0x00,0x00,0x01,0x00,0x00,0x02,0x00,0x00,0x80,0x00,0x00,0x00
,0x02,0xff,0xff,0x81,0x00,0x00,0x00,0xfc,0x00,0x00,0x7e,0x00,0x00,0x00,0x04
,0x00,0x00,0x40,0x00,0x00,0x00,0x08,0x00,0x00,0x20,0x00,0x00,0x00,0x08,0x00
,0x00,0x20,0x00,0x00,0x00,0x88,0xff,0xff,0x23,0x00,0x00,0x00,0x78,0x00,0x00
,0x3c,0x00,0x00,0x00,0x04,0x00,0x00,0x40,0x00,0x00,0x00,0x04,0xff,0xff,0x41
,0x00,0x00,0x00,0xfe,0x00,0x00,0xfe,0x00,0x00,0x00,0x03,0x00,0x00,0x80,0x01
,0x00,0x00,0x03,0x00,0x00,0x80,0x01,0x00,0x00,0xfe,0x00,0x00,0xfe,0x00,0x00
,0x00,0x00,0xff,0xff,0x01,0x00,0x00,0x00,0x00,0x00,0x00,0x00,0x00,0x00,0x00
,0x00,0x00,0x00,0x00,0x00,0x00,0x00,0x00,0x00,0x00,0x00,0x00,0x00
};
