#define q58o_width 58
#define q58o_height 58
static unsigned char q58o_bits[] = {
0x00,0x00,0x00,0x00,0x00,0x00,0x00,0x00,0x00,0x00,0x00,0x00,0x00,0x00,0x00
,0x00,0x00,0x00,0x00,0x00,0x00,0x00,0x00,0x00,0x00,0x00,0x00,0x00,0x00,0x00
,0x00,0x00,0x00,0x00,0x00,0x30,0x00,0x00,0x00,0x00,0x00,0x00,0x00,0xfc,0x00
,0x00,0x00,0x00,0x00,0xc0,0x07,0xce,0x81,0x0f,0x00,0x00,0x00,0xe0,0x0f,0x86
,0xc1,0x1f,0x00,0x00,0x00,0x60,0x0c,0x86,0xc1,0x18,0x00,0x00,0x00,0x60,0x0c
,0xfe,0xc1,0x18,0x00,0x00,0x30,0x60,0x0c,0xfc,0xc0,0x18,0x30,0x00,0xfc,0xe0
,0x0f,0x30,0xc0,0x1f,0xfc,0x00,0xce,0xc1,0x07,0x78,0x80,0x0f,0xce,0x01,0x86
,0x01,0x07,0x78,0x80,0x03,0x86,0x01,0x8e,0x01,0x07,0x78,0x80,0x03,0xc6,0x01
,0xfc,0x01,0x07,0x78,0x80,0x03,0xfe,0x00,0xf8,0x00,0x0f,0xfc,0xc0,0x03,0x7c
,0x00,0xe0,0x00,0x0f,0xcc,0xc0,0x03,0x1c,0x00,0xe0,0x01,0x0f,0xcc,0xc0,0x03
,0x1e,0x00,0xe0,0x01,0x1f,0xcc,0xe0,0x03,0x1e,0x00,0xe0,0x03,0x1b,0xcc,0x60
,0x03,0x1f,0x00,0xc0,0x07,0x1b,0xce,0x61,0x83,0x0f,0x00,0xc0,0x86,0x3b,0x86
,0x71,0x87,0x0d,0x00,0xc0,0x8e,0x31,0x86,0x31,0xc6,0x0d,0x00,0xc0,0x8c,0x71
,0x86,0x39,0xc6,0x0c,0x00,0xc0,0x9c,0x61,0x87,0x1b,0xe6,0x0c,0x00,0xc0,0x99
,0x61,0x03,0x1b,0x66,0x0e,0x00,0x80,0xb9,0xe1,0x03,0x1f,0x76,0x06,0x00,0x80
,0xf1,0xc1,0x03,0x0f,0x3e,0x06,0x00,0x80,0xe1,0xc1,0x03,0x0f,0x1e,0x06,0x00
,0x80,0xe1,0xc9,0x79,0x4e,0x1e,0x06,0x00,0x80,0xc3,0xfd,0xff,0xff,0x0e,0x07
,0x00,0x00,0xfb,0xff,0x87,0xff,0x7f,0x03,0x00,0x00,0xff,0x03,0x00,0x00,0xff
,0x03,0x00,0x00,0x07,0x00,0x00,0x00,0x80,0x03,0x00,0x00,0x06,0x00,0x00,0x00
,0x80,0x01,0x00,0x00,0x0e,0x00,0x00,0x00,0xc0,0x01,0x00,0x00,0x1c,0xf0,0xff
,0x3f,0xe0,0x00,0x00,0x00,0xf8,0xff,0xff,0xff,0x7f,0x00,0x00,0x00,0xf0,0x0f
,0x00,0xc0,0x3f,0x00,0x00,0x00,0x70,0x00,0x00,0x00,0x38,0x00,0x00,0x00,0x60
,0x00,0x00,0x00,0x18,0x00,0x00,0x00,0x60,0xe0,0xff,0x1f,0x18,0x00,0x00,0x00
,0xe0,0xff,0xff,0xff,0x1f,0x00,0x00,0x00,0xe0,0x1f,0x00,0xe0,0x1f,0x00,0x00
,0x00,0x60,0x00,0x00,0x00,0x18,0x00,0x00,0x00,0x70,0xf0,0xff,0x3f,0x38,0x00
,0x00,0x00,0xf0,0xff,0xff,0xff,0x3f,0x00,0x00,0x00,0xf8,0x0f,0x00,0xc0,0x7f
,0x00,0x00,0x00,0x18,0x00,0x00,0x00,0x60,0x00,0x00,0x00,0x18,0x00,0x00,0x00
,0x60,0x00,0x00,0x00,0xf8,0x0f,0x00,0xc0,0x7f,0x00,0x00,0x00,0xe0,0xff,0xff
,0xff,0x1f,0x00,0x00,0x00,0x00,0xf0,0xff,0x3f,0x00,0x00,0x00,0x00,0x00,0x00
,0x00,0x00,0x00,0x00,0x00,0x00,0x00,0x00,0x00,0x00,0x00,0x00,0x00,0x00,0x00
,0x00,0x00,0x00,0x00,0x00,0x00,0x00,0x00,0x00,0x00,0x00,0x00,0x00,0x00
};
