#define q64o_width 64
#define q64o_height 64
static unsigned char q64o_bits[] = {
0x00,0x00,0x00,0x00,0x00,0x00,0x00,0x00,0x00,0x00,0x00,0x00,0x00,0x00,0x00
,0x00,0x00,0x00,0x00,0x00,0x00,0x00,0x00,0x00,0x00,0x00,0x00,0x00,0x00,0x00
,0x00,0x00,0x00,0x00,0x00,0x80,0x01,0x00,0x00,0x00,0x00,0x00,0x00,0xe0,0x07
,0x00,0x00,0x00,0x00,0x00,0x0c,0x70,0x0e,0x30,0x00,0x00,0x00,0x00,0x3f,0x30
,0x0c,0xfc,0x00,0x00,0x00,0x80,0x73,0x30,0x0c,0xce,0x01,0x00,0x00,0x80,0x61
,0x70,0x0e,0x86,0x01,0x00,0x00,0x80,0x61,0xe0,0x07,0x86,0x01,0x00,0x60,0x80
,0x73,0x80,0x01,0xce,0x01,0x06,0xf8,0x01,0x3f,0x80,0x01,0xfc,0x80,0x1f,0x9c
,0x03,0x0e,0xc0,0x03,0x70,0xc0,0x39,0x0c,0x03,0x1c,0xc0,0x03,0x38,0xc0,0x30
,0x0c,0x03,0x1c,0xc0,0x03,0x38,0xc0,0x30,0x9c,0x03,0x1c,0xc0,0x03,0x38,0xc0
,0x39,0xf8,0x01,0x3c,0xc0,0x03,0x3c,0x80,0x1f,0xf0,0x01,0x3e,0xe0,0x07,0x3c
,0x80,0x0f,0xc0,0x01,0x36,0x60,0x06,0x7c,0x80,0x03,0xc0,0x03,0x76,0x60,0x06
,0x6e,0xc0,0x03,0xc0,0x03,0x66,0x60,0x06,0x66,0xc0,0x03,0xc0,0x07,0xe6,0x60
,0x06,0x67,0xe0,0x03,0x80,0x07,0xc6,0x70,0x0e,0x63,0xe0,0x01,0x80,0x0f,0xc6
,0x30,0x0c,0x63,0xf0,0x01,0x80,0x0d,0xc6,0x31,0x8c,0x63,0xb0,0x01,0x80,0x1d
,0x86,0x31,0x8c,0x61,0xb8,0x01,0x80,0x19,0x86,0x31,0x8c,0x61,0x98,0x01,0x80
,0x3b,0x86,0x3b,0xdc,0x61,0xdc,0x01,0x00,0x33,0x06,0x1b,0xd8,0x60,0xcc,0x00
,0x00,0x73,0x07,0x1b,0xd8,0x60,0xce,0x00,0x00,0x63,0x03,0x1f,0xf8,0xe0,0xc6
,0x00,0x00,0xe3,0x03,0x1e,0x78,0xc0,0xc7,0x00,0x00,0xc3,0x03,0x1e,0x78,0xc0
,0xc3,0x00,0x00,0xc3,0x63,0xce,0x73,0xc6,0xc3,0x00,0x00,0x87,0xfb,0xff,0xff
,0xdf,0xe1,0x00,0x00,0xf6,0x9f,0x3f,0xfc,0xf9,0x6f,0x00,0x00,0xfe,0x07,0x00
,0x00,0xe0,0x7f,0x00,0x00,0x0e,0x00,0x00,0x00,0x00,0x70,0x00,0x00,0x0c,0x00
,0x00,0x00,0x00,0x30,0x00,0x00,0x1c,0x00,0x00,0x00,0x00,0x38,0x00,0x00,0x38
,0xc0,0xff,0xff,0x03,0x1c,0x00,0x00,0xf0,0xff,0xff,0xff,0xff,0x0f,0x00,0x00
,0xe0,0x3f,0x00,0x00,0xfc,0x07,0x00,0x00,0xe0,0x00,0x00,0x00,0x00,0x07,0x00
,0x00,0xc0,0x00,0x00,0x00,0x00,0x03,0x00,0x00,0xc0,0x00,0x00,0x00,0x00,0x03
,0x00,0x00,0xc0,0xc1,0xff,0xff,0x83,0x03,0x00,0x00,0x80,0xff,0xff,0xff,0xff
,0x01,0x00,0x00,0x80,0x3f,0x00,0x00,0xfc,0x01,0x00,0x00,0xc0,0x01,0x00,0x00
,0x80,0x03,0x00,0x00,0xc0,0xc0,0xff,0xff,0x03,0x03,0x00,0x00,0xe0,0xff,0xff
,0xff,0xff,0x07,0x00,0x00,0xf0,0x3f,0x00,0x00,0xfc,0x0f,0x00,0x00,0x70,0x00
,0x00,0x00,0x00,0x0e,0x00,0x00,0x30,0x00,0x00,0x00,0x00,0x0c,0x00,0x00,0xf0
,0x00,0x00,0x00,0x80,0x0f,0x00,0x00,0xe0,0xff,0x00,0x00,0xff,0x07,0x00,0x00
,0x00,0xfe,0xff,0xff,0xff,0x00,0x00,0x00,0x00,0x00,0xff,0xff,0x00,0x00,0x00
,0x00,0x00,0x00,0x00,0x00,0x00,0x00,0x00,0x00,0x00,0x00,0x00,0x00,0x00,0x00
,0x00,0x00,0x00,0x00,0x00,0x00,0x00,0x00,0x00,0x00,0x00,0x00,0x00,0x00,0x00
,0x00,0x00
};
