#define q72o_width 72
#define q72o_height 72
static unsigned char q72o_bits[] = {
0x00,0x00,0x00,0x00,0x00,0x00,0x00,0x00,0x00,0x00,0x00,0x00,0x00,0x00,0x00
,0x00,0x00,0x00,0x00,0x00,0x00,0x00,0x00,0x00,0x00,0x00,0x00,0x00,0x00,0x00
,0x00,0x3c,0x00,0x00,0x00,0x00,0x00,0x00,0x00,0x00,0x7e,0x00,0x00,0x00,0x00
,0x00,0x00,0x1c,0x00,0xe7,0x00,0x38,0x00,0x00,0x00,0x00,0x7f,0x00,0xc3,0x00
,0xfe,0x00,0x00,0x00,0x80,0xe3,0x00,0xc3,0x00,0xc7,0x01,0x00,0x00,0x80,0xc1
,0x00,0xc3,0x00,0x83,0x01,0x00,0x00,0x80,0xc1,0x00,0xe7,0x00,0x83,0x01,0x00
,0x00,0x80,0xc1,0x00,0x7e,0x00,0x83,0x01,0x00,0x38,0x80,0xe3,0x00,0x18,0x00
,0xc7,0x01,0x1c,0xfe,0x00,0x7f,0x00,0x18,0x00,0xfe,0x00,0x7f,0xc7,0x01,0x1c
,0x00,0x3c,0x00,0x38,0x80,0xe3,0x83,0x01,0x38,0x00,0x3c,0x00,0x1c,0x80,0xc1
,0x83,0x01,0x38,0x00,0x3c,0x00,0x1c,0x80,0xc1,0x83,0x01,0x78,0x00,0x3c,0x00
,0x1e,0x80,0xc1,0xc7,0x01,0x78,0x00,0x3c,0x00,0x1e,0x80,0xe3,0xfe,0x00,0x78
,0x00,0x7e,0x00,0x1e,0x00,0x7f,0xf8,0x00,0xf8,0x00,0x66,0x00,0x1f,0x00,0x1f
,0xe0,0x00,0xd8,0x00,0x66,0x00,0x1b,0x00,0x07,0xe0,0x01,0xd8,0x00,0x66,0x00
,0x1b,0x80,0x07,0xe0,0x01,0xd8,0x01,0xe7,0x80,0x1b,0x80,0x07,0xe0,0x03,0x98
,0x01,0xc3,0x80,0x19,0xc0,0x07,0xc0,0x07,0x98,0x01,0xc3,0x80,0x19,0xe0,0x03
,0xc0,0x06,0x98,0x03,0xc3,0xc0,0x19,0x60,0x03,0xc0,0x0e,0x18,0x03,0xc3,0xc0
,0x18,0x70,0x03,0xc0,0x0c,0x1c,0x87,0xc3,0xe1,0x38,0x30,0x03,0xc0,0x1c,0x0c
,0x86,0x81,0x61,0x30,0x38,0x03,0xc0,0x19,0x0c,0x86,0x81,0x61,0x30,0x98,0x03
,0x80,0x39,0x0c,0x8e,0x81,0x71,0x30,0x9c,0x01,0x80,0x31,0x0c,0x8c,0x81,0x31
,0x30,0x8c,0x01,0x80,0x71,0x0c,0xcc,0x81,0x33,0x30,0x8e,0x01,0x80,0xe1,0x0c
,0xdc,0x00,0x3b,0x30,0x87,0x01,0x80,0xc1,0x0c,0xd8,0x00,0x1b,0x30,0x83,0x01
,0x80,0xc3,0x0d,0xf8,0x00,0x1f,0xb0,0xc3,0x01,0x00,0x83,0x0d,0xf0,0x00,0x0f
,0xb0,0xc1,0x00,0x00,0x83,0x0f,0xf0,0x18,0x0f,0xf0,0xc1,0x00,0x00,0x03,0x0f
,0x71,0x7e,0x8e,0xf0,0xc0,0x00,0x00,0x03,0xcf,0xff,0xff,0xff,0xf3,0xc0,0x00
,0x00,0x43,0xee,0xfe,0x81,0x7f,0x77,0xc2,0x00,0x00,0xf7,0x7f,0x00,0x00,0x00
,0xfe,0xef,0x00,0x00,0xbe,0x1f,0x00,0x00,0x00,0xf8,0x7d,0x00,0x00,0x0e,0x00
,0x00,0x00,0x00,0x00,0x70,0x00,0x00,0x0e,0x00,0x00,0x00,0x00,0x00,0x70,0x00
,0x00,0x1c,0x00,0x00,0x00,0x00,0x00,0x38,0x00,0x00,0x38,0x00,0x00,0x00,0x00
,0x00,0x1c,0x00,0x00,0x70,0x00,0xfe,0xff,0x7f,0x00,0x0e,0x00,0x00,0xe0,0xfc
,0xff,0xff,0xff,0x3f,0x07,0x00,0x00,0xc0,0xff,0x01,0x00,0x80,0xff,0x03,0x00
,0x00,0xc0,0x03,0x00,0x00,0x00,0xc0,0x03,0x00,0x00,0x80,0x01,0x00,0x00,0x00
,0x80,0x01,0x00,0x00,0x80,0x01,0x00,0x00,0x00,0x80,0x01,0x00,0x00,0x80,0x01
,0x00,0x00,0x00,0x80,0x01,0x00,0x00,0x80,0x01,0xfc,0xff,0x3f,0x80,0x01,0x00
,0x00,0x80,0xff,0xff,0xff,0xff,0xff,0x01,0x00,0x00,0x00,0xff,0x03,0x00,0xc0
,0xff,0x00,0x00,0x00,0x80,0x03,0x00,0x00,0x00,0xc0,0x01,0x00,0x00,0x80,0x01
,0xf8,0xff,0x1f,0x80,0x01,0x00,0x00,0xc0,0xe1,0xff,0xff,0xff,0x87,0x03,0x00
,0x00,0xc0,0xff,0x07,0x00,0xe0,0xff,0x03,0x00,0x00,0xe0,0x1f,0x00,0x00,0x00
,0xf8,0x07,0x00,0x00,0x70,0x00,0x00,0x00,0x00,0x00,0x0e,0x00,0x00,0x30,0x00
,0x00,0x00,0x00,0x00,0x0c,0x00,0x00,0x30,0x00,0x00,0x00,0x00,0x00,0x0c,0x00
,0x00,0xf0,0x07,0x00,0x00,0x00,0xe0,0x0f,0x00,0x00,0xe0,0xff,0x03,0x00,0xc0
,0xff,0x07,0x00,0x00,0x00,0xf8,0xff,0xff,0xff,0x1f,0x00,0x00,0x00,0x00,0x00
,0xfc,0xff,0x3f,0x00,0x00,0x00,0x00,0x00,0x00,0x00,0x00,0x00,0x00,0x00,0x00
,0x00,0x00,0x00,0x00,0x00,0x00,0x00,0x00,0x00,0x00,0x00,0x00,0x00,0x00,0x00
,0x00,0x00,0x00
};
