#define q87o_width 87
#define q87o_height 87
static unsigned char q87o_bits[] = {
0x00,0x00,0x00,0x00,0x00,0x00,0x00,0x00,0x00,0x00,0x00,0x00,0x00,0x00,0x00
,0x00,0x00,0x00,0x00,0x00,0x00,0x00,0x00,0x00,0x00,0x00,0x00,0x00,0x00,0x00
,0x00,0x00,0x00,0x00,0x00,0x00,0x00,0x00,0x00,0x00,0x00,0x00,0x00,0x00,0x00
,0x00,0x00,0x00,0x00,0x00,0x00,0x00,0x00,0x00,0x00,0x00,0x00,0x00,0x00,0x00
,0x1c,0x00,0x00,0x00,0x00,0x00,0x00,0x00,0x00,0x00,0x00,0x7f,0x00,0x00,0x00
,0x00,0x00,0x00,0x00,0x00,0x00,0x80,0xff,0x00,0x00,0x00,0x00,0x00,0x00,0x00
,0x80,0x03,0x80,0xe3,0x00,0xe0,0x00,0x00,0x00,0x00,0x00,0xe0,0x0f,0xc0,0xc1
,0x01,0xf8,0x03,0x00,0x00,0x00,0x00,0xf0,0x1f,0xc0,0xc1,0x01,0xfc,0x07,0x00
,0x00,0x00,0x00,0x70,0x1c,0xc0,0xc1,0x01,0x1c,0x07,0x00,0x00,0x00,0x00,0x38
,0x38,0x80,0xe3,0x00,0x0e,0x0e,0x00,0x00,0x00,0x00,0x38,0x38,0x80,0xff,0x00
,0x0e,0x0e,0x00,0x00,0x00,0x00,0x38,0x38,0x00,0x7f,0x00,0x0e,0x0e,0x00,0x00
,0x80,0x03,0xf0,0x1c,0x00,0x1c,0x00,0x9c,0x07,0xe0,0x00,0xe0,0x0f,0xf0,0x1f
,0x00,0x1c,0x00,0xfc,0x07,0xf8,0x03,0xf0,0x1f,0xe0,0x0f,0x00,0x3e,0x00,0xf8
,0x03,0xfc,0x07,0x70,0x1c,0x00,0x07,0x00,0x3e,0x00,0x70,0x00,0x1c,0x07,0x38
,0x38,0x00,0x0f,0x00,0x3e,0x00,0x78,0x00,0x0e,0x0e,0x38,0x38,0x00,0x0f,0x00
,0x3e,0x00,0x78,0x00,0x0e,0x0e,0x38,0x38,0x00,0x0f,0x00,0x3e,0x00,0x78,0x00
,0x0e,0x0e,0x70,0x1c,0x00,0x1f,0x00,0x77,0x00,0x7c,0x00,0x1c,0x07,0xf0,0x1f
,0x00,0x1f,0x00,0x77,0x00,0x7c,0x00,0xfc,0x07,0xe0,0x0f,0x00,0x3f,0x00,0x77
,0x00,0x7e,0x00,0xf8,0x03,0x80,0x0f,0x00,0x3f,0x00,0x77,0x00,0x7e,0x00,0xf8
,0x00,0x00,0x0e,0x00,0x3f,0x00,0x77,0x00,0x7e,0x00,0x38,0x00,0x00,0x1e,0x00
,0x77,0x80,0xe3,0x00,0x77,0x00,0x3c,0x00,0x00,0x3e,0x00,0x77,0x80,0xe3,0x00
,0x77,0x00,0x3e,0x00,0x00,0x3e,0x00,0x77,0x80,0xe3,0x00,0x77,0x00,0x3e,0x00
,0x00,0x7e,0x00,0xe7,0x80,0xe3,0x80,0x73,0x00,0x3f,0x00,0x00,0x7c,0x00,0xe7
,0x80,0xe3,0x80,0x73,0x00,0x1f,0x00,0x00,0xfc,0x00,0xe7,0xc0,0xc1,0x81,0x73
,0x80,0x1f,0x00,0x00,0xfc,0x81,0xc3,0xc1,0xc1,0xc1,0x71,0xc0,0x1f,0x00,0x00
,0xdc,0x81,0xc3,0xc1,0xc1,0xc1,0xe1,0xc0,0x1d,0x00,0x00,0x9c,0x83,0xc3,0xc1
,0xc1,0xc1,0xe1,0xe0,0x1c,0x00,0x00,0x9c,0x83,0x83,0xc3,0xc1,0xe1,0xe0,0xe0
,0x1c,0x00,0x00,0x38,0x87,0x83,0xe3,0x80,0xe3,0xe0,0x70,0x0e,0x00,0x00,0x38
,0x87,0x83,0xe3,0x80,0xe3,0xe0,0x70,0x0e,0x00,0x00,0x38,0x8e,0x03,0xe7,0x80
,0x73,0xe0,0x38,0x0e,0x00,0x00,0x38,0x9e,0x03,0xe7,0x80,0x73,0xe0,0x3c,0x0e
,0x00,0x00,0x38,0x9c,0x03,0xe7,0x80,0x73,0xe0,0x1c,0x0e,0x00,0x00,0x38,0xb8
,0x03,0x7e,0x00,0x3f,0xe0,0x0e,0x0e,0x00,0x00,0x70,0xb8,0x03,0x7e,0x00,0x3f
,0xe0,0x0e,0x07,0x00,0x00,0x70,0xf0,0x03,0x7e,0x00,0x3f,0xe0,0x07,0x07,0x00
,0x00,0x70,0xf0,0x03,0x7c,0x08,0x1f,0xe0,0x07,0x07,0x00,0x00,0x70,0xe0,0x43
,0x7c,0x1c,0x1f,0xe1,0x03,0x07,0x00,0x00,0x70,0xe0,0xf3,0xbd,0xff,0xde,0xe7
,0x03,0x07,0x00,0x00,0x70,0xcc,0xff,0xff,0xff,0xff,0xff,0x19,0x07,0x00,0x00
,0xe0,0xfe,0xbf,0xff,0xe3,0xff,0xfe,0xbf,0x03,0x00,0x00,0xe0,0xff,0x0f,0x7e
,0x00,0x3f,0xf8,0xff,0x03,0x00,0x00,0xe0,0xf7,0x03,0x00,0x00,0x00,0xe0,0xf7
,0x03,0x00,0x00,0xe0,0x01,0x00,0x00,0x00,0x00,0x00,0xc0,0x03,0x00,0x00,0xc0
,0x03,0x00,0x00,0x00,0x00,0x00,0xe0,0x01,0x00,0x00,0x80,0x03,0x00,0x00,0x00
,0x00,0x00,0xe0,0x00,0x00,0x00,0x00,0x07,0x00,0xfe,0xff,0x3f,0x00,0x70,0x00
,0x00,0x00,0x00,0x0f,0xfc,0xff,0xff,0xff,0x1f,0x78,0x00,0x00,0x00,0x00,0xfe
,0xff,0xff,0xff,0xff,0xff,0x3f,0x00,0x00,0x00,0x00,0xfc,0xff,0x01,0x00,0xc0
,0xff,0x1f,0x00,0x00,0x00,0x00,0xfc,0x03,0x00,0x00,0x00,0xe0,0x1f,0x00,0x00
,0x00,0x00,0x38,0x00,0x00,0x00,0x00,0x00,0x0e,0x00,0x00,0x00,0x00,0x38,0x00
,0x00,0x00,0x00,0x00,0x0e,0x00,0x00,0x00,0x00,0x38,0x00,0x00,0x00,0x00,0x00
,0x0e,0x00,0x00,0x00,0x00,0x38,0x00,0xfc,0xff,0x1f,0x00,0x0e,0x00,0x00,0x00
,0x00,0x70,0xfc,0xff,0xff,0xff,0x1f,0x07,0x00,0x00,0x00,0x00,0xf0,0xff,0xff
,0xff,0xff,0xff,0x07,0x00,0x00,0x00,0x00,0xf0,0xff,0x03,0x00,0xe0,0xff,0x07
,0x00,0x00,0x00,0x00,0xf0,0x03,0x00,0x00,0x00,0xe0,0x07,0x00,0x00,0x00,0x00
,0x70,0x00,0x00,0x00,0x00,0x00,0x07,0x00,0x00,0x00,0x00,0x38,0x00,0xfe,0xff
,0x3f,0x00,0x0e,0x00,0x00,0x00,0x00,0x38,0xff,0xff,0xff,0xff,0x7f,0x0e,0x00
,0x00,0x00,0x00,0xfc,0xff,0xff,0xff,0xff,0xff,0x1f,0x00,0x00,0x00,0x00,0xfc
,0xff,0x01,0x00,0xc0,0xff,0x1f,0x00,0x00,0x00,0x00,0xfe,0x00,0x00,0x00,0x00
,0x80,0x3f,0x00,0x00,0x00,0x00,0x0e,0x00,0x00,0x00,0x00,0x00,0x38,0x00,0x00
,0x00,0x00,0x0e,0x00,0x00,0x00,0x00,0x00,0x38,0x00,0x00,0x00,0x00,0xfe,0x01
,0x00,0x00,0x00,0xc0,0x3f,0x00,0x00,0x00,0x00,0xfc,0xff,0x01,0x00,0xc0,0xff
,0x1f,0x00,0x00,0x00,0x00,0xf0,0xff,0xff,0xff,0xff,0xff,0x07,0x00,0x00,0x00
,0x00,0x00,0xfe,0xff,0xff,0xff,0x3f,0x00,0x00,0x00,0x00,0x00,0x00,0x00,0xfe
,0xff,0x3f,0x00,0x00,0x00,0x00,0x00,0x00,0x00,0x00,0x00,0x00,0x00,0x00,0x00
,0x00,0x00,0x00,0x00,0x00,0x00,0x00,0x00,0x00,0x00,0x00,0x00,0x00,0x00,0x00
,0x00,0x00,0x00,0x00,0x00,0x00,0x00,0x00,0x00,0x00,0x00,0x00,0x00,0x00,0x00
,0x00,0x00,0x00,0x00,0x00,0x00,0x00,0x00,0x00,0x00,0x00,0x00,0x00,0x00,0x00
,0x00,0x00,0x00,0x00,0x00,0x00,0x00,0x00,0x00,0x00,0x00,0x00
};
