#define q95o_width 95
#define q95o_height 95
static unsigned char q95o_bits[] = {
0x00,0x00,0x00,0x00,0x00,0x00,0x00,0x00,0x00,0x00,0x00,0x00,0x00,0x00,0x00
,0x00,0x00,0x00,0x00,0x00,0x00,0x00,0x00,0x00,0x00,0x00,0x00,0x00,0x00,0x00
,0x00,0x00,0x00,0x00,0x00,0x00,0x00,0x00,0x00,0x00,0x00,0x00,0x00,0x00,0x00
,0x00,0x00,0x00,0x00,0x00,0x00,0x00,0x00,0x00,0x00,0x00,0x00,0x00,0x00,0x00
,0x00,0x00,0x00,0x00,0x00,0x00,0x00,0x00,0x00,0x00,0x00,0x00,0x00,0x00,0x00
,0x00,0x00,0x00,0x00,0x00,0x00,0x00,0x00,0x00,0x00,0x00,0x00,0x00,0x00,0xc0
,0x01,0x00,0x00,0x00,0x00,0x00,0x00,0x00,0x00,0x00,0x00,0xf0,0x07,0x00,0x00
,0x00,0x00,0x00,0x00,0x00,0x00,0x00,0x00,0xf8,0x0f,0x00,0x00,0x00,0x00,0x00
,0x00,0x00,0x00,0x1e,0x00,0x38,0x0e,0x00,0x3c,0x00,0x00,0x00,0x00,0x00,0x80
,0x7f,0x00,0x1c,0x1c,0x00,0xff,0x00,0x00,0x00,0x00,0x00,0xc0,0xff,0x00,0x1c
,0x1c,0x80,0xff,0x01,0x00,0x00,0x00,0x00,0xc0,0xe1,0x00,0x1c,0x1c,0x80,0xc3
,0x01,0x00,0x00,0x00,0x00,0xe0,0xc0,0x01,0x1c,0x1c,0xc0,0x81,0x03,0x00,0x00
,0x00,0x00,0xe0,0xc0,0x01,0x78,0x0f,0xc0,0x81,0x03,0x00,0x00,0x00,0x00,0xe0
,0xc0,0x01,0xf8,0x0f,0xc0,0x81,0x03,0x00,0x00,0x00,0x00,0xe0,0xe0,0x00,0xf0
,0x07,0x80,0x83,0x03,0x00,0x00,0x80,0x07,0xc0,0xfb,0x00,0xc0,0x01,0x80,0xef
,0x01,0xf0,0x00,0xe0,0x1f,0xc0,0x7f,0x00,0xe0,0x03,0x00,0xff,0x01,0xfc,0x03
,0xf0,0x3f,0x80,0x3f,0x00,0xe0,0x03,0x00,0xfe,0x00,0xfe,0x07,0x70,0x38,0x00
,0x3c,0x00,0xe0,0x03,0x00,0x1e,0x00,0x0e,0x07,0x38,0x70,0x00,0x3c,0x00,0xe0
,0x03,0x00,0x1e,0x00,0x07,0x0e,0x38,0x70,0x00,0x3c,0x00,0xe0,0x03,0x00,0x1e
,0x00,0x07,0x0e,0x38,0x70,0x00,0x7c,0x00,0x70,0x07,0x00,0x1f,0x00,0x07,0x0e
,0x38,0x38,0x00,0x7c,0x00,0x70,0x07,0x00,0x1f,0x00,0x0e,0x0e,0x70,0x3c,0x00
,0x7c,0x00,0x70,0x07,0x00,0x1f,0x00,0x1e,0x07,0xf0,0x1f,0x00,0xfc,0x00,0x70
,0x07,0x80,0x1f,0x00,0xfc,0x07,0xe0,0x0f,0x00,0xfc,0x00,0x70,0x07,0x80,0x1f
,0x00,0xf8,0x03,0x80,0x1f,0x00,0xfc,0x00,0x38,0x0e,0x80,0x1f,0x00,0xfc,0x00
,0x00,0x3e,0x00,0xdc,0x01,0x38,0x0e,0xc0,0x1d,0x00,0x3e,0x00,0x00,0x3e,0x00
,0xdc,0x01,0x38,0x0e,0xc0,0x1d,0x00,0x3e,0x00,0x00,0x7c,0x00,0xdc,0x01,0x38
,0x0e,0xc0,0x1d,0x00,0x1f,0x00,0x00,0x7c,0x00,0x9c,0x03,0x1c,0x1c,0xe0,0x1c
,0x00,0x1f,0x00,0x00,0xfc,0x00,0x9c,0x03,0x1c,0x1c,0xe0,0x1c,0x80,0x1f,0x00
,0x00,0xfc,0x01,0x9c,0x03,0x1c,0x1c,0xe0,0x1c,0xc0,0x1f,0x00,0x00,0xdc,0x01
,0x1c,0x07,0x1c,0x1c,0x70,0x1c,0xc0,0x1d,0x00,0x00,0xb8,0x03,0x0e,0x07,0x1c
,0x1c,0x70,0x1c,0xe0,0x0e,0x00,0x00,0xb8,0x03,0x0e,0x0e,0x0e,0x38,0x38,0x38
,0xe0,0x0e,0x00,0x00,0x38,0x07,0x0e,0x0e,0x0e,0x38,0x38,0x38,0x70,0x0e,0x00
,0x00,0x38,0x0f,0x0e,0x0e,0x0e,0x38,0x38,0x38,0x78,0x0e,0x00,0x00,0x38,0x0e
,0x0e,0x1c,0x0e,0x38,0x1c,0x38,0x38,0x0e,0x00,0x00,0x38,0x1c,0x0e,0x1c,0x07
,0x70,0x1c,0x38,0x1c,0x0e,0x00,0x00,0x70,0x1c,0x0e,0x1c,0x07,0x70,0x1c,0x38
,0x1c,0x07,0x00,0x00,0x70,0x38,0x0e,0x38,0x07,0x70,0x0e,0x38,0x0e,0x07,0x00
,0x00,0x70,0x38,0x0e,0x38,0x07,0x70,0x0e,0x38,0x0e,0x07,0x00,0x00,0x70,0x70
,0x0e,0x38,0x07,0x70,0x0e,0x38,0x07,0x07,0x00,0x00,0x70,0xf0,0x0e,0xf0,0x03
,0xe0,0x07,0xb8,0x07,0x07,0x00,0x00,0x70,0xe0,0x0e,0xf0,0x03,0xe0,0x07,0xb8
,0x03,0x07,0x00,0x00,0xe0,0xc0,0x0f,0xf0,0x03,0xe0,0x07,0xf8,0x81,0x03,0x00
,0x00,0xe0,0xc0,0x0f,0xe0,0x83,0xe0,0x03,0xf8,0x81,0x03,0x00,0x00,0xe0,0x80
,0x0f,0xe3,0xe3,0xe3,0x63,0xf8,0x80,0x03,0x00,0x00,0xe0,0x80,0x8f,0xef,0xf9
,0xcf,0xfb,0xf8,0x80,0x03,0x00,0x00,0xe0,0x30,0xff,0xff,0x7f,0xff,0xff,0x7f
,0x86,0x03,0x00,0x00,0xe0,0xfd,0xff,0xff,0x1f,0xfc,0xff,0xff,0xdf,0x03,0x00
,0x00,0xc0,0xff,0x7f,0xf0,0x07,0xf0,0x07,0xff,0xff,0x01,0x00,0x00,0xc0,0xcf
,0x0f,0x00,0x00,0x00,0x00,0xf8,0xf9,0x01,0x00,0x00,0xc0,0x03,0x00,0x00,0x00
,0x00,0x00,0x00,0xe0,0x01,0x00,0x00,0x80,0x03,0x00,0x00,0x00,0x00,0x00,0x00
,0xe0,0x00,0x00,0x00,0x00,0x07,0x00,0x00,0x00,0x00,0x00,0x00,0x70,0x00,0x00
,0x00,0x00,0x0f,0x00,0x00,0x00,0x00,0x00,0x00,0x78,0x00,0x00,0x00,0x00,0x1e
,0x00,0x00,0x00,0x00,0x00,0x00,0x3c,0x00,0x00,0x00,0x00,0x1c,0x00,0xf8,0xff
,0xff,0x0f,0x00,0x1c,0x00,0x00,0x00,0x00,0x38,0xfc,0xff,0xff,0xff,0xff,0x1f
,0x0e,0x00,0x00,0x00,0x00,0xf8,0xff,0xff,0xff,0xff,0xff,0xff,0x0f,0x00,0x00
,0x00,0x00,0xf0,0xff,0x07,0x00,0x00,0xf0,0xff,0x07,0x00,0x00,0x00,0x00,0xf0
,0x03,0x00,0x00,0x00,0x00,0xe0,0x07,0x00,0x00,0x00,0x00,0xe0,0x00,0x00,0x00
,0x00,0x00,0x80,0x03,0x00,0x00,0x00,0x00,0xe0,0x00,0x00,0x00,0x00,0x00,0x80
,0x03,0x00,0x00,0x00,0x00,0xe0,0x00,0x00,0x00,0x00,0x00,0x80,0x03,0x00,0x00
,0x00,0x00,0xe0,0x00,0xe0,0xff,0xff,0x03,0x80,0x03,0x00,0x00,0x00,0x00,0xc0
,0xe1,0xff,0xff,0xff,0xff,0xc3,0x01,0x00,0x00,0x00,0x00,0xc0,0xff,0xff,0xff
,0xff,0xff,0xff,0x01,0x00,0x00,0x00,0x00,0xc0,0xff,0x1f,0x00,0x00,0xfc,0xff
,0x01,0x00,0x00,0x00,0x00,0xc0,0x1f,0x00,0x00,0x00,0x00,0xfc,0x01,0x00,0x00
,0x00,0x00,0xe0,0x00,0x00,0x00,0x00,0x00,0x80,0x03,0x00,0x00,0x00,0x00,0xe0
,0x00,0xf0,0xff,0xff,0x07,0x80,0x03,0x00,0x00,0x00,0x00,0x70,0xf0,0xff,0xff
,0xff,0xff,0x07,0x07,0x00,0x00,0x00,0x00,0xf0,0xff,0xff,0xff,0xff,0xff,0xff
,0x07,0x00,0x00,0x00,0x00,0xf8,0xff,0x0f,0x00,0x00,0xf8,0xff,0x0f,0x00,0x00
,0x00,0x00,0xfc,0x0f,0x00,0x00,0x00,0x00,0xf8,0x1f,0x00,0x00,0x00,0x00,0x1c
,0x00,0x00,0x00,0x00,0x00,0x00,0x1c,0x00,0x00,0x00,0x00,0x1c,0x00,0x00,0x00
,0x00,0x00,0x00,0x1c,0x00,0x00,0x00,0x00,0x1c,0x00,0x00,0x00,0x00,0x00,0x00
,0x1c,0x00,0x00,0x00,0x00,0xfc,0x0f,0x00,0x00,0x00,0x00,0xf8,0x1f,0x00,0x00
,0x00,0x00,0xf8,0xff,0x0f,0x00,0x00,0xf8,0xff,0x0f,0x00,0x00,0x00,0x00,0xe0
,0xff,0xff,0xff,0xff,0xff,0xff,0x03,0x00,0x00,0x00,0x00,0x00,0xf0,0xff,0xff
,0xff,0xff,0x07,0x00,0x00,0x00,0x00,0x00,0x00,0x00,0xf0,0xff,0xff,0x07,0x00
,0x00,0x00,0x00,0x00,0x00,0x00,0x00,0x00,0x00,0x00,0x00,0x00,0x00,0x00,0x00
,0x00,0x00,0x00,0x00,0x00,0x00,0x00,0x00,0x00,0x00,0x00,0x00,0x00,0x00,0x00
,0x00,0x00,0x00,0x00,0x00,0x00,0x00,0x00,0x00,0x00,0x00,0x00,0x00,0x00,0x00
,0x00,0x00,0x00,0x00,0x00,0x00,0x00,0x00,0x00,0x00,0x00,0x00,0x00,0x00,0x00
,0x00,0x00,0x00,0x00,0x00,0x00,0x00,0x00,0x00,0x00,0x00,0x00,0x00,0x00,0x00

};
