#define r21o_width 21
#define r21o_height 21
static unsigned char r21o_bits[] = {
0x00,0x00,0x00,0x00,0x00,0x00,0x70,0xce,0x01,0xd0,0x7b,0x01,0x10,0x00,0x01
,0xf0,0xff,0x01,0x40,0x40,0x00,0xc0,0x7f,0x00,0x40,0x40,0x00,0x40,0x40,0x00
,0x40,0x40,0x00,0x40,0x40,0x00,0x40,0x40,0x00,0x40,0x40,0x00,0xc0,0x7f,0x00
,0x60,0xc0,0x00,0xf0,0xff,0x01,0x18,0x00,0x03,0xf8,0xff,0x03,0x00,0x00,0x00
,0x00,0x00,0x00
};
