#define r29o_width 29
#define r29o_height 29
static unsigned char r29o_bits[] = {
0x00,0x00,0x00,0x00,0x00,0x00,0x00,0x00,0x00,0x00,0x00,0x00,0xc0,0xe3,0x79
,0x00,0x40,0x22,0x49,0x00,0x40,0x3e,0x4f,0x00,0x40,0x00,0x40,0x00,0xc0,0xff
,0x7f,0x00,0x80,0x00,0x20,0x00,0x00,0xff,0x1f,0x00,0x00,0x01,0x10,0x00,0x00
,0x01,0x10,0x00,0x00,0x01,0x10,0x00,0x00,0x01,0x10,0x00,0x00,0x01,0x10,0x00
,0x00,0x01,0x10,0x00,0x00,0x01,0x10,0x00,0x00,0x01,0x10,0x00,0x00,0xff,0x1f
,0x00,0x00,0x01,0x30,0x00,0xc0,0xff,0x7f,0x00,0x40,0x00,0x40,0x00,0x40,0x00
,0x40,0x00,0xf0,0xff,0xff,0x01,0x10,0x00,0x00,0x01,0xf0,0xff,0xff,0x01,0x00
,0x00,0x00,0x00,0x00,0x00,0x00,0x00,0x00,0x00,0x00,0x00
};
