#define r45o_width 45
#define r45o_height 45
static unsigned char r45o_bits[] = {
0x00,0x00,0x00,0x00,0x00,0x00,0x00,0x00,0x00,0x00,0x00,0x00,0x00,0x00,0x00
,0x00,0x00,0x00,0x00,0x00,0x00,0x00,0x00,0x00,0x00,0x7f,0xf0,0x83,0x1f,0x00
,0x00,0x41,0x10,0x82,0x10,0x00,0x00,0x41,0x10,0x82,0x10,0x00,0x00,0xc1,0x1f
,0xfe,0x10,0x00,0x00,0x01,0x00,0x00,0x10,0x00,0x00,0x01,0x00,0x00,0x10,0x00
,0x00,0xff,0xff,0xff,0x1f,0x00,0x00,0x02,0x00,0x00,0x08,0x00,0x00,0x04,0x00
,0x00,0x04,0x00,0x00,0x08,0x00,0x00,0x02,0x00,0x00,0xf0,0xff,0xff,0x01,0x00
,0x00,0x10,0x00,0x00,0x01,0x00,0x00,0x10,0x00,0x00,0x01,0x00,0x00,0x10,0x00
,0x00,0x01,0x00,0x00,0x10,0x00,0x00,0x01,0x00,0x00,0x10,0x00,0x00,0x01,0x00
,0x00,0x10,0x00,0x00,0x01,0x00,0x00,0x10,0x00,0x00,0x01,0x00,0x00,0x10,0x00
,0x00,0x01,0x00,0x00,0x10,0x00,0x00,0x01,0x00,0x00,0x10,0x00,0x00,0x01,0x00
,0x00,0x10,0x00,0x00,0x01,0x00,0x00,0x10,0x00,0x00,0x01,0x00,0x00,0x10,0x00
,0x00,0x01,0x00,0x00,0xf0,0xff,0xff,0x01,0x00,0x00,0x10,0x00,0x00,0x02,0x00
,0x00,0x08,0x00,0x00,0x04,0x00,0x00,0x04,0x00,0x00,0x08,0x00,0x00,0xfe,0xff
,0xff,0x0f,0x00,0x00,0x02,0x00,0x00,0x08,0x00,0x00,0x02,0x00,0x00,0x08,0x00
,0x00,0x02,0x00,0x00,0x08,0x00,0xc0,0xff,0xff,0xff,0x7f,0x00,0x40,0x00,0x00
,0x00,0x40,0x00,0x40,0x00,0x00,0x00,0x40,0x00,0x40,0x00,0x00,0x00,0x40,0x00
,0xc0,0xff,0xff,0xff,0x7f,0x00,0x00,0x00,0x00,0x00,0x00,0x00,0x00,0x00,0x00
,0x00,0x00,0x00,0x00,0x00,0x00,0x00,0x00,0x00,0x00,0x00,0x00,0x00,0x00,0x00

};
