#define r54o_width 54
#define r54o_height 54
static unsigned char r54o_bits[] = {
0x00,0x00,0x00,0x00,0x00,0x00,0x00,0x00,0x00,0x00,0x00,0x00,0x00,0x00,0x00
,0x00,0x00,0x00,0x00,0x00,0x00,0x00,0x00,0x00,0x00,0x00,0x00,0x00,0x00,0x00
,0x00,0x00,0x00,0x00,0x00,0x00,0x00,0x00,0x00,0x00,0x00,0x00,0x00,0xfc,0x83
,0x7f,0xf8,0x0f,0x00,0x00,0xfc,0x83,0x7f,0xf8,0x0f,0x00,0x00,0x0c,0x83,0x61
,0x18,0x0c,0x00,0x00,0x0c,0xff,0xe1,0x1f,0x0c,0x00,0x00,0x0c,0xff,0xe1,0x1f
,0x0c,0x00,0x00,0x0c,0x00,0x00,0x00,0x0c,0x00,0x00,0xfc,0xff,0xff,0xff,0x0f
,0x00,0x00,0xfc,0xff,0xff,0xff,0x0f,0x00,0x00,0x38,0x00,0x00,0x00,0x07,0x00
,0x00,0xf0,0x00,0x00,0xc0,0x03,0x00,0x00,0xc0,0xff,0xff,0xff,0x00,0x00,0x00
,0x80,0xff,0xff,0x7f,0x00,0x00,0x00,0x80,0x01,0x00,0x60,0x00,0x00,0x00,0x80
,0x01,0x00,0x60,0x00,0x00,0x00,0x80,0x01,0x00,0x60,0x00,0x00,0x00,0x80,0x01
,0x00,0x60,0x00,0x00,0x00,0x80,0x01,0x00,0x60,0x00,0x00,0x00,0x80,0x01,0x00
,0x60,0x00,0x00,0x00,0x80,0x01,0x00,0x60,0x00,0x00,0x00,0x80,0x01,0x00,0x60
,0x00,0x00,0x00,0x80,0x01,0x00,0x60,0x00,0x00,0x00,0x80,0x01,0x00,0x60,0x00
,0x00,0x00,0x80,0x01,0x00,0x60,0x00,0x00,0x00,0x80,0x01,0x00,0x60,0x00,0x00
,0x00,0x80,0x01,0x00,0x60,0x00,0x00,0x00,0x80,0x01,0x00,0x60,0x00,0x00,0x00
,0x80,0x01,0x00,0x60,0x00,0x00,0x00,0x80,0x01,0x00,0x60,0x00,0x00,0x00,0x80
,0x01,0x00,0x60,0x00,0x00,0x00,0xc0,0xff,0xff,0xff,0x00,0x00,0x00,0xe0,0xff
,0xff,0xff,0x01,0x00,0x00,0x70,0x00,0x00,0x80,0x03,0x00,0x00,0xf8,0xff,0xff
,0xff,0x07,0x00,0x00,0xf8,0xff,0xff,0xff,0x07,0x00,0x00,0x18,0x00,0x00,0x00
,0x06,0x00,0x00,0x18,0x00,0x00,0x00,0x06,0x00,0x00,0xff,0xff,0xff,0xff,0x3f
,0x00,0x00,0xff,0xff,0xff,0xff,0x3f,0x00,0x00,0x03,0x00,0x00,0x00,0x30,0x00
,0x00,0x03,0x00,0x00,0x00,0x30,0x00,0x00,0xff,0xff,0xff,0xff,0x3f,0x00,0x00
,0xff,0xff,0xff,0xff,0x3f,0x00,0x00,0x00,0x00,0x00,0x00,0x00,0x00,0x00,0x00
,0x00,0x00,0x00,0x00,0x00,0x00,0x00,0x00,0x00,0x00,0x00,0x00,0x00,0x00,0x00
,0x00,0x00,0x00,0x00,0x00,0x00,0x00,0x00,0x00,0x00,0x00,0x00,0x00,0x00,0x00
,0x00,0x00,0x00
};
