#define r87o_width 87
#define r87o_height 87
static unsigned char r87o_bits[] = {
0x00,0x00,0x00,0x00,0x00,0x00,0x00,0x00,0x00,0x00,0x00,0x00,0x00,0x00,0x00
,0x00,0x00,0x00,0x00,0x00,0x00,0x00,0x00,0x00,0x00,0x00,0x00,0x00,0x00,0x00
,0x00,0x00,0x00,0x00,0x00,0x00,0x00,0x00,0x00,0x00,0x00,0x00,0x00,0x00,0x00
,0x00,0x00,0x00,0x00,0x00,0x00,0x00,0x00,0x00,0x00,0x00,0x00,0x00,0x00,0x00
,0x00,0x00,0x00,0x00,0x00,0x00,0x00,0x00,0x00,0x00,0x00,0x00,0x00,0x00,0x00
,0x00,0x00,0x00,0x00,0x00,0x00,0x00,0x00,0x00,0x00,0x00,0x00,0x00,0x00,0x00
,0x00,0x00,0x00,0x00,0x00,0x00,0x00,0x00,0x00,0x00,0x00,0x00,0x00,0x00,0x00
,0x00,0x00,0x00,0x00,0x00,0x00,0x00,0x00,0x00,0x00,0x00,0x00,0x00,0x00,0x00
,0x00,0x00,0x00,0x00,0x00,0x00,0x00,0x00,0x00,0x00,0x00,0x00,0x00,0x00,0xfc
,0x3f,0xc0,0xff,0x03,0xfc,0x3f,0x00,0x00,0x00,0x00,0xfe,0x3f,0xe0,0xff,0x03
,0xfe,0x3f,0x00,0x00,0x00,0x00,0xfe,0x3f,0xe0,0xff,0x03,0xfe,0x3f,0x00,0x00
,0x00,0x00,0x0e,0x38,0xe0,0x80,0x03,0x0e,0x38,0x00,0x00,0x00,0x00,0x0e,0x38
,0xe0,0x80,0x03,0x0e,0x38,0x00,0x00,0x00,0x00,0x0e,0xf8,0xff,0x80,0xff,0x0f
,0x38,0x00,0x00,0x00,0x00,0x0e,0xf8,0xff,0x80,0xff,0x0f,0x38,0x00,0x00,0x00
,0x00,0x0e,0xf0,0xff,0x00,0xff,0x0f,0x38,0x00,0x00,0x00,0x00,0x0e,0x00,0x00
,0x00,0x00,0x00,0x38,0x00,0x00,0x00,0x00,0x0e,0x00,0x00,0x00,0x00,0x00,0x38
,0x00,0x00,0x00,0x00,0xfe,0xff,0xff,0xff,0xff,0xff,0x3f,0x00,0x00,0x00,0x00
,0xfe,0xff,0xff,0xff,0xff,0xff,0x3f,0x00,0x00,0x00,0x00,0xfe,0xff,0xff,0xff
,0xff,0xff,0x3f,0x00,0x00,0x00,0x00,0x3c,0x00,0x00,0x00,0x00,0x00,0x1f,0x00
,0x00,0x00,0x00,0xf8,0x00,0x00,0x00,0x00,0x80,0x0f,0x00,0x00,0x00,0x00,0xf0
,0x01,0x00,0x00,0x00,0xc0,0x03,0x00,0x00,0x00,0x00,0xc0,0xff,0xff,0xff,0xff
,0xff,0x01,0x00,0x00,0x00,0x00,0x80,0xff,0xff,0xff,0xff,0xff,0x00,0x00,0x00
,0x00,0x00,0x00,0xff,0xff,0xff,0xff,0x7f,0x00,0x00,0x00,0x00,0x00,0x00,0x07
,0x00,0x00,0x00,0x70,0x00,0x00,0x00,0x00,0x00,0x00,0x07,0x00,0x00,0x00,0x70
,0x00,0x00,0x00,0x00,0x00,0x00,0x07,0x00,0x00,0x00,0x70,0x00,0x00,0x00,0x00
,0x00,0x00,0x07,0x00,0x00,0x00,0x70,0x00,0x00,0x00,0x00,0x00,0x00,0x07,0x00
,0x00,0x00,0x70,0x00,0x00,0x00,0x00,0x00,0x00,0x07,0x00,0x00,0x00,0x70,0x00
,0x00,0x00,0x00,0x00,0x00,0x07,0x00,0x00,0x00,0x70,0x00,0x00,0x00,0x00,0x00
,0x00,0x07,0x00,0x00,0x00,0x70,0x00,0x00,0x00,0x00,0x00,0x00,0x07,0x00,0x00
,0x00,0x70,0x00,0x00,0x00,0x00,0x00,0x00,0x07,0x00,0x00,0x00,0x70,0x00,0x00
,0x00,0x00,0x00,0x00,0x07,0x00,0x00,0x00,0x70,0x00,0x00,0x00,0x00,0x00,0x00
,0x07,0x00,0x00,0x00,0x70,0x00,0x00,0x00,0x00,0x00,0x00,0x07,0x00,0x00,0x00
,0x70,0x00,0x00,0x00,0x00,0x00,0x00,0x07,0x00,0x00,0x00,0x70,0x00,0x00,0x00
,0x00,0x00,0x00,0x07,0x00,0x00,0x00,0x70,0x00,0x00,0x00,0x00,0x00,0x00,0x07
,0x00,0x00,0x00,0x70,0x00,0x00,0x00,0x00,0x00,0x00,0x07,0x00,0x00,0x00,0x70
,0x00,0x00,0x00,0x00,0x00,0x00,0x07,0x00,0x00,0x00,0x70,0x00,0x00,0x00,0x00
,0x00,0x00,0x07,0x00,0x00,0x00,0x70,0x00,0x00,0x00,0x00,0x00,0x00,0x07,0x00
,0x00,0x00,0x70,0x00,0x00,0x00,0x00,0x00,0x00,0x07,0x00,0x00,0x00,0x70,0x00
,0x00,0x00,0x00,0x00,0x00,0x07,0x00,0x00,0x00,0x70,0x00,0x00,0x00,0x00,0x00
,0x00,0x07,0x00,0x00,0x00,0x70,0x00,0x00,0x00,0x00,0x00,0x00,0x07,0x00,0x00
,0x00,0x70,0x00,0x00,0x00,0x00,0x00,0x00,0x07,0x00,0x00,0x00,0x70,0x00,0x00
,0x00,0x00,0x00,0x00,0x07,0x00,0x00,0x00,0x70,0x00,0x00,0x00,0x00,0x00,0x00
,0xff,0xff,0xff,0xff,0x7f,0x00,0x00,0x00,0x00,0x00,0x00,0xff,0xff,0xff,0xff
,0xff,0x00,0x00,0x00,0x00,0x00,0x80,0xff,0xff,0xff,0xff,0xff,0x01,0x00,0x00
,0x00,0x00,0xc0,0x03,0x00,0x00,0x00,0xc0,0x03,0x00,0x00,0x00,0x00,0xe0,0x01
,0x00,0x00,0x00,0x80,0x07,0x00,0x00,0x00,0x00,0xf0,0x00,0x00,0x00,0x00,0x00
,0x0f,0x00,0x00,0x00,0x00,0xf8,0xff,0xff,0xff,0xff,0xff,0x1f,0x00,0x00,0x00
,0x00,0xfc,0xff,0xff,0xff,0xff,0xff,0x1f,0x00,0x00,0x00,0x00,0xfc,0xff,0xff
,0xff,0xff,0xff,0x1f,0x00,0x00,0x00,0x00,0x1c,0x00,0x00,0x00,0x00,0x00,0x1c
,0x00,0x00,0x00,0x00,0x1c,0x00,0x00,0x00,0x00,0x00,0x1c,0x00,0x00,0x00,0x00
,0x1c,0x00,0x00,0x00,0x00,0x00,0x1c,0x00,0x00,0x00,0x00,0x1c,0x00,0x00,0x00
,0x00,0x00,0x1c,0x00,0x00,0x00,0x00,0xfc,0xff,0xff,0xff,0xff,0xff,0xff,0x07
,0x00,0x00,0xf0,0xff,0xff,0xff,0xff,0xff,0xff,0xff,0x07,0x00,0x00,0xf0,0xff
,0xff,0xff,0xff,0xff,0xff,0xff,0x07,0x00,0x00,0xf0,0x1f,0x00,0x00,0x00,0x00
,0x00,0x00,0x07,0x00,0x00,0x70,0x00,0x00,0x00,0x00,0x00,0x00,0x00,0x07,0x00
,0x00,0x70,0x00,0x00,0x00,0x00,0x00,0x00,0x00,0x07,0x00,0x00,0xf0,0xff,0xff
,0xff,0xff,0xff,0xff,0xff,0x07,0x00,0x00,0xf0,0xff,0xff,0xff,0xff,0xff,0xff
,0xff,0x07,0x00,0x00,0xe0,0xff,0xff,0xff,0xff,0xff,0xff,0xff,0x07,0x00,0x00
,0x00,0x00,0x00,0x00,0x00,0x00,0x00,0x00,0x00,0x00,0x00,0x00,0x00,0x00,0x00
,0x00,0x00,0x00,0x00,0x00,0x00,0x00,0x00,0x00,0x00,0x00,0x00,0x00,0x00,0x00
,0x00,0x00,0x00,0x00,0x00,0x00,0x00,0x00,0x00,0x00,0x00,0x00,0x00,0x00,0x00
,0x00,0x00,0x00,0x00,0x00,0x00,0x00,0x00,0x00,0x00,0x00,0x00,0x00,0x00,0x00
,0x00,0x00,0x00,0x00,0x00,0x00,0x00,0x00,0x00,0x00,0x00,0x00,0x00,0x00,0x00
,0x00,0x00,0x00,0x00,0x00,0x00,0x00,0x00,0x00,0x00,0x00,0x00
};
