#define v33o_width 33
#define v33o_height 33
static unsigned char v33o_bits[] = {
0x00,0x00,0x00,0x00,0x00,0x00,0x00,0x00,0x00,0x00,0x00,0x00,0x00,0x00,0x00
,0x00,0x00,0x00,0x00,0x00,0x00,0x00,0x00,0x00,0x00,0x00,0xc0,0x0f,0x00,0x00
,0x00,0x30,0x30,0x00,0x00,0x00,0x0c,0xc0,0x00,0x00,0x00,0x02,0x80,0x01,0x00
,0x00,0x01,0x07,0x01,0x00,0x00,0xc1,0x0a,0x02,0x00,0x00,0xe1,0x0a,0x03,0x00
,0x80,0x00,0x87,0x0f,0x00,0x80,0x00,0x80,0x10,0x00,0x80,0x00,0x40,0x20,0x00
,0x80,0x00,0xf0,0x2f,0x00,0x40,0x00,0x10,0x32,0x00,0x40,0x00,0xe0,0x21,0x00
,0x40,0x00,0x20,0x00,0x00,0x40,0x00,0x38,0x00,0x00,0x40,0x00,0x46,0x00,0x00
,0x40,0x00,0x81,0x00,0x00,0x40,0x00,0x00,0x01,0x00,0x40,0x00,0xf0,0x02,0x00
,0x40,0x00,0x08,0x07,0x00,0x60,0x00,0x04,0x0c,0x00,0x50,0x00,0x02,0x10,0x00
,0x88,0x00,0x02,0x20,0x00,0x88,0x00,0x02,0x40,0x00,0x10,0x01,0x04,0x40,0x00
,0xe0,0xff,0xff,0x7f,0x00,0x00,0x00,0x00,0x00,0x00,0x00,0x00,0x00,0x00,0x00

};
