#define v49o_width 49
#define v49o_height 49
static unsigned char v49o_bits[] = {
0x00,0x00,0x00,0x00,0x00,0x00,0x00,0x00,0x00,0x00,0x00,0x00,0x00,0x00,0x00
,0x00,0x00,0x00,0x00,0x00,0x00,0x00,0x00,0x00,0x00,0x00,0x00,0x00,0x00,0x00
,0x00,0x00,0x00,0x00,0x00,0x00,0x00,0x00,0x00,0x00,0x00,0x00,0x00,0x00,0xe0
,0x07,0x00,0x00,0x00,0x00,0x00,0x1e,0x38,0x00,0x00,0x00,0x00,0x80,0x01,0xc0
,0x01,0x00,0x00,0x00,0x40,0x00,0x00,0x02,0x00,0x00,0x00,0x20,0x00,0x00,0x04
,0x00,0x00,0x00,0x10,0x00,0x00,0x08,0x00,0x00,0x00,0x08,0x00,0x0f,0x10,0x00
,0x00,0x00,0x08,0xc0,0x10,0x10,0x00,0x00,0x00,0x04,0x30,0x26,0x20,0x00,0x00
,0x00,0x04,0x1c,0x26,0xd8,0x00,0x00,0x00,0x04,0x60,0x10,0x58,0x03,0x00,0x00
,0x02,0x80,0x0f,0x20,0x0c,0x00,0x00,0x02,0x00,0x00,0x1c,0x10,0x00,0x00,0x02
,0x00,0x00,0x02,0x10,0x00,0x00,0x01,0x00,0x00,0x01,0x20,0x00,0x00,0x01,0x00
,0xe0,0x1f,0x20,0x00,0x00,0x01,0x00,0x30,0xe0,0x23,0x00,0x00,0x01,0x00,0x40
,0xc0,0x25,0x00,0x00,0x01,0x00,0x80,0x7f,0x18,0x00,0x00,0x01,0x00,0x00,0x01
,0x18,0x00,0x00,0x01,0x00,0x80,0x00,0x08,0x00,0x00,0x01,0x00,0x40,0x00,0x00
,0x00,0x80,0x00,0x00,0x40,0x00,0x00,0x00,0x80,0x00,0x00,0xc0,0x00,0x00,0x00
,0x80,0x00,0x00,0x30,0x03,0x00,0x00,0x80,0x00,0x00,0x06,0x04,0x00,0x00,0x80
,0x00,0x00,0x00,0x08,0x00,0x00,0x80,0x00,0x00,0x00,0x10,0x00,0x00,0x80,0x00
,0x00,0x00,0x27,0x00,0x00,0x80,0x00,0x00,0xc0,0x48,0x00,0x00,0x80,0x00,0x00
,0x20,0xb0,0x00,0x00,0x80,0x00,0x00,0x10,0x40,0x01,0x00,0xe0,0x00,0x00,0x08
,0x80,0x03,0x00,0x90,0x00,0x00,0x08,0x00,0x06,0x00,0x88,0x00,0x00,0x04,0x00
,0x08,0x00,0x08,0x01,0x00,0x08,0x00,0x10,0x00,0x08,0x01,0x00,0x08,0x00,0x20
,0x00,0x08,0x01,0x00,0x10,0x00,0x20,0x00,0x10,0x02,0x00,0x10,0x00,0x20,0x00
,0x10,0x02,0x00,0x20,0x00,0x20,0x00,0xe0,0xff,0xff,0xff,0xff,0x3f,0x00,0x00
,0x00,0x00,0x00,0x00,0x00,0x00,0x00,0x00,0x00,0x00,0x00,0x00,0x00
};
