#define w33o_width 33
#define w33o_height 33
static unsigned char w33o_bits[] = {
0x00,0x00,0x00,0x00,0x00,0x00,0x00,0x00,0x00,0x00,0x00,0x00,0x00,0x00,0x00
,0x00,0x00,0x00,0x00,0x00,0x00,0x00,0x00,0x00,0x00,0x00,0xc0,0x07,0x00,0x00
,0x00,0x38,0x78,0x00,0x00,0x00,0x04,0x80,0x01,0x00,0x00,0x0f,0x00,0x02,0x00
,0x80,0xf0,0x00,0x04,0x00,0x40,0x00,0x0f,0x08,0x00,0x20,0x00,0x30,0x10,0x00
,0x20,0x00,0xc0,0x10,0x00,0x20,0x00,0x07,0x23,0x00,0x10,0x80,0x0f,0x22,0x00
,0x10,0x80,0x0f,0x2c,0x00,0x10,0x00,0x07,0x10,0x00,0xe0,0x01,0x07,0x10,0x00
,0x10,0x3e,0x02,0x20,0x00,0x10,0xc0,0x00,0x20,0x00,0x10,0x00,0x07,0x20,0x00
,0x10,0xc0,0x39,0x20,0x00,0x10,0x3c,0xc0,0x20,0x00,0x90,0x03,0x00,0x17,0x00
,0x50,0x00,0x00,0x14,0x00,0x20,0x00,0x00,0x18,0x00,0x20,0x00,0x00,0x08,0x00
,0xc0,0x00,0x00,0x04,0x00,0x00,0x07,0x80,0x03,0x00,0x00,0xf8,0x7f,0x00,0x00
,0x00,0x00,0x00,0x00,0x00,0x00,0x00,0x00,0x00,0x00,0x00,0x00,0x00,0x00,0x00

};
