#define w54o_width 49
#define w54o_height 49
static unsigned char w54o_bits[] = {
0x00,0x00,0x00,0x00,0x00,0x00,0x00,0x00,0x00,0x00,0x00,0x00,0x00,0x00,0x00
,0x00,0x00,0x00,0x00,0x00,0x00,0x00,0x00,0x00,0x00,0x00,0x00,0x00,0x00,0x00
,0x00,0x00,0x00,0x00,0x00,0x00,0x00,0xe0,0x0f,0x00,0x00,0x00,0x00,0x80,0x1f
,0xf0,0x00,0x00,0x00,0x00,0x40,0x00,0x00,0x07,0x00,0x00,0x00,0x30,0x00,0x00
,0x18,0x00,0x00,0x00,0x08,0x00,0x00,0x20,0x00,0x00,0x00,0x04,0x00,0x00,0x40
,0x00,0x00,0x00,0xff,0x00,0x00,0x40,0x00,0x00,0x80,0x00,0xff,0x01,0x80,0x00
,0x00,0x80,0x00,0x00,0x0e,0x00,0x01,0x00,0x40,0x00,0x00,0x70,0x00,0x02,0x00
,0x40,0x00,0x00,0x80,0x03,0x02,0x00,0x20,0x00,0x00,0x00,0x1c,0x02,0x00,0x20
,0x00,0x00,0x03,0xe0,0x04,0x00,0x10,0x00,0xc0,0x0f,0x00,0x07,0x00,0x10,0x00
,0xe0,0x1f,0x00,0x04,0x00,0x08,0x00,0xe0,0x1f,0x00,0x08,0x00,0x08,0x00,0xc0
,0x0f,0x00,0x10,0x00,0x08,0x00,0xc0,0x0f,0x00,0x10,0x00,0x08,0x00,0x80,0x07
,0x00,0x10,0x00,0x08,0x00,0x80,0x07,0x00,0x20,0x00,0x08,0x00,0x00,0x03,0x00
,0x20,0x00,0x08,0x00,0x00,0x03,0x00,0x20,0x00,0xf0,0x00,0x00,0x00,0x00,0x20
,0x00,0x08,0x3f,0x00,0x00,0x00,0x20,0x00,0x08,0xc0,0x07,0x00,0x00,0x40,0x00
,0x04,0x00,0x78,0x00,0x00,0x40,0x00,0x04,0x00,0x80,0x07,0x00,0x40,0x00,0x04
,0x00,0xc0,0x79,0x00,0x40,0x00,0x04,0x00,0x3c,0x80,0x03,0x20,0x00,0x04,0xc0
,0x03,0x00,0x3c,0x20,0x00,0x08,0x3e,0x00,0x00,0xc0,0x20,0x00,0x88,0x01,0x00
,0x00,0x00,0x23,0x00,0x50,0x00,0x00,0x00,0x00,0x14,0x00,0x50,0x00,0x00,0x00
,0x00,0x18,0x00,0x20,0x00,0x00,0x00,0x00,0x08,0x00,0x20,0x00,0x00,0x00,0x00
,0x08,0x00,0x40,0x00,0x00,0x00,0x00,0x04,0x00,0x80,0x00,0x00,0x00,0x00,0x02
,0x00,0x00,0x07,0x00,0x00,0x80,0x01,0x00,0x00,0xf8,0x01,0x00,0x7e,0x00,0x00
,0x00,0x00,0xfe,0xff,0x01,0x00,0x00,0x00,0x00,0x00,0x00,0x00,0x00,0x00,0x00
,0x00,0x00,0x00,0x00,0x00,0x00,0x00,0x00,0x00,0x00,0x00,0x00,0x00
};
