#define ws72o_width 72
#define ws72o_height 72
static unsigned char ws72o_bits[] = {
0x00,0x00,0x00,0x00,0x00,0x00,0x00,0x00,0x00,0x00,0x00,0x00,0x00,0x00,0x00
,0x00,0x00,0x00,0x00,0x00,0x00,0x00,0x00,0x00,0x00,0x00,0x00,0x00,0x00,0x00
,0x00,0x00,0x00,0x00,0x00,0x00,0x00,0x00,0x00,0x00,0x00,0x00,0x00,0x00,0x00
,0x00,0x00,0x00,0x00,0x00,0x00,0x00,0x00,0x00,0x00,0x00,0x00,0x00,0x00,0x00
,0x00,0x00,0x00,0x00,0x00,0x00,0x00,0x00,0x00,0x00,0x00,0x00,0x00,0x00,0x00
,0x00,0x00,0x00,0x00,0x00,0x00,0x00,0x00,0x00,0x00,0x00,0x00,0x00,0x00,0x00
,0x00,0x00,0x00,0x00,0x00,0x00,0x00,0x00,0x00,0x00,0x00,0x00,0x00,0x00,0x00
,0x00,0x00,0x00,0x00,0x00,0x00,0x00,0x00,0x00,0x00,0x00,0x00,0x00,0x00,0x00
,0x00,0x00,0x00,0x00,0x00,0x00,0x00,0x00,0x00,0x00,0x00,0x00,0x00,0x00,0x00
,0x00,0x00,0x00,0x00,0x00,0x00,0x00,0x00,0x00,0x00,0x00,0x00,0x00,0x00,0x00
,0x00,0x00,0x00,0x00,0x00,0x00,0x00,0xfc,0x03,0x00,0x00,0x00,0x00,0x00,0x00
,0xf0,0xff,0x3f,0x00,0x00,0x00,0x00,0x00,0x00,0xfc,0x03,0xfc,0x03,0x00,0x00
,0x00,0x00,0x00,0x3e,0x00,0xc0,0x1f,0x00,0x00,0x00,0x00,0x00,0x07,0x00,0x00
,0x7e,0x00,0x00,0x00,0x00,0xc0,0x03,0x00,0x00,0xe0,0x00,0x00,0x00,0x00,0xe0
,0x01,0x00,0x00,0xc0,0x01,0x00,0x00,0x00,0x78,0x00,0x00,0x00,0x80,0x03,0x00
,0x00,0x00,0x3c,0x00,0x00,0x00,0x00,0x03,0x00,0x00,0x00,0x1f,0x00,0x00,0x00
,0x00,0x07,0x00,0x00,0x80,0xff,0x7f,0x00,0x00,0x00,0x0e,0x00,0x00,0xc0,0xf1
,0xff,0x3f,0x00,0x00,0x1c,0x00,0x00,0xc0,0x00,0xe0,0xff,0x03,0x00,0x18,0x00
,0x00,0xe0,0x00,0x00,0xe0,0x7f,0x00,0x38,0x00,0x00,0x60,0x00,0x00,0x00,0xfe
,0x07,0x30,0x00,0x00,0x70,0x00,0x00,0x00,0xc0,0x3f,0x30,0x00,0x00,0x30,0x00
,0x00,0x20,0x00,0xfc,0x30,0x00,0x00,0x38,0x00,0x00,0x20,0x00,0xe0,0x61,0x00
,0x00,0x18,0x00,0x00,0x70,0x00,0x80,0x67,0x00,0x00,0x1c,0x00,0x00,0x70,0x00
,0x00,0x7f,0x00,0x00,0x0c,0x00,0x00,0xf8,0x00,0x00,0xfc,0x00,0x00,0x0c,0x00
,0xc0,0xff,0x1f,0x00,0xf0,0x01,0x00,0x0c,0x00,0x80,0xff,0x07,0x00,0x80,0x01
,0x00,0x0c,0x00,0x00,0xfe,0x03,0x00,0x80,0x01,0x00,0x0c,0x00,0x00,0xfc,0x01
,0x00,0x80,0x01,0x00,0x0c,0x00,0x00,0xfc,0x01,0x00,0x80,0x01,0x00,0x0c,0x00
,0x00,0xfe,0x03,0x00,0x80,0x01,0x00,0x0c,0x00,0x00,0x8e,0x03,0x00,0x80,0x01
,0x00,0x18,0x00,0x00,0x07,0x07,0x00,0x80,0x01,0x00,0x18,0x00,0x00,0x01,0x04
,0x00,0x80,0x03,0x00,0x18,0xfe,0x03,0x00,0x00,0x00,0x00,0x03,0x00,0xf8,0xff
,0xff,0x00,0x00,0x00,0x00,0x03,0x00,0xf8,0x03,0xfe,0x3f,0x00,0x00,0x00,0x03
,0x00,0x1c,0x00,0x00,0xfe,0x0f,0x00,0x00,0x03,0x00,0x0c,0x00,0xf8,0xff,0xff
,0x00,0x80,0x03,0x00,0x0c,0xc0,0xff,0x03,0xf8,0x07,0x80,0x03,0x00,0x0c,0xf8
,0x0f,0x00,0x80,0x3f,0x80,0x01,0x00,0x0c,0x7e,0x00,0x00,0x00,0xfc,0xc1,0x01
,0x00,0x1c,0x0f,0x00,0x00,0x00,0xe0,0xcf,0x00,0x00,0xd8,0x03,0x00,0x00,0x00
,0x00,0xfe,0x00,0x00,0xf8,0x01,0x00,0x00,0x00,0x00,0xf8,0x00,0x00,0x78,0x00
,0x00,0x00,0x00,0x00,0x70,0x00,0x00,0x38,0x00,0x00,0x00,0x00,0x00,0x60,0x00
,0x00,0x30,0x00,0x00,0x00,0x00,0x00,0x7c,0x00,0x00,0x30,0x00,0x00,0x00,0x00
,0x00,0x3e,0x00,0x00,0xf0,0x00,0x00,0x00,0x00,0xc0,0x0f,0x00,0x00,0xc0,0x0f
,0x00,0x00,0x00,0xf8,0x03,0x00,0x00,0x00,0xff,0x00,0x00,0x00,0x7e,0x00,0x00
,0x00,0x00,0xf0,0x0f,0x00,0xc0,0x0f,0x00,0x00,0x00,0x00,0x00,0xff,0xff,0xff
,0x03,0x00,0x00,0x00,0x00,0x00,0xf0,0xff,0x7f,0x00,0x00,0x00,0x00,0x00,0x00
,0x00,0x00,0x00,0x00,0x00,0x00,0x00,0x00,0x00,0x00,0x00,0x00,0x00,0x00,0x00
,0x00,0x00,0x00,0x00,0x00,0x00,0x00,0x00,0x00,0x00,0x00,0x00,0x00,0x00,0x00
,0x00,0x00,0x00
};
