/* XPM */
static char *fld__[] = {
/* columns rows colors chars-per-pixel */
"64 64 4 1",
"  c black",
". c #FFFFD7",
"X c gray100",
"o c orange s dark_square",
/* pixels */
"oooooooooooooooooooooooooooooooooooooooooooooooooooooooooooooooo",
"oooooooooooooooooooooooooooooooooooooooooooooooooooooooooooooooo",
"oooooooooooooooooooooooooooo      oooooooooooooooooooooooooooooo",
"ooooooooooooooooooooooooo   ... ..    oooooooooooooooooooooooooo",
"ooooooooooooooooooooo    ...... ......    oooooooooooooooooooooo",
"ooooooooooooooooo    ........... .........    oooooooooooooooooo",
"ooooooooooooo    .............   .............    oooooooooooooo",
"oooooooooo   .............    ...    .............   ooooooooooo",
"oooooooooo ...........    ...........    ........... ooooooooooo",
"ooooooooo  ........   ...................   .........  ooooooooo",
"ooooooooo . ...    .........................    ...... ooooooooo",
"ooooooooo .    .................................    .. ooooooooo",
"ooooooooo .. ............ ....... ..................   ooooooooo",
"ooooooooo .. ...........  ......  .   ................. oooooooo",
"oooooooo ... ..........    .....       ................ oooooooo",
"oooooooo ... .........  ..  ....  .... ................ oooooooo",
"oooooooo .. .........  ....  ...  .    ................ oooooooo",
"oooooooo .. ........  ..........    .. ................ oooooooo",
"oooooooo .. ...........     ..... ...  ................ oooooooo",
"oooooooo .. ..........    .......     ...  ............ oooooooo",
"oooooooo .. ............. .  ....    ....  ............. ooooooo",
"ooooooo ... ..........     ...... ..  ..  .............. ooooooo",
"ooooooo ... ............. .  .... ...   ................ ooooooo",
"ooooooo .. ..........      .....  . .   ................ ooooooo",
"ooooooo .. .............. ..  ..    ..  ................ ooooooo",
"ooooooo .. ..........        ...   ...   ............... ooooooo",
"ooooooo .. .........        .... ......   .............. ooooooo",
"ooooooo .. .............................................. oooooo",
"oooooo ... ............... ......... .................... oooooo",
"oooooo .. ...............  ........  .................... oooooo",
"oooooo .. ............. .  ......    .................... oooooo",
"oooooo .. ............. .  ...     ...................... oooooo",
"oooooo .. ............  .  ....   ....................... oooooo",
"oooooo .. ............  .. ...... .   .................... ooooo",
"ooooo ... ...........  X    .....      ................... ooooo",
"ooooo ... ...........        .  .  ..  ................... ooooo",
"ooooo .. ............ ...    .  .....  ................... ooooo",
"ooooo .. ................. . .. ...   .................... ooooo",
"ooooo .. ...........     . ......     .................... ooooo",
"ooooo .. ..........     .. ......  ........................ oooo",
"ooooo .. ............ ...  ..........  .................... oooo",
"oooo ... ...........  ...  ...              ............... oooo",
"oooo ... ...........  ...  ...     ..      ................ oooo",
"oooo .. ...........   ...  ....... ..  .................... oooo",
"oooo .. ...........  ....  ......  ...  ................... oooo",
"oooo .. ..............  .  .....   ...  .................... ooo",
"oooo .. ...............    .....  ....  .................... ooo",
"oooo .. ...............   .......... .  .................... ooo",
"ooo ... ................ ...........    .................... ooo",
"ooo .. ..............................  ..................... ooo",
"ooo .. ..................................................... ooo",
"ooo .. ...................................................... oo",
"ooo .. ...................................................... oo",
"ooo .. ...................................................... oo",
"ooo .. ...................................................... oo",
"oo ... ...................................................... oo",
"oo .. ....................................................... oo",
"oo .. ........................................................ o",
"oo .. ........................................................ o",
"ooo . ........................................................ o",
"oooo  ........................................................ o",
"oooo  .......................................................  o",
"ooooo                                                         oo",
"oooooooooooooooooooooooooooooooooooooooooooooooooooooooooooooooo"
};
