/* XPM */
static char *ndl__[] = {
/* columns rows colors chars-per-pixel */
"64 64 3 1",
"  c black",
". c #FFFFD7",
"X c orange s light_square",
/* pixels */
"XXXXXXXXXXXXXXXXXXXXXXXXXXXXXXXXXXXXXXXXXXXXXXXXXXXXXXXXXXXXXXXX",
"XXXXXXXXXXXXXXXXXXXXXXXXXXXXXXXXXXXXXXXXXXXXXXXXXXXXXXXXXXXXXXXX",
"XXXXXXXXXXXXXXXXXXXXXXXXXXXXXXXXXXXXXXXXXXXXXXXXXXXXXXXXXXXXXXXX",
"XXX                                                   XXXXXXXXXX",
"XXX  ................................................. XXXXXXXXX",
"XXX . ................................................. XXXXXXXX",
"XXX .. ................................................. XXXXXXX",
"XXXX ..                                                  XXXXXXX",
"XXXX ... ............................................... XXXXXXX",
"XXXX ... ............................................... XXXXXXX",
"XXXX ... ................    ........................... XXXXXXX",
"XXXX .... ..............     .......................... XXXXXXXX",
"XXXX .... ..............     .......................... XXXXXXXX",
"XXXXX ... .............  ...  ......................... XXXXXXXX",
"XXXXX ... ............   ...  ......................... XXXXXXXX",
"XXXXX ... ............  ............................... XXXXXXXX",
"XXXXX ... ...........  ....   ..   ..   .   ........... XXXXXXXX",
"XXXXX ... ..........   ....   ..   ..   .   ........... XXXXXXXX",
"XXXXX .... .........  ......   ..  ...  ..  .......... XXXXXXXXX",
"XXXXX .... .........  .......  ...  ... ... .......... XXXXXXXXX",
"XXXXXX ... .........   ............................... XXXXXXXXX",
"XXXXXX ... .........           ....................... XXXXXXXXX",
"XXXXXX ... ..........                  ............... XXXXXXXXX",
"XXXXXX ... ...............          .  ............... XXXXXXXXX",
"XXXXXX ... .....................  ...  ............... XXXXXXXXX",
"XXXXXX .... ................           .............. XXXXXXXXXX",
"XXXXXXX ... ....................  ...  .............. XXXXXXXXXX",
"XXXXXXX ... ................           .............. XXXXXXXXXX",
"XXXXXXX ... ....................  ...  .............. XXXXXXXXXX",
"XXXXXXX ... .................          .............. XXXXXXXXXX",
"XXXXXXX ... ................         . .............. XXXXXXXXXX",
"XXXXXXX .... ....................................... XXXXXXXXXXX",
"XXXXXXX .... ....................................... XXXXXXXXXXX",
"XXXXXXXX ... ......................... ............. XXXXXXXXXXX",
"XXXXXXXX ... .................... ...  ............. XXXXXXXXXXX",
"XXXXXXXX ... ........             ...   ............ XXXXXXXXXXX",
"XXXXXXXX ... ........            ....   .. ......... XXXXXXXXXXX",
"XXXXXXXX ... ......... ...   ........  ..  ......... XXXXXXXXXXX",
"XXXXXXXX .... .............  ..  ....  .   ........ XXXXXXXXXXXX",
"XXXXXXXXX ... ..........        .....     ......... XXXXXXXXXXXX",
"XXXXXXXXX ... .........       .......    .......... XXXXXXXXXXXX",
"XXXXXXXXX ... .............  .   ....   ........... XXXXXXXXXXXX",
"XXXXXXXXX ... ..........        .....   ........... XXXXXXXXXXXX",
"XXXXXXXXXX .. .........       .......  ............ XXXXXXXXXXXX",
"XXXXXXXXXXX . .............  ..  ....  ..   ....... XXXXXXXXXXXX",
"XXXXXXXXXXX .. ..........       ...        ....... XXXXXXXXXXXXX",
"XXXXXXXXXXXX . .........        ....      ........ XXXXXXXXXXXXX",
"XXXXXXXXXXXX . ............  ........  ........... XXXXXXXXXXXXX",
"XXXXXXXXXXXXX  ............  ........  ........... XXXXXXXXXXXXX",
"XXXXXXXXXXXXXX  ...........  ........ ...........  XXXXXXXXXXXXX",
"XXXXXXXXXXXXXXXX   ........ ..................   XXXXXXXXXXXXXXX",
"XXXXXXXXXXXXXXXXXXX   .....................   XXXXXXXXXXXXXXXXXX",
"XXXXXXXXXXXXXXXXXXXXXX   ...............   XXXXXXXXXXXXXXXXXXXXX",
"XXXXXXXXXXXXXXXXXXXXXXXXX   .........   XXXXXXXXXXXXXXXXXXXXXXXX",
"XXXXXXXXXXXXXXXXXXXXXXXXXXXX   ...   XXXXXXXXXXXXXXXXXXXXXXXXXXX",
"XXXXXXXXXXXXXXXXXXXXXXXXXXXXXXX   XXXXXXXXXXXXXXXXXXXXXXXXXXXXXX",
"XXXXXXXXXXXXXXXXXXXXXXXXXXXXXXXX XXXXXXXXXXXXXXXXXXXXXXXXXXXXXXX",
"XXXXXXXXXXXXXXXXXXXXXXXXXXXXXXXXXXXXXXXXXXXXXXXXXXXXXXXXXXXXXXXX",
"XXXXXXXXXXXXXXXXXXXXXXXXXXXXXXXXXXXXXXXXXXXXXXXXXXXXXXXXXXXXXXXX",
"XXXXXXXXXXXXXXXXXXXXXXXXXXXXXXXXXXXXXXXXXXXXXXXXXXXXXXXXXXXXXXXX",
"XXXXXXXXXXXXXXXXXXXXXXXXXXXXXXXXXXXXXXXXXXXXXXXXXXXXXXXXXXXXXXXX",
"XXXXXXXXXXXXXXXXXXXXXXXXXXXXXXXXXXXXXXXXXXXXXXXXXXXXXXXXXXXXXXXX",
"XXXXXXXXXXXXXXXXXXXXXXXXXXXXXXXXXXXXXXXXXXXXXXXXXXXXXXXXXXXXXXXX",
"XXXXXXXXXXXXXXXXXXXXXXXXXXXXXXXXXXXXXXXXXXXXXXXXXXXXXXXXXXXXXXXX"
};
