/* XPM */
static char *nll__[] = {
/* columns rows colors chars-per-pixel */
"64 64 4 1",
"  c black",
". c #FFFFD7",
"X c gray100",
"o c orange s light_square",
/* pixels */
"oooooooooooooooooooooooooooooooooooooooooooooooooooooooooooooooo",
"oooooooooooooooooooooooooooooooooooooooooooooooooooooooooooooooo",
"oooooooooooooooooooooooooooooooooooooooooooooooooooooooooooooooo",
"oooooooooooooooooooooooooooooooooooooooooooooooooooooooooooooooo",
"oooooooooooooooooooooooooooooooooooooooooooooooooooooooooooooooo",
"oooooooooooooooooooooooooooo     ooooooooooooooooooooooooooooooo",
"oooooooooooooooooooooooo    .. ..   oooooooooooooooooooooooooooo",
"oooooooooooooooooooo    ....... ....   ooooooooooooooooooooooooo",
"oooooooooooooooo    ..........   ......   oooooooooooooooooooooo",
"oooooooooooo    ...........   ...   ......   ooooooooooooooooooo",
"ooooooooooo ............   .........   ......  ooooooooooooooooo",
"oooooooooo  .........   ...............   ..... oooooooooooooooo",
"oooooooooo . .....   .....................   ... ooooooooooooooo",
"oooooooooo . ..   .................. ........    ooooooooooooooo",
"oooooooooo ..  ........... ........  ...........  oooooooooooooo",
"ooooooooo ... ...........  ........  ............ oooooooooooooo",
"ooooooooo ... ...........  ........  ............ oooooooooooooo",
"ooooooooo ... ........      ....        ......... oooooooooooooo",
"ooooooooo ... .......        ...       .......... oooooooooooooo",
"ooooooooo .. .......   ..  ....  ..  ............. ooooooooooooo",
"ooooooooo .. ............  .......       ......... ooooooooooooo",
"oooooooo ... ...........   .....        .......... ooooooooooooo",
"oooooooo ... ...........   ....   X  ............. ooooooooooooo",
"oooooooo ... ..........    .......       ......... ooooooooooooo",
"oooooooo ... .........     .....        .......... ooooooooooooo",
"oooooooo ... ........   .  ....  ..  ............. ooooooooooooo",
"oooooooo .. .........  ..  ........   ... ......... oooooooooooo",
"ooooooo ... ......... ..   ....            ........ oooooooooooo",
"ooooooo ... ............   ...             ........ oooooooooooo",
"ooooooo ... .............  ... .................... oooooooooooo",
"ooooooo ... ............. ......................... oooooooooooo",
"ooooooo ... ....................................... oooooooooooo",
"ooooooo ... ....................................... oooooooooooo",
"oooooo ... .............. .         ................ ooooooooooo",
"oooooo ... ..............          ................. ooooooooooo",
"oooooo ... ..............  ...  .................... ooooooooooo",
"oooooo ... ..............           ................ ooooooooooo",
"oooooo ... ..............  ...  .................... ooooooooooo",
"oooooo ... ..............           ................ ooooooooooo",
"ooooo ... ...............  ...  ..................... oooooooooo",
"ooooo ... ...............  .          ............... oooooooooo",
"ooooo ... ...............                  .......... oooooooooo",
"ooooo ... .......................           ......... oooooooooo",
"ooooo ... ...............................   ......... oooooooooo",
"ooooo ... .......... ... ...  ...  .......  ......... oooooooooo",
"oooo .... ..........  ..  ...  ..   ......  ......... oooooooooo",
"oooo ... ...........   .   ..   ..   ....   .......... ooooooooo",
"oooo ... ...........   .   ..   ..   ....  ........... ooooooooo",
"oooo ... ...............................  ............ ooooooooo",
"oooo ... .........................  ...   ............ ooooooooo",
"ooooo .. .........................  ...  ............. ooooooooo",
"ooooo .. ..........................     .............. ooooooooo",
"ooooo .. ..........................     .............. ooooooooo",
"ooooo . ...........................    ................ oooooooo",
"oooooo  ............................................... oooooooo",
"oooooo  ..............................................  oooooooo",
"ooooooo                                                ooooooooo",
"oooooooooooooooooooooooooooooooooooooooooooooooooooooooooooooooo",
"oooooooooooooooooooooooooooooooooooooooooooooooooooooooooooooooo",
"oooooooooooooooooooooooooooooooooooooooooooooooooooooooooooooooo",
"oooooooooooooooooooooooooooooooooooooooooooooooooooooooooooooooo",
"oooooooooooooooooooooooooooooooooooooooooooooooooooooooooooooooo",
"oooooooooooooooooooooooooooooooooooooooooooooooooooooooooooooooo",
"oooooooooooooooooooooooooooooooooooooooooooooooooooooooooooooooo"
};
