/* XPM */
static char *wpll__[] = {
/* columns rows colors chars-per-pixel */
"64 64 3 1",
"  c black",
". c #FFFFD7",
"X c orange s light_square",
/* pixels */
"XXXXXXXXXXXXXXXXXXXXXXXXXXXXXXXXXXXXXXXXXXXXXXXXXXXXXXXXXXXXXXXX",
"XXXXXXXXXXXXXXXXXXXXXXXXXXXXXXXXXXXXXXXXXXXXXXXXXXXXXXXXXXXXXXXX",
"XXXXXXXXXXXXXXXXXXXXXXXXXXXXXXXXXXXXXXXXXXXXXXXXXXXXXXXXXXXXXXXX",
"XXXXXXXXXXXXXXXXXXXXXXXXXXXXXXXXXXXXXXXXXXXXXXXXXXXXXXXXXXXXXXXX",
"XXXXXXXXXXXXXXXXXXXXXXXXXXXXXXXXXXXXXXXXXXXXXXXXXXXXXXXXXXXXXXXX",
"XXXXXXXXXXXXXXXXXXXXXXXXXXXX     XXXXXXXXXXXXXXXXXXXXXXXXXXXXXXX",
"XXXXXXXXXXXXXXXXXXXXXXXX    .. ..   XXXXXXXXXXXXXXXXXXXXXXXXXXXX",
"XXXXXXXXXXXXXXXXXXXX    ....... ....   XXXXXXXXXXXXXXXXXXXXXXXXX",
"XXXXXXXXXXXXXXXX    ..........   ......   XXXXXXXXXXXXXXXXXXXXXX",
"XXXXXXXXXXXX    ...........   ...   ......   XXXXXXXXXXXXXXXXXXX",
"XXXXXXXXXXX ............   .........   ......  XXXXXXXXXXXXXXXXX",
"XXXXXXXXXX  .........   ...............   ..... XXXXXXXXXXXXXXXX",
"XXXXXXXXXX . .....   .....................   ... XXXXXXXXXXXXXXX",
"XXXXXXXXXX . ..   ...........................    XXXXXXXXXXXXXXX",
"XXXXXXXXXX ..  .................................  XXXXXXXXXXXXXX",
"XXXXXXXXX ... ................................... XXXXXXXXXXXXXX",
"XXXXXXXXX ... ................................... XXXXXXXXXXXXXX",
"XXXXXXXXX ... ................................... XXXXXXXXXXXXXX",
"XXXXXXXXX ... ................................... XXXXXXXXXXXXXX",
"XXXXXXXXX .. ..................................... XXXXXXXXXXXXX",
"XXXXXXXXX .. ..................................... XXXXXXXXXXXXX",
"XXXXXXXX ... ..................................... XXXXXXXXXXXXX",
"XXXXXXXX ... ..................................... XXXXXXXXXXXXX",
"XXXXXXXX ... ..................................... XXXXXXXXXXXXX",
"XXXXXXXX ... ..................................... XXXXXXXXXXXXX",
"XXXXXXXX ... ..................................... XXXXXXXXXXXXX",
"XXXXXXXX .. ............  ......................... XXXXXXXXXXXX",
"XXXXXXX ... ...........    ........................ XXXXXXXXXXXX",
"XXXXXXX ... ...........    ........  .............. XXXXXXXXXXXX",
"XXXXXXX ... ............   ......    .............. XXXXXXXXXXXX",
"XXXXXXX ... ............   ....     ............... XXXXXXXXXXXX",
"XXXXXXX ... .............   .      ................ XXXXXXXXXXXX",
"XXXXXXX ... .............        .................. XXXXXXXXXXXX",
"XXXXXX ... ...............     ..................... XXXXXXXXXXX",
"XXXXXX ... ................   ...................... XXXXXXXXXXX",
"XXXXXX ... ................  ....................... XXXXXXXXXXX",
"XXXXXX ... ...............  ........................ XXXXXXXXXXX",
"XXXXXX ... ...............  ........................ XXXXXXXXXXX",
"XXXXXX ... ...............   ....  ................. XXXXXXXXXXX",
"XXXXX ... .................         ................. XXXXXXXXXX",
"XXXXX ... .................         ................. XXXXXXXXXX",
"XXXXX ... ..................      ................... XXXXXXXXXX",
"XXXXX ... ........................................... XXXXXXXXXX",
"XXXXX ... ........................................... XXXXXXXXXX",
"XXXXX ... ........................................... XXXXXXXXXX",
"XXXX .... ........................................... XXXXXXXXXX",
"XXXX ... ............................................. XXXXXXXXX",
"XXXX ... ............................................. XXXXXXXXX",
"XXXX ... ............................................. XXXXXXXXX",
"XXXX ... ............................................. XXXXXXXXX",
"XXXXX .. ............................................. XXXXXXXXX",
"XXXXX .. ............................................. XXXXXXXXX",
"XXXXX .. ............................................. XXXXXXXXX",
"XXXXX . ............................................... XXXXXXXX",
"XXXXXX  ............................................... XXXXXXXX",
"XXXXXX  ..............................................  XXXXXXXX",
"XXXXXXX                                                XXXXXXXXX",
"XXXXXXXXXXXXXXXXXXXXXXXXXXXXXXXXXXXXXXXXXXXXXXXXXXXXXXXXXXXXXXXX",
"XXXXXXXXXXXXXXXXXXXXXXXXXXXXXXXXXXXXXXXXXXXXXXXXXXXXXXXXXXXXXXXX",
"XXXXXXXXXXXXXXXXXXXXXXXXXXXXXXXXXXXXXXXXXXXXXXXXXXXXXXXXXXXXXXXX",
"XXXXXXXXXXXXXXXXXXXXXXXXXXXXXXXXXXXXXXXXXXXXXXXXXXXXXXXXXXXXXXXX",
"XXXXXXXXXXXXXXXXXXXXXXXXXXXXXXXXXXXXXXXXXXXXXXXXXXXXXXXXXXXXXXXX",
"XXXXXXXXXXXXXXXXXXXXXXXXXXXXXXXXXXXXXXXXXXXXXXXXXXXXXXXXXXXXXXXX",
"XXXXXXXXXXXXXXXXXXXXXXXXXXXXXXXXXXXXXXXXXXXXXXXXXXXXXXXXXXXXXXXX"
};
