/* XPM */
static char *wsdl__[] = {
/* columns rows colors chars-per-pixel */
"64 64 3 1",
"  c black",
". c #FFFFD7",
"X c orange s light_square",
/* pixels */
"XXXXXXXXXXXXXXXXXXXXXXXXXXXXXXXXXXXXXXXXXXXXXXXXXXXXXXXXXXXXXXXX",
"XXXXXXXXXXXXXXXXXXXXXXXXXXXXXXXXXXXXXXXXXXXXXXXXXXXXXXXXXXXXXXXX",
"X                                                          XXXXX",
"X  ........................................................ XXXX",
"X . ........................................................ XXX",
"X .. ........................................................ XX",
"XX ..                                                          X",
"XX .. ........................................................ X",
"XX .. ........................................................ X",
"XX .. ........................................................ X",
"XX .. ........................................................ X",
"XX .. ........................................................ X",
"XX .. ....................................................... XX",
"XX ... ...................................................... XX",
"XXX .. ...................................   ................ XX",
"XXX .. ...........                          ................. XX",
"XXX .. ...........                       .................... XX",
"XXX .. ............       .....   ........................... XX",
"XXX .. ........................  ........................... XXX",
"XXX .. ........................  ........................... XXX",
"XXX ... ....................... ......   ................... XXX",
"XXXX .. .......................          ................... XXX",
"XXXX .. ...............                ..................... XXX",
"XXXX .. ................      .  ........................... XXX",
"XXXX .. ....................... ........................... XXXX",
"XXXX .. ....................... .        .................. XXXX",
"XXXX ... ..................            .................... XXXX",
"XXXX ... .................   .. ........................... XXXX",
"XXXXX .. .......     ..........  ..........    ............ XXXX",
"XXXXX .. ........     .........        ...  ............... XXXX",
"XXXXX .. .........      ....        ....   ............... XXXXX",
"XXXXX .. ...........     ..   .........   ................ XXXXX",
"XXXXX .. .............    ............  .................. XXXXX",
"XXXXX ... ..............   ..........  ................... XXXXX",
"XXXXX ... ...............   .......   .................... XXXXX",
"XXXXXX .. .................  .....   ..................... XXXXX",
"XXXXXX .. ..................  ...   ..................... XXXXXX",
"XXXXXX .. ...................  .   ...................... XXXXXX",
"XXXXXX .. ...................      ...................... XXXXXX",
"XXXXXX .. .....................   ....................... XXXXXX",
"XXXXXX ... ....................   ....................... XXXXXX",
"XXXXXXX .. ...................    ....................... XXXXXX",
"XXXXXXX .. ...................   ....................... XXXXXXX",
"XXXXXXX .. ...................   ....................... XXXXXXX",
"XXXXXXX .. ...................   ....................... XXXXXXX",
"XXXXXXX .. ............................................. XXXXXXX",
"XXXXXXX ... ............................................ XXXXXXX",
"XXXXXXX ... ............................................ XXXXXXX",
"XXXXXXXX .. ............................................ XXXXXXX",
"XXXXXXXX .. ........................................... XXXXXXXX",
"XXXXXXXX .. ........................................... XXXXXXXX",
"XXXXXXXX .. ........................................... XXXXXXXX",
"XXXXXXXX .. ........................................... XXXXXXXX",
"XXXXXXXXX .. .......................................... XXXXXXXX",
"XXXXXXXXXX . .......................................... XXXXXXXX",
"XXXXXXXXXXX  .......................................... XXXXXXXX",
"XXXXXXXXXXXX .......................................   XXXXXXXXX",
"XXXXXXXXXXXXX  .................................    XXXXXXXXXXXX",
"XXXXXXXXXXXXXXX    .........................    XXXXXXXXXXXXXXXX",
"XXXXXXXXXXXXXXXXXXX   ...................   XXXXXXXXXXXXXXXXXXXX",
"XXXXXXXXXXXXXXXXXXXXXX    ...........    XXXXXXXXXXXXXXXXXXXXXXX",
"XXXXXXXXXXXXXXXXXXXXXXXXXX    ...    XXXXXXXXXXXXXXXXXXXXXXXXXXX",
"XXXXXXXXXXXXXXXXXXXXXXXXXXXXXX   XXXXXXXXXXXXXXXXXXXXXXXXXXXXXXX",
"XXXXXXXXXXXXXXXXXXXXXXXXXXXXXXXXXXXXXXXXXXXXXXXXXXXXXXXXXXXXXXXX"
};
